<svg id="Layer_1" data-name="Layer 1" xmlns="http://www.w3.org/2000/svg" viewBox="0 0 131 131"><defs><style>.cls-1{fill:#ef8429;}</style></defs><path class="cls-1" d="M22.34,44.25a6.44,6.44,0,0,1,.49.83c.2.44.43.49.63.06s.49-.58.86-.18a.83.83,0,0,0,.21-.71c-.1-.56.25-.77.63-1a3.6,3.6,0,0,1,2.66-.76c.7.11.74.18.34.74-.57.81-.51,1,.35,1.44.15.44.74.61.74,1.15l-.14.07-.17,0a2.09,2.09,0,0,0-1.15.68c-.14.13,0,.19,0,.3.09.42.2.84.26,1.26s0,.55-.43.32a2.05,2.05,0,0,0-.5-.22,2.22,2.22,0,0,0-1,0c-.44.06-.26.48-.34.73A5,5,0,0,1,25,50.36c-.27.38-.46.52-.65,0a.61.61,0,0,0-.22-.27,10,10,0,0,1,0,1.45c-.2,0-.32-.1-.46-.15s-.31-.17-.39-.13c-.52.29-.84.12-1.19-.3-.13-.15-.43.18-.49.32s-.56.42-.27.83c.11.16.44.43-.07.56-.12,0-.09.12,0,.19s.14.35.38.34l.42,0c.82,0,.86,0,.59.71-.09.24,0,.34.2.41l.58.59c0,.15.17.33-.16.38-.54.09-.68.42-.57.95,0,.21.18.53-.2.65-.21-.41-.59-.29-.91-.25s-.14.36-.22.54a4.57,4.57,0,0,1-.35.7c-.09.14-.3.26-.4.09-.2-.35-.67-.42-.81-.82s-.28-.31-.52-.28a1.4,1.4,0,0,0-.34-.08c-.9,0-.94-.11-.49-.92,0-.09.13-.16.15-.25.08-.25-.11-.2-.24-.2-.07-.18-.19-.25-.38-.14,0-.59.57-.71.87-1.07-.06-.1-.19,0-.29,0-.42.08-.48-.08-.37-.46,0-.18.35-.53-.2-.51,0,0-.1,0-.1,0,.09-1.19-.87-.62-1.33-.71s-.38-.15-.28-.41a1.35,1.35,0,0,1,.24-.48c.45-.46.32-.72-.25-.88-.05,0-.08-.08-.12-.13l.87-.73a1.23,1.23,0,0,0,.66-.25,1.06,1.06,0,0,0-.8-.11c-.35,0-.42-.09-.2-.42s.35-.55.08-.74-.65-.35-.93.06c-.09-.37-.23-.09-.36,0-.18-.38-.72-.25-.91-.62a.33.33,0,0,0-.44-.18l-.95.25c0-.15,0-.26,0-.38s.2-.65-.34-.35a.06.06,0,0,1-.06,0c-.66-.53-1.11,0-1.61.32-.21-.13-.22-.36-.3-.56,0-.72-.36-.89-1-.74a1.15,1.15,0,0,1,.17-.63.41.41,0,0,0-.08-.66c-.61-.36-.12-.5.12-.6s.52-.34.42-.72c.3-.48.66.07,1-.06h0l.08.13a.86.86,0,0,0,.6.44l.09-.75c.46.52.94.29,1.42.2h.3c-.19.64.84.94.45,1.63,0,0,.09.08.13.08a2.29,2.29,0,0,0,1.28-.46c.29-.24-.2-.26-.19-.45s0-.13,0-.16c.56-.44,0-.52-.23-.65s-.72-.27-1.07-.4l-.19,0a2.49,2.49,0,0,1,1.26-1.44c.68-.47.69-.53.13-1.09s-.52-.55.19-.82a4.25,4.25,0,0,1,1.53-.3c.19,0,.48,0,.32-.31-.33-.69.12-.51.48-.45s.36-.51.74-.34c.12.36.33.31.52.09s.24-.12.41.07.41.91,1.08.86.65,0,.32.65c-.23.42.19.81.18,1.23h.06c0,.17,0,.36.24.38.05.29.42.57-.08.87-.18.11.19.43.22.68a2.73,2.73,0,0,0-.39.85c-.06.48.37.59.61.8S22.3,44.48,22.34,44.25Z"/><path class="cls-1" d="M19.26,56.78c.24,0,.43,0,.52.28s.61.47.81.82c.1.17.31,0,.4-.09a4.57,4.57,0,0,0,.35-.7c.08-.18-.1-.5.22-.54s.7-.16.91.25q-1.2,2.7-2.39,5.4c-.15.34-.29.69-.47,1.13l.78-.25A7.83,7.83,0,0,1,25.6,63a7.06,7.06,0,0,0,1.3.22.57.57,0,0,0,.61-.15c.59-.35.69.16.88.5a4.22,4.22,0,0,1-2.45.28,12.9,12.9,0,0,1-2.05-.55,3.41,3.41,0,0,0-2.79.31c-1.51.75-1.52.74-1.38,2.44,0,.22-.13.56.11.66s.48-.22.68-.41.34-.38.63-.71c-.05.34-.08.54-.1.74-.22,1.81-.28,3.66.8,5.2.89,1.28,1.76,2.55,2.62,3.84a5.37,5.37,0,0,0,3.8,2,1,1,0,0,1,.63.3,13.75,13.75,0,0,0,4.24,3.37.21.21,0,0,1,.13.13,12.51,12.51,0,0,1-3.6-.6A18.79,18.79,0,0,1,25,78.38a11.56,11.56,0,0,0-4.32-1.48c-.54-.09-.85-.21-1-.85A9.6,9.6,0,0,0,17.44,72c-.52-.67-1.11-1.29-1.67-1.92-.16-.17-.29-.33-.21-.58a6.44,6.44,0,0,0-.09-3.64.83.83,0,0,1,.28-.94c.86-.81,1.45-1.75.88-3a2.81,2.81,0,0,1-.13-.59.25.25,0,0,1,0-.12c.17-.34,0-1,.78-.77.14,0,.16-.14.21-.24a.49.49,0,0,1,.52-.28c.77,0,.79,0,.78-.81a1.19,1.19,0,0,0,.44-1.2A6.39,6.39,0,0,1,19.26,56.78Z"/><path class="cls-1" d="M56.27,73.16H53.55c-.28,0-.37-.21-.49-.39q-1.41-2.19-2.83-4.37a13,13,0,0,0-1.35-1.71,3.66,3.66,0,0,0-3.19-1.11c-.45,0-.33.33-.33.56,0,2.13,0,4.25,0,6.37,0,.55-.16.7-.68.65s-1,0-1.51,0c-.26,0-.38-.1-.36-.36,0-.1,0-.2,0-.3,0-5.4,0-10.79,0-16.18,0-.5.12-.67.63-.65a51,51,0,0,1,5.39.13A4.46,4.46,0,0,1,52.69,59a4.59,4.59,0,0,1-1,4.85,4.84,4.84,0,0,1-1.28.9c-.17.09-.37.17-.09.36a11.8,11.8,0,0,1,2.91,3.46c1,1.41,1.89,2.86,2.84,4.29C56.15,72.91,56.19,73,56.27,73.16ZM45.36,60.62v2.3c0,.25,0,.43.34.42a14.55,14.55,0,0,0,2.72-.13c1.4-.32,2-1.25,1.93-3A2.34,2.34,0,0,0,48.18,58a21.66,21.66,0,0,0-2.42-.08c-.32,0-.41.12-.41.42C45.37,59.09,45.36,59.86,45.36,60.62Z"/><path class="cls-1" d="M52.16,79.06c-2,1.43-4.07,2.77-6,4.32a12.46,12.46,0,0,0-1.71,1.53.59.59,0,0,1-.64.19,44.3,44.3,0,0,0-14.35-.25,26.2,26.2,0,0,0-3.74.69.54.54,0,0,1-.73-.29,13.26,13.26,0,0,0-3.11-3.69,13.14,13.14,0,0,0-3.24-1.74,1.44,1.44,0,0,1-.52-.3c-1.53-1.62-3.17-3.14-4.86-4.64.29-.11.46.07.64.18a25.06,25.06,0,0,0,7,2.86,4.51,4.51,0,0,0,1.13.18,4.66,4.66,0,0,1,2.65.84,19.9,19.9,0,0,0,5.82,2.5,5.85,5.85,0,0,0,1.56.19,45.39,45.39,0,0,1,10.46,1,4.93,4.93,0,0,0,2.66-.39,43.42,43.42,0,0,0,6-2.89L52,79Z"/><path class="cls-1" d="M126.39,93Q73.86,94.08,21.32,93,73.85,91.86,126.39,93Z"/><path class="cls-1" d="M72.08,62.36a6,6,0,0,1,2.14-.85,4.64,4.64,0,0,1,5.37,3.14c.9,2.6.77,5.1-1.26,7.21a5.63,5.63,0,0,1-4.19,1.59,11.75,11.75,0,0,1-4-.7.63.63,0,0,1-.51-.69q0-7.91,0-15.82c0-.41.08-.59.53-.55a9,9,0,0,0,1.27,0c.43,0,.55.12.54.54,0,1.94,0,3.88,0,5.82C72,62.14,71.94,62.25,72.08,62.36ZM72,67.74v1.93c0,1.51,0,1.51,1.5,1.72a3.49,3.49,0,0,0,4.11-2.55,5.36,5.36,0,0,0,.08-2.58,3.18,3.18,0,0,0-5.3-2,.92.92,0,0,0-.4.82C72,66,72,66.85,72,67.74Z"/><path class="cls-1" d="M66.9,69.93v1.91c0,.22-.16.3-.32.4a7.41,7.41,0,0,1-5.28,1.08,5.66,5.66,0,0,1-4.63-5.6,6.1,6.1,0,0,1,1.68-4.83,5.06,5.06,0,0,1,5.28-1.21,4.81,4.81,0,0,1,3.3,4c.41,2,.38,2-1.61,2s-3.8,0-5.7,0c-.56,0-.63.21-.53.68a3.66,3.66,0,0,0,4.44,2.85,7.47,7.47,0,0,0,2.88-1C66.54,70,66.64,69.88,66.9,69.93Zm-5-3.69h2.55c.22,0,.38,0,.37-.32a2.73,2.73,0,0,0-1.56-2.28,3,3,0,0,0-4.07,2c-.12.41-.08.59.41.57C60.33,66.22,61.09,66.24,61.86,66.24Z"/><path class="cls-1" d="M92.13,69.81c0,.74,0,1.36,0,2,0,.25-.15.34-.32.46a7.44,7.44,0,0,1-5.23,1.08A5.69,5.69,0,0,1,81.9,67.7a6.3,6.3,0,0,1,1.29-4.37,5,5,0,0,1,5.39-1.72c2.12.5,3.15,2.07,3.58,4.08s.38,2-1.56,2H84.91c-.7,0-.72,0-.55.73a3.61,3.61,0,0,0,4.41,2.78,7.61,7.61,0,0,0,1.7-.45A10.66,10.66,0,0,0,92.13,69.81Zm-5-3.57c.77,0,1.54,0,2.31,0,.53,0,.61-.17.51-.63a2.54,2.54,0,0,0-2.77-2.18,3,3,0,0,0-2.86,2.42c-.06.31,0,.39.33.39C85.5,66.23,86.33,66.24,87.15,66.24Z"/><path class="cls-1" d="M116.56,65.45c0-.82,0-1.51,0-2.19a.74.74,0,0,1,.31-.56,4.88,4.88,0,0,1,3.8-1.26,4.6,4.6,0,0,1,1.71.33,3.35,3.35,0,0,1,2.19,3.2c0,1.85,0,3.71,0,5.57,0,1,.26,1.14,1.1.66l.56-.33v1.38a.43.43,0,0,1-.22.4,4,4,0,0,1-2.38.75,1.27,1.27,0,0,1-1.25-.79c-.12-.31-.24-.28-.48-.11a4.61,4.61,0,0,1-2.83.9,2.83,2.83,0,0,1-1.53-5.17,21.34,21.34,0,0,1,3.81-1.71c.35-.14,1,0,.92-.72s0-1.64-1-2a3.76,3.76,0,0,0-3.26.4A10.43,10.43,0,0,0,116.56,65.45Zm5.71,3.78c0-.47,0-.93,0-1.39,0-.2-.06-.32-.28-.24A7.78,7.78,0,0,0,119.21,69a1.48,1.48,0,0,0-.51,1.52,1.61,1.61,0,0,0,1.81,1.25,1.78,1.78,0,0,0,1.76-1.65Z"/><path class="cls-1" d="M49.61,32.51c.19.12.11.51.46.47.11,0,.22,0,.26-.13h0c.22.06.43.13.39.43s-.07.74.29,1c.08.06.09.24,0,.23-.45-.06-.43.57-.84.54a.14.14,0,0,0-.11,0c.07.7-.58.62-.93.86s0,.55,0,.81,0,.47,0,.71A5.29,5.29,0,0,0,47.4,38a.68.68,0,0,0-.55.89,1.33,1.33,0,0,1,0,.88c-1.39-.31-1.39-.31-1.53.44-.11.18-.22.36-.34.54a.86.86,0,0,1-.28.45c-.18.22-.29.19-.42-.07s-.24-.65-.72-.6c-.29,0-.16-.26-.16-.41s-.09-.4-.4-.36-.85,0-1.26.07-.32-.14-.27-.34a3.35,3.35,0,0,1,.22-.63c.09-.2.21-.38.36-.64-.51.16-.62-.24-.85-.47.28-.26.28-.44-.14-.48a4,4,0,0,0-.49,0c-1.09,0-1.09,0-.83-1,0,0,0-.09,0-.11.47-.48.4-.8-.27-1-.36-.08-.21-.25-.06-.41a3.26,3.26,0,0,1,2.37-1c.44,0,.76-.46,1.24-.23.09.05.14-.21.19-.34.09-.29.18-.7.45-.73s.64.39.67.51c.14.5.48.41.75.34.61-.14.61.11.42.54a.94.94,0,0,0,0,.16,1,1,0,0,0,1.37-.68c.07-.17.17-.26.37-.19.46.18.6-.1.73-.46s.29-.9.76-.22c0,.05.15,0,.23,0C49.21,33,49.41,32.6,49.61,32.51Z"/><path class="cls-1" d="M103.46,70.51v2a.33.33,0,0,1-.25.36c-2.14.73-4.3,1-6.33-.23a5.57,5.57,0,0,1-2.71-5.33,5.65,5.65,0,0,1,3.56-5.49,6.87,6.87,0,0,1,5.19.32.39.39,0,0,1,.29.4c0,.68,0,1.37,0,2-.24.09-.37-.09-.51-.18a5.39,5.39,0,0,0-2.41-.74A3.47,3.47,0,0,0,96.54,67c-.18,3,1.92,4.74,4.92,4.15A20,20,0,0,0,103.46,70.51Z"/><path class="cls-1" d="M114.36,64.68a5.85,5.85,0,0,0-3-1.05,3.47,3.47,0,0,0-3.67,3.31c-.25,3.18,2.07,4.93,5.45,4.09l.23-.08c1.24-.41,1.24-.41,1.23.93,0,.91,0,.9-.88,1.17a8.23,8.23,0,0,1-3.65.28A5.69,5.69,0,0,1,105.33,67a6.33,6.33,0,0,1,1.4-3.67c1.68-1.9,3.81-2.21,6.14-1.61,1.5.38,1.49.41,1.49,2Z"/><path class="cls-1" d="M23.86,32.74a1.73,1.73,0,0,1,.5-.89c.09-.09.17-.19.06-.31s-.17-.25-.28-.16-.5,0-.71.07c-.72.2-.52-.22-.4-.56.25-.75.25-.75-.44-1.15a1.58,1.58,0,0,1,1.58-.61c0-.16-.05-.22-.12-.29-.33-.34-.39-.62.2-.67s.69-.7.95-1.08A13.83,13.83,0,0,0,26,24.87c-.13.61-.24,1.16-.35,1.71a.75.75,0,0,0,.07.58c.47.71.46.71,1.21.27l.22.24c-.07.39-.07.61.46.79a3,3,0,0,1,2,1.47c.26.17.13.53.35.72,0,.27.19.66-.38.5-.16,0-.44-.22-.47.13s-.13.52.25.65a2.25,2.25,0,0,1,.85.56c.5.49.49.62-.06.91.08.12.21.07.32.11l.43.45c.1.07.21.25.12.28-.37.12-.27.34-.21.59.1.43-.22.31-.43.31-.05,0-.1-.08-.14,0s0,.07.05.1l.31.7c-.4-.34-.61-1-1.14-.38.28.26.77.27.87.72l-.19.12c-.24-.45-.67-.5-1.12-.52,0-.11.33-.1.14-.31A1.08,1.08,0,0,0,29,35.3c-.14-.16.06-1-.52-.28-.48-.2-.61.25-.86.48a.41.41,0,0,1-.33-.38c-.07-.84-.66-1-1.34-1.17-.38-.5-.62-.16-.86.15a.37.37,0,0,1-.23-.38C24.73,32.79,24.73,32.79,23.86,32.74Z"/><path class="cls-1" d="M53.36,34.71c-.48-.05-.57-.23-.19-.57a2.58,2.58,0,0,1,2-.78c.26,0,.48,0,.56-.28,0-.13.14-.32.3-.16.38.4.49.06.63-.21l.17-.25c.27-.3.51-.57.69.08.11.39.33.71.83.41.28-.18.35,0,.34.23,0,.51.21.31.42.16a2.14,2.14,0,0,1,2.34.16c.17.17.3.32,0,.43s-.53.36-.31.76a2.27,2.27,0,0,1,.12.53c.11.37,0,.55-.35.32s-.57,0-.85-.08-.37.14-.29.41a1.43,1.43,0,0,1,.07.71c0,.13,0,.34-.25.23a1.66,1.66,0,0,0-2,.31h0a.31.31,0,0,0-.07-.09c-.25-.15-.51-.41-.76-.41s-.27.44-.42.67c-.33.5-.4.5-.72,0-.1-.15-.17-.34-.4-.29s-.32-.1-.29-.31c0-.37-.16-.45-.47-.41a1.09,1.09,0,0,1-.36,0c-.29-.05-.69.21-.84,0s.1-.63.21-1C53.65,35,53.65,35,53.36,34.71Zm4.09,2.07c0-.67,0-.67-.55-.63Z"/><path class="cls-1" d="M60.3,84.34A25.53,25.53,0,0,1,63,88c-1.22.23-1.27.2-1.89-.76-.37-.58-.76-1.15-1.15-1.71a2.07,2.07,0,0,0-.74-.7c-.76-.42-1.14-.2-1.14.64s0,1.46,0,2.18c0,.5-.29.43-.6.43s-.59.08-.59-.42c0-2.35,0-4.69,0-7,0-.34.11-.46.45-.45.63,0,1.26,0,1.88,0a2.18,2.18,0,0,1,2.19,1.58,2.09,2.09,0,0,1-.95,2.45A.92.92,0,0,0,60.3,84.34ZM58,82.4c0,1.39,0,1.39,1.29,1.18a1.12,1.12,0,0,0,1-1.4c-.09-.77-.65-1.07-1.83-1-.83,0-.27.67-.43,1A.63.63,0,0,0,58,82.4Z"/><path class="cls-1" d="M47.06,41.61c.57,0,.42-.52.58-.78s.18-.34.46-.17.53.18.57-.26c0-.06.1-.1.15-.15.26.57,1-.18,1.29.45,0,.11.48,0,.74.07s.59.12.23.49-.31.62.14.85a1.52,1.52,0,0,1,.38.38c.24.27.25.45-.18.55a.58.58,0,0,0-.46.86c0,.25,0,.51,0,.77a4.48,4.48,0,0,0-.52-.16c-.69-.09-.83,0-.81.72a2.5,2.5,0,0,1-.39,1.61l.12-1.19c-.41.43-.66.45-.82,0-.06-.17-.19-.37-.46-.27s-.25,0-.23-.17c.11-.59-.28-.55-.66-.53h-.42c-.74,0-.79-.06-.44-.77.18-.37.52-.73-.21-.91-.27-.06-.13-.25,0-.36s.41-.39.61-.58C46.72,41.79,47,41.77,47.06,41.61Z"/><path class="cls-1" d="M110.24,84.11c0-1.11,0-2.22,0-3.33,0-.52.16-.64.65-.62,1.07,0,2.14,0,3.21,0,.38,0,.68,0,.68.53s-.37.5-.71.5c-.71,0-1.42,0-2.12,0-.38,0-.56.09-.54.51a14,14,0,0,1,0,1.45c0,.31.12.42.43.42.76,0,1.53,0,2.3,0,.4,0,.51.12.51.52s-.1.57-.54.56c-.74,0-1.49,0-2.24,0-.33,0-.47.11-.46.45,0,.51,0,1,0,1.52s.14.48.5.48c.83,0,1.65,0,2.48,0,.45,0,.47.2.48.55s-.12.48-.49.48q-1.84,0-3.69,0c-.36,0-.45-.12-.44-.46C110.25,86.45,110.24,85.28,110.24,84.11Z"/><path class="cls-1" d="M34.82,40.52c.25.19.39-.08.57-.17a2.45,2.45,0,0,1,2.32,0,1.41,1.41,0,0,1,.84,1.37.8.8,0,0,1-1.14.75.64.64,0,0,1-.35-.71.59.59,0,0,1,.53-.5c.14,0,.36.1.39-.15s-.13-.28-.26-.38a1.65,1.65,0,0,0-1.78-.14A1.32,1.32,0,0,0,35.27,42a9.87,9.87,0,0,0,.66,2.19c.13.38.49.15.75.2s.78-.2.79.09-.51.22-.79.24-.59.12-.53.57A2.43,2.43,0,0,1,36,46.56c-.13.31,0,.47.27.49a14.21,14.21,0,0,0,1.45.07.91.91,0,0,0,1-.81c0-.14,0-.31.24-.26s.11.23.11.36a1.83,1.83,0,0,1-2.81,1.72c-.5-.25-.83-.39-1.22.16a.92.92,0,0,1-1.21.24.73.73,0,0,1-.4-.87,1.06,1.06,0,0,1,1-.8,2.57,2.57,0,0,1,.48,0c.64,0,.69-.08.53-.7,0-.17-.12-.34-.17-.51-.15-.55-.46-.83-1.06-.67a1,1,0,0,1-.3,0c-.16,0-.43.11-.45-.15s.27-.16.42-.2a3.93,3.93,0,0,1,.48-.06c.26,0,.31-.12.21-.35a3.73,3.73,0,0,1,0-3.1h0c.18-.12.41-.21.25-.49h0c.15.07.19,0,.13-.12Zm-.55,7.78a.88.88,0,0,0,.83-.68c0-.33-.41-.33-.69-.34s-.69.11-.7.56S33.91,48.29,34.27,48.3Z"/><path class="cls-1" d="M69.88,84c0-1.11,0-2.22,0-3.33,0-.44.15-.53.55-.53s.56.14.54.55c0,.69,0,1.38,0,2.06,0,.28.07.36.35.23a2.06,2.06,0,0,1,2.6.43,2.94,2.94,0,0,1,.49,3.18,2.35,2.35,0,0,1-2.29,1.58A5.41,5.41,0,0,1,70.31,88a.53.53,0,0,1-.44-.6C69.89,86.25,69.88,85.14,69.88,84Zm3.66,1.41a1.63,1.63,0,0,0-.79-1.59,1.43,1.43,0,0,0-1.49.11.53.53,0,0,0-.31.53c0,.76,0,1.53,0,2.29,0,.28.1.39.37.44A1.67,1.67,0,0,0,73.54,85.43Z"/><path class="cls-1" d="M65.88,88.19a2.73,2.73,0,1,1,2.87-2.63A2.68,2.68,0,0,1,65.88,88.19ZM64.25,85.4a1.63,1.63,0,0,0,1.65,1.83A1.77,1.77,0,0,0,66,83.7,1.62,1.62,0,0,0,64.25,85.4Z"/><path class="cls-1" d="M94.35,85.49a2.66,2.66,0,0,1,2.81-2.75,2.68,2.68,0,0,1,2.77,2.74,2.66,2.66,0,0,1-2.86,2.71A2.63,2.63,0,0,1,94.35,85.49Zm2.77,1.74a1.76,1.76,0,0,0,0-3.52,1.76,1.76,0,0,0,0,3.52Z"/><path class="cls-1" d="M123.38,88.18a2.69,2.69,0,0,1-2.78-2.67,2.72,2.72,0,0,1,2.83-2.77,2.7,2.7,0,0,1,2.79,2.72A2.66,2.66,0,0,1,123.38,88.18Zm.05-1a1.77,1.77,0,1,0-1.74-1.71A1.69,1.69,0,0,0,123.43,87.23Z"/><path class="cls-1" d="M80,86.61c.14,1,.1,1.08-.76,1.39a2.76,2.76,0,0,1-3.35-.92,3.05,3.05,0,0,1,.29-3.66,2.41,2.41,0,0,1,2.63-.48,2.62,2.62,0,0,1,1.36,2.34c0,.36-.24.31-.46.31-.9,0-1.81,0-2.72,0-.46,0-.52.16-.37.54a1.58,1.58,0,0,0,1.43,1A3.58,3.58,0,0,0,80,86.61Zm-2.21-1.69c.3,0,.6,0,.9,0s.46-.15.34-.47a1.1,1.1,0,0,0-.94-.76,1.31,1.31,0,0,0-1.35.61c-.1.15-.23.32-.16.5s.31.11.48.12S77.54,84.92,77.79,84.92Z"/><path class="cls-1" d="M40.89,85.36a24,24,0,0,0-9,2c-.15.06-.28.19-.43,0a7.54,7.54,0,0,0-2.19-1.71A25.53,25.53,0,0,1,41,85.18Z"/><path class="cls-1" d="M11.43,50.47c-.15.31-.58.28-.73.63.17.19.46,0,.64.19s.71.21.16.58c-.24.16,0,.37,0,.55s.14.47-.31.4-.82,0-1,.44a.23.23,0,0,1-.25-.17c-.27-.55-.27-.55-.64,0a.3.3,0,0,1-.42.13c-.26-.14-.36,0-.38.23s-.07.68-.34.72a.86.86,0,0,1-.7-.42c-.18-.38-.46-.24-.66-.18a.92.92,0,0,1-.7-.08c.12-.28.78-.51,0-.87-.16-.08-.07-.21,0-.31.19-.27.44-.57.74-.58.84,0,1-.65,1.33-1.23.24,0,.3-.24.48-.31a1.94,1.94,0,0,1,2.21.05Z"/><path class="cls-1" d="M102.17,83.39a2.36,2.36,0,0,1,1.79-.63,1.67,1.67,0,0,1,1.49,1.72c.08,1.08,0,2.17,0,3.26,0,.5-.38.29-.62.33s-.46,0-.45-.38c0-1,0-1.9,0-2.84s-.52-1.31-1.31-1.17a1.12,1.12,0,0,0-1,1.16c0,.93,0,1.86,0,2.79,0,.41-.18.46-.51.45s-.59,0-.58-.45c0-1.37,0-2.75,0-4.12,0-.23-.21-.63.28-.65S102.18,82.68,102.17,83.39Z"/><path class="cls-1" d="M90,86.63a3.58,3.58,0,0,0,1.44.6c.35,0,.79.1.92-.36s-.24-.6-.53-.78-.78-.49-1.17-.76A1.37,1.37,0,0,1,90,83.74a1.41,1.41,0,0,1,1.33-1,3.21,3.21,0,0,1,1.53.25.51.51,0,0,1,.35.51c0,.67,0,.7-.61.41a2,2,0,0,0-1-.24c-.21,0-.42.09-.48.31a.46.46,0,0,0,.22.52c.29.19.59.36.87.55a5.7,5.7,0,0,1,.7.47,1.42,1.42,0,0,1,.54,1.51,1.49,1.49,0,0,1-1.24,1.1,3,3,0,0,1-1.26,0C89.9,87.85,89.85,87.78,90,86.63Z"/><path class="cls-1" d="M29.25,45.79c0-.54-.59-.71-.74-1.15l1.18-.47a5.42,5.42,0,0,0,3-2.73,10.84,10.84,0,0,1,2.72-3.19c-.08.35-.14.68.42.58-.29.59-.88,1-1,1.69h0c-.1,0-.13,0-.13.12h0c-.19.11-.35.23-.25.49h0a.59.59,0,0,0-.61.47c-.71,2-2.36,2.94-4.1,3.81-.19.09-.54.07-.39.46h0Z"/><path class="cls-1" d="M32,29.85s-.08-.11-.13-.12c-.68-.14-.75-.23-.35-.81.27-.37.16-.57-.16-.75s-.21-.28,0-.42A2.14,2.14,0,0,1,33.7,28c.15.15.32.13.48.17a22.56,22.56,0,0,1,3.18,1.1h0a2.17,2.17,0,0,1-.77-.08c-.62-.31-.87.27-1.2.52s.15.58,0,.94l-.7-.19c-.22-.07-.39-.16-.5.18s-.48.2-.72.35-.21-.41-.45-.51C32.93,29.84,32.47,29.86,32,29.85Z"/><path class="cls-1" d="M118,85.89l1-2.25c.38-.88.38-.88,1.45-.73l-1.63,3.77c-.18.43-.35.86-.55,1.28s-.41.35-.56,0c-.73-1.6-1.43-3.21-2.14-4.81,0-.1-.11-.22,0-.3a1,1,0,0,1,1.16.42l1.14,2.53S117.91,85.83,118,85.89Z"/><path class="cls-1" d="M31,51.14c.26.26.77.49,0,.79-.22.09-.29.33-.21.61s.06.59-.41.37c-.3-.14-.5,0-.65.29-.33.79-.35.78-1.08.46-.55-.81-.55-.81-1.5-.53h-.06a4.77,4.77,0,0,1,.26-.86c.16-.28.31-.48-.13-.62-.21-.07-.15-.22,0-.32a2,2,0,0,1,.67-.38,14.21,14.21,0,0,0,2.22-.77,1.35,1.35,0,0,1,.53-.06c.46,0,.53.22.19.54S30.86,51,31,51.14Z"/><path class="cls-1" d="M85.55,83.79,87.3,81.9c.27.27-.13.76.27.91a2.2,2.2,0,0,0,1,0c.39,0,.52.1.52.51s-.15.46-.5.47c-1.15,0-1.15,0-1.15,1.18,0,.41,0,.81,0,1.21,0,.93.4,1.18,1.29.93.17,0,.45-.43.57,0s.18.75-.36.94c-1.52.53-2.53-.14-2.55-1.74,0-.62,0-1.25,0-1.88s-.13-.7-.63-.61A.49.49,0,0,1,85.55,83.79Z"/><path class="cls-1" d="M22.88,102.59c.5-1.47.94-2.76,1.4-4.06.08-.2,0-.55.4-.52s.25.33.32.53c.46,1.29.9,2.59,1.4,4,.33-1,.61-1.95.89-2.86.14-.44.27-.89.41-1.33.06-.18.1-.45.38-.37s.07.32,0,.45c-.46,1.49-.94,3-1.4,4.45-.06.18-.08.38-.32.37s-.23-.21-.28-.36c-.41-1.18-.81-2.37-1.22-3.55a1.05,1.05,0,0,0-.31-.6L23.48,102l-.35,1c0,.14-.1.27-.28.26s-.22-.14-.27-.28l-1.47-4.68c0-.1-.14-.24,0-.31a.25.25,0,0,1,.35.14c.07.19.13.38.19.57Z"/><path class="cls-1" d="M18.8,59.05c0,.77,0,.82-.78.81a.49.49,0,0,0-.52.28c-.05.1-.07.29-.21.24-.79-.26-.61.43-.78.77a.25.25,0,0,0,0,.12,2.3,2.3,0,0,1-.76-.79c-.1-.27-.34-.14-.52-.19s-.3.08-.36-.11.51-.49,0-.88c-.13-.1.4-.38.69-.5a.71.71,0,0,0,.11-.12c-.5-.24-.63-.51,0-.78,0,0,0,0,0,0,.38-.68.43-.69,1.2-.33.29.21.55.5,1,.44h0l.17.11a1,1,0,0,1,.3,0c.57.08.63.23.31.7C18.47,59,18.59,59.05,18.8,59.05Z"/><path class="cls-1" d="M56.28,47.68c-.41-.16-.84.16-1.3-.11-.21-.12-.48.32-.62.57-.26.45-.41.31-.58,0,0-.05-.05-.11-.08-.17-.22-.52-.22-.52-.77-.29a2,2,0,0,1,.19-1.5,1.3,1.3,0,0,1,.48-.65c.12-.26.51-.39.4-.78a.12.12,0,0,1,.13-.16c.26.08.52.28.79,0,.32.58,1,.45,1.47.85.09.09.29.24.09.32-.91.34-.44.85-.19,1.34C56.28,47.28,56.28,47.48,56.28,47.68Z"/><path class="cls-1" d="M82.34,83.7c.29-.25.53-.48.8-.69a1.33,1.33,0,0,1,1.76.18c.31.35-.11.53-.19.78s-.26.21-.48.09a1.19,1.19,0,0,0-1.89,1.11,21.53,21.53,0,0,0,0,2.41c0,.55-.27.48-.63.51s-.46-.14-.46-.48c0-1.41,0-2.82,0-4.23,0-.43.12-.54.54-.54s.6.12.54.54A1.6,1.6,0,0,0,82.34,83.7Z"/><path class="cls-1" d="M35.84,38.83c-.56.1-.5-.23-.42-.58s.68-.54,0-.85c.34-.25-.11-.74.28-1a1.23,1.23,0,0,1,1.5.24c.33.56,1,.48,1.46.7-.05.13,0,.23.11.32s.17.32-.12.37-.58.29-.39.72a.93.93,0,0,1,0,.41c0,.26.06.45-.38.31s-1.11-.42-1.56.19c-.18.23-.31.12-.37-.11Z"/><path class="cls-1" d="M20.63,31.55l.73,1a1,1,0,0,0,.26.62c-.05.32-.09.64-.16.95,0,.1-.09.29-.23.17-.59-.51-.59.13-.78.39l-.12.13c-.17.09-.3.12-.4-.12s-.19-.61-.5-.77l-.86-.27c-.42,0-.58-.08-.33-.48a1.25,1.25,0,0,1,.25-.34c.39-.32.37-.63,0-.91s-.16-.33.09-.44a1.92,1.92,0,0,1,1.23-.07c.18,0,.34.13.53.06Z"/><path class="cls-1" d="M15.15,53.63c-.28.27-.69,0-.83.27a4.62,4.62,0,0,0-.24,1c-.06.23.11.26.27.31.86.23,1.12.15,1.6-.58a1.22,1.22,0,0,1-.45,1.25,1,1,0,0,1-1.19.07c-.36-.2-.68-.37-1,0a.51.51,0,0,1-.67,0,.46.46,0,0,1-.22-.52.6.6,0,0,1,.5-.47S13,55,13,55c.23-.14.72.31.71-.32s-.25-.84-.92-.87c-.1,0-.2,0-.27-.09s0-.1,0-.1c.68,0,.66-.31.59-.87A1.54,1.54,0,0,1,15,50.84a1,1,0,0,1,.88,1,.5.5,0,0,1-.42.57.4.4,0,0,1-.51-.32c-.06-.29.09-.46.38-.5s.19-.19.05-.31a1,1,0,0,0-1-.18.82.82,0,0,0-.54.81,5.3,5.3,0,0,0,.3,1.41c0,.19.21.21.38.21A1.06,1.06,0,0,1,15.15,53.63Zm-1.68,1.79a.64.64,0,0,0-.52-.19c-.18,0-.36.12-.35.35a.29.29,0,0,0,.38.27A.57.57,0,0,0,13.47,55.42Z"/><path class="cls-1" d="M27.07,53.13h.06c.95-.28.95-.28,1.5.53a22.87,22.87,0,0,0-5.23,1.16l-.58-.59a8,8,0,0,1,3.07-1.08c-.22-.22-.36-.42-.65-.36-.12-.15-.27-.3,0-.42.32-.39.25-.58-.43-.91.53,0,.4-.28.42-.51a.92.92,0,0,1,1.37-.84c.28.17.4.4.17.7-.06.09-.09.26-.26.17a.23.23,0,0,1-.09-.36c.08-.12.39-.22.07-.38a.49.49,0,0,0-.69.17,1,1,0,0,0,.65,1.34c-.5-.06-.69.1-.74.44,0,.12-.1.25.06.31.32.12.65.24.91-.17.14.33-.2.48-.16.72S26.9,53.1,27.07,53.13Z"/><path class="cls-1" d="M29.15,35.56c.19.21-.1.2-.14.31a.92.92,0,0,0-.73,1,11.61,11.61,0,0,0,.29,1.3c.15.61.79,0,1,.42l0,.06c-.73,0-.89.41-1,1-.09.44,0,.52.38.58.61.11,1.21.21,1.5-.75a1.3,1.3,0,0,1-.38,1.38,1,1,0,0,1-1.29.13c-.41-.23-.74-.39-1.14.05a.56.56,0,0,1-.73,0,.47.47,0,0,1-.2-.48.69.69,0,0,1,.51-.54,1.75,1.75,0,0,0,.24,0c.23-.09.66.28.67-.3s-.29-.95-.78-1c-.17,0-.36.08-.49-.12a2,2,0,0,0,.6-1.22C27.43,36.48,28,35.92,29.15,35.56Zm-1.25,5a.62.62,0,0,0-.5-.24c-.25,0-.45.13-.44.39a.3.3,0,0,0,.38.28A.68.68,0,0,0,27.9,40.53Z"/><path class="cls-1" d="M28.61,25.14a.18.18,0,0,1-.05-.22,2.17,2.17,0,0,1,1.63-1.38,2.08,2.08,0,0,1,1.93.91c.1.17.32.38-.12.45s-.18.36-.15.57c0,.4.1.7-.49.43-.27-.12-.74-.45-.86.24-.36-.14-.54.12-.73.36a.71.71,0,0,1-.29-.6C29.53,25.26,29.17,25.08,28.61,25.14Z"/><path class="cls-1" d="M113.22,99.93c.65-.51,1.29-.76,1.9.09.14.2.24,0,.32-.12a1.18,1.18,0,0,1,1.37-.34,1.14,1.14,0,0,1,.76,1.14c0,.74,0,1.49,0,2.24,0,.16,0,.36-.22.34s-.18-.23-.18-.38c0-.67,0-1.34,0-2s-.31-1.09-.85-1.1a1,1,0,0,0-1,1.08c0,.67,0,1.34,0,2,0,.15.06.38-.17.39s-.22-.24-.22-.4c0-.67,0-1.33,0-2s-.31-1.09-.86-1.07a1,1,0,0,0-.94,1.11v2c0,.16,0,.36-.2.37s-.21-.2-.21-.36c0-1,0-1.94,0-2.9,0-.17-.1-.41.16-.46S113,99.85,113.22,99.93Z"/><path class="cls-1" d="M87,99.94c.84-.64,1.2-.64,1.85,0,.2.21.26.06.36,0a1.21,1.21,0,0,1,1.43-.36,1.14,1.14,0,0,1,.72,1.16c0,.74,0,1.49,0,2.24,0,.14,0,.31-.19.32s-.22-.18-.22-.35c0-.68,0-1.37,0-2.06s-.3-1-.82-1.07a1,1,0,0,0-1,1c0,.62,0,1.25,0,1.88,0,.18.15.54-.18.52s-.16-.36-.17-.55c0-.61,0-1.22,0-1.82s-.34-1.1-.87-1.08A1.07,1.07,0,0,0,87,101c0,.62,0,1.25,0,1.88,0,.16.08.41-.2.42s-.21-.24-.21-.4c0-1,0-1.9,0-2.85,0-.16-.1-.41.15-.46S86.86,99.84,87,99.94Z"/><path class="cls-1" d="M32.84,101.36c0-.51,0-1,0-1.52,0-.12,0-.26.14-.29a.18.18,0,0,1,.21.16c.05.35.18.18.35.08.71-.47,1-.45,1.62.16.18.19.24.11.36,0a1.22,1.22,0,0,1,1.42-.37,1.17,1.17,0,0,1,.74,1.21c0,.72,0,1.45,0,2.18,0,.16,0,.35-.24.33s-.17-.2-.17-.33c0-.69,0-1.38,0-2.07S37,99.8,36.42,99.8a1,1,0,0,0-1,1.09c0,.69,0,1.38,0,2.06,0,.14,0,.32-.18.32s-.19-.17-.19-.31c0-.69,0-1.38,0-2.06s-.31-1.11-.85-1.1a1.05,1.05,0,0,0-1,1.15c0,.64,0,1.29,0,1.94,0,.14.07.37-.17.38s-.22-.23-.22-.4C32.83,102.37,32.84,101.86,32.84,101.36Z"/><path class="cls-1" d="M11.43,43.3c-.32.13-.68-.42-1,.06l-.07-.15c.67-.12.39-.6.34-1A13.72,13.72,0,0,1,11,40a7.57,7.57,0,0,1,.11-1.26.91.91,0,0,0-.41-1c-.15-.43-.62-.41-.92-.63-.15-.09-.07-.21,0-.3l1.1-2L11,35c-.16.5-.3,1-.48,1.49-.1.29,0,.43.27.41.62,0,.75.36.88.87a6.09,6.09,0,0,1-.06,2.91A5.41,5.41,0,0,0,11.43,43.3Z"/><path class="cls-1" d="M102.65,100.06c-.34,1-.62,1.87-.92,2.72-.07.19-.07.5-.37.49s-.24-.3-.3-.47c-.33-1-.65-1.91-1-2.87,0-.12-.22-.32,0-.39s.27.11.32.28c.22.69.45,1.38.67,2.08a1.61,1.61,0,0,0,.34.62c.25-.73.49-1.46.76-2.18.1-.29.06-.79.41-.79s.35.52.46.82c.27.73.5,1.47.8,2.37.33-1,.6-1.84.88-2.68,0-.13.08-.27.13-.4a.21.21,0,0,1,.3-.11c.12.06.07.17,0,.27L104.17,103c0,.12-.09.23-.23.25s-.26-.17-.31-.32C103.32,102.05,103,101.14,102.65,100.06Z"/><path class="cls-1" d="M33.58,51.39a1.65,1.65,0,0,1,1.61,0,2.13,2.13,0,0,0,1.47,0c.48-.1,1.13.12,1.32-.66.06-.23.38-.29.69-.09s.18.5.31.72c.23.39-.13.38-.29.55-.34.38-.46,0-.55-.17s-.3-.35-.61-.27c-.78.19-1.57.35-2.36.52,0,0-.05,0-.11.09.34.6,1.09.42,1.56.82a4.92,4.92,0,0,0-2-.13c-.07,0-.21-.06-.26,0-.24.52-.38.24-.79.1-.74-.26-.29-.58-.28-.9Z"/><path class="cls-1" d="M45.62,49.38c.06-.12.19-.12.3-.18s.67.12.52-.41-.24-.75-.77-.62c-.11,0-.23.1-.38-.08.8-.08.51-.54.4-1a1.37,1.37,0,0,1,1.65-1.69.82.82,0,0,1,.73.77.46.46,0,0,1-.34.51.36.36,0,0,1-.45-.2c-.11-.26,0-.42.27-.51a.66.66,0,0,0,.16-.12.82.82,0,0,0-1.05-.17.73.73,0,0,0-.34.94,1.16,1.16,0,0,0,0,.18c.23.81.3.87,1.26,1-.88,0-.73.68-.8,1.18,0,.25.2.21.35.22.52,0,1,.06,1.18-.74a.93.93,0,0,1-.08,1.08.84.84,0,0,1-.9.37,7.46,7.46,0,0,1-.8-.26l-.2-.09c-.18-.24-.41-.2-.65-.12Z"/><path class="cls-1" d="M82.35,100.65c0-.75,0-1.5,0-2.24,0-.31.09-.43.41-.43.81,0,1.61,0,2.42,0,.13,0,.32,0,.32.17s-.19.17-.32.17c-.63,0-1.25,0-1.88,0-.38,0-.53.09-.54.5,0,1.6,0,1.58,1.56,1.6.24,0,.7-.18.7.16s-.46.17-.71.17c-1.56,0-1.54,0-1.55,1.55,0,.5.17.63.63.61s1.17,0,1.76,0c.14,0,.36,0,.36.2s-.23.18-.38.18c-.78,0-1.57,0-2.36,0-.37,0-.43-.16-.42-.48C82.36,102.1,82.35,101.37,82.35,100.65Z"/><path class="cls-1" d="M92.87,103v1.33c0,.14,0,.31-.2.3s-.2-.17-.2-.31c0-1.47,0-3,0-4.42,0-.14,0-.32.17-.33s.1.34.33.4a5,5,0,0,1,.48-.31,1.38,1.38,0,0,1,2.05.9,3,3,0,0,1,.07,1.26C95.37,103.16,94.31,103.66,92.87,103Zm0-1.53c0,.2,0,.4,0,.6a.83.83,0,0,0,.7.91,1.21,1.21,0,0,0,1.56-.94c.28-.94,0-2-.67-2.16a1.51,1.51,0,0,0-.36-.06C93.26,99.78,92.87,100.3,92.87,101.45Z"/><path class="cls-1" d="M54,29.52c-.18,0-.33,0-.3-.27a.65.65,0,0,0-.14-.61c-.11-.11-.06-.25.09-.26.38,0,.44-.36.57-.6s.18-.41.46-.21c.06,0,.22,0,.22,0,.18-.66.67,0,1-.23a.15.15,0,0,1,.23.11c0,.47.3,1-.36,1.32-.31.14-.09.34,0,.51s.09.52-.35.43a.75.75,0,0,0-.88.26c-.14.19-.23,0-.28-.13A.29.29,0,0,0,54,29.52Z"/><path class="cls-1" d="M22.05,27.75c-.19,0-.45.13-.57,0s.05-.39.19-.52c.37-.32,0-.47-.12-.7.2-.25.54-.14.76-.32.05.36.16,0,.24,0,.16.26.31,0,.47,0l.51-.12a1.14,1.14,0,0,1,.83.3c.15.16.37.19.17.64s-.19.77-.77.61c0,0-.05,0-.05,0-.1.74-.79.24-1.11.54-.07-.32-.35-.56-.27-1C22.15,27.43,22.24,27.65,22.05,27.75Z"/><path class="cls-1" d="M52.65,100.63c0-.73,0-1.46,0-2.18,0-.32.07-.48.43-.47.81,0,1.61,0,2.42,0,.13,0,.32-.06.32.16s-.17.18-.31.18c-.67,0-1.33,0-2,0-.31,0-.44.1-.43.42s0,.88,0,1.33.15.41.45.41h1.63c.14,0,.31,0,.3.19s-.18.19-.31.19c-.53,0-1,0-1.58,0-.36,0-.51.11-.49.48,0,.53,0,1,0,1.58,0,.16,0,.35-.22.35s-.21-.19-.21-.35Z"/><path class="cls-1" d="M24.28,37.37c0,.16.21.16.33.24s.63.22.11.53c-.2.13-.08.33,0,.5.12.33,0,.5-.34.37s-.67.29-1,.24c0-.44-.33-.38-.6-.42.06-.51-.58-.94-.17-1.5l-.08-.08c-.38-.3,0-.34.15-.41.44-.18.86.07,1.3.1C23.89,37.2,24,37.36,24.28,37.37Z"/><path class="cls-1" d="M66.14,101.4V99.83c0-.12,0-.26.15-.29s.19.06.21.17c.06.4.24.18.4.08,1.24-.73,2.17-.22,2.21,1.2,0,.65,0,1.29,0,1.94,0,.16,0,.36-.22.35s-.19-.22-.19-.37c0-.67,0-1.33,0-2s-.35-1.12-1-1.11A1.16,1.16,0,0,0,66.54,101v1.93c0,.15,0,.36-.2.36s-.2-.21-.2-.36Z"/><path class="cls-1" d="M65.06,101.79V103c0,.1,0,.22-.12.25s-.18-.06-.2-.17c-.06-.32-.21-.19-.37-.08a1.62,1.62,0,0,1-1.2.32.84.84,0,0,1-.81-.69.86.86,0,0,1,.43-1,3.47,3.47,0,0,1,1.22-.34c.31,0,.72.06.67-.51s-.32-.92-.81-1a1.43,1.43,0,0,0-.95.33c-.09.07-.2.19-.31.06s0-.24.13-.32a1.59,1.59,0,0,1,1.65-.29c.57.22.64.72.66,1.24C65.07,101.14,65.06,101.47,65.06,101.79Zm-.88-.28a2.69,2.69,0,0,0-1.2.35.64.64,0,0,0,.23,1.15,1.42,1.42,0,0,0,1.32-.44,1,1,0,0,0,.11-.91C64.6,101.4,64.35,101.55,64.18,101.51Z"/><path class="cls-1" d="M99.58,101.43c0,1.2-.64,1.9-1.7,1.89s-1.69-.71-1.69-1.92.65-1.94,1.74-1.92S99.59,100.2,99.58,101.43Zm-.37-.11a3.93,3.93,0,0,0-.06-.44,1.21,1.21,0,0,0-1.37-1.08,1.23,1.23,0,0,0-1.16,1.25,2.91,2.91,0,0,0,0,1,1.12,1.12,0,0,0,.89.9,1.23,1.23,0,0,0,1.31-.41A1.91,1.91,0,0,0,99.21,101.32Z"/><path class="cls-1" d="M58.9,100a7.41,7.41,0,0,1,.64-.41,1.24,1.24,0,0,1,1.89,1c0,.76,0,1.53,0,2.3,0,.14,0,.31-.19.31s-.21-.21-.21-.36c0-.67,0-1.33,0-2s-.34-1.13-1-1.12A1.16,1.16,0,0,0,58.89,101c0,.63,0,1.26,0,1.88,0,.17.06.42-.2.43s-.2-.25-.2-.41q0-1.42,0-2.85c0-.16-.12-.43.13-.46S58.77,99.86,58.9,100Z"/><path class="cls-1" d="M30.27,103.32A1.93,1.93,0,1,1,32,101.38C32,102.57,31.32,103.31,30.27,103.32Zm1.31-1.91a5.55,5.55,0,0,0-.13-.71,1.16,1.16,0,0,0-1.2-.9,1.14,1.14,0,0,0-1.21.9,2.49,2.49,0,0,0,0,1.43A1.09,1.09,0,0,0,30,103a1.24,1.24,0,0,0,1.29-.47A2,2,0,0,0,31.58,101.41Z"/><path class="cls-1" d="M120.15,101.28h-.66c-.74,0-.84.16-.59.85a1.38,1.38,0,0,0,2.06.66c.14-.06.3-.27.42-.08s-.13.29-.27.37A2,2,0,0,1,119,103a2.37,2.37,0,0,1-.48-2.42,1.56,1.56,0,0,1,1.54-1,1.34,1.34,0,0,1,1.16.54,1.18,1.18,0,0,1,.28,1.07c-.15.38-.57.13-.86.18A2.68,2.68,0,0,1,120.15,101.28ZM120,101c.27,0,.53,0,.79,0,.48,0,.49-.21.34-.55a1,1,0,0,0-.84-.68,1.16,1.16,0,0,0-1.21.51c-.12.18-.27.39-.17.61s.36.09.55.1A4.87,4.87,0,0,0,120,101Z"/><path class="cls-1" d="M40.25,101.28h-.72c-.65,0-.74.12-.56.73a1.33,1.33,0,0,0,1.87.88c.13,0,.26-.12.38-.18s.23-.13.3,0-.06.17-.13.23a1.8,1.8,0,0,1-2.67-.54,2.39,2.39,0,0,1,0-2,1.57,1.57,0,0,1,1.72-1,1.46,1.46,0,0,1,1.26,1.35c0,.31,0,.46-.37.44s-.69,0-1,0Zm-.19-.25c.26,0,.52,0,.78,0,.49,0,.49-.23.37-.56a1,1,0,0,0-.79-.66,1.16,1.16,0,0,0-1.23.45c-.13.19-.33.42-.22.65s.4.08.61.11A3.81,3.81,0,0,0,40.06,101Z"/><path class="cls-1" d="M107.45,101.28h-.66c-.73,0-.81.11-.59.79a1.33,1.33,0,0,0,1.85.83c.13-.05.25-.13.38-.19s.22-.14.3,0-.07.18-.14.24a1.86,1.86,0,0,1-2.5-.28,2,2,0,0,1,1-3.19,1.48,1.48,0,0,1,1.8,1.34c0,.31,0,.46-.38.44S107.79,101.28,107.45,101.28Zm-.18-.25c.26,0,.52,0,.78,0,.42,0,.49-.16.38-.51a1,1,0,0,0-.76-.7,1.17,1.17,0,0,0-1.25.4c-.16.21-.36.46-.25.71s.4.07.61.09A4,4,0,0,0,107.27,101Z"/><path class="cls-1" d="M77.87,101.84v1.21c0,.07,0,.16-.1.19a.14.14,0,0,1-.19-.09c-.08-.48-.29-.2-.48-.09a1.91,1.91,0,0,1-.32.16c-.75.29-1.43,0-1.61-.56s.17-1,1-1.27c.23-.06.48-.07.71-.13s.71.09.66-.46-.17-.89-.71-1a1.26,1.26,0,0,0-1.06.32c-.1.07-.21.18-.32.06s0-.26.13-.33a1.61,1.61,0,0,1,1.64-.29,1.2,1.2,0,0,1,.69,1.23v1Zm-.37.1c.08-.38-.14-.47-.52-.43a3.2,3.2,0,0,0-1.1.29.58.58,0,0,0-.36.58.64.64,0,0,0,.36.59A1.19,1.19,0,0,0,77.5,101.94Z"/><path class="cls-1" d="M22.05,27.75c.19-.1.1-.32.28-.51-.08.41.2.65.27,1a36.1,36.1,0,0,1-2,3.34l-.31-.12a7.66,7.66,0,0,0,.5-1c0-.09.14-.16,0-.25s-.11.08-.17.12c-.34.14-.62-.07-.91-.2,0,0-.56-.07-.08-.42.31-.22-.07-.53-.49-.57.19-.14.35-.22.28-.51a.71.71,0,0,1,.54-.93v.14c-.26.65-.13,1,.53,1.27-.49.07-.63.38-.49.65s.45.21.73,0C21.53,29.29,21.58,29.24,22.05,27.75Z"/><path class="cls-1" d="M122.93,100a1.78,1.78,0,0,1,1.1-.56,1.16,1.16,0,0,1,1.36,1.12c0,.79,0,1.58,0,2.37,0,.13,0,.31-.19.3s-.21-.19-.21-.35c0-.67,0-1.34,0-2,0-.81-.33-1.13-1-1.12a1.15,1.15,0,0,0-1.19,1.22c0,.64,0,1.29,0,1.93,0,.14,0,.31-.17.32s-.22-.14-.22-.29c0-1,0-2.1,0-3.15,0-.11,0-.28.16-.28S122.76,99.88,122.93,100Z"/><path class="cls-1" d="M7.15,45.52a2.46,2.46,0,0,1-1-.22c-.07,0-.25-.06-.27,0-.35.53-.56.12-.79-.11a.51.51,0,0,0-.21-.1c-.13,0-.41,0-.35-.1.19-.29-.15-.62.08-.82a2.06,2.06,0,0,1,1.78-.5c.28.08.57.53.94.73.11,0,0,.27-.15.34-.32.21-.14.39,0,.59Z"/><path class="cls-1" d="M11.43,50.47l-.5-.26a7.49,7.49,0,0,1,3.19-.35h.06C16,50,16,50,15.81,48.27c.28-.41.67-.25.93-.06s.05.54-.08.74-.15.41.2.42l.14.36-.87.73A9.83,9.83,0,0,0,11.43,50.47Z"/><path class="cls-1" d="M40.92,41.85c.61,0,.44-.39.44-.67,0-.82.69-1.34,1.36-1a.57.57,0,0,1,.37.73.27.27,0,0,1-.38.19.26.26,0,0,1-.15-.39c0-.12.4-.1.15-.34a.48.48,0,0,0-.45-.08.46.46,0,0,0-.41.39,1,1,0,0,0,.77,1.21c-.51,0-.58.35-.63.72,0,.17.06.21.19.24.37.08.72.13.94-.4,0,.85-.4,1.14-1,.87a.64.64,0,0,0-.7.06.31.31,0,0,1-.48-.2c-.07-.21.07-.33.23-.44s.6.2.57-.3C41.69,42.14,41.54,42,40.92,41.85Z"/><path class="cls-1" d="M43,100a2.54,2.54,0,0,1,.86-.51,1.19,1.19,0,0,1,1.62,1.18c0,.72,0,1.45,0,2.18,0,.15.06.37-.18.38s-.19-.22-.19-.37c0-.66,0-1.33,0-2s-.35-1.11-1-1.1A1.17,1.17,0,0,0,43,101c0,.65,0,1.29,0,1.94,0,.15,0,.37-.19.36s-.18-.23-.18-.38c0-1,0-1.9,0-2.85,0-.16-.11-.43.12-.47S42.86,99.87,43,100Z"/><path class="cls-1" d="M3.53,45.13c.07.12.15.23.21.36.25.58.37,1.24,1.3,1.11.56-.07.75.58,1.08.92-.34.17,0,.48-.13.68-.34,0-.68-.11-.92.28-.12.19-.25.16-.37-.09s-.35-.77-.89-.7c.39-1-.27-1.72-.28-2.56Z"/><path class="cls-1" d="M48.68,103.33a1.43,1.43,0,0,1-.83-.24c-.11-.07-.31-.12-.21-.3s.22-.09.35,0a1.37,1.37,0,0,0,1,.22.76.76,0,0,0,.73-.69c.06-.39-.23-.57-.55-.69s-.66-.2-1-.35a.86.86,0,0,1-.25-1.45,1.56,1.56,0,0,1,1.85-.1c.08.06.18.13.12.24s-.17.08-.26,0a1.4,1.4,0,0,0-.87-.2c-.38,0-.68.2-.73.6s.24.53.53.64a5.08,5.08,0,0,0,.51.17c.79.26,1.08.61,1,1.17A1.22,1.22,0,0,1,48.68,103.33Z"/><path class="cls-1" d="M18.57,33.61l.86.27a2.52,2.52,0,0,0-.82,2.49,5.53,5.53,0,0,1,.17,1.72c-.38-.17-.44.36-.74.34a35.43,35.43,0,0,1,0-3.57C18,34.36,18.42,34,18.57,33.61Z"/><path class="cls-1" d="M36.76,31.06a2.61,2.61,0,0,1-.87.91c-.17.14-.32.27,0,.45.08,0,.19.21.1.24-.48.18-.28.51-.22.82s-.11.24-.29.23c-.34,0-.7-.12-.95.25a.13.13,0,0,1-.25-.06c0-.37-.34-.36-.52-.52s.33-.36.13-.62a1.37,1.37,0,0,1,1.22-.61c.37,0,.59-.32.87-.5s.46-.51.82-.58Z"/><path class="cls-1" d="M58.58,47.7a1.4,1.4,0,0,1,2.23-.12c.14.15.36.38-.08.44-.23,0-.26.15-.25.37,0,.63,0,.67-.63.47a1.19,1.19,0,0,1-.15-.09c-.33-.31-.57.37-.82.11s0-.65-.43-.72C58.49,48,58.54,47.86,58.58,47.7Z"/><path class="cls-1" d="M3.93,50.91c.51,0,.33-.38.31-.64a1,1,0,0,1,1.26-1.1c.35.12.56.35.47.73a.29.29,0,0,1-.42.22c-.15-.07-.18-.19-.12-.36s.52-.18.09-.39a.51.51,0,0,0-.73.2,1,1,0,0,0,.79,1.31c-.62.11-.85.56-.64.86S5.68,52,6,51.56c-.11.77-.46,1-1,.76a5.87,5.87,0,0,0-.9-.16c-.13,0-.17-.1-.16-.21s.06-.13.15-.14c.25,0,.57,0,.54-.38S4.29,51,3.93,50.91Z"/><path class="cls-1" d="M70.31,101.45c0,1.35.86,1.86,2.09,1.28.11-.06.23-.14.32,0s0,.22-.14.28a1.75,1.75,0,0,1-1.67.21,2,2,0,0,1-.92-2.49,1.6,1.6,0,0,1,1.88-1.23,1.88,1.88,0,0,1,.72.29c.07,0,.13.12.09.2s-.14.13-.25.08l-.05,0C71,99.55,70.29,100.06,70.31,101.45Z"/><path class="cls-1" d="M126,99.86c1-.12.75-.74.8-1.24,0-.13,0-.33.16-.34s.14.2.15.33a1,1,0,0,1,0,.3c-.09.57.11.82.71.73.15,0,.44-.1.41.19s-.27.13-.4.11c-.59-.09-.78.14-.72.72s0,1,0,1.57c0,.73.2.87.88.65.11,0,.22-.15.3,0s-.08.21-.17.28a.85.85,0,0,1-1.39-.67c0-.58,0-1.17,0-1.75C126.68,100.34,126.89,99.78,126,99.86Z"/><path class="cls-1" d="M29.36,45.86c.33,0,.64-.22,1-.12s.64.27.6.7a.34.34,0,0,1-.29.35.23.23,0,0,1-.29-.15.24.24,0,0,1,.12-.35c.33-.16.12-.26,0-.35a.57.57,0,0,0-.84.54,2,2,0,0,0,.17.88.83.83,0,0,1,0,.58c0,.19-.29.44,0,.57s.64.31.93,0c0-.05.08-.14.18-.09-.12.76-.54,1-1.2.64l-.32-.16c-.14-.33-.52-.1-.71-.31h0c.1,0,.18,0,.22-.13s.48.14.52-.22-.28-.6-.7-.68c.4,0,.51-.19.41-.53s.19-.74.26-1.12Z"/><path class="cls-1" d="M28.39,63.56c-.19-.34-.29-.85-.88-.5-.11-1.06-.11-1.06.86-1.34.15,0,.28-.17.43-.2s.81-.58.72.31c0,.18.57.29.06.54-.23.12-.07.45-.29.59a.37.37,0,0,0-.46.27A.43.43,0,0,1,28.39,63.56Z"/><path class="cls-1" d="M57.49,37.12c.17.21.5.23.6.52a.47.47,0,0,1-.09.55.25.25,0,0,1-.38,0c-.2-.21-.08-.35.13-.46s0-.2,0-.25a.54.54,0,0,0-.57,0,.51.51,0,0,0-.32.53,5.72,5.72,0,0,1,.17,1.9c-.06.25.5.22.81.18s.15-.29.35-.28c-.12.86-.51,1-1.26.63,0-.11-.1-.14-.21-.08l-.15.08c.12-.26-.26-.27-.24-.49h.23c.28-.5.16-.7-.52-.86,0-.21.41,0,.38-.37-.08-1.13.06-1.28,1.13-1.57Z"/><path class="cls-1" d="M28.61,25.14c.56-.06.92.12.87.76-.07-.38-.21-.54-.52-.15-.16.22-.52.36-.39.69s.46.26.74.28a3.14,3.14,0,0,1,.74.07,1.78,1.78,0,0,1-1,.24,3,3,0,0,0-1.9.64L27,27.43c.12-.79.73-1.2,1.26-1.7C28.4,25.58,28.74,25.49,28.61,25.14Z"/><path class="cls-1" d="M53.36,34.71c.29.24.29.3,0,.61l-2.44,1.32h0c-.11,0-.22,0-.25.13h0a3.07,3.07,0,0,0-1.56.72c0-.24,0-.47,0-.71l4-1.81C53.23,34.9,53.34,34.86,53.36,34.71Z"/><path class="cls-1" d="M11,35l-.14-.17c0-.09,0-.19-.13-.24a.81.81,0,0,1-.39-1.12c.13-.21,1.12-.18,1.26,0s0,.2.09.22c.55.18.51.4.41,1s-.34.37-.59.34S11.16,34.86,11,35Z"/><path class="cls-1" d="M54,29.52a.29.29,0,0,1,.18.34l-1.73,1.81a10.82,10.82,0,0,1-1.77,1.61c0-.3-.17-.37-.39-.43.8-.68,1.6-1.34,2.38-2C53.15,30.41,53.58,30,54,29.52Z"/><path class="cls-1" d="M110.27,100.09a1.28,1.28,0,0,1,1.32-.6c.16,0,.35.07.31.29s-.21.13-.35.12a1.15,1.15,0,0,0-1.37,1.26c0,.59,0,1.17,0,1.75,0,.16,0,.37-.2.36s-.18-.23-.18-.37c0-.93,0-1.86,0-2.78,0-.2-.14-.52.16-.56S110,99.94,110.27,100.09Z"/><path class="cls-1" d="M38.7,37.37c-.49-.22-1.13-.14-1.46-.7l2.54-.39c-.26,1-.26,1,.83,1a4,4,0,0,1,.49,0c.42,0,.42.22.14.48A8.76,8.76,0,0,0,38.7,37.37Z"/><path class="cls-1" d="M9.42,37.51A1,1,0,0,0,10,39.05c-.6-.07-.55.28-.63.53s0,.27.17.31c.33.07.64.11.83-.31,0,.61-.28,1-.72.79a1.33,1.33,0,0,0-1.18.05c0-.4,0-.74.47-.69.12,0,.15-.13.13-.23s0-.38-.26-.43A2.13,2.13,0,0,1,8.47,39c.26-.09.42-.17.32-.5a.87.87,0,0,1,.36-1Z"/><path class="cls-1" d="M32,29.85c.44,0,.9,0,1,.6a2.62,2.62,0,0,1-1.56.2c-.5,0-1,0-1.49,0-.22-.19-.09-.55-.35-.72l2.27,0,.16-.11Z"/><path class="cls-1" d="M50.56,30.48a2.4,2.4,0,0,1-.51-.31.72.72,0,0,1-.27-.69c.36.08.28-1,.86-.34.1.1.18,0,.26,0,.32,0,.73-.16.55.44,0,.07,0,.19,0,.22.77.61-.12.5-.3.69Z"/><path class="cls-1" d="M7.15,45.52l0-.21A18.07,18.07,0,0,0,9.82,46c.62-.15,1,0,1,.74C9.37,47,8.33,46,7.15,45.52Z"/><path class="cls-1" d="M24.28,37.37c-.28,0-.39-.17-.37-.43.23-.4.48-.8.69-1.21a2.64,2.64,0,0,0,.5-1.63c.24-.31.48-.65.86-.15-.23.09-.21.32-.28.5A11.23,11.23,0,0,1,24.28,37.37Z"/><path class="cls-1" d="M55.2,48.35a.86.86,0,0,0,.38,1.5c-.57,0-.84.4-.68.71s.64.3,1,0c-.12.76-.52.89-1.17.43-.06-.13-.13-.17-.25,0a.23.23,0,0,1-.24.13.33.33,0,0,0-.12-.56c.17-.09.47.14.51-.24s-.23-.46-.55-.54a.4.4,0,0,0,.36-.49.87.87,0,0,1,.77-1Z"/><path class="cls-1" d="M53.6,45.49a1.3,1.3,0,0,0-.48.65l-2.18-1.47c0-.26,0-.52,0-.77A20.77,20.77,0,0,0,53.6,45.49Z"/><path class="cls-1" d="M21.62,33.13a1,1,0,0,1-.26-.62,3.37,3.37,0,0,1,1,.25,2.28,2.28,0,0,0,1.46,0c.87,0,.87,0,1,1A20,20,0,0,0,21.62,33.13Z"/><path class="cls-1" d="M79.07,100.55v-2.3c0-.14-.06-.37.18-.38s.19.22.19.37q0,2.33,0,4.65c0,.15.06.37-.17.38s-.2-.22-.2-.37Z"/><path class="cls-1" d="M6,48.2c.18-.2-.21-.51.13-.68A6.1,6.1,0,0,1,7.33,49.2a2.2,2.2,0,0,0,1.39,1c-.18.07-.24.32-.48.31A3.82,3.82,0,0,1,6.49,48.8,4,4,0,0,0,6,48.2Z"/><path class="cls-1" d="M33.85,32.76c.2.26-.27.38-.13.62a22.53,22.53,0,0,0-2.83.58l-.43-.45Z"/><path class="cls-1" d="M61.68,37.61c0,.43-.21.61-.62.54a.94.94,0,0,0-.29-.06c-.18,0-.4.25-.52,0s.19-.28.34-.39.11-.23,0-.26c-.62-.19-.06-.61-.16-.91s.17-.4.41-.44a.65.65,0,0,1,.62.13.28.28,0,0,1,0,.38s-.14.11-.2.09a.18.18,0,0,1-.13-.27c0-.09.09-.21-.06-.22a.33.33,0,0,0-.26.11.48.48,0,0,0,0,.61.88.88,0,0,1,.14.57C61,38.1,61.41,37.63,61.68,37.61Z"/><path class="cls-1" d="M17.87,58c-.42.06-.68-.23-1-.44.45-.73.68-1.57,1.06-2.34.19-.11.31,0,.38.14A20,20,0,0,0,17.87,58Z"/><path class="cls-1" d="M57.23,101.41V103c0,.15,0,.3-.21.28s-.19-.13-.19-.26V99.8c0-.13,0-.25.19-.25s.21.14.21.29Z"/><path class="cls-1" d="M51.7,37.25c0-.14.43-.18.09-.38a.42.42,0,0,0-.66.17.91.91,0,0,0,.54,1.24c-.56,0-.59.37-.75.66l-.2-.09c.06-.4,0-.73-.6-.71.67-.34.42-.94.58-1.39h0c.16.1.22,0,.25-.13h0c.35,0,.73-.12,1.05.15a.49.49,0,0,1,.18.59c-.07.2-.2.3-.4.13l.08-.07-.09,0h0Z"/><path class="cls-1" d="M3.51,47c-.13.42-.32.59-.69.46a.41.41,0,0,0-.34,0c-.16.08-.32.14-.38-.1s.06-.26.23-.27.3-.19.16-.26c-.5-.26-.12-.62-.13-.91a.48.48,0,0,1,.47-.46c.21,0,.41,0,.5.22,0,.06.13.14,0,.2s-.21,0-.21,0c0-.31-.19-.39-.4-.19a.48.48,0,0,0,0,.67c.13.16.45.21.05.42,0,0,0,.21,0,.27C3,47.29,3.23,47.06,3.51,47Z"/><path class="cls-1" d="M73.69,103c0-1.06,0-2.13,0-3.19l0-.19c.17,0,.29,0,.3.18a26.26,26.26,0,0,1,0,3.32s-.08.09-.12.13l-.14,0h0Z"/><path class="cls-1" d="M23.53,26.09l-.51.12a19.26,19.26,0,0,0,.4-4.48l.24-.12c0,1,0,2,0,3.06C23.64,25.14,23.57,25.61,23.53,26.09Z"/><path class="cls-1" d="M22.71,38.83c.27,0,.62,0,.6.42-.46.27-.58.79-.91,1.16a6.15,6.15,0,0,1-.81,1c-.24,0-.23-.21-.24-.38A6,6,0,0,0,22.71,38.83Z"/><path class="cls-1" d="M50.56,30.48l.61,0c.12.25,0,.4-.18.57-.47.48-.92,1-1.38,1.48-.2.09-.4.44-.6,0L50.37,31C50.5,30.84,50.67,30.72,50.56,30.48Z"/><path class="cls-1" d="M14.13,42.84l.19,0c-.32,0-.43.12-.41.41h-.3a16.18,16.18,0,0,0-1-4.16,1.46,1.46,0,0,1,.58,1c.22.78.4,1.56.61,2.34C13.85,42.65,13.78,43,14.13,42.84Z"/><path class="cls-1" d="M33.58,51.39l-.34.56A6.57,6.57,0,0,0,31,51.14c-.11-.14-.38-.23-.17-.48A16.73,16.73,0,0,0,33.58,51.39Z"/><path class="cls-1" d="M47.06,41.61c-.09.16-.34.18-.37.4-.37-.33-.74-.67-1.11-1-.16-.13-.29-.34-.56-.29.12-.18.23-.36.34-.54C45.93,40.66,46.5,41.13,47.06,41.61Z"/><path class="cls-1" d="M23.3,41.25c0-.25.62-.44.08-.78a1,1,0,0,1,.29-.84.48.48,0,0,1,.57,0c.12.07.24.17.2.33a.22.22,0,0,1-.16.15c-.16,0-.16-.13-.15-.26s-.1-.16-.2-.12-.17.21-.16.36.28.47.15.85.35,0,.55.1c-.27.71-.81.08-1.17.24Z"/><path class="cls-1" d="M23.66,21.61l-.24.12c-.56-.05-.53-.29-.41-.81.18-.74.64-.26.94-.33s.16.3.12.49S24,21.56,23.66,21.61Z"/><path class="cls-1" d="M10.33,54.93c-.19.3-1,.48-1.16.31s0-.11,0-.11c.55-.31,0-.76.14-1.14s.19-.45.48-.47.48.06.48.39c-.25.13-.25-.49-.54-.18s0,.44,0,.67c0,.06.11.05.1.17C9.77,55,9.79,55,10.33,54.93Z"/><path class="cls-1" d="M58.58,47.7c0,.16-.09.31-.13.46-.11-.26-.34-.23-.56-.25a8.8,8.8,0,0,1-1.61-.23c0-.2,0-.4,0-.59A6.48,6.48,0,0,0,58.58,47.7Z"/><path class="cls-1" d="M50.72,38.85l.2.09c.35.2.7.33,1,0-.08.62-.45.89-.9.57s-.56-.07-.84,0c0-.23-.15-.27-.33-.26a.24.24,0,0,1,0-.12.19.19,0,0,0,.21-.2Z"/><path class="cls-1" d="M22.34,44.25c0,.23-.26.44-.39.32s-.67-.32-.61-.8a2.73,2.73,0,0,1,.39-.85h0l.08.14C21.89,43.51,22.22,43.83,22.34,44.25Z"/><path class="cls-1" d="M24.42,22c0,.29-.12.61.26.77.12.05.08.12,0,.15a.24.24,0,0,0-.11.39c.15.19.35.12.55-.09-.19.57-.19.57-1.08.27.5-.31-.07-.64.06-1,.07-.2,0-.44.29-.53Z"/><path class="cls-1" d="M29.29,63c.22-.14.06-.47.29-.59,0,.33.3.35.47.48.48.34,1,.64,1.44,1Z"/><path class="cls-1" d="M30.13,36.39l.19-.12a.69.69,0,0,1,0,.84.48.48,0,0,1-.57.21.43.43,0,0,1-.29-.47c0-.25.17-.34.39-.37A1.22,1.22,0,0,0,30.13,36.39Z"/><path class="cls-1" d="M9.42,37.51l-.27,0c.11-.27.52-.07.6-.37.3.22.77.2.92.63-.32-.06-.19.23-.27.35s-.22.24-.4.14a.21.21,0,0,1-.12-.3C10.38,37.09,9.58,37.64,9.42,37.51Z"/><path class="cls-1" d="M59.19,49.11a1.53,1.53,0,0,0,.47,1c.22.2,0,.29-.15.3a5.9,5.9,0,0,1-.72-.07C59.27,50,58.77,49.5,59.19,49.11Z"/><path class="cls-1" d="M22.55,26.21c-.08,0-.19.34-.24,0v-.94a.12.12,0,0,0,0-.1c0-.39-.11-.76-.61-.93.89,0,.9,0,.89.85C22.58,25.45,22.56,25.83,22.55,26.21Z"/><path class="cls-1" d="M46.1,99.39c.27-.52.53-.9.3-1.37,0-.1,0-.19.13-.22s.21,0,.26.17A1.17,1.17,0,0,1,46.1,99.39Z"/><path class="cls-1" d="M55.2,48.35v-.16a.69.69,0,0,1,.8.27.43.43,0,0,1,0,.65.24.24,0,0,1-.37,0c-.25-.33.13-.37.26-.51C55.69,48.32,55.43,48.4,55.2,48.35Z"/><path class="cls-1" d="M20,27.77v-.14a.62.62,0,0,1,.87.24.34.34,0,0,1,0,.44c-.09.09-.2.15-.32.07s0-.24,0-.39C20.57,27.52,20.21,27.8,20,27.77Z"/><path class="cls-1" d="M52.16,79.06,52,79a6,6,0,0,1,1.48-.82A3.84,3.84,0,0,1,52.16,79.06Z"/><path class="cls-1" d="M74.2,98.29c0,.2-.15.33-.37.3a.3.3,0,0,1-.29-.37.3.3,0,0,1,.33-.28C74.08,97.94,74.19,98.07,74.2,98.29Z"/><path class="cls-1" d="M45.62,49.38l.1.11c-.09.16-.2.35,0,.45s.45-.13.61-.33l.2.09c-.11.12-.2.26-.31.36a.48.48,0,0,1-.7,0A.4.4,0,0,1,45.62,49.38Z"/><path class="cls-1" d="M57,97.93a.33.33,0,0,1,.33.34.33.33,0,0,1-.66,0C56.68,98.08,56.82,98,57,97.93Z"/><path class="cls-1" d="M56.28,39.91c0,.22.36.23.24.49a.35.35,0,0,1-.54.15.28.28,0,0,1-.17-.29A.39.39,0,0,1,56.28,39.91Z"/><path class="cls-1" d="M28.64,48.54c.19.21.57,0,.71.31-.2.22-.43.38-.71.17A.27.27,0,0,1,28.64,48.54Z"/><path class="cls-1" d="M25.27,52.37c-.3.12-.15.27,0,.42a.32.32,0,0,1-.5.08.27.27,0,0,1-.07-.37A.38.38,0,0,1,25.27,52.37Z"/><path class="cls-1" d="M54.1,50.49a.33.33,0,0,1,.12.56c-.26.15-.4,0-.44-.22S53.88,50.49,54.1,50.49Z"/><path class="cls-1" d="M24.38,21.94c.28-.32.49-.11.69.1a.21.21,0,0,1,0,.28.19.19,0,0,1-.15.07c-.13,0-.15-.11-.13-.22.07-.41-.23-.16-.36-.19Z"/><path class="cls-1" d="M40.89,85.36l.11-.18a2.47,2.47,0,0,1,.94.18Z"/><path class="cls-1" d="M49.89,39.18c.18,0,.33,0,.33.26C50,39.49,49.93,39.35,49.89,39.18Z"/><path class="cls-1" d="M73.74,99.61l0,.19C73.68,99.73,73.57,99.63,73.74,99.61Z"/><path class="cls-1" d="M50.1,38.86a.19.19,0,0,1-.21.2A.19.19,0,0,1,50.1,38.86Z"/><path class="cls-1" d="M26.14,24.39s0,.07,0,.1,0,0,0,0a.31.31,0,0,0,0-.1Z"/><path class="cls-1" d="M54.46,50.92c.12-.12.19-.08.25,0Z"/><path class="cls-1" d="M50.33,32.85c0,.14-.15.14-.26.13A.3.3,0,0,1,50.33,32.85Z"/><path class="cls-1" d="M37.36,29.25l.12,0s0,0,0,0l-.08-.06Z"/><path class="cls-1" d="M56.67,40.32c.11-.06.17,0,.21.08Z"/><path class="cls-1" d="M28.94,45.88l.17,0Z"/><path class="cls-1" d="M28.87,48.4c0,.1-.12.12-.22.13A.19.19,0,0,1,28.87,48.4Z"/><path class="cls-1" d="M73.69,103l.06.22A.14.14,0,0,1,73.69,103Z"/><path class="cls-1" d="M11.5,43.42l-.08-.13Z"/><path class="cls-1" d="M21.81,43.07l-.08-.14C21.81,43,21.84,43,21.81,43.07Z"/><polygon class="cls-1" points="23.3 41.24 23.28 41.26 23.3 41.25 23.3 41.24"/><path class="cls-1" d="M22.3,25.15a.12.12,0,0,1,0,.1l0-.07S22.29,25.16,22.3,25.15Z"/><path class="cls-1" d="M56.51,39.92h0Z"/><path class="cls-1" d="M51.76,37.39l.09,0-.08.07a.19.19,0,0,1,0-.08Z"/><path class="cls-1" d="M51.7,37.25l.08.13C51.66,37.4,51.69,37.32,51.7,37.25Z"/><polygon class="cls-1" points="36.76 31.07 36.77 31.05 36.76 31.06 36.76 31.07"/><polygon class="cls-1" points="3.53 45.13 3.52 45.11 3.53 45.13 3.53 45.13"/><path class="cls-1" d="M32,29.84l-.16.11Z"/><path class="cls-1" d="M73.76,103.21l.14,0C73.85,103.29,73.79,103.31,73.76,103.21Z"/><path class="cls-1" d="M22.71,38.83A6,6,0,0,1,21.35,41h-.06c0-.42-.41-.81-.18-1.23.33-.6.33-.7-.32-.65s-.77-.54-1.08-.86-.2-.3-.41-.07-.4.27-.52-.09a5.53,5.53,0,0,0-.17-1.72,2.52,2.52,0,0,1,.82-2.49c.31.16.38.49.5.77s.23.21.4.12l.09.08c-.24.41.29,1-.23,1.33,0,0,0,.12,0,.15.21.23,1,0,1.13-.38-.22.17-.62.28-.53,0s-.08-.51-.14-.75,0-.33.17-.39.24,0,.19.22.08.19.2.13a.19.19,0,0,0,.08-.3c-.21-.34-.5-.27-.79-.12l-.08-.08c.19-.26.19-.9.78-.39.14.12.21-.07.23-.17.07-.31.11-.63.16-.95a20,20,0,0,1,3.25.59.37.37,0,0,0,.23.38,2.64,2.64,0,0,1-.5,1.63c-.21.41-.46.81-.69,1.21-.44,0-.86-.28-1.3-.1-.18.07-.53.11-.15.41l.08.08C22.13,37.89,22.77,38.32,22.71,38.83Z"/><path class="cls-1" d="M13.91,43.3c0-.29.09-.45.41-.41s.72.24,1.07.4.79.21.23.65c0,0,0,.11,0,.16s.48.21.19.45a2.29,2.29,0,0,1-1.28.46s-.13-.08-.13-.08C14.75,44.24,13.72,43.94,13.91,43.3Z"/><path class="cls-1" d="M17.87,58a20,20,0,0,1,.47-2.64c.13,0,.32,0,.24.2,0,.09-.11.16-.15.25-.45.81-.41.89.49.92a1.4,1.4,0,0,1,.34.08,6.39,6.39,0,0,0,0,1.07,1.19,1.19,0,0,1-.44,1.2c-.21,0-.33-.07-.18-.28.32-.47.26-.62-.31-.7a1,1,0,0,0-.3,0L17.84,58Z"/><path class="cls-1" d="M17,49.73l-.14-.36a1.06,1.06,0,0,1,.8.11A1.23,1.23,0,0,1,17,49.73Z"/><path class="cls-1" d="M30.28,35.23s-.06-.08-.05-.1.09,0,.14,0Z"/><path class="cls-1" d="M57.45,36.78l-.55-.63C57.44,36.11,57.44,36.11,57.45,36.78Z"/><path class="cls-1" d="M34.27,48.3c-.36,0-.58-.14-.56-.46s.32-.58.7-.56.74,0,.69.34A.88.88,0,0,1,34.27,48.3Z"/><path class="cls-1" d="M34.45,41.13c-.1-.26.06-.38.25-.49C34.86,40.92,34.63,41,34.45,41.13Z"/><path class="cls-1" d="M34.69,40.64c0-.08,0-.14.13-.12S34.84,40.71,34.69,40.64Z"/><path class="cls-1" d="M17.84,58l.17.11Z"/><path class="cls-1" d="M20.33,34.77l.12-.13.08.08-.11.13Z"/><path class="cls-1" d="M13.47,55.42a.57.57,0,0,1-.49.43.29.29,0,0,1-.38-.27c0-.23.17-.32.35-.35A.64.64,0,0,1,13.47,55.42Z"/><path class="cls-1" d="M27.9,40.53a.68.68,0,0,1-.56.43.3.3,0,0,1-.38-.28c0-.26.19-.38.44-.39A.62.62,0,0,1,27.9,40.53Z"/><path class="cls-1" d="M46.37,49.61c-.16.2-.3.46-.61.33s-.13-.29,0-.45C46,49.41,46.19,49.37,46.37,49.61Z"/><path class="cls-1" d="M20.68,30.26c.06,0,.16-.13.17-.12s0,.16,0,.25Z"/><path class="cls-1" d="M51,36.63c0,.16-.09.23-.25.13C50.73,36.62,50.84,36.61,51,36.63Z"/><path class="cls-1" d="M20.42,34.85l.11-.13c.29-.15.58-.22.79.12a.19.19,0,0,1-.08.3c-.12.06-.23,0-.2-.13s0-.29-.19-.22-.22.21-.17.39.26.39.14.75.31.19.53,0c-.11.37-.92.61-1.13.38,0,0,0-.14,0-.15C20.71,35.81,20.18,35.26,20.42,34.85Z"/></svg>