<svg id="Layer_10" data-name="Layer 10" xmlns="http://www.w3.org/2000/svg" viewBox="0 0 131 131"><defs><style>.cls-1{fill:#1b3d65;}</style></defs><path class="cls-1" d="M103,75.2a4.16,4.16,0,0,1-.27-.63c-.6-3-.6-3,2.29-3.87,1-.31,2-.64,3.12-1l-.79-2.87-5.51,1.09c-.06-1.21-.12-2.29-.14-3.38,0-.18.14-.54.24-.54a25.8,25.8,0,0,1,4.12-.08c.35,0,.65.92.92,1.44a12.45,12.45,0,0,1,.52,1.39l4.66-.55-.71-2.12c1.91.25,3.8-.68,5.32,1.1.3.35,1.08.38,1.64.38,3.87,0,7.73,0,11.61.21a7.07,7.07,0,0,1-4.2.78c-1.91-.29-3.94.27-6.26.49l1.24,1.45c-1.64.66-3.14,1.33-4.7,1.81a1.56,1.56,0,0,1-1.34-.67c-.68-1.17-1.5-1.28-2.68-.84s-2.52.75-3.86,1.13l.56,2.91ZM118.68,67c-2.08-1.82-4-.57-6-.42.51.68,1.15,1.48,1.74,1.44A25.19,25.19,0,0,0,118.68,67Z"/><path class="cls-1" d="M13.78,66c1.88-2.19,4.18-1.25,6.43-1.81l-1.28,2.42,5.73.57-.92,2.75-6-1.38L19,66.45Z"/><path class="cls-1" d="M29.61,75.2,23,72.87a6.56,6.56,0,0,1,.56-1.78,1.61,1.61,0,0,1,1.26-.63c1.2.17,2.36.63,3.56.81,1.36.2,1.82.86,1.52,2.16C29.82,73.94,29.75,74.45,29.61,75.2Z"/><path class="cls-1" d="M11.89,67.58l5,1c-.49,1.34-1,2.18-2.63,1.48a41.44,41.44,0,0,0-4.24-1.38l1.11-1.18c-3.34-1.48-6.82-.72-10.17-.9l0-.46H12.79l.25.19-1.33.72Z"/><path class="cls-1" d="M24.66,66.85c.54-1,.79-2.27,1.36-2.43a8.75,8.75,0,0,1,4-.1c.32.06.4,1.72.41,2.65,0,.23-.72.69-1.07.65C27.94,67.47,26.49,67.17,24.66,66.85Z"/><path class="cls-1" d="M20.25,45.54v4.22H19.9a4.44,4.44,0,0,0-1.47-2.53A3.74,3.74,0,0,0,16,46.35,3.64,3.64,0,0,0,13.9,47a3.77,3.77,0,0,0-1.39,1.72,7.69,7.69,0,0,0-.57,3,10.32,10.32,0,0,0,.41,3,4,4,0,0,0,1.3,2,3.62,3.62,0,0,0,2.28.68,4.52,4.52,0,0,0,2.1-.5,7.21,7.21,0,0,0,2-1.73v1.05a6.65,6.65,0,0,1-2.13,1.55,6.47,6.47,0,0,1-2.59.48,7.4,7.4,0,0,1-3.45-.78,5.58,5.58,0,0,1-2.34-2.25,6.21,6.21,0,0,1-.82-3.11,6.66,6.66,0,0,1,3.37-5.73,6.71,6.71,0,0,1,3.29-.86,7.51,7.51,0,0,1,2.71.56,4.35,4.35,0,0,0,1.05.32.69.69,0,0,0,.5-.21,1.13,1.13,0,0,0,.27-.67Z"/><path class="cls-1" d="M24.63,52.14v3.77a3.76,3.76,0,0,0,.1,1.16.92.92,0,0,0,.4.41,1.61,1.61,0,0,0,.82.18h.4V58H20v-.33h.4a1.73,1.73,0,0,0,.85-.19A.82.82,0,0,0,21.6,57a3.57,3.57,0,0,0,.1-1.13v-8a3.89,3.89,0,0,0-.1-1.17.85.85,0,0,0-.4-.4,1.57,1.57,0,0,0-.81-.18H20v-.33h6.36v.33H26a1.66,1.66,0,0,0-.86.19.87.87,0,0,0-.36.43,3.52,3.52,0,0,0-.1,1.13v3.45h4.3V47.9a4.28,4.28,0,0,0-.1-1.17.88.88,0,0,0-.41-.4,1.57,1.57,0,0,0-.81-.18h-.4v-.33h6.35v.33h-.39a1.6,1.6,0,0,0-.85.19.84.84,0,0,0-.37.43,3.52,3.52,0,0,0-.1,1.13v8a3.76,3.76,0,0,0,.1,1.16.92.92,0,0,0,.4.41,1.63,1.63,0,0,0,.82.18h.39V58H27.21v-.33h.4a1.7,1.7,0,0,0,.85-.19.93.93,0,0,0,.37-.43,3.92,3.92,0,0,0,.1-1.13V52.14Z"/><path class="cls-1" d="M37.25,46.52v4.95h.24a1.94,1.94,0,0,0,1.68-.72,4.41,4.41,0,0,0,.66-2.15h.35V55h-.35a4.72,4.72,0,0,0-.45-1.7,2,2,0,0,0-.8-.9,3.13,3.13,0,0,0-1.33-.22v3.42a4.7,4.7,0,0,0,.09,1.23.7.7,0,0,0,.31.37,1.49,1.49,0,0,0,.76.14h.72a3.91,3.91,0,0,0,4.21-3.19h.34L43.13,58H32.61v-.33H33a1.77,1.77,0,0,0,.86-.19.92.92,0,0,0,.36-.43,4.07,4.07,0,0,0,.09-1.13v-8a6.53,6.53,0,0,0,0-1A.9.9,0,0,0,34,46.4a1.61,1.61,0,0,0-.94-.25h-.4v-.33H42.8v3.6h-.35a4.34,4.34,0,0,0-.73-1.9,2.68,2.68,0,0,0-1.33-.84,7.07,7.07,0,0,0-1.88-.16Z"/><path class="cls-1" d="M51.48,45.54l.1,4.06h-.37a4.14,4.14,0,0,0-1.28-2.46,3.21,3.21,0,0,0-2.2-.93,2.08,2.08,0,0,0-1.45.49,1.48,1.48,0,0,0-.53,1.13,1.43,1.43,0,0,0,.18.72,3.15,3.15,0,0,0,.84.83,17.52,17.52,0,0,0,1.95,1,8.77,8.77,0,0,1,2.88,2,3.38,3.38,0,0,1,.73,2.14,3.45,3.45,0,0,1-1.19,2.63,4.28,4.28,0,0,1-3,1.09A4.71,4.71,0,0,1,47,58.16a9.42,9.42,0,0,1-1.29-.44,1.89,1.89,0,0,0-.7-.18.88.88,0,0,0-.5.18,1.28,1.28,0,0,0-.42.55H43.8v-4.6h.33a5.27,5.27,0,0,0,1.52,3,3.56,3.56,0,0,0,2.43,1,2.3,2.3,0,0,0,1.6-.55,1.69,1.69,0,0,0,.6-1.28,1.71,1.71,0,0,0-.23-.83,2.75,2.75,0,0,0-.7-.77,10.81,10.81,0,0,0-1.65-.94,15.06,15.06,0,0,1-2.39-1.39A4.32,4.32,0,0,1,44.2,50.6,3.17,3.17,0,0,1,43.81,49a3.32,3.32,0,0,1,1.06-2.48,3.76,3.76,0,0,1,2.7-1,5,5,0,0,1,1.15.14,6.77,6.77,0,0,1,1,.4,2.43,2.43,0,0,0,.85.3.47.47,0,0,0,.37-.15,1.62,1.62,0,0,0,.25-.69Z"/><path class="cls-1" d="M60.05,45.54l.09,4.06h-.36a4.19,4.19,0,0,0-1.28-2.46,3.23,3.23,0,0,0-2.2-.93,2.07,2.07,0,0,0-1.45.49,1.49,1.49,0,0,0-.54,1.13,1.34,1.34,0,0,0,.19.72,3,3,0,0,0,.83.83,19.73,19.73,0,0,0,2,1,8.55,8.55,0,0,1,2.88,2,3.39,3.39,0,0,1,.74,2.14,3.48,3.48,0,0,1-1.19,2.63,4.28,4.28,0,0,1-3,1.09,4.86,4.86,0,0,1-1.09-.11,9.36,9.36,0,0,1-1.28-.44,1.93,1.93,0,0,0-.71-.18.87.87,0,0,0-.49.18,1.14,1.14,0,0,0-.42.55h-.34v-4.6h.34a5.27,5.27,0,0,0,1.52,3,3.56,3.56,0,0,0,2.43,1,2.3,2.3,0,0,0,1.6-.55,1.71,1.71,0,0,0,.59-1.28,1.6,1.6,0,0,0-.23-.83,2.7,2.7,0,0,0-.69-.77,10.81,10.81,0,0,0-1.65-.94,15.06,15.06,0,0,1-2.39-1.39,4.36,4.36,0,0,1-1.12-1.29A3.17,3.17,0,0,1,52.37,49a3.33,3.33,0,0,1,1.07-2.48,3.74,3.74,0,0,1,2.69-1,4.83,4.83,0,0,1,1.15.14,6.82,6.82,0,0,1,1,.4,2.37,2.37,0,0,0,.85.3.48.48,0,0,0,.37-.15,1.62,1.62,0,0,0,.25-.69Z"/><path class="cls-1" d="M71.68,53.84l3.3-8h5v.33h-.39a1.64,1.64,0,0,0-.86.19.84.84,0,0,0-.36.42,3.53,3.53,0,0,0-.1,1.12v8a3.76,3.76,0,0,0,.1,1.16.92.92,0,0,0,.4.41,1.63,1.63,0,0,0,.82.18h.39V58H73.58v-.33H74a1.77,1.77,0,0,0,.86-.19A.92.92,0,0,0,75.2,57a3.92,3.92,0,0,0,.1-1.13v-9L70.63,58h-.22L65.68,47v8.57a7.81,7.81,0,0,0,0,1.1,1.29,1.29,0,0,0,.51.73,2.09,2.09,0,0,0,1.22.29V58H63.29v-.33h.12a2.13,2.13,0,0,0,.76-.13,1.27,1.27,0,0,0,.53-.38A1.71,1.71,0,0,0,65,56.5c0-.07,0-.37,0-.92v-7.7a3.73,3.73,0,0,0-.1-1.15.85.85,0,0,0-.4-.4,1.58,1.58,0,0,0-.82-.18h-.38v-.33h5Z"/><path class="cls-1" d="M85.71,45.65a6,6,0,0,1,6.54,6.21,6.5,6.5,0,0,1-1.35,4.07,6,6,0,0,1-5.07,2.34A6.16,6.16,0,0,1,80.75,56a6.41,6.41,0,0,1-1.42-4.17,6.09,6.09,0,0,1,1.84-4.52A5.88,5.88,0,0,1,85.71,45.65Zm.11.57a2.74,2.74,0,0,0-2.54,1.71,9.13,9.13,0,0,0-.71,4,7.8,7.8,0,0,0,1.09,4.6,2.5,2.5,0,0,0,2.14,1,2.53,2.53,0,0,0,1.54-.45,3.62,3.62,0,0,0,1.23-1.83A10,10,0,0,0,89,52a10.89,10.89,0,0,0-.45-3.61,3.54,3.54,0,0,0-1.14-1.69A2.69,2.69,0,0,0,85.82,46.22Z"/><path class="cls-1" d="M104.34,45.82v.33a2,2,0,0,0-1.19.71A11.18,11.18,0,0,0,102,49l-4.19,9.3h-.3l-4.17-9.68a12.12,12.12,0,0,0-1-2.05,1.43,1.43,0,0,0-1-.39v-.33h5.83v.33H97a2,2,0,0,0-1.07.2.44.44,0,0,0-.21.39,1.24,1.24,0,0,0,.07.39c.05.14.21.54.49,1.18l2.59,6L101.3,49a12,12,0,0,0,.53-1.31,1.9,1.9,0,0,0,.1-.57.84.84,0,0,0-.14-.47,1,1,0,0,0-.42-.32,2.91,2.91,0,0,0-1-.15v-.33Z"/><path class="cls-1" d="M107.88,46.52v4.95h.24a1.94,1.94,0,0,0,1.68-.72,4.41,4.41,0,0,0,.66-2.15h.34V55h-.34a4.72,4.72,0,0,0-.45-1.7,2,2,0,0,0-.8-.9,3.13,3.13,0,0,0-1.33-.22v3.42A5.48,5.48,0,0,0,108,56.8a.76.76,0,0,0,.32.37,1.49,1.49,0,0,0,.76.14h.72A3.91,3.91,0,0,0,114,54.12h.33L113.76,58H103.24v-.33h.4a1.77,1.77,0,0,0,.86-.19.85.85,0,0,0,.35-.43,3.57,3.57,0,0,0,.1-1.13v-8a6.53,6.53,0,0,0,0-1,.9.9,0,0,0-.33-.49,1.61,1.61,0,0,0-.94-.25h-.4v-.33h10.18v3.6h-.34a4.34,4.34,0,0,0-.73-1.9,2.73,2.73,0,0,0-1.33-.84,7.16,7.16,0,0,0-1.89-.16Z"/><path class="cls-1" d="M122.11,45.54l.1,4.06h-.37a4.19,4.19,0,0,0-1.28-2.46,3.21,3.21,0,0,0-2.2-.93,2.08,2.08,0,0,0-1.45.49,1.49,1.49,0,0,0-.54,1.13,1.43,1.43,0,0,0,.19.72,3,3,0,0,0,.84.83,18,18,0,0,0,1.94,1,8.55,8.55,0,0,1,2.88,2,3.39,3.39,0,0,1,.74,2.14,3.48,3.48,0,0,1-1.19,2.63,4.28,4.28,0,0,1-3,1.09,4.71,4.71,0,0,1-1.08-.11,9,9,0,0,1-1.29-.44,1.89,1.89,0,0,0-.71-.18.87.87,0,0,0-.49.18,1.28,1.28,0,0,0-.42.55h-.33v-4.6h.33a5.27,5.27,0,0,0,1.52,3,3.56,3.56,0,0,0,2.43,1,2.3,2.3,0,0,0,1.6-.55,1.69,1.69,0,0,0,.6-1.28,1.71,1.71,0,0,0-.23-.83,2.91,2.91,0,0,0-.7-.77,10.81,10.81,0,0,0-1.65-.94,15.06,15.06,0,0,1-2.39-1.39,4.32,4.32,0,0,1-1.11-1.29,3.17,3.17,0,0,1-.39-1.56,3.32,3.32,0,0,1,1.06-2.48,3.76,3.76,0,0,1,2.7-1,4.81,4.81,0,0,1,1.14.14,6.44,6.44,0,0,1,1,.4,2.43,2.43,0,0,0,.85.3.48.48,0,0,0,.37-.15,1.62,1.62,0,0,0,.25-.69Z"/><path class="cls-1" d="M36.52,69.4v2.43a2.7,2.7,0,0,0,.08.89.63.63,0,0,0,.31.29,1.87,1.87,0,0,0,.81.11v.24H33.27v-.24a2.14,2.14,0,0,0,.82-.11.7.7,0,0,0,.3-.29,2.6,2.6,0,0,0,.09-.89V66.19a2.6,2.6,0,0,0-.09-.89.63.63,0,0,0-.31-.29,2,2,0,0,0-.81-.11v-.24h4a9.08,9.08,0,0,1,2.31.22,2.3,2.3,0,0,1,1.19.81,2.14,2.14,0,0,1,.46,1.37,2.06,2.06,0,0,1-.69,1.59,2.77,2.77,0,0,1-1.24.6l2.09,2.94a4.26,4.26,0,0,0,.59.71,1,1,0,0,0,.61.22v.24H39.89l-2.8-4Zm0-4.27v3.81h.36a4,4,0,0,0,1.33-.16,1.35,1.35,0,0,0,.7-.59,2.19,2.19,0,0,0,.25-1.12,1.69,1.69,0,0,0-2-1.94Z"/><path class="cls-1" d="M44.91,65.16V68.7h.17a1.37,1.37,0,0,0,1.2-.52,3.14,3.14,0,0,0,.48-1.53H47V71.2h-.24A3.42,3.42,0,0,0,46.43,70a1.35,1.35,0,0,0-.57-.64,2.18,2.18,0,0,0-1-.17v2.45a3.56,3.56,0,0,0,.06.88.54.54,0,0,0,.23.27,1.17,1.17,0,0,0,.54.1h.51a2.81,2.81,0,0,0,3-2.29h.24l-.39,2.77H41.59v-.24h.29a1.2,1.2,0,0,0,.61-.13.62.62,0,0,0,.26-.31,2.9,2.9,0,0,0,.07-.81V66.15a4.82,4.82,0,0,0,0-.72.69.69,0,0,0-.24-.35,1.11,1.11,0,0,0-.67-.18h-.29v-.24h7.28v2.57h-.24a3.29,3.29,0,0,0-.52-1.35,2,2,0,0,0-1-.6,5,5,0,0,0-1.34-.12Z"/><path class="cls-1" d="M55.17,70.4l2.36-5.74h3.54v.24h-.28a1.22,1.22,0,0,0-.62.13.68.68,0,0,0-.26.31,2.86,2.86,0,0,0-.07.8v5.73a3.09,3.09,0,0,0,.07.83.69.69,0,0,0,.29.3,1.23,1.23,0,0,0,.59.12h.28v.24H56.53v-.24h.28a1.18,1.18,0,0,0,.61-.13.62.62,0,0,0,.26-.31,2.54,2.54,0,0,0,.07-.81V65.43l-3.33,7.93h-.16l-3.38-7.88v6.13a5.79,5.79,0,0,0,0,.79.9.9,0,0,0,.36.52,1.57,1.57,0,0,0,.88.2v.24h-3v-.24h.09A1.23,1.23,0,0,0,49.8,73a.93.93,0,0,0,.38-.27,1.3,1.3,0,0,0,.2-.47s0-.26,0-.65v-5.5a2.74,2.74,0,0,0-.07-.83A.61.61,0,0,0,50,65a1.11,1.11,0,0,0-.58-.13h-.28v-.24h3.55Z"/><path class="cls-1" d="M65.2,64.54A4.31,4.31,0,0,1,69.87,69a4.62,4.62,0,0,1-1,2.91,4.3,4.3,0,0,1-3.62,1.67A4.38,4.38,0,0,1,61.65,72a4.58,4.58,0,0,1-1-3A4.31,4.31,0,0,1,62,65.76,4.18,4.18,0,0,1,65.2,64.54Zm.07.41a2,2,0,0,0-1.81,1.22A6.46,6.46,0,0,0,63,69a5.58,5.58,0,0,0,.78,3.29,1.8,1.8,0,0,0,1.53.75,1.84,1.84,0,0,0,1.1-.32,2.63,2.63,0,0,0,.88-1.32,7.23,7.23,0,0,0,.32-2.35,7.59,7.59,0,0,0-.33-2.58,2.52,2.52,0,0,0-.81-1.21A2,2,0,0,0,65.27,65Z"/><path class="cls-1" d="M78.51,64.66v.24a1.4,1.4,0,0,0-.85.51,7.33,7.33,0,0,0-.8,1.5l-3,6.65h-.21l-3-6.92A8.75,8.75,0,0,0,70,65.18a1,1,0,0,0-.69-.28v-.24h4.17v.24h-.14a1.49,1.49,0,0,0-.77.14.32.32,0,0,0-.15.28,1.11,1.11,0,0,0,0,.28c0,.1.15.38.35.84l1.85,4.33,1.72-3.86c.2-.46.33-.77.38-.93a1.85,1.85,0,0,0,.07-.41.56.56,0,0,0-.41-.56,2,2,0,0,0-.73-.11v-.24Z"/><path class="cls-1" d="M81.23,70.88H78.16l-.37.85a1.89,1.89,0,0,0-.18.7.59.59,0,0,0,.3.54,2.34,2.34,0,0,0,.85.15v.24H75.87v-.24a1.27,1.27,0,0,0,.77-.39,5.06,5.06,0,0,0,.74-1.31l3.11-6.94h.12l3.14,7.13a4.3,4.3,0,0,0,.74,1.28,1,1,0,0,0,.61.23v.24H80.9v-.24h.17a1.33,1.33,0,0,0,.71-.14.33.33,0,0,0,.14-.29.67.67,0,0,0,0-.24,3.25,3.25,0,0,0-.19-.48ZM81,70.41l-1.29-3-1.34,3Z"/><path class="cls-1" d="M92.36,70.31l-.33,3H84.31v-.24h.29a1.2,1.2,0,0,0,.61-.13.62.62,0,0,0,.26-.31,2.9,2.9,0,0,0,.07-.81V66.15a3.14,3.14,0,0,0-.07-.83.62.62,0,0,0-.29-.29,1.06,1.06,0,0,0-.58-.13h-.29v-.24H89v.24h-.38A1.23,1.23,0,0,0,88,65a.62.62,0,0,0-.26.31,2.58,2.58,0,0,0-.07.81v5.54a2.48,2.48,0,0,0,.08.85.51.51,0,0,0,.3.27,2.85,2.85,0,0,0,.77.06h.73a2.48,2.48,0,0,0,1.15-.24,2.1,2.1,0,0,0,.8-.77,6,6,0,0,0,.64-1.55Z"/><path class="cls-1" d="M97.82,64.46l.07,2.9h-.26a3,3,0,0,0-.92-1.75,2.31,2.31,0,0,0-1.57-.67,1.5,1.5,0,0,0-1,.35,1.11,1.11,0,0,0-.38.81,1,1,0,0,0,.13.51,2.42,2.42,0,0,0,.6.6,14.5,14.5,0,0,0,1.39.75,6,6,0,0,1,2.06,1.42,2.38,2.38,0,0,1,.53,1.52,2.5,2.5,0,0,1-.85,1.88,3.08,3.08,0,0,1-2.16.78,3.33,3.33,0,0,1-.78-.08,5.44,5.44,0,0,1-.91-.31,1.35,1.35,0,0,0-.51-.13.59.59,0,0,0-.35.13.76.76,0,0,0-.3.39h-.24V70.27h.24a3.77,3.77,0,0,0,1.08,2.12,2.59,2.59,0,0,0,1.74.73,1.57,1.57,0,0,0,1.14-.4,1.15,1.15,0,0,0,.26-1.5,1.67,1.67,0,0,0-.49-.55A8,8,0,0,0,95.12,70a10.87,10.87,0,0,1-1.71-1,3.27,3.27,0,0,1-.8-.92,2.39,2.39,0,0,1,.49-2.88A2.66,2.66,0,0,1,95,64.46a3.18,3.18,0,0,1,.82.11,4,4,0,0,1,.74.28,1.75,1.75,0,0,0,.6.21.36.36,0,0,0,.27-.1,1.38,1.38,0,0,0,.18-.5Z"/><path class="cls-1" d="M27.43,83.23v1.3a1.49,1.49,0,0,0,.05.48.3.3,0,0,0,.16.15,1.05,1.05,0,0,0,.43.06v.13H25.7v-.13a1,1,0,0,0,.43-.06.34.34,0,0,0,.16-.15,1.24,1.24,0,0,0,.05-.48v-3a1.24,1.24,0,0,0-.05-.48.34.34,0,0,0-.16-.15,1.05,1.05,0,0,0-.43-.06V80.7h2.16a4.56,4.56,0,0,1,1.23.12,1.28,1.28,0,0,1,.64.43A1.16,1.16,0,0,1,30,82a1.07,1.07,0,0,1-.37.85,1.41,1.41,0,0,1-.66.32l1.12,1.58a3,3,0,0,0,.31.38.52.52,0,0,0,.33.11v.13H29.23l-1.49-2.12Zm0-2.28v2h.2a2.15,2.15,0,0,0,.71-.09.7.7,0,0,0,.37-.31,1.21,1.21,0,0,0,.14-.6.91.91,0,0,0-1.05-1Z"/><path class="cls-1" d="M32.55,81v1.89h.09a.72.72,0,0,0,.64-.28,1.62,1.62,0,0,0,.25-.82h.13V84.2h-.13a1.62,1.62,0,0,0-.17-.65.7.7,0,0,0-.31-.34,1.09,1.09,0,0,0-.5-.09v1.31a2.11,2.11,0,0,0,0,.47.31.31,0,0,0,.12.14.69.69,0,0,0,.29,0h.28a1.49,1.49,0,0,0,1.6-1.22H35l-.21,1.48h-4v-.13h.15a.67.67,0,0,0,.33-.07.35.35,0,0,0,.13-.16,1.29,1.29,0,0,0,0-.44v-3a2.54,2.54,0,0,0,0-.39.35.35,0,0,0-.12-.19.64.64,0,0,0-.36-.09h-.15V80.7h3.88v1.38h-.13a1.64,1.64,0,0,0-.27-.73,1.09,1.09,0,0,0-.51-.32A2.85,2.85,0,0,0,33,81Z"/><path class="cls-1" d="M38.66,83.77l1.26-3.07h1.89v.13h-.15a.67.67,0,0,0-.33.07.35.35,0,0,0-.13.16,1.26,1.26,0,0,0,0,.43v3.06a1.37,1.37,0,0,0,0,.45.32.32,0,0,0,.15.16.68.68,0,0,0,.31.06h.15v.13H39.39v-.13h.15a.65.65,0,0,0,.33-.07A.35.35,0,0,0,40,85a1.29,1.29,0,0,0,0-.44V81.11l-1.78,4.24h-.08l-1.81-4.21v3.27a2,2,0,0,0,0,.43.43.43,0,0,0,.19.27.74.74,0,0,0,.47.11v.13H35.46v-.13h0a.68.68,0,0,0,.29,0A.38.38,0,0,0,36,85a.53.53,0,0,0,.11-.25,2.22,2.22,0,0,0,0-.35V81.49a1.29,1.29,0,0,0,0-.44.36.36,0,0,0-.15-.15.61.61,0,0,0-.32-.07h-.14V80.7h1.9Z"/><path class="cls-1" d="M44.65,80.64A2.29,2.29,0,0,1,47.15,83a2.42,2.42,0,0,1-.52,1.55,2.29,2.29,0,0,1-1.93.9,2.35,2.35,0,0,1-1.94-.85,2.43,2.43,0,0,1-.55-1.6,2.31,2.31,0,0,1,.71-1.72A2.24,2.24,0,0,1,44.65,80.64Zm0,.22a1,1,0,0,0-1,.65A3.47,3.47,0,0,0,43.45,83a3,3,0,0,0,.42,1.76,1,1,0,0,0,.82.4,1,1,0,0,0,.58-.17,1.36,1.36,0,0,0,.47-.7,3.72,3.72,0,0,0,.17-1.26,4.07,4.07,0,0,0-.17-1.38A1.36,1.36,0,0,0,45.3,81,1,1,0,0,0,44.69,80.86Z"/><path class="cls-1" d="M52.4,80.7v.13a.82.82,0,0,0-.46.27,4.56,4.56,0,0,0-.42.8l-1.61,3.56H49.8l-1.59-3.7a3.9,3.9,0,0,0-.39-.78.53.53,0,0,0-.37-.15V80.7h2.23v.13h-.07a.79.79,0,0,0-.41.07.17.17,0,0,0-.08.16.78.78,0,0,0,0,.14c0,.06.08.21.19.45l1,2.31.92-2.06a4.92,4.92,0,0,0,.2-.5.59.59,0,0,0,0-.21.28.28,0,0,0-.06-.18.25.25,0,0,0-.16-.12,1.07,1.07,0,0,0-.39-.06V80.7Z"/><path class="cls-1" d="M54.48,84H52.84l-.19.45a.89.89,0,0,0-.1.37.31.31,0,0,0,.16.29,1.26,1.26,0,0,0,.45.08v.13H51.62v-.13A.65.65,0,0,0,52,85a2.57,2.57,0,0,0,.4-.7l1.66-3.7h.06l1.68,3.81a2.35,2.35,0,0,0,.39.68.55.55,0,0,0,.33.12v.13H54.3v-.13h.1a.73.73,0,0,0,.38-.07.19.19,0,0,0,.07-.16.32.32,0,0,0,0-.13s0-.1-.1-.25Zm-.11-.26-.7-1.6L53,83.77Z"/><path class="cls-1" d="M61.06,83.72l-.17,1.63H56.76v-.13h.16a.61.61,0,0,0,.32-.07.32.32,0,0,0,.14-.16,1.64,1.64,0,0,0,0-.44v-3a1.74,1.74,0,0,0,0-.45.36.36,0,0,0-.15-.15.57.57,0,0,0-.31-.07h-.16V80.7h2.48v.13H59a.62.62,0,0,0-.33.07.35.35,0,0,0-.14.17,1.49,1.49,0,0,0,0,.43v3a1.74,1.74,0,0,0,0,.45.28.28,0,0,0,.17.15,1.58,1.58,0,0,0,.41,0h.39a1.38,1.38,0,0,0,.61-.13,1.2,1.2,0,0,0,.43-.41,3.59,3.59,0,0,0,.34-.83Z"/><path class="cls-1" d="M64.61,80.6l0,1.54h-.14a1.59,1.59,0,0,0-.49-.93,1.22,1.22,0,0,0-.84-.36.82.82,0,0,0-.56.19.58.58,0,0,0-.2.43.5.5,0,0,0,.07.27,1.08,1.08,0,0,0,.32.32,7,7,0,0,0,.74.4,3.24,3.24,0,0,1,1.1.76,1.28,1.28,0,0,1,.29.82,1.34,1.34,0,0,1-.46,1,1.63,1.63,0,0,1-1.15.42,1.86,1.86,0,0,1-.42,0,3.39,3.39,0,0,1-.49-.16.67.67,0,0,0-.27-.07.32.32,0,0,0-.19.07.45.45,0,0,0-.16.21h-.12V83.7h.12a2.07,2.07,0,0,0,.58,1.13,1.37,1.37,0,0,0,.93.39.85.85,0,0,0,.61-.21.63.63,0,0,0,.14-.81,1,1,0,0,0-.26-.29,4.55,4.55,0,0,0-.63-.36,4.86,4.86,0,0,1-.91-.53,1.63,1.63,0,0,1-.43-.49,1.21,1.21,0,0,1-.15-.6,1.26,1.26,0,0,1,.41-.94,1.42,1.42,0,0,1,1-.39,1.54,1.54,0,0,1,.43.05,3,3,0,0,1,.4.15.78.78,0,0,0,.32.11.16.16,0,0,0,.14,0,.55.55,0,0,0,.1-.26Z"/><path class="cls-1" d="M71,82.57h1.42v.13a.74.74,0,0,0-.37.15,1.58,1.58,0,0,0-.36.5,6.64,6.64,0,0,1-.62.88,5,5,0,0,0,.57.44.67.67,0,0,0,.3.08c.17,0,.32-.11.46-.33l.14.08a2,2,0,0,1-.6.78.89.89,0,0,1-.55.18,1.13,1.13,0,0,1-.51-.12,2.74,2.74,0,0,1-.59-.43,3.65,3.65,0,0,1-.8.42,2.67,2.67,0,0,1-.79.13,1.44,1.44,0,0,1-1-.36,1.08,1.08,0,0,1-.39-.83,1.22,1.22,0,0,1,.37-.89,3,3,0,0,1,1.06-.66,2.61,2.61,0,0,1-.13-.43,2.06,2.06,0,0,1,0-.42,1.19,1.19,0,0,1,.38-.91,1.4,1.4,0,0,1,1-.36,1.14,1.14,0,0,1,.76.24.73.73,0,0,1,.29.56.88.88,0,0,1-.29.66,2.59,2.59,0,0,1-.92.51A8.54,8.54,0,0,0,70.85,84a1.6,1.6,0,0,0,.51-1,.33.33,0,0,0-.1-.24A.52.52,0,0,0,71,82.7Zm-2.19.37a1.14,1.14,0,0,0-.39.25.67.67,0,0,0-.16.43,1.24,1.24,0,0,0,.19.64,1.42,1.42,0,0,0,.45.49.92.92,0,0,0,.53.17.84.84,0,0,0,.29,0,2.84,2.84,0,0,0,.36-.17A6.51,6.51,0,0,1,68.78,82.94Zm.82-.58a1.15,1.15,0,0,0,.49-.28.59.59,0,0,0,.12-.37,1.07,1.07,0,0,0-.2-.65.42.42,0,0,0-.33-.17.38.38,0,0,0-.28.12.54.54,0,0,0-.11.35,1.63,1.63,0,0,0,0,.36C69.38,81.84,69.47,82.06,69.6,82.36Z"/><path class="cls-1" d="M77.87,80.6l0,1.54h-.14a1.59,1.59,0,0,0-.49-.93,1.22,1.22,0,0,0-.84-.36.82.82,0,0,0-.56.19.58.58,0,0,0-.2.43.5.5,0,0,0,.07.27,1.08,1.08,0,0,0,.32.32,6,6,0,0,0,.74.4,3.24,3.24,0,0,1,1.1.76,1.27,1.27,0,0,1,.28.82,1.33,1.33,0,0,1-.45,1,1.63,1.63,0,0,1-1.15.42,1.86,1.86,0,0,1-.42,0,3.39,3.39,0,0,1-.49-.16.67.67,0,0,0-.27-.07.32.32,0,0,0-.19.07.45.45,0,0,0-.16.21h-.12V83.7h.12a2.07,2.07,0,0,0,.58,1.13,1.37,1.37,0,0,0,.93.39.85.85,0,0,0,.61-.21.63.63,0,0,0,.14-.81,1,1,0,0,0-.26-.29,4.55,4.55,0,0,0-.63-.36,5.4,5.4,0,0,1-.92-.53,1.74,1.74,0,0,1-.42-.49A1.28,1.28,0,0,1,75.35,81a1.41,1.41,0,0,1,1-.39,1.56,1.56,0,0,1,.44.05,3,3,0,0,1,.4.15.78.78,0,0,0,.32.11.16.16,0,0,0,.14,0,.68.68,0,0,0,.1-.26Z"/><path class="cls-1" d="M82.9,80.7V82h-.12a2,2,0,0,0-.24-.63,1,1,0,0,0-.37-.3,1.23,1.23,0,0,0-.46-.06h-.34v3.58a1.37,1.37,0,0,0,0,.45.32.32,0,0,0,.15.16.7.7,0,0,0,.32.06H82v.13H79.6v-.13h.15a.65.65,0,0,0,.33-.07.37.37,0,0,0,.14-.16,1.84,1.84,0,0,0,0-.44V81h-.33a1,1,0,0,0-.68.2,1.29,1.29,0,0,0-.38.79h-.13V80.7Z"/><path class="cls-1" d="M85.74,80.64A2.3,2.3,0,0,1,88.24,83a2.42,2.42,0,0,1-.52,1.55,2.29,2.29,0,0,1-1.93.9,2.35,2.35,0,0,1-1.94-.85A2.43,2.43,0,0,1,83.3,83,2.31,2.31,0,0,1,84,81.29,2.24,2.24,0,0,1,85.74,80.64Zm0,.22a1,1,0,0,0-1,.65A3.47,3.47,0,0,0,84.54,83,3,3,0,0,0,85,84.8a.94.94,0,0,0,.81.4,1,1,0,0,0,.59-.17,1.36,1.36,0,0,0,.47-.7A3.72,3.72,0,0,0,87,83.07a4.34,4.34,0,0,0-.17-1.38,1.36,1.36,0,0,0-.44-.65A1,1,0,0,0,85.78,80.86Z"/><path class="cls-1" d="M90.35,83.23v1.3a1.49,1.49,0,0,0,.05.48.3.3,0,0,0,.16.15,1.11,1.11,0,0,0,.44.06v.13H88.62v-.13a1.11,1.11,0,0,0,.44-.06.39.39,0,0,0,.16-.15,1.6,1.6,0,0,0,0-.48v-3a1.6,1.6,0,0,0,0-.48.36.36,0,0,0-.17-.15,1,1,0,0,0-.43-.06V80.7h2.16a4.56,4.56,0,0,1,1.23.12,1.28,1.28,0,0,1,.64.43,1.17,1.17,0,0,1,.25.73,1.1,1.1,0,0,1-.37.85,1.45,1.45,0,0,1-.67.32L93,84.73a3,3,0,0,0,.31.38.57.57,0,0,0,.33.11v.13H92.16l-1.5-2.12Zm0-2.28v2h.2a2.11,2.11,0,0,0,.71-.09.7.7,0,0,0,.37-.31,1.21,1.21,0,0,0,.14-.6,1,1,0,0,0-.25-.78,1.08,1.08,0,0,0-.8-.26Z"/><path class="cls-1" d="M96.48,84H94.84l-.2.45a1.08,1.08,0,0,0-.1.37.32.32,0,0,0,.16.29,1.34,1.34,0,0,0,.46.08v.13H93.61v-.13A.61.61,0,0,0,94,85a2.57,2.57,0,0,0,.4-.7l1.66-3.7h.07l1.67,3.81a2.3,2.3,0,0,0,.4.68.55.55,0,0,0,.33.12v.13H96.3v-.13h.09a.71.71,0,0,0,.38-.07.19.19,0,0,0,.08-.16.69.69,0,0,0,0-.13l-.11-.25Zm-.12-.26-.69-1.6L95,83.77Z"/><path class="cls-1" d="M103.47,80.6v1.63h-.13a2.11,2.11,0,0,0-.69-1,1.62,1.62,0,0,0-1-.35,1.28,1.28,0,0,0-.87.3,1.57,1.57,0,0,0-.49.81,4.32,4.32,0,0,0-.14,1.08,3.72,3.72,0,0,0,.16,1.17,1.31,1.31,0,0,0,.5.74,1.48,1.48,0,0,0,.84.24,1.32,1.32,0,0,0,.34,0,2.42,2.42,0,0,0,.36-.1v-1a1.23,1.23,0,0,0,0-.35.34.34,0,0,0-.16-.15.62.62,0,0,0-.29-.06h-.12V83.4H104v.13a.81.81,0,0,0-.35.07.33.33,0,0,0-.16.17,1,1,0,0,0,0,.32v1a5,5,0,0,1-.93.3,4.65,4.65,0,0,1-1,.1,2.94,2.94,0,0,1-1.1-.18,3,3,0,0,1-.77-.47,2.48,2.48,0,0,1-.52-.66,2.33,2.33,0,0,1-.24-1.06,2.39,2.39,0,0,1,.74-1.77,2.51,2.51,0,0,1,1.85-.73,3.06,3.06,0,0,1,.63.06,3.78,3.78,0,0,1,.48.15,1.9,1.9,0,0,0,.4.13.24.24,0,0,0,.18-.07.52.52,0,0,0,.15-.26Z"/><path class="cls-1" d="M106,81v1.89h.09a.72.72,0,0,0,.64-.28,1.62,1.62,0,0,0,.25-.82h.13V84.2H107a1.62,1.62,0,0,0-.17-.65.7.7,0,0,0-.31-.34,1.09,1.09,0,0,0-.5-.09v1.31a2.11,2.11,0,0,0,0,.47.31.31,0,0,0,.12.14.69.69,0,0,0,.29,0h.28a1.49,1.49,0,0,0,1.6-1.22h.13l-.21,1.48h-4v-.13h.15a.67.67,0,0,0,.33-.07.3.3,0,0,0,.13-.16,1.29,1.29,0,0,0,0-.44v-3a2.54,2.54,0,0,0,0-.39.35.35,0,0,0-.12-.19.64.64,0,0,0-.36-.09h-.15V80.7h3.89v1.38H108a1.76,1.76,0,0,0-.28-.73,1.09,1.09,0,0,0-.51-.32,2.85,2.85,0,0,0-.72-.06Z"/></svg>