<svg id="Layer_12" data-name="Layer 12" xmlns="http://www.w3.org/2000/svg" viewBox="0 0 131 131"><defs><style>.cls-1{fill:#1b3d65;}</style></defs><path class="cls-1" d="M19.83,56.27c1-.3,1.33-.16,1.81.79l.89-.77a6.69,6.69,0,0,1-.57-1,1,1,0,0,1,.08-.65,1.05,1.05,0,0,1,1.12-.59c.54.06.85.41,1,1.18l1.13-.5a1.17,1.17,0,0,1-.08-1.62,1,1,0,0,1,1.18-.3c.62.23.77.73.71,1.39l1.18-.16a1.16,1.16,0,0,1,.45-1.55,1,1,0,0,1,1.18.08,1.13,1.13,0,0,1,.3,1.47l1.19.17c0-.81.21-1.22.73-1.4a1.09,1.09,0,0,1,1.25.38c.32.44.27.91-.17,1.53l1.12.52c.15-.69.43-1.24,1.25-1.2a1,1,0,0,1,1,.76c.17.51,0,.9-.65,1.42l1,.83c.38-.75.78-1,1.31-1a1.1,1.1,0,0,1,.92.93c.08.65-.17,1-1.06,1.34l.69,1a6.12,6.12,0,0,1,1-.56,1,1,0,0,1,.69.12,1.07,1.07,0,0,1,.53,1.24c-.14.55-.59.81-1.4.81l.38,1.2a6.77,6.77,0,0,1,1.15-.27.93.93,0,0,1,.59.28,1.05,1.05,0,0,1,.19,1.33c-.29.5-.71.62-1.57.43a.68.68,0,0,0,0,.14v1.17l1.34-.1s0,0,0,0c-.05-1.05.32-1.3,1.33-1.26s1.89,0,2.91,0v-2.3a3.15,3.15,0,0,1,0-.87.79.79,0,0,1,1.33-.54,11.69,11.69,0,0,1,1.13,1.17l1-1.11a.85.85,0,0,1,1-.29.84.84,0,0,1,.5.9c0,.87,0,1.74,0,2.65h5.94V61.83a1.39,1.39,0,0,1,0-.58c.11-.25.27-.6.49-.67a1.08,1.08,0,0,1,.87.16,8.82,8.82,0,0,1,1.07,1.11c.34-.37.61-.66.87-1a.85.85,0,0,1,1.53.64v1.86h6.46V50.14H66.91a.77.77,0,0,1-.86-.87V40.53c0-.58.28-.85.86-.89l.49,0V36c0-.6.31-.92.82-.92s.79.34.8.94c0,.27,0,.55,0,.86h1.52c0-.16,0-.33,0-.5,0-1,0-1.93,0-2.89a2.91,2.91,0,0,1,.29-1.25,2.33,2.33,0,0,0,.31-1.27,10.29,10.29,0,0,1,0-1.36,1.58,1.58,0,0,1,.25-.85,1.69,1.69,0,0,0,.33-1.27c0-.7,0-1.42,0-2.12a7,7,0,0,1,.32-1.23,1.85,1.85,0,0,0,.07-.41c0-.57,0-1.13,0-1.69s.31-1,.81-1,.8.35.8,1c0,.42,0,.83,0,1.25a1.72,1.72,0,0,0,.27,1.14,1.3,1.3,0,0,1,.14.69c0,.94,0,1.87,0,2.8a2.49,2.49,0,0,0,.2.62,10.08,10.08,0,0,1,.4,1.21,3.73,3.73,0,0,1,0,.82,2.81,2.81,0,0,0,.38,1.84,1.77,1.77,0,0,1,.21,1c0,1.15,0,2.29,0,3.48h1.24c0-.31,0-.64,0-1a.8.8,0,1,1,1.59,0c0,1.08,0,2.16,0,3.23v.47l.1.08c1.26.2,1.26.2,1.26,1.48V49c0,.91-.22,1.12-1.1,1.12s-.93,0-.93,1V76.8c0,.64,0,.64.66.64h2.3V54.28a4.73,4.73,0,0,1,0-.53.79.79,0,0,1,1.54-.15,5.48,5.48,0,0,1,.1.56s0,.06.08.06c1,.1,1,.1,1-.95s0-2,0-3.05a1.36,1.36,0,0,1,.57-1.16.67.67,0,0,0,.22-.46c0-1.08,0-2.16,0-3.24a.76.76,0,0,1,.23-.53c.27-.2.56,0,.57.43q0,1.62,0,3.24a.61.61,0,0,0,.31.63,1.28,1.28,0,0,1,.53,1.18v3.77s0,.06,0,.12h1.1c0-.16,0-.3,0-.44a.75.75,0,0,1,.73-.71.74.74,0,0,1,.82.54,2.17,2.17,0,0,1,.06.57c0,1.14,0,2.28,0,3.45h25.18V54.12c0-.68.28-1,.78-1.08s.79.32.85,1a.73.73,0,0,0,0,.16h1.12V52.92c0-.9,0-1.81,0-2.71a1.37,1.37,0,0,1,.58-1.15.73.73,0,0,0,.25-.5c0-1.05,0-2.1,0-3.14,0-.29,0-.64.38-.64s.42.32.42.62c0,1.05,0,2.09,0,3.14a.79.79,0,0,0,.26.54,1.43,1.43,0,0,1,.54,1.18c0,1.13,0,2.25,0,3.38,0,.5.13.68.62.6a4.49,4.49,0,0,1,.52,0c0-.17,0-.31,0-.45A.82.82,0,0,1,121,53a.8.8,0,0,1,.76.8c0,.16,0,.32,0,.48V77.15h2.54a.67.67,0,0,1,.74.49,1.23,1.23,0,0,1-.13.8.79.79,0,0,1-.61.29c-1.11,0-2.22,0-3.33,0-.55,0-.82-.33-.82-.92,0-.81,0-1.61,0-2.42V58.08h-4.75V77.46c0,.16,0,.32,0,.48a.79.79,0,0,1-.8.8.77.77,0,0,1-.81-.78.33.33,0,0,1,0-.14,2.54,2.54,0,0,0-1.15-2.56c-3-2.49-5.82-5.08-8.72-7.63-.14-.13-.29-.25-.43-.39a.81.81,0,0,1-.06-1.16.79.79,0,0,1,1.13,0c.55.47,1.09,1,1.63,1.43l7.29,6.41.27.21V59.84H88.57V74.1l1.9-1.66,7.18-6.31A.86.86,0,0,1,98.79,66a.82.82,0,0,1,0,1.33l-3.55,3.13Q92,73.26,88.8,76.09a.84.84,0,0,0-.24.53,10.25,10.25,0,0,0,0,1.11c0,.66-.31,1-.84,1s-.78-.35-.78-1V58.09H82.17V77.63c0,1.29-.31,1.45-1.4,1.42-1.26,0-2.52,0-3.77,0-.77,0-1-.24-1-1V49.53c0-.73.25-1,1-1,1,0,1,0,1-1.08V41.18H67.66v7.36h1c.78,0,1,.27,1,1.05V78c0,.71-.32,1.08-.9,1a.72.72,0,0,1-.7-.67,3.75,3.75,0,0,1,0-.58V65H61.13c-1,0-1.15-.2-1.16-1.15v-.55c-.54.55-1,.52-1.62-.07,0,.44,0,.75,0,1.06,0,.6-.29.88-.9.88H50.1c-.6,0-.87-.28-.89-.89s0-1,0-1.58c-.6.63-1.16.73-1.78,0v1.7c0,.84-.26,1.1-1.09,1.1h-3.1v12.3c0,1-.23,1.19-1.19,1.19-2.75,0-5.51,0-8.26,0a1,1,0,0,1-1.08-.69c-.27-.7-.62-1.38-.89-2.08-.16-.4-.36-.59-.81-.32a1.16,1.16,0,0,1-.24,1.49,1,1,0,0,1-1.18.13c-.62-.31-.7-.86-.51-1.53L27.94,76c0,.14,0,.26,0,.38a1,1,0,0,1-.92,1,.53.53,0,0,0-.49.37c-.61,1.42-.46,1.29-2,1.29h-5.6c-.87,0-1.11-.34-1-1.21.26-2,.48-4.1.71-6.14a4.43,4.43,0,0,0,0-.55l-.37.53A14.73,14.73,0,0,1,12.15,77l0,0c-.29.1-.63.37-.84-.06s.18-.53.48-.68a13.77,13.77,0,0,0,6.83-7,2.74,2.74,0,0,0,.19-1.07c0-2,0-4-.1-6.06-.58.76-1.12,1.56-1.73,2.28A14,14,0,0,1,12,68.13c-.27.12-.57.27-.74-.11s.13-.5.41-.63A14,14,0,0,0,18,61.47a3.12,3.12,0,0,0,.5-2.1c-.27-1.84-.45-3.69-.66-5.55l-.14,0c-.07.13-.14.26-.22.39a14.73,14.73,0,0,1-6.67,6.41c-.3.15-.7.51-.94,0s.3-.56.59-.7a13.73,13.73,0,0,0,6.88-7.38,1.3,1.3,0,0,0,.07-.73c-.35-1.7-.73-3.39-1.13-5.2-.15.22-.22.31-.28.42a14.81,14.81,0,0,1-6.47,6.16.77.77,0,0,0-.35.49,73.89,73.89,0,0,0-1,9.74,78.46,78.46,0,0,0,.72,13.44c.05.43.15.85.18,1.29A.76.76,0,0,1,8.3,79H6.71a.8.8,0,0,1-.86-.8.84.84,0,0,1,.86-.8h.67c-.11-.87-.24-1.69-.3-2.52-.18-2.37-.37-4.75-.48-7.13a63,63,0,0,1,.32-9.21,69.44,69.44,0,0,1,3-14.9,6.84,6.84,0,0,1,1.73-2.87,2,2,0,0,1,.22-.19c1.38-1,1.91-1.1,3.37.11a7.14,7.14,0,0,1,2.09,3.68,71.51,71.51,0,0,1,2.44,11.5A3.21,3.21,0,0,0,19.83,56.27Zm1,8.77a8.47,8.47,0,1,0,8.54-8.46A8.5,8.5,0,0,0,20.79,65ZM34,75c.48.66.55,1.16.21,1.61-.12.17-.39.33-.16.55a.94.94,0,0,0,.6.24c2.14,0,4.28,0,6.42,0,.19,0,.37,0,.55,0v-10l-1.49-.25-.3,1.23c.83-.09,1.24.13,1.46.71a1.1,1.1,0,0,1-.43,1.27c-.5.33-1,.21-1.68-.41l-.65,1.16c.8.19,1.14.53,1.17,1.1a1,1,0,0,1-.74,1.07,1.61,1.61,0,0,1-.92-.1c-.25-.13-.42-.44-.63-.69l-.87.92a1.14,1.14,0,0,1,.74,1.42,1.05,1.05,0,0,1-1,.77c-.73,0-1.08-.46-1.19-1.15l-.86.44ZM9.41,52.28l.44-.21a13.39,13.39,0,0,0,5.28-5.17c1-1.83.95-1.21.18-3.23a4,4,0,0,0-1.44-2,.58.58,0,0,0-.78,0A4.18,4.18,0,0,0,11.55,44c-.53,1.71-1,3.45-1.46,5.19C9.83,50.15,9.65,51.18,9.41,52.28ZM20.3,64.2l.18,0a8.17,8.17,0,0,1,2.05-5,8.58,8.58,0,0,1,4.7-2.86,8.69,8.69,0,0,1,5.44.45,8.88,8.88,0,0,1,5.42,9,8.79,8.79,0,0,1-7.67,7.92,8.39,8.39,0,0,1-6.54-1.73,8.79,8.79,0,0,1-3.42-5.79,5.66,5.66,0,0,0,.39,3,9.39,9.39,0,0,0,17.62-5.94,9,9,0,0,0-7-7.36,9,9,0,0,0-9.63,3.34,6.17,6.17,0,0,0-1.57,4.52Zm68.23-5.8c-.07.47.18.48.49.48h24.25c.34,0,.57,0,.48-.48ZM20.08,73.32l-.46,4c.05,0,.08.06.11.06,1.64,0,3.28,0,4.92,0a.35.35,0,0,0,.27-.14c.28-.59.54-1.19.81-1.81l-.8-.3c-.15.58-.44,1-1.07,1a1,1,0,0,1-1-.52,1.19,1.19,0,0,1,.28-1.49l-.87-.64C21.5,74.55,20.69,74.46,20.08,73.32Zm49-33.68h6.67c1,0,1,0,.93-1a.36.36,0,0,0-.06-.15H69.05Zm51,16.24h-4.7v.52h4.7Zm-37.89.51h4.74l0-.51H82.19Zm-61.94,15-.14,1.34.64-.68Zm20-11.48c-.19-.13-.29-.27-.39-.27s-.19.16-.28.25c.09.09.17.24.26.25S40.07,60,40.26,59.92ZM23.4,55.13c-.17-.12-.29-.26-.38-.25a.38.38,0,0,0-.25.27.4.4,0,0,0,.26.26C23.13,55.41,23.23,55.26,23.4,55.13Zm18,11.16c-.16-.14-.26-.29-.36-.29a.4.4,0,0,0-.26.25c0,.09.14.26.23.28S41.19,66.4,41.37,66.29ZM21.23,72.77c-.14.16-.29.26-.29.36a.26.26,0,0,0,.52,0C21.48,73.06,21.34,72.94,21.23,72.77Zm15,1.34c-.14.16-.28.27-.28.36a.36.36,0,0,0,.25.27.35.35,0,0,0,.27-.24C36.45,74.4,36.32,74.29,36.2,74.11Zm-12,1c-.17-.13-.27-.27-.37-.27s-.26.16-.26.25a.37.37,0,0,0,.24.27C23.88,75.4,24,75.26,24.17,75.14Zm11.7-20c-.17-.12-.29-.26-.38-.25a.4.4,0,0,0-.25.27c0,.1.16.25.26.26S35.71,55.27,35.87,55.13ZM30.09,76.21c-.13.18-.27.29-.26.39s.15.19.24.29c.09-.09.25-.18.26-.28S30.21,76.4,30.09,76.21Zm2.37-22.74c-.11.19-.24.31-.22.4s.18.18.27.26c.09-.1.24-.19.24-.29S32.6,53.64,32.46,53.47Zm-6.47,0c-.12.19-.24.31-.22.4s.17.18.27.26c.08-.1.23-.19.23-.29S26.13,53.64,26,53.47ZM38.52,71.85c-.11.2-.24.32-.22.41s.17.18.27.26c.08-.1.22-.2.23-.3S38.66,72,38.52,71.85Zm-.11-14.66c-.19-.11-.31-.24-.41-.22s-.17.17-.26.26c.1.08.19.23.29.23S38.24,57.33,38.41,57.19Zm-9.15-3.34c.12-.18.26-.29.25-.39a.37.37,0,0,0-.25-.25.35.35,0,0,0-.25.26C29,53.57,29.14,53.67,29.26,53.85Zm11.31,15.6c-.16-.14-.27-.28-.36-.28a.4.4,0,0,0-.26.25.36.36,0,0,0,.24.27C40.28,69.71,40.39,69.57,40.57,69.45Z"/><path class="cls-1" d="M5.79,85.54c.91-.1,1.84-.24,2.76-.31a34.09,34.09,0,0,1,6.7,0A11.57,11.57,0,0,1,23.15,89a10.54,10.54,0,0,1,2.46,5.71,15.66,15.66,0,0,1-.69,7.38,10.86,10.86,0,0,1-8.3,7.22,26.37,26.37,0,0,1-7.67.51c-1,0-2.09-.13-3.16-.19Zm3.12,21.6a19.94,19.94,0,0,0,6.46-.19,8.29,8.29,0,0,0,6.29-5.29,13,13,0,0,0,.44-7.79,7.59,7.59,0,0,0-5.57-5.78,16.67,16.67,0,0,0-7-.33c-.5.06-.61.26-.6.73q0,9,0,18Z"/><path class="cls-1" d="M125.21,96.72c-.06,3.43-.59,6.23-2.28,8.7a10.35,10.35,0,0,1-7.88,4.53,10.46,10.46,0,0,1-8-2.31,11.25,11.25,0,0,1-3.83-6.75,15.39,15.39,0,0,1,1.22-10.1,10.74,10.74,0,0,1,10.67-5.92c5.09.36,8.77,3.86,9.77,9.19C125.09,95.1,125.15,96.16,125.21,96.72Zm-3.36,1.51a13.38,13.38,0,0,0-1.36-6.77,6.93,6.93,0,0,0-5.93-4A6.59,6.59,0,0,0,108,90.91a12.61,12.61,0,0,0-.12,12.81,7,7,0,0,0,12,.72A11.29,11.29,0,0,0,121.85,98.23Z"/><path class="cls-1" d="M51.47,97.18a15,15,0,0,1-2.3,8.17,10.31,10.31,0,0,1-7.94,4.6,10.55,10.55,0,0,1-7.79-2.16,11.17,11.17,0,0,1-4-6.81,15.26,15.26,0,0,1,1-9.85,10.44,10.44,0,0,1,9.74-6.28,10.11,10.11,0,0,1,7.6,2.85,11.25,11.25,0,0,1,3.21,6.14C51.27,94.94,51.34,96.06,51.47,97.18Zm-19-.2a12.66,12.66,0,0,0,1.69,7,7,7,0,0,0,12.07.15A11.67,11.67,0,0,0,48,98.34a12.59,12.59,0,0,0-1.64-7.42,7.08,7.08,0,0,0-12.25,0A12.65,12.65,0,0,0,32.49,97Z"/><path class="cls-1" d="M98.1,86.13l-.73,2.46c-.9-.25-1.78-.56-2.68-.73a12.83,12.83,0,0,0-6.62.39,8.21,8.21,0,0,0-5.35,5.49A11.92,11.92,0,0,0,83,102a8.14,8.14,0,0,0,6.9,5.18,13.46,13.46,0,0,0,5.17-.27.77.77,0,0,0,.7-.91c0-2,0-4,0-6v-.56H90.85V96.84h8c0,.16,0,.32,0,.47,0,3.58,0,7.15,0,10.73a.58.58,0,0,1-.5.66,20.84,20.84,0,0,1-10.27.87,10.76,10.76,0,0,1-9-9,14.06,14.06,0,0,1,.94-8.63,11.48,11.48,0,0,1,8.59-6.56,16.7,16.7,0,0,1,8.67.46c.2.06.39.14.59.21Z"/><path class="cls-1" d="M71.67,99.34H66.76V96.83h8c0,.16,0,.31,0,.47v10.77c0,.24,0,.46-.29.57a20.28,20.28,0,0,1-10.88.83c-4.76-1.07-7.55-4.12-8.52-8.84a13.53,13.53,0,0,1,1.18-9.29,11.46,11.46,0,0,1,8.31-6,16.84,16.84,0,0,1,8.68.45c.09,0,.18.08.27.1.44.09.55.31.38.75-.23.65-.4,1.32-.59,2-.91-.25-1.79-.56-2.69-.73a12.81,12.81,0,0,0-6.67.41,8.14,8.14,0,0,0-5.24,5.35,11.69,11.69,0,0,0,.48,8.88,8.11,8.11,0,0,0,6.62,4.64,13.58,13.58,0,0,0,5.27-.29.69.69,0,0,0,.62-.82c0-2,0-4.06,0-6.09Z"/><path class="cls-1" d="M69.15,45.16a3.7,3.7,0,0,1,2.92-3.71,3.81,3.81,0,0,1,4.78,3.72,3.85,3.85,0,1,1-7.7,0Zm6.89,0a3,3,0,1,0-3.05,3A3,3,0,0,0,76,45.16Z"/><path class="cls-1" d="M48.55,73a4.21,4.21,0,0,1,0,.87c0,.16-.27.28-.41.42-.12-.14-.33-.26-.35-.42a7.36,7.36,0,0,1,0-1.15c0-.26-.09-.35-.34-.34a6.86,6.86,0,0,1-1.11,0,.66.66,0,0,1-.45-.36c-.06-.29.16-.42.45-.42h1.74c.34,0,.51.15.5.49Z"/><path class="cls-1" d="M47.76,67.9a14,14,0,0,1-1.46,0c-.16,0-.31-.24-.46-.36.15-.14.28-.38.44-.39.6,0,1.22,0,1.83,0a.4.4,0,0,1,.44.45,17.61,17.61,0,0,1,0,1.78c0,.17-.27.32-.41.48-.12-.16-.33-.3-.35-.47A13.85,13.85,0,0,1,47.76,67.9Z"/><path class="cls-1" d="M59.39,73a4,4,0,0,1,0,.91c0,.16-.26.28-.41.42-.12-.14-.33-.26-.35-.42a6.3,6.3,0,0,1,0-1.15c0-.25-.09-.35-.34-.34a6.85,6.85,0,0,1-1.11,0A.66.66,0,0,1,56.7,72c-.06-.3.17-.41.46-.41.56,0,1.12,0,1.68,0,.4,0,.56.18.55.56V73Z"/><path class="cls-1" d="M52.64,71.58c1.46,0,1.33-.14,1.33,1.31,0,.3,0,.61,0,.91s-.11.48-.42.48-.37-.2-.38-.45,0-.68,0-1-.08-.48-.43-.45-.61,0-.92,0-.58,0-.56-.41.27-.39.55-.38Z"/><path class="cls-1" d="M63.49,71.58c1.43,0,1.32-.17,1.32,1.32a4.6,4.6,0,0,1,0,.91.69.69,0,0,1-.36.45c-.3.07-.42-.18-.43-.45s0-.73,0-1.1-.09-.35-.34-.34h-.87c-.29,0-.67.07-.68-.38s.35-.41.66-.41Z"/><path class="cls-1" d="M53.17,67.9H51.74c-.27,0-.52-.09-.45-.4a.62.62,0,0,1,.44-.36c.59,0,1.19,0,1.78,0,.32,0,.46.17.46.49,0,.58,0,1.16,0,1.73,0,.29-.12.52-.41.46a.62.62,0,0,1-.37-.44A13.9,13.9,0,0,1,53.17,67.9Z"/><path class="cls-1" d="M58.59,67.9a13.63,13.63,0,0,1-1.44,0,.64.64,0,0,1-.45-.36c-.07-.29.17-.41.45-.41.6,0,1.2,0,1.79,0a.64.64,0,0,1,.43.43,12.42,12.42,0,0,1,0,1.83c0,.15-.26.28-.4.42-.13-.14-.35-.27-.36-.42A14.68,14.68,0,0,1,58.59,67.9Z"/><path class="cls-1" d="M64,67.9a13.58,13.58,0,0,1-1.44,0,.62.62,0,0,1-.45-.36c-.07-.29.17-.41.45-.41h1.79a.39.39,0,0,1,.44.45c0,.61,0,1.22,0,1.83,0,.15-.23.28-.36.42-.14-.14-.39-.26-.4-.42A12.28,12.28,0,0,1,64,67.9Z"/><path class="cls-1" d="M119,72.72a10,10,0,0,1,0,1.34c0,.18-.26.33-.4.5-.14-.17-.38-.33-.39-.51,0-.89,0-1.79,0-2.69a.6.6,0,0,1,.38-.44c.29-.07.42.18.43.45C119,71.82,119,72.27,119,72.72Z"/><path class="cls-1" d="M84.1,66.94v1.31c0,.28-.14.51-.42.45a.59.59,0,0,1-.37-.44c0-.91,0-1.81,0-2.71,0-.28.13-.52.42-.45a.65.65,0,0,1,.37.45A12.89,12.89,0,0,1,84.1,66.94Z"/><path class="cls-1" d="M119,66.9a9.4,9.4,0,0,1,0,1.3.66.66,0,0,1-.37.5c-.3.06-.44-.2-.44-.49V65.6c0-.3.12-.56.43-.5a.69.69,0,0,1,.38.49A9.52,9.52,0,0,1,119,66.9Z"/><path class="cls-1" d="M84.1,72.78v1.3c0,.28-.14.51-.42.45a.59.59,0,0,1-.37-.44c0-.9,0-1.8,0-2.69,0-.17.25-.34.38-.5.14.16.37.31.39.49A10.72,10.72,0,0,1,84.1,72.78Z"/><path class="cls-1" d="M84.1,60.48v1.3c0,.3-.08.53-.42.53s-.39-.23-.39-.5c0-.88,0-1.77,0-2.65,0-.17.26-.33.39-.5.14.18.36.34.38.52A9.4,9.4,0,0,1,84.1,60.48Z"/><path class="cls-1" d="M118.16,60.51v-1.3c0-.3.12-.56.42-.52a.66.66,0,0,1,.39.48c0,.89,0,1.77,0,2.66,0,.27-.12.53-.41.46a.67.67,0,0,1-.4-.48A9.4,9.4,0,0,1,118.16,60.51Z"/><path class="cls-1" d="M117.29,60.51c0,.43,0,.86,0,1.3,0,.27-.06.49-.38.5s-.41-.2-.41-.48c0-.9,0-1.8,0-2.7a.62.62,0,0,1,.37-.43c.29-.06.4.17.4.46C117.28,59.61,117.29,60.06,117.29,60.51Z"/><path class="cls-1" d="M85,60.46V59.2c0-.29.08-.53.42-.52s.39.26.39.55v2.56c0,.29-.08.52-.42.52s-.39-.23-.39-.5Z"/><path class="cls-1" d="M117.29,66.93a12.13,12.13,0,0,1,0,1.35c0,.16-.25.3-.38.45-.13-.15-.36-.3-.37-.46,0-.91,0-1.83,0-2.75,0-.15.25-.29.38-.44.13.15.35.29.37.45A13,13,0,0,1,117.29,66.93Z"/><path class="cls-1" d="M85,66.93V65.58c0-.27.09-.5.4-.5s.41.21.41.49c0,.88,0,1.77,0,2.65,0,.29-.12.53-.39.48s-.37-.29-.4-.47A9.4,9.4,0,0,1,85,66.93Z"/><path class="cls-1" d="M85,72.69v-1.3c0-.27.11-.54.41-.46a.65.65,0,0,1,.38.48c0,.88,0,1.77,0,2.65,0,.17-.26.33-.39.5-.13-.17-.36-.33-.38-.52A10.11,10.11,0,0,1,85,72.69Z"/><path class="cls-1" d="M117.29,72.75a12.16,12.16,0,0,1,0,1.35c0,.16-.24.3-.37.46-.14-.16-.37-.3-.38-.46,0-.92,0-1.83,0-2.75,0-.15.24-.3.38-.45.13.15.35.29.37.45A13,13,0,0,1,117.29,72.75Z"/><path class="cls-1" d="M72.23,60.81v.77c0,.3-.08.57-.43.57s-.4-.26-.4-.55V60c0-.3.11-.53.43-.52s.41.25.4.54Z"/><path class="cls-1" d="M72.23,65.1a4,4,0,0,1,0,.91c0,.17-.26.29-.4.43-.14-.14-.38-.28-.39-.44a13.82,13.82,0,0,1,0-1.82c0-.16.26-.29.4-.43.14.14.35.27.39.44A4,4,0,0,1,72.23,65.1Z"/><path class="cls-1" d="M75.33,65.09a3.51,3.51,0,0,1,0,.86c0,.19-.26.33-.4.49-.14-.14-.38-.28-.39-.44a11.06,11.06,0,0,1,0-1.82c0-.15.26-.29.39-.43.14.14.36.27.4.44a4.5,4.5,0,0,1,0,.9Z"/><path class="cls-1" d="M75.33,73.69a3.51,3.51,0,0,1,0,.86c0,.19-.26.33-.41.49-.13-.15-.37-.29-.38-.45a11.18,11.18,0,0,1,0-1.83c0-.15.26-.29.4-.43.13.15.35.28.39.45A4.6,4.6,0,0,1,75.33,73.69Z"/><path class="cls-1" d="M74.5,56.47a4.62,4.62,0,0,1,0-.91c0-.15.24-.27.37-.41.15.14.4.27.41.42a13,13,0,0,1,0,1.87c0,.14-.27.4-.37.38a.61.61,0,0,1-.42-.39,4.38,4.38,0,0,1,0-1Z"/><path class="cls-1" d="M72.23,56.53a3.85,3.85,0,0,1,0,.9.65.65,0,0,1-.43.39c-.09,0-.35-.24-.36-.38a14.59,14.59,0,0,1,0-1.87c0-.15.24-.28.37-.42.14.14.38.26.42.42a4.39,4.39,0,0,1,0,1Z"/><path class="cls-1" d="M71.4,73.65a4.12,4.12,0,0,1,0-.86c0-.17.24-.31.38-.46.14.14.4.27.41.42a11.68,11.68,0,0,1,0,1.87c0,.15-.28.28-.42.42-.13-.14-.34-.27-.37-.43a5.12,5.12,0,0,1,0-1Z"/><path class="cls-1" d="M72.23,69.37a4,4,0,0,1,0,.92c0,.17-.26.29-.4.44-.13-.15-.38-.29-.39-.44a10.7,10.7,0,0,1,0-1.79c0-.16.24-.31.37-.47.15.16.37.29.42.48A3.08,3.08,0,0,1,72.23,69.37Z"/><path class="cls-1" d="M75.33,52.25a4.11,4.11,0,0,1,0,.86c0,.17-.25.31-.38.47-.15-.15-.4-.29-.41-.44a13,13,0,0,1,0-1.87c0-.14.24-.27.38-.4.14.14.37.26.41.42A5.12,5.12,0,0,1,75.33,52.25Z"/><path class="cls-1" d="M74.5,60.78a3.52,3.52,0,0,1,0-.86c0-.18.28-.32.42-.48.13.16.37.3.38.47a11.62,11.62,0,0,1,0,1.77c0,.17-.27.32-.42.48-.13-.16-.34-.3-.38-.47A4.6,4.6,0,0,1,74.5,60.78Z"/><path class="cls-1" d="M71.4,52.22a4.58,4.58,0,0,1,0-.91c0-.17.26-.3.39-.45.14.15.39.29.4.44a11.06,11.06,0,0,1,0,1.82c0,.16-.26.31-.39.46-.14-.17-.35-.32-.4-.5A3.54,3.54,0,0,1,71.4,52.22Z"/><path class="cls-1" d="M75.33,69.38a3.51,3.51,0,0,1,0,.86c0,.19-.26.33-.4.49-.14-.15-.38-.28-.39-.44a11.06,11.06,0,0,1,0-1.82c0-.16.26-.29.4-.44.13.15.35.28.39.45a4.5,4.5,0,0,1,0,.9Z"/><path class="cls-1" d="M73,42.35a2.78,2.78,0,0,1,2.79,2.83,2.82,2.82,0,1,1-5.63,0A2.79,2.79,0,0,1,73,42.35Zm-2.24,2.82A2.23,2.23,0,0,0,73,47.38a2.22,2.22,0,1,0,0-4.44A2.21,2.21,0,0,0,70.78,45.17Z"/></svg>