<svg id="Layer_14_-_100_by_me" data-name="Layer 14 - 100% by me" xmlns="http://www.w3.org/2000/svg" viewBox="0 0 131 131"><defs><style>.cls-1,.cls-2{fill:#1b3d65;}.cls-2{opacity:0.93;}</style></defs><path class="cls-1" d="M36.84,66.56a2.19,2.19,0,0,1-1.13-2,3,3,0,0,1,1-.15,3.15,3.15,0,0,1,1.06.16.72.72,0,0,0,.31.57,2.23,2.23,0,0,0,1.41.35c1.05,0,1.54-.37,1.54-.92A.6.6,0,0,0,40.6,64a4.3,4.3,0,0,0-1-.25l-1-.17a5.73,5.73,0,0,1-1.64-.5,2,2,0,0,1-.65-.46A2.25,2.25,0,0,1,35.78,61a2.44,2.44,0,0,1,1-2.07,4.41,4.41,0,0,1,2.68-.75,4.83,4.83,0,0,1,2.73.7,2.14,2.14,0,0,1,1,1.94,3.38,3.38,0,0,1-1.07.14,2.61,2.61,0,0,1-1-.16.76.76,0,0,0-.46-.71,2.34,2.34,0,0,0-1.11-.24c-1,0-1.6.29-1.6.89s.45.73,1.51.91l1.35.23a4.78,4.78,0,0,1,1.48.49,2.3,2.3,0,0,1,.59.45,2.24,2.24,0,0,1,.52,1.52,2.38,2.38,0,0,1-1.08,2.08,4.74,4.74,0,0,1-2.77.75A5.54,5.54,0,0,1,36.84,66.56Z"/><path class="cls-1" d="M44.87,66.78V55.56a3,3,0,0,1,1.23-.22,3.65,3.65,0,0,1,1.27.22V66.78a3.58,3.58,0,0,1-1.26.21A3.67,3.67,0,0,1,44.87,66.78Z"/><path class="cls-1" d="M56.36,58.46a2.21,2.21,0,0,1,.46.2l-3,8.33a6.35,6.35,0,0,1-1,2,3,3,0,0,1-1.31.91,4.14,4.14,0,0,1-1.46.23,6.41,6.41,0,0,1-.9-.07,1.52,1.52,0,0,1-.3-.93,1.6,1.6,0,0,1,.3-1,4.18,4.18,0,0,0,.82.07A2.15,2.15,0,0,0,51.2,68a1.22,1.22,0,0,0,.5-.53l-3.53-8.78a1.88,1.88,0,0,1,.53-.19,3.68,3.68,0,0,1,.76-.06,4,4,0,0,1,1.39.25l1.91,6.1,1.67-6.1a3.46,3.46,0,0,1,1.3-.25A2.51,2.51,0,0,1,56.36,58.46Z"/><path class="cls-1" d="M65.83,61.48v5.33a5,5,0,0,1-1.28.18,4.18,4.18,0,0,1-1.24-.18V61.68A1.61,1.61,0,0,0,63,60.52a1.42,1.42,0,0,0-1.07-.35,1.56,1.56,0,0,0-1.68,1.62v5A4.43,4.43,0,0,1,59,67a5,5,0,0,1-1.29-.18V58.55a4.27,4.27,0,0,1,1.15-.17,4.05,4.05,0,0,1,1.15.17v1.26l.05,0a2.77,2.77,0,0,1,1.12-1.16,3.08,3.08,0,0,1,1.61-.45,3,3,0,0,1,2.3.92A3.2,3.2,0,0,1,65.83,61.48Z"/><path class="cls-1" d="M68.27,66a4.6,4.6,0,0,1-1.13-3.3,4.55,4.55,0,0,1,1.13-3.28,4.74,4.74,0,0,1,6.26,0,4.55,4.55,0,0,1,1.12,3.28A4.6,4.6,0,0,1,74.53,66a4.71,4.71,0,0,1-6.26,0Zm5.13-3.3c0-1.63-.71-2.58-1.94-2.58s-2,.95-2,2.58.76,2.59,2,2.59S73.4,64.34,73.4,62.68Z"/><path class="cls-1" d="M81.4,65a2.41,2.41,0,0,1,.15.87,3.67,3.67,0,0,1-.15,1,6.78,6.78,0,0,1-1.71.18,2.61,2.61,0,0,1-1.84-.57,2,2,0,0,1-.55-1,8.67,8.67,0,0,1-.14-1.85V60.27H76.09a3.26,3.26,0,0,1-.15-.92,3.11,3.11,0,0,1,.15-.85h1.1V56.68a4,4,0,0,1,1.23-.22,4.27,4.27,0,0,1,1.2.22v1.8H81.4a2.88,2.88,0,0,1,.15.9,3,3,0,0,1-.15.89H79.59v3.45a4.3,4.3,0,0,0,0,.77.52.52,0,0,0,.17.33,1.19,1.19,0,0,0,.84.22A4,4,0,0,0,81.4,65Z"/><path class="cls-1" d="M90.31,63.31H84.43a2.07,2.07,0,0,0,2.13,2,2,2,0,0,0,.89-.2,1.07,1.07,0,0,0,.54-.51A3.12,3.12,0,0,1,89,64.46a3.58,3.58,0,0,1,1.12.17,3.24,3.24,0,0,1-1.51,2,4.36,4.36,0,0,1-2.27.55,4.5,4.5,0,0,1-2.68-.9,4.13,4.13,0,0,1-1.55-3.49,4.53,4.53,0,0,1,1.42-3.53,4.13,4.13,0,0,1,2.79-1,3.78,3.78,0,0,1,2.92,1.16,4.32,4.32,0,0,1,1.1,3.13A6.56,6.56,0,0,1,90.31,63.31Zm-5.26-2.68a2.27,2.27,0,0,0-.59,1.2H88.2a1.78,1.78,0,0,0-.43-1.14,1.75,1.75,0,0,0-1.37-.55A1.82,1.82,0,0,0,85.05,60.63Z"/><path class="cls-1" d="M92.35,66.92a1.85,1.85,0,0,1-.57-.2V64.54a4.41,4.41,0,0,1,2.81,0v2.18a3.11,3.11,0,0,1-1.43.27A3.46,3.46,0,0,1,92.35,66.92Z"/><path class="cls-1" d="M96.93,66a5.32,5.32,0,0,1,0-6.57,4.05,4.05,0,0,1,3.1-1.2,4,4,0,0,1,2.73.91,3,3,0,0,1,1,2.27,3.51,3.51,0,0,1-1.07.16,3.16,3.16,0,0,1-1.11-.17,1.4,1.4,0,0,0-.48-.83,1.52,1.52,0,0,0-1.07-.36c-1.21,0-1.92.9-1.92,2.48s.69,2.5,1.93,2.5a1.57,1.57,0,0,0,1.15-.4,1.5,1.5,0,0,0,.46-.92,3.43,3.43,0,0,1,1.13-.16,3.13,3.13,0,0,1,1.05.16,3.35,3.35,0,0,1-1.13,2.43,4,4,0,0,1-2.7.9A4.09,4.09,0,0,1,96.93,66Z"/><path class="cls-1" d="M106.05,66a4.6,4.6,0,0,1-1.13-3.3,4.55,4.55,0,0,1,1.13-3.28,4.73,4.73,0,0,1,6.25,0,4.55,4.55,0,0,1,1.12,3.28A4.6,4.6,0,0,1,112.3,66a4.7,4.7,0,0,1-6.25,0Zm5.13-3.3c0-1.63-.71-2.58-1.94-2.58s-2.06.95-2.06,2.58.76,2.59,2.06,2.59S111.18,64.34,111.18,62.68Z"/><path class="cls-1" d="M127.58,59.87a4,4,0,0,1,.17,1.28v5.63a3.74,3.74,0,0,1-2.47,0V61.53c0-.63-.08-.91-.34-1.13a1.3,1.3,0,0,0-.88-.26,1.66,1.66,0,0,0-1,.26,1.51,1.51,0,0,0-.54,1.38v5a3.53,3.53,0,0,1-1.23.21,3.6,3.6,0,0,1-1.25-.21V61.53c0-.64-.08-.93-.35-1.15a1.32,1.32,0,0,0-.85-.24,1.54,1.54,0,0,0-1,.34,1.59,1.59,0,0,0-.48,1.3v5a3.79,3.79,0,0,1-1.29.21,3.67,3.67,0,0,1-1.24-.21v-8.2a3.48,3.48,0,0,1,1.18-.2,2.57,2.57,0,0,1,1.08.2v1.07h0a3.37,3.37,0,0,1,.79-.85,2.83,2.83,0,0,1,1.77-.58,2.68,2.68,0,0,1,2.2.82,3,3,0,0,1,.41.64,2.6,2.6,0,0,1,1.1-1.08,2.91,2.91,0,0,1,1.48-.38,2.76,2.76,0,0,1,2.16.78A2.3,2.3,0,0,1,127.58,59.87Z"/><path class="cls-1" d="M37.31,74a.13.13,0,0,1,0,.1s0,.08,0,.09h-.46l-.11.58h.43a.13.13,0,0,1,0,.1.15.15,0,0,1,0,.09h-.46l-.11.6-.11,0-.1,0,.11-.6h-.58l-.11.6-.11,0-.1,0,.11-.6h-.43a.15.15,0,0,1,0-.09.12.12,0,0,1,0-.1h.47l.1-.58h-.43a.1.1,0,0,1,0-.09.18.18,0,0,1,0-.1h.46l.11-.59.11,0,.11,0L36.1,74h.57l.11-.59.11,0,.1,0-.11.59Zm-.78.77.11-.58h-.58l-.11.58Z"/><path class="cls-1" d="M40.71,73.45v2.14a.25.25,0,0,1-.13,0,.32.32,0,0,1-.14,0V74a1,1,0,0,1-.23.08l-.28,0h-.06a.19.19,0,0,1,0-.08.15.15,0,0,1,0-.08h0a.74.74,0,0,0,.41-.11.54.54,0,0,0,.18-.4l.11,0Z"/><path class="cls-1" d="M48,73.43a.16.16,0,0,1,0,.12.12.12,0,0,1,0,.11H46.88v.81h1a.16.16,0,0,1,0,.12.12.12,0,0,1,0,.11h-1v.89a.32.32,0,0,1-.27,0V73.43Z"/><path class="cls-1" d="M50.84,75.36a1.43,1.43,0,0,1,0-1.67.91.91,0,0,1,.73-.3.89.89,0,0,1,.72.3,1.47,1.47,0,0,1,0,1.67.89.89,0,0,1-.72.3A.93.93,0,0,1,50.84,75.36Zm1.26-.17a1.08,1.08,0,0,0,.19-.66,1.09,1.09,0,0,0-.19-.67.7.7,0,0,0-1.07,0,1,1,0,0,0-.19.67,1,1,0,0,0,.19.66.7.7,0,0,0,1.07,0Z"/><path class="cls-1" d="M57.16,75.55a.07.07,0,0,1,0,0,.56.56,0,0,1-.2,0,.2.2,0,0,1-.23-.18l0-.44a.4.4,0,0,0-.09-.22.41.41,0,0,0-.3-.09h-.74v.9l-.13,0-.14,0V73.43h1a1.22,1.22,0,0,1,.37,0,.48.48,0,0,1,.23.13A.54.54,0,0,1,57,74a.64.64,0,0,1-.09.34.58.58,0,0,1-.26.21v0a.32.32,0,0,1,.18.12.57.57,0,0,1,.1.29l0,.36c0,.1,0,.15.12.15h0A.07.07,0,0,1,57.16,75.55Zm-.42-1.5a.36.36,0,0,0-.1-.27.63.63,0,0,0-.43-.13h-.66v.85h.71a.46.46,0,0,0,.29-.08A.41.41,0,0,0,56.74,74.05Z"/><path class="cls-1" d="M64.43,75.39a.16.16,0,0,1,0,.12.12.12,0,0,1,0,.11H62.94V73.43H64.4a.16.16,0,0,1,0,.12.12.12,0,0,1,0,.11H63.2v.74h1.14a.15.15,0,0,1,0,.11.14.14,0,0,1,0,.11H63.2v.77Z"/><path class="cls-1" d="M69,73.46v2.13a.26.26,0,0,1-.14,0,.37.37,0,0,1-.15,0l-1.22-1.81V75.6l-.12,0-.12,0V73.46a.26.26,0,0,1,.14,0,.4.4,0,0,1,.15,0l1.22,1.81V73.46a.26.26,0,0,1,.24,0Z"/><path class="cls-1" d="M72,75.38a1.24,1.24,0,0,1-.28-.88,1.2,1.2,0,0,1,.26-.85.93.93,0,0,1,.73-.29.94.94,0,0,1,.65.22.86.86,0,0,1,.26.54.31.31,0,0,1-.13,0l-.13,0a.61.61,0,0,0-.2-.38.65.65,0,0,0-.43-.14.71.71,0,0,0-.52.19,1,1,0,0,0-.21.71c0,.68.33.91.74.91a.59.59,0,0,0,.62-.59.32.32,0,0,1,.14,0,.25.25,0,0,1,.12,0,.89.89,0,0,1-.27.62.92.92,0,0,1-.63.21A1,1,0,0,1,72,75.38Z"/><path class="cls-1" d="M78.24,75.55a.07.07,0,0,1,0,0,.66.66,0,0,1-.21,0,.19.19,0,0,1-.22-.18l0-.44a.34.34,0,0,0-.09-.22.37.37,0,0,0-.29-.09h-.75v.9l-.13,0-.13,0V73.43h1a1.15,1.15,0,0,1,.36,0,.51.51,0,0,1,.24.13.54.54,0,0,1,.15.4.57.57,0,0,1-.1.34.53.53,0,0,1-.26.21v0a.35.35,0,0,1,.19.12A.5.5,0,0,1,78,75l0,.36c0,.1,0,.15.13.15h0A.07.07,0,0,1,78.24,75.55Zm-.42-1.5a.37.37,0,0,0-.11-.27.59.59,0,0,0-.43-.13h-.66v.85h.72a.43.43,0,0,0,.28-.08A.41.41,0,0,0,77.82,74.05Z"/><path class="cls-1" d="M82.4,73.46l-.81,1.32v.82a.36.36,0,0,1-.25,0v-.82l-.81-1.32.16,0,.15,0,.64,1.1.64-1.1.14,0Z"/><path class="cls-1" d="M86.62,74.12a.64.64,0,0,1-.24.53,1,1,0,0,1-.63.17h-.49v.78l-.13,0-.14,0V73.43h.76a1,1,0,0,1,.66.19A.63.63,0,0,1,86.62,74.12Zm-.27,0a.42.42,0,0,0-.13-.33.62.62,0,0,0-.46-.15h-.5v1h.5a.64.64,0,0,0,.45-.14A.43.43,0,0,0,86.35,74.13Z"/><path class="cls-1" d="M90.85,73.66h-.73V75.6l-.13,0-.13,0V73.66h-.73a.15.15,0,0,1,0-.11.16.16,0,0,1,0-.12h1.72a.16.16,0,0,1,0,.12A.15.15,0,0,1,90.85,73.66Z"/><path class="cls-1" d="M95,75.39a.16.16,0,0,1,0,.12.12.12,0,0,1,0,.11H93.51V73.43H95a.16.16,0,0,1,0,.12.12.12,0,0,1,0,.11H93.78v.74h1.13a.15.15,0,0,1,0,.11.14.14,0,0,1,0,.11H93.78v.77Z"/><path class="cls-1" d="M99.61,74.53a1,1,0,0,1-.5,1,1.07,1.07,0,0,1-.27.09,2.06,2.06,0,0,1-.39,0h-.66V73.43h.66a1.74,1.74,0,0,1,.43,0,.74.74,0,0,1,.29.12A1,1,0,0,1,99.61,74.53Zm-.28,0a.83.83,0,0,0-.28-.72.84.84,0,0,0-.57-.16h-.42V75.4h.42a.84.84,0,0,0,.55-.15A.81.81,0,0,0,99.33,74.53Z"/><path class="cls-1" d="M107.13,73.46v2.13a.23.23,0,0,1-.13,0,.45.45,0,0,1-.16,0l-1.21-1.81V75.6l-.12,0-.12,0V73.46a.25.25,0,0,1,.13,0,.41.41,0,0,1,.16,0l1.22,1.81V73.46a.27.27,0,0,1,.12,0A.2.2,0,0,1,107.13,73.46Z"/><path class="cls-1" d="M110.13,75.36a1.43,1.43,0,0,1,0-1.67,1,1,0,0,1,1.46,0,1.47,1.47,0,0,1,0,1.67,1,1,0,0,1-1.46,0Zm1.26-.17a1,1,0,0,0,.19-.66,1,1,0,0,0-.19-.67.62.62,0,0,0-.53-.25.63.63,0,0,0-.53.25,1,1,0,0,0-.2.67,1,1,0,0,0,.2.66.63.63,0,0,0,.53.25A.62.62,0,0,0,111.39,75.19Z"/><path class="cls-1" d="M116,73.66h-.73V75.6l-.14,0-.13,0V73.66h-.73a.15.15,0,0,1,0-.11.16.16,0,0,1,0-.12H116a.21.21,0,0,1,0,.12A.21.21,0,0,1,116,73.66Z"/><path class="cls-1" d="M120.13,75.39a.21.21,0,0,1,0,.12.16.16,0,0,1,0,.11h-1.5V73.43h1.47a.21.21,0,0,1,0,.12.16.16,0,0,1,0,.11h-1.2v.74H120a.15.15,0,0,1,0,.11.14.14,0,0,1,0,.11H118.9v.77Z"/><path class="cls-1" d="M123,75.49a.59.59,0,0,1-.22-.49l.13,0,.12,0a.33.33,0,0,0,.14.31.7.7,0,0,0,.47.12.66.66,0,0,0,.47-.12.33.33,0,0,0,.13-.28.28.28,0,0,0-.11-.24.84.84,0,0,0-.34-.14l-.33-.07a.86.86,0,0,1-.42-.19.47.47,0,0,1-.16-.39.53.53,0,0,1,.2-.44.85.85,0,0,1,.59-.17,1,1,0,0,1,.6.15.49.49,0,0,1,.2.39V74a.2.2,0,0,1-.11,0l-.13,0v0a.31.31,0,0,0-.14-.25.63.63,0,0,0-.39-.1.66.66,0,0,0-.44.11.32.32,0,0,0-.13.27c0,.19.12.3.39.36l.39.09a1,1,0,0,1,.45.21.52.52,0,0,1,.14.38.59.59,0,0,1-.21.47,1,1,0,0,1-.64.17A1.09,1.09,0,0,1,123,75.49Z"/><path class="cls-1" d="M127.28,75.59v-.26a.35.35,0,0,1,.16,0,.33.33,0,0,1,.15,0v.26a.35.35,0,0,1-.16,0A.33.33,0,0,1,127.28,75.59Zm0-.73,0-1.54.15,0,.15,0,0,1.54a.2.2,0,0,1-.11,0A.18.18,0,0,1,127.33,74.86Z"/><path class="cls-1" d="M21.16,51.25a.39.39,0,0,1-.3-.2.77.77,0,0,1-.05-.42.68.68,0,0,1,.18-.4.35.35,0,0,1,.33-.1.38.38,0,0,1,.3.19.72.72,0,0,1,.05.43.78.78,0,0,1-.17.4A.4.4,0,0,1,21.16,51.25Zm.25-.2a.63.63,0,0,0,.12-.32.62.62,0,0,0,0-.34.28.28,0,0,0-.2-.15.27.27,0,0,0-.24.09.59.59,0,0,0-.12.31A.64.64,0,0,0,21,51a.26.26,0,0,0,.2.15A.25.25,0,0,0,21.41,51.05Z"/><path class="cls-1" d="M22.32,50.33l-.21,1.06H22l-.07,0,.16-.77-.12,0-.14,0h0v-.05s0,0,0,0h0a.35.35,0,0,0,.21,0,.26.26,0,0,0,.13-.18h.11Z"/><path class="cls-1" d="M22.73,51.56a.38.38,0,0,1-.28-.22.78.78,0,0,1,0-.43.72.72,0,0,1,.21-.38.36.36,0,0,1,.35-.06.38.38,0,0,1,.27.22.63.63,0,0,1,0,.43.64.64,0,0,1-.21.38A.4.4,0,0,1,22.73,51.56Zm.27-.17a.53.53,0,0,0,.15-.3.57.57,0,0,0,0-.34.26.26,0,0,0-.42-.11.6.6,0,0,0-.16.3.57.57,0,0,0,0,.34.24.24,0,0,0,.19.17A.26.26,0,0,0,23,51.39Z"/><path class="cls-1" d="M24,50.79l-.32,1s0,0-.07,0l-.06,0,.24-.74h-.13a.31.31,0,0,1-.13,0h0a.08.08,0,0,1,0,0,.05.05,0,0,1,0,0h0a.37.37,0,0,0,.21,0,.26.26,0,0,0,.15-.16h.05Z"/><path class="cls-1" d="M24.25,52.05A.41.41,0,0,1,24,51.8a.71.71,0,0,1,.05-.44A.64.64,0,0,1,24.3,51a.43.43,0,0,1,.6.23.68.68,0,0,1,0,.43.65.65,0,0,1-.25.35A.39.39,0,0,1,24.25,52.05Zm.29-.14a.66.66,0,0,0,.19-.29.61.61,0,0,0,0-.34.27.27,0,0,0-.41-.15.62.62,0,0,0-.19.28.54.54,0,0,0,0,.34.24.24,0,0,0,.16.19A.28.28,0,0,0,24.54,51.91Z"/><path class="cls-1" d="M25.58,51.41l-.44,1h-.06l-.06,0,.32-.72h-.13l-.13,0h0s0,0,0,0l0,0h0a.42.42,0,0,0,.21,0c.07,0,.12-.06.16-.15l.06,0Z"/><path class="cls-1" d="M25.7,52.7a.41.41,0,0,1-.22-.28.65.65,0,0,1,.1-.42.66.66,0,0,1,.29-.32.4.4,0,0,1,.35,0,.36.36,0,0,1,.21.28.7.7,0,0,1-.09.42.68.68,0,0,1-.29.31A.36.36,0,0,1,25.7,52.7Zm.3-.11a.59.59,0,0,0,.22-.26A.62.62,0,0,0,26.3,52a.25.25,0,0,0-.13-.2.28.28,0,0,0-.25,0,.6.6,0,0,0-.23.26.66.66,0,0,0-.08.33.26.26,0,0,0,.39.2Z"/><path class="cls-1" d="M27.1,52.22l-.54.93-.07,0,0,0,.4-.68a.27.27,0,0,1-.12,0,.31.31,0,0,1-.13-.06h0a.06.06,0,0,1,0,0l0,0h0a.45.45,0,0,0,.21.06.26.26,0,0,0,.17-.13l.06,0Z"/><path class="cls-1" d="M27.08,53.51a.38.38,0,0,1-.18-.3.78.78,0,0,1,.46-.69.35.35,0,0,1,.34,0,.39.39,0,0,1,.19.3.67.67,0,0,1-.14.41.68.68,0,0,1-.32.28A.37.37,0,0,1,27.08,53.51Zm.31-.07a.63.63,0,0,0,.25-.24.58.58,0,0,0,.12-.32.24.24,0,0,0-.12-.21.25.25,0,0,0-.25,0,.68.68,0,0,0-.24.24.58.58,0,0,0-.12.32.26.26,0,0,0,.12.22A.23.23,0,0,0,27.39,53.44Z"/><path class="cls-1" d="M28.52,53.18l-.64.86a.09.09,0,0,1-.06,0l-.05,0,.46-.62-.11,0L28,53.22h0s0,0,0,0l0,0h0a.35.35,0,0,0,.2.07.24.24,0,0,0,.18-.1l.06,0Z"/><path class="cls-1" d="M28.36,54.47a.36.36,0,0,1-.15-.32.72.72,0,0,1,.18-.39.66.66,0,0,1,.36-.25.37.37,0,0,1,.34.09.36.36,0,0,1,.15.32.68.68,0,0,1-.18.39.72.72,0,0,1-.36.25A.37.37,0,0,1,28.36,54.47Zm.32,0a.5.5,0,0,0,.27-.21.55.55,0,0,0,.16-.3.25.25,0,0,0-.09-.23.26.26,0,0,0-.25,0,.53.53,0,0,0-.27.2.58.58,0,0,0-.16.31.24.24,0,0,0,.1.23A.23.23,0,0,0,28.68,54.43Z"/><path class="cls-1" d="M29.83,54.3l-.74.79-.06,0L29,55l.54-.57a.27.27,0,0,1-.11-.05l-.11-.09,0,0,0,0,0,0h0a.44.44,0,0,0,.19.1.25.25,0,0,0,.2-.08.05.05,0,0,1,.05,0Z"/><path class="cls-1" d="M29.53,55.56a.37.37,0,0,1-.12-.33.73.73,0,0,1,.23-.37.65.65,0,0,1,.37-.2.37.37,0,0,1,.33.13.38.38,0,0,1,.11.33.64.64,0,0,1-.22.36.7.7,0,0,1-.38.21A.37.37,0,0,1,29.53,55.56Zm.31,0a.7.7,0,0,0,.3-.18.56.56,0,0,0,.18-.28.24.24,0,0,0-.06-.23.25.25,0,0,0-.24-.08.53.53,0,0,0-.29.17.56.56,0,0,0-.19.28.23.23,0,0,0,.07.24A.23.23,0,0,0,29.84,55.56Z"/><path class="cls-1" d="M31,55.56l-.81.7-.06,0a.21.21,0,0,1,0-.07l.59-.5a.26.26,0,0,1-.1-.07l-.1-.09,0,0s0,0,0,0l0,0h0a.43.43,0,0,0,.18.12.31.31,0,0,0,.21-.06s0,0,0,0A.05.05,0,0,1,31,55.56Z"/><path class="cls-1" d="M30.56,56.77a.36.36,0,0,1-.07-.34.81.81,0,0,1,.66-.5.38.38,0,0,1,.31.16.36.36,0,0,1,.07.34.66.66,0,0,1-.26.34.76.76,0,0,1-.4.17A.4.4,0,0,1,30.56,56.77Zm.32,0a.67.67,0,0,0,.31-.15.65.65,0,0,0,.22-.26.26.26,0,0,0,0-.24.26.26,0,0,0-.23-.1.53.53,0,0,0-.31.14.58.58,0,0,0-.22.26.28.28,0,0,0,0,.25A.29.29,0,0,0,30.88,56.81Z"/><path class="cls-1" d="M32,56.93l-.88.6a.07.07,0,0,1,0,0,.11.11,0,0,1,0-.07l.64-.44a.46.46,0,0,1-.1-.07.76.76,0,0,1-.08-.11l0,0,0,0,0,0h0a.35.35,0,0,0,.16.14.24.24,0,0,0,.21,0,.08.08,0,0,1,0,0S32,56.92,32,56.93Z"/><path class="cls-1" d="M31.47,58.09a.34.34,0,0,1,0-.35.65.65,0,0,1,.29-.31.68.68,0,0,1,.42-.12.38.38,0,0,1,.29.19.37.37,0,0,1,0,.35.64.64,0,0,1-.3.32.7.7,0,0,1-.41.12A.37.37,0,0,1,31.47,58.09Zm.31.07a.68.68,0,0,0,.32-.11.58.58,0,0,0,.25-.24.23.23,0,0,0,0-.24.23.23,0,0,0-.21-.13.59.59,0,0,0-.33.1.68.68,0,0,0-.24.24.27.27,0,0,0,0,.26A.24.24,0,0,0,31.78,58.16Z"/><path class="cls-1" d="M32.9,58.41l-.95.5,0,0a.25.25,0,0,1,0-.07l.69-.37a.32.32,0,0,1-.09-.08.75.75,0,0,1-.07-.12l0,0s0,0,0,0h.05a.34.34,0,0,0,.14.15.25.25,0,0,0,.22,0l0,0A.07.07,0,0,1,32.9,58.41Z"/><path class="cls-1" d="M32.21,59.5a.36.36,0,0,1,0-.35.66.66,0,0,1,.33-.27A.72.72,0,0,1,33,58.8a.39.39,0,0,1,.26.23.36.36,0,0,1,0,.35.63.63,0,0,1-.33.28.67.67,0,0,1-.42.07A.39.39,0,0,1,32.21,59.5Zm.3.1a.59.59,0,0,0,.34-.07.57.57,0,0,0,.26-.2.25.25,0,0,0,0-.25.24.24,0,0,0-.2-.15.55.55,0,0,0-.33.07.61.61,0,0,0-.27.21.25.25,0,0,0,.18.39Z"/><path class="cls-1" d="M33.6,60l-1,.39a.1.1,0,0,1,0,0,.2.2,0,0,1,0-.07l.72-.29a.35.35,0,0,1-.07-.09l-.07-.13v0l0,0h0a.39.39,0,0,0,.13.17.29.29,0,0,0,.21,0l0,0A.11.11,0,0,1,33.6,60Z"/><path class="cls-1" d="M32.8,61a.36.36,0,0,1,0-.35.81.81,0,0,1,.79-.26.4.4,0,0,1,.24.25.38.38,0,0,1,0,.35.71.71,0,0,1-.36.24.65.65,0,0,1-.43,0A.36.36,0,0,1,32.8,61Zm.29.13a.53.53,0,0,0,.34,0,.62.62,0,0,0,.29-.17.28.28,0,0,0,0-.25.24.24,0,0,0-.18-.17.74.74,0,0,0-.63.21.23.23,0,0,0,0,.24A.23.23,0,0,0,33.09,61.12Z"/><path class="cls-1" d="M34.14,61.62l-1,.28a.09.09,0,0,1,0-.06.2.2,0,0,1,0-.07l.76-.21a.26.26,0,0,1-.07-.1,1.12,1.12,0,0,1,0-.13v0l0,0h.05a.35.35,0,0,0,.11.18.23.23,0,0,0,.22,0s0,0,0,.05S34.14,61.6,34.14,61.62Z"/><path class="cls-1" d="M33.22,62.53a.39.39,0,0,1,.07-.35.75.75,0,0,1,.39-.19.67.67,0,0,1,.43,0,.39.39,0,0,1,.21.28.42.42,0,0,1-.07.35.71.71,0,0,1-.39.19.67.67,0,0,1-.43,0A.39.39,0,0,1,33.22,62.53Zm.27.16a.55.55,0,0,0,.34,0,.64.64,0,0,0,.31-.14.24.24,0,0,0,.07-.24.23.23,0,0,0-.16-.19.55.55,0,0,0-.34,0,.64.64,0,0,0-.31.14.25.25,0,0,0-.07.25A.23.23,0,0,0,33.49,62.69Z"/><path class="cls-1" d="M34.48,63.3l-1.07.16a.08.08,0,0,1,0-.06v-.07l.78-.12-.06-.11a.35.35,0,0,1,0-.14v0h0s0,0,0,0h0a.34.34,0,0,0,.09.2.25.25,0,0,0,.21,0,4399262592890.79,4399262592890.79,0,0,0,0,.12Z"/><path class="cls-1" d="M33.46,64.11a.38.38,0,0,1,.12-.33.64.64,0,0,1,.4-.16.69.69,0,0,1,.43.08.37.37,0,0,1,.18.3.41.41,0,0,1-.12.34.7.7,0,0,1-.4.15.68.68,0,0,1-.43-.08A.34.34,0,0,1,33.46,64.11Zm.25.2a.69.69,0,0,0,.34,0,.59.59,0,0,0,.33-.11.23.23,0,0,0,.09-.22.24.24,0,0,0-.13-.21.6.6,0,0,0-.34-.05.56.56,0,0,0-.33.11.25.25,0,0,0-.1.23A.28.28,0,0,0,33.71,64.31Z"/><path class="cls-1" d="M34.63,65l-1.08,0s0,0,0-.06a.15.15,0,0,1,0-.07l.78,0a.42.42,0,0,1,0-.12.78.78,0,0,1,0-.14v0h.08a.4.4,0,0,0,.07.21.23.23,0,0,0,.2.07.13.13,0,0,1,0,.06Z"/><path class="cls-1" d="M33.53,65.7a.35.35,0,0,1,.15-.31.66.66,0,0,1,.42-.11.8.8,0,0,1,.42.12.39.39,0,0,1,.14.32.39.39,0,0,1-.15.32.86.86,0,0,1-.84,0A.36.36,0,0,1,33.53,65.7Zm.23.23a.59.59,0,0,0,.33.08.62.62,0,0,0,.33-.07.24.24,0,0,0,.12-.21.23.23,0,0,0-.11-.23.57.57,0,0,0-.33-.08.54.54,0,0,0-.33.07.27.27,0,0,0-.13.22A.26.26,0,0,0,33.76,65.93Z"/><path class="cls-1" d="M34.59,66.74l-1.07-.07a.15.15,0,0,1,0-.07.19.19,0,0,1,0-.07l.78,0a1,1,0,0,1,0-.12.33.33,0,0,1,0-.14v0h.08a.31.31,0,0,0,0,.21.21.21,0,0,0,.19.1.13.13,0,0,1,0,.06S34.6,66.72,34.59,66.74Z"/><path class="cls-1" d="M33.43,67.3a.37.37,0,0,1,.18-.3.72.72,0,0,1,.43-.06.7.7,0,0,1,.4.16.4.4,0,0,1,.1.34.39.39,0,0,1-.18.3.65.65,0,0,1-.43.05.64.64,0,0,1-.4-.16A.35.35,0,0,1,33.43,67.3Zm.2.24a.63.63,0,0,0,.32.12.61.61,0,0,0,.34,0,.25.25,0,0,0,.14-.2.26.26,0,0,0-.09-.24.63.63,0,0,0-.32-.12.71.71,0,0,0-.34,0,.26.26,0,0,0,0,.43Z"/><path class="cls-1" d="M34.37,68.45l-1.06-.19a.09.09,0,0,1,0-.07.14.14,0,0,1,0-.07l.78.14a.37.37,0,0,1,0-.12.61.61,0,0,1,0-.14v0s0,0,0,0h0v0a.35.35,0,0,0,0,.21.24.24,0,0,0,.18.12v.06S34.38,68.43,34.37,68.45Z"/><path class="cls-1" d="M33.15,68.87a.36.36,0,0,1,.22-.28.68.68,0,0,1,.43,0,.72.72,0,0,1,.38.2.4.4,0,0,1,.06.34.37.37,0,0,1-.21.28.86.86,0,0,1-.81-.19A.37.37,0,0,1,33.15,68.87Zm.17.26a.6.6,0,0,0,.31.15.65.65,0,0,0,.34,0,.23.23,0,0,0,.16-.18.26.26,0,0,0-.06-.24.57.57,0,0,0-.3-.15.52.52,0,0,0-.35,0,.24.24,0,0,0-.16.18A.26.26,0,0,0,33.32,69.13Z"/><path class="cls-1" d="M34,70.1l-1-.3v-.07a.21.21,0,0,1,0-.06l.75.22a.41.41,0,0,1,0-.12l0-.14v0h0a.05.05,0,0,1,0,0h0a.37.37,0,0,0,0,.21A.25.25,0,0,0,34,70a.13.13,0,0,1,0,.06S34,70.09,34,70.1Z"/><path class="cls-1" d="M32.7,70.39a.39.39,0,0,1,.25-.25.67.67,0,0,1,.43,0,.73.73,0,0,1,.35.24.36.36,0,0,1,0,.35.4.4,0,0,1-.24.25.67.67,0,0,1-.43,0,.71.71,0,0,1-.36-.24A.42.42,0,0,1,32.7,70.39Zm.15.28a.55.55,0,0,0,.28.19.73.73,0,0,0,.34,0,.26.26,0,0,0,.18-.17.25.25,0,0,0,0-.24.59.59,0,0,0-.29-.19.61.61,0,0,0-.34,0,.26.26,0,0,0-.18.17A.23.23,0,0,0,32.85,70.67Z"/><path class="cls-1" d="M33.37,71.72l-1-.41a.25.25,0,0,1,0-.07.1.1,0,0,1,0,0l.72.3a.62.62,0,0,1,0-.13.5.5,0,0,1,0-.13v0h0l0,0v0a.42.42,0,0,0,0,.21.28.28,0,0,0,.15.16.43.43,0,0,1,0,0A.11.11,0,0,1,33.37,71.72Z"/><path class="cls-1" d="M32.08,71.87a.37.37,0,0,1,.27-.22.76.76,0,0,1,.42.08.69.69,0,0,1,.33.29.42.42,0,0,1-.28.57.76.76,0,0,1-.42-.08.74.74,0,0,1-.33-.29A.39.39,0,0,1,32.08,71.87Zm.11.3a.61.61,0,0,0,.27.21.57.57,0,0,0,.33.08.26.26,0,0,0,.19-.39.73.73,0,0,0-.26-.22.65.65,0,0,0-.34-.07.26.26,0,0,0-.19.39Z"/><path class="cls-1" d="M32.6,73.26l-.94-.53a.14.14,0,0,1,0-.06s0,0,0-.06l.69.39a.69.69,0,0,1,0-.13,1.34,1.34,0,0,1,.06-.12v0h0l0,0v0a.33.33,0,0,0,0,.2.27.27,0,0,0,.13.18.17.17,0,0,1,0,0Z"/><path class="cls-1" d="M31.31,73.26a.38.38,0,0,1,.29-.19.72.72,0,0,1,.41.13.67.67,0,0,1,.29.32.35.35,0,0,1,0,.34.41.41,0,0,1-.3.2.75.75,0,0,1-.41-.13.67.67,0,0,1-.29-.32A.38.38,0,0,1,31.31,73.26Zm.07.31a.55.55,0,0,0,.24.24.64.64,0,0,0,.33.12.27.27,0,0,0,.21-.13.23.23,0,0,0,0-.24.63.63,0,0,0-.24-.25.68.68,0,0,0-.32-.11.25.25,0,0,0-.22.13A.23.23,0,0,0,31.38,73.57Z"/><path class="cls-1" d="M31.66,74.7l-.87-.62a.19.19,0,0,1,0-.07l.05,0,.64.45a.41.41,0,0,1,0-.12.75.75,0,0,1,.07-.12l0,0,0,0,0,0h0a.4.4,0,0,0-.08.2.29.29,0,0,0,.11.19s0,0,0,0Z"/><path class="cls-1" d="M30.38,74.57a.35.35,0,0,1,.31-.16.68.68,0,0,1,.4.17.66.66,0,0,1,.25.35.42.42,0,0,1-.4.5.62.62,0,0,1-.39-.18.66.66,0,0,1-.26-.34A.36.36,0,0,1,30.38,74.57Zm0,.31a.62.62,0,0,0,.21.27.67.67,0,0,0,.31.15.26.26,0,0,0,.23-.1.25.25,0,0,0,0-.25.52.52,0,0,0-.21-.26.59.59,0,0,0-.31-.15.24.24,0,0,0-.23.1A.23.23,0,0,0,30.42,74.88Z"/><path class="cls-1" d="M30.58,76l-.8-.72a.09.09,0,0,1,0-.06l.06,0,.58.52.05-.11.09-.11v0a.05.05,0,0,1,0,0s0,0,0,0h0a.32.32,0,0,0-.09.2.22.22,0,0,0,.09.19.1.1,0,0,1,0,0S30.59,76,30.58,76Z"/><path class="cls-1" d="M29.31,75.75a.39.39,0,0,1,.33-.12.69.69,0,0,1,.38.22.7.7,0,0,1,.22.37.4.4,0,0,1-.13.33.39.39,0,0,1-.33.13.7.7,0,0,1-.37-.22.69.69,0,0,1-.22-.38A.43.43,0,0,1,29.31,75.75Zm0,.32a.58.58,0,0,0,.19.29.6.6,0,0,0,.28.18.24.24,0,0,0,.24-.07.27.27,0,0,0,.08-.24.8.8,0,0,0-.48-.47.25.25,0,0,0-.24.08A.24.24,0,0,0,29.32,76.07Z"/><path class="cls-1" d="M29.35,77.23l-.72-.79,0-.06a.09.09,0,0,1,.06,0l.52.57a.37.37,0,0,1,.06-.1l.1-.11h0l0,0s0,0,0,0h0a.38.38,0,0,0-.12.18.25.25,0,0,0,.07.2l0,0Z"/><path class="cls-1" d="M28.12,76.82a.39.39,0,0,1,.34-.08.68.68,0,0,1,.35.26.75.75,0,0,1,.18.39.37.37,0,0,1-.16.31.38.38,0,0,1-.34.09.63.63,0,0,1-.35-.26.75.75,0,0,1-.18-.39A.4.4,0,0,1,28.12,76.82Zm0,.32a.75.75,0,0,0,.42.52.23.23,0,0,0,.24,0,.24.24,0,0,0,.1-.23.5.5,0,0,0-.14-.31.62.62,0,0,0-.27-.21.25.25,0,0,0-.25,0A.29.29,0,0,0,28.09,77.14Z"/><path class="cls-1" d="M28,78.3l-.63-.88.05,0,.06,0,.46.64a.3.3,0,0,1,.07-.1.44.44,0,0,1,.11-.09l0,0,0,0a.08.08,0,0,1,0,0h0a.34.34,0,0,0-.13.17.25.25,0,0,0,0,.21s0,0,0,0Z"/><path class="cls-1" d="M26.82,77.76a.38.38,0,0,1,.35-.05.63.63,0,0,1,.32.29.67.67,0,0,1,.14.41.42.42,0,0,1-.19.3.41.41,0,0,1-.35.05.67.67,0,0,1-.32-.29.68.68,0,0,1-.13-.42A.35.35,0,0,1,26.82,77.76Zm-.06.31a.61.61,0,0,0,.12.32.63.63,0,0,0,.25.24.23.23,0,0,0,.24,0,.27.27,0,0,0,.13-.22.61.61,0,0,0-.12-.32.63.63,0,0,0-.25-.24.25.25,0,0,0-.25,0A.27.27,0,0,0,26.76,78.07Z"/><path class="cls-1" d="M26.53,79.21,26,78.27l0,0,.07,0,.38.69a.41.41,0,0,1,.09-.1l.11-.08h0l0,0s0,0,0,0h0a.53.53,0,0,0-.15.15.29.29,0,0,0,0,.22l0,0Z"/><path class="cls-1" d="M25.43,78.54a.36.36,0,0,1,.35,0,.64.64,0,0,1,.28.32.65.65,0,0,1,.08.43.37.37,0,0,1-.22.27.39.39,0,0,1-.35,0,.72.72,0,0,1-.28-.33.62.62,0,0,1-.08-.42A.35.35,0,0,1,25.43,78.54Zm-.1.3a.66.66,0,0,0,.08.33.61.61,0,0,0,.21.27.27.27,0,0,0,.25,0,.3.3,0,0,0,.15-.21.66.66,0,0,0-.08-.33.58.58,0,0,0-.22-.26.26.26,0,0,0-.39.19Z"/><path class="cls-1" d="M25,79.94l-.41-1,.05,0,.07,0,.3.72a.27.27,0,0,1,.1-.08l.12-.07h0l0,0a.06.06,0,0,1,0,0h0a.31.31,0,0,0-.16.13.25.25,0,0,0,0,.21l0,0Z"/><path class="cls-1" d="M24,79.16a.36.36,0,0,1,.35,0,.64.64,0,0,1,.24.35.74.74,0,0,1,0,.43.37.37,0,0,1-.26.24.34.34,0,0,1-.34,0,.6.6,0,0,1-.25-.35.66.66,0,0,1,0-.43A.36.36,0,0,1,24,79.16Zm-.13.29a.58.58,0,0,0,0,.33.66.66,0,0,0,.18.29.24.24,0,0,0,.24,0,.25.25,0,0,0,.17-.19.56.56,0,0,0,0-.33.59.59,0,0,0-.19-.29.25.25,0,0,0-.25,0A.26.26,0,0,0,23.83,79.45Z"/><path class="cls-1" d="M23.36,80.5l-.3-1a.09.09,0,0,1,.06,0h.07l.22.75a.26.26,0,0,1,.1-.07.35.35,0,0,1,.13-.05h0s0,0,0,0v0h0a.36.36,0,0,0-.18.12.23.23,0,0,0,0,.21l0,0Z"/><path class="cls-1" d="M14.87,80.53l.28-1h.07l.06,0-.2.76a.24.24,0,0,1,.12,0l.14,0h0a.08.08,0,0,1,0,0s0,0,0,0h0a.37.37,0,0,0-.21,0,.25.25,0,0,0-.14.17h-.06Z"/><path class="cls-1" d="M14.55,79.28a.37.37,0,0,1,.26.24.66.66,0,0,1,0,.43.65.65,0,0,1-.23.36.39.39,0,0,1-.35,0,.42.42,0,0,1-.26-.24.66.66,0,0,1,0-.43.65.65,0,0,1,.23-.36A.36.36,0,0,1,14.55,79.28Zm-.28.15a.57.57,0,0,0-.17.29.62.62,0,0,0,0,.34.26.26,0,0,0,.17.18.28.28,0,0,0,.25,0,.72.72,0,0,0,.18-.29.74.74,0,0,0,0-.35.25.25,0,0,0-.18-.18A.24.24,0,0,0,14.27,79.43Z"/><path class="cls-1" d="M13.25,80l.39-1h.07l0,0-.28.73a.24.24,0,0,1,.12,0l.14,0h0v0l0,0h0a.32.32,0,0,0-.21,0c-.06,0-.11.06-.16.15l0,0Z"/><path class="cls-1" d="M13.06,78.69a.36.36,0,0,1,.22.26.63.63,0,0,1-.07.43.77.77,0,0,1-.27.33.36.36,0,0,1-.35,0,.37.37,0,0,1-.23-.26.63.63,0,0,1,.07-.43.71.71,0,0,1,.27-.33A.38.38,0,0,1,13.06,78.69Zm-.3.12a.61.61,0,0,0-.21.27.63.63,0,0,0-.07.33.28.28,0,0,0,.15.2.25.25,0,0,0,.25,0,.61.61,0,0,0,.21-.27.63.63,0,0,0,.07-.33.28.28,0,0,0-.15-.2A.25.25,0,0,0,12.76,78.81Z"/><path class="cls-1" d="M11.68,79.24l.51-.95h.06l.06,0-.37.69.12,0,.13.06h0a.08.08,0,0,1,0,0s0,0,0,0h0a.33.33,0,0,0-.2,0c-.07,0-.12.06-.18.14l0,0Z"/><path class="cls-1" d="M11.64,78a.35.35,0,0,1,.2.28.62.62,0,0,1-.12.42.72.72,0,0,1-.3.3.4.4,0,0,1-.35,0,.37.37,0,0,1-.2-.29.7.7,0,0,1,.12-.41.59.59,0,0,1,.31-.3A.33.33,0,0,1,11.64,78Zm-.3.08a.64.64,0,0,0-.24.25.65.65,0,0,0-.1.32.24.24,0,0,0,.13.21.23.23,0,0,0,.24,0,.55.55,0,0,0,.24-.24.57.57,0,0,0,.1-.33.23.23,0,0,0-.13-.21A.23.23,0,0,0,11.34,78Z"/><path class="cls-1" d="M10.23,78.33l.6-.88a.09.09,0,0,1,.06,0,.08.08,0,0,1,0,0l-.44.64a.27.27,0,0,1,.12,0l.12.07,0,0,0,0,0,0h0a.37.37,0,0,0-.2-.07c-.07,0-.12,0-.19.12l-.05,0S10.24,78.34,10.23,78.33Z"/><path class="cls-1" d="M10.33,77.05a.4.4,0,0,1,.17.31.68.68,0,0,1-.17.4A.66.66,0,0,1,10,78a.36.36,0,0,1-.34-.08.35.35,0,0,1-.16-.3.64.64,0,0,1,.16-.4A.66.66,0,0,1,10,77,.36.36,0,0,1,10.33,77.05Zm-.31,0a.58.58,0,0,0-.26.22.53.53,0,0,0-.14.31.22.22,0,0,0,.1.22.24.24,0,0,0,.24,0,.62.62,0,0,0,.27-.21.75.75,0,0,0,.14-.31.26.26,0,0,0-.11-.23A.23.23,0,0,0,10,77.1Z"/><path class="cls-1" d="M8.87,77.28l.69-.82.06,0s0,0,0,.06l-.5.59.11,0,.12.08,0,0,0,0,0,0h0a.3.3,0,0,0-.19-.09.22.22,0,0,0-.19.09l-.05,0S8.88,77.29,8.87,77.28Z"/><path class="cls-1" d="M9.11,76a.37.37,0,0,1,.13.33.62.62,0,0,1-.21.37.67.67,0,0,1-.36.23.37.37,0,0,1-.33-.12.35.35,0,0,1-.13-.32.67.67,0,0,1,.2-.38.7.7,0,0,1,.37-.22A.38.38,0,0,1,9.11,76ZM8.8,76a.62.62,0,0,0-.29.18.64.64,0,0,0-.17.29.26.26,0,0,0,.07.24.27.27,0,0,0,.24.07.66.66,0,0,0,.29-.19.59.59,0,0,0,.17-.29A.25.25,0,0,0,9,76.09.24.24,0,0,0,8.8,76Z"/><path class="cls-1" d="M7.63,76.08l.79-.73s0,0,.05,0,0,0,0,.06L7.94,76l.11.06a.47.47,0,0,1,.1.1l0,0s0,0,0,0a.05.05,0,0,1,0,0h0a.51.51,0,0,0-.18-.11.29.29,0,0,0-.21.08s0,0,0,0Z"/><path class="cls-1" d="M8,74.85a.37.37,0,0,1,.09.34.69.69,0,0,1-.24.36.75.75,0,0,1-.39.18.42.42,0,0,1-.41-.49.62.62,0,0,1,.24-.35.62.62,0,0,1,.39-.18A.38.38,0,0,1,8,74.85Zm-.32,0a.74.74,0,0,0-.3.16.71.71,0,0,0-.21.28.28.28,0,0,0,.06.24.25.25,0,0,0,.23.09.55.55,0,0,0,.3-.16.53.53,0,0,0,.2-.27.26.26,0,0,0-.05-.25A.25.25,0,0,0,7.7,74.83Z"/><path class="cls-1" d="M6.54,74.76l.86-.65,0,0a.09.09,0,0,1,0,.06l-.62.47.1.08a.28.28,0,0,1,.09.1l0,0a.05.05,0,0,1,0,0H7a.34.34,0,0,0-.17-.13.26.26,0,0,0-.21,0s0,0,0,0Z"/><path class="cls-1" d="M7.06,73.57a.38.38,0,0,1,.06.35.63.63,0,0,1-.29.32.67.67,0,0,1-.41.14.41.41,0,0,1-.35-.53.64.64,0,0,1,.28-.32.67.67,0,0,1,.41-.14A.37.37,0,0,1,7.06,73.57Zm-.31,0a.61.61,0,0,0-.32.12.63.63,0,0,0-.24.25.26.26,0,0,0,0,.24.24.24,0,0,0,.22.12.61.61,0,0,0,.32-.12A.53.53,0,0,0,7,73.88a.25.25,0,0,0,0-.25A.27.27,0,0,0,6.75,73.52Z"/><path class="cls-1" d="M5.59,73.31l.93-.55s0,0,.05,0a.25.25,0,0,1,0,.07l-.67.4a.32.32,0,0,1,.09.08.83.83,0,0,1,.08.12l0,0,0,0H6a.36.36,0,0,0-.15-.15.3.3,0,0,0-.22,0l0,0Z"/><path class="cls-1" d="M6.25,72.2a.36.36,0,0,1,0,.35.66.66,0,0,1-.32.29.7.7,0,0,1-.42.09.35.35,0,0,1-.27-.22.37.37,0,0,1,0-.35.71.71,0,0,1,.32-.29A.7.7,0,0,1,6,72,.41.41,0,0,1,6.25,72.2Zm-.31-.09a.74.74,0,0,0-.59.3.28.28,0,0,0,0,.25.25.25,0,0,0,.2.14.62.62,0,0,0,.33-.08.59.59,0,0,0,.26-.22.25.25,0,0,0,0-.25A.26.26,0,0,0,5.94,72.11Z"/><path class="cls-1" d="M4.82,71.77l1-.44a.21.21,0,0,1,0,.06.1.1,0,0,1,0,.07l-.72.32a.38.38,0,0,1,.09.09.67.67,0,0,1,.06.12l0,0a.05.05,0,0,1,0,0h0a.4.4,0,0,0-.13-.17.28.28,0,0,0-.22,0l0,0S4.82,71.79,4.82,71.77Z"/><path class="cls-1" d="M5.59,70.74a.41.41,0,0,1,0,.36.69.69,0,0,1-.35.25.68.68,0,0,1-.43.05.38.38,0,0,1-.26-.25.39.39,0,0,1,0-.35.69.69,0,0,1,.35-.25.64.64,0,0,1,.44,0A.37.37,0,0,1,5.59,70.74Zm-.3-.12a.64.64,0,0,0-.34,0,.62.62,0,0,0-.28.19.23.23,0,0,0,0,.25.25.25,0,0,0,.19.17A.73.73,0,0,0,5.45,71a.23.23,0,0,0,0-.25A.24.24,0,0,0,5.29,70.62Z"/><path class="cls-1" d="M4.23,70.18l1-.33a.16.16,0,0,1,0,.06.13.13,0,0,1,0,.06l-.74.25a.43.43,0,0,1,.07.1l.06.13v0s0,0,0,0H4.6a.36.36,0,0,0-.12-.18.24.24,0,0,0-.21,0s0,0,0-.05A.13.13,0,0,1,4.23,70.18Z"/><path class="cls-1" d="M5.1,69.22a.36.36,0,0,1-.06.35.64.64,0,0,1-.38.21.63.63,0,0,1-.43,0A.4.4,0,0,1,4,69.51a.42.42,0,0,1,.06-.35A.64.64,0,0,1,4.45,69a.63.63,0,0,1,.43,0A.38.38,0,0,1,5.1,69.22Zm-.28-.15a.57.57,0,0,0-.34,0,.6.6,0,0,0-.3.16.25.25,0,0,0-.06.24.24.24,0,0,0,.17.18.57.57,0,0,0,.34,0,.54.54,0,0,0,.3-.16A.22.22,0,0,0,5,69.25.24.24,0,0,0,4.82,69.07Z"/><path class="cls-1" d="M3.81,68.49l1.05-.21a.14.14,0,0,1,0,.06.2.2,0,0,1,0,.07l-.77.16a.54.54,0,0,1,.06.11.65.65,0,0,1,0,.13v0l0,0h0v0a.35.35,0,0,0-.1-.19.26.26,0,0,0-.21,0s0,0,0-.06Z"/><path class="cls-1" d="M4.78,67.66a.37.37,0,0,1-.1.34.74.74,0,0,1-.39.17.71.71,0,0,1-.43,0,.43.43,0,0,1-.1-.63.65.65,0,0,1,.4-.17.65.65,0,0,1,.43.05A.34.34,0,0,1,4.78,67.66Zm-.26-.18a.6.6,0,0,0-.34,0,.63.63,0,0,0-.32.12.24.24,0,0,0-.08.24.24.24,0,0,0,.15.2.59.59,0,0,0,.34,0,.74.74,0,0,0,.32-.13.26.26,0,0,0,.08-.24A.23.23,0,0,0,4.52,67.48Z"/><path class="cls-1" d="M3.57,66.8l1.07-.1a.14.14,0,0,1,0,.07s0,0,0,.07l-.79.07a.33.33,0,0,1,0,.12.31.31,0,0,1,0,.13v0H3.87v0A.37.37,0,0,0,3.79,67a.25.25,0,0,0-.21-.07s0,0,0-.06Z"/><path class="cls-1" d="M4.64,66.06a.36.36,0,0,1-.14.32.67.67,0,0,1-.41.13.73.73,0,0,1-.42-.1.4.4,0,0,1-.16-.31.39.39,0,0,1,.14-.33.61.61,0,0,1,.41-.12.66.66,0,0,1,.42.1A.36.36,0,0,1,4.64,66.06Zm-.24-.21a.62.62,0,0,0-.33-.07.65.65,0,0,0-.33.09.22.22,0,0,0-.11.22.24.24,0,0,0,.12.22.62.62,0,0,0,.33.07.73.73,0,0,0,.34-.09.28.28,0,0,0,.11-.23A.27.27,0,0,0,4.4,65.85Z"/><path class="cls-1" d="M3.53,65.08l1.08,0a.15.15,0,0,1,0,.07s0,0,0,.07l-.79,0a.34.34,0,0,1,0,.12.66.66,0,0,1,0,.14v0H3.79v0a.3.3,0,0,0,0-.2.24.24,0,0,0-.2-.1v-.11Z"/><path class="cls-1" d="M4.67,64.46a.39.39,0,0,1-.17.31.77.77,0,0,1-.43.08.77.77,0,0,1-.41-.14.4.4,0,0,1-.12-.33.38.38,0,0,1,.17-.31A.63.63,0,0,1,4.14,64a.69.69,0,0,1,.41.14A.38.38,0,0,1,4.67,64.46Zm-.22-.24a.64.64,0,0,0-.32-.1.66.66,0,0,0-.34,0,.24.24,0,0,0-.13.21.23.23,0,0,0,.1.23.55.55,0,0,0,.32.1.57.57,0,0,0,.34,0,.28.28,0,0,0,.14-.21A.26.26,0,0,0,4.45,64.22Z"/><path class="cls-1" d="M3.68,63.37l1.06.14s0,0,0,.06a.64.64,0,0,1,0,.07L4,63.54a.5.5,0,0,1,0,.12.33.33,0,0,1,0,.14v0H3.92l0,0h0a.32.32,0,0,0,0-.21.24.24,0,0,0-.18-.11.06.06,0,0,1,0-.06A.11.11,0,0,1,3.68,63.37Z"/><path class="cls-1" d="M4.88,62.88a.4.4,0,0,1-.21.29.74.74,0,0,1-.43,0A.72.72,0,0,1,3.86,63a.37.37,0,0,1-.09-.34A.4.4,0,0,1,4,62.38a.74.74,0,0,1,.43,0,.72.72,0,0,1,.38.19A.38.38,0,0,1,4.88,62.88Zm-.19-.26a.56.56,0,0,0-.31-.13.55.55,0,0,0-.34,0,.21.21,0,0,0-.15.19.24.24,0,0,0,.07.24.64.64,0,0,0,.31.14.62.62,0,0,0,.34,0,.24.24,0,0,0,.16-.19A.25.25,0,0,0,4.69,62.62Z"/><path class="cls-1" d="M4,61.69l1,.25a.09.09,0,0,1,0,.07.06.06,0,0,1,0,.06l-.76-.18a.23.23,0,0,1,0,.12.59.59,0,0,1,0,.14v0h0l0,0v0a.47.47,0,0,0,0-.21c0-.06-.08-.1-.17-.13v-.06A.17.17,0,0,0,4,61.69Z"/><path class="cls-1" d="M5.25,61.34A.36.36,0,0,1,5,61.6a.65.65,0,0,1-.43,0,.64.64,0,0,1-.37-.23.36.36,0,0,1,0-.34.39.39,0,0,1,.24-.27.72.72,0,0,1,.43,0,.72.72,0,0,1,.37.23A.38.38,0,0,1,5.25,61.34Zm-.15-.28a.61.61,0,0,0-.3-.17.7.7,0,0,0-.34,0,.27.27,0,0,0-.18.18.26.26,0,0,0,0,.24.54.54,0,0,0,.3.17.59.59,0,0,0,.34,0,.27.27,0,0,0,.18-.18A.26.26,0,0,0,5.1,61.06Z"/><path class="cls-1" d="M4.53,60.05l1,.36a.17.17,0,0,1,0,.07.09.09,0,0,1,0,.06l-.73-.27a.62.62,0,0,1,0,.13l0,.13v0h0l0,0h0a.35.35,0,0,0,0-.22.26.26,0,0,0-.16-.15l0,0A.06.06,0,0,1,4.53,60.05Z"/><path class="cls-1" d="M5.8,59.83a.37.37,0,0,1-.26.24A.61.61,0,0,1,5.12,60a.68.68,0,0,1-.34-.26.39.39,0,0,1,0-.35A.39.39,0,0,1,5,59.15a.69.69,0,0,1,.43.06.81.81,0,0,1,.34.27A.36.36,0,0,1,5.8,59.83Zm-.12-.29a.58.58,0,0,0-.28-.2.53.53,0,0,0-.33-.06.21.21,0,0,0-.19.15.23.23,0,0,0,0,.25.6.6,0,0,0,.27.2.55.55,0,0,0,.34.06.24.24,0,0,0,.19-.15A.25.25,0,0,0,5.68,59.54Z"/><path class="cls-1" d="M5.23,58.46l1,.48a.1.1,0,0,1,0,.07l0,.06-.7-.35a.3.3,0,0,1,0,.12.5.5,0,0,1,0,.13v0h0l0,0v0a.41.41,0,0,0,0-.21c0-.06-.06-.11-.14-.16a.14.14,0,0,1,0-.06Z"/><path class="cls-1" d="M6.52,58.4a.41.41,0,0,1-.29.21.7.7,0,0,1-.41-.12.69.69,0,0,1-.31-.3.4.4,0,0,1,0-.35.37.37,0,0,1,.29-.2.66.66,0,0,1,.42.11.68.68,0,0,1,.3.31A.35.35,0,0,1,6.52,58.4Zm-.09-.3a.63.63,0,0,0-.25-.23.59.59,0,0,0-.33-.1.2.2,0,0,0-.2.13.25.25,0,0,0,0,.25.71.71,0,0,0,.25.23.71.71,0,0,0,.33.1.25.25,0,0,0,.21-.13A.25.25,0,0,0,6.43,58.1Z"/><path class="cls-1" d="M6.09,57l.91.59s0,0,0,.06l0,0-.66-.42a.35.35,0,0,1,0,.12l-.06.12,0,0,0,0,0,0h0a.45.45,0,0,0,.06-.21A.24.24,0,0,0,6,57.08s0,0,0,0Z"/><path class="cls-1" d="M7.38,57.06a.36.36,0,0,1-.3.17.74.74,0,0,1-.41-.15.69.69,0,0,1-.27-.34.36.36,0,0,1,.07-.34.4.4,0,0,1,.3-.18.66.66,0,0,1,.4.16.66.66,0,0,1,.28.33A.38.38,0,0,1,7.38,57.06Zm-.06-.32a.62.62,0,0,0-.22-.25.56.56,0,0,0-.32-.13.24.24,0,0,0-.22.1.23.23,0,0,0,0,.25.57.57,0,0,0,.22.26.6.6,0,0,0,.32.13A.24.24,0,0,0,7.29,57,.23.23,0,0,0,7.32,56.74Z"/><path class="cls-1" d="M7.13,55.61l.82.68a.09.09,0,0,1,0,.06l0,0-.61-.5a.28.28,0,0,1,0,.12l-.08.12,0,0,0,0a.05.05,0,0,1,0,0h0a.34.34,0,0,0,.08-.19.28.28,0,0,0-.1-.2l0,0S7.11,55.61,7.13,55.61Z"/><path class="cls-1" d="M8.39,55.82a.36.36,0,0,1-.32.14.73.73,0,0,1-.39-.2.66.66,0,0,1-.23-.37.43.43,0,0,1,.43-.47.7.7,0,0,1,.39.2.69.69,0,0,1,.23.37A.36.36,0,0,1,8.39,55.82Zm0-.32a.63.63,0,0,0-.19-.28.78.78,0,0,0-.3-.17.25.25,0,0,0-.23.09.24.24,0,0,0-.07.24.63.63,0,0,0,.19.28.66.66,0,0,0,.3.17.26.26,0,0,0,.24-.08A.25.25,0,0,0,8.37,55.5Z"/><path class="cls-1" d="M8.29,54.36l.75.76a.1.1,0,0,1,0,.05s0,0-.06,0l-.55-.55a.34.34,0,0,1-.05.11l-.09.11h0l0,0,0,0v0a.33.33,0,0,0,.1-.18.25.25,0,0,0-.07-.2l0,0Z"/><path class="cls-1" d="M9.53,54.7a.38.38,0,0,1-.34.11.76.76,0,0,1-.36-.24.73.73,0,0,1-.2-.39.38.38,0,0,1,.14-.32.41.41,0,0,1,.34-.11.76.76,0,0,1,.36.24.73.73,0,0,1,.2.39A.38.38,0,0,1,9.53,54.7Zm0-.32a.66.66,0,0,0-.17-.3.7.7,0,0,0-.28-.2.26.26,0,0,0-.24.06.27.27,0,0,0-.09.24.66.66,0,0,0,.17.3.61.61,0,0,0,.28.2.26.26,0,0,0,.24-.06A.27.27,0,0,0,9.54,54.38Z"/><path class="cls-1" d="M9.59,53.23l.66.84s0,0,0,0a.09.09,0,0,1-.06,0l-.48-.61a.61.61,0,0,1-.07.1l-.1.1,0,0,0,0s0,0,0,0h0a.39.39,0,0,0,.13-.17.25.25,0,0,0-.05-.21l0,0Z"/><path class="cls-1" d="M10.79,53.71a.41.41,0,0,1-.35.07.85.85,0,0,1-.48-.69.4.4,0,0,1,.18-.3.41.41,0,0,1,.35-.07.66.66,0,0,1,.33.28.77.77,0,0,1,.15.41A.4.4,0,0,1,10.79,53.71Zm.05-.31a.7.7,0,0,0-.13-.32.58.58,0,0,0-.25-.23.27.27,0,0,0-.37.25.74.74,0,0,0,.13.32.61.61,0,0,0,.26.23.28.28,0,0,0,.25,0A.27.27,0,0,0,10.84,53.4Z"/><path class="cls-1" d="M11,52.26l.57.9a.08.08,0,0,1-.05.05l-.06,0L11,52.57a.19.19,0,0,1-.08.1l-.11.08,0,0,0,0a.08.08,0,0,1,0,0h0a.42.42,0,0,0,.14-.16.28.28,0,0,0,0-.21.08.08,0,0,1,0,0Z"/><path class="cls-1" d="M12.13,52.87a.35.35,0,0,1-.34,0,.65.65,0,0,1-.3-.31.73.73,0,0,1-.11-.42.43.43,0,0,1,.56-.31.69.69,0,0,1,.3.31.65.65,0,0,1,.1.42A.33.33,0,0,1,12.13,52.87Zm.09-.3A.85.85,0,0,0,11.9,52a.28.28,0,0,0-.39.21.75.75,0,0,0,.09.33.67.67,0,0,0,.23.26.25.25,0,0,0,.25,0A.23.23,0,0,0,12.22,52.57Z"/><path class="cls-1" d="M12.53,51.44l.46,1-.06,0a.1.1,0,0,1-.07,0l-.33-.71-.09.09-.12.07h0l0,0v0h0a.46.46,0,0,0,.16-.14.25.25,0,0,0,0-.22l.05,0Z"/><path class="cls-1" d="M13.58,52.18a.39.39,0,0,1-.35,0,.71.71,0,0,1-.27-.35.62.62,0,0,1-.05-.43.39.39,0,0,1,.24-.26.36.36,0,0,1,.35,0,.68.68,0,0,1,.26.34.69.69,0,0,1,.06.43A.37.37,0,0,1,13.58,52.18Zm.11-.3a.64.64,0,0,0,0-.34.81.81,0,0,0-.2-.28.25.25,0,0,0-.25,0,.26.26,0,0,0-.16.19.78.78,0,0,0,.26.62.25.25,0,0,0,.25,0A.21.21,0,0,0,13.69,51.88Z"/><path class="cls-1" d="M14.11,50.8l.36,1-.06,0h-.07l-.26-.74a.44.44,0,0,1-.1.08l-.13,0h0l0,0v0h0a.37.37,0,0,0,.18-.13.25.25,0,0,0,0-.21l.06,0Z"/><path class="cls-1" d="M15.08,51.65a.36.36,0,0,1-.35,0,.69.69,0,0,1-.22-.37.71.71,0,0,1,0-.43.38.38,0,0,1,.26-.23.38.38,0,0,1,.35,0,.78.78,0,0,1,.23.37.71.71,0,0,1,0,.43A.37.37,0,0,1,15.08,51.65Zm.15-.28a.68.68,0,0,0,0-.34.7.7,0,0,0-.17-.3.26.26,0,0,0-.24,0,.27.27,0,0,0-.18.18.76.76,0,0,0,.19.64.26.26,0,0,0,.24,0A.27.27,0,0,0,15.23,51.37Z"/><path class="cls-1" d="M15.78,50.34l.24,1-.06,0h-.07l-.17-.76-.11.06-.14,0h0a.05.05,0,0,1,0,0s0,0,0,0h0a.31.31,0,0,0,.19-.1.23.23,0,0,0,0-.21l.06,0Z"/><path class="cls-1" d="M16.65,51.3a.4.4,0,0,1-.34-.09.68.68,0,0,1-.18-.4.67.67,0,0,1,0-.43.36.36,0,0,1,.29-.19.34.34,0,0,1,.34.09.65.65,0,0,1,.18.39.66.66,0,0,1,0,.43A.38.38,0,0,1,16.65,51.3Zm.18-.26a.77.77,0,0,0,0-.35.69.69,0,0,0-.13-.31.25.25,0,0,0-.24-.08.26.26,0,0,0-.2.15.62.62,0,0,0,0,.34.6.6,0,0,0,.13.32.25.25,0,0,0,.24.08A.28.28,0,0,0,16.83,51Z"/><path class="cls-1" d="M17.47,50.08l.12,1.06-.06,0a.16.16,0,0,1-.07,0l-.09-.78-.11.06-.14,0h0v-.08h0a.31.31,0,0,0,.19-.08.24.24,0,0,0,.07-.2l.05,0Z"/><path class="cls-1" d="M18.23,51.12a.35.35,0,0,1-.32-.13.67.67,0,0,1-.14-.41.73.73,0,0,1,.08-.42.38.38,0,0,1,.31-.17.36.36,0,0,1,.33.13.67.67,0,0,1,.14.41.73.73,0,0,1-.08.42A.41.41,0,0,1,18.23,51.12Zm.21-.25a.63.63,0,0,0,.06-.33.64.64,0,0,0-.1-.33.23.23,0,0,0-.23-.1.23.23,0,0,0-.21.13.54.54,0,0,0-.06.33.56.56,0,0,0,.1.33.26.26,0,0,0,.23.11A.26.26,0,0,0,18.44,50.87Z"/><path class="cls-1" d="M19.18,50l0,1.07-.07,0h-.06l0-.78-.12,0h-.17s0,0,0,0,0,0,0,0h0a.36.36,0,0,0,.2-.07.22.22,0,0,0,.08-.2h.12Z"/><path class="cls-1" d="M19.83,51.12a.41.41,0,0,1-.32-.17.82.82,0,0,1-.09-.42.67.67,0,0,1,.14-.41.35.35,0,0,1,.32-.13.4.4,0,0,1,.32.16.66.66,0,0,1,.09.42.72.72,0,0,1-.14.42A.41.41,0,0,1,19.83,51.12Zm.23-.22a.72.72,0,0,0,.09-.33.56.56,0,0,0-.06-.34.24.24,0,0,0-.21-.13.27.27,0,0,0-.23.11.65.65,0,0,0-.09.33.54.54,0,0,0,.06.33.23.23,0,0,0,.21.13A.25.25,0,0,0,20.06,50.9Z"/><path class="cls-1" d="M20.93,52.8a.35.35,0,0,1-.26-.17.59.59,0,0,1,0-.38.6.6,0,0,1,.15-.36.35.35,0,0,1,.3-.08.3.3,0,0,1,.26.17.56.56,0,0,1,.05.38.6.6,0,0,1-.16.35A.31.31,0,0,1,20.93,52.8Zm.23-.17a.65.65,0,0,0,.11-.29.47.47,0,0,0,0-.3.19.19,0,0,0-.17-.13.2.2,0,0,0-.21.07.45.45,0,0,0-.11.28.52.52,0,0,0,0,.31.24.24,0,0,0,.18.13A.24.24,0,0,0,21.16,52.63Z"/><path class="cls-1" d="M22,52l-.19.93h-.06l-.06,0,.14-.68h-.26v0s0,0,0,0h0a.29.29,0,0,0,.19,0s.08-.07.11-.15h.05Z"/><path class="cls-1" d="M22.33,53.08a.33.33,0,0,1-.24-.2.55.55,0,0,1,0-.38.64.64,0,0,1,.18-.34.31.31,0,0,1,.31,0,.35.35,0,0,1,.25.19.64.64,0,0,1,0,.39.56.56,0,0,1-.19.33A.34.34,0,0,1,22.33,53.08Zm.24-.15a.57.57,0,0,0,.14-.27.55.55,0,0,0,0-.31.26.26,0,0,0-.16-.15.23.23,0,0,0-.22.06.49.49,0,0,0-.14.27.62.62,0,0,0,0,.3.23.23,0,0,0,.17.15A.23.23,0,0,0,22.57,52.93Z"/><path class="cls-1" d="M23.44,52.39l-.29.91h-.06l-.05,0,.21-.66h-.11l-.12,0h0a0,0,0,0,1,0,0,.05.05,0,0,1,0,0h0a.3.3,0,0,0,.19,0,.26.26,0,0,0,.13-.14h0A.05.05,0,0,1,23.44,52.39Z"/><path class="cls-1" d="M23.69,53.51a.32.32,0,0,1-.22-.22.61.61,0,0,1,0-.39.58.58,0,0,1,.22-.31.39.39,0,0,1,.54.2.69.69,0,0,1,0,.39.65.65,0,0,1-.23.31A.31.31,0,0,1,23.69,53.51Zm.26-.12a.58.58,0,0,0,.16-.26.59.59,0,0,0,.05-.3.22.22,0,0,0-.15-.16.24.24,0,0,0-.22,0,.51.51,0,0,0-.17.26.48.48,0,0,0,0,.3.23.23,0,0,0,.15.17A.22.22,0,0,0,24,53.39Z"/><path class="cls-1" d="M24.88,52.94l-.39.88h-.06a.1.1,0,0,1-.05,0l.28-.64a.22.22,0,0,1-.11,0l-.12,0h0v0l0,0h0a.26.26,0,0,0,.19,0,.22.22,0,0,0,.14-.13l0,0Z"/><path class="cls-1" d="M25,54.09a.33.33,0,0,1-.19-.24.62.62,0,0,1,.08-.38.6.6,0,0,1,.26-.28.34.34,0,0,1,.31,0,.32.32,0,0,1,.19.25.53.53,0,0,1-.08.37.58.58,0,0,1-.26.29A.34.34,0,0,1,25,54.09Zm.27-.09a.5.5,0,0,0,.19-.23.51.51,0,0,0,.08-.29.23.23,0,0,0-.12-.19.27.27,0,0,0-.23,0,.72.72,0,0,0-.27.52A.23.23,0,0,0,25,54,.24.24,0,0,0,25.25,54Z"/><path class="cls-1" d="M26.23,53.66l-.48.83-.06,0a.1.1,0,0,1-.05,0l.36-.6-.11,0-.11,0h0a.08.08,0,0,1,0,0s0,0,0,0h0a.38.38,0,0,0,.19,0,.32.32,0,0,0,.16-.12l0,0Z"/><path class="cls-1" d="M26.21,54.82a.35.35,0,0,1-.16-.27.55.55,0,0,1,.12-.36.63.63,0,0,1,.29-.26.35.35,0,0,1,.31,0,.33.33,0,0,1,.16.27.57.57,0,0,1-.12.36.64.64,0,0,1-.29.26A.36.36,0,0,1,26.21,54.82Zm.28-.07a.48.48,0,0,0,.22-.21.53.53,0,0,0,.11-.28.21.21,0,0,0-.11-.19.22.22,0,0,0-.22,0,.71.71,0,0,0-.22.21.55.55,0,0,0-.11.29.21.21,0,0,0,.11.19A.2.2,0,0,0,26.49,54.75Z"/><path class="cls-1" d="M27.49,54.53l-.57.76-.05,0,0-.05.41-.56-.1,0a.41.41,0,0,1-.11-.07h0l0,0,0,0h0a.29.29,0,0,0,.17.07.24.24,0,0,0,.17-.09l.05,0Z"/><path class="cls-1" d="M27.35,55.67a.33.33,0,0,1-.13-.28.58.58,0,0,1,.16-.35.65.65,0,0,1,.32-.23.34.34,0,0,1,.3.09.34.34,0,0,1,.14.28.6.6,0,0,1-.17.35.55.55,0,0,1-.31.22A.33.33,0,0,1,27.35,55.67Zm.29,0a.5.5,0,0,0,.24-.19.54.54,0,0,0,.14-.27.22.22,0,0,0-.08-.2.23.23,0,0,0-.22,0,.61.61,0,0,0-.38.46.22.22,0,0,0,.08.21A.25.25,0,0,0,27.64,55.64Z"/><path class="cls-1" d="M28.66,55.53l-.66.69-.05,0s0,0,0,0l.48-.51a.24.24,0,0,1-.1-.05l-.1-.07,0,0s0,0,0,0,0,0,0,0h0a.29.29,0,0,0,.17.09c.06,0,.11,0,.18-.07a.05.05,0,0,1,0,0S28.66,55.51,28.66,55.53Z"/><path class="cls-1" d="M28.39,56.65a.35.35,0,0,1-.1-.3.65.65,0,0,1,.2-.33.6.6,0,0,1,.34-.18.38.38,0,0,1,.29.11.35.35,0,0,1,.1.3.7.7,0,0,1-.2.33.6.6,0,0,1-.34.18A.37.37,0,0,1,28.39,56.65Zm.29,0a.51.51,0,0,0,.26-.15.55.55,0,0,0,.16-.25A.21.21,0,0,0,29,56a.18.18,0,0,0-.21-.07.51.51,0,0,0-.26.15.55.55,0,0,0-.16.25.23.23,0,0,0,.06.22A.2.2,0,0,0,28.68,56.64Z"/><path class="cls-1" d="M29.71,56.65l-.73.62-.05,0,0,0,.53-.45-.09-.06-.09-.09,0,0,0,0,0,0h0a.38.38,0,0,0,.16.11.24.24,0,0,0,.18-.06.08.08,0,0,1,0,0Z"/><path class="cls-1" d="M29.32,57.72a.3.3,0,0,1-.07-.3.62.62,0,0,1,.23-.3.61.61,0,0,1,.36-.15.38.38,0,0,1,.34.45.58.58,0,0,1-.23.3.61.61,0,0,1-.36.15A.32.32,0,0,1,29.32,57.72Zm.28,0a.55.55,0,0,0,.27-.13.57.57,0,0,0,.2-.23.22.22,0,0,0,0-.22.2.2,0,0,0-.2-.09.45.45,0,0,0-.27.12.53.53,0,0,0-.2.24.23.23,0,0,0,0,.22A.25.25,0,0,0,29.6,57.76Z"/><path class="cls-1" d="M30.62,57.87l-.78.54-.05,0,0,0,.57-.4a.24.24,0,0,1-.09-.06.61.61,0,0,1-.07-.1l0,0,0,0h0a.33.33,0,0,0,.15.12.21.21,0,0,0,.19,0l0,0S30.62,57.85,30.62,57.87Z"/><path class="cls-1" d="M30.12,58.9a.34.34,0,0,1,0-.31.68.68,0,0,1,.26-.28.65.65,0,0,1,.37-.11.39.39,0,0,1,.3.49.65.65,0,0,1-.27.28.63.63,0,0,1-.37.11A.34.34,0,0,1,30.12,58.9Zm.28.06a.56.56,0,0,0,.29-.1.5.5,0,0,0,.22-.21.24.24,0,0,0,0-.22.23.23,0,0,0-.2-.11.64.64,0,0,0-.29.09.48.48,0,0,0-.21.22.22.22,0,0,0,0,.22A.21.21,0,0,0,30.4,59Z"/><path class="cls-1" d="M31.4,59.18l-.84.45,0,0,0-.06.62-.33a.2.2,0,0,1-.08-.08A.61.61,0,0,1,31,59v0l0,0h0a.36.36,0,0,0,.13.14.24.24,0,0,0,.2,0l0,0A.06.06,0,0,1,31.4,59.18Z"/><path class="cls-1" d="M30.79,60.16a.29.29,0,0,1,0-.31.61.61,0,0,1,.29-.25.54.54,0,0,1,.38-.06.32.32,0,0,1,.24.2.34.34,0,0,1,0,.31.73.73,0,0,1-.68.31A.33.33,0,0,1,30.79,60.16Zm.26.09a.58.58,0,0,0,.3-.06.54.54,0,0,0,.24-.19.22.22,0,0,0,0-.22.24.24,0,0,0-.18-.13.61.61,0,0,0-.3.06.44.44,0,0,0-.24.19.22.22,0,0,0,0,.22A.21.21,0,0,0,31.05,60.25Z"/><path class="cls-1" d="M32,60.59l-.89.35,0-.06a.13.13,0,0,1,0-.06l.64-.25-.07-.09a.37.37,0,0,1-.05-.11v0l0,0h0a.32.32,0,0,0,.12.15.21.21,0,0,0,.19,0l0,0S32,60.57,32,60.59Z"/><path class="cls-1" d="M31.31,61.48a.34.34,0,0,1,0-.31.63.63,0,0,1,.33-.21.56.56,0,0,1,.38,0,.35.35,0,0,1,.21.23.33.33,0,0,1,0,.31.6.6,0,0,1-.32.21.59.59,0,0,1-.39,0A.33.33,0,0,1,31.31,61.48Zm.26.12a.46.46,0,0,0,.3,0,.58.58,0,0,0,.26-.16.25.25,0,0,0,0-.22.22.22,0,0,0-.16-.15.57.57,0,0,0-.31,0,.78.78,0,0,0-.26.16.22.22,0,0,0,0,.22A.2.2,0,0,0,31.57,61.6Z"/><path class="cls-1" d="M32.5,62.05l-.92.25s0,0,0-.06a.13.13,0,0,1,0-.06l.68-.18-.06-.1a.76.76,0,0,1,0-.11v0l0,0h0a.34.34,0,0,0,.09.17.3.3,0,0,0,.2,0l0,0Z"/><path class="cls-1" d="M31.68,62.86a.37.37,0,0,1,.07-.31.74.74,0,0,1,.73-.16.37.37,0,0,1,.19.26.34.34,0,0,1-.07.3.61.61,0,0,1-.34.18.7.7,0,0,1-.39,0A.35.35,0,0,1,31.68,62.86Zm.25.14a.49.49,0,0,0,.3,0,.56.56,0,0,0,.28-.13.21.21,0,0,0,.06-.21.24.24,0,0,0-.14-.17.62.62,0,0,0-.31,0,.56.56,0,0,0-.28.13.24.24,0,0,0-.06.22A.22.22,0,0,0,31.93,63Z"/><path class="cls-1" d="M32.81,63.54l-1,.15a.08.08,0,0,1,0-.06s0,0,0-.06l.69-.11a.19.19,0,0,1-.05-.1l0-.12v0l0,0h0a.34.34,0,0,0,.08.17.22.22,0,0,0,.19,0,.09.09,0,0,1,0,.05A.11.11,0,0,1,32.81,63.54Z"/><path class="cls-1" d="M31.9,64.27A.34.34,0,0,1,32,64a.66.66,0,0,1,.37-.14.62.62,0,0,1,.38.07.38.38,0,0,1,.16.27.35.35,0,0,1-.11.3.59.59,0,0,1-.36.13.56.56,0,0,1-.38-.06A.32.32,0,0,1,31.9,64.27Zm.22.17a.59.59,0,0,0,.31,0,.55.55,0,0,0,.29-.09.24.24,0,0,0,.08-.21.21.21,0,0,0-.12-.18.52.52,0,0,0-.3,0,.61.61,0,0,0-.29.1.21.21,0,0,0-.09.21A.23.23,0,0,0,32.12,64.44Z"/><path class="cls-1" d="M32.94,65.08l-1,0a.13.13,0,0,1,0-.06s0,0,0-.06l.7,0a.28.28,0,0,1,0-.11.5.5,0,0,1,0-.12v0h.08a.23.23,0,0,0,.06.18.21.21,0,0,0,.17.08.07.07,0,0,1,0,0S32.94,65.06,32.94,65.08Z"/><path class="cls-1" d="M32,65.69a.37.37,0,0,1,.14-.29.65.65,0,0,1,.37-.09.6.6,0,0,1,.37.11.37.37,0,0,1,0,.57.65.65,0,0,1-.37.09.56.56,0,0,1-.37-.11A.33.33,0,0,1,32,65.69Zm.2.2a.6.6,0,0,0,.3.07.61.61,0,0,0,.3-.06.25.25,0,0,0,.11-.19.23.23,0,0,0-.1-.2.51.51,0,0,0-.3-.08.61.61,0,0,0-.3.06.26.26,0,0,0-.11.2A.26.26,0,0,0,32.16,65.89Z"/><path class="cls-1" d="M32.91,66.61l-1-.06s0,0,0-.06,0,0,0-.06l.7,0a.81.81,0,0,1,0-.11v-.15h.07a.29.29,0,0,0,0,.19s.08.07.17.09v0A.07.07,0,0,1,32.91,66.61Z"/><path class="cls-1" d="M31.87,67.11a.38.38,0,0,1,.16-.27.68.68,0,0,1,.39,0,.6.6,0,0,1,.35.15.3.3,0,0,1,.09.29.32.32,0,0,1-.16.27.63.63,0,0,1-.38,0,.66.66,0,0,1-.36-.14A.35.35,0,0,1,31.87,67.11Zm.18.22a.52.52,0,0,0,.29.1.48.48,0,0,0,.3,0,.2.2,0,0,0,.12-.18.21.21,0,0,0-.07-.2.55.55,0,0,0-.29-.11.47.47,0,0,0-.3,0,.22.22,0,0,0-.13.18A.24.24,0,0,0,32.05,67.33Z"/><path class="cls-1" d="M32.71,68.13,31.77,68s0,0,0-.06l0-.06.69.13a.36.36,0,0,1,0-.11s0-.09,0-.13v0h.07a.28.28,0,0,0,0,.19.2.2,0,0,0,.16.11v0S32.72,68.12,32.71,68.13Z"/><path class="cls-1" d="M31.62,68.51a.35.35,0,0,1,.2-.25.6.6,0,0,1,.38,0,.64.64,0,0,1,.34.18.34.34,0,0,1,.06.31.32.32,0,0,1-.19.24A.57.57,0,0,1,32,69a.53.53,0,0,1-.33-.18A.34.34,0,0,1,31.62,68.51Zm.16.23a.57.57,0,0,0,.27.14.5.5,0,0,0,.3,0,.23.23,0,0,0,.09-.38.43.43,0,0,0-.27-.13.62.62,0,0,0-.3,0,.23.23,0,0,0-.15.17A.21.21,0,0,0,31.78,68.74Z"/><path class="cls-1" d="M32.34,69.61l-.91-.27a.06.06,0,0,1,0-.06l0,0,.67.19a.2.2,0,0,1,0-.11.5.5,0,0,1,0-.12v0h0l0,0h0a.32.32,0,0,0,0,.19.24.24,0,0,0,.15.12.07.07,0,0,1,0,0A.08.08,0,0,1,32.34,69.61Z"/><path class="cls-1" d="M31.22,69.87a.39.39,0,0,1,.22-.23.64.64,0,0,1,.38,0,.62.62,0,0,1,.32.22.34.34,0,0,1,0,.31.36.36,0,0,1-.22.23.59.59,0,0,1-.38,0,.6.6,0,0,1-.32-.21A.34.34,0,0,1,31.22,69.87Zm.13.25a.58.58,0,0,0,.26.16.57.57,0,0,0,.3,0A.24.24,0,0,0,32,70a.47.47,0,0,0-.25-.16.52.52,0,0,0-.31,0,.24.24,0,0,0-.13.37Z"/><path class="cls-1" d="M31.82,71.06l-.89-.37a.13.13,0,0,1,0-.06.1.1,0,0,1,0,0l.64.26a.45.45,0,0,1,0-.11.56.56,0,0,1,0-.12v0h0l0,0h0a.44.44,0,0,0,0,.19.24.24,0,0,0,.14.14s0,0,0,.05S31.83,71,31.82,71.06Z"/><path class="cls-1" d="M30.67,71.19a.32.32,0,0,1,.24-.2.72.72,0,0,1,.67.33.34.34,0,0,1,0,.31.34.34,0,0,1-.24.2.64.64,0,0,1-.38-.08.61.61,0,0,1-.29-.25A.34.34,0,0,1,30.67,71.19Zm.1.26a.48.48,0,0,0,.24.19.49.49,0,0,0,.29.07.22.22,0,0,0,.18-.13.22.22,0,0,0,0-.22.57.57,0,0,0-.23-.19.54.54,0,0,0-.3-.07.24.24,0,0,0-.18.13A.22.22,0,0,0,30.77,71.45Z"/><path class="cls-1" d="M31.13,72.42,30.29,72a.17.17,0,0,1,0,0,.11.11,0,0,1,0-.05l.61.34a.52.52,0,0,1,0-.11L31,72v0h0s0,0,0,0h0a.38.38,0,0,0-.05.19.27.27,0,0,0,.12.15s0,0,0,0Z"/><path class="cls-1" d="M30,72.43a.31.31,0,0,1,.26-.17.65.65,0,0,1,.37.11.68.68,0,0,1,.26.28.35.35,0,0,1,0,.31.34.34,0,0,1-.26.17A.65.65,0,0,1,30.2,73a.61.61,0,0,1-.26-.28A.32.32,0,0,1,30,72.43Zm.07.27a.54.54,0,0,0,.21.22.56.56,0,0,0,.29.1.21.21,0,0,0,.19-.11.22.22,0,0,0,0-.22.58.58,0,0,0-.22-.22.5.5,0,0,0-.28-.1.23.23,0,0,0-.2.11A.22.22,0,0,0,30.05,72.7Z"/><path class="cls-1" d="M30.29,73.71l-.77-.56a.08.08,0,0,1,0-.05l.05,0,.56.41a.76.76,0,0,1,0-.11l.06-.1v0h0l0,0h0a.29.29,0,0,0-.07.18.26.26,0,0,0,.1.17.08.08,0,0,1,0,0S30.3,73.7,30.29,73.71Z"/><path class="cls-1" d="M29.15,73.59a.31.31,0,0,1,.28-.14.56.56,0,0,1,.35.15.57.57,0,0,1,.23.31.36.36,0,0,1-.07.31.37.37,0,0,1-.28.14.7.7,0,0,1-.36-.16.56.56,0,0,1-.22-.31A.31.31,0,0,1,29.15,73.59Zm0,.28a.57.57,0,0,0,.19.24.55.55,0,0,0,.27.13.22.22,0,0,0,.21-.09.24.24,0,0,0,0-.22.62.62,0,0,0-.19-.23.49.49,0,0,0-.28-.14.25.25,0,0,0-.2.09A.22.22,0,0,0,29.19,73.87Z"/><path class="cls-1" d="M29.33,74.89l-.71-.63a.09.09,0,0,1,0-.06.1.1,0,0,1,.05,0l.52.47a.42.42,0,0,1,0-.1l.08-.1v0a.05.05,0,0,1,0,0l0,0h0a.33.33,0,0,0-.08.17c0,.06,0,.11.08.18l0,0S29.35,74.89,29.33,74.89Z"/><path class="cls-1" d="M28.2,74.65a.33.33,0,0,1,.3-.11.57.57,0,0,1,.33.19.65.65,0,0,1,.2.34.38.38,0,0,1-.11.29.36.36,0,0,1-.3.11.63.63,0,0,1-.33-.19.62.62,0,0,1-.19-.34A.32.32,0,0,1,28.2,74.65Zm0,.28a.57.57,0,0,0,.16.26.63.63,0,0,0,.26.16.21.21,0,0,0,.21-.06.22.22,0,0,0,.07-.22.55.55,0,0,0-.16-.25.53.53,0,0,0-.26-.17.26.26,0,0,0-.22.07A.21.21,0,0,0,28.21,74.93Z"/><path class="cls-1" d="M28.23,76l-.63-.7a.05.05,0,0,1,0-.05l.05,0,.47.51a.41.41,0,0,1,.05-.09l.09-.1h0l0,0,0,0h0a.32.32,0,0,0-.1.16.22.22,0,0,0,.06.18.08.08,0,0,1,0,0S28.25,76,28.23,76Z"/><path class="cls-1" d="M27.14,75.6a.33.33,0,0,1,.31-.07.6.6,0,0,1,.31.22.61.61,0,0,1,.15.36.34.34,0,0,1-.14.28.34.34,0,0,1-.3.07.54.54,0,0,1-.31-.23.58.58,0,0,1-.16-.35A.37.37,0,0,1,27.14,75.6Zm0,.28a.54.54,0,0,0,.13.28.57.57,0,0,0,.24.19.22.22,0,0,0,.21,0,.21.21,0,0,0,.09-.21.48.48,0,0,0-.13-.27.57.57,0,0,0-.24-.19.22.22,0,0,0-.22,0A.22.22,0,0,0,27.12,75.88Z"/><path class="cls-1" d="M27,76.91l-.56-.77,0,0,.06,0,.41.57a.24.24,0,0,1,.06-.09l.1-.08h0l0,0a.06.06,0,0,1,0,0h0a.49.49,0,0,0-.12.15.28.28,0,0,0,0,.19l0,0Z"/><path class="cls-1" d="M26,76.43a.37.37,0,0,1,.32,0,.61.61,0,0,1,.28.26.6.6,0,0,1,.12.37.35.35,0,0,1-.17.26.36.36,0,0,1-.31,0,.69.69,0,0,1-.29-.26.65.65,0,0,1-.11-.37A.33.33,0,0,1,26,76.43Zm-.05.28A.55.55,0,0,0,26,77a.47.47,0,0,0,.21.21.22.22,0,0,0,.22,0,.24.24,0,0,0,.11-.2.56.56,0,0,0-.1-.29.54.54,0,0,0-.22-.21.22.22,0,0,0-.22,0A.21.21,0,0,0,25.93,76.71Z"/><path class="cls-1" d="M25.73,77.73l-.47-.84a.08.08,0,0,1,0,0l.06,0,.34.61a.3.3,0,0,1,.08-.08l.1-.07,0,0,0,0a.08.08,0,0,1,0,0h0a.27.27,0,0,0-.13.13.21.21,0,0,0,0,.19.08.08,0,0,1,0,0Z"/><path class="cls-1" d="M25.3,77.41a.61.61,0,0,0-.25-.29.11.11,0,0,0-.06,0l0,0h0l-.07.06a.19.19,0,0,1,.13,0,.49.49,0,0,1,.2.24.46.46,0,0,1,.06.29.22.22,0,0,1-.13.18.22.22,0,0,1-.22,0,.54.54,0,0,1-.19-.24.58.58,0,0,1-.07-.29s0,0,0,0l-.13.1a1,1,0,0,0,.09.29.61.61,0,0,0,.25.29.34.34,0,0,0,.31,0,.37.37,0,0,0,.2-.24A.62.62,0,0,0,25.3,77.41Z"/><path class="cls-1" d="M24.59,78l0,0h0l-.1.06a.35.35,0,0,0-.09.07l-.16-.38-.1.07.25.6.05,0s0,0,.05,0a.21.21,0,0,1,0-.19.42.42,0,0,1,.14-.11h0S24.59,78,24.59,78Z"/><path class="cls-1" d="M24,78a1.17,1.17,0,0,0-.05-.11l-.1.07a.39.39,0,0,1,0,.09.54.54,0,0,1,0,.3.22.22,0,0,1-.15.16.25.25,0,0,1-.22,0,.55.55,0,0,1-.15-.24l-.1.06a.52.52,0,0,0,.19.27.35.35,0,0,0,.32,0A.32.32,0,0,0,24,78.4.65.65,0,0,0,24,78Z"/><path class="cls-1" d="M23.17,78.48h0l-.11.05-.09.06,0-.09-.11.06.1.31h0l0,0a.24.24,0,0,1,0-.19.34.34,0,0,1,.16-.1h0v0A.05.05,0,0,0,23.17,78.48Z"/><path class="cls-1" d="M15.37,78.77l0,.14h.1c0-.05,0-.08.06-.1Z"/><path class="cls-1" d="M15,78.59l0,0a.22.22,0,0,1-.22,0,.2.2,0,0,1-.15-.16.31.31,0,0,1,0-.1l-.11-.06a.37.37,0,0,0,0,.21.35.35,0,0,0,.23.21.33.33,0,0,0,.31,0,.13.13,0,0,0,.06-.07Z"/><path class="cls-1" d="M14.32,78.25l-.12,0h-.11l0-.11L14,78l-.15.37,0,0H14a.26.26,0,0,1,.13-.14.44.44,0,0,1,.19,0h0s0,0,0,0a.08.08,0,0,0,0,0Z"/><path class="cls-1" d="M13.73,77.84a.4.4,0,0,1-.18.23.22.22,0,0,1-.22,0,.19.19,0,0,1-.13-.17.59.59,0,0,1,.06-.3.16.16,0,0,1,0-.07l0,0-.06,0,0,.09a.54.54,0,0,0-.06.38.33.33,0,0,0,.2.23.31.31,0,0,0,.31,0,.71.71,0,0,0,.24-.27Z"/><path class="cls-1" d="M12.58,77l-.07-.06a.54.54,0,0,1-.09.27.47.47,0,0,1-.21.21.22.22,0,0,1-.22,0,.2.2,0,0,1-.11-.19A.5.5,0,0,1,12,76.9a.56.56,0,0,1,.21-.22l.07,0a.38.38,0,0,1-.09-.09h0a.6.6,0,0,0-.27.26.67.67,0,0,0-.11.37.32.32,0,0,0,.18.26.34.34,0,0,0,.31,0,.6.6,0,0,0,.27-.26.45.45,0,0,0,.09-.24Z"/><path class="cls-1" d="M11.83,76.23a.08.08,0,0,0,0,0h0l0,0h0l-.54.79,0,0,0,0a.26.26,0,0,1,.17-.1.38.38,0,0,1,.18.06h0l0,0s0,0,0,0l0,0-.11-.06a.23.23,0,0,0-.11,0l.39-.56Z"/><path class="cls-1" d="M11.28,75.8a.35.35,0,0,1,.15.28.61.61,0,0,1-.15.36.67.67,0,0,1-.3.23.3.3,0,0,1-.3-.07.33.33,0,0,1-.15-.27.66.66,0,0,1,.14-.36.59.59,0,0,1,.31-.23A.34.34,0,0,1,11.28,75.8Zm-.28,0a.69.69,0,0,0-.36.47.25.25,0,0,0,.09.2.25.25,0,0,0,.22,0,.61.61,0,0,0,.24-.2.45.45,0,0,0,.12-.27.21.21,0,0,0-.09-.21A.22.22,0,0,0,11,75.85Z"/><path class="cls-1" d="M10,76l.61-.73a.09.09,0,0,1,.06,0,.1.1,0,0,1,0,0l-.45.53a.26.26,0,0,1,.1,0l.1.07,0,0s0,0,0,0l0,0h0a.29.29,0,0,0-.17-.08c-.06,0-.11,0-.17.08s0,0-.05,0Z"/><path class="cls-1" d="M10.19,74.88a.34.34,0,0,1,.12.29.52.52,0,0,1-.19.33.6.6,0,0,1-.32.2.35.35,0,0,1-.3-.1.37.37,0,0,1-.11-.29A.6.6,0,0,1,9.57,75a.57.57,0,0,1,.33-.19A.3.3,0,0,1,10.19,74.88Zm-.28,0a.58.58,0,0,0-.25.17.57.57,0,0,0-.16.26.21.21,0,0,0,.07.2.26.26,0,0,0,.22.07.58.58,0,0,0,.25-.17.47.47,0,0,0,.15-.26.2.2,0,0,0-.07-.21A.21.21,0,0,0,9.91,74.89Z"/><path class="cls-1" d="M8.88,74.94l.7-.66s0,0,0,0l0,.05-.51.48.1.05.09.09,0,0,0,0,0,0h0a.28.28,0,0,0-.16-.1A.21.21,0,0,0,9,75a.08.08,0,0,1,0,0A.05.05,0,0,1,8.88,74.94Z"/><path class="cls-1" d="M9.22,73.84a.32.32,0,0,1,.08.3.53.53,0,0,1-.22.32.58.58,0,0,1-.34.17.34.34,0,0,1-.28-.14.34.34,0,0,1-.09-.3.78.78,0,0,1,.57-.48A.35.35,0,0,1,9.22,73.84Zm-.28,0a.5.5,0,0,0-.27.14.47.47,0,0,0-.18.24.22.22,0,0,0,0,.22.25.25,0,0,0,.21.08A.58.58,0,0,0,9,74.37a.47.47,0,0,0,.18-.24.22.22,0,0,0,0-.22A.2.2,0,0,0,8.94,73.83Z"/><path class="cls-1" d="M7.9,73.76l.77-.58.05,0a.14.14,0,0,1,0,.06l-.56.42.1.07.08.09v0s0,0,0,0h0a.38.38,0,0,0-.16-.11.22.22,0,0,0-.18,0l0,0Z"/><path class="cls-1" d="M8.37,72.7a.36.36,0,0,1,.05.31.64.64,0,0,1-.26.29.57.57,0,0,1-.36.12.33.33,0,0,1-.27-.16.35.35,0,0,1,0-.31.63.63,0,0,1,.26-.29.55.55,0,0,1,.36-.12A.35.35,0,0,1,8.37,72.7Zm-.28,0a.7.7,0,0,0-.29.11.71.71,0,0,0-.21.22.24.24,0,0,0,.22.33.53.53,0,0,0,.28-.11A.48.48,0,0,0,8.3,73a.2.2,0,0,0,0-.22A.21.21,0,0,0,8.09,72.65Z"/><path class="cls-1" d="M7.06,72.47,7.89,72l0,0a.17.17,0,0,1,0,0l-.6.36.08.07.07.11v0a0,0,0,0,1,0,0l0,0h0a.32.32,0,0,0-.14-.14.23.23,0,0,0-.19,0l0,0A.17.17,0,0,1,7.06,72.47Z"/><path class="cls-1" d="M7.64,71.48a.31.31,0,0,1,0,.31.6.6,0,0,1-.28.26.61.61,0,0,1-.37.08.38.38,0,0,1-.27-.5A.62.62,0,0,1,7,71.37a.63.63,0,0,1,.37-.09A.36.36,0,0,1,7.64,71.48Zm-.27-.08a.64.64,0,0,0-.3.07.58.58,0,0,0-.23.2.22.22,0,0,0,0,.22A.24.24,0,0,0,7,72a.56.56,0,0,0,.3-.08.51.51,0,0,0,.23-.2.22.22,0,0,0,0-.22A.23.23,0,0,0,7.37,71.4Z"/><path class="cls-1" d="M6.37,71.1l.88-.39a.11.11,0,0,1,0,.05.14.14,0,0,1,0,.06l-.64.28.07.08a.41.41,0,0,1,.06.11v0l0,0h0a.33.33,0,0,0-.13-.15.21.21,0,0,0-.19,0l0,0S6.37,71.11,6.37,71.1Z"/><path class="cls-1" d="M7.05,70.18a.33.33,0,0,1,0,.32.54.54,0,0,1-.31.22.6.6,0,0,1-.38,0,.38.38,0,0,1-.21-.54A.65.65,0,0,1,6.44,70a.69.69,0,0,1,.39,0A.34.34,0,0,1,7.05,70.18Zm-.26-.11a.59.59,0,0,0-.3.05.51.51,0,0,0-.26.17.25.25,0,0,0,.15.37.59.59,0,0,0,.3,0,.48.48,0,0,0,.25-.17.24.24,0,0,0,0-.23A.24.24,0,0,0,6.79,70.07Z"/><path class="cls-1" d="M5.84,69.68l.91-.3,0,.05a.2.2,0,0,1,0,.07l-.67.21a.31.31,0,0,1,.07.09.61.61,0,0,1,0,.12v0a.05.05,0,0,1,0,0,0,0,0,0,1,0,0h0a.36.36,0,0,0-.1-.15.22.22,0,0,0-.2,0l0,0A.11.11,0,0,1,5.84,69.68Z"/><path class="cls-1" d="M6.62,68.83a.34.34,0,0,1-.06.31.61.61,0,0,1-.33.18.64.64,0,0,1-.39,0,.32.32,0,0,1-.19-.24.33.33,0,0,1,0-.31A.59.59,0,0,1,6,68.58a.61.61,0,0,1,.38,0A.37.37,0,0,1,6.62,68.83Zm-.25-.14a.52.52,0,0,0-.3,0,.49.49,0,0,0-.27.14.21.21,0,0,0-.06.21.28.28,0,0,0,.15.17.66.66,0,0,0,.31,0,.57.57,0,0,0,.27-.14.22.22,0,0,0,0-.22A.2.2,0,0,0,6.37,68.69Z"/><path class="cls-1" d="M5.47,68.18,6.4,68l0,.05v.06l-.69.14.06.1a.53.53,0,0,1,0,.12v0a.05.05,0,0,1,0,0h0a.28.28,0,0,0-.09-.17.21.21,0,0,0-.18,0s0,0,0,0S5.46,68.19,5.47,68.18Z"/><path class="cls-1" d="M6.33,67.43a.35.35,0,0,1-.08.3.6.6,0,0,1-.36.15.57.57,0,0,1-.38,0,.37.37,0,0,1-.08-.56.54.54,0,0,1,.35-.15.57.57,0,0,1,.38,0A.3.3,0,0,1,6.33,67.43Zm-.23-.16a.56.56,0,0,0-.3,0,.65.65,0,0,0-.29.11.24.24,0,0,0-.07.21.21.21,0,0,0,.13.18.48.48,0,0,0,.3,0,.52.52,0,0,0,.29-.12.2.2,0,0,0,.07-.21A.19.19,0,0,0,6.1,67.27Z"/><path class="cls-1" d="M5.25,66.67l1-.09a.08.08,0,0,1,0,.06.13.13,0,0,1,0,.06l-.69.06a.66.66,0,0,1,0,.11.5.5,0,0,1,0,.12v0l0,0h0a.3.3,0,0,0-.07-.18.24.24,0,0,0-.18-.06s0,0,0,0Z"/><path class="cls-1" d="M6.21,66a.34.34,0,0,1-.12.28.65.65,0,0,1-.37.12.69.69,0,0,1-.38-.09A.37.37,0,0,1,5.2,66a.36.36,0,0,1,.12-.29.58.58,0,0,1,.37-.11.55.55,0,0,1,.38.09A.34.34,0,0,1,6.21,66ZM6,65.82a.48.48,0,0,0-.3-.06.51.51,0,0,0-.3.08.21.21,0,0,0-.1.19.26.26,0,0,0,.11.2.64.64,0,0,0,.3.06.6.6,0,0,0,.3-.08.23.23,0,0,0,.1-.2A.22.22,0,0,0,6,65.82Z"/><path class="cls-1" d="M5.22,65.13l1,0a.13.13,0,0,1,0,.06s0,.05,0,.06h-.7a.29.29,0,0,1,0,.1.62.62,0,0,1,0,.13v0H5.44a.3.3,0,0,0,0-.18.24.24,0,0,0-.18-.09.43.43,0,0,1,0,0A.11.11,0,0,0,5.22,65.13Z"/><path class="cls-1" d="M6.23,64.58a.34.34,0,0,1-.15.27.56.56,0,0,1-.38.07.59.59,0,0,1-.36-.12.38.38,0,0,1,0-.57.62.62,0,0,1,.38-.07.59.59,0,0,1,.36.12A.33.33,0,0,1,6.23,64.58ZM6,64.37a.52.52,0,0,0-.29-.09.53.53,0,0,0-.3,0,.25.25,0,0,0-.12.19.2.2,0,0,0,.09.2.48.48,0,0,0,.29.1.62.62,0,0,0,.3,0,.21.21,0,0,0,.12-.19A.2.2,0,0,0,6,64.37Z"/><path class="cls-1" d="M5.35,63.61l1,.12s0,0,0,.06a.14.14,0,0,1,0,.06l-.69-.09a.2.2,0,0,1,0,.11.24.24,0,0,1,0,.12v0H5.53a.27.27,0,0,0,0-.19c0-.05-.07-.08-.16-.1v-.05A.43.43,0,0,1,5.35,63.61Z"/><path class="cls-1" d="M6.42,63.17a.34.34,0,0,1-.18.26.7.7,0,0,1-.39,0,.6.6,0,0,1-.34-.16A.34.34,0,0,1,5.44,63a.32.32,0,0,1,.18-.25.58.58,0,0,1,.38,0,.58.58,0,0,1,.34.17A.32.32,0,0,1,6.42,63.17Zm-.17-.23A.48.48,0,0,0,6,62.82a.62.62,0,0,0-.31,0,.21.21,0,0,0-.13.17.2.2,0,0,0,.06.21.56.56,0,0,0,.28.13.49.49,0,0,0,.3,0,.2.2,0,0,0,.14-.17A.21.21,0,0,0,6.25,62.94Z"/><path class="cls-1" d="M5.65,62.11l.93.23a.18.18,0,0,1,0,.06.08.08,0,0,1,0,.05l-.68-.16a.34.34,0,0,1,0,.11.5.5,0,0,1,0,.12v0H5.78v0a.39.39,0,0,0,0-.19.2.2,0,0,0-.15-.11v-.06S5.64,62.12,5.65,62.11Z"/><path class="cls-1" d="M6.75,61.79a.33.33,0,0,1-.2.24.59.59,0,0,1-.39,0,.6.6,0,0,1-.33-.2.37.37,0,0,1,0-.31A.33.33,0,0,1,6,61.27a.55.55,0,0,1,.38,0,.58.58,0,0,1,.33.2A.31.31,0,0,1,6.75,61.79Zm-.14-.24a.51.51,0,0,0-.26-.16.64.64,0,0,0-.3,0,.23.23,0,0,0-.16.16.22.22,0,0,0,0,.22.58.58,0,0,0,.26.15.57.57,0,0,0,.31,0,.23.23,0,0,0,.16-.16A.2.2,0,0,0,6.61,61.55Z"/><path class="cls-1" d="M6.11,60.64,7,61A.13.13,0,0,1,7,61l0,.06-.66-.24a.2.2,0,0,1,0,.11l0,.12v0h0l0,0v0a.33.33,0,0,0,0-.19.26.26,0,0,0-.14-.13.09.09,0,0,1,0-.05A.08.08,0,0,1,6.11,60.64Z"/><path class="cls-1" d="M7.25,60.45a.32.32,0,0,1-.24.21.6.6,0,0,1-.38,0,.63.63,0,0,1-.3-.24.34.34,0,0,1,0-.31.32.32,0,0,1,.24-.21.6.6,0,0,1,.38,0,.76.76,0,0,1,.3.24A.37.37,0,0,1,7.25,60.45Zm-.12-.26A.47.47,0,0,0,6.89,60a.5.5,0,0,0-.3,0,.21.21,0,0,0-.17.13.21.21,0,0,0,0,.23.47.47,0,0,0,.24.18.5.5,0,0,0,.3,0,.2.2,0,0,0,.17-.14A.2.2,0,0,0,7.13,60.19Z"/><path class="cls-1" d="M6.73,59.23l.86.43a.13.13,0,0,1,0,.06l0,.05-.63-.31a.45.45,0,0,1,0,.11,1.17,1.17,0,0,1-.05.11v0h0l0,0h0a.34.34,0,0,0,0-.19.22.22,0,0,0-.12-.14.43.43,0,0,1,0,0Z"/><path class="cls-1" d="M7.88,59.18a.31.31,0,0,1-.25.18.63.63,0,0,1-.37-.1A.66.66,0,0,1,7,59a.35.35,0,0,1,0-.31.34.34,0,0,1,.26-.18.56.56,0,0,1,.37.1.58.58,0,0,1,.27.27A.35.35,0,0,1,7.88,59.18Zm-.08-.27a.5.5,0,0,0-.22-.21.64.64,0,0,0-.29-.09.24.24,0,0,0-.19.12.24.24,0,0,0,0,.22.68.68,0,0,0,.23.21.6.6,0,0,0,.29.09.26.26,0,0,0,.19-.12A.22.22,0,0,0,7.8,58.91Z"/><path class="cls-1" d="M7.5,57.92l.81.51a.14.14,0,0,1,0,.06l0,0-.59-.38a.52.52,0,0,1,0,.11l-.06.11v0l0,0,0,0h0a.3.3,0,0,0,0-.19.22.22,0,0,0-.1-.16l0,0Z"/><path class="cls-1" d="M8.65,58a.32.32,0,0,1-.27.15A.57.57,0,0,1,8,58a.64.64,0,0,1-.24-.3.3.3,0,0,1,.06-.31.32.32,0,0,1,.27-.15.57.57,0,0,1,.36.13.64.64,0,0,1,.24.3A.35.35,0,0,1,8.65,58ZM8.6,57.7a.59.59,0,0,0-.2-.23.71.71,0,0,0-.28-.12.22.22,0,0,0-.2.1.22.22,0,0,0,0,.22.53.53,0,0,0,.2.23.55.55,0,0,0,.28.12.23.23,0,0,0,.2-.1A.22.22,0,0,0,8.6,57.7Z"/><path class="cls-1" d="M8.42,56.69l.74.6a.09.09,0,0,1,0,.06l-.05,0-.53-.45a.76.76,0,0,1,0,.11l-.07.1,0,0,0,0s0,0,0,0h0a.42.42,0,0,0,.08-.17.28.28,0,0,0-.09-.18s0,0,0,0Z"/><path class="cls-1" d="M9.55,56.88a.34.34,0,0,1-.29.12.77.77,0,0,1-.55-.5.35.35,0,0,1,.1-.3.34.34,0,0,1,.29-.12.6.6,0,0,1,.34.18.56.56,0,0,1,.21.32A.32.32,0,0,1,9.55,56.88Zm0-.28a.61.61,0,0,0-.17-.26.64.64,0,0,0-.26-.15.21.21,0,0,0-.21.08.21.21,0,0,0-.06.21.53.53,0,0,0,.17.25.66.66,0,0,0,.27.16.25.25,0,0,0,.21-.08A.19.19,0,0,0,9.53,56.6Z"/><path class="cls-1" d="M9.46,55.57l.67.68,0,0a.1.1,0,0,1-.05,0l-.48-.5a.37.37,0,0,1-.06.1.24.24,0,0,1-.08.09v0l0,0a0,0,0,0,1,0,0h0a.31.31,0,0,0,.1-.17.22.22,0,0,0-.07-.17l0,0Z"/><path class="cls-1" d="M10.56,55.88a.34.34,0,0,1-.3.09.59.59,0,0,1-.32-.21.55.55,0,0,1-.17-.35.36.36,0,0,1,.42-.37.61.61,0,0,1,.33.21.64.64,0,0,1,.17.34A.32.32,0,0,1,10.56,55.88Zm0-.28a.5.5,0,0,0-.14-.27.54.54,0,0,0-.25-.18.25.25,0,0,0-.22.05.25.25,0,0,0-.08.21.62.62,0,0,0,.15.27.54.54,0,0,0,.25.18.23.23,0,0,0,.22-.06A.19.19,0,0,0,10.57,55.6Z"/><path class="cls-1" d="M10.62,54.57l.59.75,0,0s0,0-.05,0l-.43-.54a.35.35,0,0,1-.06.09l-.09.08,0,0s0,0,0,0,0,0,0,0h0a.29.29,0,0,0,.11-.15c0-.06,0-.11,0-.19s0,0,0,0Z"/><path class="cls-1" d="M11.69,55a.32.32,0,0,1-.31,0,.61.61,0,0,1-.3-.25.64.64,0,0,1-.13-.36.35.35,0,0,1,.16-.27.33.33,0,0,1,.31-.05.59.59,0,0,1,.3.24.69.69,0,0,1,.13.37A.35.35,0,0,1,11.69,55Zm0-.28a.55.55,0,0,0-.11-.29.59.59,0,0,0-.23-.2.25.25,0,0,0-.22,0,.23.23,0,0,0-.1.2.55.55,0,0,0,.11.29.59.59,0,0,0,.23.2.22.22,0,0,0,.22,0A.19.19,0,0,0,11.73,54.72Z"/><path class="cls-1" d="M11.88,53.7l.51.81-.05,0-.05,0L11.92,54a.32.32,0,0,1-.08.09l-.09.07,0,0,0,0s0,0,0,0h0a.37.37,0,0,0,.12-.14.22.22,0,0,0,0-.19l0,0Z"/><path class="cls-1" d="M12.89,54.25a.31.31,0,0,1-.31,0,.61.61,0,0,1-.27-.28.55.55,0,0,1-.09-.37.34.34,0,0,1,.19-.25.31.31,0,0,1,.31,0,.51.51,0,0,1,.26.28.63.63,0,0,1,.1.37A.34.34,0,0,1,12.89,54.25ZM13,54a.64.64,0,0,0-.28-.52.22.22,0,0,0-.22,0,.19.19,0,0,0-.12.18.64.64,0,0,0,.28.52.22.22,0,0,0,.22,0A.19.19,0,0,0,13,54Z"/><path class="cls-1" d="M13.24,53l.41.87-.05,0h-.06l-.3-.63-.08.08-.11.06h0l0,0a.08.08,0,0,1,0,0h0a.36.36,0,0,0,.14-.13.21.21,0,0,0,0-.19l0,0Z"/><path class="cls-1" d="M14.18,53.63a.33.33,0,0,1-.32,0,.65.65,0,0,1-.23-.31.59.59,0,0,1-.05-.38.32.32,0,0,1,.21-.23.31.31,0,0,1,.31,0,.56.56,0,0,1,.24.31.59.59,0,0,1,.05.38A.34.34,0,0,1,14.18,53.63Zm.1-.26a.61.61,0,0,0,0-.31.56.56,0,0,0-.18-.25.24.24,0,0,0-.22,0,.22.22,0,0,0-.14.18.5.5,0,0,0,.05.3.56.56,0,0,0,.18.25.24.24,0,0,0,.22,0A.24.24,0,0,0,14.28,53.37Z"/><path class="cls-1" d="M14.65,52.4l.32.91-.05,0h-.06l-.24-.66-.08.06-.12.06h0a.05.05,0,0,1,0,0,0,0,0,0,1,0,0h0a.3.3,0,0,0,.15-.11.24.24,0,0,0,0-.19l0,0Z"/><path class="cls-1" d="M15.52,53.16a.33.33,0,0,1-.31,0,.6.6,0,0,1-.2-.33.58.58,0,0,1,0-.39.31.31,0,0,1,.23-.2.36.36,0,0,1,.31,0,.6.6,0,0,1,.2.33.58.58,0,0,1,0,.39A.33.33,0,0,1,15.52,53.16Zm.13-.25a.64.64,0,0,0,0-.3.62.62,0,0,0-.15-.27.22.22,0,0,0-.22,0,.22.22,0,0,0-.16.15.57.57,0,0,0,0,.31.58.58,0,0,0,.15.26.22.22,0,0,0,.22,0A.25.25,0,0,0,15.65,52.91Z"/><path class="cls-1" d="M16.14,52l.21.94-.05,0h-.07l-.15-.68a.19.19,0,0,1-.09,0l-.12,0h0a.06.06,0,0,1,0,0s0,0,0,0h0a.34.34,0,0,0,.17-.09A.29.29,0,0,0,16,52l.05,0Z"/><path class="cls-1" d="M16.91,52.85a.35.35,0,0,1-.3-.08.67.67,0,0,1-.16-.36.59.59,0,0,1,0-.38.35.35,0,0,1,.26-.18.34.34,0,0,1,.31.09.6.6,0,0,1,.16.35.58.58,0,0,1,0,.38A.34.34,0,0,1,16.91,52.85Zm.16-.24a.57.57,0,0,0,0-.3A.49.49,0,0,0,17,52a.21.21,0,0,0-.21-.08.22.22,0,0,0-.17.14.49.49,0,0,0,0,.3.61.61,0,0,0,.11.29.25.25,0,0,0,.22.07A.22.22,0,0,0,17.07,52.61Z"/><path class="cls-1" d="M17.65,51.76l.11,1-.06,0h-.06L17.56,52l-.1,0-.13,0h0a.06.06,0,0,1,0,0s0,0,0,0h0a.34.34,0,0,0,.18-.07.25.25,0,0,0,.06-.19h.1Z"/><path class="cls-1" d="M18.33,52.69a.36.36,0,0,1-.3-.12.59.59,0,0,1-.12-.36.62.62,0,0,1,.08-.38.38.38,0,0,1,.57,0,.65.65,0,0,1,.12.37.62.62,0,0,1-.08.38A.34.34,0,0,1,18.33,52.69Zm.18-.22a.54.54,0,0,0,0-.3.59.59,0,0,0-.09-.3.24.24,0,0,0-.2-.09.25.25,0,0,0-.19.12.66.66,0,0,0,0,.59.24.24,0,0,0,.39,0Z"/><path class="cls-1" d="M19.17,51.68l0,1h-.12l0-.7a.23.23,0,0,1-.1,0H18.8a0,0,0,0,1,0,0s0,0,0,0h0a.3.3,0,0,0,.18-.06c.05,0,.07-.09.08-.18h.1Z"/><path class="cls-1" d="M19.75,52.68a.31.31,0,0,1-.28-.14.62.62,0,0,1-.08-.38.65.65,0,0,1,.12-.37.32.32,0,0,1,.29-.11.34.34,0,0,1,.28.14.69.69,0,0,1,.08.38.65.65,0,0,1-.12.37A.33.33,0,0,1,19.75,52.68Zm.2-.19a.59.59,0,0,0,.09-.3.67.67,0,0,0-.06-.3.22.22,0,0,0-.18-.11.26.26,0,0,0-.21.09.51.51,0,0,0-.08.3.52.52,0,0,0,0,.3.21.21,0,0,0,.19.11A.2.2,0,0,0,20,52.49Z"/><path class="cls-1" d="M24.18,54.35h0a.73.73,0,0,1-.08.09.39.39,0,0,1,.1.08l.06-.14Z"/><path class="cls-1" d="M24.72,54.6a.31.31,0,0,0-.28,0,.35.35,0,0,0-.1.08l.08.07a.12.12,0,0,1,.07-.05.17.17,0,0,1,.19,0,.17.17,0,0,1,.11.15.42.42,0,0,1-.05.23l.08.08h0a.48.48,0,0,0,.07-.33A.29.29,0,0,0,24.72,54.6Z"/><path class="cls-1" d="M25.39,55l0,0a.23.23,0,0,1-.14.11A.32.32,0,0,1,25,55h0l0,0a.06.06,0,0,0,0,0h0l.1.06h.1l-.17.28.08.09.29-.51Z"/><path class="cls-1" d="M25.9,55.29a.28.28,0,0,0-.28,0,.51.51,0,0,0-.25.22.58.58,0,0,0-.1.23l.1.14a.11.11,0,0,1,0-.05.53.53,0,0,1,.1-.26.68.68,0,0,1,.19-.19.24.24,0,0,1,.2,0,.2.2,0,0,1,.09.17.59.59,0,0,1-.29.44.21.21,0,0,1-.19,0l.08.12a.17.17,0,0,0,.14,0,.52.52,0,0,0,.26-.22.68.68,0,0,0,.11-.32A.32.32,0,0,0,25.9,55.29Z"/><path class="cls-1" d="M26.54,55.77l-.5.68-.05,0a.08.08,0,0,1,0,0l.37-.49-.09,0-.1,0,0,0,0,0,0,0h0a.29.29,0,0,0,.16.06.2.2,0,0,0,.15-.09l0,0Z"/><path class="cls-1" d="M26.42,56.79a.27.27,0,0,1-.12-.25.5.5,0,0,1,.14-.31.59.59,0,0,1,.28-.2.3.3,0,0,1,.27.07.28.28,0,0,1,.12.26.53.53,0,0,1-.14.31.52.52,0,0,1-.28.19A.27.27,0,0,1,26.42,56.79Zm.25,0a.49.49,0,0,0,.22-.16.54.54,0,0,0,.12-.24.19.19,0,0,0-.07-.18.21.21,0,0,0-.2,0,.45.45,0,0,0-.21.17.41.41,0,0,0-.13.24.19.19,0,0,0,.08.18A.19.19,0,0,0,26.67,56.76Z"/><path class="cls-1" d="M27.58,56.66l-.59.62a.18.18,0,0,1-.07-.07l.42-.45-.09,0a.27.27,0,0,1-.08-.07h0s0,0,0,0l0,0h0a.32.32,0,0,0,.15.08.25.25,0,0,0,.16-.07s0,0,0,0Z"/><path class="cls-1" d="M27.34,57.65a.26.26,0,0,1-.09-.26.55.55,0,0,1,.18-.29.5.5,0,0,1,.29-.16A.3.3,0,0,1,28,57a.28.28,0,0,1,.09.26.47.47,0,0,1-.18.29.59.59,0,0,1-.29.17A.3.3,0,0,1,27.34,57.65Zm.25,0a.5.5,0,0,0,.23-.13.56.56,0,0,0,.15-.23.2.2,0,0,0,0-.18.21.21,0,0,0-.19-.07.53.53,0,0,0-.23.14.54.54,0,0,0-.15.22.19.19,0,0,0,.06.19A.16.16,0,0,0,27.59,57.65Z"/><path class="cls-1" d="M28.51,57.66l-.65.55,0,0,0-.05.47-.4a.25.25,0,0,1-.08,0l-.08-.07v0l0,0h0a.25.25,0,0,0,.14.1.25.25,0,0,0,.17,0l0,0Z"/><path class="cls-1" d="M28.16,58.61a.27.27,0,0,1-.06-.27.5.5,0,0,1,.21-.27.55.55,0,0,1,.31-.13.29.29,0,0,1,.24.13.31.31,0,0,1,.07.27.53.53,0,0,1-.21.27.51.51,0,0,1-.32.13A.28.28,0,0,1,28.16,58.61Zm.25,0a.5.5,0,0,0,.24-.11.56.56,0,0,0,.18-.21.19.19,0,0,0,0-.19.17.17,0,0,0-.17-.08.42.42,0,0,0-.25.11.43.43,0,0,0-.17.2.18.18,0,0,0,0,.2A.21.21,0,0,0,28.41,58.64Z"/><path class="cls-1" d="M29.32,58.74l-.7.48s0,0,0,0l0,0,.51-.35a.21.21,0,0,1-.08-.06l-.07-.09h0l0,0h0a.2.2,0,0,0,.13.1.19.19,0,0,0,.17,0l0,0Z"/><path class="cls-1" d="M28.87,59.66a.35.35,0,0,1,0-.28.63.63,0,0,1,.24-.25A.54.54,0,0,1,29.4,59a.28.28,0,0,1,.23.15.32.32,0,0,1,0,.28.55.55,0,0,1-.24.24.5.5,0,0,1-.33.1A.32.32,0,0,1,28.87,59.66Zm.25.05a.54.54,0,0,0,.26-.09.49.49,0,0,0,.19-.19.19.19,0,0,0,0-.19.21.21,0,0,0-.17-.1.56.56,0,0,0-.45.27.2.2,0,0,0,0,.2A.21.21,0,0,0,29.12,59.71Z"/><path class="cls-1" d="M30,59.91l-.75.39s0,0,0,0a.11.11,0,0,1,0,0l.55-.29-.07-.07-.07-.09v0l0,0h0a.28.28,0,0,0,.12.12.21.21,0,0,0,.17,0l0,0S30,59.89,30,59.91Z"/><path class="cls-1" d="M29.46,60.77a.34.34,0,0,1,0-.28.58.58,0,0,1,.26-.22.63.63,0,0,1,.34-.05.33.33,0,0,1,.21.46.57.57,0,0,1-.26.21.55.55,0,0,1-.34.06A.31.31,0,0,1,29.46,60.77Zm.24.08A.54.54,0,0,0,30,60.8a.51.51,0,0,0,.22-.17.18.18,0,0,0,0-.19.2.2,0,0,0-.16-.12.59.59,0,0,0-.48.22.21.21,0,0,0,0,.19A.2.2,0,0,0,29.7,60.85Z"/><path class="cls-1" d="M30.56,61.15l-.78.31a.05.05,0,0,1,0-.05.09.09,0,0,1,0,0l.57-.23a.22.22,0,0,1-.06-.07L30.2,61v0l0,0s0,0,0,0h0a.34.34,0,0,0,.1.13.19.19,0,0,0,.17,0,.05.05,0,0,1,0,0A.06.06,0,0,1,30.56,61.15Z"/><path class="cls-1" d="M29.93,61.94a.26.26,0,0,1,0-.27.55.55,0,0,1,.28-.19.58.58,0,0,1,.34,0,.29.29,0,0,1,.19.21.32.32,0,0,1,0,.27.55.55,0,0,1-.28.19.61.61,0,0,1-.35,0A.28.28,0,0,1,29.93,61.94Zm.22.11a.52.52,0,0,0,.27,0,.53.53,0,0,0,.23-.14.19.19,0,0,0,0-.19.21.21,0,0,0-.15-.14.48.48,0,0,0-.26,0,.66.66,0,0,0-.24.14.24.24,0,0,0,0,.2A.19.19,0,0,0,30.15,62.05Z"/><path class="cls-1" d="M31,62.44l-.82.22a.05.05,0,0,1,0,0,.13.13,0,0,1,0-.06l.6-.16a.56.56,0,0,1-.05-.08.49.49,0,0,1,0-.11v0h.06v0a.31.31,0,0,0,.09.14.22.22,0,0,0,.17,0l0,0Z"/><path class="cls-1" d="M30.26,63.16a.26.26,0,0,1,.06-.27.48.48,0,0,1,.3-.15.54.54,0,0,1,.34,0,.3.3,0,0,1,.17.23.32.32,0,0,1-.06.27.57.57,0,0,1-.3.15.51.51,0,0,1-.35,0A.29.29,0,0,1,30.26,63.16Zm.21.13a.48.48,0,0,0,.27,0,.49.49,0,0,0,.25-.12A.17.17,0,0,0,31,63a.2.2,0,0,0-.12-.16.61.61,0,0,0-.27,0,.45.45,0,0,0-.25.11.21.21,0,0,0,0,.2A.16.16,0,0,0,30.47,63.29Z"/><path class="cls-1" d="M31.25,63.77l-.84.13s0,0,0,0a.07.07,0,0,1,0-.05l.61-.1a.33.33,0,0,1-.07-.2v0H31a.4.4,0,0,0,.07.16.22.22,0,0,0,.17,0v.09Z"/><path class="cls-1" d="M30.45,64.41a.29.29,0,0,1,.09-.26.49.49,0,0,1,.32-.12.56.56,0,0,1,.34.06.3.3,0,0,1,.14.24.29.29,0,0,1-.09.26.49.49,0,0,1-.32.12.58.58,0,0,1-.34-.06A.3.3,0,0,1,30.45,64.41Zm.2.16a.53.53,0,0,0,.27,0,.49.49,0,0,0,.25-.08.19.19,0,0,0,.08-.18.2.2,0,0,0-.11-.17.44.44,0,0,0-.27,0,.41.41,0,0,0-.25.08.21.21,0,0,0,0,.35Z"/><path class="cls-1" d="M31.37,65.13l-.85,0s0,0,0-.06a.09.09,0,0,1,0,0l.62,0a.19.19,0,0,1,0-.09.41.41,0,0,1,0-.11v0h.06a.34.34,0,0,0,.06.16.18.18,0,0,0,.16.06.11.11,0,0,0,0,0Z"/><path class="cls-1" d="M30.51,65.67a.29.29,0,0,1,.12-.25.68.68,0,0,1,.66,0,.35.35,0,0,1,.11.26.35.35,0,0,1-.12.25.55.55,0,0,1-.34.08.49.49,0,0,1-.32-.09A.28.28,0,0,1,30.51,65.67Zm.17.18a.49.49,0,0,0,.27.06.41.41,0,0,0,.26,0,.23.23,0,0,0,.1-.17.2.2,0,0,0-.09-.18.48.48,0,0,0-.26-.06.42.42,0,0,0-.27,0,.24.24,0,0,0-.1.18A.2.2,0,0,0,30.68,65.85Z"/><path class="cls-1" d="M31.35,66.49l-.85,0a.13.13,0,0,1,0-.06.43.43,0,0,1,0,0l.62,0a.3.3,0,0,1,0-.1.41.41,0,0,1,0-.11v0h.06a.27.27,0,0,0,0,.17.2.2,0,0,0,.15.08s0,0,0,0Z"/><path class="cls-1" d="M30.42,66.93a.29.29,0,0,1,.15-.23.51.51,0,0,1,.34,0,.52.52,0,0,1,.31.13.28.28,0,0,1,.08.26.3.3,0,0,1-.14.24.58.58,0,0,1-.34,0,.59.59,0,0,1-.31-.13A.32.32,0,0,1,30.42,66.93Zm.16.2a.53.53,0,0,0,.26.09.42.42,0,0,0,.26,0,.16.16,0,0,0,.11-.15.21.21,0,0,0-.06-.19.44.44,0,0,0-.26-.09.47.47,0,0,0-.27,0,.23.23,0,0,0-.11.17A.19.19,0,0,0,30.58,67.13Z"/><path class="cls-1" d="M31.17,67.84l-.84-.15v0a.08.08,0,0,1,0,0l.61.1a.22.22,0,0,1,0-.09.37.37,0,0,1,0-.11v0h0l0,0h0a.31.31,0,0,0,0,.17.21.21,0,0,0,.14.09,0,0,0,0,1,0,0S31.18,67.83,31.17,67.84Z"/><path class="cls-1" d="M30.2,68.17a.33.33,0,0,1,.18-.22.63.63,0,0,1,.34,0,.55.55,0,0,1,.29.17.28.28,0,0,1,.06.27.32.32,0,0,1-.17.22.56.56,0,0,1-.34,0,.48.48,0,0,1-.3-.16A.31.31,0,0,1,30.2,68.17Zm.14.21a.45.45,0,0,0,.24.12.41.41,0,0,0,.27,0,.2.2,0,0,0,.08-.33.39.39,0,0,0-.24-.12.41.41,0,0,0-.27,0,.2.2,0,0,0-.08.33Z"/><path class="cls-1" d="M30.84,69.15,30,68.91v0l0,0,.59.17a.27.27,0,0,1,0-.09.36.36,0,0,1,0-.11v0a0,0,0,0,1,0,0h0v0a.22.22,0,0,0,0,.16s.05.09.13.11a.09.09,0,0,1,0,0A.05.05,0,0,1,30.84,69.15Z"/><path class="cls-1" d="M29.85,69.38a.32.32,0,0,1,.19-.2.68.68,0,0,1,.62.22.3.3,0,0,1,0,.28.27.27,0,0,1-.2.19.55.55,0,0,1-.33,0,.48.48,0,0,1-.28-.2A.26.26,0,0,1,29.85,69.38Zm.11.22a.51.51,0,0,0,.23.15.54.54,0,0,0,.27,0,.21.21,0,0,0,.11-.33.47.47,0,0,0-.22-.14.45.45,0,0,0-.27,0,.22.22,0,0,0-.15.13A.21.21,0,0,0,30,69.6Z"/><path class="cls-1" d="M30.38,70.43l-.79-.32a.13.13,0,0,1,0-.06l0,0,.57.24a.34.34,0,0,1,0-.1.36.36,0,0,1,0-.11v0h0a0,0,0,0,1,0,0h0a.32.32,0,0,0,0,.16s.05.09.12.13a.06.06,0,0,1,0,0S30.38,70.42,30.38,70.43Z"/><path class="cls-1" d="M29.36,70.55a.31.31,0,0,1,.21-.18.65.65,0,0,1,.34.07.5.5,0,0,1,.25.22.33.33,0,0,1-.22.46.63.63,0,0,1-.33-.07.58.58,0,0,1-.26-.22A.31.31,0,0,1,29.36,70.55Zm.09.24a.41.41,0,0,0,.21.16.6.6,0,0,0,.26.07.21.21,0,0,0,.16-.12.2.2,0,0,0,0-.2.54.54,0,0,0-.21-.17.73.73,0,0,0-.26-.06.19.19,0,0,0-.16.12A.18.18,0,0,0,29.45,70.79Z"/><path class="cls-1" d="M29.77,71.64,29,71.23l0,0s0,0,0,0l.54.3a.2.2,0,0,1,0-.1.3.3,0,0,1,0-.1v0h0s0,0,0,0h0a.24.24,0,0,0,0,.17s0,.09.1.13,0,0,0,0S29.78,71.64,29.77,71.64Z"/><path class="cls-1" d="M28.75,71.65A.28.28,0,0,1,29,71.5a.49.49,0,0,1,.32.1.53.53,0,0,1,.23.25.27.27,0,0,1,0,.27.3.3,0,0,1-.23.16.59.59,0,0,1-.33-.11.46.46,0,0,1-.23-.25A.3.3,0,0,1,28.75,71.65Zm.06.24a.43.43,0,0,0,.19.19.48.48,0,0,0,.25.09.2.2,0,0,0,.17-.09.21.21,0,0,0,0-.2.49.49,0,0,0-.19-.19A.51.51,0,0,0,29,71.6a.21.21,0,0,0-.17.1A.19.19,0,0,0,28.81,71.89Z"/><path class="cls-1" d="M29,72.56a.26.26,0,0,1,.06-.15h0s0,0,0,0h0a.33.33,0,0,0-.06.1.19.19,0,0,0,0,.09l-.45-.32-.05,0s0,0,0,0a.17.17,0,0,0,0,.05l.07,0,.61.45,0,0s0,0,0,0A.19.19,0,0,1,29,72.56Z"/><path class="cls-1" d="M28.77,73a.48.48,0,0,0-.2-.27.5.5,0,0,0-.25-.13.3.3,0,0,1,0,.1.53.53,0,0,1,.23.11.55.55,0,0,1,.17.22.2.2,0,0,1-.05.19.19.19,0,0,1-.17.08.45.45,0,0,1-.24-.12.36.36,0,0,1-.11-.1.54.54,0,0,1-.05.11.35.35,0,0,0,.09.07.5.5,0,0,0,.31.14.3.3,0,0,0,.25-.13A.27.27,0,0,0,28.77,73Z"/><path class="cls-1" d="M28.24,73.45s0,0,0,0h0l-.07.09,0,.09-.16-.14-.06.09.32.29,0,0s0,0,0,0a.25.25,0,0,1-.07-.16.4.4,0,0,1,.07-.15Z"/><path class="cls-1" d="M27.76,73.73l-.05.09a.38.38,0,0,1,.09.18.22.22,0,0,1-.06.19.19.19,0,0,1-.19,0,.11.11,0,0,1-.07,0l-.06.1.12,0a.3.3,0,0,0,.26-.1.31.31,0,0,0,.1-.26A.48.48,0,0,0,27.76,73.73Z"/><path class="cls-1" d="M27.21,74.63a.21.21,0,0,1,0,.06l0,0,.06.06,0,0s0,0,0,0A.93.93,0,0,1,27.21,74.63Z"/><path class="cls-1" d="M9.82,73.48h0a.16.16,0,0,1-.08-.06.17.17,0,0,1,0-.19l-.06-.11a.2.2,0,0,0-.05.09.3.3,0,0,0,.08.27.28.28,0,0,0,.21.11A.54.54,0,0,1,9.82,73.48Z"/><path class="cls-1" d="M9.57,72.92a.2.2,0,0,0-.06-.07h0l-.08-.06,0,0a.76.76,0,0,1,0-.11l-.25.19a.05.05,0,0,0,0,0l0,0a.17.17,0,0,1,.17,0,.25.25,0,0,1,.14.1h0l0,0s0,0,0,0Z"/><path class="cls-1" d="M9.3,72.36a.4.4,0,0,1-.21.07.2.2,0,0,1-.18-.09.24.24,0,0,1,0-.2A.49.49,0,0,1,9.08,72l.05,0,0-.1-.08,0a.59.59,0,0,0-.23.25.32.32,0,0,0,.05.28.28.28,0,0,0,.23.14.49.49,0,0,0,.27-.07A.69.69,0,0,1,9.3,72.36Z"/><path class="cls-1" d="M8.75,71.73l-.08-.07L9,71.48l0-.11-.53.32s0,0,0,0l0,0a.21.21,0,0,1,.17,0,.34.34,0,0,1,.12.12h0l0,0v0Z"/><path class="cls-1" d="M8.85,71s0,0,0,0a.4.4,0,0,1-.2.18.46.46,0,0,1-.26.06.16.16,0,0,1-.16-.11.17.17,0,0,1,0-.19.45.45,0,0,1,.2-.18.46.46,0,0,1,.26-.06.17.17,0,0,1,.1,0,.64.64,0,0,0,0-.07v0l0,0a.5.5,0,0,0-.34.07.57.57,0,0,0-.25.23.31.31,0,0,0,0,.28.32.32,0,0,0,.21.17.58.58,0,0,0,.34-.08.49.49,0,0,0,.19-.15S8.86,71.07,8.85,71Z"/><path class="cls-1" d="M7.81,70.47l.78-.35,0,0a.11.11,0,0,1,0,0l-.57.25a.19.19,0,0,1,.07.08.41.41,0,0,1,0,.09v0s0,0,0,0h0A.37.37,0,0,0,8,70.55a.25.25,0,0,0-.17,0l0,0A.06.06,0,0,1,7.81,70.47Z"/><path class="cls-1" d="M8.42,69.66a.31.31,0,0,1,0,.28.52.52,0,0,1-.28.2.61.61,0,0,1-.34,0,.33.33,0,0,1-.2-.2.31.31,0,0,1,0-.28.53.53,0,0,1,.27-.2.64.64,0,0,1,.35,0A.31.31,0,0,1,8.42,69.66Zm-.24-.1a.57.57,0,0,0-.27,0,.47.47,0,0,0-.22.15.24.24,0,0,0,0,.2.22.22,0,0,0,.15.13.54.54,0,0,0,.27,0,.46.46,0,0,0,.23-.15.21.21,0,0,0,0-.2A.22.22,0,0,0,8.18,69.56Z"/><path class="cls-1" d="M7.34,69.21l.8-.26s0,0,0,0a.13.13,0,0,1,0,.06l-.59.19.06.08,0,.1v0l0,0a0,0,0,0,1,0,0h0a.25.25,0,0,0-.09-.13.19.19,0,0,0-.17,0,.08.08,0,0,1,0,0A.09.09,0,0,1,7.34,69.21Z"/><path class="cls-1" d="M8,68.46a.29.29,0,0,1,0,.27.54.54,0,0,1-.3.17.55.55,0,0,1-.34,0,.27.27,0,0,1-.17-.21.28.28,0,0,1,0-.27.49.49,0,0,1,.29-.17.52.52,0,0,1,.35,0A.3.3,0,0,1,8,68.46Zm-.22-.13a.5.5,0,0,0-.27,0,.46.46,0,0,0-.24.13.21.21,0,0,0,.09.33.49.49,0,0,0,.27,0,.54.54,0,0,0,.24-.13.19.19,0,0,0,0-.19A.18.18,0,0,0,7.81,68.33Z"/><path class="cls-1" d="M7,67.88l.83-.17a.08.08,0,0,1,0,.05v.06l-.61.12a.22.22,0,0,1,0,.08.26.26,0,0,1,0,.11v0l0,0h0A.31.31,0,0,0,7.19,68,.19.19,0,0,0,7,68a.08.08,0,0,1,0,0Z"/><path class="cls-1" d="M7.78,67.22a.32.32,0,0,1-.08.27.52.52,0,0,1-.31.13.51.51,0,0,1-.34,0,.26.26,0,0,1-.15-.23A.31.31,0,0,1,7,67.08.53.53,0,0,1,7.29,67a.53.53,0,0,1,.34,0A.3.3,0,0,1,7.78,67.22Zm-.21-.15a.57.57,0,0,0-.27,0,.52.52,0,0,0-.25.1.21.21,0,0,0-.07.18.2.2,0,0,0,.12.16.46.46,0,0,0,.27,0,.48.48,0,0,0,.25-.1.19.19,0,0,0,.07-.19A.21.21,0,0,0,7.57,67.07Z"/><path class="cls-1" d="M6.82,66.54l.85-.08a.09.09,0,0,1,0,.05s0,0,0,.06l-.62.06a.19.19,0,0,1,0,.09.43.43,0,0,1,0,.11v0H7.06v0c0-.07,0-.12-.06-.15a.18.18,0,0,0-.16-.06.06.06,0,0,1,0,0Z"/><path class="cls-1" d="M7.67,66a.33.33,0,0,1-.11.25.65.65,0,0,1-.66,0,.32.32,0,0,1,0-.5.54.54,0,0,1,.33-.1.48.48,0,0,1,.33.08A.31.31,0,0,1,7.67,66Zm-.19-.17a.44.44,0,0,0-.27-.05A.48.48,0,0,0,7,65.8a.21.21,0,0,0-.09.18.23.23,0,0,0,.1.17.42.42,0,0,0,.27,0,.4.4,0,0,0,.26-.07A.2.2,0,0,0,7.58,66,.22.22,0,0,0,7.48,65.79Z"/><path class="cls-1" d="M6.79,65.18l.85,0a.13.13,0,0,1,0,.1H7l0,.1s0,.07,0,.11v0s0,0,0,0H7a.35.35,0,0,0,0-.17.22.22,0,0,0-.16-.07s0,0,0,0Z"/><path class="cls-1" d="M7.69,64.69a.28.28,0,0,1-.14.24.48.48,0,0,1-.33.07.52.52,0,0,1-.33-.12.34.34,0,0,1,0-.5.5.5,0,0,1,.34-.06.49.49,0,0,1,.32.11A.3.3,0,0,1,7.69,64.69Zm-.17-.19a.57.57,0,0,0-.26-.08.55.55,0,0,0-.27,0,.22.22,0,0,0,0,.35.44.44,0,0,0,.25.08.51.51,0,0,0,.27,0,.2.2,0,0,0,.11-.17A.22.22,0,0,0,7.52,64.5Z"/><path class="cls-1" d="M6.91,63.83l.84.11V64a.08.08,0,0,1,0,.05L7.12,64a.3.3,0,0,1,0,.1v.13H7.07v0A.26.26,0,0,0,7,64c0-.05-.07-.07-.14-.09a0,0,0,0,1,0-.05A.06.06,0,0,1,6.91,63.83Z"/><path class="cls-1" d="M7.85,63.44a.3.3,0,0,1-.16.23.53.53,0,0,1-.34,0,.48.48,0,0,1-.3-.15.32.32,0,0,1,.09-.49.61.61,0,0,1,.34,0,.6.6,0,0,1,.31.15A.32.32,0,0,1,7.85,63.44Zm-.14-.2a.53.53,0,0,0-.25-.11.48.48,0,0,0-.27,0,.18.18,0,0,0-.12.15.2.2,0,0,0,.06.19.45.45,0,0,0,.24.11.48.48,0,0,0,.27,0,.21.21,0,0,0,.13-.16A.2.2,0,0,0,7.71,63.24Z"/><path class="cls-1" d="M7.17,62.5l.82.2a0,0,0,0,1,0,0,.08.08,0,0,1,0,0l-.6-.14a.25.25,0,0,1,0,.09s0,.08,0,.11v0H7.29a.48.48,0,0,0,0-.17.23.23,0,0,0-.14-.11v0Z"/><path class="cls-1" d="M8.15,62.22a.32.32,0,0,1-.18.21.6.6,0,0,1-.35,0,.64.64,0,0,1-.29-.19.28.28,0,0,1,0-.27.28.28,0,0,1,.18-.21.57.57,0,0,1,.34,0,.54.54,0,0,1,.29.18A.3.3,0,0,1,8.15,62.22ZM8,62a.46.46,0,0,0-.24-.13.43.43,0,0,0-.27,0,.2.2,0,0,0-.14.13.2.2,0,0,0,0,.2.62.62,0,0,0,.51.15A.21.21,0,0,0,8,62Z"/><path class="cls-1" d="M7.58,61.2l.8.29s0,0,0,0l0,.05-.58-.21v.1l0,.1v0h0a0,0,0,0,1,0,0h0a.25.25,0,0,0,0-.17.19.19,0,0,0-.12-.11.09.09,0,0,1,0,0Z"/><path class="cls-1" d="M8.59,61a.35.35,0,0,1-.21.19.63.63,0,0,1-.34,0A.61.61,0,0,1,7.77,61a.34.34,0,0,1,0-.28.31.31,0,0,1,.2-.19.61.61,0,0,1,.34,0,.61.61,0,0,1,.27.21A.31.31,0,0,1,8.59,61Zm-.1-.23a.57.57,0,0,0-.22-.16.58.58,0,0,0-.27,0,.18.18,0,0,0-.15.12.2.2,0,0,0,0,.2.45.45,0,0,0,.21.16.49.49,0,0,0,.27,0A.2.2,0,0,0,8.5,61,.19.19,0,0,0,8.49,60.8Z"/><path class="cls-1" d="M8.13,60l.76.38a.11.11,0,0,1,0,.05l0,0-.55-.28a.38.38,0,0,1,0,.1.42.42,0,0,0,0,.1v0h0l0,0h0a.28.28,0,0,0,0-.17A.19.19,0,0,0,8.09,60a.08.08,0,0,1,0,0A.05.05,0,0,1,8.13,60Z"/><path class="cls-1" d="M9.15,59.9a.27.27,0,0,1-.23.16A.48.48,0,0,1,8.6,60a.53.53,0,0,1-.25-.24.32.32,0,0,1,0-.27.29.29,0,0,1,.23-.16.46.46,0,0,1,.33.09.55.55,0,0,1,.24.24A.29.29,0,0,1,9.15,59.9Zm-.07-.24a.45.45,0,0,0-.2-.18.4.4,0,0,0-.25-.08.19.19,0,0,0-.17.1.2.2,0,0,0,0,.2.45.45,0,0,0,.2.18.41.41,0,0,0,.26.08.21.21,0,0,0,.17-.1A.23.23,0,0,0,9.08,59.66Z"/><path class="cls-1" d="M8.81,58.78l.72.46s0,0,0,0,0,0,0,0L9,59a.19.19,0,0,1,0,.09.31.31,0,0,1-.05.1v0h0l0,0h0a.27.27,0,0,0,0-.16.17.17,0,0,0-.1-.14s0,0,0,0Z"/><path class="cls-1" d="M9.83,58.84a.27.27,0,0,1-.24.13.46.46,0,0,1-.32-.12.5.5,0,0,1-.21-.26.3.3,0,0,1,0-.27.28.28,0,0,1,.24-.14.58.58,0,0,1,.32.12.52.52,0,0,1,.22.26A.29.29,0,0,1,9.83,58.84Zm0-.25a.48.48,0,0,0-.18-.2.58.58,0,0,0-.25-.11.23.23,0,0,0-.18.09.19.19,0,0,0,0,.19.45.45,0,0,0,.17.21.54.54,0,0,0,.25.1.2.2,0,0,0,.18-.09A.19.19,0,0,0,9.79,58.59Z"/><path class="cls-1" d="M9.63,57.69l.65.54a.17.17,0,0,1,0,.05l0,0-.48-.39a.36.36,0,0,1,0,.09.47.47,0,0,1-.06.09v0l0,0s0,0,0,0h0a.25.25,0,0,0,.07-.16.19.19,0,0,0-.08-.15l0,0Z"/><path class="cls-1" d="M10.63,57.86a.29.29,0,0,1-.25.11.55.55,0,0,1-.31-.16.49.49,0,0,1-.18-.29.29.29,0,0,1,.08-.26.31.31,0,0,1,.26-.11.5.5,0,0,1,.3.16.51.51,0,0,1,.19.29A.28.28,0,0,1,10.63,57.86Zm0-.25a.51.51,0,0,0-.16-.22.53.53,0,0,0-.23-.14.19.19,0,0,0-.19.07.19.19,0,0,0,0,.19.48.48,0,0,0,.15.22.51.51,0,0,0,.24.14.2.2,0,0,0,.19-.07A.22.22,0,0,0,10.62,57.61Z"/><path class="cls-1" d="M10.55,56.7l.59.6s0,0,0,.05l0,0-.44-.44a.18.18,0,0,1,0,.09l-.07.08,0,0,0,0a0,0,0,0,1,0,0h0a.28.28,0,0,0,.09-.14.29.29,0,0,0-.06-.16.08.08,0,0,1,0,0Z"/><path class="cls-1" d="M11.53,57a.3.3,0,0,1-.27.08.52.52,0,0,1-.28-.19.55.55,0,0,1-.16-.31.29.29,0,0,1,.11-.25.31.31,0,0,1,.27-.08.49.49,0,0,1,.29.19.53.53,0,0,1,.15.3A.31.31,0,0,1,11.53,57Zm0-.26a.5.5,0,0,0-.13-.23.49.49,0,0,0-.22-.16.21.21,0,0,0-.19,0,.21.21,0,0,0-.07.19.55.55,0,0,0,.35.4.22.22,0,0,0,.19-.05A.19.19,0,0,0,11.54,56.72Z"/><path class="cls-1" d="M11.58,55.81l.52.67s0,0,0,0l-.05,0-.38-.48-.05.08a.6.6,0,0,0-.08.08h0l0,0a0,0,0,0,1,0,0h0a.28.28,0,0,0,.09-.14.18.18,0,0,0,0-.16l0,0Z"/><path class="cls-1" d="M12.55,55.63a.52.52,0,0,0-.26-.22.3.3,0,0,0-.27.05.32.32,0,0,0-.15.24A.58.58,0,0,0,12,56a.52.52,0,0,0,.26.22l.06-.09h0a.37.37,0,0,1-.2-.18.42.42,0,0,1-.1-.25.23.23,0,0,1,.09-.18.19.19,0,0,1,.19,0,.48.48,0,0,1,.2.18.5.5,0,0,1,.08.14l.07-.09A.41.41,0,0,0,12.55,55.63Z"/><path class="cls-1" d="M12.7,55l0,0,0,0a.21.21,0,0,1,0,.17c0,.05-.05.08-.11.12h0s0,0,0,0l0,0h0l.08-.07.07-.08.1.16.07-.08Z"/><path class="cls-1" d="M13.44,54.73a.31.31,0,0,0-.28,0A.3.3,0,0,0,13,55a.38.38,0,0,0,0,.25l.08-.09h0a.21.21,0,0,1,0-.13.19.19,0,0,1,.11-.16.17.17,0,0,1,.19,0h0l.08-.08Z"/><path class="cls-1" d="M13.86,54.41l0,0a0,0,0,0,1,0,0,.15.15,0,0,1,.07-.07Z"/><path class="cls-1" d="M16.64,54.29a.33.33,0,0,0,.21-.13l-.29.13Z"/><path class="cls-1" d="M26,61.41v.15l-1.63-.89a5.51,5.51,0,0,0-5.2-5.18A5.5,5.5,0,0,0,14,60.61l-1.64.89v-.09a7.78,7.78,0,0,1,4.23-7.12h.08a.33.33,0,0,0,.21-.13,2.86,2.86,0,0,1,.41-.15l.1,0,.2,0,.11,0,.42-.09.11,0,.34,0h.11l.18,0h.68l.42,0,.11,0a2.46,2.46,0,0,1,.46.08l.1,0a3,3,0,0,1,.32.09L21,54l.18.06.1,0a3.69,3.69,0,0,1,.42.17l.09,0,.31.16.1,0,.22.13.14.09h0l.09,0h0l.14.1A8,8,0,0,1,26,61.41Z"/><path class="cls-2" d="M17.79,60.08c-.19.61-.42,1.26-.68,1.92s-.45,1.09-.71,1.66L14,65l-1.14.62L11,63.77l1.33-.72L14,62.16Z"/><path class="cls-2" d="M27.26,63.78l-1.83,1.83L24.38,65l-2.74-1.49c-.27-.56-.52-1.12-.73-1.66S20.4,60.56,20.2,60l4.18,2.27L26,63.1Z"/><path class="cls-1" d="M23.48,67.54c-.4.91-.79,1.82-1.18,2.74s-.8,1.85-1.2,2.77h-4c-.35-.89-.69-1.79-1-2.68s-.75-1.91-1.12-2.87a24,24,0,0,0,2-3.47c.24-.51.45-1,.64-1.49a22.8,22.8,0,0,0,1-2.92v5.94a1.7,1.7,0,1,0,1.07,0V59.48a20.62,20.62,0,0,0,1,3,17.68,17.68,0,0,0,.83,1.8A20.76,20.76,0,0,0,23.48,67.54Z"/><rect class="cls-1" x="16.34" y="73.47" width="5.41" height="0.99"/><path class="cls-1" d="M27.78,64.42l-2.17,2.22c0,1.28,0,2.56-.07,3.83a8.92,8.92,0,0,1-2,3.31,9.06,9.06,0,0,1-3.14,2.1V78h-.56v2.7h0s0,0,0,0,0,0,0,0h0v.12h.84V78.54h0v0l.08,0,.11,0,.47-.2a.34.34,0,0,1,.22-.16h.12A11.56,11.56,0,0,0,24,76.6l.09-.07h0c.1-.09.21-.17.31-.27l.11-.1a1.88,1.88,0,0,0,.25-.24l.08-.07c.11-.11.22-.22.31-.33l.08-.08.13-.15.07-.09c.08-.08.15-.17.23-.26l.07-.09.25-.33.06-.09a0,0,0,0,0,0,0l.13-.18-.07-.07,0,0,.05,0,0,0a11.66,11.66,0,0,0,1.58-3.63Q27.79,67.47,27.78,64.42Z"/><path class="cls-1" d="M21.55,78.08h.12l-.34.17A.34.34,0,0,1,21.55,78.08Z"/><path class="cls-1" d="M26.24,74.14a.24.24,0,0,0-.06.09l-.07-.07,0,0,.05,0Z"/><path class="cls-1" d="M18.23,78v2.91h-.87V80.7a.86.86,0,0,0,0-.17.51.51,0,0,0,0-.31V78.39l-.06,0h-.13a11.69,11.69,0,0,1-1.87-1l-.06,0L15,77.21l-.09-.06-.31-.23-.1-.07-.29-.23-.09-.07L14,76.41l-.09-.08a.47.47,0,0,0,0-.16.22.22,0,0,0-.32-.14,0,0,0,0,1,0,0,.27.27,0,0,1-.08-.07l-.28-.27,0,0s0,0-.05,0l0,0a10.22,10.22,0,0,1-1-1.21,11.63,11.63,0,0,1-1.77-3.9c0-2,0-4.06,0-6.09l2.17,2.22.06,3.83a9.12,9.12,0,0,0,2,3.31,9,9,0,0,0,3.14,2.1V78Z"/><path class="cls-1" d="M13.16,75.64s0,0,.05,0l0,0-.07-.08Z"/><path class="cls-1" d="M13.88,76.17a.47.47,0,0,1,0,.16,2.81,2.81,0,0,1-.31-.29,0,0,0,0,0,0,0,.22.22,0,0,1,.32.14Z"/><path class="cls-1" d="M17.36,78.39v.07l-.19-.08h.13Z"/><path class="cls-1" d="M19.86,80.75s0,0,0,0h0v-.09h0S19.86,80.74,19.86,80.75Z"/><path class="cls-1" d="M17.39,80.53a.86.86,0,0,1,0,.17v-.48A.51.51,0,0,1,17.39,80.53Z"/></svg>