<svg id="Layer_20" data-name="Layer 20" xmlns="http://www.w3.org/2000/svg" viewBox="0 0 131 131"><defs><style>.cls-1{fill:#1b3d65;}</style></defs><path class="cls-1" d="M41.47,64.69h1.32V46.78c-.89.49-1.74,1-2.61,1.42a1.93,1.93,0,0,1-.65.12c.14-.17.25-.4.43-.5.95-.55,1.91-1.07,2.85-1.59-.28-2-.1-7.75.34-8.19v8c.47-.26.82-.46,1.17-.64,3.12-1.67,6.26-3.33,9.38-5s6.38-3.44,9.56-5.18a1,1,0,0,1,1.12,0c2.48,1.36,5,2.7,7.47,4,.22.12.45.21.76.36V38.09c1,0,2,0,3,0a.66.66,0,0,1,.42.49c0,1,0,1.91,0,2.93L84,45.78V34.56h1v.83c0,3.43,0,6.85,0,10.28a1,1,0,0,0,.63,1q6.45,3.42,12.88,6.9c.16.09.26.27.39.4l-.19.25L85,46.88V64.7h8.31l0,.32a3.34,3.34,0,0,1-.7.14H85v2.3h8.59V69.2H43.2v2.3l-.26,0c-.41-.69-.11-1.49-.17-2.3H32.68V67.53H40.5V65.17H32.92a2.46,2.46,0,0,1-.63-.17l.05-.26h8.21V50.11h.92Zm39.79,0c0-.1.07-.14.07-.19,0-5.34,0-10.68,0-16a.92.92,0,0,0-.43-.61c-1.1-.63-2.23-1.23-3.35-1.84-4.39-2.43-8.78-4.87-13.19-7.28a1,1,0,0,0-.83,0c-2.37,1.29-4.72,2.61-7.09,3.92-3.06,1.69-6.11,3.39-9.18,5a1,1,0,0,0-.64,1.07c0,5.06,0,10.11,0,15.17v.72Zm0,.55H46.69v2.24H81.3Zm-36.38-.55v-.92q0-8,0-16a.9.9,0,0,1,.58-1c.74-.34,1.42-.8,2.13-1.19,1.93-1,3.86-2.08,5.78-3.14,3.53-1.94,7-3.9,10.56-5.86l8.6,4.73.2-.13c-.16-.38-.21-.95-.5-1.12-2.59-1.46-5.24-2.85-7.85-4.28a1.12,1.12,0,0,0-1.18,0c-2.48,1.36-5,2.7-7.46,4-4,2.16-8,4.32-12,6.46a.94.94,0,0,0-.6,1q0,8.37,0,16.72c0,.23,0,.46,0,.71ZM76,42c-.27,1.08.46,1.41,1.21,1.81,1.8,1,3.55,2,5.35,3a.81.81,0,0,1,.5.88c0,5.39,0,10.78,0,16.17v.88l.89,0a2.91,2.91,0,0,0,0-.31c0-5.83,0-11.66,0-17.49a1.16,1.16,0,0,0-.51-.8c-.86-.53-1.78-1-2.67-1.47ZM43.25,65.18v2.27h1.61V65.18Zm-1.7,0v2.29h1.24V65.19ZM84,67.48V65.21H83.1v2.27Z"/><path class="cls-1" d="M72.26,79.33c-1.55,0-3.05,0-4.55,0a2.89,2.89,0,0,0-3,2.77,2.52,2.52,0,0,0,1.71,2.65,36,36,0,0,0,4,.48V83.56H67.53V81.73h4.72v5.08c-.49,0-1,0-1.5,0-1.47,0-3,0-4.4-.17-1.88-.24-3.38-2.53-3.42-4.26a4.7,4.7,0,0,1,3.36-4.66,21.19,21.19,0,0,1,3.3-.23c.36,0,.73,0,1.09,0C72.39,77.47,72.39,77.47,72.26,79.33Z"/><path class="cls-1" d="M10.69,82.1c0-1.32,0-2.64,0-4,0-.22.23-.63.35-.63a31.42,31.42,0,0,1,5.67.31c3.59.79,4.31,5.5,2,7.62a4.64,4.64,0,0,1-3.37,1.37c-1.32,0-2.64,0-4,0-.51,0-.69-.18-.68-.68C10.7,84.79,10.69,83.45,10.69,82.1Zm1.89,3c.89,0,1.71,0,2.54,0a7.81,7.81,0,0,0,.82-.14,2.77,2.77,0,0,0,.19-5.44c-1.15-.17-2.34-.16-3.55-.24Z"/><path class="cls-1" d="M60,77.51h1.66v9.37l-7.42-5.71v5.6H52.58V77.55L60,83.28Z"/><path class="cls-1" d="M99.61,77.67c1.61-.11,1.59-.1,2.11,1.29.72,1.92,1.47,3.83,2.24,5.81.84-2.31,1.65-4.54,2.49-6.76a.82.82,0,0,1,.56-.36,7.9,7.9,0,0,1,1.2,0v9H107V79.94h-.1c-.76,2-1.5,4.07-2.3,6.09a1.23,1.23,0,0,1-.73.6c-.45.16-.56-.21-.7-.58-.77-2-1.57-4.05-2.42-6.22V86.6H99.61Z"/><path class="cls-1" d="M29.72,77.63c2.15,0,4.24-.1,6.32,0a2.43,2.43,0,0,1,2,2.61,2.52,2.52,0,0,1-2.55,2.35c-1.34-.07-2.69,0-4.11,0v4.17H29.72Zm1.69,3.26c1.34,0,2.61,0,3.88,0,.46,0,1-.24.88-.83a1,1,0,0,0-.72-.67c-1.33-.07-2.67,0-4,0Z"/><path class="cls-1" d="M91.32,86.8c-2.91,0-4.52-1.84-4.5-4.63,0-3.37,1.89-4.65,4.49-4.63s4.4,1.3,4.46,4.61A4.24,4.24,0,0,1,91.32,86.8Zm-.11-8.09c-1.94,0-3,1.29-3,3.42s1.26,3.7,3.09,3.56c2.25-.18,3-.94,3.09-3.62C94.46,80.09,93.37,78.64,91.21,78.71Z"/><path class="cls-1" d="M48.49,79.33H44.72v7.43h-1.8V79.35H39.2V77.48H40c2.49,0,5,0,7.46,0,.77,0,1.13.17,1,1A6.33,6.33,0,0,0,48.49,79.33Z"/><path class="cls-1" d="M112.49,86.58V77.69h6.77v1.14H113.9v2.69H119v1h-5v3h5.64v1Z"/><path class="cls-1" d="M77.09,81.34h4.55V77.67H83v8.94H81.67v-4H77.16v4H75.78V77.68h1.31Z"/><path class="cls-1" d="M.63,86.81l4.79-9.36,4.8,9.36c-.5,0-.88,0-1.25,0a1,1,0,0,1-1.12-.66c-.74-1.56-1.58-3.07-2.43-4.68C4.66,83,3.87,84.34,3.21,85.79c-.37.82-.84,1.2-1.74,1A5.75,5.75,0,0,0,.63,86.81Z"/><path class="cls-1" d="M24.26,77.45l4.81,9.35a15.06,15.06,0,0,1-1.79,0c-.21,0-.43-.33-.55-.55-.82-1.56-1.61-3.12-2.44-4.76C23.63,82.69,23,83.85,22.38,85c-.26.49-.48,1-.76,1.49a.64.64,0,0,1-.45.28c-.51,0-1,0-1.67,0Z"/><path class="cls-1" d="M130.19,79.76a3,3,0,0,0-.67.07c-.39.18-.55.16-.79-.3-.67-1.26-3.13-1.11-3.89-.36a1.1,1.1,0,0,0,.59,1.82c.86.29,1.76.47,2.64.69,1.47.36,2.4,1.23,2.29,2.69a2.53,2.53,0,0,1-1.93,2.22,5.83,5.83,0,0,1-4.39-.4,2.18,2.18,0,0,1-1.16-1.77c.32-.08.58-.17.85-.21.12,0,.33,0,.38.11.9,1.66,2.36,1.53,3.86,1.19a1.1,1.1,0,0,0,1-1.13c0-.74-.21-1.16-1-1.33-1-.22-1.91-.5-2.86-.77a2.55,2.55,0,0,1-1.93-2,2,2,0,0,1,.79-2,4.61,4.61,0,0,1,2.9-.77,5.36,5.36,0,0,1,1.56.29A2.36,2.36,0,0,1,130.19,79.76Z"/><path class="cls-1" d="M51.26,86.76a2.31,2.31,0,0,1-.32,0h-1.3V77.53h1.62Z"/><path class="cls-1" d="M59.12,54.69v-4.1h4.09v4.1Z"/><path class="cls-1" d="M68.83,54.7H64.74V50.61h4.09Z"/><path class="cls-1" d="M59.13,55.56h4.1v4.1h-4.1Z"/><path class="cls-1" d="M64.75,55.54h4.07v4.13H64.75Z"/><path class="cls-1" d="M27,92.63V93H25.88a.23.23,0,0,1-.12,0,.57.57,0,0,1,0,.13v3.12h-.48V93.14a.3.3,0,0,1,0-.13.3.3,0,0,1-.13,0H24v-.4Z"/><path class="cls-1" d="M27.56,92.65a6.6,6.6,0,0,1,.83-.06c.92,0,1.42.37,1.42,1a1,1,0,0,1-.74,1,1.84,1.84,0,0,1,.17.22l1,1.41h-.58l-1-1.5H28a.23.23,0,0,1,0,.12v1.39h-.48Zm1.18,1.75a.64.64,0,0,0,.58-.69c0-.47-.31-.73-.88-.73L28,93a.3.3,0,0,1,0,.13v1.15a.3.3,0,0,1,0,.13.3.3,0,0,1,.13,0Z"/><path class="cls-1" d="M31.19,92.61v2.22c0,.77.3,1.08,1,1.08s1-.32,1-1.08V92.61h.48v2.2A1.42,1.42,0,0,1,33.27,96a1.66,1.66,0,0,1-1.09.35A1.51,1.51,0,0,1,31,95.92a1.49,1.49,0,0,1-.3-1.11v-2.2Z"/><path class="cls-1" d="M36.18,93.3a1.12,1.12,0,0,0-.75-.33.54.54,0,0,0-.58.54.52.52,0,0,0,.25.43,3.29,3.29,0,0,0,.64.32c.56.27.77.53.77,1a1.1,1.1,0,0,1-1.19,1.08,1.7,1.7,0,0,1-1-.38l.1-.5a1.44,1.44,0,0,0,1,.46.6.6,0,0,0,.65-.61c0-.26-.16-.43-.55-.61l-.33-.14a1.05,1.05,0,0,1-.75-1,1,1,0,0,1,1.07-1,1.38,1.38,0,0,1,.92.34Z"/><path class="cls-1" d="M39.62,92.63V93H38.47a.23.23,0,0,1-.12,0,.57.57,0,0,1,0,.13v3.12h-.48V93.14a.3.3,0,0,1,0-.13.27.27,0,0,1-.13,0H36.64v-.4Z"/><path class="cls-1" d="M40.64,96.26h-.48V92.61h.48Z"/><path class="cls-1" d="M41.84,92.56l1.79,2.09c.32.38.37.44.63.78h0c0-.42,0-.51,0-1V92.61h.44v3.62l-.24.08-1.82-2.12c-.31-.36-.37-.44-.63-.78h0c0,.43,0,.52,0,1v1.85h-.44V92.65Z"/><path class="cls-1" d="M48.19,95.75a.57.57,0,0,1,0-.13v-.69a.53.53,0,0,1,0-.13.23.23,0,0,1-.12,0h-.74l.06-.4h1.27V96a2.12,2.12,0,0,1-1.27.39,1.9,1.9,0,1,1-.06-3.79,1.9,1.9,0,0,1,1.31.47l-.28.37A1.57,1.57,0,0,0,47.29,93,1.31,1.31,0,0,0,46,94.39a1.44,1.44,0,0,0,1.49,1.55,1.34,1.34,0,0,0,.73-.18Z"/><path class="cls-1" d="M49.88,96a.29.29,0,1,1-.29-.32A.29.29,0,0,1,49.88,96Z"/><path class="cls-1" d="M51.8,92.65a6.6,6.6,0,0,1,.83-.06c.92,0,1.42.37,1.42,1a1,1,0,0,1-.74,1,1.84,1.84,0,0,1,.17.22l1,1.41h-.58l-1-1.5h-.6a.23.23,0,0,1,0,.12v1.39H51.8ZM53,94.4a.65.65,0,0,0,.59-.69c0-.47-.31-.73-.88-.73l-.42,0a.3.3,0,0,1,0,.13v1.15a.08.08,0,1,0,.11.11Z"/><path class="cls-1" d="M56.91,93H55.56a.08.08,0,1,0-.11.11V94a.08.08,0,1,0,.11.11h1.23v.4H55.56a.3.3,0,0,1-.13,0,.27.27,0,0,1,0,.13v1.08a.25.25,0,0,1,0,.13h1.76l-.08.39H55V92.63h1.94Z"/><path class="cls-1" d="M58.22,95.74a.25.25,0,0,1,0,.13h1.63l-.07.39h-2V92.61h.49Z"/><path class="cls-1" d="M60.84,96.26h-.48V92.61h.48Z"/><path class="cls-1" d="M62.3,95.11l-.47,1.15h-.48l1.54-3.71h.36l1.53,3.71h-.51l-.46-1.15Zm.91-.36h.47a4,4,0,0,1-.18-.44L63.36,94a7.11,7.11,0,0,1-.29-.79h0c-.12.34-.14.42-.29.79l-.14.33a2.91,2.91,0,0,1-.19.43h.78Z"/><path class="cls-1" d="M65.3,92.65a7.42,7.42,0,0,1,.89-.06c.73,0,1.18.34,1.18.9,0,.35-.17.59-.59.8v0a1,1,0,0,1,.86.94c0,.67-.51,1-1.45,1-.22,0-.44,0-.89-.05Zm1,1.59a.33.33,0,0,0,.22-.1.72.72,0,0,0,.31-.59c0-.38-.3-.63-.77-.63l-.33,0a.34.34,0,0,1,0,.14v1a.08.08,0,1,0,.11.11Zm-.55,1.55a.3.3,0,0,1,0,.13,4,4,0,0,0,.52,0,.74.74,0,0,0,.83-.69.79.79,0,0,0-.89-.76h-.46a.23.23,0,0,1,0,.12v1.16Z"/><path class="cls-1" d="M68.8,95.74a.49.49,0,0,1,0,.13h1.63l-.08.39h-2V92.61h.48Z"/><path class="cls-1" d="M72.89,93H71.54a.08.08,0,1,0-.11.11V94a.08.08,0,1,0,.11.11h1.23v.4H71.54a.3.3,0,0,1-.13,0,.27.27,0,0,1,0,.13v1.08a.25.25,0,0,1,0,.13h1.75l-.07.39H71V92.63h1.94Z"/><path class="cls-1" d="M74.1,96a.3.3,0,0,1-.29.32A.32.32,0,1,1,74.1,96Z"/><path class="cls-1" d="M76.56,95.11l-.47,1.15h-.48l1.54-3.71h.36L79,96.26h-.51l-.46-1.15Zm.9-.36h.48a3.85,3.85,0,0,1-.19-.44L77.62,94a7.3,7.3,0,0,1-.3-.79h0c-.11.34-.14.42-.29.79l-.13.33a4.43,4.43,0,0,1-.2.43h.78Z"/><path class="cls-1" d="M81.46,93H80.15A.23.23,0,0,1,80,93a.57.57,0,0,1,0,.13v1a.53.53,0,0,1,0,.13.23.23,0,0,1,.12,0H81.3v.4H80.15a.23.23,0,0,1-.12,0,.57.57,0,0,1,0,.13v1.55h-.48V92.63h1.9Z"/><path class="cls-1" d="M83.93,93H82.62a.08.08,0,1,0-.11.11v1a.27.27,0,0,1,0,.13.3.3,0,0,1,.13,0h1.15v.4H82.62a.08.08,0,1,0-.11.11v1.55H82V92.63h1.9Z"/><path class="cls-1" d="M88,94.47a1.78,1.78,0,0,1-1.87,1.87,1.9,1.9,0,0,1,.07-3.79A1.8,1.8,0,0,1,88,94.47Zm-3.17-.13a1.43,1.43,0,0,0,1.38,1.55,1.26,1.26,0,0,0,1.27-1.36A1.45,1.45,0,0,0,86.11,93,1.27,1.27,0,0,0,84.83,94.34Z"/><path class="cls-1" d="M88.72,92.65a6.87,6.87,0,0,1,.83-.06c.92,0,1.43.37,1.43,1a1,1,0,0,1-.74,1l.17.22,1,1.41h-.58l-1-1.5h-.59a.45.45,0,0,1,0,.12v1.39h-.48ZM89.9,94.4a.64.64,0,0,0,.58-.69c0-.47-.3-.73-.88-.73l-.41,0a.57.57,0,0,1,0,.13v1.15a.57.57,0,0,1,0,.13.23.23,0,0,1,.12,0Z"/><path class="cls-1" d="M92,92.64h.11l.7,0a2.34,2.34,0,0,1,1.63.52A1.79,1.79,0,0,1,95,94.46a1.71,1.71,0,0,1-1,1.64,3.71,3.71,0,0,1-1.27.17c-.27,0-.46,0-.79,0V92.65Zm.37,3.1a.23.23,0,0,1,0,.12,1.73,1.73,0,0,0,.3,0c.17,0,.4,0,.59,0a1.14,1.14,0,0,0,1-.51,1.5,1.5,0,0,0-.52-2.12,2.38,2.38,0,0,0-1-.19h-.33a.23.23,0,0,1,0,.12Z"/><path class="cls-1" d="M96.09,95.11l-.47,1.15h-.48l1.55-3.71H97l1.53,3.71h-.51l-.46-1.15Zm.91-.36h.48a3.85,3.85,0,0,1-.19-.44L97.16,94a5.67,5.67,0,0,1-.3-.79h0c-.12.34-.14.42-.29.79l-.14.33a2.91,2.91,0,0,1-.19.43H97Z"/><path class="cls-1" d="M99.09,92.65a7.42,7.42,0,0,1,.89-.06c.73,0,1.18.34,1.18.9,0,.35-.17.59-.59.8v0a1,1,0,0,1,.86.94c0,.67-.51,1-1.44,1-.23,0-.45,0-.9-.05Zm1,1.59a.33.33,0,0,0,.22-.1.72.72,0,0,0,.31-.59c0-.38-.3-.63-.77-.63l-.33,0a.34.34,0,0,1,0,.14v1a.08.08,0,1,0,.11.11Zm-.55,1.55a.3.3,0,0,1,0,.13,4,4,0,0,0,.52,0,.74.74,0,0,0,.83-.69.79.79,0,0,0-.89-.76h-.46a.23.23,0,0,1,0,.12v1.16Z"/><path class="cls-1" d="M102.59,95.74a.49.49,0,0,1,0,.13h1.63l-.07.39h-2V92.61h.48Z"/><path class="cls-1" d="M106.68,93h-1.35a.08.08,0,1,0-.11.11V94a.08.08,0,1,0,.11.11h1.23v.4h-1.23a.3.3,0,0,1-.13,0,.27.27,0,0,1,0,.13v1.08a.25.25,0,0,1,0,.13H107l-.08.39h-2.14V92.63h1.94Z"/></svg>