<svg id="Layer_21" data-name="Layer 21" xmlns="http://www.w3.org/2000/svg" viewBox="0 0 131 131"><defs><style>.cls-1{fill:#ef8429;}</style></defs><path class="cls-1" d="M61.22,80.83c-.15-.07-.18-.12-.18-.34,0-.56,0-1.16.05-1.32s0-.26.11-.26.1.09.1.17a2.11,2.11,0,0,0,.09.51,1.34,1.34,0,0,0,1.38,1,1.19,1.19,0,0,0,1.29-1.15c0-.49-.14-.95-.94-1.6l-.45-.37a3,3,0,0,1-1.43-2.37,2,2,0,0,1,2.23-1.9,4.55,4.55,0,0,1,1.29.17c.09,0,.14,0,.14.12s0,.42,0,1.2c0,.23,0,.31-.11.31s-.1-.06-.1-.19a1.17,1.17,0,0,0-.25-.66,1.19,1.19,0,0,0-1.05-.49,1,1,0,0,0-1.15,1c0,.47.22.82,1,1.45l.27.21c1.17.91,1.59,1.61,1.59,2.56a2,2,0,0,1-.91,1.75,2.71,2.71,0,0,1-1.54.41A3.26,3.26,0,0,1,61.22,80.83Z"/><path class="cls-1" d="M68.19,77.72a3.32,3.32,0,0,1,3.57-3.35c2.15,0,3.48,1.24,3.48,3.2a3.38,3.38,0,0,1-3.57,3.49A3.27,3.27,0,0,1,68.19,77.72Zm5.78.16c0-1.89-1.09-3.06-2.46-3.06-1,0-2.06.53-2.06,2.63,0,1.76,1,3.15,2.57,3.15C72.62,80.6,74,80.31,74,77.88Z"/><path class="cls-1" d="M78.68,77c0-1.29,0-1.53,0-1.8s-.09-.39-.36-.47a1.55,1.55,0,0,0-.33,0q-.15,0-.15-.09c0-.06.06-.08.19-.08l1.27,0,1.09,0c.13,0,.19,0,.19.08s0,.09-.14.09a1.21,1.21,0,0,0-.25,0c-.22,0-.29.16-.31.47s0,.51,0,1.8v1.2c0,1.24.23,1.72.65,2.07a1.6,1.6,0,0,0,1.07.34,1.57,1.57,0,0,0,1.14-.45,2.8,2.8,0,0,0,.5-2.08V77c0-1.29,0-1.53,0-1.8a.43.43,0,0,0-.36-.47,1.42,1.42,0,0,0-.31,0c-.1,0-.14,0-.14-.09s.05-.08.17-.08l1,0,1,0c.12,0,.17,0,.17.08s0,.09-.14.09a1.07,1.07,0,0,0-.25,0c-.23,0-.29.17-.31.47s0,.51,0,1.8v.92a3.26,3.26,0,0,1-.81,2.57,2.6,2.6,0,0,1-1.8.61,2.84,2.84,0,0,1-1.94-.58,2.8,2.8,0,0,1-.78-2.26V77Z"/><path class="cls-1" d="M89.47,78.47c0,1.09,0,1.63.19,1.8s.47.18,1.13.18c.45,0,.78,0,1-.25a.93.93,0,0,0,.21-.51c0-.08,0-.13.1-.13s.08.09.08.19a6.58,6.58,0,0,1-.13,1c-.05.19-.09.23-.54.23-.61,0-1.1,0-1.53,0l-1.13,0h-.48l-.59,0c-.11,0-.16,0-.16-.09s0-.09.13-.09a1.21,1.21,0,0,0,.3,0c.18,0,.22-.2.25-.45s0-1,0-1.82V77c0-1.29,0-1.53,0-1.8s-.09-.39-.37-.47a1,1,0,0,0-.27,0q-.15,0-.15-.09c0-.06.06-.08.18-.08l1.17,0,1.23,0c.13,0,.18,0,.18.08s0,.09-.15.09a1.84,1.84,0,0,0-.33,0c-.23,0-.3.16-.32.47s0,.51,0,1.8v1.51Z"/><path class="cls-1" d="M95.14,80.84c-.14-.06-.17-.1-.17-.29,0-.47,0-1,0-1.14s0-.22.11-.22.09.08.09.14a2,2,0,0,0,.07.44,1.32,1.32,0,0,0,1.36.85,1.09,1.09,0,0,0,1.18-1.09c0-.37-.09-.74-.85-1.2l-.49-.3c-1-.62-1.33-1.19-1.33-1.94,0-1,1-1.72,2.14-1.72a4.82,4.82,0,0,1,1.21.14c.08,0,.12,0,.12.11s0,.36,0,1c0,.18,0,.27-.11.27s-.08,0-.08-.15a1,1,0,0,0-.23-.56,1.1,1.1,0,0,0-.94-.41c-.61,0-1.16.34-1.16.92,0,.38.13.68.9,1.12l.34.2c1.12.65,1.47,1.3,1.47,2.07a1.85,1.85,0,0,1-.85,1.6,2.39,2.39,0,0,1-1.42.35A3.51,3.51,0,0,1,95.14,80.84Z"/><path class="cls-1" d="M62.5,68.42s0,0,.13.11a2.59,2.59,0,0,0,.4.33,2.88,2.88,0,0,0,.66.34,2.63,2.63,0,0,0,1,.16A2,2,0,0,0,66,68.87a4.65,4.65,0,0,0,1-1.18,6.61,6.61,0,0,0,.66-1.46,4.42,4.42,0,0,0,.25-1.34,3.32,3.32,0,0,0-.24-1.43,1.28,1.28,0,0,0-.62-.67,1.54,1.54,0,0,0-.89-.1,5.57,5.57,0,0,0-1,.3c-.11,0-.1,0,0,0a4.31,4.31,0,0,0,.56-.32,6.66,6.66,0,0,0,.87-.66,5.48,5.48,0,0,0,.91-1,6.07,6.07,0,0,0,.73-1.44,5.77,5.77,0,0,0,.29-1.89,2,2,0,0,0-.56-1.36,2.3,2.3,0,0,0-1.77-.61,6.42,6.42,0,0,0-2.71.53,4,4,0,0,0-1.74,1.42,3.84,3.84,0,0,0-.64,2.08,5.48,5.48,0,0,0,.62,2.51.41.41,0,0,1-.05.35c-.08.13-.27.2-.58.2a1.16,1.16,0,0,1-.73-.24,1.32,1.32,0,0,1-.45-.72,4.24,4.24,0,0,1-.17-1.87,4,4,0,0,1,.57-1.59,5.09,5.09,0,0,1,1.13-1.29A6.92,6.92,0,0,1,63,56.1a8.07,8.07,0,0,1,1.78-.58,8.29,8.29,0,0,1,1.84-.2A5.11,5.11,0,0,1,68,55.5a2.88,2.88,0,0,1,1.09.55,2.59,2.59,0,0,1,.74,1,3.48,3.48,0,0,1,.27,1.43,3.32,3.32,0,0,1-.41,1.66,6,6,0,0,1-.92,1.23,7.49,7.49,0,0,1-1.31,1,2,2,0,0,1,1,.31,2.26,2.26,0,0,1,.69.83,3.56,3.56,0,0,1,.31,1.68A4,4,0,0,1,69,67,4.81,4.81,0,0,1,68,68.44a5.48,5.48,0,0,1-1.47,1,4,4,0,0,1-1.62.36A2.73,2.73,0,0,1,63,69.12a1.81,1.81,0,0,1-.41-.45A.91.91,0,0,1,62.5,68.42Zm-.44.69a1.14,1.14,0,0,1-.45.47,2.49,2.49,0,0,1-.57.21,1,1,0,0,1-.47,0c-.13,0-.19-.12-.16-.23l3.84-11.16a2.19,2.19,0,0,0,.14-.87c0-.26-.12-.38-.32-.38l.49-.15.46-.12a2.61,2.61,0,0,1,.48,0,1.37,1.37,0,0,1,.49.07.36.36,0,0,1,.16.35,4.86,4.86,0,0,1-.17.58c-.1.35-.25.82-.44,1.39l-.66,2c-.26.77-.54,1.58-.85,2.44l-1,2.69C62.73,67.29,62.4,68.2,62.06,69.11Z"/><path class="cls-1" d="M73.59,69.15a2.71,2.71,0,0,0,1.55-.51,7.57,7.57,0,0,0,1.31-1.12,10.53,10.53,0,0,0,1.23-1.63.74.74,0,0,1,0,.21c0,.07,0,.15-.07.23a1.07,1.07,0,0,1-.14.29,8.13,8.13,0,0,1-1.1,1.59,6.41,6.41,0,0,1-1.3,1.1,3.06,3.06,0,0,1-1.72.49,2.71,2.71,0,0,1-.95-.16,2.21,2.21,0,0,1-.78-.46,2.13,2.13,0,0,1-.54-.72,2.06,2.06,0,0,1-.21-.94,5,5,0,0,1,.44-2.08,6.79,6.79,0,0,1,1-1.64,5.54,5.54,0,0,1,1.18-1.08,1.88,1.88,0,0,1,.94-.4c.22,0,.34.13.34.4a2.71,2.71,0,0,1-.35,1.21,13.47,13.47,0,0,1-.78,1.27,16.92,16.92,0,0,1-1.13,1.4,5.94,5.94,0,0,0,0,1.28,2.73,2.73,0,0,0,.31.87A.76.76,0,0,0,73.59,69.15Zm.81-6.52c-.07,0-.19.12-.36.37a9.1,9.1,0,0,0-.53.89c-.19.34-.36.7-.52,1.06a3.54,3.54,0,0,0-.31.92q.39-.53,1-1.44c.11-.17.21-.36.32-.57a4.9,4.9,0,0,0,.27-.58,2.84,2.84,0,0,0,.16-.46C74.46,62.69,74.45,62.63,74.4,62.63Z"/><path class="cls-1" d="M84.72,69.11a1.7,1.7,0,0,0,.83-.24,4.6,4.6,0,0,0,.83-.58,6.46,6.46,0,0,0,.74-.74c.24-.27.44-.52.62-.76l.43-.6c.11-.16.18-.25.19-.28a2.3,2.3,0,0,1,0,.27,1.35,1.35,0,0,1-.2.51A10.33,10.33,0,0,1,87,68.25a6.57,6.57,0,0,1-1.2,1.09,2.39,2.39,0,0,1-1.43.48,1.93,1.93,0,0,1-.9-.19,2,2,0,0,1-.63-.47,2.66,2.66,0,0,1-.43-.6,3.1,3.1,0,0,1-.22-.62l-.63.63a6.16,6.16,0,0,1-.75.6,4.92,4.92,0,0,1-.8.45,2.08,2.08,0,0,1-.84.18,2.35,2.35,0,0,1-1-.2,1.88,1.88,0,0,1-.7-.54,2.15,2.15,0,0,1-.39-.82,4,4,0,0,1-.12-1,5.38,5.38,0,0,1,.33-1.7,6,6,0,0,1,.87-1.62,4.71,4.71,0,0,1,1.32-1.2,3.14,3.14,0,0,1,1.71-.47,1.29,1.29,0,0,1,.66.15,2,2,0,0,1,.44.35,2.1,2.1,0,0,1,.34.5,1,1,0,0,0-.34-.33,1.79,1.79,0,0,0-.46-.23,2,2,0,0,0-.68-.11,1.46,1.46,0,0,0-1,.47,4.65,4.65,0,0,0-.85,1.17,8.49,8.49,0,0,0-.59,1.54,6.55,6.55,0,0,0-.25,1.56,2.86,2.86,0,0,0,.19,1.3.79.79,0,0,0,.78.52,1.39,1.39,0,0,0,.87-.34,5,5,0,0,0,.83-.88,9.61,9.61,0,0,0,.72-1.17,10.06,10.06,0,0,0,.55-1.24c.18-.46.33-.87.46-1.24a6,6,0,0,0,.24-.92,1,1,0,0,0,0-.55c-.07-.12-.21-.17-.42-.16l.58-.14.47-.1a2.3,2.3,0,0,1,.39,0,1.15,1.15,0,0,1,.54.11c.12.07.16.2.11.39s-.14.45-.24.83-.22.81-.34,1.27-.21,1-.29,1.43a6.46,6.46,0,0,0-.09,1.35,2.3,2.3,0,0,0,.24,1A.72.72,0,0,0,84.72,69.11Z"/><path class="cls-1" d="M94.32,69.13a2.19,2.19,0,0,0,1.31-.48,7.21,7.21,0,0,0,1.19-1.08,10.27,10.27,0,0,0,.88-1.09l.38-.57v.22a.69.69,0,0,1-.14.39,11.38,11.38,0,0,1-1.15,1.65,6.32,6.32,0,0,1-.56.6,5.2,5.2,0,0,1-.63.53,3.73,3.73,0,0,1-.68.36,1.9,1.9,0,0,1-.7.14,2,2,0,0,1-1.53-.54,3.66,3.66,0,0,1-.79-1.32,3.6,3.6,0,0,1-.51.59,5.59,5.59,0,0,1-.74.61,4.31,4.31,0,0,1-.87.48,2.5,2.5,0,0,1-1,.2,2.08,2.08,0,0,1-1.41-.39A1.64,1.64,0,0,1,87,68.17,5.31,5.31,0,0,1,87.15,67c.11-.43.23-.85.37-1.26s.26-.8.4-1.17a6.51,6.51,0,0,0,.28-1,1.3,1.3,0,0,0,0-.66q-.09-.24-.45-.24l.58-.14.47-.12a2.28,2.28,0,0,1,.4,0,1.16,1.16,0,0,1,.55.11.33.33,0,0,1,.13.39,5.33,5.33,0,0,1-.23.76c-.13.36-.27.77-.42,1.25s-.31,1-.46,1.53A14,14,0,0,0,88.44,68a1.29,1.29,0,0,0,.11.86.69.69,0,0,0,.64.31,1.51,1.51,0,0,0,.79-.24,3.36,3.36,0,0,0,.75-.64,4.41,4.41,0,0,0,.66-.93,6.92,6.92,0,0,0,.49-1.11c.24-.73.44-1.32.61-1.77a7.38,7.38,0,0,0,.31-1.08.52.52,0,0,0-.56-.75l.59-.14.47-.12a2.18,2.18,0,0,1,.39,0,1.55,1.55,0,0,1,.61.11.32.32,0,0,1,.18.39,5.06,5.06,0,0,1-.18.62c-.1.26-.19.56-.29.92s-.2.76-.3,1.22a11,11,0,0,0-.18,1.5c0,.27,0,.52,0,.77a3.59,3.59,0,0,0,.1.64,1.2,1.2,0,0,0,.24.45A.61.61,0,0,0,94.32,69.13Z"/><path class="cls-1" d="M109.11,58.91a.85.85,0,0,0,.65-.23.39.39,0,0,0,.1-.49,1.32,1.32,0,0,0-.7-.49,5.23,5.23,0,0,0-1.78-.23,14.26,14.26,0,0,0-1.51.09c-.57.07-1.16.15-1.79.25l-1.92.33-1.85.32q-.89.16-1.62.27a10,10,0,0,1-1.19.14,2.22,2.22,0,0,1-.64-.07c-.15,0-.23-.13-.23-.24a.6.6,0,0,1,.05-.24.75.75,0,0,1,.11-.2A1.49,1.49,0,0,1,97,58q0,.27.63.27a13.76,13.76,0,0,0,1.66-.14c.69-.1,1.48-.23,2.37-.4s1.81-.33,2.76-.49,1.88-.3,2.81-.42a20.36,20.36,0,0,1,2.57-.18,2.6,2.6,0,0,1,1.59.39,1.14,1.14,0,0,1,.5,1,1.38,1.38,0,0,1-.15.67,1.41,1.41,0,0,1-.39.45,1.69,1.69,0,0,1-.54.26,2.55,2.55,0,0,1-.61.08,1.91,1.91,0,0,1-.54-.06.88.88,0,0,1-.32-.17A.53.53,0,0,1,109.11,58.91ZM100,69.13a1.45,1.45,0,0,0,.59-.14,3.8,3.8,0,0,0,.64-.36c.21-.16.42-.33.62-.51s.4-.39.59-.6a14,14,0,0,0,1.26-1.63.38.38,0,0,1,0,.21,1.6,1.6,0,0,1,0,.21,1,1,0,0,1-.09.21,12.39,12.39,0,0,1-1.22,1.65c-.19.21-.39.41-.59.6a5.93,5.93,0,0,1-.61.53,3.38,3.38,0,0,1-.63.36,1.5,1.5,0,0,1-.61.14,2.28,2.28,0,0,1-1.8-.64,2.68,2.68,0,0,1-.57-1.85,7.58,7.58,0,0,1,.3-1.88q.3-1.12.72-2.37c.28-.83.58-1.66.88-2.49s.55-1.57.75-2.23a8.81,8.81,0,0,0,.36-1.61c0-.41-.06-.62-.3-.62l.59-.14.47-.12a2.08,2.08,0,0,1,.39-.05c.46,0,.69.17.69.5a3.42,3.42,0,0,1-.24,1c-.15.45-.34,1-.58,1.61l-.76,2c-.28.73-.54,1.46-.78,2.2s-.45,1.46-.62,2.16a9.09,9.09,0,0,0-.3,1.87,5,5,0,0,0,0,.77,2.29,2.29,0,0,0,.11.63.91.91,0,0,0,.28.44A.77.77,0,0,0,100,69.13Z"/><path class="cls-1" d="M105.59,69.13a2.16,2.16,0,0,0,1.3-.48,7.5,7.5,0,0,0,1.17-1.08,11.23,11.23,0,0,0,.86-1.09l.37-.57v.22a.69.69,0,0,1-.14.39A10.59,10.59,0,0,1,108,68.17a7.82,7.82,0,0,1-.55.6,5.12,5.12,0,0,1-.62.53,3,3,0,0,1-.66.36,1.9,1.9,0,0,1-.7.14,2.31,2.31,0,0,1-1.8-.64,2.68,2.68,0,0,1-.58-1.85,6,6,0,0,1,.27-1.83l.48-1.47a3.07,3.07,0,0,0,.21-1c0-.25-.19-.37-.56-.37l.59-.14.47-.12a2.08,2.08,0,0,1,.39,0,1.21,1.21,0,0,1,.56.11.34.34,0,0,1,.13.39,5.06,5.06,0,0,1-.18.62c-.1.25-.2.56-.31.93s-.2.77-.3,1.23a11,11,0,0,0-.18,1.5,3.83,3.83,0,0,0,.16,1.4A.75.75,0,0,0,105.59,69.13Zm.28-10.51a1.34,1.34,0,0,1,.32.31,2.22,2.22,0,0,1,.22.41,1.42,1.42,0,0,1,.1.57.92.92,0,0,1-.37.73,1.74,1.74,0,0,1-.82.37,1.25,1.25,0,0,1-.81-.12.83.83,0,0,1-.37-.81.55.55,0,0,1,.26-.49,3.19,3.19,0,0,1,.58-.31c.22-.09.41-.19.59-.28A.5.5,0,0,0,105.87,58.62Z"/><path class="cls-1" d="M108.81,66c.44-1.44.88-2.78,1.32-4s.81-2.28,1.1-3.16a11.92,11.92,0,0,0,.52-2.05c.06-.48-.06-.7-.37-.66.2,0,.39-.08.56-.13l.47-.09a2.28,2.28,0,0,1,.4-.05,1.83,1.83,0,0,1,.58.07.33.33,0,0,1,.23.35,4.33,4.33,0,0,1-.31,1.11c-.2.55-.46,1.24-.77,2.06s-.66,1.76-1,2.8-.74,2.15-1.08,3.32c-.09.28-.22.72-.4,1.3s-.38,1.23-.59,1.94-.43,1.45-.64,2.2-.38,1.43-.53,2a13.3,13.3,0,0,0-.29,1.51c0,.4,0,.6.11.6s.31-.16.47-.49a7.17,7.17,0,0,0,.5-1.25c.16-.51.31-1.1.46-1.74s.27-1.31.38-2,.2-1.29.26-1.9a13.91,13.91,0,0,0,.1-1.58,2,2,0,0,0,.25.39A2.39,2.39,0,0,0,111,67a3.13,3.13,0,0,0,.7.4,2.35,2.35,0,0,0,.89.16,1.8,1.8,0,0,0,1.05-.41,3.67,3.67,0,0,0,1-1.24q.07-.14,0,.15a1.82,1.82,0,0,1-.33.71,3.17,3.17,0,0,1-.93.93,2.1,2.1,0,0,1-1.18.39,2.38,2.38,0,0,1-1.53-.44c0,.44-.05,1-.11,1.52s-.15,1.16-.25,1.76-.25,1.19-.41,1.76a9.79,9.79,0,0,1-.56,1.54,4,4,0,0,1-.74,1.09,1.21,1.21,0,0,1-.89.41,2.28,2.28,0,0,1-.45,0,1.07,1.07,0,0,1-.41-.16,1,1,0,0,1-.27-.37,1.66,1.66,0,0,1-.08-.64,11.34,11.34,0,0,1,.24-1.5c.14-.6.31-1.27.53-2s.45-1.55.71-2.41S108.52,66.87,108.81,66Z"/><path class="cls-1" d="M120.62,69.13a2.19,2.19,0,0,0,1.31-.48,7.21,7.21,0,0,0,1.19-1.08,10.27,10.27,0,0,0,.88-1.09l.38-.57v.22a.69.69,0,0,1-.14.39,10.65,10.65,0,0,1-1.15,1.65,6.32,6.32,0,0,1-.56.6,5.2,5.2,0,0,1-.63.53,3.73,3.73,0,0,1-.68.36,1.9,1.9,0,0,1-.7.14,2,2,0,0,1-1.53-.54,3.66,3.66,0,0,1-.79-1.32,3.6,3.6,0,0,1-.51.59,5.59,5.59,0,0,1-.74.61,4.31,4.31,0,0,1-.87.48,2.5,2.5,0,0,1-1,.2,2.08,2.08,0,0,1-1.41-.39,1.64,1.64,0,0,1-.42-1.26,5.31,5.31,0,0,1,.16-1.22c.11-.43.23-.85.37-1.26s.26-.8.4-1.17a6.51,6.51,0,0,0,.28-1,1.3,1.3,0,0,0,0-.66q-.09-.24-.45-.24l.58-.14.47-.12a2.28,2.28,0,0,1,.4,0,1.16,1.16,0,0,1,.55.11.33.33,0,0,1,.13.39,5.33,5.33,0,0,1-.23.76c-.13.36-.27.77-.42,1.25s-.31,1-.46,1.53a14,14,0,0,0-.32,1.62,1.29,1.29,0,0,0,.11.86.69.69,0,0,0,.64.31,1.51,1.51,0,0,0,.79-.24,3.64,3.64,0,0,0,.76-.64,4.77,4.77,0,0,0,.65-.93,6.92,6.92,0,0,0,.49-1.11c.24-.73.44-1.32.61-1.77a7.38,7.38,0,0,0,.31-1.08.52.52,0,0,0-.56-.75l.59-.14.47-.12a2.18,2.18,0,0,1,.39,0,1.55,1.55,0,0,1,.61.11.32.32,0,0,1,.18.39,5.06,5.06,0,0,1-.18.62c-.1.26-.19.56-.29.92s-.2.76-.3,1.22a11,11,0,0,0-.18,1.5c0,.27,0,.52,0,.77a3.59,3.59,0,0,0,.1.64,1.2,1.2,0,0,0,.24.45A.61.61,0,0,0,120.62,69.13Z"/><path class="cls-1" d="M126.55,69.13a2,2,0,0,0,1.21-.5,9.29,9.29,0,0,0,1.15-1.11,11.68,11.68,0,0,0,1.14-1.63.38.38,0,0,1,0,.21,1.6,1.6,0,0,1-.05.21,1,1,0,0,1-.09.21,9.91,9.91,0,0,1-1.12,1.65,8,8,0,0,1-.56.6,5,5,0,0,1-.61.53,3.29,3.29,0,0,1-.66.36,2,2,0,0,1-.71.14,2.32,2.32,0,0,1-1.76-.64,2.55,2.55,0,0,1-.61-1.85,6.12,6.12,0,0,1,.18-1.34c.12-.51.27-1.07.45-1.67s.39-1.21.61-1.85l.67-1.86c.21-.6.41-1.18.59-1.72s.32-1,.42-1.43a3.51,3.51,0,0,0,.11-1c0-.24-.13-.36-.32-.36l.59-.14.47-.12a2.18,2.18,0,0,1,.39-.05c.46,0,.69.17.69.5a3.55,3.55,0,0,1-.24,1c-.17.46-.36,1-.6,1.63s-.49,1.31-.77,2-.55,1.48-.8,2.22-.45,1.46-.61,2.15a8.84,8.84,0,0,0-.26,1.81,3.92,3.92,0,0,0,0,.77,1.94,1.94,0,0,0,.16.63A1,1,0,0,0,126,69,1,1,0,0,0,126.55,69.13Z"/><path class="cls-1" d="M24.45,51.81a15.3,15.3,0,0,1,2.74,1.25,4.44,4.44,0,0,1,.5-.56,13.75,13.75,0,0,0-3-1.26Z"/><path class="cls-1" d="M24.69,51.32a18.15,18.15,0,0,1,2.94,1.24l.06-.06a13.75,13.75,0,0,0-3-1.26Z"/><path class="cls-1" d="M24.72,51.24a13.75,13.75,0,0,1,3,1.26A4.85,4.85,0,0,1,28.3,52a16.7,16.7,0,0,0-3.12-1.69C25,50.62,24.87,50.93,24.72,51.24Z"/><path class="cls-1" d="M33.4,51.83l-.73.23a41,41,0,0,1,1.79,4.35c1.17,3.59-.09,6.72-2.13,5.18,3.32,2.51,4.18-1.81,3-5.4A30.28,30.28,0,0,0,33.4,51.83Z"/><path class="cls-1" d="M34.83,58a8.44,8.44,0,0,0-.18-.93c-2.94.51-5.12,2.39-2.32,4.5C30.64,60.25,32.11,58.5,34.83,58Z"/><path class="cls-1" d="M33.4,51.83a36.14,36.14,0,0,1,1.7,4.41c.94,2.89.72,6.12-1.11,6.1,1.92.11,2.29-3.26,1.34-6.15A30.28,30.28,0,0,0,33.4,51.83Z"/><path class="cls-1" d="M31.58,60.9c-1.38-1.69.65-3.12,3.07-3.81C32,57.54,30,59.08,31.58,60.9Z"/><path class="cls-1" d="M34.62,51.49l-1.22.34a30.28,30.28,0,0,1,1.93,4.36c1.18,3.59.32,7.91-3,5.4-2.8-2.11-.62-4,2.32-4.5q-.09-.36-.21-.72c-4.08,1-5.87,4.54-3.1,6.64,3.14,2.37,6.12-1.61,4.84-6.91A33,33,0,0,0,34.62,51.49Z"/><path class="cls-1" d="M22.15,56.37C23.6,52,27,46.18,28.3,42.83c-1.61,3.21-5.6,9-7,13.36C21.57,56.24,21.87,56.3,22.15,56.37Z"/><path class="cls-1" d="M31.76,50.16l.6-.24c-1.52-2.7-3.16-5.29-4.06-7.09C29,44.72,30.41,47.4,31.76,50.16Z"/><path class="cls-1" d="M28,43.5c-1.78,3.3-5.34,8.6-6.68,12.69C23,52.17,26.51,46.85,28,43.5Z"/><path class="cls-1" d="M32.36,49.92c-1.38-2.45-2.86-4.81-3.79-6.57A46,46,0,0,0,32.36,49.92Z"/><path class="cls-1" d="M20.42,56.1c.29,0,.57,0,.85.09,1.43-4.38,5.42-10.15,7-13.36.9,1.8,2.54,4.39,4.06,7.09.46-.17.92-.34,1.38-.49-2.06-4.62-4.62-9.27-5.44-12C27.06,41.5,21.9,50,20.42,56.1Z"/><path class="cls-1" d="M21.16,54.81c2.15-5.48,4.76-9.46,7.14-14.19,1.51,3,3.41,5.6,4.93,8.58-1.58-3.45-3.6-7.06-4.93-10.58C26.22,44.14,22.94,49,21.16,54.81Z"/><path class="cls-1" d="M28.3,57.24c-1.84,0-1.14-2.87,1.16-4.22,3-1.77,8.6-2.7,11.17-3.3-2.63.46-8.27.71-11.72,2.78C26.62,53.87,24.93,57.24,28.3,57.24Z"/><path class="cls-1" d="M28.3,54c1.31,1.43,1.47,3.28,0,3.28,2.75,0,2.13-2.24.57-3.81A5.85,5.85,0,0,0,28.3,54Z"/><path class="cls-1" d="M41.27,56.24l.48,0c-.32-2.57-.89-5-1.12-6.57C40.81,51.69,41.13,54,41.27,56.24Z"/><path class="cls-1" d="M26.59,56.62c-.63-1.11.78-2.91,2.46-3.92C31.85,51,36,50.4,38.85,50c-2.9.37-7.14.85-9.94,2.53C27.23,53.51,25.87,55.58,26.59,56.62Z"/><path class="cls-1" d="M29.53,57c1.25-.61.6-2.31-.66-3.58C29.89,54.7,30.6,56.3,29.53,57Z"/><path class="cls-1" d="M41.61,56.28h.14c-.3-2.4-.82-4.69-1.07-6.24C40.88,51.59,41.31,53.88,41.61,56.28Z"/><path class="cls-1" d="M28.3,52c-2.69,1.94-3.82,6.84,0,6.84,3.24,0,2.92-3.52,1.11-5.77a5.14,5.14,0,0,0-.54.37c1.56,1.57,2.18,3.81-.57,3.81-3.38,0-1.68-3.37.61-4.74,3.45-2.07,9.09-2.32,11.72-2.78.23,1.54.8,4,1.11,6.57l1.3.15c0-4.32-.51-8.74.07-10.26C41.28,47.77,32.59,48.9,28.3,52Z"/><path class="cls-1" d="M42.55,47c-3.12,1.56-7.52,2.2-11,3.68,3.61-1.13,7.61-1.61,10.21-2.54,0,2.16.66,4.91.91,7.88C42.65,53.27,42.21,49.6,42.55,47Z"/><path class="cls-1" d="M12.88,66.35a15.75,15.75,0,0,1,2-2.32,6,6,0,0,1-.35-.66,13.54,13.54,0,0,0-2.07,2.54Z"/><path class="cls-1" d="M12.49,66a20.09,20.09,0,0,1,2-2.51l0-.08a13.54,13.54,0,0,0-2.07,2.54Z"/><path class="cls-1" d="M12.44,65.91a13.54,13.54,0,0,1,2.07-2.54,5.83,5.83,0,0,1-.28-.76,16.08,16.08,0,0,0-2.51,2.56Z"/><path class="cls-1" d="M15.66,57.52c0,.26,0,.52,0,.79a37,37,0,0,1,4.54-.42c3.65,0,6.13,2.16,4.09,3.7,3.32-2.5-.37-4.68-4-4.63A26.52,26.52,0,0,0,15.66,57.52Z"/><path class="cls-1" d="M21.76,58a6.15,6.15,0,0,0-.9-.11c-.44,3.06.61,5.79,3.41,3.68C22.52,62.85,21.37,60.85,21.76,58Z"/><path class="cls-1" d="M15.66,57.52a31.32,31.32,0,0,1,4.57-.31c2.93,0,5.82,1.18,5.23,3,.69-1.86-2.27-3.26-5.21-3.22A26.52,26.52,0,0,0,15.66,57.52Z"/><path class="cls-1" d="M23.4,62.12c-2,.84-2.66-1.61-2.54-4.21C20.47,60.63,21.25,63.09,23.4,62.12Z"/><path class="cls-1" d="M15.72,56.21c0,.43-.05.87-.06,1.31A26.52,26.52,0,0,1,20.25,57c3.65-.05,7.34,2.13,4,4.63-2.8,2.11-3.85-.62-3.41-3.68-.24,0-.48,0-.72,0-.31,4.35,2.34,7.21,5.12,5.11,3.14-2.37.42-6.53-4.84-6.9A30.2,30.2,0,0,0,15.72,56.21Z"/><path class="cls-1" d="M16.34,70c-3.56-2.78-7.82-8-10.5-10.25,2.44,2.58,6.49,8.3,10.06,11.07C16,70.56,16.19,70.29,16.34,70Z"/><path class="cls-1" d="M13.62,58.62l0-.67c-2.95.67-5.83,1.49-7.75,1.83C7.79,59.66,10.68,59.1,13.62,58.62Z"/><path class="cls-1" d="M6.34,60.33c2.47,2.77,6.23,7.93,9.56,10.52C12.77,67.87,9,62.79,6.34,60.33Z"/><path class="cls-1" d="M13.59,58c-2.68.61-5.3,1.34-7.19,1.72A42,42,0,0,0,13.59,58Z"/><path class="cls-1" d="M15.55,71.65c.11-.28.23-.54.35-.8-3.57-2.77-7.62-8.49-10.06-11.07,1.92-.34,4.8-1.16,7.75-1.83,0-.5,0-1,0-1.51C8.7,57.05,3.64,58.13.94,58.12,4.24,60.59,10.42,68.3,15.55,71.65Z"/><path class="cls-1" d="M14.61,70.53c-4.36-3.82-7.2-7.63-10.8-11.44C7,58.53,10,57.46,13.19,56.88c-3.65.49-7.57,1.37-11.2,1.6C6.39,62.24,9.83,67,14.61,70.53Z"/><path class="cls-1" d="M19,64.23c-.57,1.81-3,.24-3.5-2.46-.69-3.54.19-9.32.43-12.05-.39,2.74-1.91,8.39-1.08,12.44C15.43,64.85,18,67.56,19,64.23Z"/><path class="cls-1" d="M16,63.22c1.72-.86,3.46-.45,3,1,.85-2.72-1.39-2.8-3.31-1.74A7,7,0,0,0,16,63.22Z"/><path class="cls-1" d="M22.13,51.11l.19-.45c-2.46-.49-4.88-.68-6.36-.94C17.82,50.16,20,50.55,22.13,51.11Z"/><path class="cls-1" d="M17.94,65.72c-1.21.28-2.43-1.67-2.83-3.63-.67-3.29,0-7.54.53-10.53-.56,3-1.43,7.32-.76,10.6C15.29,64.13,16.77,66.11,17.94,65.72Z"/><path class="cls-1" d="M19.2,62.94c-.17-1.42-1.93-1.31-3.48-.45C17.2,61.87,18.88,61.67,19.2,62.94Z"/><path class="cls-1" d="M22.27,50.79l.05-.13c-2.29-.46-4.55-.65-6-.88C17.75,50.06,20,50.34,22.27,50.79Z"/><path class="cls-1" d="M14.23,62.61c.94,3.25,5.08,5.88,6.26,2.11,1-3.2-2.32-4-4.94-2.88a4.77,4.77,0,0,0,.17.65c1.92-1.06,4.16-1,3.31,1.74-1,3.33-3.6.62-4.15-2.07-.83-4,.69-9.7,1.08-12.44,1.48.26,3.9.45,6.36.94.18-.41.35-.82.54-1.23-4-1.35-8.16-2.2-9.37-3.25C14.37,48.48,12.72,57.42,14.23,62.61Z"/><path class="cls-1" d="M14.05,47c.47,3.56-.31,8.11,0,12,.08-3.9.88-8,.83-10.86,2,.71,4.7.87,7.49,1.53C19.84,48.83,16.33,48.13,14.05,47Z"/><path class="cls-1" d="M22.62,82.27A16.07,16.07,0,0,1,21.1,79.6a5.4,5.4,0,0,1-.72.14,14.9,14.9,0,0,0,1.69,2.83Z"/><path class="cls-1" d="M22.14,82.53a19.49,19.49,0,0,1-1.67-2.8h-.09a14.9,14.9,0,0,0,1.69,2.83Z"/><path class="cls-1" d="M22.07,82.57a14.9,14.9,0,0,1-1.69-2.83,5.11,5.11,0,0,1-.78.05,17.25,17.25,0,0,0,1.57,3.26Z"/><path class="cls-1" d="M15.38,76.8l.72.26a43.1,43.1,0,0,1,1-4.61c1.08-3.62,3.88-5.39,4.66-2.9-1.27-4-4.41-1.08-5.49,2.54A30.54,30.54,0,0,0,15.38,76.8Z"/><path class="cls-1" d="M17.73,70.92a6.76,6.76,0,0,0-.38.86C20,73.16,22.84,73,21.78,69.55,22.39,71.67,20.2,72.19,17.73,70.92Z"/><path class="cls-1" d="M15.38,76.8a35.37,35.37,0,0,1,1.13-4.61c.87-2.91,2.88-5.38,4.34-4.25-1.48-1.26-3.69,1.24-4.56,4.15A30.54,30.54,0,0,0,15.38,76.8Z"/><path class="cls-1" d="M22,70.58c.16,2.2-2.29,2.12-4.64,1.2C19.72,73,22.22,73,22,70.58Z"/><path class="cls-1" d="M14.2,76.33l1.18.47a30.54,30.54,0,0,1,.91-4.71c1.08-3.62,4.22-6.59,5.49-2.54C22.85,73,20,73.16,17.35,71.78c-.09.23-.17.47-.24.71C21,74.14,24.43,72.4,23.37,69c-1.2-3.84-5.85-2.44-7.82,2.63A34,34,0,0,0,14.2,76.33Z"/><path class="cls-1" d="M27.05,80c-3.64,2.66-9.72,5.26-12.63,7.2,3.12-1.61,9.61-3.85,13.25-6.51C27.45,80.45,27.24,80.22,27.05,80Z"/><path class="cls-1" d="M15.76,79.15,15.14,79c-.3,3.12-.43,6.22-.72,8.22C14.92,85.23,15.29,82.21,15.76,79.15Z"/><path class="cls-1" d="M15.08,86.86c3.3-1.58,9.19-3.69,12.59-6.18C24,82.85,18.14,85,15.08,86.86Z"/><path class="cls-1" d="M15.14,79c-.27,2.83-.41,5.65-.65,7.64A46.75,46.75,0,0,0,15.14,79Z"/><path class="cls-1" d="M28.3,81.27c-.22-.19-.43-.39-.63-.59-3.64,2.66-10.13,4.9-13.25,6.51.28-2,.42-5.1.72-8.22-.46-.13-.93-.28-1.39-.43-.95,5-1.51,10.31-2.36,13C14.67,89,23.64,85.31,28.3,81.27Z"/><path class="cls-1" d="M27,81.86C22.13,85,17.77,86.61,13.17,89c.48-3.35.41-6.61.86-9.94-.67,3.75-1.08,7.9-2,11.56C16.84,87.41,22.24,85.48,27,81.86Z"/><path class="cls-1" d="M22.57,75.54c1.49,1.12-.7,3-3.33,2.7-3.46-.42-8.48-3.07-10.9-4.15,2.38,1.23,7.09,4.47,11.06,4.91C22,79.29,25.3,77.6,22.57,75.54Z"/><path class="cls-1" d="M20.72,78.19c-.26-2,.66-3.55,1.85-2.65-2.22-1.68-3,.5-2.61,2.73A6.1,6.1,0,0,0,20.72,78.19Z"/><path class="cls-1" d="M11.52,68.43l-.36-.33C10,70.37,9,72.71,8.34,74.09,9.31,72.38,10.35,70.34,11.52,68.43Z"/><path class="cls-1" d="M23.6,77.08c-.11,1.28-2.28,1.88-4.2,1.67C16.18,78.4,12.51,76.4,9.92,75c2.56,1.47,6.26,3.67,9.48,4C21.33,79.21,23.6,78.36,23.6,77.08Z"/><path class="cls-1" d="M21.45,75c-1.36-.27-1.8,1.5-1.49,3.3C19.85,76.62,20.18,74.89,21.45,75Z"/><path class="cls-1" d="M11.26,68.19l-.1-.09c-1.12,2.12-2,4.29-2.68,5.69C9.2,72.43,10.14,70.31,11.26,68.19Z"/><path class="cls-1" d="M19.6,79.78c3.27.08,7-3.2,3.87-5.53-2.62-2-4.35,1.06-4.16,4,.22,0,.43,0,.65,0-.38-2.23.39-4.41,2.61-2.73C25.3,77.6,22,79.29,19.4,79c-4-.44-8.68-3.68-11.06-4.91.69-1.38,1.61-3.72,2.82-6l-1-.91c-2.46,3.48-4.54,7.38-5.87,8.25C6.71,75.28,14.38,79.67,19.6,79.78Z"/><path class="cls-1" d="M5.24,75.13c3.41.64,7.33,2.81,11,3.74-3.56-1.28-7.07-3.34-9.69-4.17,1.25-1.72,2.24-4.38,3.71-6.93C8.72,70,7,73.23,5.24,75.13Z"/><path class="cls-1" d="M40.21,77.58a14.86,14.86,0,0,1-2.92.66c0,.26,0,.51-.09.76a13.29,13.29,0,0,0,3.11-.79C40.28,78,40.24,77.79,40.21,77.58Z"/><path class="cls-1" d="M40.3,78.12a17.55,17.55,0,0,1-3.09.79s0,.06,0,.09a12.85,12.85,0,0,0,3.11-.8Z"/><path class="cls-1" d="M40.31,78.2a12.73,12.73,0,0,1-3.11.8,6.36,6.36,0,0,1-.2.78,15,15,0,0,0,3.47-.54C40.42,78.9,40.37,78.55,40.31,78.2Z"/><path class="cls-1" d="M33,83l.46-.63A39.08,39.08,0,0,1,29.51,80c-3-2.19-3.73-5.49-1.21-5.49-4.11,0-2.35,4,.63,6.2A28.38,28.38,0,0,0,33,83Z"/><path class="cls-1" d="M28.3,78.9a8.13,8.13,0,0,0,.67.63c2.09-2.2,2.79-5-.67-5C30.43,74.52,30.22,76.84,28.3,78.9Z"/><path class="cls-1" d="M33,83a32.45,32.45,0,0,1-3.87-2.54c-2.4-1.76-4.05-4.51-2.56-5.6-1.61,1.08,0,4,2.4,5.79A28.38,28.38,0,0,0,33,83Z"/><path class="cls-1" d="M29.3,74.58c2.07.53,1.24,2.92-.33,5C30.82,77.57,31.59,75.1,29.3,74.58Z"/><path class="cls-1" d="M32.17,84.05,33,83a28.38,28.38,0,0,1-4-2.35c-3-2.19-4.74-6.2-.63-6.2,3.46,0,2.76,2.85.67,5,.18.16.37.31.57.46,2.72-3.33,2.19-7.26-1.24-7.26-3.88,0-4,5,0,8.54A30.19,30.19,0,0,0,32.17,84.05Z"/><path class="cls-1" d="M39.49,72.49c1.31,4.42,1.81,11.22,2.69,14.7-.51-3.58-.56-10.68-1.87-15.1C40,72.24,39.76,72.37,39.49,72.49Z"/><path class="cls-1" d="M35.23,83.38l-.35.56c2.76,1.25,5.55,2.35,7.3,3.25C40.53,86.09,37.88,84.79,35.23,83.38Z"/><path class="cls-1" d="M42.08,86.44c-.42-3.75-.54-10.22-1.77-14.35C41.16,76.42,41.36,82.85,42.08,86.44Z"/><path class="cls-1" d="M34.88,83.94c2.5,1.14,5,2.15,6.79,3A42.52,42.52,0,0,0,34.88,83.94Z"/><path class="cls-1" d="M41,71.65c-.24.16-.49.31-.73.44,1.31,4.42,1.36,11.52,1.87,15.1-1.74-.9-4.54-2-7.3-3.25-.27.41-.55.83-.84,1.24,4.28,2.48,9,4.68,11.17,6.34C43.94,87.51,43.3,77.5,41,71.65Z"/><path class="cls-1" d="M41.17,73.14C42.54,78.89,42.68,83.7,43.43,89c-2.92-1.51-5.92-2.45-8.84-3.93,3.23,1.83,6.91,3.51,10,5.55C43.13,84.87,43,78.93,41.17,73.14Z"/><path class="cls-1" d="M34,75.54c1.48-1.12,2.54,1.62,1.44,4.12C34,83,30,87.09,28.3,89.15c1.87-2,6.29-5.62,7.91-9.41C37.29,77.23,36.75,73.48,34,75.54Z"/><path class="cls-1" d="M35.88,78.19C34,77.84,32.83,76.44,34,75.54c-2.23,1.68-.47,3.11,1.69,3.42A5.56,5.56,0,0,0,35.88,78.19Z"/><path class="cls-1" d="M24.09,84.26l-.41.25C25.4,86.4,27.25,88,28.3,89.15,27,87.66,25.49,86,24.09,84.26Z"/><path class="cls-1" d="M35.76,75c1.13.51,1,2.83.23,4.67-1.32,3.06-4.29,6.07-6.39,8.18,2.14-2.06,5.3-5,6.61-8.11C37,77.9,36.92,75.4,35.76,75Z"/><path class="cls-1" d="M33.16,76.47c-.66,1.26.82,2.24,2.56,2.5C34.18,78.56,32.7,77.7,33.16,76.47Z"/><path class="cls-1" d="M23.8,84.44l-.12.07c1.6,1.76,3.32,3.3,4.39,4.4C27,87.78,25.4,86.2,23.8,84.44Z"/><path class="cls-1" d="M37,79.78c1.07-3.2-.78-7.86-3.87-5.53-2.63,2-.38,4.63,2.36,5.35a4.88,4.88,0,0,0,.23-.64c-2.16-.31-3.92-1.74-1.69-3.42,2.72-2.06,3.26,1.69,2.18,4.2-1.62,3.79-6,7.43-7.91,9.41-1.05-1.11-2.9-2.75-4.62-4.64-.37.23-.75.45-1.13.67,2.44,3.5,5.36,6.75,5.75,8.34C28.89,91.12,35.28,84.9,37,79.78Z"/><path class="cls-1" d="M28.3,92.53c1.64-3.17,4.84-6.38,6.82-9.7-2.28,3.12-5.25,6-6.82,8.28-1.19-1.76-3.32-3.57-5.2-5.81C24.66,87.51,27.1,90.2,28.3,92.53Z"/><path class="cls-1" d="M41.34,58.75a16.8,16.8,0,0,1-.29,3.09,5,5,0,0,1,.66.32A14.84,14.84,0,0,0,42,58.84Z"/><path class="cls-1" d="M41.87,58.83a19.39,19.39,0,0,1-.23,3.29l.07,0A14.84,14.84,0,0,0,42,58.84Z"/><path class="cls-1" d="M42,58.84a14.84,14.84,0,0,1-.24,3.32,5.11,5.11,0,0,1,.66.45A17.7,17.7,0,0,0,43,59Z"/><path class="cls-1" d="M44.09,67.6,43.66,67a40.79,40.79,0,0,1-3.44,3.11c-2.92,2.26-6.18,2-5.4-.5-1.27,4,3,3.56,5.88,1.29A28.18,28.18,0,0,0,44.09,67.6Z"/><path class="cls-1" d="M38.87,70.92a8.06,8.06,0,0,0,.79-.46c-1.37-2.75-3.77-4.32-4.84-.91C35.52,67.47,37.59,68.39,38.87,70.92Z"/><path class="cls-1" d="M44.09,67.6a33,33,0,0,1-3.52,3c-2.35,1.82-5.37,2.59-5.92.78.5,1.93,3.69,1.26,6.05-.57A28.18,28.18,0,0,0,44.09,67.6Z"/><path class="cls-1" d="M35.22,68.6c1.13-1.88,3.06-.32,4.44,1.86C38.44,68,36.41,66.5,35.22,68.6Z"/><path class="cls-1" d="M44.78,68.69c-.22-.36-.45-.73-.69-1.09a28.18,28.18,0,0,1-3.39,3.25c-2.92,2.27-7.15,2.76-5.88-1.29,1.07-3.42,3.47-1.85,4.84.9l.6-.43c-2.22-3.71-6-4.4-7-1C32,72.85,36.58,74.56,41,71.65A30,30,0,0,0,44.78,68.69Z"/><path class="cls-1" d="M36.46,57.89c4.45.08,10.84,1.68,14.3,1.89-3.44-.6-10-2.75-14.41-2.82C36.4,57.28,36.44,57.59,36.46,57.89Z"/><path class="cls-1" d="M45.12,65.46l.4.52c2-2.34,3.87-4.76,5.24-6.2C49.24,61.06,47.23,63.28,45.12,65.46Z"/><path class="cls-1" d="M50,59.64C46.47,58.9,40.51,57,36.35,57,40.57,57.46,46.53,59.25,50,59.64Z"/><path class="cls-1" d="M45.52,66c1.82-2.12,3.53-4.31,4.85-5.78A44.88,44.88,0,0,0,45.52,66Z"/><path class="cls-1" d="M36.17,56.1c.08.29.13.58.18.86,4.45.07,11,2.22,14.41,2.82-1.37,1.44-3.24,3.86-5.24,6.2.3.39.59.8.88,1.21,3.59-3.46,7.06-7.42,9.26-9.07C51.59,58.14,42.23,55.67,36.17,56.1Z"/><path class="cls-1" d="M37.58,56.43c5.69.43,10.14,1.78,15.2,2.66-2.28,2.42-4.07,5.1-6.33,7.52,2.67-2.63,5.35-5.74,8.16-8.13C48.92,58.12,43.46,56.39,37.58,56.43Z"/><path class="cls-1" d="M37.56,64.23c-.56-1.81,2.27-2,4.22-.15,2.57,2.44,5.14,7.65,6.48,10-1.23-2.46-3.2-8-6.17-10.72C40.12,61.53,36.52,60.9,37.56,64.23Z"/><path class="cls-1" d="M40.56,63.22c-.9,1.73-2.54,2.46-3,1,.85,2.71,2.71,1.41,3.67-.61A4.23,4.23,0,0,0,40.56,63.22Z"/><path class="cls-1" d="M42.48,76.73c0,.16.07.32.11.48,2.26-1.1,4.33-2.43,5.67-3.12C46.51,74.87,44.51,75.89,42.48,76.73Z"/><path class="cls-1" d="M37.6,62.35c.82-1,2.91-.13,4.35,1.22,2.4,2.24,4.24,6.11,5.53,8.83-1.24-2.75-3-6.79-5.39-9C40.65,62,38.33,61.32,37.6,62.35Z"/><path class="cls-1" d="M38.15,65.37c1,1,2.31-.12,3.08-1.75C40.38,65,39.13,66.21,38.15,65.37Z"/><path class="cls-1" d="M42.56,77.07l0,.14c2.1-1,4-2.25,5.38-3C46.62,74.91,44.66,76,42.56,77.07Z"/><path class="cls-1" d="M42.37,62.61c-2.6-2.06-7.44-1.67-6.26,2.11,1,3.2,4.12,1.8,5.63-.69a6.11,6.11,0,0,0-.51-.41c-1,2-2.82,3.32-3.67.61-1-3.33,2.56-2.7,4.53-.86,3,2.77,4.94,8.26,6.17,10.72-1.34.69-3.41,2-5.67,3.12.09.44.17.88.26,1.33,4-1.33,7.84-3.21,9.42-3.1C50.25,74.12,46.53,65.88,42.37,62.61Z"/><path class="cls-1" d="M51.36,75.13C49,72.54,47,68.38,44.58,65.4c2.15,3.21,3.83,7,5.48,9.3-2,.62-4.3,2.17-6.93,3.33C45.63,77.18,48.86,75.6,51.36,75.13Z"/></svg>