<svg id="Layer_23" data-name="Layer 23" xmlns="http://www.w3.org/2000/svg" viewBox="0 0 131 131"><defs><style>.cls-1{fill:#ef8429;}</style></defs><path class="cls-1" d="M44.88,85.86A49.14,49.14,0,0,1,33.31,66.39,47.35,47.35,0,0,1,31,48.94a4,4,0,0,1,1.95-3.41A37.69,37.69,0,0,1,46,40.35c3.48-.74,7-1.05,10.55-1.66a2.85,2.85,0,0,0,1.73-1.1c1.33-2,2.51-2.49,4.14-1.64s2,2.3,1,4.33a6.67,6.67,0,0,0,1.16,8,7,7,0,0,0,7.72,2c2-.62,3-2.23,3.87-4,.47-.95.82-2,1.34-2.88a5.9,5.9,0,0,1,8.4-2.1c2.9,1.74,4.09,5.94,2.2,8.63a8.76,8.76,0,0,1-3.29,2.32,20.06,20.06,0,0,1-3.2,1c-2.37.73-4.26,2-4.68,4.65-.46,3,.23,5.52,2.77,7.31a9,9,0,0,0,2.44,1.13c.85.26,1.13.65.81,1.51-3.32,8.91-8.41,16.55-16.1,22.3a3.2,3.2,0,0,1-.52.25c0-1.15,0-2.25,0-3.34A6.19,6.19,0,0,0,64.22,82a8.25,8.25,0,0,1-3-6.26c0-1.3-.6-1.76-1.89-1.72-2.39.07-4.79,0-7.18,0-1,0-1.45.33-1.53,1.36a10.58,10.58,0,0,1-3.73,7.33A13.76,13.76,0,0,0,44.88,85.86ZM66,68.33l.29-.17a4.16,4.16,0,0,0-.12-.72c-.87-2.16-1.76-4.31-2.6-6.48-.24-.61-.62-1.61.56-1.45,1.7.24,1.73-.65,1.67-1.83a23.86,23.86,0,0,1,0-2.39c.05-.9-.33-1.21-1.22-1.2-3.72,0-7.44,0-11.16,0a9.66,9.66,0,0,0-6.53,2.59c-1.93,1.79-1.72,2.62.7,3.55.4.15.82.23,1.22.38,1.94.76,4.18,1.1,5,3.49a.81.81,0,0,0,.6.43,14.47,14.47,0,0,0,3.79-.18c.49-.13.71-1.28,1.06-2a6,6,0,0,1,.28-.57c.63-1,1.22-1,1.88-.06.51.74,1,1.53,1.48,2.27C63.87,65.5,64.92,66.91,66,68.33ZM55.84,71.76h0a23.8,23.8,0,0,1,2.39,0c1.25.14,1.79-.33,1.64-1.61a9.74,9.74,0,0,1,0-1.43c0-1.08-.52-1.55-1.56-1.54H53.21c-.89,0-1.3.42-1.35,1.37-.17,3.21-.2,3.21,3,3.2ZM68,54.75V59c3.23-.07,3.68-.31,3.68-1.9C71.7,55.05,71.41,54.86,68,54.75ZM79.82,43a5.1,5.1,0,0,1,6.79.7A4,4,0,0,0,79.82,43Z"/><path class="cls-1" d="M69.85,48.63a5.22,5.22,0,1,1,5.23-5.12A5.21,5.21,0,0,1,69.85,48.63Zm-.39-9.39c-2.38-.27-4.51,1.9-3.74,4.1A4.68,4.68,0,0,1,69.46,39.24Z"/><path class="cls-1" d="M46.57,87,49,89.09c0-.75,0-1.19,0-1.62-.22-2.08,1.38-3.1,2.58-4.33.16-.16,1.07,0,1.29.35a36.84,36.84,0,0,0,10.18,9c-1.36.64-2.57,1.3-3.85,1.77a2.76,2.76,0,0,1-1.84,0A39.82,39.82,0,0,1,46.6,87.53a1.69,1.69,0,0,1-.23-.34Z"/><path class="cls-1" d="M83.7,64.49a5,5,0,1,1,5.09-4.87A5.06,5.06,0,0,1,83.7,64.49Z"/><path class="cls-1" d="M92.9,37.19a3.12,3.12,0,0,1-3.18,3.06,3.09,3.09,0,0,1,.07-6.18A3.09,3.09,0,0,1,92.9,37.19Z"/><path class="cls-1" d="M48.49,98.11a53.1,53.1,0,0,1,19.63,0A54.64,54.64,0,0,1,48.49,98.11Z"/><path class="cls-1" d="M65.87,29.65a3,3,0,0,1,2.9,2.8,3,3,0,0,1-3,2.88,3.22,3.22,0,0,1-2.87-2.89A3.15,3.15,0,0,1,65.87,29.65Z"/><path class="cls-1" d="M96.71,53.49a3,3,0,0,1-2.78,2.93,3.12,3.12,0,0,1-3-2.8,3,3,0,0,1,2.82-2.89A2.84,2.84,0,0,1,96.71,53.49Z"/><path class="cls-1" d="M76.64,34.91A2.88,2.88,0,0,1,74,32.28,2.65,2.65,0,0,1,76.7,29.6a2.7,2.7,0,0,1,2.62,2.66A2.89,2.89,0,0,1,76.64,34.91Z"/><path class="cls-1" d="M72.93,25.16a2.63,2.63,0,0,1-2.38-2.53A3.11,3.11,0,0,1,73,20.23a3,3,0,0,1,2.48,2.54A2.73,2.73,0,0,1,72.93,25.16Z"/><path class="cls-1" d="M89.7,30.9a2.64,2.64,0,0,1-2.38-2.53A3.1,3.1,0,0,1,89.77,26a3,3,0,0,1,2.49,2.53A2.74,2.74,0,0,1,89.7,30.9Z"/><path class="cls-1" d="M95.75,41.63a2.35,2.35,0,0,1,2.3-2,2.5,2.5,0,0,1,2.07,2.27,2.54,2.54,0,0,1-2.35,2A2.41,2.41,0,0,1,95.75,41.63Z"/><path class="cls-1" d="M81,21.44a2.36,2.36,0,0,1,2.31-2,2.52,2.52,0,0,1,2.07,2.27,2.56,2.56,0,0,1-2.35,2A2.42,2.42,0,0,1,81,21.44Z"/><path class="cls-1" d="M65.1,25.88a1.52,1.52,0,0,1,1.49-1.29,1.63,1.63,0,0,1,1.35,1.47,1.66,1.66,0,0,1-1.53,1.29A1.55,1.55,0,0,1,65.1,25.88Z"/><path class="cls-1" d="M53,55.53l1.88.9c-.27.48-.54,1-.83,1.43a3.8,3.8,0,0,1-.43.47c-1.54,1.68-3,1.88-4.9.62-.63-.42-.91-1.09-.09-1.5C50.09,56.72,51.6,56.15,53,55.53Z"/><path class="cls-1" d="M7.65,107.72A2.93,2.93,0,0,1,5,109.26a2.91,2.91,0,0,1-2.31-1,3.88,3.88,0,0,1-.87-2.63,4.23,4.23,0,0,1,.4-1.89,3,3,0,0,1,1.11-1.28A3,3,0,0,1,5,102a3.34,3.34,0,0,1,.84.11,2.87,2.87,0,0,1,.74.3,3.26,3.26,0,0,1,.62.49,2.79,2.79,0,0,1,.47.64l-.93.54a2,2,0,0,0-.72-.76,2.09,2.09,0,0,0-1-.26,1.76,1.76,0,0,0-1.47.71A2.92,2.92,0,0,0,3,105.63a3,3,0,0,0,.56,1.87,1.78,1.78,0,0,0,1.47.71,1.94,1.94,0,0,0,1-.27,1.89,1.89,0,0,0,.72-.76Z"/><path class="cls-1" d="M9.38,109.15H8.33v-7.38H9.38Z"/><path class="cls-1" d="M11,104.64a2.29,2.29,0,0,1,1.78-.75,2.3,2.3,0,0,1,1.79.75,2.72,2.72,0,0,1,.69,1.94,2.46,2.46,0,0,1,0,.26H11.4a1.73,1.73,0,0,0,.42,1.06,1.24,1.24,0,0,0,.93.38,1.79,1.79,0,0,0,.57-.09,1.17,1.17,0,0,0,.46-.26,1.37,1.37,0,0,0,.34-.44L15,108a2.35,2.35,0,0,1-.94.91,2.7,2.7,0,0,1-1.35.32,2.46,2.46,0,0,1-1.28-.33,2.22,2.22,0,0,1-.87-1,3,3,0,0,1-.31-1.4A2.76,2.76,0,0,1,11,104.64Zm2.64.53a1.39,1.39,0,0,0-1.7,0,1.51,1.51,0,0,0-.46.83h2.62A1.51,1.51,0,0,0,13.61,105.17Z"/><path class="cls-1" d="M20.1,109l-1,.27q0-.2-.09-.45a2,2,0,0,1-1.26.45,1.92,1.92,0,0,1-1.31-.43,1.59,1.59,0,0,1-.5-1.24,1.44,1.44,0,0,1,.53-1.13A2.28,2.28,0,0,1,18,106a5,5,0,0,1,.94.09v-.42a1,1,0,0,0,0-.3.66.66,0,0,0-.16-.26.73.73,0,0,0-.28-.19,1.33,1.33,0,0,0-.42-.06c-.5,0-.81.15-.92.46l-1-.26a1.15,1.15,0,0,1,.16-.34,2.8,2.8,0,0,1,.34-.37,1.71,1.71,0,0,1,.57-.33,2.56,2.56,0,0,1,.82-.13,2,2,0,0,1,1.46.51,1.7,1.7,0,0,1,.54,1.27v2.23A4.12,4.12,0,0,0,20.1,109ZM18,106.84a1,1,0,0,0-.74.23.67.67,0,0,0-.22.49q0,.72.84.72a1.62,1.62,0,0,0,.64-.12,1,1,0,0,0,.42-.28V107A4.24,4.24,0,0,0,18,106.84Z"/><path class="cls-1" d="M25.43,109.15H24.37v-3a2,2,0,0,0-.11-.72.81.81,0,0,0-.33-.39,1.15,1.15,0,0,0-.55-.12,1.31,1.31,0,0,0-.9.34,1.15,1.15,0,0,0-.38.89v3H21V104H22.1v.56a1.9,1.9,0,0,1,2.81-.1,2.35,2.35,0,0,1,.52,1.65Z"/><path class="cls-1" d="M27.55,102v1H26.5v-1Zm0,2v5.15H26.5V104Z"/><path class="cls-1" d="M33.07,109.15H32v-3a1.8,1.8,0,0,0-.12-.72.72.72,0,0,0-.33-.39,1.12,1.12,0,0,0-.55-.12,1.27,1.27,0,0,0-.89.34,1.12,1.12,0,0,0-.38.89v3H28.68V104h1.06v.56a1.74,1.74,0,0,1,1.4-.67,1.82,1.82,0,0,1,1.41.57,2.4,2.4,0,0,1,.52,1.65Z"/><path class="cls-1" d="M37.76,104h1.05v5.15a2.32,2.32,0,0,1-.67,1.76,2.49,2.49,0,0,1-1.79.65,2.85,2.85,0,0,1-.94-.15,2.3,2.3,0,0,1-.77-.42,2.46,2.46,0,0,1-.58-.66l.91-.51a1.64,1.64,0,0,0,2.42.39,1.4,1.4,0,0,0,.37-1.06v-.58a1.78,1.78,0,0,1-1.47.69,2.15,2.15,0,0,1-1.73-.76,3.16,3.16,0,0,1,0-3.84,2.16,2.16,0,0,1,1.73-.77,1.76,1.76,0,0,1,1.47.7Zm-2.39,3.82a1.25,1.25,0,0,0,1,.46,1.27,1.27,0,0,0,1-.46,1.94,1.94,0,0,0,.37-1.25,1.86,1.86,0,0,0-.37-1.23,1.24,1.24,0,0,0-1-.46,1.35,1.35,0,0,0-.73.2,1.31,1.31,0,0,0-.48.6,2.13,2.13,0,0,0-.17.9A1.93,1.93,0,0,0,35.37,107.82Z"/><path class="cls-1" d="M48,103.47l-1.07.28a.83.83,0,0,0-.48-.5,2.07,2.07,0,0,0-.94-.19,1.8,1.8,0,0,0-1,.25.75.75,0,0,0-.39.65.73.73,0,0,0,.37.65,2.16,2.16,0,0,0,1,.28,3.73,3.73,0,0,1,2.12.64,1.83,1.83,0,0,1,.76,1.55,1.89,1.89,0,0,1-.8,1.58,3.4,3.4,0,0,1-2.1.6,3.55,3.55,0,0,1-1.85-.44,2,2,0,0,1-1-1.2l1.07-.29a1,1,0,0,0,.59.64,2.55,2.55,0,0,0,1.16.24,2.35,2.35,0,0,0,1.26-.31.94.94,0,0,0,.48-.82.92.92,0,0,0-.45-.8,2.62,2.62,0,0,0-1.3-.34,3.29,3.29,0,0,1-1.87-.58A1.7,1.7,0,0,1,43,104a1.73,1.73,0,0,1,.71-1.42,2.94,2.94,0,0,1,1.84-.54,3.09,3.09,0,0,1,1.64.4A1.79,1.79,0,0,1,48,103.47Z"/><path class="cls-1" d="M51.77,103.89a2.14,2.14,0,0,1,1.72.77,3.16,3.16,0,0,1,0,3.84,2.13,2.13,0,0,1-1.72.76,1.79,1.79,0,0,1-1.47-.69v2.89H49.24V104H50.3v.59A1.77,1.77,0,0,1,51.77,103.89Zm-.09,4.39a1.27,1.27,0,0,0,1.21-.8,2.29,2.29,0,0,0,.17-.9,1.87,1.87,0,0,0-.38-1.24,1.2,1.2,0,0,0-1-.46,1.23,1.23,0,0,0-1.22.8,2.29,2.29,0,0,0-.16.9,1.93,1.93,0,0,0,.37,1.24A1.25,1.25,0,0,0,51.68,108.28Z"/><path class="cls-1" d="M55.53,104.64a2.5,2.5,0,0,1,3.57,0,2.72,2.72,0,0,1,.69,1.94,2.46,2.46,0,0,1,0,.26H56a1.68,1.68,0,0,0,.43,1.06,1.24,1.24,0,0,0,.93.38,1.69,1.69,0,0,0,.56-.09,1.21,1.21,0,0,0,.47-.26,1.37,1.37,0,0,0,.34-.44l.91.54a2.33,2.33,0,0,1-.93.91,2.75,2.75,0,0,1-1.35.32,2.53,2.53,0,0,1-1.29-.33,2.35,2.35,0,0,1-.87-1,3.1,3.1,0,0,1-.3-1.4A2.72,2.72,0,0,1,55.53,104.64Zm2.64.53a1.31,1.31,0,0,0-.85-.29,1.27,1.27,0,0,0-.85.29A1.52,1.52,0,0,0,56,106h2.63A1.57,1.57,0,0,0,58.17,105.17Z"/><path class="cls-1" d="M62.94,103.89a2.5,2.5,0,0,1,1.24.3A2.21,2.21,0,0,1,65,105l-.91.52a1.23,1.23,0,0,0-1.18-.67,1.21,1.21,0,0,0-1,.46,1.86,1.86,0,0,0-.37,1.23,1.94,1.94,0,0,0,.37,1.25,1.34,1.34,0,0,0,2.18-.22l.91.52a2.21,2.21,0,0,1-.85.84,2.5,2.5,0,0,1-1.24.3,2.46,2.46,0,0,1-1.28-.33,2.22,2.22,0,0,1-.87-1,3,3,0,0,1-.31-1.4,2.76,2.76,0,0,1,.68-1.94A2.29,2.29,0,0,1,62.94,103.89Z"/><path class="cls-1" d="M66.76,102v1H65.7v-1Zm0,2v5.15H65.7V104Z"/><path class="cls-1" d="M71.84,109l-1,.27q0-.2-.09-.45a2,2,0,0,1-1.26.45,1.92,1.92,0,0,1-1.31-.43,1.59,1.59,0,0,1-.5-1.24,1.44,1.44,0,0,1,.53-1.13,2.28,2.28,0,0,1,1.52-.46,5,5,0,0,1,.94.09v-.42a1,1,0,0,0,0-.3,1,1,0,0,0-.15-.26.86.86,0,0,0-.29-.19,1.33,1.33,0,0,0-.42-.06c-.5,0-.81.15-.92.46l-1-.26a1,1,0,0,1,.17-.34,2.15,2.15,0,0,1,.33-.37,1.71,1.71,0,0,1,.57-.33,2.56,2.56,0,0,1,.82-.13,2,2,0,0,1,1.46.51,1.7,1.7,0,0,1,.54,1.27v2.23A4.12,4.12,0,0,0,71.84,109Zm-2.13-2.15a1,1,0,0,0-.74.23.67.67,0,0,0-.22.49q0,.72.84.72a1.62,1.62,0,0,0,.64-.12,1,1,0,0,0,.42-.28V107A4.24,4.24,0,0,0,69.71,106.84Z"/><path class="cls-1" d="M73.84,109.15H72.78v-7.38h1.06Z"/><path class="cls-1" d="M76,102v1H75v-1Zm0,2v5.15H75V104Z"/><path class="cls-1" d="M80.94,105l-1,.27a.56.56,0,0,0-.32-.32,1.55,1.55,0,0,0-.61-.11,1.45,1.45,0,0,0-.37,0,.78.78,0,0,0-.28.11.55.55,0,0,0-.19.18.46.46,0,0,0-.06.23.44.44,0,0,0,.25.4A1.36,1.36,0,0,0,79,106a2.9,2.9,0,0,1,1.64.47,1.39,1.39,0,0,1,.6,1.18,1.42,1.42,0,0,1-.62,1.2,2.73,2.73,0,0,1-1.63.45,2.88,2.88,0,0,1-1.43-.33,1.51,1.51,0,0,1-.75-.89l1-.28a.71.71,0,0,0,.4.4,2,2,0,0,0,.77.14,1.64,1.64,0,0,0,.85-.2.59.59,0,0,0,.32-.51.51.51,0,0,0-.15-.37.83.83,0,0,0-.41-.24,2.23,2.23,0,0,0-.62-.1,3,3,0,0,1-1-.22,1.53,1.53,0,0,1-.69-.51,1.26,1.26,0,0,1-.24-.77,1.29,1.29,0,0,1,.55-1.08,2.34,2.34,0,0,1,1.44-.41,2.49,2.49,0,0,1,1.27.3A1.36,1.36,0,0,1,80.94,105Z"/><path class="cls-1" d="M84.3,109.19a1.51,1.51,0,0,1-.48.07,1.63,1.63,0,0,1-.78-.17,1.18,1.18,0,0,1-.51-.48,1.33,1.33,0,0,1-.19-.71v-3h-.82v-1h.82v-1.46H83.4V104h1.14v1H83.4v3a.37.37,0,0,0,.11.27.45.45,0,0,0,.31.11.54.54,0,0,0,.22,0Z"/><path class="cls-1" d="M90.51,102.11a2.53,2.53,0,0,1,1.77.62,2.31,2.31,0,0,1,0,3.23,2.53,2.53,0,0,1-1.77.62H89.32v2.57H88.2v-7Zm0,3.45a1.37,1.37,0,0,0,.92-.31,1.33,1.33,0,0,0,0-1.82,1.41,1.41,0,0,0-.92-.3H89.32v2.43Z"/><path class="cls-1" d="M94.72,106.27v2.88H93.66V104h1.06v.5a1.39,1.39,0,0,1,1.17-.61,2.08,2.08,0,0,1,1,.25l-.52.91a1,1,0,0,0-.61-.17.93.93,0,0,0-.77.38A1.61,1.61,0,0,0,94.72,106.27Z"/><path class="cls-1" d="M97.55,104.64a2.5,2.5,0,0,1,3.57,0,3.07,3.07,0,0,1,0,3.88,2.29,2.29,0,0,1-1.79.74,2.53,2.53,0,0,1-1.29-.33,2.35,2.35,0,0,1-.87-1,3.1,3.1,0,0,1-.3-1.4A2.72,2.72,0,0,1,97.55,104.64Zm.78,3.18a1.23,1.23,0,0,0,1,.46,1.25,1.25,0,0,0,1-.46,1.89,1.89,0,0,0,.38-1.25,1.81,1.81,0,0,0-.38-1.23,1.22,1.22,0,0,0-1-.46,1.34,1.34,0,0,0-.72.2,1.31,1.31,0,0,0-.48.6,2.13,2.13,0,0,0-.18.9A1.93,1.93,0,0,0,98.33,107.82Z"/><path class="cls-1" d="M105.47,109.15h-1.54L102.05,104h1.12l1.26,3.46.26.75h0c.11-.3.19-.55.26-.75l1.27-3.46h1.12Z"/><path class="cls-1" d="M108.88,102v1h-1.06v-1Zm0,2v5.15h-1.06V104Z"/><path class="cls-1" d="M113.64,104.59v-2.82h1v7.38h-1v-.58a1.79,1.79,0,0,1-1.47.69,2.18,2.18,0,0,1-1.74-.76,3.2,3.2,0,0,1,0-3.84,2.19,2.19,0,0,1,1.74-.77A1.77,1.77,0,0,1,113.64,104.59Zm-2.4,3.23a1.34,1.34,0,0,0,2,0,1.94,1.94,0,0,0,.38-1.25,1.86,1.86,0,0,0-.38-1.23,1.23,1.23,0,0,0-1-.46,1.32,1.32,0,0,0-.72.2,1.4,1.4,0,0,0-.49.6,2.29,2.29,0,0,0-.17.9A2,2,0,0,0,111.24,107.82Z"/><path class="cls-1" d="M116.28,104.64a2.29,2.29,0,0,1,1.78-.75,2.33,2.33,0,0,1,1.8.75,2.76,2.76,0,0,1,.68,1.94,2.46,2.46,0,0,1,0,.26h-3.81a1.73,1.73,0,0,0,.42,1.06,1.24,1.24,0,0,0,.93.38,1.75,1.75,0,0,0,.57-.09,1.28,1.28,0,0,0,.47-.26,1.34,1.34,0,0,0,.33-.44l.92.54a2.35,2.35,0,0,1-.94.91,2.7,2.7,0,0,1-1.35.32,2.46,2.46,0,0,1-1.28-.33,2.22,2.22,0,0,1-.87-1,3,3,0,0,1-.31-1.4A2.76,2.76,0,0,1,116.28,104.64Zm2.64.53a1.39,1.39,0,0,0-1.7,0,1.51,1.51,0,0,0-.46.83h2.62A1.51,1.51,0,0,0,118.92,105.17Z"/><path class="cls-1" d="M122.51,106.27v2.88h-1.05V104h1.05v.5a1.41,1.41,0,0,1,1.18-.61,2,2,0,0,1,1,.25l-.52.91a1,1,0,0,0-.6-.17,1,1,0,0,0-.78.38A1.68,1.68,0,0,0,122.51,106.27Z"/><path class="cls-1" d="M128.88,105l-1,.27a.54.54,0,0,0-.31-.32,1.58,1.58,0,0,0-.61-.11,1.4,1.4,0,0,0-.37,0,.83.83,0,0,0-.29.11.52.52,0,0,0-.18.18.48.48,0,0,0-.07.23.46.46,0,0,0,.25.4,1.4,1.4,0,0,0,.67.17,2.9,2.9,0,0,1,1.64.47,1.39,1.39,0,0,1,.6,1.18,1.44,1.44,0,0,1-.62,1.2,2.73,2.73,0,0,1-1.63.45,2.88,2.88,0,0,1-1.43-.33,1.51,1.51,0,0,1-.75-.89l1-.28a.71.71,0,0,0,.4.4,2,2,0,0,0,.77.14,1.58,1.58,0,0,0,.84-.2.58.58,0,0,0,.33-.51.51.51,0,0,0-.15-.37.88.88,0,0,0-.41-.24,2.3,2.3,0,0,0-.62-.1,3,3,0,0,1-1-.22,1.53,1.53,0,0,1-.69-.51,1.26,1.26,0,0,1-.24-.77,1.29,1.29,0,0,1,.55-1.08,2.34,2.34,0,0,1,1.44-.41,2.51,2.51,0,0,1,1.27.3A1.36,1.36,0,0,1,128.88,105Z"/></svg>