<svg id="Layer_27" data-name="Layer 27" xmlns="http://www.w3.org/2000/svg" viewBox="0 0 131 131"><defs><style>.cls-1{fill:#ef8429;}.cls-2{fill:#fff;}</style></defs><path class="cls-1" d="M65.57,62.77c-.51-.49-.92-.82-1.26-1.22Q58,54,51.65,46.37c-2.28-2.74-4.44-5.59-6.85-8.21-1.17-1.28-.94-2.1,0-3.22q6.49-7.71,12.95-15.47c2.12-2.53,4.33-5,6.31-7.61,1.17-1.56,1.82-1.12,2.81.09C70.42,16.26,74,20.52,77.6,24.81c3,3.57,5.88,7.18,8.88,10.72.74.87.63,1.4,0,2.22q-10,11.89-19.89,23.86Z"/><path class="cls-2" d="M70.33,44.89H63.62c2.29-1.77,2.3-11.4.05-13.27h6.22c-2.56,1.52-.78,3.83-1.37,5.72a19.39,19.39,0,0,0,4.46-4c1-1.06-.17-1.23-1.07-1.68h6c-2.66.71-4.12,2.26-5.69,3.7-.92.83-.88,1.48-.13,2.37C74.05,40,76,42.38,78,44.83H71.79c1.49-.26,1.39-.95.57-1.92s-1.74-2.23-2.63-3.32c-.2-.24-.55-.57-.79-.54-.52.06-.5.61-.42,1C68.85,41.6,67.5,43.63,70.33,44.89Z"/><path class="cls-2" d="M61.56,31.83c-.88-.46-.91-1.22-1.3-1.74a3.71,3.71,0,0,0-3.43-1.73,1.7,1.7,0,0,0-1.69,1.46,1.56,1.56,0,0,0,.91,1.83c1.1.51,2.18,1.06,3.27,1.59,1.71.83,3.24,1.88,3,4.06s-2.1,3.41-4.54,3.59A6,6,0,0,1,55,40.52a2,2,0,0,0-2.2.26V36.29c.73.46.78,1.19,1.12,1.74a3.9,3.9,0,0,0,3.66,2.06,2.13,2.13,0,0,0,2.22-1.69c.27-1-.39-1.63-1.23-2.06-1-.51-2.06-1-3.07-1.51-2.42-1.26-3.21-2.72-2.52-4.6.78-2.1,2.8-3.08,5.27-2.59,1.07.2,2.11,1,3.32,0Z"/><path class="cls-1" d="M15,73.47l.12,4.92h-.45a5,5,0,0,0-1.55-3,3.89,3.89,0,0,0-2.67-1.13,2.49,2.49,0,0,0-1.76.6A1.79,1.79,0,0,0,8,76.24a1.66,1.66,0,0,0,.22.87,3.77,3.77,0,0,0,1,1,24.15,24.15,0,0,0,2.36,1.27,10.61,10.61,0,0,1,3.49,2.4A4.11,4.11,0,0,1,16,84.39a4.16,4.16,0,0,1-1.44,3.18,5.18,5.18,0,0,1-3.66,1.34,6.21,6.21,0,0,1-1.32-.14,10.82,10.82,0,0,1-1.55-.54A2.46,2.46,0,0,0,7.19,88a1.09,1.09,0,0,0-.6.21,1.55,1.55,0,0,0-.51.67H5.67V83.33h.41a6.39,6.39,0,0,0,1.84,3.58,4.33,4.33,0,0,0,2.94,1.24,2.75,2.75,0,0,0,2-.67,2,2,0,0,0,.72-1.54,2,2,0,0,0-.28-1,3,3,0,0,0-.84-.93,12.54,12.54,0,0,0-2-1.15,17.86,17.86,0,0,1-2.9-1.69,5.15,5.15,0,0,1-1.35-1.55,3.86,3.86,0,0,1-.48-1.9,4,4,0,0,1,1.3-3,4.51,4.51,0,0,1,3.26-1.24,5.9,5.9,0,0,1,1.4.17,7,7,0,0,1,1.24.49,3,3,0,0,0,1,.35.61.61,0,0,0,.45-.17,2,2,0,0,0,.3-.84Z"/><path class="cls-1" d="M22.65,88.21v.35H16v-.35h.43a1.75,1.75,0,0,0,.89-.2.86.86,0,0,0,.38-.45,3.92,3.92,0,0,0,.1-1.19V78a4.31,4.31,0,0,0-.1-1.23,1,1,0,0,0-.42-.43,1.7,1.7,0,0,0-.85-.18H16v-.35h6.69v.35h-.42a1.79,1.79,0,0,0-.9.2,1,1,0,0,0-.39.45,3.92,3.92,0,0,0-.1,1.19v8.41A4.13,4.13,0,0,0,21,87.6a1,1,0,0,0,.42.43,1.75,1.75,0,0,0,.86.18Z"/><path class="cls-1" d="M31.14,84.2l3.47-8.43h5.2v.35H39.4a1.83,1.83,0,0,0-.91.2,1,1,0,0,0-.37.44A3.76,3.76,0,0,0,38,77.94v8.43a4.13,4.13,0,0,0,.11,1.23,1,1,0,0,0,.42.43,1.75,1.75,0,0,0,.86.18h.41v.35H33.14v-.35h.41a1.83,1.83,0,0,0,.91-.2.94.94,0,0,0,.37-.45,3.79,3.79,0,0,0,.11-1.19V76.9L30,88.56h-.22L24.83,77v9a8.14,8.14,0,0,0,.05,1.16,1.32,1.32,0,0,0,.53.76,2.19,2.19,0,0,0,1.29.3v.35H22.32v-.35h.13a1.93,1.93,0,0,0,.8-.14,1.15,1.15,0,0,0,.55-.39,1.71,1.71,0,0,0,.29-.69,8.58,8.58,0,0,0,0-1V77.94a4.09,4.09,0,0,0-.1-1.21,1,1,0,0,0-.43-.43,1.73,1.73,0,0,0-.85-.18h-.41v-.35h5.23Z"/><path class="cls-1" d="M46.46,75.59a6.36,6.36,0,0,1,6.88,6.53,6.82,6.82,0,0,1-1.43,4.28,6.32,6.32,0,0,1-5.32,2.45,6.45,6.45,0,0,1-5.34-2.34,6.72,6.72,0,0,1-1.49-4.38,6.36,6.36,0,0,1,1.94-4.75A6.17,6.17,0,0,1,46.46,75.59Zm.12.61A2.87,2.87,0,0,0,43.91,78a9.51,9.51,0,0,0-.75,4.22,8.26,8.26,0,0,0,1.15,4.84,2.62,2.62,0,0,0,2.25,1.09,2.65,2.65,0,0,0,1.62-.47,3.88,3.88,0,0,0,1.29-1.92,10.72,10.72,0,0,0,.46-3.46,11.38,11.38,0,0,0-.47-3.8,3.59,3.59,0,0,0-1.2-1.77A2.81,2.81,0,0,0,46.58,76.2Z"/><path class="cls-1" d="M57.68,75.77,64,83.7V78.21a2.6,2.6,0,0,0-.34-1.56,1.8,1.8,0,0,0-1.51-.53v-.35h4.22v.35a3.28,3.28,0,0,0-1.09.27,1.08,1.08,0,0,0-.43.54,3.49,3.49,0,0,0-.16,1.28V88.85h-.32L55.71,78.21v8.12a1.77,1.77,0,0,0,.51,1.49,1.84,1.84,0,0,0,1.15.39h.31v.35H53.14v-.35a2.08,2.08,0,0,0,1.47-.43A2,2,0,0,0,55,86.33v-9L54.75,77A2.62,2.62,0,0,0,54,76.3a2.1,2.1,0,0,0-.9-.18v-.35Z"/><path class="cls-1" d="M78.61,79.45,83.8,86a8.43,8.43,0,0,0,1.89,1.86,2.33,2.33,0,0,0,1.22.35v.4H79.23v-.4a2.14,2.14,0,0,0,.94-.23.49.49,0,0,0,.21-.4,3.91,3.91,0,0,0-1-1.72L76,81.55l-.55.46v4a4.48,4.48,0,0,0,.13,1.43,1.13,1.13,0,0,0,.5.49,2.68,2.68,0,0,0,1.19.2v.4H69.83v-.4h.48a2.08,2.08,0,0,0,1-.23,1,1,0,0,0,.43-.52A4.49,4.49,0,0,0,71.9,86V76.33a4.78,4.78,0,0,0-.12-1.41,1.09,1.09,0,0,0-.48-.5,2,2,0,0,0-1-.21h-.48v-.4h7.34v.4a2.33,2.33,0,0,0-1.14.22,1,1,0,0,0-.45.51,4.17,4.17,0,0,0-.13,1.39v4.59l5.47-4.43c.77-.61,1.15-1.11,1.15-1.48a.73.73,0,0,0-.47-.65,3.75,3.75,0,0,0-1.19-.15v-.4h5.76v.4a3,3,0,0,0-1.21.28,15.4,15.4,0,0,0-2,1.5Z"/><path class="cls-1" d="M90.58,76.51v5.2h.26A2,2,0,0,0,92.6,81a4.63,4.63,0,0,0,.7-2.25h.36v6.69H93.3a5,5,0,0,0-.48-1.79,2,2,0,0,0-.84-.94,3.23,3.23,0,0,0-1.4-.24V86a5.08,5.08,0,0,0,.09,1.29.75.75,0,0,0,.34.39,1.55,1.55,0,0,0,.79.15h.76A4.53,4.53,0,0,0,95.43,87,4.63,4.63,0,0,0,97,84.49h.34l-.57,4.07H85.71v-.35h.42A1.82,1.82,0,0,0,87,88a.84.84,0,0,0,.37-.45,3.79,3.79,0,0,0,.11-1.19V78a6.61,6.61,0,0,0-.05-1.06.92.92,0,0,0-.35-.52,1.65,1.65,0,0,0-1-.26h-.42v-.35h10.7v3.78h-.36a4.65,4.65,0,0,0-.77-2,2.84,2.84,0,0,0-1.4-.88,7.26,7.26,0,0,0-2-.17Z"/><path class="cls-1" d="M106.25,84.2l3.47-8.43h5.2v.35h-.41a1.83,1.83,0,0,0-.91.2,1,1,0,0,0-.37.44,3.76,3.76,0,0,0-.11,1.18v8.43a4.13,4.13,0,0,0,.11,1.23,1,1,0,0,0,.42.43,1.75,1.75,0,0,0,.86.18h.41v.35h-6.67v-.35h.41a1.83,1.83,0,0,0,.91-.2.94.94,0,0,0,.37-.45,3.79,3.79,0,0,0,.11-1.19V76.9l-4.91,11.66h-.22L99.94,77v9a6.8,6.8,0,0,0,0,1.16,1.32,1.32,0,0,0,.53.76,2.18,2.18,0,0,0,1.28.3v.35H97.43v-.35h.13a1.88,1.88,0,0,0,.79-.14,1.18,1.18,0,0,0,.56-.39A1.71,1.71,0,0,0,99.2,87c0-.07,0-.39,0-1V77.94a4.09,4.09,0,0,0-.1-1.21,1,1,0,0,0-.43-.43,1.73,1.73,0,0,0-.85-.18h-.41v-.35h5.22Z"/><path class="cls-1" d="M119.33,82.77v3.55a3.75,3.75,0,0,0,.13,1.3.9.9,0,0,0,.45.43,3,3,0,0,0,1.19.16v.35h-6.5v-.35a3,3,0,0,0,1.21-.16,1,1,0,0,0,.44-.43,3.75,3.75,0,0,0,.13-1.3V78a3.79,3.79,0,0,0-.13-1.31.9.9,0,0,0-.45-.43,3,3,0,0,0-1.2-.16v-.35h5.58a6.3,6.3,0,0,1,3.95,1,3,3,0,0,1,1.2,2.45,3.14,3.14,0,0,1-.78,2.14,3.87,3.87,0,0,1-2.13,1.2A14.54,14.54,0,0,1,119.33,82.77Zm0-6.26V82a4.57,4.57,0,0,0,.47,0,2.24,2.24,0,0,0,1.77-.68,3.05,3.05,0,0,0,.63-2.12,2.92,2.92,0,0,0-.63-2.08,2.41,2.41,0,0,0-1.85-.66Z"/><path class="cls-1" d="M22.14,93.85v-.33h5.17v.33h-.44a1.26,1.26,0,0,0-1.07.44,2.61,2.61,0,0,0-.22,1.37v5.91a7,7,0,0,1-.29,2.2,3.49,3.49,0,0,1-1,1.48,2.63,2.63,0,0,1-1.77.63,1.91,1.91,0,0,1-1.31-.42,1.2,1.2,0,0,1-.49-.95.9.9,0,0,1,.23-.66,1,1,0,0,1,.68-.27.84.84,0,0,1,.52.18,3.12,3.12,0,0,1,.57,1c.14.32.31.48.52.48a.58.58,0,0,0,.45-.29,1.88,1.88,0,0,0,.21-1V95.66a4,4,0,0,0-.11-1.21.78.78,0,0,0-.38-.38,1.54,1.54,0,0,0-.81-.22Z"/><path class="cls-1" d="M31.1,95.94v4h2.24a1.78,1.78,0,0,0,1.17-.27A1.69,1.69,0,0,0,35,98.49h.28v3.56H35a3.9,3.9,0,0,0-.21-1,1,1,0,0,0-.45-.41,2.25,2.25,0,0,0-.95-.15H31.1v3.37a3.12,3.12,0,0,0,.06.82.43.43,0,0,0,.21.23,1.23,1.23,0,0,0,.57.09h1.74a4.68,4.68,0,0,0,1.25-.12,2,2,0,0,0,.76-.47,6,6,0,0,0,1-1.41H37l-.89,2.56H28.19v-.28h.36a1.53,1.53,0,0,0,.69-.17.65.65,0,0,0,.33-.36,4.12,4.12,0,0,0,.08-1V97.16a2.22,2.22,0,0,0-.19-1.2,1.2,1.2,0,0,0-.91-.3h-.36v-.28h7.87l.12,2.24h-.3a3.33,3.33,0,0,0-.35-1.11,1.26,1.26,0,0,0-.57-.46,3.58,3.58,0,0,0-1.06-.11Z"/><path class="cls-1" d="M52.13,95.38v.28a1.36,1.36,0,0,0-.65.14,1.43,1.43,0,0,0-.47.54,9,9,0,0,0-.48,1.26l-2.85,8.23h-.3L45.05,99.3l-2.31,6.53h-.27l-3-8.48A11.48,11.48,0,0,0,39,96.23a1,1,0,0,0-.41-.43,1.52,1.52,0,0,0-.7-.14v-.28h3.78v.28h-.18a.91.91,0,0,0-.61.18.56.56,0,0,0-.21.44A5.25,5.25,0,0,0,41,97.49l2,5.74,1.7-4.88-.3-.86-.25-.68a3.23,3.23,0,0,0-.35-.67,1.09,1.09,0,0,0-.24-.24,1.35,1.35,0,0,0-.38-.19,1.54,1.54,0,0,0-.45,0v-.28h4v.28h-.27a.9.9,0,0,0-.62.18.65.65,0,0,0-.2.49A5.06,5.06,0,0,0,46,97.67l2,5.56,2-5.63a4.84,4.84,0,0,0,.33-1.3A.56.56,0,0,0,50.1,96a.63.63,0,0,0-.28-.21,2.18,2.18,0,0,0-.74-.11v-.28Z"/><path class="cls-1" d="M55.86,95.94v4H58.1a1.78,1.78,0,0,0,1.17-.27,1.69,1.69,0,0,0,.44-1.22H60v3.56h-.28a3.9,3.9,0,0,0-.21-1,1,1,0,0,0-.45-.41,2.25,2.25,0,0,0-.95-.15H55.86v3.37a3.12,3.12,0,0,0,.06.82.43.43,0,0,0,.21.23,1.23,1.23,0,0,0,.57.09h1.74a4.68,4.68,0,0,0,1.25-.12,1.88,1.88,0,0,0,.76-.47A6,6,0,0,0,61.4,103h.31l-.89,2.56H53v-.28h.36a1.53,1.53,0,0,0,.69-.17.65.65,0,0,0,.33-.36,4.12,4.12,0,0,0,.08-1V97.16a2.22,2.22,0,0,0-.19-1.2,1.19,1.19,0,0,0-.91-.3H53v-.28h7.87l.12,2.24h-.3a3.33,3.33,0,0,0-.35-1.11,1.21,1.21,0,0,0-.57-.46,3.58,3.58,0,0,0-1.06-.11Z"/><path class="cls-1" d="M71.29,102.77l.25.06-.87,2.77H62.76v-.28h.38a1,1,0,0,0,.93-.42,2.55,2.55,0,0,0,.15-1.12V97.19A2.12,2.12,0,0,0,64,96a1.09,1.09,0,0,0-.87-.33h-.38v-.28h4.62v.28a3,3,0,0,0-1.14.15.94.94,0,0,0-.45.4,3.31,3.31,0,0,0-.12,1.15v6.42a2.07,2.07,0,0,0,.12.86.6.6,0,0,0,.28.24,5.11,5.11,0,0,0,1.18.07H68a5.56,5.56,0,0,0,1.65-.17,2.13,2.13,0,0,0,.87-.62A4.88,4.88,0,0,0,71.29,102.77Z"/><path class="cls-1" d="M81.1,102.77l.25.06-.87,2.77H72.57v-.28H73a1,1,0,0,0,.93-.42,2.51,2.51,0,0,0,.16-1.12V97.19a2,2,0,0,0-.22-1.2,1.09,1.09,0,0,0-.87-.33h-.38v-.28h4.62v.28a3,3,0,0,0-1.14.15.94.94,0,0,0-.45.4,3.31,3.31,0,0,0-.12,1.15v6.42a2.07,2.07,0,0,0,.12.86.6.6,0,0,0,.28.24,5.11,5.11,0,0,0,1.18.07h.74a5.56,5.56,0,0,0,1.65-.17,2.13,2.13,0,0,0,.87-.62A4.88,4.88,0,0,0,81.1,102.77Z"/><path class="cls-1" d="M85.29,95.94v4h2.25a1.82,1.82,0,0,0,1.17-.27,1.68,1.68,0,0,0,.43-1.22h.28v3.56h-.28a3.9,3.9,0,0,0-.21-1,1,1,0,0,0-.44-.41,2.29,2.29,0,0,0-.95-.15H85.29v3.37a3.12,3.12,0,0,0,.06.82.45.45,0,0,0,.22.23,1.23,1.23,0,0,0,.57.09h1.73a4.71,4.71,0,0,0,1.26-.12,1.92,1.92,0,0,0,.75-.47,6.31,6.31,0,0,0,1-1.41h.3l-.88,2.56H82.39v-.28h.36a1.46,1.46,0,0,0,.68-.17.65.65,0,0,0,.33-.36,3.52,3.52,0,0,0,.09-1V97.16a2.19,2.19,0,0,0-.2-1.2,1.16,1.16,0,0,0-.9-.3h-.36v-.28h7.87l.11,2.24h-.29a3.59,3.59,0,0,0-.35-1.11,1.26,1.26,0,0,0-.57-.46,3.63,3.63,0,0,0-1.06-.11Z"/><path class="cls-1" d="M102.31,105.6H99.58l-3.46-4.78-.62,0h-.45v3a2.12,2.12,0,0,0,.21,1.2,1.08,1.08,0,0,0,.86.33h.4v.28H92.14v-.28h.39a1,1,0,0,0,.93-.42,2.53,2.53,0,0,0,.15-1.11v-6.6A2.12,2.12,0,0,0,93.4,96a1.09,1.09,0,0,0-.87-.33h-.39v-.28h3.73a8.81,8.81,0,0,1,2.4.24,2.81,2.81,0,0,1,1.31.87,2.28,2.28,0,0,1,.54,1.52,2.41,2.41,0,0,1-.62,1.64,3.47,3.47,0,0,1-1.9,1l2.11,2.93A5.35,5.35,0,0,0,101,104.9a3.16,3.16,0,0,0,1.36.42Zm-7.26-5.25h.43a3.34,3.34,0,0,0,2.2-.63,2,2,0,0,0,.74-1.61,2.11,2.11,0,0,0-.6-1.56,2.14,2.14,0,0,0-1.58-.6,6.36,6.36,0,0,0-1.19.15Z"/><path class="cls-1" d="M109.63,95.15v3.53h-.28a4.45,4.45,0,0,0-.48-1.62,2.54,2.54,0,0,0-1-1,2.72,2.72,0,0,0-1.34-.36,1.83,1.83,0,0,0-1.3.48,1.46,1.46,0,0,0-.51,1.09,1.32,1.32,0,0,0,.32.85,8.53,8.53,0,0,0,2.23,1.51,14.57,14.57,0,0,1,2,1.18,2.85,2.85,0,0,1,.81,1,2.58,2.58,0,0,1,.28,1.17,2.63,2.63,0,0,1-.9,2,3.26,3.26,0,0,1-2.32.84,4.43,4.43,0,0,1-.83-.07,6.79,6.79,0,0,1-1-.27,4.31,4.31,0,0,0-.93-.24.38.38,0,0,0-.3.12.85.85,0,0,0-.16.46h-.28v-3.5h.28a5.06,5.06,0,0,0,.53,1.65,2.55,2.55,0,0,0,1,.9,3.17,3.17,0,0,0,1.5.37,2.12,2.12,0,0,0,1.48-.5,1.53,1.53,0,0,0,.55-1.18,1.59,1.59,0,0,0-.21-.76,2.36,2.36,0,0,0-.64-.72c-.2-.15-.73-.47-1.61-1a14.8,14.8,0,0,1-1.86-1.17,3.13,3.13,0,0,1-.84-1,2.4,2.4,0,0,1-.29-1.16,2.51,2.51,0,0,1,.85-1.9,3,3,0,0,1,2.14-.79,4.25,4.25,0,0,1,1.73.4,2,2,0,0,0,.59.19.44.44,0,0,0,.32-.12.9.9,0,0,0,.2-.47Z"/><path class="cls-1" d="M30.08,113.1l-.81,2.83h.25a3,3,0,0,0,1.43-.26,2.08,2.08,0,0,0,.76-.91h.19l-.81,2.83H30.9a3.17,3.17,0,0,0,.05-.46.65.65,0,0,0-.18-.48.9.9,0,0,0-.45-.27,3.19,3.19,0,0,0-.76,0h-.42l-.7,2.44a2.08,2.08,0,0,0-.09.48.23.23,0,0,0,.12.2,1.34,1.34,0,0,0,.65.11,4,4,0,0,0,1.73-.39A4.38,4.38,0,0,0,32.31,118h.22l-.76,2H25.53l.07-.2a1.25,1.25,0,0,0,.8-.21,1.92,1.92,0,0,0,.46-.91L28.23,114a2.7,2.7,0,0,0,.11-.62.4.4,0,0,0-.14-.32,1.48,1.48,0,0,0-.67-.14l.06-.2H33.4l-.46,1.82h-.2a1.62,1.62,0,0,0-.16-.76,1.27,1.27,0,0,0-.6-.5,3.27,3.27,0,0,0-1.21-.16Z"/><path class="cls-1" d="M37.64,115l-.24,1.66h-.2a1.59,1.59,0,0,0-.39-1,1,1,0,0,0-.76-.37.64.64,0,0,0-.41.14.5.5,0,0,0-.16.35.68.68,0,0,0,.07.32,1.88,1.88,0,0,0,.31.41,8.52,8.52,0,0,1,1,1.26,1.59,1.59,0,0,1,.18.74,1.53,1.53,0,0,1-.22.8,1.51,1.51,0,0,1-.64.61,1.87,1.87,0,0,1-.89.23,2.8,2.8,0,0,1-.77-.13,2.13,2.13,0,0,0-.45-.08.41.41,0,0,0-.21,0,.53.53,0,0,0-.17.17h-.19l.26-1.79H34a4.46,4.46,0,0,0,.35.92,1.27,1.27,0,0,0,.44.45,1.11,1.11,0,0,0,.53.16.67.67,0,0,0,.49-.19.58.58,0,0,0,.19-.44,1,1,0,0,0-.13-.49,4,4,0,0,0-.58-.74,6,6,0,0,1-.83-1,1.34,1.34,0,0,1-.14-.61,1.24,1.24,0,0,1,.43-1A1.66,1.66,0,0,1,35.9,115a3.52,3.52,0,0,1,.82.12,1.69,1.69,0,0,0,.38.06.39.39,0,0,0,.34-.18Z"/><path class="cls-1" d="M41.26,113.69l-.43,1.46h.7l-.19.62h-.69l-.9,3.12a1.61,1.61,0,0,0-.09.44.17.17,0,0,0,.05.12.14.14,0,0,0,.11,0,.32.32,0,0,0,.19-.07,3.12,3.12,0,0,0,.57-.66l.19.12a2.9,2.9,0,0,1-.81,1,1.58,1.58,0,0,1-.88.3.79.79,0,0,1-.57-.19.62.62,0,0,1-.2-.47,3.2,3.2,0,0,1,.14-.8l.85-2.91h-.73l.11-.4a4.67,4.67,0,0,0,1.16-.59A7.72,7.72,0,0,0,41,113.69Z"/><path class="cls-1" d="M42.17,118.37a.88.88,0,0,1,.63,1.51.88.88,0,0,1-.63.26.89.89,0,0,1,0-1.77Z"/><path class="cls-1" d="M52.39,112.55l-1.78,6.11a3.49,3.49,0,0,0-.14.61.43.43,0,0,0,.1.27.5.5,0,0,0,.21.18,4.78,4.78,0,0,0,.7.07l-.06.2H47.75l.06-.2a2.86,2.86,0,0,0,.76-.09.77.77,0,0,0,.35-.27,2.53,2.53,0,0,0,.31-.77L50.29,115c.16-.55.24-.84.25-.88a1.22,1.22,0,0,0,0-.26.49.49,0,0,0-.15-.38.57.57,0,0,0-.42-.15l-.53,0,0-.2,2.73-.66Z"/><path class="cls-1" d="M53.74,120.14v-.22a3.62,3.62,0,0,0,1.53-.88,6,6,0,0,0,1.28-1.92,2.65,2.65,0,0,1-.87.17,1.33,1.33,0,0,1-1-.45,1.9,1.9,0,0,1-.4-1.29,3.44,3.44,0,0,1,.6-2,2.26,2.26,0,0,1,2-1.09,1.7,1.7,0,0,1,1.35.58,2.38,2.38,0,0,1,.52,1.63,5,5,0,0,1-.51,2.2,5.86,5.86,0,0,1-1.27,1.78,5.62,5.62,0,0,1-1.66,1.11A4.63,4.63,0,0,1,53.74,120.14Zm3-3.43a19.13,19.13,0,0,0,.61-1.95,5.49,5.49,0,0,0,.15-1.13.91.91,0,0,0-.17-.6.55.55,0,0,0-.44-.2.53.53,0,0,0-.37.15,2.21,2.21,0,0,0-.52,1,6.61,6.61,0,0,0-.37,2,1,1,0,0,0,.23.66.49.49,0,0,0,.4.21A1.59,1.59,0,0,0,56.72,116.71Z"/><path class="cls-1" d="M59.52,120.14v-.22a3.62,3.62,0,0,0,1.53-.88,6,6,0,0,0,1.28-1.92,2.65,2.65,0,0,1-.87.17,1.33,1.33,0,0,1-1-.45,1.9,1.9,0,0,1-.4-1.29,3.44,3.44,0,0,1,.6-2,2.26,2.26,0,0,1,2-1.09,1.7,1.7,0,0,1,1.35.58,2.38,2.38,0,0,1,.52,1.63,5,5,0,0,1-.51,2.2,5.86,5.86,0,0,1-1.27,1.78A5.62,5.62,0,0,1,61,119.79,4.63,4.63,0,0,1,59.52,120.14Zm3-3.43a19.13,19.13,0,0,0,.61-1.95,5.49,5.49,0,0,0,.15-1.13.91.91,0,0,0-.17-.6.55.55,0,0,0-.44-.2.53.53,0,0,0-.37.15,2.21,2.21,0,0,0-.52,1,6.61,6.61,0,0,0-.37,2,1,1,0,0,0,.23.66.49.49,0,0,0,.4.21A1.59,1.59,0,0,0,62.5,116.71Z"/><path class="cls-1" d="M68.73,112.55a1.35,1.35,0,0,1,.89.3,1.66,1.66,0,0,1,.54.81,3.21,3.21,0,0,1,.16,1,7.25,7.25,0,0,1-.22,1.76,7.69,7.69,0,0,1-.62,1.67,5.86,5.86,0,0,1-.88,1.28,2.8,2.8,0,0,1-.75.55,2.05,2.05,0,0,1-.89.22,1.31,1.31,0,0,1-.78-.26,1.66,1.66,0,0,1-.54-.75,2.89,2.89,0,0,1-.2-1.06,7.23,7.23,0,0,1,.45-2.48,6.63,6.63,0,0,1,.92-1.78,3.64,3.64,0,0,1,1-1A1.88,1.88,0,0,1,68.73,112.55Zm0,.36a.61.61,0,0,0-.28.06.85.85,0,0,0-.26.25,4,4,0,0,0-.34.8c-.25.75-.53,1.66-.84,2.74-.24.82-.38,1.35-.43,1.59a4.22,4.22,0,0,0-.1.87.61.61,0,0,0,.14.42.49.49,0,0,0,.36.15.56.56,0,0,0,.36-.12,1.79,1.79,0,0,0,.47-.82c.29-.9.66-2.14,1.11-3.71a6.37,6.37,0,0,0,.3-1.64.58.58,0,0,0-.15-.43A.43.43,0,0,0,68.77,112.91Z"/><path class="cls-1" d="M79.11,120H73.29l0-.2a1.22,1.22,0,0,0,.77-.2,2,2,0,0,0,.44-.91L75.9,114a2.21,2.21,0,0,0,.12-.61.43.43,0,0,0-.16-.34,1.12,1.12,0,0,0-.64-.15l.06-.2h3.5l-.06.2a1.12,1.12,0,0,0-.75.22,1.86,1.86,0,0,0-.45.88l-1.23,4.28a5.69,5.69,0,0,0-.24,1,.26.26,0,0,0,.12.2.66.66,0,0,0,.39.09,3.72,3.72,0,0,0,1.72-.41,3.58,3.58,0,0,0,1.41-1.22h.22Z"/><path class="cls-1" d="M84.26,115a1.72,1.72,0,0,1,.8.2,1.27,1.27,0,0,1,.56.54,1.61,1.61,0,0,1,.19.78,3.57,3.57,0,0,1-.48,1.74,3.76,3.76,0,0,1-1.28,1.37,3,3,0,0,1-1.61.51,1.46,1.46,0,0,1-1.13-.44,1.49,1.49,0,0,1-.4-1.06,3.29,3.29,0,0,1,.3-1.4A4,4,0,0,1,82,116.1a3.67,3.67,0,0,1,1-.79A2.62,2.62,0,0,1,84.26,115Zm-.22.29a.67.67,0,0,0-.47.16,4.51,4.51,0,0,0-.85,1.59,6.32,6.32,0,0,0-.48,2.24.58.58,0,0,0,.15.41.48.48,0,0,0,.36.16.56.56,0,0,0,.37-.13,2.8,2.8,0,0,0,.58-.87,7.85,7.85,0,0,0,.57-1.48,6.11,6.11,0,0,0,.22-1.5.63.63,0,0,0-.14-.43A.4.4,0,0,0,84,115.29Z"/><path class="cls-1" d="M89.36,115l-.66,2.31a12.49,12.49,0,0,1,1-1.38,3.56,3.56,0,0,1,.85-.73,1.35,1.35,0,0,1,.66-.2.63.63,0,0,1,.48.21.77.77,0,0,1,.2.54,2.5,2.5,0,0,1-.13.73l-.69,2.3a2.34,2.34,0,0,0-.08.39.13.13,0,0,0,0,.1.12.12,0,0,0,.08,0,.25.25,0,0,0,.11,0,2.48,2.48,0,0,0,.39-.44l.15-.23.21.12c-.53.89-1.09,1.33-1.67,1.33a.77.77,0,0,1-.52-.17.59.59,0,0,1-.19-.43,2.92,2.92,0,0,1,.13-.67l.68-2.3a1.63,1.63,0,0,0,.07-.33.16.16,0,0,0,0-.11.17.17,0,0,0-.12,0,.78.78,0,0,0-.49.28,7.69,7.69,0,0,0-1.44,2.11l-.44,1.6H86.56l1-3.46a3.41,3.41,0,0,0,.14-.72.24.24,0,0,0-.18-.25,1.34,1.34,0,0,0-.37,0l.06-.2L89,115Z"/><path class="cls-1" d="M98.83,112.53l-1.75,6a4,4,0,0,0-.17.68.18.18,0,0,0,0,.1.13.13,0,0,0,.1,0,.37.37,0,0,0,.21-.09,2.57,2.57,0,0,0,.48-.57l.19.1c-.5.89-1.06,1.33-1.66,1.33a.7.7,0,0,1-.5-.17.59.59,0,0,1-.18-.44,3,3,0,0,1,.14-.72l.17-.54a5.88,5.88,0,0,1-1.17,1.58,1.24,1.24,0,0,1-.73.29.85.85,0,0,1-.68-.33,1.43,1.43,0,0,1-.28-1,3.75,3.75,0,0,1,.36-1.58,5,5,0,0,1,.82-1.3,3.29,3.29,0,0,1,.88-.74,1.77,1.77,0,0,1,.83-.23.79.79,0,0,1,.38.09,1.41,1.41,0,0,1,.37.32l.4-1.34a2.66,2.66,0,0,0,.14-.71.31.31,0,0,0-.09-.22.37.37,0,0,0-.26-.09l-.19,0,0-.21,1.77-.33Zm-2.37,3.41a.71.71,0,0,0-.13-.48.38.38,0,0,0-.3-.15.58.58,0,0,0-.37.18,4,4,0,0,0-.8,1.38,4.86,4.86,0,0,0-.42,1.75.58.58,0,0,0,.1.38.26.26,0,0,0,.2.13.58.58,0,0,0,.38-.18,5.49,5.49,0,0,0,1.34-3Z"/><path class="cls-1" d="M102.22,115a1.72,1.72,0,0,1,.8.2,1.33,1.33,0,0,1,.56.54,1.61,1.61,0,0,1,.19.78,3.57,3.57,0,0,1-.48,1.74,3.7,3.7,0,0,1-1.29,1.37,2.93,2.93,0,0,1-1.6.51,1.46,1.46,0,0,1-1.13-.44,1.49,1.49,0,0,1-.4-1.06,3.29,3.29,0,0,1,.3-1.4,4,4,0,0,1,.76-1.14,3.67,3.67,0,0,1,1-.79A2.62,2.62,0,0,1,102.22,115Zm-.22.29a.67.67,0,0,0-.47.16,4.35,4.35,0,0,0-.85,1.59,6.32,6.32,0,0,0-.48,2.24.58.58,0,0,0,.15.41.46.46,0,0,0,.36.16.56.56,0,0,0,.37-.13,2.8,2.8,0,0,0,.58-.87,7.21,7.21,0,0,0,.56-1.48,5.71,5.71,0,0,0,.23-1.5.63.63,0,0,0-.14-.43A.4.4,0,0,0,102,115.29Z"/><path class="cls-1" d="M107.32,115l-.66,2.31a12.49,12.49,0,0,1,1-1.38,3.56,3.56,0,0,1,.85-.73,1.35,1.35,0,0,1,.66-.2.63.63,0,0,1,.48.21.77.77,0,0,1,.2.54,2.5,2.5,0,0,1-.13.73l-.69,2.3a1.59,1.59,0,0,0-.08.39.13.13,0,0,0,0,.1.12.12,0,0,0,.08,0,.25.25,0,0,0,.11,0,2.12,2.12,0,0,0,.38-.44l.16-.23.2.12c-.52.89-1.08,1.33-1.66,1.33a.77.77,0,0,1-.52-.17.59.59,0,0,1-.19-.43,2.92,2.92,0,0,1,.13-.67l.68-2.3a1.45,1.45,0,0,0,.06-.33.15.15,0,0,0,0-.11.17.17,0,0,0-.12,0,.78.78,0,0,0-.49.28,7.47,7.47,0,0,0-1.44,2.11l-.44,1.6h-1.37l1-3.46a3.41,3.41,0,0,0,.14-.72.24.24,0,0,0-.18-.25,1.34,1.34,0,0,0-.37,0l.06-.2L107,115Z"/></svg>