<svg id="Layer_31" data-name="Layer 31" xmlns="http://www.w3.org/2000/svg" viewBox="0 0 131 131"><defs><style>.cls-1{fill:#ef8429;}</style></defs><path class="cls-1" d="M67.38,58c0-2.28,0-4.57,0-6.85a1,1,0,0,0-.47-.94c-3.89-2.65-7.76-5.33-11.65-8-.33-.23-.37-.37-.14-.69s.38-.4.75-.15c3.85,2.68,7.72,5.32,11.57,8a.7.7,0,0,0,.9,0l12.06-7.24c.32-.19.5-.22.7.15s.21.51-.17.74c-4,2.37-8,4.77-12,7.15a1,1,0,0,0-.59,1c0,4.59,0,9.18,0,13.77,0,.36,0,.64-.5.63s-.5-.3-.5-.65Z"/><path class="cls-1" d="M2.42,83.29c0-1.74,0-3.48,0-5.22,0-.58.41-.64.8-.7a18.76,18.76,0,0,1,4.43-.13,5.07,5.07,0,0,1,2.12.61,3.8,3.8,0,0,1,1.12,5.45l-.14.17a0,0,0,0,1,0,.06c-.1,0-.19,0-.2.16h0c-.23,0-.38-.35-.64-.2-.64.34-1.31.11-2,.15a2.85,2.85,0,0,0,.88-2.5,2.24,2.24,0,0,0-2.25-2.31,5.74,5.74,0,0,1-.72,0c-.57-.09-.73.18-.72.69,0,1.26,0,2.52,0,3.78Z"/><path class="cls-1" d="M89,55.59c-.26.49-.49,1-.79,1.47s-.11.61.19.85a5.74,5.74,0,0,0,.85.57c1.51.79,1.85,2.35,2.53,3.68a.77.77,0,0,1-.31,1.09.81.81,0,0,1-1.2-.29,5.12,5.12,0,0,1-.52-1.08,5.27,5.27,0,0,0-3.33-3.09c-.36-.15-.51.15-.71.32a4.21,4.21,0,0,1-4.74.7c-.39-.21-.77-.47-.66-1a.86.86,0,0,1,1.28-.64,2.51,2.51,0,0,0,3.35-1.08c.4-.61.73-1.28,1.09-1.92a9.31,9.31,0,0,0,2.17.23c.26,0,.49,0,.46.36-.09,0-.19,0-.18.15a0,0,0,0,0,0,0c.14,0,.14-.09.15-.18S88.83,55.5,89,55.59Z"/><path class="cls-1" d="M75.13,32.5A6.57,6.57,0,0,1,72.18,37a1.31,1.31,0,0,0-.7,1.32,6.76,6.76,0,0,1,0,1.62,1.82,1.82,0,0,1-1.84,1.64c-1.3,0-2.6,0-3.9,0a1.85,1.85,0,0,1-2-2c-.06-1.12-.06-1.12-1.15-1.34a1.88,1.88,0,0,1-1.59-1.73,1.27,1.27,0,0,0-.68-1.32c.05-.24-.15-.4-.21-.6a.72.72,0,0,1,.18-.72c.16.4.57-.05.75.23l0,.13c-.14,0-.23.13,0,.21a.44.44,0,0,0,.44,0c.4,0,.58.15.65.53A7.09,7.09,0,0,1,62,36.29a.71.71,0,0,0,.66.79,2.12,2.12,0,0,1,2.1,2.4.86.86,0,0,0,1,1c1.2,0,2.41,0,3.61,0,.69,0,1-.33,1-1s0-1.24,0-1.86a1.15,1.15,0,0,1,.73-1.23,5.75,5.75,0,0,0,2.45-2.48,9.75,9.75,0,0,0,.71-2.07c.18.33.21.88.83.61C75.07,32.41,75.11,32.47,75.13,32.5Z"/><path class="cls-1" d="M96.87,76.51c.13,1.22,0,2.44,0,3.66,0,1,0,1.92,0,2.88-.48,0-.95,0-1.43,0a1.13,1.13,0,0,1-1.17-.43v0c0-.18-.19-.15-.32-.16a1.9,1.9,0,0,0-2.34.5,6.74,6.74,0,0,0-.62,1,1.06,1.06,0,0,1-.79.14c-.5-.11-1,.1-1.56,0a4,4,0,0,1,3.74-3.19,2.83,2.83,0,0,1,1.46.27c.4.21.5.07.49-.35,0-1.28,0-2.56,0-3.84,0-.27-.07-.58.29-.72h0a13,13,0,0,1,1.87,0c.07.13.2.11.31.1a.05.05,0,0,1,0,.06Z"/><path class="cls-1" d="M89,55.59c-.17-.09-.2.16-.34.15h0c0-.35-.2-.38-.46-.36A9.31,9.31,0,0,1,86,55.15c.21-.43.4-.87.63-1.29s.06-.44-.24-.49a1.93,1.93,0,0,0-1.61.47c-.28.23-.5.52-.77.76a.85.85,0,0,1-1.24,0c-.39-.35-.28-.72,0-1.08A4.1,4.1,0,0,1,87.87,52c.49.21,1,.47,1.45.72,1.44.74,2.19.62,3.3-.55.39-.41.79-.7,1.37-.37a.66.66,0,0,1,.27,1.05,3.87,3.87,0,0,1-3.75,2C89.74,54.75,89.29,54.91,89,55.59Z"/><path class="cls-1" d="M66.51,83.77l0,0,0,0c0-.13,0-.25-.14-.31-.35-.4-.36-1-.83-1.37v1.73a1.35,1.35,0,0,0-1-.24,1.45,1.45,0,0,1-1.07-.24c0-1.8,0-3.6,0-5.4,0-.43.18-.59.58-.56h.12c2.14,0,2.14,0,3,2,.52,1.29,1,2.57,1.57,3.86,0,.55,0,.55-.56.6,0,0-.08,0-.12,0A12.85,12.85,0,0,1,66.51,83.77Z"/><path class="cls-1" d="M72,82.89c.44-1.4,1.08-2.72,1.63-4.08.73-1.77.33-1.46,2.22-1.48,1.48,0,1.22,0,1.22,1.22,0,1.75,0,3.51,0,5.27a21.19,21.19,0,0,1-2.52,0l-.1-1.89c-.26.57-.46,1-.66,1.4-.24,0-.23.38-.5.4-.06-.19-.19-.25-.37-.36S72.08,83.5,72,82.89Z"/><path class="cls-1" d="M42.48,61.25a5.35,5.35,0,0,0,3.22,2.42,5,5,0,0,0,3.65-.47c.19-.1.5-.18.34-.52s-.43-.16-.65,0a1.83,1.83,0,0,1-1,.28.37.37,0,0,1-.42-.33c0-.24.13-.36.35-.41s.46-.11.69-.19a.46.46,0,0,0,.34-.6c.4,0,.41-.3.5-.56a4.68,4.68,0,0,0,3,2.81,4.43,4.43,0,0,0,5.34-2.56c.12-.28.17-.73.61-.54s.2.59.07.88a5.15,5.15,0,0,1-7.6,2.32.77.77,0,0,0-1,0,5.77,5.77,0,0,1-8-2,2.39,2.39,0,0,1-.18-.44c.26.06.4-.18.61-.25h0l.08.13,0,0Z"/><path class="cls-1" d="M28.66,92.46V90.7a3.41,3.41,0,0,1-4,.85,3.33,3.33,0,0,1-2-2.48A17.13,17.13,0,0,0,25.49,89c1,1.22,2.16,1.26,3.17.12a1,1,0,0,0,1,.36c.48,0,1,0,1.44,0a27.58,27.58,0,0,1,0,3.15C30.3,92.42,29.47,92.68,28.66,92.46Z"/><path class="cls-1" d="M53.32,82.83q0-3.06,0-6.12c0-.4.17-.59.58-.58s1,0,1.44,0,.59.14.58.57c0,2.2,0,4.4-.07,6.59-.44.46-1,.16-1.51.25A.76.76,0,0,1,53.32,82.83Z"/><path class="cls-1" d="M2.42,88.12V86.18s0,0,0,0a.32.32,0,0,0,0-.09v-.24c.73.09,1.5-.19,2.22.17.16.08.22-.09.28-.22a.62.62,0,0,1,1-.26,1.11,1.11,0,0,0,.92.31,5.41,5.41,0,0,1,.9,0c.48.06.69-.15.75-.6a36.13,36.13,0,0,1,2.4,3.83c-.2.15-.27.55-.58.46a6,6,0,0,0-2.07,0h0c0-.06.07-.2-.1-.17-.6-1-1.2-2-1.79-3-.09-.14-.15-.28-.25-.41s-.38-.55-.77-.44-.23.49-.26.75a11.86,11.86,0,0,1-.07,1.79.64.64,0,0,1-.79.48c-.49-.06-1-.1-1.49-.12C2.52,88.46,2.55,88.22,2.42,88.12Z"/><path class="cls-1" d="M86.47,84.13a1.75,1.75,0,0,1,0,.72c-.78.08-1.55-.18-2.33-.12a4.41,4.41,0,0,1,0-1.09c.11-.13.12-.25,0-.34a1.24,1.24,0,0,0-1.19-1c-.69,0-1,.44-1.32,1-.11.19-.17.41-.27.6a1,1,0,0,1-1.21.52,1,1,0,0,1-.83-1,2.08,2.08,0,0,1,1.39-1.92A5.61,5.61,0,0,1,84.52,81c1.37.29,2,1.22,2,2.8A.21.21,0,0,0,86.47,84.13Z"/><path class="cls-1" d="M52.91,103.37a3.6,3.6,0,0,1-4.35,3.71,2.77,2.77,0,0,1-2.32-2.17c-.74-3.15,1.23-5.19,4.12-4.87A3,3,0,0,1,52.91,103.37Zm-5.67.28a4.52,4.52,0,0,0,.38,1.88,1.93,1.93,0,0,0,1.79,1.2,1.9,1.9,0,0,0,1.82-1.06,4.47,4.47,0,0,0,.28-3.66,2.05,2.05,0,0,0-1.84-1.51,2,2,0,0,0-1.83,1A3.42,3.42,0,0,0,47.24,103.65Z"/><path class="cls-1" d="M106.63,100a3.07,3.07,0,0,1,3.18,3.31,3.6,3.6,0,0,1-3.67,3.83,3.09,3.09,0,0,1-3.2-3.3A3.55,3.55,0,0,1,106.63,100Zm2,3.9a4.43,4.43,0,0,0-.52-2.46,1.91,1.91,0,0,0-2.86-.48,4,4,0,0,0-.42,5.1,2,2,0,0,0,3.12-.17A3.8,3.8,0,0,0,108.63,103.9Z"/><path class="cls-1" d="M80.46,103.42a3.62,3.62,0,0,1-5.29,3.32,3.57,3.57,0,0,1-1.45-3.9,3.39,3.39,0,0,1,3-2.8C79,99.77,80.47,101.08,80.46,103.42ZM74.8,104a3.69,3.69,0,0,0,.4,1.59,2,2,0,0,0,3.42.38,4.47,4.47,0,0,0,.14-4.56,1.9,1.9,0,0,0-2.78-.45A3.5,3.5,0,0,0,74.8,104Z"/><path class="cls-1" d="M46.09,88.42c1.41,1.82,3.38,1.33,4.53-.22.21-.29.4-.68.84-.47s.38.65.28,1.06a3.94,3.94,0,0,1-3.62,3A4.16,4.16,0,0,1,43.72,89c.63,0,1.26-.12,1.88-.08C46.06,88.89,46.09,88.76,46.09,88.42Z"/><path class="cls-1" d="M20.71,90.05a1.41,1.41,0,0,1-1,1.28,6.7,6.7,0,0,1-5.18.07,2.54,2.54,0,0,1-1.26-3.51,3.49,3.49,0,0,0,2.32.12c0,.1,0,.2-.05.3a1.66,1.66,0,0,0,1.28,2.06c.73.12,1.5.07,1.61-1.3.4,0,.81,0,1.21,0s.79.39,1-.24l.15.24a1.78,1.78,0,0,1,0,.76Z"/><path class="cls-1" d="M36.57,103.58c0,1,0,2,0,3,0,.4-.13.5-.51.51s-.58-.09-.56-.53c0-.82,0-1.65,0-2.47,0-.31-.09-.42-.41-.41-.74,0-1.48,0-2.22,0-.36,0-.43.16-.43.47,0,.82,0,1.65,0,2.47,0,.45-.22.46-.56.47s-.55,0-.54-.48c0-2,0-4,0-6,0-.47.24-.45.56-.46s.57,0,.55.48c0,.7,0,1.4,0,2.1,0,.32.07.48.43.47.74,0,1.48,0,2.22,0,.32,0,.42-.1.41-.41,0-.68,0-1.37,0-2,0-.43.08-.59.55-.59s.53.17.52.57C36.55,101.66,36.56,102.62,36.57,103.58Z"/><path class="cls-1" d="M33.28,89.11a.55.55,0,0,1,0-.4,8,8,0,0,1,2.53.2h0l.06.15,0,.05v0a1.49,1.49,0,0,0,1.58,1,1.55,1.55,0,0,0,1.64-.83c.29,0,.59.08.87.09.57,0,1.23.3,1.68-.33a1.84,1.84,0,0,1-1.35,2.28,7.89,7.89,0,0,1-5.12.2,2.39,2.39,0,0,1-1.84-2.24Z"/><path class="cls-1" d="M128.73,103.63c0,1,0,2,0,2.94,0,.39-.13.48-.49.46s-.58,0-.56-.46c0-.84,0-1.68,0-2.52,0-.31-.09-.43-.41-.42q-1.14,0-2.28,0c-.34,0-.4.14-.4.43,0,.84,0,1.68,0,2.53,0,.4-.17.45-.51.44s-.57,0-.56-.45c0-2,0-4,0-6,0-.43.22-.42.53-.43s.57,0,.55.47c0,.72,0,1.44,0,2.16,0,.32.11.42.41.41.75,0,1.49,0,2.23,0,.33,0,.46-.09.45-.44,0-.72,0-1.44,0-2.16,0-.43.21-.45.52-.44s.54,0,.53.42C128.71,101.58,128.73,102.6,128.73,103.63Z"/><path class="cls-1" d="M2.27,103.58c0-1,0-2,0-3,0-.43.21-.43.52-.43s.54,0,.53.43c0,.72,0,1.44,0,2.16,0,.33.09.46.44.45.74,0,1.48,0,2.23,0,.35,0,.43-.14.42-.46,0-.73,0-1.45,0-2.17,0-.44.23-.42.53-.42s.55,0,.54.41c0,2,0,4,0,6.08,0,.38-.19.41-.49.4s-.6.06-.58-.43c0-.84,0-1.69,0-2.53,0-.33-.09-.46-.44-.45-.72,0-1.44,0-2.16,0-.42,0-.5.17-.49.53,0,.78,0,1.57,0,2.35,0,.43-.13.54-.55.54s-.51-.13-.5-.52C2.29,105.54,2.27,104.56,2.27,103.58Z"/><path class="cls-1" d="M113.9,84.61a10.68,10.68,0,0,1,0-2.33.79.79,0,0,1,.49-.69,7.88,7.88,0,0,1,5.08-.55,1.27,1.27,0,0,1,1.11,1.42,1,1,0,0,1-.73,1,1,1,0,0,1-1.14-.31c-.12-.13-.21-.29-.32-.43a1.14,1.14,0,0,0-1.92,0c-.12,0-.18.11-.06.23l0,1.71Z"/><path class="cls-1" d="M43.33,85.71a1.24,1.24,0,0,1,.08-.66v0a4.3,4.3,0,0,1,1.09-2.63,1.35,1.35,0,0,1-.21.62c0,.12,0,.31.12.25.49-.18.93.28,1.4.05a5.57,5.57,0,0,0-.47,1.65.66.66,0,0,0,.23,0l2.77-.45c1-.14.79-.11.68-1A2.8,2.8,0,0,1,51,83.36a.31.31,0,0,0,.38-.17c.28.66.6,1.33.14,2a.6.6,0,0,0-.48.21l-.24,0a3.34,3.34,0,0,0-1.57.22l-.28.06a.42.42,0,0,0-.57.06h-.18c-.15,0-.31-.06-.42.09l-.43,0a1.94,1.94,0,0,0-1.48.29l-.28,0a3.93,3.93,0,0,0-1.67,0c-.6.09-.45-.18-.5-.46A.23.23,0,0,0,43.33,85.71Z"/><path class="cls-1" d="M126.22,84.24a4.3,4.3,0,0,0-.17-1.23,1.2,1.2,0,0,0-2-.28,4.17,4.17,0,0,0-.55,1,1.06,1.06,0,0,1-1.36.65,1.1,1.1,0,0,1-.74-1.33,2,2,0,0,1,.89-1.29,5.25,5.25,0,0,1,4.75-.64,2,2,0,0,1,1.48,2,1.12,1.12,0,0,1-1.47.69C126.5,83.63,126.32,83.79,126.22,84.24Z"/><path class="cls-1" d="M86.78,107.19l-2.25-2.79a29.68,29.68,0,0,0-2.31-2.66V103c0,1.2,0,2.4,0,3.61,0,.21,0,.47-.3.45s-.22-.29-.22-.46c0-1.93,0-3.85,0-5.77,0-.21-.16-.54.17-.62a.79.79,0,0,1,.91.28c.81,1.06,1.66,2.11,2.49,3.16a8.55,8.55,0,0,0,1.16,1.28v-2c0-.76,0-1.53,0-2.29,0-.17,0-.38.23-.4s.26.19.26.37c0,2.14,0,4.29,0,6.43C86.9,107,86.87,107,86.78,107.19Z"/><path class="cls-1" d="M48.88,52a9.62,9.62,0,0,0-.46-1,1.78,1.78,0,0,0-3,0c-.21.32-.37.67-.83.66h0a.75.75,0,0,1,.07-.93c.17-.22.31-.52.54-.63.94-.46.7-1.18.5-1.91a3.21,3.21,0,0,1-.11-.59.79.79,0,0,1,.58-.88.77.77,0,0,1,1,.43c.2.61.47.48.89.27a3.53,3.53,0,0,1,3,0c.47.19.54.48.22.89a3.25,3.25,0,0,1-2.91,1.09,2.25,2.25,0,0,1-.36-.06c-.09,0-.2,0-.24.1s.06.18.14.23a3.48,3.48,0,0,1,1,.91c.15.19.31.39.2.66s-.15.37-.08.6S49,52,48.88,52ZM48,48.43A2.08,2.08,0,0,0,50.48,48,2.2,2.2,0,0,0,48,48.43Zm-1.47-1-.17,0c.1.6.2,1.2.31,1.8a.25.25,0,0,0,.15.15.18.18,0,0,0,.17-.21A4.93,4.93,0,0,0,46.56,47.45Z"/><path class="cls-1" d="M106.21,82.46A3.26,3.26,0,0,1,107,84.8c0,.54-.43.67-.86.74l-4.21.61-1.13.16a3.79,3.79,0,0,1-2.16.11,1.71,1.71,0,0,1,0-1v-.23a1.35,1.35,0,0,1,.14-.74c.24-.13.47-.36.75,0a.33.33,0,0,0,.33,0c.28-.29.52,0,.78,0-.08.45.12.53.53.45a20.57,20.57,0,0,1,2.06-.34c1.29-.14,1.29-.13.9-1.36a2.69,2.69,0,0,1,1.13-.06C106.22,83.24,106.22,83.25,106.21,82.46Z"/><path class="cls-1" d="M98.59,86.42a3.79,3.79,0,0,0,2.16-.11,4.21,4.21,0,0,0,.6,2,2.43,2.43,0,0,0,3.71.72,5,5,0,0,0,.94-1c.17-.24.38-.42.7-.29a.6.6,0,0,1,.36.74,3,3,0,0,1-.65,1.58.83.83,0,0,1-.85,0,3.14,3.14,0,0,0-1.75-.06A19.38,19.38,0,0,0,101,90a2.23,2.23,0,0,1-1.4,0A5.2,5.2,0,0,1,98.59,86.42Z"/><path class="cls-1" d="M96.75,90.31a1.2,1.2,0,0,1-.83.88,6.46,6.46,0,0,1-5.47.14,3.48,3.48,0,0,1-1.93-2.25,19,19,0,0,0,2.59-.27c.18.24.35.49.55.71a1.81,1.81,0,0,0,2.52.24c.07.15.17.29.36.25a4.76,4.76,0,0,1,1.36,0C96.17,90.07,96.59,89.84,96.75,90.31Z"/><path class="cls-1" d="M8.54,85.23c-.06.45-.27.66-.75.6a5.41,5.41,0,0,0-.9,0A1.11,1.11,0,0,1,6,85.51a.62.62,0,0,0-1,.26c-.06.13-.12.3-.28.22-.72-.36-1.49-.08-2.22-.17V83.29H5.05a1.6,1.6,0,0,1,0,.3c-.09.53.11.69.65.67a4.4,4.4,0,0,0,2.16-.62c.65,0,1.32.19,2-.15.26-.15.41.2.64.2a3.37,3.37,0,0,1-1.55,1.13C8.75,84.91,8.48,84.91,8.54,85.23Zm1.39-1.37s-.07,0-.1,0,0,.07,0,.1.07,0,.09,0S9.92,83.9,9.93,83.86Z"/><path class="cls-1" d="M100.64,84.5c-.26,0-.5-.31-.78,0a.33.33,0,0,1-.33,0c-.28-.33-.51-.1-.75,0a4.19,4.19,0,0,1,3.52-3.58,3.84,3.84,0,0,1,3.7,1.19c.09.1.21.2.21.35,0,.79,0,.78-.95.73a2.69,2.69,0,0,0-1.13.06l0,0a.14.14,0,0,0-.14-.14l-.09-.1c0-.19-.07-.28-.27-.25a1.81,1.81,0,0,0-2.76,1C100.79,84,100.72,84.25,100.64,84.5Z"/><path class="cls-1" d="M78.89,89.94l-.07-.4a.86.86,0,0,1,.39-.24,16.54,16.54,0,0,1,2-.11,1.77,1.77,0,0,0,1.66,1.22,1.14,1.14,0,0,0,1.25-.86,10.44,10.44,0,0,1,2.37.11,1.49,1.49,0,0,1-1,1.65,6.77,6.77,0,0,1-5.42,0A1.85,1.85,0,0,1,78.92,90Z"/><path class="cls-1" d="M9.23,103.54c0-1,0-1.92,0-2.88,0-.37.07-.53.49-.52,1.08,0,2.16,0,3.24,0,.19,0,.48-.1.41.31s-.14.42-.5.36a6.58,6.58,0,0,0-2.08-.22c-.4.06-.55.22-.52.62a11.52,11.52,0,0,1,0,1.44c0,.45.15.55.55.53s.93,0,1.39,0c.15,0,.34,0,.36.2s-.2.25-.38.25c-.5,0-1,0-1.5,0-.31,0-.42.09-.41.41q0,1,0,2.1c0,.32.11.42.43.38.77-.09,1.55-.15,2.33-.23.2,0,.43-.09.41.24s0,.5-.37.49H9.58c-.38,0-.35-.24-.35-.48Z"/><path class="cls-1" d="M126.22,84.24c.1-.45.28-.61.81-.49a1.12,1.12,0,0,0,1.47-.69v.17c0,.11,0,.22.08.3,0,1.16,0,2.33,0,3.49a7.73,7.73,0,0,1-1.36,0c-.58-.12-1,.08-1,.71,0-.32,0-.63,0-.95s-.15-.43-.47-.32a7.33,7.33,0,0,0-1.78.81c-.58,0-1.12-.34-1.73-.17a.38.38,0,0,1-.37-.26,3,3,0,0,1,1.49-.91c.94-.31,1.9-.59,2.84-.88h0Z"/><path class="cls-1" d="M20,107a.6.6,0,0,1-.85-.51c-.21-1.18-.93-1.43-2.05-1.36-1.5.11-1.51,0-2.1,1.46a2,2,0,0,1-.15.33.39.39,0,0,1-.49.08c-.2-.08-.06-.24,0-.35l2.79-6.38c.05-.1.06-.26.2-.27s.23.15.28.27c.93,2.13,1.86,4.25,2.78,6.38C20.65,107.3,20.05,106.89,20,107Zm-2.9-5.52-1.24,3c-.11.28.12.23.26.24.58,0,1.16,0,1.74,0s.54-.08.35-.5C17.81,103.36,17.48,102.5,17.07,101.47Z"/><path class="cls-1" d="M115.72,107a.56.56,0,0,1-.8-.47c-.22-1.19-.93-1.48-2.08-1.4-1.49.11-1.5,0-2.06,1.41,0,.11-.09.23-.14.33a.38.38,0,0,1-.48.15c-.27-.08-.09-.27,0-.39l2.79-6.37c0-.11.07-.26.22-.27s.18.14.23.25c.94,2.14,1.89,4.28,2.81,6.43C116.45,107.32,115.79,106.85,115.72,107Zm-2.86-5.51c-.45,1.07-.83,2-1.22,2.9-.11.26,0,.32.22.32q.93,0,1.86,0c.35,0,.41-.11.28-.43C113.63,103.39,113.28,102.51,112.86,101.48Z"/><path class="cls-1" d="M91,100a9.26,9.26,0,0,1,1.16.18c.42.06.46.32.37.64s-.39.12-.55.06c-.42-.13-.84-.26-1.27-.35s-.73-.12-1,.27a1,1,0,0,0,.07,1.18,3.26,3.26,0,0,0,1.1.92c.41.25.84.48,1.22.76a1.8,1.8,0,0,1,.87,1.85A1.84,1.84,0,0,1,91.5,107a4.8,4.8,0,0,1-2.78-.22.31.31,0,0,1-.21-.43c.07-.26.25-.09.37,0a3.36,3.36,0,0,0,1.87.32,1.2,1.2,0,0,0,1-.82,1.15,1.15,0,0,0-.3-1.27,6,6,0,0,0-1.34-.89l-.32-.18a1.94,1.94,0,0,1-1.2-2.19C88.85,100.47,89.67,100,91,100Z"/><path class="cls-1" d="M64.24,102.79c0,.72,0,1.44,0,2.16A2.06,2.06,0,0,1,62.57,107a4.06,4.06,0,0,1-1.25.12A2.21,2.21,0,0,1,59,104.8c-.05-1.42,0-2.84,0-4.27,0-.47.28-.38.55-.38s.56-.06.55.4c0,1.38,0,2.76,0,4.14a1.77,1.77,0,0,0,2.45,1.83,1.69,1.69,0,0,0,1.22-1.78c0-1.35,0-2.69,0-4,0-.2-.16-.56.25-.55s.21.33.22.52c0,.7,0,1.4,0,2.11Z"/><path class="cls-1" d="M48.88,52c.12,0,.33,0,.26-.18s.07-.4.08-.6c.52.26.47.83.64,1.27a10,10,0,0,0,.82,1.79.75.75,0,0,0,1,.35,8.27,8.27,0,0,0,3-1.85,3.48,3.48,0,0,1,1.78-.95A2.29,2.29,0,0,1,59,54.43a.13.13,0,0,0,0,.22c0,.08,0,.17,0,.25-.17.09-.17.21-.05.35a.46.46,0,0,1-.07.36.71.71,0,0,1-.52-.78,4.33,4.33,0,0,0-.11-1.18A1.55,1.55,0,0,0,56,52.8a11.37,11.37,0,0,0-1.69,1.33,5.33,5.33,0,0,1-1.94,1.06,5.32,5.32,0,0,0-1.62.88c-.18-.16-.39-.06-.59-.09h0c.07-.17.28-.29.23-.52a.34.34,0,0,0-.08-.38A9,9,0,0,1,48.88,52Z"/><path class="cls-1" d="M43,100a7.08,7.08,0,0,1,1.37.2c.38.07.41.33.33.63s-.35.13-.51.07a8.61,8.61,0,0,0-1.51-.4.8.8,0,0,0-.91,1,1.5,1.5,0,0,0,.65.9c.54.36,1.09.68,1.63,1a2,2,0,0,1,1.08,2.21,2.13,2.13,0,0,1-2,1.45,5.84,5.84,0,0,1-2.07-.3c-.25-.07-.43-.21-.34-.46s.34-.06.48,0a3.28,3.28,0,0,0,1.75.28,1.19,1.19,0,0,0,1-.8,1.14,1.14,0,0,0-.32-1.31,10,10,0,0,0-1.72-1.1,2,2,0,0,1-1.14-1.52C40.69,100.75,41.57,100,43,100Z"/><path class="cls-1" d="M23.6,82.82a3.81,3.81,0,0,1,2.45-1.77,5.37,5.37,0,0,1,3.95.38,1.74,1.74,0,0,1,1.11,1.86,2.46,2.46,0,0,1-.47,0c-.72-.11-1.53.32-2.15-.35a1.44,1.44,0,0,0-1.55-.48,2.49,2.49,0,0,0-1.32,1c-.27-.33-.4.2-.47.13C24.73,83.09,24.1,83.1,23.6,82.82Z"/><path class="cls-1" d="M120.46,100a6.27,6.27,0,0,1,1.37.18c.2,0,.39.09.37.38s0,.58-.51.36a2.92,2.92,0,0,0-2.2-.33,2.89,2.89,0,0,0-1.92,2.78,3,3,0,0,0,4.43,3c.12-.06.3-.33.41,0a.36.36,0,0,1-.22.48,4.92,4.92,0,0,1-5.08-1,3.67,3.67,0,0,1,1.65-5.56A4.72,4.72,0,0,1,120.46,100Z"/><path class="cls-1" d="M51.14,59.7a2.72,2.72,0,0,1,1.8-2.88c.73-.23,1.47-.39,2.21-.6a.43.43,0,0,1,.62.35c.2.76.43,1.52.58,2.29a2.44,2.44,0,0,1-1,2.55,2.53,2.53,0,0,1-2.83.24A2.35,2.35,0,0,1,51.14,59.7Zm4.47-.56a10.46,10.46,0,0,0-.45-1.86.22.22,0,0,0-.31-.18,8.46,8.46,0,0,0-2.15.7A1.84,1.84,0,0,0,52,60a1.86,1.86,0,0,0,3.57-.89Z"/><path class="cls-1" d="M102.32,106.21c.1.31.12.57-.25.67a5.16,5.16,0,0,1-4.24-.39,3.53,3.53,0,0,1,0-5.73,4.78,4.78,0,0,1,4-.57c.39.09.38.32.3.63s-.35.13-.5.07a3.2,3.2,0,0,0-2.27-.28,3,3,0,0,0-1.82,3.21c.23,2.51,2.34,3.63,4.6,2.45A.76.76,0,0,1,102.32,106.21Z"/><path class="cls-1" d="M62.55,26.5A6.41,6.41,0,0,1,67,23.91a7,7,0,0,1,5.91,1.67,1.17,1.17,0,0,1,.39.44c-.41,0-.93-.31-1.1.38a6.7,6.7,0,0,0-3.65-1.48A6.54,6.54,0,0,0,64,26.5c-.22-.11-.63.36-.71-.23,0-.12-.16-.08-.24,0S62.75,26.52,62.55,26.5Z"/><path class="cls-1" d="M14.79,86.3a15.4,15.4,0,0,1,2.95-1c.47-.13.65-.31.62-.82a3.1,3.1,0,0,0-.45-2,2.65,2.65,0,0,0,1.72.74c.34,0,.47,0,.54-.32.22.06.08.35.33.34.2-.26-.21-.57.05-.83a10.64,10.64,0,0,1,.2,3.69c-.24.38-.25.35-.75.44a10.66,10.66,0,0,1-1.6-.1h0c-.15-.43-.32-.08-.48,0l-.11,0a1.27,1.27,0,0,0-1.1.28c-.1.11-.31.25-.48.15s.22-.31,0-.53A1.17,1.17,0,0,1,14.79,86.3Zm3.92-2.92-.1,0s0,.07,0,.1a.12.12,0,0,0,.1,0S18.7,83.42,18.71,83.38Z"/><path class="cls-1" d="M45.82,83.29c-.47.23-.91-.23-1.4-.05-.15.06-.16-.13-.12-.25a1.35,1.35,0,0,0,.21-.62c1.63-2.18,5.84-2.12,6.85.82a.31.31,0,0,1-.38.17,2.8,2.8,0,0,0-1.95.22l0,0c.07-.35,0-.64-.43-.63C47.54,82.12,46.75,82.23,45.82,83.29Z"/><path class="cls-1" d="M55.83,85.22a40.59,40.59,0,0,1,0,4.68h-2.5V85.7c.55,0,1.11,0,1.66,0S55.72,85.67,55.83,85.22Z"/><path class="cls-1" d="M20.55,82.39c-.26.26.15.57-.05.83-.25,0-.11-.28-.33-.34-.07.27-.2.35-.54.32a2.65,2.65,0,0,1-1.72-.74h0l-.18-.11-1,0h0l-.2,0a.17.17,0,0,0-.17.14l-.19.2c-.09,0-.16,0-.17.16h0c-.34-.09-.34.26-.56.45-.11-.53-.51-.33-.83-.35s-.66-.1-.93.21l.13-.76a3.28,3.28,0,0,1,1.95-1.3,5.73,5.73,0,0,1,3-.11A2.23,2.23,0,0,1,20.55,82.39Z"/><path class="cls-1" d="M94.28,82.63a1.13,1.13,0,0,0,1.17.43c.48,0,1,0,1.43,0a34.88,34.88,0,0,1,0,4.09h-2.5c0-.29,0-.59,0-.89C94.31,85.05,94.41,83.84,94.28,82.63Z"/><path class="cls-1" d="M70.14,86.54a.08.08,0,0,1,0,.1c.07.18.39.12.36.38l0,0,0,0c.57.1,1.21-.25,1.68.33A9.94,9.94,0,0,1,71.51,89a.16.16,0,0,0-.05.09h0a.62.62,0,0,0-.24.53,0,0,0,0,1,0,.06,5,5,0,0,1-2.3,0l-1.06-2.53c-.17-.64.14-.77.71-.73a12.52,12.52,0,0,0,1.5,0l0,0A1.71,1.71,0,0,1,70.14,86.54Z"/><path class="cls-1" d="M128.56,89.93a1.46,1.46,0,0,1-1.12,1.46,7,7,0,0,1-5,0,2.16,2.16,0,0,1-1.47-1.75c.37,0,.28.37.44.57.51-.35,1.08-.17,1.62-.21.23,0,.51.08.59-.26,1,.89,1.87.88,2.59,0,.08.39.43.39.7.4A6.86,6.86,0,0,0,128.56,89.93Z"/><path class="cls-1" d="M67.24,103.81c0-.88,0-1.76,0-2.64,0-.48-.19-.62-.6-.56s-.74.15-1.11.24-.41.05-.43-.28,0-.43.32-.43q2.34,0,4.68,0c.42,0,.31.26.31.49s-.21.26-.42.22-.65-.17-1-.23-.72,0-.71.62c0,1.72,0,3.45,0,5.17,0,.53-.17.65-.65.63s-.44-.13-.44-.46c0-.93,0-1.85,0-2.77Z"/><path class="cls-1" d="M21.48,103.61c0-1,0-2,0-3,0-.47.23-.45.55-.46s.56,0,.55.47c0,1.72,0,3.45,0,5.17,0,.57.21.74.71.76a10.93,10.93,0,0,0,1.72-.22c.17,0,.4-.11.39.2s0,.48-.3.49h-3.3c-.36,0-.28-.26-.29-.47Z"/><path class="cls-1" d="M27.19,103.75c0-.88,0-1.77,0-2.65,0-.41-.16-.55-.52-.49a9.3,9.3,0,0,0-1.17.23c-.27.07-.42,0-.44-.28s0-.42.33-.42c1.54,0,3.09,0,4.63,0,.35,0,.38.16.36.45s-.2.3-.44.24c-1.7-.37-1.7-.37-1.7,1.37,0,1.44,0,2.88,0,4.32,0,.47-.21.5-.58.52s-.5-.16-.5-.53c0-.92,0-1.84,0-2.76Z"/><path class="cls-1" d="M31.12,89.43c-.48,0-1,0-1.44,0a1,1,0,0,1-1-.36V85.94a1.54,1.54,0,0,1,1.27-.48.74.74,0,0,0,.56-.12c.19-.16.41-.11.63-.11Q31.21,87.33,31.12,89.43Z"/><path class="cls-1" d="M62.55,26.5c.2,0,.31-.13.45-.24s.22-.11.24,0c.08.59.49.12.71.23A7.16,7.16,0,0,0,61.89,31,26.86,26.86,0,0,1,61,34.08c-.18-.28-.59.17-.75-.23a.72.72,0,0,0-.18.72c.06.2.26.36.21.6-.55-.43-.39-1-.25-1.53A28.38,28.38,0,0,0,61,30a7,7,0,0,1,1.36-3.35A.9.9,0,0,1,62.55,26.5Z"/><path class="cls-1" d="M39.14,86.79a31.43,31.43,0,0,1,0-3.5,2.18,2.18,0,0,0,.52-.11c.66-.13,1.34-.37,2,.12v3.48c-.07.09-.15.26-.2.25C40.67,86.9,39.86,87.22,39.14,86.79Z"/><path class="cls-1" d="M54.13,103.57c0-1,0-2,0-2.95,0-.44.19-.49.55-.48s.54,0,.53.48c0,1.74,0,3.49,0,5.23,0,.48.17.63.6.68a8.82,8.82,0,0,0,1.85-.21c.15,0,.39-.15.4.16s0,.53-.34.54c-1.1,0-2.2,0-3.3,0-.32,0-.25-.26-.25-.45C54.13,105.57,54.13,104.57,54.13,103.57Z"/><path class="cls-1" d="M28.66,92.46c.81.22,1.64,0,2.46.12,0,1.06,0,2.12,0,3.18,0,.39-.16.55-.54.53s-1,0-1.44,0-.56-.18-.55-.58C28.65,94.63,28.65,93.55,28.66,92.46Z"/><path class="cls-1" d="M90,52.5a1.68,1.68,0,1,1,.09-3.36,1.71,1.71,0,0,1,1.63,1.74A1.65,1.65,0,0,1,90,52.5Z"/><path class="cls-1" d="M99.56,90a2.23,2.23,0,0,0,1.4,0,19.38,19.38,0,0,1,2.85,0,3.14,3.14,0,0,1,1.75.06.83.83,0,0,0,.85,0,3.58,3.58,0,0,1-3.36,1.8A3.85,3.85,0,0,1,99.56,90Z"/><path class="cls-1" d="M74.57,83.78a21.19,21.19,0,0,0,2.52,0v3.32H74.57Z"/><path class="cls-1" d="M88.66,84c.52.12,1.06-.09,1.56,0A1.06,1.06,0,0,0,91,83.9a7.82,7.82,0,0,0-.33,3.36c-.1.07-.21.21-.29.19a9.33,9.33,0,0,0-2.24-.18,6.49,6.49,0,0,1,.3-3.06C88.48,84.13,88.59,84.08,88.66,84Z"/><path class="cls-1" d="M23.6,82.82c.5.28,1.13.27,1.55.73.07.07.2-.46.47-.13a7,7,0,0,0-.73,2.76,1.52,1.52,0,0,1-1.31.36c-.39,0-.79,0-1.19,0A6.13,6.13,0,0,1,23.6,82.82Z"/><path class="cls-1" d="M109.3,89.07a25,25,0,0,1,0-3c.47.05.93-.18,1.36-.1.6.11,1.06.15,1.14-.62a28.49,28.49,0,0,1,0,3.92A7.46,7.46,0,0,0,109.3,89.07Z"/><path class="cls-1" d="M2.42,88.12c.13.1.1.34.35.35.5,0,1,.06,1.49.12a.64.64,0,0,0,.79-.48v3.16h0c0,.15-.11.29-.27.29-.7,0-1.4,0-2.1,0-.28,0-.29-.27-.29-.5Z"/><path class="cls-1" d="M72.17,26.4c.17-.69.69-.4,1.1-.38a7,7,0,0,1,2,6.33c0,.06-.06.1-.1.15s-.06-.09-.07-.09c-.62.27-.65-.28-.83-.61,0-.52,0-1,0-1.55A6.66,6.66,0,0,0,72.17,26.4Z"/><path class="cls-1" d="M72.17,87.35c-.47-.58-1.11-.23-1.68-.33h0c0-.26-.29-.2-.36-.38.43.16.39-.24.48-.43.5-1.1.85-2.26,1.43-3.32,0,.61.61.28.9.44s.31.17.37.36c.27,0,.26-.37.5-.4C73.35,84.68,72.76,86,72.17,87.35Z"/><path class="cls-1" d="M109.3,84c0-.82,0-1.64,0-2.46,0-.29.14-.43.45-.42q.84,0,1.68,0c.29,0,.46.12.45.42,0,.9.06,1.8,0,2.7C111,84,110.11,84.27,109.3,84Z"/><path class="cls-1" d="M86.47,89.66a10.44,10.44,0,0,0-2.37-.11c0-1,0-2.09,0-3.13a4.63,4.63,0,0,0,1.34.13c.57.06,1,0,1-.71A19.5,19.5,0,0,1,86.47,89.66Z"/><path class="cls-1" d="M35.78,88.91a8,8,0,0,0-2.53-.2,27.86,27.86,0,0,1,0-2.89H35a.93.93,0,0,0,.76-.24A28.29,28.29,0,0,1,35.78,88.91Z"/><path class="cls-1" d="M94.38,87.14h2.5a8.89,8.89,0,0,1-.13,3.17c-.16-.47-.58-.24-.85-.25a4.76,4.76,0,0,0-1.36,0c-.19,0-.29-.1-.36-.25a2.2,2.2,0,0,0,.16-.76C94.35,88.38,94.36,87.76,94.38,87.14Z"/><path class="cls-1" d="M72.42,103.59c0,1,0,2,0,3,0,.36-.13.44-.46.42s-.55,0-.55-.41c0-2,0-4,0-6.06,0-.45.28-.38.56-.4s.45.11.45.45C72.41,101.59,72.42,102.59,72.42,103.59Z"/><path class="cls-1" d="M81.19,89.19a16.54,16.54,0,0,0-2,.11.86.86,0,0,0-.39.24,2.41,2.41,0,0,1,.54-2.34,2.58,2.58,0,0,1,1.48-1c0,.65.6.34.82.3.44-.08.77-.13,1,.33a2.15,2.15,0,0,0-1.38,1.57C81.23,88.64,81.22,88.91,81.19,89.19Z"/><path class="cls-1" d="M123.58,89.77c-.08.34-.36.24-.59.26-.54,0-1.11-.14-1.62.21-.16-.2-.07-.57-.44-.57a2.58,2.58,0,0,1,.92-2.81.38.38,0,0,0,.37.25c.61-.17,1.15.22,1.73.17a2.14,2.14,0,0,0-.51,2.23c0,.11,0,.23.13.28Z"/><path class="cls-1" d="M33.25,83.89l0-2.27c0-.35.14-.5.5-.49.52,0,1,0,1.56,0,.34,0,.53.15.52.49A19,19,0,0,1,35.74,84c-.27.11-.4-.27-.65-.2A8.11,8.11,0,0,1,33.25,83.89Z"/><path class="cls-1" d="M128.56,89.93a6.86,6.86,0,0,1-1.69.21c-.27,0-.62,0-.7-.4,0-.67,0-1.33,0-2s.43-.83,1-.71a7.73,7.73,0,0,0,1.36,0A25.69,25.69,0,0,1,128.56,89.93Z"/><path class="cls-1" d="M70.06,86.38a12.52,12.52,0,0,1-1.5,0c-.57,0-.88.09-.71.73-.47-1.11-1-2.21-1.34-3.37a12.85,12.85,0,0,0,1.52,0s.08,0,.12,0c.55,0,.55,0,.56-.6A22.37,22.37,0,0,1,70.06,86.38Z"/><path class="cls-1" d="M63.52,83.29a1.45,1.45,0,0,0,1.07.24,1.35,1.35,0,0,1,1,.24c0,1.13,0,2.25,0,3.37-.25.09-.36-.25-.65-.16-.54.16-1,.1-.94-.71-.1.35,0,.75-.42.87Z"/><path class="cls-1" d="M82.65,86.79c-.22-.46-.55-.41-1-.33-.22,0-.77.35-.82-.3h0c.07,0,.16,0,.19,0s0-.07-.07-.09a15.29,15.29,0,0,1,2.64-.84c.27-.08.49-.16.49-.49.78-.06,1.55.2,2.33.12a3,3,0,0,1,0,1c0,.68-.44.77-1,.71a4.63,4.63,0,0,1-1.34-.13L84,86.36a.76.76,0,0,0-1.06.33Z"/><path class="cls-1" d="M77.09,89.07c0,.66,0,1.32,0,2,0,.39-.15.55-.53.54s-1,0-1.5,0-.55-.15-.54-.53l0-2.23a13.3,13.3,0,0,0,1.67,0A.93.93,0,0,1,77.09,89.07Z"/><path class="cls-1" d="M116.39,86.54a16.44,16.44,0,0,1,0,2.53,12.85,12.85,0,0,0-2.48.12,12.13,12.13,0,0,1,0-2.76Z"/><path class="cls-1" d="M8.29,89.55a6,6,0,0,1,2.07,0c.31.09.38-.31.58-.46A13,13,0,0,1,12.24,91c.19.32.12.6-.34.6h-2a.71.71,0,0,1-.64-.37A15.12,15.12,0,0,1,8.29,89.55Z"/><path class="cls-1" d="M22.39,86.54c.4,0,.8,0,1.19,0a1.52,1.52,0,0,0,1.31-.36,5.9,5.9,0,0,0,.6,2.77,17.13,17.13,0,0,1-2.77.12A5.21,5.21,0,0,1,22.39,86.54Z"/><path class="cls-1" d="M109.3,89.07a7.46,7.46,0,0,1,2.49.2,16.27,16.27,0,0,1,0,1.85c0,.33-.14.47-.47.47-.56,0-1.11,0-1.67,0-.3,0-.45-.13-.44-.43C109.27,90.46,109.29,89.77,109.3,89.07Z"/><path class="cls-1" d="M43.33,85.71a.23.23,0,0,1,.07.1c.05.28-.1.55.5.46a3.93,3.93,0,0,1,1.67,0,2.35,2.35,0,0,0,.25,1.47c.07.22.18.43.27.65s0,.47-.49.45c-.62,0-1.25.1-1.88.08A6.86,6.86,0,0,1,43.33,85.71Z"/><path class="cls-1" d="M113.91,89.19a12.85,12.85,0,0,1,2.48-.12c0,.66,0,1.32,0,2,0,.37-.16.55-.55.54s-1,0-1.44,0-.69-.23-.62-.67S113.83,89.77,113.91,89.19Z"/><path class="cls-1" d="M18.4,86.42a10.66,10.66,0,0,0,1.6.1c.5-.09.51-.06.75-.44a24.68,24.68,0,0,1,0,3l-.15-.24c-.19.63-.65.2-1,.24s-.81,0-1.21,0C18.42,88.19,18.41,87.3,18.4,86.42Z"/><path class="cls-1" d="M39.14,86.79c.72.43,1.53.11,2.28.24,0,0,.13-.16.2-.25v2.28c-.45.63-1.11.34-1.68.33-.28,0-.58-.07-.87-.09C39.09,88.46,39.12,87.63,39.14,86.79Z"/><path class="cls-1" d="M111.87,78.46a1.22,1.22,0,0,1-1.33,1.27,1.25,1.25,0,0,1-1.39-1.24,1.27,1.27,0,0,1,1.33-1.3C111.37,77.18,111.86,77.62,111.87,78.46Z"/><path class="cls-1" d="M55.83,85.22c-.11.45-.43.52-.84.49s-1.11,0-1.66,0c0-1,0-1.91,0-2.87a.76.76,0,0,0,1,.71c.51-.09,1.07.21,1.51-.25C55.82,83.93,55.82,84.58,55.83,85.22Z"/><path class="cls-1" d="M63.52,87.14c.46-.12.32-.52.42-.87-.07.81.4.87.94.71.29-.09.4.25.65.16a21.29,21.29,0,0,1,0,2.65,2.58,2.58,0,0,0-1.06-.11c-.57.15-.87,0-1-.61Z"/><path class="cls-1" d="M31.12,85.23c-.22,0-.44,0-.63.11a.74.74,0,0,1-.56.12,1.54,1.54,0,0,0-1.27.48,17.71,17.71,0,0,0-.17-3c.62.67,1.43.24,2.15.35a2.46,2.46,0,0,0,.47,0A10.48,10.48,0,0,1,31.12,85.23Z"/><path class="cls-1" d="M41.62,83.3c-.62-.49-1.3-.25-2-.12a2.18,2.18,0,0,1-.52.11c0-.54,0-1.07,0-1.61,0-.37.13-.56.52-.55s1,0,1.55,0c.32,0,.51.13.5.45A7.62,7.62,0,0,1,41.62,83.3Z"/><path class="cls-1" d="M33.25,83.89a8.11,8.11,0,0,0,1.84-.08c.25-.07.38.31.65.2a4.42,4.42,0,0,1,0,1.58.93.93,0,0,1-.76.24H33.25A11.31,11.31,0,0,1,33.25,83.89Z"/><path class="cls-1" d="M79.62,57c-1,0-2,0-2.94,0-.26,0-.57,0-.56-.36s.3-.32.54-.32l5.77,0h.24c.21,0,.41.13.4.37s-.24.27-.45.27Z"/><path class="cls-1" d="M109.3,84c.81.26,1.68,0,2.49.24a2.55,2.55,0,0,1,0,1.1c-.08.77-.54.73-1.14.62-.43-.08-.89.15-1.36.1A11.81,11.81,0,0,1,109.3,84Z"/><path class="cls-1" d="M77.48,53.57H74.72c-.23,0-.56.06-.58-.26s.31-.4.56-.4c1.15,0,2.29,0,3.43,0h2a1.89,1.89,0,0,1,.53.08c.13,0,.3.09.3.25a.34.34,0,0,1-.34.3c-.41,0-.83,0-1.25,0Z"/><path class="cls-1" d="M116.39,86.54l-2.49-.11a7.39,7.39,0,0,1,0-1.82l2.49,0A10.16,10.16,0,0,1,116.39,86.54Z"/><path class="cls-1" d="M50.16,56c.2,0,.41-.07.59.09a4.74,4.74,0,0,0-1.34,4.5c-.11.1-.06.17.05.23l0,0c-.09.26-.1.59-.5.56A5,5,0,0,1,49.81,56c.18-.18.39-.34.58-.52,0,.23-.16.35-.23.52l0,.05Z"/><path class="cls-1" d="M53.33,89.9h2.5c.24,1.59.17,1.69-1.37,1.69-1.17,0-1.17,0-1.16-1.15C53.3,90.26,53.32,90.08,53.33,89.9Z"/><path class="cls-1" d="M76.83,60.18h2.46c.28,0,.67,0,.67.31s-.4.35-.67.35c-1.1,0-2.2,0-3.3,0a9.72,9.72,0,0,1-1.79-.06c-.22,0-.47-.09-.43-.39s.29-.22.49-.22Z"/><path class="cls-1" d="M14.79,86.3a1.17,1.17,0,0,0,1.44,0c.22.22-.25.38,0,.53s.38,0,.48-.15a1.27,1.27,0,0,1,1.1-.28c-.81.43-1.77.65-2.23,1.58a3.49,3.49,0,0,1-2.32-.12A2.62,2.62,0,0,1,14.79,86.3Z"/><path class="cls-1" d="M88.15,87.27a9.33,9.33,0,0,1,2.24.18c.08,0,.19-.12.29-.19.14.52.28,1,.43,1.55a19,19,0,0,1-2.59.27.26.26,0,0,1-.08-.26c.16-.22,0-.33-.14-.46A2.15,2.15,0,0,1,88.15,87.27Z"/><path class="cls-1" d="M77.09,89.07a.93.93,0,0,0-.84-.26,13.3,13.3,0,0,1-1.67,0c0-.56,0-1.12,0-1.69h2.52Z"/><path class="cls-1" d="M83.31,50h2.82c.22,0,.57-.1.59.24s-.35.38-.62.38c-1.34,0-2.69,0-4,0-.58,0-1.16,0-1.74,0-.23,0-.53,0-.52-.32s.29-.29.5-.29Z"/><path class="cls-1" d="M41.62,56.58a3.86,3.86,0,0,1,1-1.72,5.38,5.38,0,0,0,1-1.49c.11-.28.24-.56.6-.4s.22.47.1.73a4.63,4.63,0,0,1-1,1.56A7.09,7.09,0,0,0,42.3,56.7c-.35.19-.3.53-.31.86h0C41.73,57.28,41.87,56.86,41.62,56.58Z"/><path class="cls-1" d="M63.52,89.07c.09.57.39.76,1,.61a2.58,2.58,0,0,1,1.06.11l0,1.25c0,.37-.13.56-.53.55-1.83,0-1.52.21-1.54-1.44C63.5,89.79,63.51,89.43,63.52,89.07Z"/><path class="cls-1" d="M41.62,56.58c.25.28.11.7.37,1A6.25,6.25,0,0,0,42.35,61c-.21.07-.35.31-.61.25A5.16,5.16,0,0,1,41.62,56.58Z"/><path class="cls-1" d="M58.32,54.83a.71.71,0,0,0,.52.78,6.91,6.91,0,0,0,0,2.9.35.35,0,0,1-.31.44c-.28,0-.39-.14-.47-.37a5.49,5.49,0,0,1,0-2.9C58.15,55.4,58.08,55.07,58.32,54.83Z"/><path class="cls-1" d="M13.84,82.39l-.13.76c.27-.31.62-.22.93-.21s.72-.18.83.35c.22-.19.22-.54.56-.45-.1.24-.19.49-.29.73a1.12,1.12,0,0,1-1.56.76,1.18,1.18,0,0,1-.53-1.64A1.66,1.66,0,0,1,13.84,82.39Z"/><path class="cls-1" d="M68.91,89.67a5,5,0,0,0,2.3,0c-.19.52-.38,1-.58,1.56-.1.25-.24.47-.55.45a.61.61,0,0,1-.58-.44Z"/><path class="cls-1" d="M46.56,62.6a.36.36,0,0,1,.39-.38.35.35,0,0,1,.39.42.37.37,0,0,1-.45.36C46.65,63,46.57,62.8,46.56,62.6Z"/><path class="cls-1" d="M58.54,59.45a.37.37,0,0,1,.36.39.34.34,0,0,1-.38.36.31.31,0,0,1-.37-.36C58.16,59.59,58.31,59.49,58.54,59.45Z"/><path class="cls-1" d="M44.62,51.65c0,.12.08.16.13.24a.37.37,0,0,1-.12.6.3.3,0,0,1-.46-.12.38.38,0,0,1,.2-.59l.25-.13Z"/><path class="cls-1" d="M45.85,86.25A1.94,1.94,0,0,1,47.33,86,4,4,0,0,1,45.85,86.25Z"/><path class="cls-1" d="M49.21,85.71a3.34,3.34,0,0,1,1.57-.22A5,5,0,0,1,49.21,85.71Z"/><path class="cls-1" d="M42,57.56c0-.33,0-.67.31-.86A2.29,2.29,0,0,1,42,57.56Z"/><path class="cls-1" d="M48.36,85.83a.42.42,0,0,1,.57-.06A.64.64,0,0,1,48.36,85.83Z"/><path class="cls-1" d="M51,85.44a.6.6,0,0,1,.48-.21C51.38,85.39,51.25,85.54,51,85.44Z"/><path class="cls-1" d="M47.76,85.93c.11-.15.27-.1.42-.09A.3.3,0,0,1,47.76,85.93Z"/><path class="cls-1" d="M88.3,88.36c.12.13.3.24.14.46A.53.53,0,0,1,88.3,88.36Z"/><path class="cls-1" d="M58.91,55.25c-.12-.14-.12-.26.05-.35A.29.29,0,0,1,58.91,55.25Z"/><path class="cls-1" d="M96.81,76.3c-.11,0-.24,0-.31-.1C96.64,76.12,96.76,76.11,96.81,76.3Z"/><path class="cls-1" d="M71.22,89.6a.62.62,0,0,1,.24-.53A.81.81,0,0,1,71.22,89.6Z"/><path class="cls-1" d="M84.09,83.3c.16.09.15.21,0,.34A.3.3,0,0,1,84.09,83.3Z"/><path class="cls-1" d="M116.42,82.92c-.12-.12-.06-.18.06-.23A.19.19,0,0,1,116.42,82.92Z"/><path class="cls-1" d="M86.47,84.13a.21.21,0,0,1,0-.35Z"/><path class="cls-1" d="M66.37,83.41c.14.06.15.18.14.31A.35.35,0,0,1,66.37,83.41Z"/><path class="cls-1" d="M59,54.65a.13.13,0,0,1,0-.22Z"/><path class="cls-1" d="M20.71,90.05l0-.23A.2.2,0,0,1,20.71,90.05Z"/><path class="cls-1" d="M128.57,83.53c-.09-.08-.08-.19-.08-.3A.27.27,0,0,1,128.57,83.53Z"/><path class="cls-1" d="M49.46,60.8c-.11-.06-.16-.13-.05-.23Z"/><path class="cls-1" d="M33.28,89.11l0,.19A.13.13,0,0,1,33.28,89.11Z"/><path class="cls-1" d="M96.87,76.51l0-.15C96.91,76.4,96.93,76.45,96.87,76.51Z"/><path class="cls-1" d="M98.64,85.24v.23A.16.16,0,0,1,98.64,85.24Z"/><path class="cls-1" d="M81,86.06s.13,0,.07.09-.12,0-.19,0Z"/><path class="cls-1" d="M16,82.85c0-.11.08-.14.17-.16A.18.18,0,0,1,16,82.85Z"/><path class="cls-1" d="M8.19,89.39c.17,0,.08.11.1.17Z"/><path class="cls-1" d="M10.48,83.69c0-.12.1-.15.2-.16A.19.19,0,0,1,10.48,83.69Z"/><path class="cls-1" d="M126.19,85.05h0Z"/><path class="cls-1" d="M71.46,89.07a.16.16,0,0,1,.05-.09Z"/><polygon class="cls-1" points="43.42 85 43.41 85.05 43.39 85.02 43.42 85"/><path class="cls-1" d="M78.89,89.94l0,.06,0,0Z"/><polygon class="cls-1" points="35.85 89.15 35.84 89.12 35.87 89.13 35.85 89.15"/><path class="cls-1" d="M70.14,86.54A1.71,1.71,0,0,0,70,86.4C70.12,86.41,70.14,86.47,70.14,86.54Z"/><path class="cls-1" d="M17.73,82.35l.18.11Z"/><polygon class="cls-1" points="16.75 82.32 16.76 82.32 16.76 82.36 16.75 82.32"/><path class="cls-1" d="M16.37,82.49a.17.17,0,0,1,.17-.14Z"/><polygon class="cls-1" points="5.05 91.28 5.05 91.27 5.08 91.29 5.05 91.28"/><polygon class="cls-1" points="42.48 61.25 42.45 61.2 42.49 61.22 42.48 61.25"/><path class="cls-1" d="M42.43,61.16,42.35,61Z"/><path class="cls-1" d="M2.42,86.06a.32.32,0,0,1,0,.09s0,0,0,0A.13.13,0,0,1,2.42,86.06Z"/><path class="cls-1" d="M10.71,83.47l.14-.17Z"/><path class="cls-1" d="M35.82,89.07l-.06-.15Z"/><path class="cls-1" d="M88.66,55.74c0,.09,0,.19-.15.18a0,0,0,0,1,0,0c0-.14.09-.13.18-.15Z"/><path class="cls-1" d="M60.94,34.21c.09.15.26.11.39.17a.44.44,0,0,1-.44,0C60.71,34.34,60.8,34.25,60.94,34.21Z"/><path class="cls-1" d="M94.29,82.61a.38.38,0,0,1-.32-.16C94.1,82.46,94.25,82.43,94.29,82.61Z"/><path class="cls-1" d="M9.93,83.86s0,.09,0,.1-.06,0-.09,0,0-.09,0-.1S9.9,83.85,9.93,83.86Z"/><path class="cls-1" d="M103.92,83l-.27-.25C103.85,82.69,103.94,82.78,103.92,83Z"/><path class="cls-1" d="M104.15,83.21l-.14-.14A.14.14,0,0,1,104.15,83.21Z"/><path class="cls-1" d="M18.4,86.42h-.48C18.08,86.34,18.25,86,18.4,86.42Z"/><path class="cls-1" d="M18.71,83.38s0,.09,0,.1a.12.12,0,0,1-.1,0s0-.07,0-.1Z"/><path class="cls-1" d="M49.05,83.56l-.43-.63C49.08,82.92,49.12,83.21,49.05,83.56Z"/><path class="cls-1" d="M70.49,87l0,0,0,0Z"/><path class="cls-1" d="M123.44,89.51a.31.31,0,0,1,.13.28C123.44,89.74,123.44,89.62,123.44,89.51Z"/><path class="cls-1" d="M84,86.36l-1.06.33A.76.76,0,0,1,84,86.36Z"/><path class="cls-1" d="M50.16,56l0,.05,0-.05Z"/><path class="cls-1" d="M70.45,29.6c-.45,0-.78,0-1.11,0s-.58-.15-.58-.54.24-.5.53-.53a19.56,19.56,0,0,1,2.76,0,.56.56,0,0,1,.54.61c0,.86,0,1.72,0,2.58,0,.34-.13.7-.6.65s-.48-.38-.49-.75.15-.85-.1-.94-.54.38-.79.62c-.65.63-1.27,1.28-1.91,1.9-.47.46-.71.45-1.17,0s-.73-.69-1.06-1.06-.4-.23-.62,0-.74.74-1.11,1.11-.57.4-.89.13-.19-.63.06-.89c.56-.58,1.14-1.14,1.7-1.7a.71.71,0,0,1,1.14,0l1,1c.12.12.25.29.44.09A31.55,31.55,0,0,0,70.45,29.6Z"/></svg>