<svg id="Layer_35" data-name="Layer 35" xmlns="http://www.w3.org/2000/svg" viewBox="0 0 131 131"><defs><style>.cls-1{fill:#ef8429;}</style></defs><path class="cls-1" d="M65.45,128.24a62.74,62.74,0,1,1,62.8-62.37A62.77,62.77,0,0,1,65.45,128.24Zm-.6-4.45A58.29,58.29,0,1,0,7.2,65.38,58.33,58.33,0,0,0,64.85,123.79Z"/><path class="cls-1" d="M26.88,30.5H47.65c.28,0,.57,0,.86,0a29.74,29.74,0,0,1,5.42.24,34.31,34.31,0,0,1,7.48,1.81A32.28,32.28,0,0,1,77.52,45.31c.42.64.81,1.3,1.21,1.94.1.18.21.35.32.54.24-.13.31-.35.43-.53l5.46-9q2-3.25,4-6.49c.1-.17.22-.34.32-.5.5-.07,13.32-.08,13.94,0a1.74,1.74,0,0,1,0,.34c0,.18,0,.37,0,.55v49.5a3.35,3.35,0,0,1-.37.07H91.29a1.83,1.83,0,0,1-.66,0,1.75,1.75,0,0,1-.07-.75V54.66a2.41,2.41,0,0,0,0-.71c-.16-.05-.2.07-.25.14l-1.7,2.44L79.73,69.26a1.28,1.28,0,0,1-.46.53c-.08-.22-.17-.43-.24-.64A52.62,52.62,0,0,0,71.6,55.07a37.46,37.46,0,0,0-7.35-7.53A28.58,28.58,0,0,0,53.31,42.3a29.06,29.06,0,0,0-7.78-.73,34.49,34.49,0,0,0-5,.54l-.25.07c0,.13-.05.24-.06.36V68.85c0,.27,0,.53,0,.81a2.69,2.69,0,0,0,.38.12,23.77,23.77,0,0,0,5.77.47,16.34,16.34,0,0,0,5.48-1.08A9.75,9.75,0,0,0,57,64.78a4.24,4.24,0,0,1,.38-.56,12.3,12.3,0,0,0,2.41-6,12.79,12.79,0,0,0-1.08-6.74,17.9,17.9,0,0,0-1.82-3.22l-.34-.5c.12-.12.21,0,.29,0,.47.26.95.5,1.41.78A32,32,0,0,1,67.1,56.2a23.85,23.85,0,0,1,3.59,6.3,1.81,1.81,0,0,1,.09,1.08,22.07,22.07,0,0,1-4.07,9,23.09,23.09,0,0,1-8.79,7A30.82,30.82,0,0,1,50.22,82a7.83,7.83,0,0,1-1.53.12H26.93a2,2,0,0,1-.06-.38c0-.18,0-.37,0-.55q0-24.9,0-49.78C26.87,31.14,26.87,30.86,26.88,30.5Z"/><path class="cls-1" d="M81,93.69a12.5,12.5,0,0,1-2.39,0c-.33-1.3-.51-2.64-.84-4A4.13,4.13,0,0,0,77.36,91l-.27,1.33c-.08.44-.17.88-.26,1.3a9.54,9.54,0,0,1-2.4,0c-.26-.78-.42-1.6-.63-2.41s-.41-1.64-.61-2.46-.4-1.63-.61-2.44a7.71,7.71,0,0,1,2.32,0,20.86,20.86,0,0,1,.41,2.09c.14.7.27,1.4.42,2.22a5.75,5.75,0,0,0,.37-1.47c.11-.48.2-1,.29-1.45s.18-.93.27-1.37a6.57,6.57,0,0,1,2,0c.33,1.39.53,2.82.89,4.37A20.64,20.64,0,0,0,80,88.5c.14-.7.27-1.41.4-2.1a7.23,7.23,0,0,1,2.31,0,2.71,2.71,0,0,1,0,.4c-.55,2.2-1.09,4.39-1.64,6.59C81,93.46,81,93.58,81,93.69Z"/><path class="cls-1" d="M85.86,96.22,88.38,100l.1,0a1.19,1.19,0,0,0,0-.46l0-.43c0-.17,0-.33,0-.49V96.8c0-.17,0-.33,0-.48a7.09,7.09,0,0,1,2.26,0c.08.48.09,6.76,0,7.34l-.34.06H88.83a.58.58,0,0,1-.55-.31c-.64-1-1.3-2-2-3L86,99.9c-.17,0-.12.16-.12.25,0,1,0,2.09.07,3.14,0,.1,0,.2,0,.3a6.92,6.92,0,0,1-2.28,0c0-.09,0-.19,0-.28,0-1.64,0-6.5.06-7.07a5.49,5.49,0,0,1,1.08,0C85.08,96.21,85.45,96.22,85.86,96.22Z"/><path class="cls-1" d="M61.41,86.37a8.84,8.84,0,0,1,2.24,0l0,0a.14.14,0,0,1,0,.06c0,.1,0,.21,0,.31q0,3.36,0,6.72a1.07,1.07,0,0,1,0,.21,4.39,4.39,0,0,1-1.09,0c-.36,0-.73,0-1.12,0-.48-.63-.87-1.3-1.31-1.94s-.8-1.28-1.32-2a5.31,5.31,0,0,0,0,1c0,.33,0,.66,0,1s0,.62,0,.92a5.08,5.08,0,0,1,0,.95,20.89,20.89,0,0,1-2.24,0,1.28,1.28,0,0,1-.07-.3V86.59a1.31,1.31,0,0,1,0-.22,3.29,3.29,0,0,1,1.13-.07h1.12l.86,1.3.81,1.24c.28.42.55.85.9,1.35a1.5,1.5,0,0,0,0-.64c0-.17,0-.33,0-.49s0-.37,0-.56,0-.37,0-.55v-.56c0-.16,0-.33,0-.49S61.4,86.54,61.41,86.37Z"/><path class="cls-1" d="M36.84,90.25l.41.22a1.18,1.18,0,0,1,.63.87c0,.24.07.48.09.73s0,.41,0,.62,0,.7.28,1a10.32,10.32,0,0,1-2.48,0,1.66,1.66,0,0,1-.11-.38c0-.27,0-.53,0-.8s0-.29,0-.43c-.07-.64-.31-.88-.94-.93-.24,0-.49,0-.74,0l-.32,0c-.11.84,0,1.66-.07,2.46a8.06,8.06,0,0,1-2.36.06,1.07,1.07,0,0,1-.07-.27V86.66a1.81,1.81,0,0,1,.05-.31,2.09,2.09,0,0,1,.32,0l3.95,0a4.65,4.65,0,0,1,1.27.23A1.72,1.72,0,0,1,38,88.08a2.72,2.72,0,0,1-.11,1.1,1.47,1.47,0,0,1-.61.82Zm-3.23-2.19a5.51,5.51,0,0,0,0,1c0,.14,0,.28,0,.44a3.93,3.93,0,0,0,.45,0c.29,0,.57,0,.86,0a1.58,1.58,0,0,0,.36-.09.58.58,0,0,0,.4-.56.72.72,0,0,0-.71-.77C34.54,88,34.11,88.06,33.61,88.06Z"/><path class="cls-1" d="M97.84,90.24l.41.23a1.24,1.24,0,0,1,.65.92c0,.27,0,.53.07.8s0,.33,0,.49a1.56,1.56,0,0,0,.21,1,10.29,10.29,0,0,1-2.42,0,2.36,2.36,0,0,1-.1-.38c0-.37,0-.74,0-1.11-.07-.81-.3-1-1.13-1.06a3.4,3.4,0,0,0-.89,0,10.16,10.16,0,0,0,0,1.23c0,.41,0,.82,0,1.23a1.69,1.69,0,0,1-.82.09c-.24,0-.49,0-.74,0H92.2a1.35,1.35,0,0,1-.07-.31q0-3.39,0-6.78a1.76,1.76,0,0,1,0-.31,2.09,2.09,0,0,1,.32,0l4,0a3.8,3.8,0,0,1,1.2.22,1.65,1.65,0,0,1,1.24,1.59,4.63,4.63,0,0,1,0,.74A1.61,1.61,0,0,1,98.18,90ZM94.6,89.5a4.89,4.89,0,0,0,1.63-.08.58.58,0,0,0,.44-.47.67.67,0,0,0-.26-.71.76.76,0,0,0-.33-.15,4.9,4.9,0,0,0-1.48,0Z"/><path class="cls-1" d="M65.18,93.73c-.09-.58-.12-3.52-.06-6.88,0-.17,0-.33,0-.52l.51,0h2.72a5.7,5.7,0,0,1,1.53.17,3,3,0,0,1,2.33,2.64,5.49,5.49,0,0,1-.16,2.32,2.88,2.88,0,0,1-2,2.07,4.07,4.07,0,0,1-1.08.22C67.73,93.75,66.47,93.73,65.18,93.73ZM67.64,92a3.59,3.59,0,0,0,1-.06,1.4,1.4,0,0,0,1-1,3.55,3.55,0,0,0,0-1.94,1.13,1.13,0,0,0-.83-.84,2.9,2.9,0,0,0-1.28,0,1.23,1.23,0,0,0,0,.25c0,1.15,0,2.3,0,3.44A.85.85,0,0,0,67.64,92Z"/><path class="cls-1" d="M29.74,93.72a6.55,6.55,0,0,1-1.47,0l-.16-.55a.51.51,0,0,0-.18.08,3.51,3.51,0,0,1-5.57-2.17,4.91,4.91,0,0,1,0-2.09,3.58,3.58,0,0,1,3.33-2.9,4.46,4.46,0,0,1,2,.23,3,3,0,0,1,2,2.38s0,0,0,.07a.34.34,0,0,1-.15.06h-2l-.27-.43a1.29,1.29,0,0,0-2.1.08.91.91,0,0,0-.11.22,3.65,3.65,0,0,0-.07,2.48,1.28,1.28,0,0,0,1.15.9,1.37,1.37,0,0,0,1.38-.63s0-.07,0-.15-.29,0-.45-.06h-.46a4.69,4.69,0,0,1-.05-1.54,3.2,3.2,0,0,1,1.11-.07c.35,0,.7,0,1,0a5.68,5.68,0,0,1,1.09,0,.8.8,0,0,1,.07.2v3.64A.56.56,0,0,1,29.74,93.72Z"/><path class="cls-1" d="M38.93,90c0-.4.08-.77.16-1.12a3.42,3.42,0,0,1,2.45-2.61,4.42,4.42,0,0,1,2.67,0,3.51,3.51,0,0,1,2.54,3.16,4.33,4.33,0,0,1-.15,1.89A3.48,3.48,0,0,1,44,93.83a4.6,4.6,0,0,1-2.44-.07,3.32,3.32,0,0,1-2.37-2.44A10.19,10.19,0,0,1,38.93,90Zm5.4.09c0-.21,0-.41,0-.61a2.38,2.38,0,0,0-.31-.93,1.31,1.31,0,0,0-2.27,0,2.56,2.56,0,0,0-.22.58,3.8,3.8,0,0,0,0,1.71,2.56,2.56,0,0,0,.26.62,1.14,1.14,0,0,0,.59.51,1.32,1.32,0,0,0,1.68-.62A2.84,2.84,0,0,0,44.33,90.1Z"/><path class="cls-1" d="M46.81,100a9.53,9.53,0,0,1-.16,1.09,3.42,3.42,0,0,1-2.48,2.66,4.54,4.54,0,0,1-2.73,0,3.27,3.27,0,0,1-2.23-2.19,4.65,4.65,0,0,1-.14-2.56,3.42,3.42,0,0,1,2.72-2.77,4.68,4.68,0,0,1,2.2,0,3.59,3.59,0,0,1,2.77,3.3,4.17,4.17,0,0,1,0,.5Zm-2.48,0a2.81,2.81,0,0,0-.25-1.31,1.32,1.32,0,0,0-.73-.72,1.28,1.28,0,0,0-1.71.76,3.43,3.43,0,0,0,0,2.52,1.17,1.17,0,0,0,.15.27,1.19,1.19,0,0,0,1,.55,1.28,1.28,0,0,0,1.35-.86A3.11,3.11,0,0,0,44.33,100Z"/><path class="cls-1" d="M83.24,89.9c.05-.31.09-.73.19-1.12a3.37,3.37,0,0,1,2.41-2.49,4.42,4.42,0,0,1,2.67,0A3.49,3.49,0,0,1,91,88.89a4.45,4.45,0,0,1,0,2.32,3.52,3.52,0,0,1-2.68,2.62,4.55,4.55,0,0,1-2.26,0,3.43,3.43,0,0,1-2.66-2.9C83.29,90.61,83.28,90.3,83.24,89.9Zm5.4.12a2.67,2.67,0,0,0-.28-1.35,1.27,1.27,0,0,0-1.25-.74,1.21,1.21,0,0,0-1.14.79,3.3,3.3,0,0,0,0,2.63,1.19,1.19,0,0,0,.69.68,1.33,1.33,0,0,0,1.68-.62A2.85,2.85,0,0,0,88.64,90Z"/><path class="cls-1" d="M78.47,103.91c-.34,0-.69-.08-1-.16a3.33,3.33,0,0,1-2.62-2.49A4.68,4.68,0,0,1,74.73,99a3.42,3.42,0,0,1,2.6-2.82,4.68,4.68,0,0,1,2.38,0,3.45,3.45,0,0,1,2.59,2.54,4.43,4.43,0,0,1,0,2.55A3.59,3.59,0,0,1,79,103.87h-.5ZM80,100a2.82,2.82,0,0,0-.25-1.3,1.31,1.31,0,0,0-2.36-.14,2.83,2.83,0,0,0-.31,1.48,2.94,2.94,0,0,0,.32,1.37,1.2,1.2,0,0,0,1.1.66,1.24,1.24,0,0,0,1.26-.8A2.88,2.88,0,0,0,80,100Z"/><path class="cls-1" d="M108.07,93.73h-2.93L104.7,93l-.45-.74c-.13-.23-.27-.47-.41-.69a3.06,3.06,0,0,0-.5-.73,1.11,1.11,0,0,0-.57,1c0,.59,0,1.19,0,1.77a8.51,8.51,0,0,1-2.4,0,1.93,1.93,0,0,1,0-.27V86.69a2.58,2.58,0,0,1,0-.29,7.33,7.33,0,0,1,2.36,0,5.41,5.41,0,0,1,0,1.07c0,.35,0,.69,0,1l.1,0,.06,0,1.93-2.13a16.45,16.45,0,0,1,2.72,0c.06.16-.08.22-.15.3l-1.93,2-.44.46Z"/><path class="cls-1" d="M54.85,96.24h2.32a.73.73,0,0,1,.1.55v3.77a2.92,2.92,0,0,0,.07.73.85.85,0,0,0,.86.74,2.28,2.28,0,0,0,.37,0,.92.92,0,0,0,.93-.83,5.29,5.29,0,0,0,0-.8c0-1.17,0-2.34,0-3.52,0-.2,0-.4,0-.61a2.11,2.11,0,0,1,.28,0h2.06a1.9,1.9,0,0,1,.08.37c0,1.37,0,2.75,0,4.13a4.51,4.51,0,0,1-.16,1.16,2.36,2.36,0,0,1-1.66,1.75,5.88,5.88,0,0,1-3.35.05,2.47,2.47,0,0,1-1.85-2,5.81,5.81,0,0,1-.14-1.1c0-1.34,0-2.68,0-4A2.87,2.87,0,0,1,54.85,96.24Z"/><path class="cls-1" d="M47.94,86.39a8.17,8.17,0,0,1,2.38,0c0,.16,0,.34,0,.52,0,1.24,0,2.47,0,3.71a4.49,4.49,0,0,0,.06.73.88.88,0,0,0,.84.77,1.79,1.79,0,0,0,.61,0,.86.86,0,0,0,.7-.7,6.25,6.25,0,0,0,.08-.86c0-1.15,0-2.31,0-3.46,0-.22,0-.45,0-.66a8.27,8.27,0,0,1,2.39,0c0,.13,0,.27,0,.41,0,1.21,0,2.42,0,3.64a6.58,6.58,0,0,1-.06,1,2.64,2.64,0,0,1-2.38,2.45,6.41,6.41,0,0,1-2.27,0c-.14,0-.28-.06-.42-.09a2.51,2.51,0,0,1-1.92-2,4.56,4.56,0,0,1-.13-1c0-1.34,0-2.68,0-4A2.58,2.58,0,0,1,47.94,86.39Z"/><path class="cls-1" d="M91.88,101.43c.1,0,.18,0,.26,0h2l.13.16A1.34,1.34,0,0,0,96,102l.2-.14a.36.36,0,0,0,0-.55,1.83,1.83,0,0,0-.53-.29c-.32-.11-.64-.17-1-.26s-.59-.15-.89-.25a4.78,4.78,0,0,1-.62-.26A2,2,0,0,1,92,98.52a2.08,2.08,0,0,1,1-2,2.55,2.55,0,0,1,.5-.24,4.88,4.88,0,0,1,3.09-.08,2.45,2.45,0,0,1,1.74,1.84,2,2,0,0,1,0,.28c-.73.11-1.44,0-2.14.06-.07-.06-.13-.08-.16-.13a.84.84,0,0,0-.54-.47,1.69,1.69,0,0,0-.92,0,.36.36,0,0,0-.13.63,2,2,0,0,0,.6.31c.35.12.72.18,1.07.29a10.28,10.28,0,0,1,1.22.41,2.15,2.15,0,0,1,.31,3.74,3.25,3.25,0,0,1-.76.4,5.1,5.1,0,0,1-2.92.13,2.92,2.92,0,0,1-1.7-1.06A1.75,1.75,0,0,1,91.88,101.43Z"/><path class="cls-1" d="M37.94,98.4c-.74,0-1.45,0-2.14,0a.76.76,0,0,1-.12-.1.82.82,0,0,0-.54-.47,1.57,1.57,0,0,0-.91,0,.37.37,0,0,0-.11.67,3.41,3.41,0,0,0,.61.29c.35.11.72.17,1.07.28A7.69,7.69,0,0,1,37,99.5a2.13,2.13,0,0,1,.37,3.63,2.63,2.63,0,0,1-.92.49,5.25,5.25,0,0,1-2.86.13,3,3,0,0,1-1.66-1,2,2,0,0,1-.51-1.3,1.76,1.76,0,0,1,.27,0h2a.83.83,0,0,1,.13.16,1.33,1.33,0,0,0,1.72.48.48.48,0,0,0,.2-.14.34.34,0,0,0,0-.54,1.55,1.55,0,0,0-.53-.3c-.33-.11-.67-.18-1-.27a6.13,6.13,0,0,1-1.51-.52,2,2,0,0,1-1.06-1.37,2.14,2.14,0,0,1,1-2.34,2.77,2.77,0,0,1,.55-.26,4.86,4.86,0,0,1,3-.06,2.43,2.43,0,0,1,1.76,2S38,98.26,37.94,98.4Z"/><path class="cls-1" d="M65.3,103.61a7.59,7.59,0,0,1,0-1.35c0-.45,0-.9,0-1.35s0-.87,0-1.3a12.64,12.64,0,0,0,0-1.37,4.79,4.79,0,0,0-1.06,0c-.34,0-.69,0-1.07,0a16.89,16.89,0,0,1,0-1.88,2.85,2.85,0,0,1,.32-.06h6.18l.27,0a12.91,12.91,0,0,1,0,1.87,3.83,3.83,0,0,1-.43.07H67.83c-.2.18-.14.38-.14.55,0,1.4,0,2.8,0,4.2,0,.22,0,.45,0,.66A8.19,8.19,0,0,1,65.3,103.61Z"/><path class="cls-1" d="M50.44,101.91c1.14,0,2.21,0,3.28,0a2.69,2.69,0,0,1,.07.83v.82a1.06,1.06,0,0,1-.31.09H48.24a1.23,1.23,0,0,1-.21-.05,2.7,2.7,0,0,1,0-.28q0-3.41,0-6.79c0-.08,0-.16,0-.27a3.72,3.72,0,0,1,1.15-.07c.39,0,.78,0,1.15,0a.85.85,0,0,1,.11.63c0,1.44,0,2.88,0,4.32C50.43,101.39,50.44,101.61,50.44,101.91Z"/><path class="cls-1" d="M73.41,103.61a9.44,9.44,0,0,1-2.38,0,2.19,2.19,0,0,1,0-.27v-6.8c0-.08,0-.16,0-.23a8.23,8.23,0,0,1,2.36-.07.89.89,0,0,1,.07.28q0,3.42,0,6.85A1.6,1.6,0,0,1,73.41,103.61Z"/></svg>