<svg id="Layer_48" data-name="Layer 48" xmlns="http://www.w3.org/2000/svg" viewBox="0 0 131 131"><defs><style>.cls-1{fill:#1b3d65;}</style></defs><path class="cls-1" d="M67.43,37.78c0,.09.08.08.15.08a13.15,13.15,0,0,1,3.56.7,6.33,6.33,0,0,1,2.68,1.68,4.16,4.16,0,0,1,1,2.19,3.29,3.29,0,0,1-.4,2,3.78,3.78,0,0,1-.43.82c-.09.1,0,.17.06.23a8,8,0,0,1,1.19,1.4A5.09,5.09,0,0,1,76,49.13c0,.41,0,.81,0,1.21a6.83,6.83,0,0,1-.54,2.56,6.41,6.41,0,0,1-1.62,2.32,8.6,8.6,0,0,1-2.68,1.64,13.79,13.79,0,0,1-3.34.86c-.4.05-.8.07-1.2.1a12.73,12.73,0,0,1-1.51,0,15.17,15.17,0,0,1-4.54-.72A6.78,6.78,0,0,1,58,55.57a4.35,4.35,0,0,1-1.17-2.35,3.6,3.6,0,0,1,.35-2.39,4.4,4.4,0,0,1,.3-.45.48.48,0,0,0,0-.7,7.83,7.83,0,0,1-.79-1.18A6.18,6.18,0,0,1,56,46.38a7.68,7.68,0,0,1,.83-4.46A5.32,5.32,0,0,1,58.5,40a12,12,0,0,1,4.78-1.91,9.62,9.62,0,0,1,1.6-.22c.06,0,.11,0,.12-.08h.13a2.22,2.22,0,0,0,1,0h.17a2.41,2.41,0,0,0,1,0ZM65.81,55.86A9.83,9.83,0,0,0,68,55.69a10.62,10.62,0,0,0,3.54-1.21,4.88,4.88,0,0,0,2-2.11,5.29,5.29,0,0,0,.48-3A3.71,3.71,0,0,0,72.75,47a.48.48,0,0,0-.68,0,8.05,8.05,0,0,1-1.11.62,5.41,5.41,0,0,1-3,.54,3.16,3.16,0,0,1-1.84-.86,2.33,2.33,0,0,1,.34-3.58,3.49,3.49,0,0,1,2-.58,5.69,5.69,0,0,1,1.91.3c.56.17,1.08.45,1.63.65a.43.43,0,0,0,.6-.24,1.9,1.9,0,0,0,0-1.75,2.68,2.68,0,0,0-1.58-1.34,12.35,12.35,0,0,0-4-.92A13.14,13.14,0,0,0,64,40a16.68,16.68,0,0,0-1.69.42A7,7,0,0,0,59,42.25a4,4,0,0,0-.84,1.48,5.31,5.31,0,0,0-.22,2.1,4.49,4.49,0,0,0,.26,1.26,4.67,4.67,0,0,0,.85,1.42c.2.22.22.25.46.1A8.47,8.47,0,0,1,61,48a6.43,6.43,0,0,1,2.75-.39,2.82,2.82,0,0,1,1.14.32,2.41,2.41,0,0,1,1.34,2.56,2.18,2.18,0,0,1-1.32,1.77,4.67,4.67,0,0,1-2.74.19,8.15,8.15,0,0,1-2.53-.86.46.46,0,0,0-.74.31,2.41,2.41,0,0,0-.09,1.1A2.23,2.23,0,0,0,60,54.64a7.69,7.69,0,0,0,1.46.59A13.06,13.06,0,0,0,65.81,55.86Zm2.76-9.71a3.78,3.78,0,0,0,1.73-.46c.06,0,.13-.06.12-.14s-.09-.09-.15-.11a6.29,6.29,0,0,0-1.48-.37,1.66,1.66,0,0,0-1,.17.41.41,0,0,0-.27.41.43.43,0,0,0,.29.36A1.47,1.47,0,0,0,68.57,46.15ZM63.2,49.53a3.64,3.64,0,0,0-1.65.36c-.08,0-.22,0-.21.15s.15.13.24.18h0a5,5,0,0,0,2,.3,1,1,0,0,0,.65-.38.11.11,0,0,0,0-.12.85.85,0,0,0-.52-.46A1.76,1.76,0,0,0,63.2,49.53Z"/><path class="cls-1" d="M5.56,75.07a.31.31,0,0,1,.19-.14c.66-.12,1.31-.27,2-.41.15,0,.22,0,.26.16a2.51,2.51,0,0,0,.57,1,2.09,2.09,0,0,0,1.28.67,2.86,2.86,0,0,0,1.3-.05,1.27,1.27,0,0,0,1-1.07,1.24,1.24,0,0,0-.77-1.36,9.8,9.8,0,0,0-1.65-.58,9,9,0,0,1-2.47-1A2.79,2.79,0,0,1,6,69.5a3.19,3.19,0,0,1,2.54-2.76,5.53,5.53,0,0,1,4.18.44,3.5,3.5,0,0,1,1.74,2.25c0,.13,0,.19-.15.22-.6.14-1.2.27-1.79.42-.12,0-.15,0-.18-.12a2.8,2.8,0,0,0-.38-.7,1.88,1.88,0,0,0-1.31-.76,2.89,2.89,0,0,0-1.46.12,1.22,1.22,0,0,0-.87,1.13,1,1,0,0,0,.65,1,8.1,8.1,0,0,0,1.72.58,9.87,9.87,0,0,1,2.17.78,3,3,0,0,1,1.62,2,3.28,3.28,0,0,1-2,3.87,5.81,5.81,0,0,1-2.67.38,5.24,5.24,0,0,1-2.46-.75,3.71,3.71,0,0,1-1.69-2.29c0-.06,0-.16-.1-.16Z"/><path class="cls-1" d="M125.44,93c-1.74,0-3.47,0-5.2,0-.21,0-.27,0-.27-.26V84c0-.19,0-.26.24-.26h5.23v1.64c-1.1,0-2.2,0-3.3,0-.16,0-.23,0-.22.22,0,.56,0,1.12,0,1.69,0,.2,0,.27.26.27.88,0,1.76,0,2.64,0,.19,0,.24,0,.23.23,0,.4,0,.8,0,1.19,0,.18,0,.24-.23.23h-2.69c-.15,0-.21,0-.21.2q0,.86,0,1.71c0,.18.06.22.22.22,1.1,0,2.2,0,3.3,0Z"/><path class="cls-1" d="M67.26,37.78a2.41,2.41,0,0,1-1,0Z"/><path class="cls-1" d="M66.09,37.78a2.22,2.22,0,0,1-1,0Z"/><path class="cls-1" d="M117.45,70.13v7.71c0,.31,0,.31-.31.31H115.3c-.17,0-.23,0-.23-.22V67c0-.15.05-.22.21-.21h2.41a.29.29,0,0,1,.26.15c.61,1,1.24,2,1.85,2.94l1.56,2.47c.48.77,1,1.54,1.45,2.31,0,0,0,.13.13.16a.46.46,0,0,0,0-.23V67c0-.27,0-.27.29-.27h1.82c.18,0,.24.06.24.24V78c0,.17,0,.21-.21.2h-2.43a.26.26,0,0,1-.26-.14l-2.06-3.3c-.59-1-1.19-1.92-1.79-2.88l-1.06-1.71Z"/><path class="cls-1" d="M89.69,72.06a5.48,5.48,0,0,1,.88.41,2.53,2.53,0,0,1,1.21,2,3.91,3.91,0,0,1-.12,1.6,2.79,2.79,0,0,1-1.78,1.79,5.07,5.07,0,0,1-1.54.3c-1.57.09-3.15,0-4.72,0-.15,0-.18-.06-.18-.19V67c0-.15,0-.21.19-.21,1.27,0,2.53,0,3.8,0a5.59,5.59,0,0,1,2.2.45A2.33,2.33,0,0,1,91,68.91a3.31,3.31,0,0,1-.15,2,2.31,2.31,0,0,1-1,1.07Zm-3.91,2.61V76c0,.1,0,.19.14.19a22.46,22.46,0,0,0,2.32,0,1.25,1.25,0,0,0,1.15-.93,1.76,1.76,0,0,0,0-1,1.32,1.32,0,0,0-1.36-1c-.69,0-1.38,0-2.08,0-.14,0-.18.06-.18.19C85.79,73.82,85.78,74.25,85.78,74.67Zm0-4.64c0,.39,0,.78,0,1.17,0,.14,0,.19.19.19.52,0,1,0,1.56,0a1.23,1.23,0,0,0,1-.48,1.48,1.48,0,0,0,.24-1,1.15,1.15,0,0,0-.88-1.12,9.9,9.9,0,0,0-2-.08c-.13,0-.12.08-.12.16Z"/><path class="cls-1" d="M43.49,72.06a6.88,6.88,0,0,1,.82.39,2.47,2.47,0,0,1,1.25,2.16,4,4,0,0,1-.1,1.37,2.83,2.83,0,0,1-1.68,1.78,4.92,4.92,0,0,1-1.64.35c-1.57.09-3.15,0-4.72,0-.19,0-.19-.09-.19-.23V72c0-1.65,0-3.31,0-5,0-.2.05-.26.25-.26,1.22,0,2.43,0,3.65,0a5.15,5.15,0,0,1,2.46.55,2.37,2.37,0,0,1,1.24,1.77,3.84,3.84,0,0,1,0,1.31A2.24,2.24,0,0,1,43.62,72Zm-3.91,2.6V76c0,.11,0,.18.14.18.74,0,1.47,0,2.21,0,1.1-.12,1.42-.89,1.27-1.83a1.3,1.3,0,0,0-1.38-1.07c-.69,0-1.38,0-2.08,0-.13,0-.17.05-.17.17C39.58,73.81,39.58,74.23,39.58,74.66Zm0-4.62c0,.38,0,.75,0,1.13,0,.16,0,.23.22.22.46,0,.92,0,1.39,0A1.19,1.19,0,0,0,42.5,70.3a1.24,1.24,0,0,0-1.26-1.59c-.49,0-1,0-1.47,0-.16,0-.2.06-.2.21C39.58,69.28,39.58,69.66,39.58,70Z"/><path class="cls-1" d="M68.17,72.44c0-1.81,0-3.63,0-5.44,0-.19,0-.26.25-.26,1.24,0,2.49,0,3.73,0a5.66,5.66,0,0,1,2.4.44,2.82,2.82,0,0,1,1.67,2.06,4.48,4.48,0,0,1-.61,3.56,2.45,2.45,0,0,1-1.19,1c-.24.09-.24.1-.1.31l2.32,3.38L77,78c.07.1.06.15-.08.15H74.39c-.16,0-.2-.1-.26-.19-.79-1.2-1.58-2.4-2.34-3.61A.65.65,0,0,0,71.1,74c-.18,0-.42-.07-.54,0s0,.37,0,.56v3.34c0,.18-.05.23-.23.22-.63,0-1.26,0-1.88,0-.18,0-.24,0-.24-.23C68.17,76.1,68.17,74.27,68.17,72.44Zm2.34-2c0,.5,0,1,0,1.5,0,.17,0,.24.22.23a15,15,0,0,0,1.9,0,1.47,1.47,0,0,0,1.06-.59A1.86,1.86,0,0,0,74,70.18a1.38,1.38,0,0,0-1.17-1.36,10.54,10.54,0,0,0-2.17-.12c-.14,0-.12.1-.12.18Z"/><path class="cls-1" d="M103.22,66.75h1.26a.23.23,0,0,1,.25.18c.66,1.79,1.33,3.57,2,5.35l1.71,4.6c.14.38.28.75.43,1.13,0,.11,0,.15-.1.15h-2.19c-.12,0-.16-.05-.2-.15-.23-.67-.47-1.33-.7-2a.3.3,0,0,0-.32-.24h-4.3a.23.23,0,0,0-.27.18c-.23.68-.49,1.36-.73,2a.21.21,0,0,1-.24.17H97.69c-.14,0-.2,0-.13-.17l2.64-7c.5-1.35,1-2.69,1.51-4a.23.23,0,0,1,.25-.17Zm0,2.49c-.06,0-.06,0-.06.06-.22.6-.44,1.19-.65,1.79l-.92,2.54c0,.15,0,.19.14.19h2.94c.13,0,.19,0,.13-.17l-1.37-3.84C103.39,69.62,103.31,69.43,103.24,69.24Z"/><path class="cls-1" d="M30.21,70.78c0,1.2,0,2.4,0,3.59a3.83,3.83,0,0,1-1.27,2.95,4.26,4.26,0,0,1-2.14,1,6.05,6.05,0,0,1-1.53.08,4.63,4.63,0,0,1-2.64-.89,3.65,3.65,0,0,1-1.35-2.22,7.6,7.6,0,0,1-.13-1.5v-6.7c0-.3,0-.3.3-.3.6,0,1.21,0,1.82,0,.21,0,.27.07.27.28q0,3.56,0,7.11A2.2,2.2,0,0,0,24,75.52a1.88,1.88,0,0,0,1.05.65,2.44,2.44,0,0,0,1.9-.24,1.92,1.92,0,0,0,.89-1.46,7.38,7.38,0,0,0,0-1V67c0-.29,0-.29.31-.29H30c.18,0,.24.05.24.24C30.2,68.25,30.21,69.51,30.21,70.78Z"/><path class="cls-1" d="M52.12,70.73c0-1.25,0-2.5,0-3.75,0-.19,0-.24.24-.24.62,0,1.23,0,1.85,0,.2,0,.26.05.26.26v6.92a2.88,2.88,0,0,0,.2,1.12A1.86,1.86,0,0,0,56,76.17,2.46,2.46,0,0,0,57.68,76a1.81,1.81,0,0,0,1.07-1.45,5.63,5.63,0,0,0,.09-1V67c0-.2,0-.26.25-.26.61,0,1.23,0,1.84,0,.18,0,.26.05.26.25,0,2.44,0,4.88,0,7.32a4,4,0,0,1-1.06,2.79,3.76,3.76,0,0,1-1.95,1.09,6,6,0,0,1-3.47-.13,3.63,3.63,0,0,1-2.5-2.92,5.19,5.19,0,0,1-.09-1C52.12,73,52.12,71.85,52.12,70.73Z"/><path class="cls-1" d="M17.28,88.42a4.74,4.74,0,0,1,.89-3,4.27,4.27,0,0,1,2.66-1.72,5,5,0,0,1,4,.66,4.24,4.24,0,0,1,1.88,2.82,5.14,5.14,0,0,1-.87,4.34,4.23,4.23,0,0,1-2.59,1.6,5.08,5.08,0,0,1-3.47-.4,4.48,4.48,0,0,1-2.38-3.2A4.07,4.07,0,0,1,17.28,88.42Zm7.59,0a3.88,3.88,0,0,0,0-.67,2.84,2.84,0,0,0-1-1.83,2.81,2.81,0,0,0-2.31-.53,2.52,2.52,0,0,0-1.9,1.35,3.61,3.61,0,0,0-.29,2.62,2.67,2.67,0,0,0,1.53,1.88,2.89,2.89,0,0,0,1.81.19,2.58,2.58,0,0,0,1.52-.85A3.09,3.09,0,0,0,24.87,88.38Z"/><path class="cls-1" d="M98.31,93.2a4.75,4.75,0,0,1-3-.88A4.39,4.39,0,0,1,93.64,90a5,5,0,0,1-.21-2,4.73,4.73,0,0,1,1.29-3,4.56,4.56,0,0,1,2.78-1.35,5,5,0,0,1,3,.47,4.37,4.37,0,0,1,2.35,3.09,5.19,5.19,0,0,1,.13,1.52A4.75,4.75,0,0,1,101.45,92,4.53,4.53,0,0,1,99,93.16,6.64,6.64,0,0,1,98.31,93.2Zm-.09-7.89a2.69,2.69,0,0,0-2.74,2,3.67,3.67,0,0,0-.1,1.68,3,3,0,0,0,.72,1.59,2.74,2.74,0,0,0,2.4.86,2.64,2.64,0,0,0,2.37-1.92A3.53,3.53,0,0,0,101,88a2.85,2.85,0,0,0-.84-1.89A2.53,2.53,0,0,0,98.22,85.31Z"/><path class="cls-1" d="M11,88.07a2.75,2.75,0,0,1,1.07.6,1.7,1.7,0,0,1,.48.73,3,3,0,0,1,0,1.95,2.32,2.32,0,0,1-1.48,1.42,4.26,4.26,0,0,1-1.5.25H6.06c-.2,0-.24-.06-.24-.24V84c0-.19,0-.25.24-.25,1.13,0,2.25,0,3.38,0a3.13,3.13,0,0,1,2,.67,1.88,1.88,0,0,1,.64,1.22A3,3,0,0,1,12,87a1.88,1.88,0,0,1-.87,1ZM7.73,90.19c0,.33,0,.66,0,1,0,.15,0,.19.2.19H9.49a1.12,1.12,0,0,0,1.24-1.23A1.08,1.08,0,0,0,9.61,89c-.56,0-1.14,0-1.71,0-.14,0-.17.05-.17.18C7.74,89.51,7.73,89.85,7.73,90.19Zm.8-2.67h.13a1.91,1.91,0,0,0,1-.17,1.1,1.1,0,0,0,.47-1.15.94.94,0,0,0-.79-.84,8.67,8.67,0,0,0-1.53,0c-.11,0-.11.07-.11.15v1.91c0,.13.06.15.17.15Z"/><path class="cls-1" d="M107.91,88.39c0-1.46,0-2.93,0-4.4,0-.2,0-.25.25-.25,1.17,0,2.34,0,3.51,0a3.16,3.16,0,0,1,2.21.83,2.49,2.49,0,0,1,.71,1.68,4.36,4.36,0,0,1-.18,1.64A2.49,2.49,0,0,1,113,89.49c-.14.05-.12.11,0,.2l2.19,3.15s.08.1,0,.16-.09,0-.14,0c-.66,0-1.32,0-2,0a.25.25,0,0,1-.23-.13l-2-3.07a.33.33,0,0,0-.33-.19,2.8,2.8,0,0,1-.41,0c-.18,0-.22,0-.22.22,0,1,0,1.94,0,2.9,0,.21-.05.28-.27.27-.48,0-1,0-1.45,0-.19,0-.24,0-.24-.24C107.92,91.33,107.91,89.86,107.91,88.39Zm2-1.65V88c0,.11,0,.18.15.18a10.89,10.89,0,0,0,1.51,0,1.15,1.15,0,0,0,1.1-.86,2,2,0,0,0,.06-.69,1.13,1.13,0,0,0-1-1.17,8.27,8.27,0,0,0-1.65-.1c-.16,0-.18.07-.18.2Z"/><path class="cls-1" d="M75.39,93.2a4.25,4.25,0,0,1-2.51-.64,3,3,0,0,1-1.35-1.91c0-.16,0-.23.15-.26l1.56-.32c.13,0,.15,0,.19.12a1.81,1.81,0,0,0,1.37,1.38,2.23,2.23,0,0,0,1.44-.1,1,1,0,0,0,.61-.9,1,1,0,0,0-.6-1A10.12,10.12,0,0,0,74.38,89a4.82,4.82,0,0,1-1.83-.9,2.1,2.1,0,0,1-.68-1.15,2.66,2.66,0,0,1,.39-2.07,2.93,2.93,0,0,1,2-1.21,4.67,4.67,0,0,1,2.81.3,2.93,2.93,0,0,1,1.7,1.93c.05.16,0,.23-.17.27q-.67.13-1.35.3c-.12,0-.17,0-.22-.13a1.84,1.84,0,0,0-.73-.94,1.39,1.39,0,0,0-.55-.19,2,2,0,0,0-1.71.36.9.9,0,0,0,.13,1.37,6.71,6.71,0,0,0,1.52.54,8.49,8.49,0,0,1,1.9.7,2.43,2.43,0,0,1,1.28,2.07,2.76,2.76,0,0,1-2.25,2.87A3.87,3.87,0,0,1,75.39,93.2Z"/><path class="cls-1" d="M61.75,88.39c0-1.47,0-2.94,0-4.4,0-.19,0-.25.24-.25,1.66,0,3.31,0,5,0,.18,0,.23.05.22.23q0,.6,0,1.2c0,.17,0,.23-.22.23h-3c-.21,0-.26.06-.26.27,0,.56,0,1.13,0,1.69,0,.18.06.22.22.21h2.74c.17,0,.22,0,.22.22,0,.4,0,.81,0,1.21,0,.17,0,.23-.22.22-.91,0-1.81,0-2.71,0-.19,0-.25,0-.25.23,0,.56,0,1.12,0,1.67,0,.19.06.23.24.23h3c.18,0,.24,0,.23.23q0,.63,0,1.26c0,.16,0,.21-.2.21q-2.5,0-5,0c-.18,0-.22,0-.22-.22C61.75,91.33,61.75,89.86,61.75,88.39Z"/><path class="cls-1" d="M45.3,89.22c0,1.19,0,2.39,0,3.58,0,.18-.05.23-.23.23-.49,0-1,0-1.48,0-.19,0-.25,0-.25-.25,0-2.36,0-4.71,0-7.07,0-.35,0-.31-.31-.32H41.35c-.15,0-.22,0-.22-.2,0-.43,0-.86,0-1.28,0-.13,0-.18.17-.18q3,0,6,0c.13,0,.18,0,.18.17,0,.44,0,.87,0,1.31,0,.14-.05.18-.19.18H45.51c-.17,0-.21,0-.21.21C45.31,86.81,45.3,88,45.3,89.22Z"/><path class="cls-1" d="M35,89.2c0,1.2,0,2.4,0,3.6,0,.19,0,.23-.23.23-.48,0-1,0-1.43,0-.2,0-.26,0-.26-.25,0-2.36,0-4.73,0-7.09,0-.3,0-.3-.29-.3H31c-.15,0-.22,0-.21-.2q0-.63,0-1.26c0-.13,0-.2.18-.2,2,0,4.05,0,6.07,0,.13,0,.18,0,.18.18,0,.43,0,.86,0,1.3,0,.15-.06.18-.2.18H35.29c-.35,0-.31,0-.31.32Z"/><path class="cls-1" d="M85.31,89.21c0-1.19,0-2.38,0-3.58,0-.19,0-.24-.24-.24H83.25c-.15,0-.21,0-.2-.2,0-.42,0-.84,0-1.25,0-.15,0-.21.19-.21q3,0,6,0c.14,0,.18.05.18.19q0,.63,0,1.26c0,.16,0,.21-.21.21H87.47c-.22,0-.26.07-.26.27,0,2.36,0,4.73,0,7.09,0,.28,0,.28-.28.28-.47,0-.94,0-1.41,0-.17,0-.22,0-.22-.22C85.31,91.61,85.31,90.41,85.31,89.21Z"/><path class="cls-1" d="M52.16,88.38V84c0-.19.05-.24.24-.24q.74,0,1.47,0c.19,0,.25.05.24.24v7c0,.34,0,.3.32.31h2.43c.19,0,.25.06.25.25,0,.41,0,.82,0,1.24,0,.18-.07.21-.23.21-1.5,0-3,0-4.51,0-.18,0-.21-.06-.21-.22Z"/></svg>