<svg id="Layer_6" data-name="Layer 6" xmlns="http://www.w3.org/2000/svg" viewBox="0 0 131 131"><defs><style>.cls-1{fill:#1b3d65;}</style></defs><path class="cls-1" d="M55.42,66.18a24.63,24.63,0,0,1-4-.33V37.93H79.88a25.73,25.73,0,0,1,.25,3.53A24.72,24.72,0,0,1,55.42,66.18Z"/><path class="cls-1" d="M97.94,37.93v46.5H51.45V68.81a28.76,28.76,0,0,0,4,.28,27.68,27.68,0,0,0,27.4-31.16Z"/><path class="cls-1" d="M80,34.29H47.8V66A25.6,25.6,0,1,1,80,34.29Z"/><path class="cls-1" d="M5.47,95.49v6.77h0v1.79H3.21v-1.79h0V95.49h0V93.71H5.47v1.78Z"/><path class="cls-1" d="M13.69,96.77a3.25,3.25,0,0,1,.68,2.2v5.08H12.21V99.62A2.87,2.87,0,0,0,12,98.27a1,1,0,0,0-1-.46,1.43,1.43,0,0,0-1.15.53,2.06,2.06,0,0,0-.45,1.39v4.32H7.25V96.2H9.34v1a2.66,2.66,0,0,1,1.05-1A3.17,3.17,0,0,1,11.74,96,2.47,2.47,0,0,1,13.69,96.77Z"/><path class="cls-1" d="M20.52,96.34v1.53H18.63v3.68a1.15,1.15,0,0,0,.19.72.9.9,0,0,0,.73.24,3.52,3.52,0,0,0,.58,0,5.23,5.23,0,0,0,.54-.12V104a5.24,5.24,0,0,1-.78.19,5.37,5.37,0,0,1-.92.07,3.63,3.63,0,0,1-1.17-.16,1.9,1.9,0,0,1-.78-.47,1.74,1.74,0,0,1-.42-.75,3.84,3.84,0,0,1-.12-1v-4H15.41V96.34h1.07v-2h2.15v2Z"/><path class="cls-1" d="M26.77,104.05v-.93a2.8,2.8,0,0,1-2.33,1.13,3.21,3.21,0,0,1-1.05-.16,2.09,2.09,0,0,1-.82-.5,2.27,2.27,0,0,1-.55-.85,3.43,3.43,0,0,1-.2-1.22V96.2H24V101a1.61,1.61,0,0,0,.27,1.06,1.11,1.11,0,0,0,.88.31,1.47,1.47,0,0,0,1.14-.48,1.89,1.89,0,0,0,.43-1.29V96.2h2.15v7.85Z"/><path class="cls-1" d="M37.16,96.77a3.2,3.2,0,0,1,.68,2.2v5.08H35.69V99.62a2.86,2.86,0,0,0-.26-1.35,1,1,0,0,0-1-.46,1.45,1.45,0,0,0-1.16.53,2.1,2.1,0,0,0-.44,1.39v4.32H30.72V96.2h2.1v1a2.64,2.64,0,0,1,1-1A3.17,3.17,0,0,1,35.21,96,2.47,2.47,0,0,1,37.16,96.77Z"/><path class="cls-1" d="M44.71,96.32a3.2,3.2,0,0,1,1.19.85,3.73,3.73,0,0,1,.75,1.34,5.56,5.56,0,0,1,.26,1.73v.41H41.44A2.12,2.12,0,0,0,42,102.1a2.18,2.18,0,0,0,2.44.18,2.07,2.07,0,0,0,.68-.73l1.73.84a3.94,3.94,0,0,1-1.46,1.38,4.6,4.6,0,0,1-2.17.48,4.43,4.43,0,0,1-1.69-.3,3.56,3.56,0,0,1-2-2.17,4.92,4.92,0,0,1-.27-1.65,5.21,5.21,0,0,1,.25-1.66,3.84,3.84,0,0,1,.75-1.31,3.37,3.37,0,0,1,1.21-.84A4.13,4.13,0,0,1,43.1,96,4,4,0,0,1,44.71,96.32ZM42,98a1.94,1.94,0,0,0-.51,1.29h3.25a2,2,0,0,0-.47-1.3,1.54,1.54,0,0,0-1.12-.4A1.62,1.62,0,0,0,42,98Z"/><path class="cls-1" d="M57.87,93.61a4.23,4.23,0,0,1,1.27.51,4.53,4.53,0,0,1,1.09.93A5.23,5.23,0,0,1,61,96.47l-2.19.58A2.89,2.89,0,0,0,58,95.78a2.3,2.3,0,0,0-1.46-.43,2.33,2.33,0,0,0-2,.91,4.06,4.06,0,0,0-.72,2.59,4.42,4.42,0,0,0,.68,2.61,2.33,2.33,0,0,0,2,1,2.52,2.52,0,0,0,1.63-.5,3.18,3.18,0,0,0,.94-1.44l2.14.67a4.69,4.69,0,0,1-1.89,2.38,5.67,5.67,0,0,1-4.69.48,4.46,4.46,0,0,1-1.58-.93A4.82,4.82,0,0,1,52,101.39a7.45,7.45,0,0,1,0-5,4.72,4.72,0,0,1,1.12-1.68,4.19,4.19,0,0,1,1.59-1,5.84,5.84,0,0,1,1.86-.3A6.25,6.25,0,0,1,57.87,93.61Z"/><path class="cls-1" d="M67.78,96.33a3.77,3.77,0,0,1,1.29.87,3.93,3.93,0,0,1,.82,1.31,4.52,4.52,0,0,1,.29,1.62,5,5,0,0,1-.28,1.68,3.69,3.69,0,0,1-.82,1.31,3.61,3.61,0,0,1-1.29.84,5.16,5.16,0,0,1-3.44,0,3.79,3.79,0,0,1-1.29-.86,4,4,0,0,1-.8-1.3,5.06,5.06,0,0,1,0-3.32,3.81,3.81,0,0,1,.81-1.31,3.7,3.7,0,0,1,1.29-.84A4.38,4.38,0,0,1,66.07,96,4.45,4.45,0,0,1,67.78,96.33Zm-3,2a2.72,2.72,0,0,0-.49,1.78,2.93,2.93,0,0,0,.48,1.82,1.78,1.78,0,0,0,2.7,0,2.93,2.93,0,0,0,.48-1.82,2.72,2.72,0,0,0-.49-1.78,1.8,1.8,0,0,0-2.68,0Z"/><path class="cls-1" d="M78.08,96.77a3.25,3.25,0,0,1,.68,2.2v5.08H76.6V99.62a3,3,0,0,0-.25-1.35,1,1,0,0,0-1-.46,1.45,1.45,0,0,0-1.16.53,2.1,2.1,0,0,0-.44,1.39v4.32H71.63V96.2h2.1v1a2.7,2.7,0,0,1,1-1A3.18,3.18,0,0,1,76.13,96,2.49,2.49,0,0,1,78.08,96.77Z"/><path class="cls-1" d="M85.62,96.34a4.66,4.66,0,0,1,1.39.85L85.9,98.4a4.08,4.08,0,0,0-1-.6,3,3,0,0,0-1.13-.21,1.77,1.77,0,0,0-1,.2.6.6,0,0,0-.31.53.65.65,0,0,0,.08.31.56.56,0,0,0,.28.23,2.44,2.44,0,0,0,.57.2c.24,0,.55.12.95.19a4.51,4.51,0,0,1,2.11.82,2.06,2.06,0,0,1,.69,1.67,2.13,2.13,0,0,1-.23,1,2.19,2.19,0,0,1-.7.79,3.42,3.42,0,0,1-1.12.52,5.82,5.82,0,0,1-1.52.18,5.93,5.93,0,0,1-2.2-.36,5,5,0,0,1-1.57-1L81,101.64a3.61,3.61,0,0,0,1.18.75,3.56,3.56,0,0,0,1.29.24,2.35,2.35,0,0,0,1.14-.21.64.64,0,0,0,.36-.57,1,1,0,0,0,0-.32.64.64,0,0,0-.26-.26,2.29,2.29,0,0,0-.57-.21c-.25-.07-.58-.14-1-.22A4.45,4.45,0,0,1,81,100a2,2,0,0,1-.67-1.59,2,2,0,0,1,.25-1,2.37,2.37,0,0,1,.72-.76,3.55,3.55,0,0,1,1.08-.48A5.66,5.66,0,0,1,83.68,96,5.22,5.22,0,0,1,85.62,96.34Z"/><path class="cls-1" d="M93.37,104.05v-.93A2.8,2.8,0,0,1,91,104.25a3.21,3.21,0,0,1-1.05-.16,2.09,2.09,0,0,1-.82-.5,2.4,2.4,0,0,1-.55-.85,3.43,3.43,0,0,1-.2-1.22V96.2h2.16V101a1.61,1.61,0,0,0,.27,1.06,1.11,1.11,0,0,0,.88.31,1.47,1.47,0,0,0,1.14-.48,1.89,1.89,0,0,0,.43-1.29V96.2h2.15v7.85Z"/><path class="cls-1" d="M99.41,102a.5.5,0,0,0,.08.26.32.32,0,0,0,.2.13,1.22,1.22,0,0,0,.37,0h.13l.18,0V104a4.38,4.38,0,0,1-1.11.12,2,2,0,0,1-1.5-.53,2.33,2.33,0,0,1-.53-1.69V93.71h2.16v7.92C99.39,101.79,99.4,101.93,99.41,102Z"/><path class="cls-1" d="M106,96.34v1.53h-1.89v3.68a1.09,1.09,0,0,0,.19.72.89.89,0,0,0,.72.24,3.73,3.73,0,0,0,.59,0,4.54,4.54,0,0,0,.53-.12V104a5,5,0,0,1-.78.19,5.25,5.25,0,0,1-.91.07,3.66,3.66,0,0,1-1.18-.16,1.8,1.8,0,0,1-.77-.47,1.74,1.74,0,0,1-.42-.75,3.44,3.44,0,0,1-.13-1v-4h-1.07V96.34H102v-2h2.16v2Z"/><path class="cls-1" d="M108.92,93.08a1.36,1.36,0,0,1,.41.26,1.17,1.17,0,0,1,.28.38,1.13,1.13,0,0,1,.1.49,1.07,1.07,0,0,1-.1.47,1.21,1.21,0,0,1-.28.39,1.55,1.55,0,0,1-.41.25,1.16,1.16,0,0,1-.49.1,1.29,1.29,0,0,1-.9-.35,1.16,1.16,0,0,1-.27-1.35,1.17,1.17,0,0,1,.28-.38,1.25,1.25,0,0,1,.41-.26,1.29,1.29,0,0,1,.48-.1A1.34,1.34,0,0,1,108.92,93.08Zm-1.54,11V96.2h2.15v7.85Z"/><path class="cls-1" d="M117.85,96.77a3.25,3.25,0,0,1,.68,2.2v5.08h-2.16V99.62a2.87,2.87,0,0,0-.25-1.35,1,1,0,0,0-1-.46,1.43,1.43,0,0,0-1.15.53,2.05,2.05,0,0,0-.44,1.39v4.32h-2.16V96.2h2.1v1a2.57,2.57,0,0,1,1-1A3.17,3.17,0,0,1,115.9,96,2.47,2.47,0,0,1,117.85,96.77Z"/><path class="cls-1" d="M127.15,97.28a1.91,1.91,0,0,0-.47.12,1.85,1.85,0,0,1,.29.6,2.84,2.84,0,0,1,.08.66,2.44,2.44,0,0,1-.22,1,2.28,2.28,0,0,1-.65.8,3.26,3.26,0,0,1-1.07.54,5.38,5.38,0,0,1-1.48.19,5.1,5.1,0,0,1-.8-.06,4.21,4.21,0,0,1-.72-.18.74.74,0,0,0-.14.22.53.53,0,0,0-.06.24.52.52,0,0,0,.2.44,1.45,1.45,0,0,0,.79.15h1.36a5.4,5.4,0,0,1,1.48.18,3.24,3.24,0,0,1,1,.48,1.94,1.94,0,0,1,.61.74,2.41,2.41,0,0,1,.19.93,2.09,2.09,0,0,1-1,1.82,5.54,5.54,0,0,1-3,.66,9.21,9.21,0,0,1-1.81-.15,3.61,3.61,0,0,1-1.16-.43,1.56,1.56,0,0,1-.63-.65,1.85,1.85,0,0,1-.19-.8,1.7,1.7,0,0,1,1.13-1.55,1.63,1.63,0,0,1-.58-.59,1.49,1.49,0,0,1-.18-.73,1.33,1.33,0,0,1,.24-.75,2.29,2.29,0,0,1,.68-.67,2.35,2.35,0,0,1-.77-.8,2.06,2.06,0,0,1-.28-1.07,2.31,2.31,0,0,1,.22-1,2.21,2.21,0,0,1,.64-.83,3.29,3.29,0,0,1,1.09-.56A4.94,4.94,0,0,1,123.5,96a5.11,5.11,0,0,1,1.16.12,4.51,4.51,0,0,1,.92.31,2.61,2.61,0,0,1,.91-.7,3.17,3.17,0,0,1,1.3-.25v1.76A5.36,5.36,0,0,0,127.15,97.28ZM121.73,104a.82.82,0,0,0-.1.42.75.75,0,0,0,.08.37.72.72,0,0,0,.31.28,1.74,1.74,0,0,0,.57.18,5.85,5.85,0,0,0,.93.06,3.1,3.1,0,0,0,1.42-.24.72.72,0,0,0,.44-.65.63.63,0,0,0-.34-.61,2.67,2.67,0,0,0-1.21-.19h-1.7A1.23,1.23,0,0,0,121.73,104Zm.8-6.29a1.05,1.05,0,0,0-.36.83,1,1,0,0,0,.35.82,1.53,1.53,0,0,0,1,.3,1.59,1.59,0,0,0,1-.3,1,1,0,0,0,.36-.82,1.09,1.09,0,0,0-.35-.84,1.5,1.5,0,0,0-1-.31A1.45,1.45,0,0,0,122.53,97.75Z"/><path class="cls-1" d="M32.67,110.64a1.64,1.64,0,0,1-.11.6,1.33,1.33,0,0,1-.31.46,1.64,1.64,0,0,1-.5.29,2.17,2.17,0,0,1-.71.1h-.5v1.59a.08.08,0,0,1,0,0l0,0-.09,0H30.1l-.09,0-.05,0a.43.43,0,0,1,0,0V109.6a.24.24,0,0,1,.07-.19.25.25,0,0,1,.16-.06h1.23l.31,0a1.38,1.38,0,0,1,.36.15,1.18,1.18,0,0,1,.32.26,1.46,1.46,0,0,1,.2.37A1.29,1.29,0,0,1,32.67,110.64Zm-.62,0a.88.88,0,0,0-.1-.45.73.73,0,0,0-.56-.38,1.63,1.63,0,0,0-.31,0h-.54v1.78h.53a1.35,1.35,0,0,0,.44-.07.91.91,0,0,0,.3-.19.79.79,0,0,0,.18-.29A1.1,1.1,0,0,0,32.05,110.69Z"/><path class="cls-1" d="M36,112a.24.24,0,0,1-.07.19.22.22,0,0,1-.15.06h-2a2.09,2.09,0,0,0,0,.46.88.88,0,0,0,.17.35.75.75,0,0,0,.32.23,1.28,1.28,0,0,0,.47.08,1.61,1.61,0,0,0,.39,0l.3-.08.2-.08.12,0h.05l0,0s0,0,0,.07a.31.31,0,0,1,0,.1.19.19,0,0,1,0,.08v.06l0,0,0,0s0,0-.11.07l-.24.08-.34.07a2.71,2.71,0,0,1-.41,0,1.92,1.92,0,0,1-.67-.11,1.33,1.33,0,0,1-.48-.31,1.3,1.3,0,0,1-.29-.53,2.3,2.3,0,0,1-.1-.73,2.26,2.26,0,0,1,.1-.71,1.57,1.57,0,0,1,.3-.54,1.2,1.2,0,0,1,.46-.34,1.51,1.51,0,0,1,.61-.11,1.43,1.43,0,0,1,.62.11,1.21,1.21,0,0,1,.42.31,1.23,1.23,0,0,1,.24.47,2,2,0,0,1,.08.56Zm-.57-.16a1,1,0,0,0-.2-.7.75.75,0,0,0-.62-.25.8.8,0,0,0-.36.07,1,1,0,0,0-.27.21,1,1,0,0,0-.16.31,1.35,1.35,0,0,0-.07.36Z"/><path class="cls-1" d="M39.71,112.11a2.63,2.63,0,0,1-.1.7,1.57,1.57,0,0,1-.3.54,1.39,1.39,0,0,1-.49.36,1.84,1.84,0,0,1-.69.13,1.69,1.69,0,0,1-.66-.12,1.12,1.12,0,0,1-.47-.33,1.37,1.37,0,0,1-.28-.52,2.45,2.45,0,0,1-.09-.69,2.19,2.19,0,0,1,.1-.7,1.41,1.41,0,0,1,.29-.54,1.36,1.36,0,0,1,.49-.36,1.85,1.85,0,0,1,.69-.12,1.69,1.69,0,0,1,.66.11,1.12,1.12,0,0,1,.47.33,1.24,1.24,0,0,1,.28.52A2.44,2.44,0,0,1,39.71,112.11Zm-.59,0a2.35,2.35,0,0,0,0-.47,1.38,1.38,0,0,0-.16-.39.84.84,0,0,0-.29-.27,1,1,0,0,0-.45-.09,1,1,0,0,0-.44.09.71.71,0,0,0-.29.25,1.11,1.11,0,0,0-.18.38,1.88,1.88,0,0,0-.06.49,2.34,2.34,0,0,0,0,.47,1,1,0,0,0,.16.39.73.73,0,0,0,.29.26.88.88,0,0,0,.45.1.94.94,0,0,0,.43-.09.68.68,0,0,0,.3-.25,1,1,0,0,0,.18-.38A2.46,2.46,0,0,0,39.12,112.15Z"/><path class="cls-1" d="M43.37,112.1a2.63,2.63,0,0,1-.09.72,1.48,1.48,0,0,1-.26.55,1.07,1.07,0,0,1-.42.34,1.14,1.14,0,0,1-.57.13,1,1,0,0,1-.25,0,1.09,1.09,0,0,1-.23-.09l-.22-.14-.23-.21v1.54a.06.06,0,0,1,0,0,.1.1,0,0,1-.05,0L41,115h-.28l-.09,0a.08.08,0,0,1,0,0,.06.06,0,0,1,0,0v-4.3a.07.07,0,0,1,0,0s0,0,0,0a.15.15,0,0,1,.08,0h.23l.08,0,0,0a.07.07,0,0,1,0,0V111l.27-.25a1.64,1.64,0,0,1,.26-.17,1,1,0,0,1,.27-.11,1.45,1.45,0,0,1,.3,0,1.14,1.14,0,0,1,.57.13,1.06,1.06,0,0,1,.38.35,1.69,1.69,0,0,1,.22.53A3.12,3.12,0,0,1,43.37,112.1Zm-.59.06a3.29,3.29,0,0,0,0-.45,1.37,1.37,0,0,0-.13-.39.71.71,0,0,0-.23-.28.62.62,0,0,0-.37-.1.83.83,0,0,0-.22,0,.71.71,0,0,0-.21.11,1.15,1.15,0,0,0-.24.18l-.25.28v1.23a2.49,2.49,0,0,0,.44.43.75.75,0,0,0,.44.15.62.62,0,0,0,.37-.1.76.76,0,0,0,.25-.28,1.42,1.42,0,0,0,.14-.38A2,2,0,0,0,42.78,112.16Z"/><path class="cls-1" d="M44.78,113.68a.08.08,0,0,1,0,0,0,0,0,0,1,0,0l-.09,0h-.27l-.09,0a0,0,0,0,1,0,0,.08.08,0,0,1,0,0v-4.56s0,0,0-.05l0,0,.09,0h.27l.09,0,0,0s0,0,0,.05Z"/><path class="cls-1" d="M48.45,112a.22.22,0,0,1-.22.25h-2a2.09,2.09,0,0,0,0,.46.88.88,0,0,0,.17.35.75.75,0,0,0,.32.23,1.24,1.24,0,0,0,.47.08,1.61,1.61,0,0,0,.39,0l.3-.08.2-.08.12,0h.05l0,0s0,0,0,.07,0,.06,0,.1,0,.06,0,.08a.13.13,0,0,1,0,.06s0,0,0,0l0,0-.11.07-.24.08-.34.07a2.72,2.72,0,0,1-.42,0,1.9,1.9,0,0,1-.66-.11,1.33,1.33,0,0,1-.48-.31,1.44,1.44,0,0,1-.3-.53,2.65,2.65,0,0,1-.09-.73,2.26,2.26,0,0,1,.1-.71,1.74,1.74,0,0,1,.29-.54,1.32,1.32,0,0,1,.47-.34,1.51,1.51,0,0,1,.61-.11,1.46,1.46,0,0,1,.62.11,1.21,1.21,0,0,1,.42.31,1.23,1.23,0,0,1,.24.47,2,2,0,0,1,.08.56Zm-.57-.16a1,1,0,0,0-.2-.7.75.75,0,0,0-.62-.25.8.8,0,0,0-.36.07,1,1,0,0,0-.27.21.83.83,0,0,0-.16.31,1,1,0,0,0-.07.36Z"/><path class="cls-1" d="M50.05,113.28a1.27,1.27,0,0,1,0,.2.75.75,0,0,1,0,.16.44.44,0,0,1-.06.16.7.7,0,0,1-.1.16l-.46.71,0,0-.06,0-.07,0H49l-.06,0a0,0,0,0,1,0,0s0,0,0,0l.45-.94v-.44a.46.46,0,0,1,0-.14.15.15,0,0,1,.06-.09l.1,0h.3a.23.23,0,0,1,.1,0,.15.15,0,0,1,.06.09A.46.46,0,0,1,50.05,113.28Z"/><path class="cls-1" d="M53.29,113.68a.08.08,0,0,1,0,0l-.05,0-.09,0h-.28l-.09,0,0,0a.07.07,0,0,1,0,0v-4.24a.07.07,0,0,1,0,0,.09.09,0,0,1,0,0l.1,0h.27l.09,0a.06.06,0,0,1,.05,0,.08.08,0,0,1,0,0Z"/><path class="cls-1" d="M57.05,113.68a.08.08,0,0,1,0,0s0,0,0,0l-.09,0h-.27l-.09,0a0,0,0,0,1,0,0,.08.08,0,0,1,0,0v-1.8a1.66,1.66,0,0,0,0-.42,1,1,0,0,0-.12-.28.55.55,0,0,0-.2-.17.57.57,0,0,0-.29-.07.72.72,0,0,0-.43.16,2,2,0,0,0-.44.44v2.14a.07.07,0,0,1,0,0,.09.09,0,0,1-.05,0l-.08,0h-.28l-.09,0s0,0,0,0a.07.07,0,0,1,0,0v-3.07a.09.09,0,0,1,0,0s0,0,0,0a.15.15,0,0,1,.08,0h.25l.07,0s0,0,0,0,0,0,0,0V111a1.77,1.77,0,0,1,.51-.43,1.23,1.23,0,0,1,1,0,.86.86,0,0,1,.34.28,1,1,0,0,1,.19.41,2.23,2.23,0,0,1,.06.56Z"/><path class="cls-1" d="M60.29,113.22s0,.07,0,.1a.15.15,0,0,1,0,.07s0,0,0,0l-.06.07-.14.1-.23.11a2.29,2.29,0,0,1-.28.09,1.63,1.63,0,0,1-.9-.08,1.24,1.24,0,0,1-.43-.32,1.49,1.49,0,0,1-.26-.52,2.5,2.5,0,0,1-.09-.71,2.57,2.57,0,0,1,.11-.78,1.6,1.6,0,0,1,.3-.53,1.21,1.21,0,0,1,.46-.31,1.47,1.47,0,0,1,.56-.1,1.36,1.36,0,0,1,.29,0,.91.91,0,0,1,.25.07,1,1,0,0,1,.21.1.53.53,0,0,1,.13.1l.06.06a.14.14,0,0,1,0,.06.19.19,0,0,1,0,.07v.11a.36.36,0,0,1,0,.18s0,.06-.07.06a.17.17,0,0,1-.12-.06l-.17-.13-.25-.12a.9.9,0,0,0-.34-.06.73.73,0,0,0-.63.32,1.62,1.62,0,0,0-.21.9,2.73,2.73,0,0,0,0,.53,1.26,1.26,0,0,0,.17.37.64.64,0,0,0,.27.22.8.8,0,0,0,.36.08.9.9,0,0,0,.34-.06,2,2,0,0,0,.26-.14l.18-.13a.24.24,0,0,1,.11-.06h0a.05.05,0,0,1,0,0,.19.19,0,0,1,0,.08S60.29,113.17,60.29,113.22Z"/><path class="cls-1" d="M61.6,113.68a.08.08,0,0,1,0,0,0,0,0,0,1,0,0l-.09,0h-.27l-.09,0a0,0,0,0,1,0,0,.08.08,0,0,1,0,0v-4.56s0,0,0-.05l0,0,.09,0h.27l.09,0,0,0s0,0,0,.05Z"/><path class="cls-1" d="M65.28,113.68a.08.08,0,0,1,0,0,0,0,0,0,1,0,0l-.08,0h-.25l-.08,0s0,0,0,0a.43.43,0,0,1,0,0v-.4a1.92,1.92,0,0,1-.52.42,1.1,1.1,0,0,1-.52.14,1.13,1.13,0,0,1-.51-.11.78.78,0,0,1-.34-.28,1,1,0,0,1-.19-.41,2.23,2.23,0,0,1-.06-.56v-1.87s0,0,0,0,0,0,0,0l.09,0H63l.09,0,0,0a.09.09,0,0,1,0,0v1.79a1.69,1.69,0,0,0,0,.43,1,1,0,0,0,.12.28.49.49,0,0,0,.2.18.68.68,0,0,0,.29.06.72.72,0,0,0,.42-.15,2.61,2.61,0,0,0,.45-.44v-2.15a.09.09,0,0,1,0,0l0,0,.08,0h.28a.15.15,0,0,1,.08,0l.05,0s0,0,0,0Z"/><path class="cls-1" d="M68.25,112.85a.93.93,0,0,1-.09.42.84.84,0,0,1-.25.31,1,1,0,0,1-.38.19,1.87,1.87,0,0,1-.49.07,1.55,1.55,0,0,1-.31,0l-.27-.06-.2-.09-.12-.07a.31.31,0,0,1,0-.1.72.72,0,0,1,0-.17.37.37,0,0,1,0-.11.14.14,0,0,1,0-.07s0,0,0,0h0l.11,0,.18.1.25.1a1.22,1.22,0,0,0,.34,0,1,1,0,0,0,.26,0,.53.53,0,0,0,.2-.09.4.4,0,0,0,.14-.15.48.48,0,0,0,0-.22.4.4,0,0,0-.06-.22.65.65,0,0,0-.18-.15,1.46,1.46,0,0,0-.25-.13l-.28-.11a1.43,1.43,0,0,1-.28-.13,1.14,1.14,0,0,1-.25-.18.94.94,0,0,1-.18-.25.91.91,0,0,1-.06-.35.84.84,0,0,1,.07-.35.66.66,0,0,1,.21-.29,1.07,1.07,0,0,1,.35-.2,1.45,1.45,0,0,1,.49-.07,1,1,0,0,1,.24,0l.23,0,.17.06.1.07,0,0,0,0a.13.13,0,0,0,0,.06v.2a.64.64,0,0,1,0,.07l0,0h0a.16.16,0,0,1-.09,0l-.15-.08-.21-.08a1.27,1.27,0,0,0-.29,0,.66.66,0,0,0-.25,0,.51.51,0,0,0-.18.09.38.38,0,0,0-.11.14.48.48,0,0,0,0,.18.32.32,0,0,0,.07.22.66.66,0,0,0,.17.16,1.15,1.15,0,0,0,.25.12l.29.12a1.85,1.85,0,0,1,.29.13,1,1,0,0,1,.25.17.74.74,0,0,1,.17.25A.71.71,0,0,1,68.25,112.85Z"/><path class="cls-1" d="M69.69,109.57a.38.38,0,0,1-.08.27.39.39,0,0,1-.28.07.38.38,0,0,1-.27-.07s-.07-.13-.07-.26,0-.23.07-.27a.41.41,0,0,1,.28-.07.38.38,0,0,1,.27.07A.33.33,0,0,1,69.69,109.57Zm-.07,4.11a.07.07,0,0,1,0,0,.09.09,0,0,1,0,0l-.08,0H69.2l-.09,0s0,0,0,0a.07.07,0,0,1,0,0v-3.07a.09.09,0,0,1,0,0l0,0,.09,0h.28l.08,0,0,0a.09.09,0,0,1,0,0Z"/><path class="cls-1" d="M73.52,112.11a2.28,2.28,0,0,1-.1.7,1.41,1.41,0,0,1-.29.54,1.48,1.48,0,0,1-.49.36,1.84,1.84,0,0,1-.69.13,1.69,1.69,0,0,1-.66-.12,1.12,1.12,0,0,1-.47-.33,1.24,1.24,0,0,1-.28-.52,2.45,2.45,0,0,1-.09-.69,2.53,2.53,0,0,1,.09-.7,1.57,1.57,0,0,1,.3-.54,1.28,1.28,0,0,1,.49-.36,1.78,1.78,0,0,1,.69-.12,1.69,1.69,0,0,1,.66.11,1.12,1.12,0,0,1,.47.33,1.37,1.37,0,0,1,.28.52A2.45,2.45,0,0,1,73.52,112.11Zm-.58,0a2.34,2.34,0,0,0,0-.47,1.13,1.13,0,0,0-.15-.39.84.84,0,0,0-.29-.27,1,1,0,0,0-.46-.09,1,1,0,0,0-.43.09.81.81,0,0,0-.3.25,1.1,1.1,0,0,0-.17.38,1.88,1.88,0,0,0-.06.49,2.34,2.34,0,0,0,0,.47,1.13,1.13,0,0,0,.15.39.8.8,0,0,0,.29.26,1.09,1.09,0,0,0,.89,0,.81.81,0,0,0,.3-.25.89.89,0,0,0,.17-.38A1.88,1.88,0,0,0,72.94,112.15Z"/><path class="cls-1" d="M77,113.68a.07.07,0,0,1,0,0,.06.06,0,0,1,0,0,.15.15,0,0,1-.08,0h-.28l-.08,0a.09.09,0,0,1,0,0,.07.07,0,0,1,0,0v-1.8a1.66,1.66,0,0,0,0-.42,1,1,0,0,0-.12-.28.55.55,0,0,0-.2-.17.57.57,0,0,0-.29-.07.7.7,0,0,0-.43.16,1.82,1.82,0,0,0-.44.44v2.14a.08.08,0,0,1,0,0,0,0,0,0,1,0,0l-.09,0H74.5l-.09,0a0,0,0,0,1,0,0,.08.08,0,0,1,0,0v-3.07s0,0,0,0l0,0,.07,0h.26l.07,0,0,0a.09.09,0,0,1,0,0V111a1.94,1.94,0,0,1,.52-.43,1.11,1.11,0,0,1,.52-.13,1.15,1.15,0,0,1,.52.1.93.93,0,0,1,.34.28,1,1,0,0,1,.19.41,2.9,2.9,0,0,1,0,.56Z"/><path class="cls-1" d="M78.78,113.28c0,.07,0,.14,0,.2a.75.75,0,0,1,0,.16.44.44,0,0,1-.06.16,1.4,1.4,0,0,1-.1.16l-.47.71s0,0,0,0l0,0-.08,0h-.2l-.06,0,0,0s0,0,0,0l.45-.94v-.44a.46.46,0,0,1,0-.14.15.15,0,0,1,.06-.09l.1,0h.3l.1,0a.15.15,0,0,1,.06.09A.46.46,0,0,1,78.78,113.28Z"/><path class="cls-1" d="M84.38,113.15a.28.28,0,0,1,0,.09.15.15,0,0,1,0,.07.14.14,0,0,1,0,.06l0,.06-.14.1a1.67,1.67,0,0,1-.27.14,2.9,2.9,0,0,1-.38.11,2.16,2.16,0,0,1-.46,0,1.92,1.92,0,0,1-.77-.15,1.56,1.56,0,0,1-.59-.42,1.92,1.92,0,0,1-.38-.69,3.12,3.12,0,0,1-.13-.95,3.22,3.22,0,0,1,.14-1,2.22,2.22,0,0,1,.4-.73,1.73,1.73,0,0,1,.61-.46,2,2,0,0,1,.79-.16,2.33,2.33,0,0,1,.38,0,1.59,1.59,0,0,1,.33.09,1.69,1.69,0,0,1,.27.13.71.71,0,0,1,.17.11l.06.07a.14.14,0,0,1,0,.06s0,0,0,.08v.1a.41.41,0,0,1,0,.12.19.19,0,0,1,0,.08l0,0h0a.28.28,0,0,1-.13-.06,1.39,1.39,0,0,0-.22-.15l-.33-.15a1.63,1.63,0,0,0-.47-.06,1.32,1.32,0,0,0-.53.11,1.18,1.18,0,0,0-.42.35,2,2,0,0,0-.27.56,3.17,3.17,0,0,0,0,1.5,1.7,1.7,0,0,0,.26.54,1.18,1.18,0,0,0,.42.32,1.28,1.28,0,0,0,.56.12,1.53,1.53,0,0,0,.46-.07,1.84,1.84,0,0,0,.34-.14l.23-.15a.27.27,0,0,1,.14-.06h0s0,0,0,0,0,0,0,.08A.57.57,0,0,1,84.38,113.15Z"/><path class="cls-1" d="M87.41,113.69a.06.06,0,0,1,0,.06l-.07,0H87l-.08,0a.06.06,0,0,1,0-.06v-.31a1.49,1.49,0,0,1-.45.34,1.17,1.17,0,0,1-.52.12,1.5,1.5,0,0,1-.44-.07.88.88,0,0,1-.33-.18.77.77,0,0,1-.22-.29,1,1,0,0,1-.08-.4.94.94,0,0,1,.11-.45.84.84,0,0,1,.3-.32,1.67,1.67,0,0,1,.49-.19,3.16,3.16,0,0,1,.64-.06h.43v-.24a1,1,0,0,0,0-.32.43.43,0,0,0-.12-.22.55.55,0,0,0-.22-.14,1,1,0,0,0-.32,0,1.46,1.46,0,0,0-.38,0l-.29.11-.21.11a.21.21,0,0,1-.12,0H85.1l0,0a.64.64,0,0,1,0-.07s0-.06,0-.1a.44.44,0,0,1,0-.13.14.14,0,0,1,0-.1.91.91,0,0,1,.16-.1,1.56,1.56,0,0,1,.26-.11l.32-.08a2.19,2.19,0,0,1,.36,0,1.82,1.82,0,0,1,.56.07.89.89,0,0,1,.38.22.91.91,0,0,1,.2.36,1.55,1.55,0,0,1,.07.5Zm-.56-1.41h-.48a2.37,2.37,0,0,0-.41,0,.91.91,0,0,0-.28.12.48.48,0,0,0-.17.18.7.7,0,0,0-.05.25.49.49,0,0,0,.15.38.59.59,0,0,0,.43.14.74.74,0,0,0,.41-.11,1.68,1.68,0,0,0,.4-.34Z"/><path class="cls-1" d="M89,113.68a.43.43,0,0,1,0,0,.09.09,0,0,1,0,0l-.08,0h-.28l-.09,0s0,0,0,0a.07.07,0,0,1,0,0v-4.56a.09.09,0,0,1,0-.05l0,0,.09,0h.28l.08,0,0,0s0,0,0,.05Z"/><path class="cls-1" d="M91.65,113.46a.71.71,0,0,1,0,.16.15.15,0,0,1,0,.08l-.08,0-.13,0-.15,0h-.16a1.31,1.31,0,0,1-.41-.06.68.68,0,0,1-.27-.2.65.65,0,0,1-.16-.32,1.62,1.62,0,0,1,0-.46V111h-.43a.1.1,0,0,1-.09-.06.34.34,0,0,1,0-.17c0-.05,0-.08,0-.11a.31.31,0,0,0,0-.08l0,0h.48v-.73a.09.09,0,0,1,0-.05l0,0,.09,0h.28l.08,0,0,0a.09.09,0,0,1,0,.05v.73h.84l0,0,0,.08v.11a.34.34,0,0,1,0,.17.09.09,0,0,1-.08.06h-.79v1.71a1,1,0,0,0,.09.48.37.37,0,0,0,.34.17l.14,0,.11,0,.08,0,.06,0h0s0,0,0,0a.64.64,0,0,1,0,.07Z"/><path class="cls-1" d="M95,113.68a.07.07,0,0,1,0,0s0,0,0,0l-.08,0h-.25l-.08,0s0,0,0,0a.07.07,0,0,1,0,0v-.4a2.08,2.08,0,0,1-.52.42,1.1,1.1,0,0,1-.52.14,1.17,1.17,0,0,1-.52-.11.84.84,0,0,1-.34-.28,1,1,0,0,1-.18-.41,2.23,2.23,0,0,1-.06-.56v-1.87a.09.09,0,0,1,0,0l0,0,.09,0h.27l.09,0,0,0s0,0,0,0v1.79a1.69,1.69,0,0,0,0,.43.65.65,0,0,0,.12.28.49.49,0,0,0,.2.18.65.65,0,0,0,.29.06.72.72,0,0,0,.42-.15,2.28,2.28,0,0,0,.44-.44v-2.15s0,0,0,0,0,0,0,0l.09,0h.28l.08,0,0,0a.09.09,0,0,1,0,0Z"/><path class="cls-1" d="M97.87,110.81v.13s0,.06,0,.08l0,0a.05.05,0,0,1,0,0l-.07,0-.09,0-.11,0h-.13a.47.47,0,0,0-.17,0,.77.77,0,0,0-.17.12,1.23,1.23,0,0,0-.19.2c-.07.09-.14.2-.22.32v2a.43.43,0,0,1,0,0,.09.09,0,0,1,0,0l-.08,0h-.28l-.09,0a0,0,0,0,1,0,0,.07.07,0,0,1,0,0v-3.12l0,0,.07,0h.26l.07,0,0,0a.09.09,0,0,1,0,0v.45a2.22,2.22,0,0,1,.24-.3l.21-.19a.88.88,0,0,1,.2-.09.62.62,0,0,1,.19,0h.11l.11,0,.11,0,.08,0s0,0,0,0,0,0,0,0,0,0,0,.07Z"/><path class="cls-1" d="M101.05,112a.21.21,0,0,1-.07.19.2.2,0,0,1-.15.06h-2a2.09,2.09,0,0,0,0,.46.89.89,0,0,0,.18.35.72.72,0,0,0,.31.23,1.28,1.28,0,0,0,.47.08,1.51,1.51,0,0,0,.39,0,1.84,1.84,0,0,0,.3-.08l.2-.08.13,0h0l0,0s0,0,0,.07a.31.31,0,0,1,0,.1v.08a.13.13,0,0,0,0,.06l0,0,0,0s0,0-.11.07l-.24.08-.34.07a2.71,2.71,0,0,1-.41,0,1.92,1.92,0,0,1-.67-.11,1.33,1.33,0,0,1-.48-.31,1.3,1.3,0,0,1-.29-.53,2.3,2.3,0,0,1-.1-.73,2.26,2.26,0,0,1,.1-.71,1.57,1.57,0,0,1,.3-.54,1.28,1.28,0,0,1,.46-.34,1.56,1.56,0,0,1,.62-.11,1.42,1.42,0,0,1,.61.11,1.21,1.21,0,0,1,.42.31,1.23,1.23,0,0,1,.24.47,2,2,0,0,1,.08.56Zm-.57-.16a1,1,0,0,0-.2-.7.74.74,0,0,0-.61-.25.84.84,0,0,0-.37.07,1,1,0,0,0-.27.21,1,1,0,0,0-.16.31,1.35,1.35,0,0,0-.07.36Z"/></svg>