<svg id="Layer_55" data-name="Layer 55" xmlns="http://www.w3.org/2000/svg" viewBox="0 0 131 131"><defs><style>.cls-1{fill:#ef8429;}</style></defs><path class="cls-1" d="M19.73,83.4c0-.86,0-1.72,0-2.57,0-.63-.11-.73-.73-.8-.08,0-.2,0-.19-.11s.13-.09.22-.08c.62,0,1.23,0,1.85,0a16.47,16.47,0,0,0,2.43-.1c.13,0,.19,0,.15.17a4.69,4.69,0,0,0-.12,1.12c0,.08,0,.17-.1.18s-.09-.1-.1-.16c-.15-.64-.24-.72-.9-.73l-1.23,0c-.16,0-.22,0-.22.2q0,1.31,0,2.61c0,.13,0,.21.2.21.59,0,1.17,0,1.75-.06a.54.54,0,0,0,.37-.19s.07-.08.13,0,.05.09.05.14c0,.45-.09.91-.13,1.36,0,.06,0,.11-.1.1s-.08-.06-.09-.11c-.17-.64-.17-.66-.81-.71-.38,0-.76,0-1.14,0-.16,0-.23,0-.23.21,0,.88,0,1.75,0,2.63,0,.47.18.63.65.69a5.06,5.06,0,0,0,1.23,0c.52-.07.66-.21.79-.71,0-.12,0-.33.16-.3s.09.22.07.33c0,.29-.08.58-.11.87a.31.31,0,0,1-.37.32l-3.09,0c-.73,0-1.47,0-2.2,0a2.15,2.15,0,0,1-2-1c-.55-.75-1.14-1.47-1.71-2.21a.44.44,0,0,0-.37-.21l-1,0c-.16,0-.23,0-.23.23,0,.79,0,1.58.08,2.37,0,.45.19.55.72.59.1,0,.27,0,.26.1s-.17.1-.27.1c-.77,0-1.54,0-2.3,0-.09,0-.23,0-.23-.1s.12-.1.2-.1c.33,0,.48-.16.52-.49a10.12,10.12,0,0,0,.05-1.1c0-1.7,0-3.41,0-5.11,0-.69-.13-.91-.78-.92-.07,0-.15,0-.15-.08s.07-.11.14-.1a28,28,0,0,1,3.78.11,2,2,0,0,1,1.4,2.92,3.56,3.56,0,0,1-.9,1.17c-.1.09-.17.15-.06.28.76.91,1.48,1.85,2.31,2.68a2.08,2.08,0,0,0,1.61.64c.41,0,.55-.11.62-.51a11.89,11.89,0,0,0,.08-1.69c0-.68,0-1.36,0-2Zm-6,.67c.93,0,1.32-.31,1.48-1.23a.51.51,0,0,0,0-.13c.15-1.41-.47-2.67-2.24-2.44-.26,0-.35.12-.34.38,0,.78,0,1.56,0,2.34C12.68,84.05,12.69,84.07,13.76,84.07Z"/><path class="cls-1" d="M69.71,82.7a5.9,5.9,0,0,1,1.52,0c.47,0,.48.09.43.55a5.73,5.73,0,0,1-1.06,2.48c0,.07-.2.14,0,.26a6.86,6.86,0,0,0,2.73,1.57,1.37,1.37,0,0,0,.28,0c.09,0,.23,0,.23.11s-.14.09-.22.09a16.35,16.35,0,0,1-1.85,0,3.88,3.88,0,0,1-1.74-.9c-.18-.14-.27-.12-.42,0a4.14,4.14,0,0,1-4.33.77,2.89,2.89,0,0,1-.71-4.64,3.12,3.12,0,0,1,.76-.65c.24-.13.19-.23.08-.41A2.43,2.43,0,0,1,65,80.27a2.59,2.59,0,0,1,2.36-2,3.93,3.93,0,0,1,1.63.19.46.46,0,0,1,.34.51,11.2,11.2,0,0,1-.08,1.3c0,.1,0,.26-.15.24s-.08-.15-.08-.25a1.61,1.61,0,0,0-2.3-1.42,1.67,1.67,0,0,0-.73,2.2,4.51,4.51,0,0,0,.8,1.29,31.62,31.62,0,0,0,3.15,3.19c.18.16.25.12.34-.07a3.76,3.76,0,0,0,.47-1.76.71.71,0,0,0-.69-.82A.32.32,0,0,1,69.71,82.7Zm-2.54,4.6a3.38,3.38,0,0,0,2-.61c.2-.15.24-.23,0-.42a25.93,25.93,0,0,1-3.36-3.51c-.12-.16-.19-.1-.3,0a2.49,2.49,0,0,0-.81,2.34A2.41,2.41,0,0,0,67.17,87.3Z"/><path class="cls-1" d="M119.05,83.85h1.17c.07,0,.2,0,.2.09s-.11.11-.2.11c-.36,0-.49.18-.52.51-.08.83,0,1.65,0,2.47a.48.48,0,0,1-.36.56,6.23,6.23,0,0,1-5.12-.33,4.06,4.06,0,0,1,1.17-7.43,8.62,8.62,0,0,1,3.32,0c.27,0,.54.08.81.1s.25.07.23.25c-.08.5-.07,1-.1,1.49,0,.08,0,.2-.08.21s-.12-.1-.12-.18a1.35,1.35,0,0,0-.92-1.22,4.73,4.73,0,0,0-3.27-.17,2.64,2.64,0,0,0-1.84,2.26,4.12,4.12,0,0,0,2.15,4.49,4,4,0,0,0,2.54.28c.44-.08.55-.23.55-.69,0-.63,0-1.26,0-1.89s-.11-.68-.71-.73c-.08,0-.21,0-.21-.09s.13-.11.22-.11Z"/><path class="cls-1" d="M50.35,83.85h1.17c.08,0,.21,0,.2.1s-.11.09-.18.1c-.44,0-.5.12-.55.56a22.08,22.08,0,0,0,0,2.44.49.49,0,0,1-.37.55,6.55,6.55,0,0,1-3.07.31,4.52,4.52,0,0,1-2.66-1.09,3.91,3.91,0,0,1-1.18-4.14,3.71,3.71,0,0,1,3-2.85,8.58,8.58,0,0,1,3.35,0c.26,0,.52.08.78.1s.26.06.23.25a10.55,10.55,0,0,0-.08,1.49c0,.08,0,.2-.09.21s-.13-.12-.14-.21a1.3,1.3,0,0,0-.88-1.18,4.7,4.7,0,0,0-3.36-.16,2.71,2.71,0,0,0-1.8,2.34A4.19,4.19,0,0,0,46.57,87a3.88,3.88,0,0,0,2.83.4c.43-.09.51-.21.51-.65,0-.65,0-1.3,0-1.95s-.13-.65-.67-.7c-.09,0-.24,0-.24-.1s.16-.1.26-.1.37,0,.55,0h.55Z"/><path class="cls-1" d="M80.82,86.26c.41-1,.8-2,1.17-2.93.5-1.29,1-2.57,1.44-3.89,0-.09.07-.18.09-.27.09-.36,0-.5-.39-.53-.12,0-.32.07-.32-.11s.21-.11.33-.1a12.63,12.63,0,0,0,2,0,.44.44,0,0,1,.16,0c.06,0,.15,0,.13.11a.13.13,0,0,1-.12.08c-.79,0-1,.57-1.21,1.12-1,2.27-1.91,4.56-2.87,6.84-.16.38-.34.76-.52,1.15,0,.11-.08.27-.24.26s-.2-.16-.24-.28c-.54-1.32-1.07-2.64-1.6-4S77.56,81,77,79.6a1.25,1.25,0,0,0-1.26-1c-.08,0-.18,0-.18-.09s.12-.11.19-.12l.75,0a14.6,14.6,0,0,0,1.75,0,2.55,2.55,0,0,1,.39,0s.11,0,.12.08-.07.1-.13.11-.45,0-.57.16,0,.46.12.68c.83,2.19,1.67,4.37,2.51,6.56C80.73,86.09,80.76,86.13,80.82,86.26Z"/><path class="cls-1" d="M5.41,82.81c0,1.13,0,2.49,0,3.84,0,.1,0,.2,0,.29.07.5.17.58.67.67.15,0,.46,0,.44.12s-.31.1-.47.1c-.76,0-1.52,0-2.28,0H3.57s-.08,0-.08-.08,0-.1.09-.11l.29,0a.4.4,0,0,0,.37-.35,5.28,5.28,0,0,0,.11-1.19c0-2.18,0-4.36,0-6.54,0-.67-.14-.8-.81-.88-.09,0-.23,0-.22-.12s.15-.1.24-.09a21.49,21.49,0,0,0,2.27,0,6.06,6.06,0,0,1,1.59.06A2.35,2.35,0,0,1,9,82.21,3,3,0,0,1,6.25,83.6c-.12,0-.3,0-.29-.14s.18-.1.29-.1a2,2,0,0,0,2.1-1.58A2.37,2.37,0,0,0,6.73,78.9a3.52,3.52,0,0,0-1-.05c-.26,0-.36.13-.35.39C5.42,80.35,5.41,81.47,5.41,82.81Z"/><path class="cls-1" d="M109.42,87.73a.36.36,0,0,0,.11-.5c-.29-.72-.58-1.44-.85-2.17a.32.32,0,0,0-.35-.24q-.94,0-1.89,0c-.15,0-.27,0-.33.19-.22.67-.46,1.33-.67,2-.14.46,0,.56.42.63.07,0,.15,0,.16.08s-.08.12-.16.12h-2.24c-.07,0-.16,0-.15-.12s.09-.08.15-.08c.67,0,1-.4,1.16-.94l2.51-6.59c.06-.15.07-.4.27-.4s.21.25.27.4q1.23,3.09,2.47,6.16a3.92,3.92,0,0,0,.43.84,1.09,1.09,0,0,0,.94.53c.07,0,.17,0,.17.1s-.07.1-.14.1c-.71,0-1.43,0-2.14,0C109.53,87.79,109.5,87.77,109.42,87.73Zm-2-6.22h-.07l-.9,2.66c-.06.17,0,.19.14.19h1.63c.19,0,.19-.09.14-.23C108,83.25,107.71,82.38,107.39,81.51Z"/><path class="cls-1" d="M124.72,87.85a22.83,22.83,0,0,0-2.34,0c-.07,0-.2,0-.22-.06s.11-.13.2-.14c.38-.06.48-.34.49-.66,0-.65.06-1.3.06-2,0-1.35,0-2.71,0-4.06a2.83,2.83,0,0,0,0-.29c-.06-.48-.17-.59-.64-.65-.1,0-.28,0-.27-.09s.19-.1.3-.1c.37,0,.73,0,1.1,0a22.6,22.6,0,0,0,3.08-.1c.17,0,.2.06.17.18a6.11,6.11,0,0,0-.13,1.13c0,.07,0,.17-.11.16s-.07-.09-.08-.15c-.15-.65-.24-.73-.91-.74l-1.21,0c-.15,0-.23,0-.23.2,0,.87,0,1.74,0,2.6,0,.15,0,.21.2.21.58,0,1.17,0,1.75-.06a.5.5,0,0,0,.36-.19s.07-.09.14-.06,0,.09,0,.15c0,.45-.08.9-.13,1.35,0,.06,0,.12-.09.12s-.08-.06-.09-.12,0-.13,0-.19a.46.46,0,0,0-.47-.48,14.72,14.72,0,0,0-1.49-.08c-.15,0-.2,0-.2.21,0,.85,0,1.71,0,2.56,0,.55.18.71.71.78a4.82,4.82,0,0,0,1.2,0,.73.73,0,0,0,.76-.66l.06-.25c0-.06.06-.11.11-.1s.09.08.09.14a7.9,7.9,0,0,1-.15,1.19c0,.18-.2.2-.36.2Z"/><path class="cls-1" d="M56.16,87.86a22.59,22.59,0,0,0-2.47,0c-.08,0-.22,0-.24-.08s.11-.11.2-.12c.34,0,.45-.27.49-.58a15.88,15.88,0,0,0,.06-2c0-1.38,0-2.75,0-4.13,0-.09,0-.17,0-.26,0-.51-.17-.63-.68-.69-.09,0-.24,0-.24-.09s.16-.11.26-.1c1.18,0,2.36.06,3.54,0a2,2,0,0,0,.64,0c.16-.06.24,0,.2.16a8.07,8.07,0,0,0-.12,1.09c0,.08,0,.21-.11.2s-.08-.1-.1-.18c-.1-.58-.2-.68-.8-.71-.44,0-.89,0-1.33,0-.15,0-.21,0-.21.2v2.61c0,.18.07.21.23.21.56,0,1.13,0,1.69-.06a.55.55,0,0,0,.38-.16s.07-.12.15-.09a.13.13,0,0,1,.05.17,10.74,10.74,0,0,0-.12,1.26c0,.08,0,.18-.09.18s-.08-.1-.1-.17c-.09-.53-.14-.59-.68-.63s-.86,0-1.29,0c-.18,0-.22,0-.22.22,0,.8,0,1.6,0,2.41s.17.87.88.93a6.41,6.41,0,0,0,1.07,0,.74.74,0,0,0,.73-.65c0-.09,0-.19.08-.28s0-.1.12-.09a.17.17,0,0,1,.06.1A5.56,5.56,0,0,1,58,87.7c0,.16-.21.15-.36.15Z"/><path class="cls-1" d="M34.94,83.72c0,.94,0,2.07.05,3.19,0,.58.14.68.73.73h.13c.07,0,.13,0,.13.1s-.07.1-.14.1H33.37c-.09,0-.23,0-.24-.09s.14-.11.23-.11c.32,0,.44-.17.47-.45s.06-.71.06-1.07c0-1.83,0-3.66,0-5.49,0-.23-.06-.3-.29-.29-.47,0-1,0-1.43,0a1,1,0,0,0-1.12.69c0,.07,0,.2-.15.16s-.08-.15-.07-.23c.08-.37.17-.74.24-1.11,0-.17.12-.21.28-.16a5.49,5.49,0,0,0,1.67.17c1.33,0,2.66,0,4,0a2.55,2.55,0,0,0,.39,0c.41-.06.41-.06.41.33s0,.65,0,1c0,.08,0,.16-.11.16s-.08-.08-.09-.15c-.11-.65-.13-.68-.78-.76s-1.14,0-1.72,0c-.23,0-.16.15-.16.26Z"/><path class="cls-1" d="M28.23,79.68a9.28,9.28,0,0,1,1.29.16c.11,0,.15.06.15.16,0,.42,0,.85-.05,1.27,0,0,0,.11-.08.12s-.11-.06-.12-.12a1,1,0,0,0-.49-.92,2,2,0,0,0-1.35-.2A1.15,1.15,0,0,0,26.85,82a3.61,3.61,0,0,0,.79.77c.43.34.88.66,1.29,1a2.5,2.5,0,0,1,.92,2,2.08,2.08,0,0,1-1.31,2,3.78,3.78,0,0,1-2.67,0,.37.37,0,0,1-.3-.42,11.91,11.91,0,0,1,.05-1.2c0-.09,0-.21.11-.21s.09.11.1.19a1.32,1.32,0,0,0,.89,1.27,1.75,1.75,0,0,0,1.86-.27,1.39,1.39,0,0,0,.11-1.84,4.36,4.36,0,0,0-1-1A6.88,6.88,0,0,1,26.25,83,2.07,2.07,0,0,1,26,80.81a2,2,0,0,1,1.79-1.1C27.93,79.69,28.08,79.69,28.23,79.68Z"/><path class="cls-1" d="M100.66,87.85c-.91,0-1.81-.06-2.72,0h-.26a.09.09,0,0,1-.1-.1c0-.06.06-.08.11-.09.56-.13.59-.16.64-.73.11-1.58,0-3.16,0-4.74a12.32,12.32,0,0,0,0-1.49c0-.51-.16-.62-.66-.65-.09,0-.26.06-.26-.1s.17-.1.27-.09c.8,0,1.6,0,2.4,0,.08,0,.23,0,.23.09s-.14.09-.23.1c-.55.06-.67.18-.67.74,0,1.72,0,3.45,0,5.17a7.4,7.4,0,0,0,.08.81.61.61,0,0,0,.58.56,5.7,5.7,0,0,0,1.65,0,.92.92,0,0,0,.74-.83c0-.09,0-.24.14-.21s.08.16.07.25c0,.32-.09.64-.13,1s-.18.37-.44.37Z"/><path class="cls-1" d="M94.12,87.85c-.89,0-1.77-.06-2.66,0H91.2c-.07,0-.13,0-.12-.11s.06-.07.12-.08c.55-.11.56-.13.62-.67a30.1,30.1,0,0,0,.05-3.15c0-1.06,0-2.12,0-3.18,0-.48-.17-.58-.65-.61-.1,0-.27,0-.26-.1s.17-.1.27-.09c.8,0,1.6,0,2.4,0,.08,0,.23-.06.23.09s-.15.09-.23.1c-.52.06-.67.17-.67.65,0,1.93-.08,3.85.06,5.78,0,.67.19.81.87.88a5.31,5.31,0,0,0,1.26,0,.89.89,0,0,0,.87-.82c0-.1,0-.26.15-.23s.06.17.05.26a6.3,6.3,0,0,1-.12,1,.39.39,0,0,1-.45.36Z"/><path class="cls-1" d="M40.69,87.84h-1.2c-.09,0-.23,0-.25-.09s.13-.1.22-.11a.45.45,0,0,0,.48-.49c0-.38.07-.76.07-1.14,0-1.73,0-3.46,0-5.2,0-.57-.06-.64-.63-.78-.06,0-.14,0-.14-.09s.09-.11.16-.1c.75,0,1.51,0,2.27,0,.06,0,.16,0,.17.09s-.1.09-.17.11c-.53.1-.58.14-.59.7,0,.89,0,1.79,0,2.69,0,1.14-.06,2.27,0,3.41,0,.65.14.74.77.8.1,0,.27,0,.26.1s-.17.1-.27.1Z"/><path class="cls-1" d="M87.66,87.84H86.43c-.08,0-.21,0-.21-.1s.11-.1.19-.1c.36,0,.49-.21.52-.53A11.73,11.73,0,0,0,87,85.78c0-1.63,0-3.27,0-4.91a1.62,1.62,0,0,0,0-.22c0-.47-.1-.52-.56-.61-.07,0-.2,0-.2-.1s.14-.11.23-.1c.71,0,1.42,0,2.14,0,.08,0,.22,0,.23.09s-.13.1-.2.11c-.47.09-.54.14-.56.63,0,.71,0,1.41,0,2.11,0,1.37-.05,2.73,0,4.09,0,.61.13.7.74.77.1,0,.29-.06.28.11s-.2.09-.31.09Z"/><path class="cls-1" d="M48.29,96.85a.75.75,0,0,1-.86-.27c-.42-.5-.88-1-1.37-1.5,0,.56,0,1,0,1.52,0,.16,0,.3-.23.29s-.2-.14-.2-.28V93.75c0-.16,0-.26.22-.26s.21.12.21.27c0,.38,0,.75,0,1.2.47-.44.92-.81,1.32-1.23a.86.86,0,0,1,.83-.21c-.51.47-1,.91-1.46,1.34-.16.14-.17.22,0,.37C47.25,95.75,47.76,96.29,48.29,96.85Z"/><path class="cls-1" d="M44.82,94.81a6.42,6.42,0,0,1,0,1.22,1.29,1.29,0,0,1-2.46,0,13.44,13.44,0,0,1-.07-2.46c0-.17.14-.11.24-.12s.18.06.18.19q0,.77,0,1.53a3.75,3.75,0,0,0,0,.58.8.8,0,0,0,.86.76.78.78,0,0,0,.83-.78c0-.65,0-1.31,0-2,0-.16,0-.33.23-.32s.19.17.19.31C44.83,94.11,44.82,94.43,44.82,94.81Z"/><path class="cls-1" d="M74,94.9a1.2,1.2,0,0,1,1.73,0,1.29,1.29,0,0,1-.07,1.72,1.14,1.14,0,0,1-1.64-.09v1.21c0,.12,0,.23-.18.23s-.21-.06-.21-.23c0-1,0-1.92,0-2.89,0-.11,0-.27.17-.27S74.09,94.65,74,94.9Zm1.6.85a.79.79,0,1,0-1.58,0,.81.81,0,0,0,.78.9A.8.8,0,0,0,75.63,95.75Z"/><path class="cls-1" d="M66.63,94.88a1.19,1.19,0,0,1,1.71,0,1.29,1.29,0,0,1,0,1.7,1.14,1.14,0,0,1-1.66-.07v1.21c0,.13,0,.23-.18.23s-.21-.07-.21-.23c0-1,0-1.92,0-2.89,0-.12-.06-.26.16-.27S66.64,94.69,66.63,94.88Zm1.58.85a.79.79,0,0,0-.77-.86.88.88,0,0,0,0,1.75A.8.8,0,0,0,68.21,95.73Z"/><path class="cls-1" d="M85.07,95.91h-.71c-.17,0-.18.06-.14.19a.79.79,0,0,0,1.23.36c.07-.06.12-.18.23-.14a.45.45,0,0,1,.19.17c0,.09-.06.13-.11.18a1.31,1.31,0,0,1-1.51.08,1.29,1.29,0,0,1-.37-1.55,1.11,1.11,0,0,1,2.13.55c0,.14-.08.16-.19.16Zm-.19-.33c.16,0,.32,0,.48,0s.24-.09.19-.25a.62.62,0,0,0-.53-.46.69.69,0,0,0-.7.31c-.07.11-.17.24-.1.36s.2,0,.3,0S84.76,95.58,84.88,95.58Z"/><path class="cls-1" d="M77.88,95.91c-.24,0-.48,0-.72,0S77,96,77,96.14a.78.78,0,0,0,1.22.31c.07,0,.12-.18.23-.12a.35.35,0,0,1,.19.17c0,.08-.06.12-.11.17a1.31,1.31,0,0,1-1.51.08,1.28,1.28,0,0,1-.37-1.55,1.13,1.13,0,0,1,1.28-.64,1.14,1.14,0,0,1,.84,1.2c0,.14-.08.15-.19.15Zm-.24-.33c.16,0,.32,0,.48,0s.26-.09.2-.26a.62.62,0,0,0-.58-.45.67.67,0,0,0-.7.41c-.09.19-.11.33.18.3S77.5,95.58,77.64,95.58Z"/><path class="cls-1" d="M59.56,95.91c-.22,0-.45,0-.68,0s-.22,0-.16.22a.79.79,0,0,0,1.22.33c.07,0,.14-.15.2-.14a.32.32,0,0,1,.22.17c0,.08,0,.13-.1.18a1.32,1.32,0,0,1-1.52.08,1.29,1.29,0,0,1-.37-1.55,1.11,1.11,0,0,1,2.13.55c0,.14-.08.16-.19.16Zm-.21-.33c.16,0,.32,0,.48,0s.26-.11.19-.29a.6.6,0,0,0-.56-.42.67.67,0,0,0-.69.38c-.14.28-.11.33.19.33Z"/><path class="cls-1" d="M71.91,97a1.21,1.21,0,1,1,1.2-1.22A1.17,1.17,0,0,1,71.91,97Zm-.81-1.21a.82.82,0,0,0,.8.88.88.88,0,0,0,0-1.75A.82.82,0,0,0,71.1,95.74Z"/><path class="cls-1" d="M56.09,94.88a1.48,1.48,0,0,1,.49-.31.8.8,0,0,1,1.09.7c0,.48,0,1,0,1.46,0,.16-.11.15-.22.15s-.17,0-.17-.17c0-.38,0-.76,0-1.13s-.16-.69-.49-.71a.64.64,0,0,0-.69.66c0,.38,0,.76,0,1.14,0,.13,0,.22-.19.22s-.22-.07-.21-.23c0-.59,0-1.17,0-1.76,0-.1-.1-.26.12-.3S56.1,94.67,56.09,94.88Z"/><path class="cls-1" d="M61.74,97a1,1,0,0,1-.69-.21c-.07-.06-.23-.12-.1-.25s.19-.22.34,0a.63.63,0,0,0,.69.14.34.34,0,0,0,.25-.31A.29.29,0,0,0,62,96l-.59-.17a.56.56,0,0,1-.43-.52.61.61,0,0,1,.34-.61,1,1,0,0,1,1.13.08c.06.06.2.13.07.22s-.17.23-.33.07a.52.52,0,0,0-.65-.11.3.3,0,0,0-.17.26.22.22,0,0,0,.17.21l.47.14c.5.13.7.36.66.77a.78.78,0,0,1-.82.64Z"/><path class="cls-1" d="M87.24,96.94a1,1,0,0,1-.67-.19c-.07-.06-.25-.11-.1-.27s.19-.2.34,0a.58.58,0,0,0,.66.14.32.32,0,0,0,.27-.32.31.31,0,0,0-.25-.3c-.2-.06-.4-.1-.59-.17a.56.56,0,0,1-.42-.52.6.6,0,0,1,.32-.59,1,1,0,0,1,1.13,0c.07.06.22.14.08.25s-.17.22-.33,0a.5.5,0,0,0-.59-.12.3.3,0,0,0-.22.25c0,.15.1.22.21.26l.47.13c.46.13.64.34.61.74a.73.73,0,0,1-.72.65A1.34,1.34,0,0,1,87.24,96.94Z"/><path class="cls-1" d="M50.29,97a1.07,1.07,0,0,1-.73-.19c-.08-.06-.25-.12-.13-.26s.2-.22.37,0a.57.57,0,0,0,.66.13.33.33,0,0,0,.25-.3.29.29,0,0,0-.24-.31l-.59-.17a.58.58,0,0,1-.43-.51.62.62,0,0,1,.34-.62,1,1,0,0,1,1.1,0c.07.06.23.13.1.25s-.18.23-.34,0a.5.5,0,0,0-.6-.1.29.29,0,0,0-.21.26c0,.13.1.19.2.23a4,4,0,0,0,.46.13c.48.13.67.36.64.76a.77.77,0,0,1-.78.65Z"/><path class="cls-1" d="M53.24,95.91c0-.2,0-.39,0-.59s0-.46-.34-.39c-.12,0-.14-.06-.14-.16s0-.19.14-.16c.35.06.35-.15.34-.4a1.91,1.91,0,0,1,0-.48.73.73,0,0,1,.9-.55c.12,0,.15.09.13.21s0,.13-.17.13c-.42,0-.5.08-.51.5,0,.1,0,.2,0,.3s.06.31.29.29.27-.06.26.17-.17.15-.28.15-.28.06-.27.27c0,.49,0,1,0,1.47,0,.13,0,.22-.19.22s-.22-.07-.22-.23S53.24,96.16,53.24,95.91Z"/><path class="cls-1" d="M81.22,95.73c0-.15,0-.3,0-.45s0-.4-.32-.35c-.13,0-.16-.05-.16-.17s0-.18.15-.15c.33.06.35-.13.33-.37s-.07-.27.15-.29.28.07.25.26.07.45.4.4c.12,0,.27,0,.26.17s-.15.16-.25.15c-.35-.06-.45.09-.42.42s0,.58,0,.88.14.42.45.37c.09,0,.19-.1.22.07a.2.2,0,0,1-.16.26c-.54.14-.87-.09-.9-.64,0-.19,0-.37,0-.56Z"/><path class="cls-1" d="M63.39,95.72c0-.13,0-.26,0-.39s0-.47-.33-.4c-.12,0-.15-.05-.15-.16s0-.19.17-.16c.31,0,.33-.12.31-.36s0-.3.2-.3.21.18.19.31c0,.29.08.38.36.35.1,0,.24-.07.29.06s0,.27-.22.27c-.42,0-.42,0-.42.43s0,.56,0,.84.13.44.47.39c.09,0,.19-.08.2.08a.19.19,0,0,1-.15.24.63.63,0,0,1-.91-.62c0-.19,0-.39,0-.58Z"/><path class="cls-1" d="M69.56,94.88a1.09,1.09,0,0,1,.65-.34c.13,0,.25,0,.25.17s0,.23-.21.23a.55.55,0,0,0-.64.58c0,.37,0,.76,0,1.13,0,.12,0,.24-.17.24s-.23-.06-.22-.23c0-.58,0-1.17,0-1.75,0-.11-.11-.27.12-.31S69.56,94.68,69.56,94.88Z"/><path class="cls-1" d="M79.69,94.92a1,1,0,0,1,.71-.38c.12,0,.21,0,.21.17s0,.22-.19.23c-.47,0-.63.18-.67.65s0,.72,0,1.07c0,.13,0,.23-.18.23s-.21-.08-.21-.23c0-.59,0-1.17,0-1.76,0-.1-.1-.27.12-.3S79.74,94.65,79.69,94.92Z"/><path class="cls-1" d="M82.83,95.71v-.87c0-.15,0-.25.2-.24s.19.09.18.22v1.85c0,.13,0,.21-.18.22s-.2-.1-.2-.24Z"/><path class="cls-1" d="M54.59,95.73v-.94c0-.14,0-.19.18-.19s.2,0,.2.18v1.94c0,.16-.08.16-.2.17s-.19-.06-.18-.19Z"/><path class="cls-1" d="M48.57,94.64c.09-.33.19-.65.27-1s.25-.18.38-.15,0,.17,0,.25-.16.43-.21.65S48.84,94.72,48.57,94.64Z"/><path class="cls-1" d="M55.05,93.74c0,.19-.11.28-.28.28a.23.23,0,0,1-.26-.26.24.24,0,0,1,.27-.26A.26.26,0,0,1,55.05,93.74Z"/><path class="cls-1" d="M83.29,93.75A.25.25,0,0,1,83,94a.24.24,0,0,1-.28-.25A.24.24,0,0,1,83,93.5.27.27,0,0,1,83.29,93.75Z"/><path class="cls-1" d="M77.24,58a2.12,2.12,0,0,0-.64,1.11.56.56,0,0,1-.34.35,2.42,2.42,0,0,0-1.15,1.27c-.1.21,0,.32.21.38a.53.53,0,0,0,.72-.66c-.05-.18,0-.22.16-.22a1.23,1.23,0,0,1,1.13.52.91.91,0,0,1,0,1.2c-.1.12,0,.17,0,.24a1.5,1.5,0,0,1-.25,2.3c-.11.09-.19.07-.22-.07s0-.19-.08-.28-.17-.35-.4-.32a.4.4,0,0,0-.39.35c0,.35-.23.28-.44.19a3.38,3.38,0,0,1-2.07-4.22c.08-.27,0-.41-.24-.63,0,.58-.08,1.12-.12,1.66a38.56,38.56,0,0,1-.48,4.55,6.57,6.57,0,0,1-2.47,3.81,18.71,18.71,0,0,1-5.37,2.93.39.39,0,0,1-.32,0,25.35,25.35,0,0,1-5.3-3.32,6.27,6.27,0,0,1-2-4c-.24-1.59-.28-3.19-.38-4.79,0-.3,0-.61-.06-.94a.94.94,0,0,0-.21,1,3.7,3.7,0,0,1-.7,3.1c-.35.55-1,.67-1.58.94a.17.17,0,0,1-.26-.16.41.41,0,0,0-.47-.42c-.26,0-.32.23-.39.44s0,.22-.09.26-.19-.09-.27-.16a1.62,1.62,0,0,1-.54-1.51,1.41,1.41,0,0,1,.52-.78,1,1,0,0,1-.09-1.3A1.19,1.19,0,0,1,54,60.3c0,.23-.25.48,0,.68a.73.73,0,0,0,.7.14c.19-.07.27-.18.17-.37a2.37,2.37,0,0,0-1.19-1.28.49.49,0,0,1-.28-.3A2.36,2.36,0,0,0,52.71,58a2.56,2.56,0,0,0,.17.78,2.3,2.3,0,0,1-.4,1.73c-.07.13-.15.23-.27,0-.24-.44-.45-.51-.83-.33s-.4.36-.22.84l0,.11a1.27,1.27,0,0,1-1.14-1.72c-.85,0-1-.52-1.14-1.74.19,0,.28.19.43.26s.36,0,.39-.2a1.68,1.68,0,0,0-.16-.91,8.43,8.43,0,0,1-.63-2.56,5,5,0,0,1,0-.67,3.2,3.2,0,0,0-.13-1.52,2.52,2.52,0,0,1,.73-2.46,2.76,2.76,0,0,1,2-.91c.15,0,.31,0,.43-.1l-1.08-.4A2.8,2.8,0,0,1,49,45.46,3,3,0,0,1,49.75,43a.68.68,0,0,0,.19-.55,2.73,2.73,0,0,1,.12-1.06A1.91,1.91,0,0,1,51,40.25a25.83,25.83,0,0,0,3.08-1.73c.13-.09.39-.14.3-.36a.48.48,0,0,0-.47-.32.36.36,0,0,0-.38.33c0,.24-.16.21-.32.15a1,1,0,0,1-.58-1.25.4.4,0,0,0-.09-.49,1.23,1.23,0,0,1-.19-1.33c.07-.18.2-.38.38-.08s.33.33.59.16a.54.54,0,0,0,.21-.74c0-.1-.21-.18-.11-.32s.25-.06.38,0a3.48,3.48,0,0,1,2.69,2.83,2.37,2.37,0,0,1-.06,1.68c-.06.13,0,.21.09.3a1,1,0,0,1-.11,1.35,3.84,3.84,0,0,1-2.13,1.24c.85.46,1.76.87,1.53,2.09a.52.52,0,0,0-.75,0,.66.66,0,0,0,.09.88c.26.17.14.29,0,.44a.78.78,0,0,1-1.05,0c-.22-.18-.34-.2-.57,0-.42.36-.7.34-1.18,0,0-.09.06-.1.1-.13a.41.41,0,0,0,.17-.46.47.47,0,0,0-.38-.32.67.67,0,0,0-.71.21c-.14.18.06.35.14.5a2,2,0,0,0,1.94,1,.76.76,0,0,0,.58-.3c.08-.11.19-.17.25,0a1.5,1.5,0,0,0,.77.83,3.48,3.48,0,0,0,1.52.16,2.89,2.89,0,0,1-1.15-2c-.05-.28,0-.37.3-.25s.46.2.61,0a.69.69,0,0,0-.06-.84c-.28-.29-.09-.38.14-.47a1.29,1.29,0,0,1,1.33.21c.14.11.24.17.41,0a.72.72,0,0,1,.68-.08,2.42,2.42,0,0,1,1.18.85c-.26,0-.48-.17-.68,0s-.3.28-.22.49a.56.56,0,0,0,.54.39,1.3,1.3,0,0,0,.72-.27c.47-.28.82-.73,1.32-1-.41-.33-.31-.78-.24-1.17s.44-.54.86-.62a1.1,1.1,0,0,1-.58-1,1,1,0,0,1,.26-.77,3.39,3.39,0,0,0,0,.35c.08.4.25.53.61.48a.65.65,0,0,0,.6-.68c0-.11-.07-.15-.14-.21-.27-.19-.27-.42,0-.61a.36.36,0,0,0,.09-.49c-.14-.28-.26-.6-.61-.65a.6.6,0,0,0-.63.31A1.77,1.77,0,0,0,62,39a2.34,2.34,0,0,1-.65,1.23.74.74,0,0,1-.61.23c-.17,0-.27-.11-.2-.27a2.16,2.16,0,0,0-.34-2,3.37,3.37,0,0,1-.45-1.29,2.13,2.13,0,0,1,.2-1.27,1.45,1.45,0,0,1,1.51-.93,3.6,3.6,0,0,1,2.18.69.88.88,0,0,0-.13-.55,3.67,3.67,0,0,1-.32-1,1,1,0,0,1,.46-1.15,3.72,3.72,0,0,0,1.09-1.3c.13-.2.25-.4.38-.59h.08a4.14,4.14,0,0,0,1.46,1.75,1.6,1.6,0,0,1,.53.62,1,1,0,0,1-.07,1.16,3,3,0,0,0-.48,1,4,4,0,0,1,2.5-.6,1,1,0,0,1,.76.42,2.31,2.31,0,0,1,.37,2.48c-.13.35-.33.67-.49,1a1.8,1.8,0,0,0-.12,1.55c.08.19,0,.27-.19.3a.69.69,0,0,1-.61-.22,2.4,2.4,0,0,1-.65-1.2,2.44,2.44,0,0,0-.14-.46.64.64,0,0,0-.76-.31c-.2.06-.58.6-.53.77s.1.1.14.16.19.43,0,.59-.14.53,0,.77.41.34.69.32.37-.25.41-.49,0-.18.1-.23a1.08,1.08,0,0,1,0,1.32c-.2.21-.1.32.1.3s.4.16.48.37a1.35,1.35,0,0,1-.09,1.19c0,.08-.13.15,0,.25a6.48,6.48,0,0,0,1.36,1,.52.52,0,0,0,.4,0c.21-.07.44-.18.38-.42s-.19-.48-.52-.4l-.26.05a1.49,1.49,0,0,1,1.91-.72c.17.07.23,0,.31-.11a1.32,1.32,0,0,1,1.37-.19c.22.09.35.21.11.43a.62.62,0,0,0-.15.45c0,.46.15.62.6.49s.47-.1.37.37a2.81,2.81,0,0,1-1.1,1.89c.69,0,1.43.08,1.92-.49.32-.36.47-.55,1-.28.76.39,2.09-.43,2.27-1.26,0-.05,0-.11,0-.14a.7.7,0,0,0-.59-.26.53.53,0,0,0-.53.34c-.09.22,0,.35.2.47l.09.06c-.45.4-.69.43-1.16.06-.23-.18-.37-.23-.63,0A.73.73,0,0,1,74.71,45c-.09-.13-.16-.23,0-.36a.68.68,0,0,0,.14-.87c-.24-.28-.52-.22-.79,0-.09-.94,0-1.08,1.48-2.09a4.29,4.29,0,0,1-2-1.11,1,1,0,0,1-.2-1.52.29.29,0,0,0,0-.31c-.45-.87.17-2.89,1-3.56a3.18,3.18,0,0,1,1.75-.92c.09,0,.19-.09.27,0s0,.2-.06.29a.49.49,0,0,0,.07.7c.27.27.44.25.67,0s.3-.22.41.06a1.24,1.24,0,0,1-.21,1.36.33.33,0,0,0-.08.41,1,1,0,0,1-.53,1.28c-.18.08-.33.13-.36-.16a.34.34,0,0,0-.37-.3.53.53,0,0,0-.47.31c-.1.16.07.19.15.24a24.71,24.71,0,0,0,2.38,1.4,4.75,4.75,0,0,0,.59.31A2.24,2.24,0,0,1,80,42.43a.72.72,0,0,0,.17.51,3.55,3.55,0,0,1,.53,3.61,2.37,2.37,0,0,1-1.28,1.39c-.48.25-1,.41-1.5.65l.9.1a3,3,0,0,1,2.41,3.18.65.65,0,0,1-.06.21c-.35.39-.19.82-.15,1.26a6.49,6.49,0,0,1-.45,2.95,4.21,4.21,0,0,0-.33,1.15c0,.16,0,.35.14.44s.3,0,.43-.14l.33-.26c-.08.41-.11.76-.21,1.09-.18.59-.36.71-1,.75a1.33,1.33,0,0,1-1.14,1.78c.14-.43.29-.87-.3-1-.37-.11-.5,0-.83.56a2.35,2.35,0,0,1-.38-2.57s0-.07,0-.11S77.27,58,77.24,58Zm.55-9.87A.24.24,0,0,0,78,48c.13,0,.1-.13.11-.22a1.62,1.62,0,0,0,.61-.58c0-.09.17-.14.05-.25a.78.78,0,0,0,.33-.53c.08-.07,0-.11,0-.14.24-.26,0-.55.06-.82,0,0-.07,0-.12,0v-.13c0-.08.1-.26-.13-.24l0-.06c.08-.17,0-.27-.15-.36l-.23.4a2.11,2.11,0,0,1-2.64.87c-.18-.07-.22,0-.29.13a1.59,1.59,0,0,1-1,.65,4.51,4.51,0,0,1-2.74-.19v-.07c1.8,0,2-.65,2.27-1.6.06-.22,0-.28-.21-.27-.54,0-.71-.15-.72-.69a1.29,1.29,0,0,1,.12-.58c0-.09.05-.15-.06-.21a1.05,1.05,0,0,0-1.1.37c-.11.29-.25.17-.37.08-.47-.33-.65-.33-1.16,0,.56.29.79.63.73,1.08s-.54.56-.9.72c-.09,0-.23,0-.24.18s-.23-.05-.35-.07-.14,0-.16,0,.05.12.08.18h-.1c-.23.1-.16.23,0,.36l-.06,0c-.25,0-.13.13-.11.24l0,.08c-.2.08-.15.18,0,.3l0,.05c-.29.06-.08.16,0,.25l0,.06c-.2-.06-.12.1-.14.18l-.08.15c0,.09,0,.18.07.24l-.06.06c-.12,0-.08.13-.07.22l0,.1c-.13.24.11.29.21.41H69l-.13,0s0,.07,0,.09.06.1.12,0h0s0,.05,0,.06a3.61,3.61,0,0,0,1.5,1.18c.52.19.9,0,1.18-.55.05-.1.12-.22.28-.08a1.14,1.14,0,0,1,.3,1.29.94.94,0,0,0-.06.88,1.07,1.07,0,0,1-.56,1.28.48.48,0,0,0,.45.2c.38-.06.54-.39.74-.67.39.6.8.71,1.29.34-.2-.2-.53-.37-.33-.73s.55-.32.9-.18c0-.86-.61-1.17-1.12-1.61a5.7,5.7,0,0,1,2.31,1.27c.08.09.1.16.25.1a1.57,1.57,0,0,1,2,.61,6.88,6.88,0,0,1,1.54,3.39c.09.7.15,1.4.24,2.11a.73.73,0,0,0,.27.63,2.62,2.62,0,0,1-.19-.78.14.14,0,0,0,.13-.16c.09-.29.19-.58.29-.87a5.5,5.5,0,0,0,.22-3.83c.13,0,.16-.11.16-.23.35-.06.29-.35.3-.57a2.73,2.73,0,0,0-2.41-2.71,11.73,11.73,0,0,1-2-.29c.43-.14.82-.15,1.06-.45h0c.08,0,.13,0,.15-.08Zm-25.6.07h0a.11.11,0,0,0,.15.08h0a1.92,1.92,0,0,0,1.13.42,8.92,8.92,0,0,1-1.62.26A2.67,2.67,0,0,0,49,51.14a1,1,0,0,0,.18,1.14h.11c0,.09-.07.2.11.12l0,.12a2.36,2.36,0,0,0-.24.81A8.68,8.68,0,0,0,50,57.16c0,.07,0,0,.06,0s0-.08,0-.11h.07a2.74,2.74,0,0,1-.23,1.12h-.09l0,0,.07,0c.22-.06.23-.27.27-.44s.06-.43.08-.65l0-.18a12.53,12.53,0,0,1,.15-1.49,6.81,6.81,0,0,1,1.72-3.61,1.45,1.45,0,0,1,1.75-.44c.08,0,.16.07.23,0A4.85,4.85,0,0,1,56,50.14c.12-.06.25-.16.42-.09-1.07,1-1.1,1-1,1.54.31-.13.62-.16.82.16s-.11.57-.35.79a1.09,1.09,0,0,0,.76.16c.29-.05.41-.32.57-.52.53.74.81.83,1.18.43a1.06,1.06,0,0,1-.4-1.56.21.21,0,0,0,0-.3A1,1,0,0,1,58,49.24c.14-.15.24-.15.33,0a.85.85,0,0,0,1.16.52,3.25,3.25,0,0,0,1.6-1.31l0-.06,0,0-.14,0,0-.06c.06-.11.36-.15.11-.36V48c0-.09.21-.21-.06-.24l0-.06c.09-.08.18-.17,0-.29l0-.1c0-.11,0-.21-.12-.22v-.28l-.13-.08c.14-.23-.14-.39-.1-.6l-.14-.07c.1-.13.16-.25-.06-.33l0,0c0-.08.19-.22-.07-.19s-.23.11-.36.06h0c-.2-.2-.5-.19-.73-.31a.71.71,0,0,1-.4-1,1,1,0,0,1,.68-.63c-.53-.39-.73-.4-1.17,0-.14.13-.19.07-.29,0a1.11,1.11,0,0,0-1-.44c-.19,0-.3,0-.2.32.32.82,0,1.29-.81,1.17l-.08,0c.06.2.13.39.19.59a1.54,1.54,0,0,0,1.25,1.18,8.48,8.48,0,0,0,1,.05v0a4.68,4.68,0,0,1-2.84.24,1.15,1.15,0,0,1-.67-.3,1,1,0,0,0-1.07-.35A2,2,0,0,1,51.43,45l-.16-.26c-.18.12-.24.25-.1.43l0,0c-.17-.12-.21,0-.21.14l-.08.14a.47.47,0,0,0,0,.31v.1c-.21.23.09.38.09.57l-.05.06h.05c-.06.27.14.38.29.53-.05.09-.13.2.07.22,0,0,0,.09.08.08h0c0,.31.32.37.52.52,0,.09,0,.2.11.22S52.1,48.19,52.19,48.17Zm9.48-2.24v0l-.06,0h-.07c0-.22-.24-.25-.39-.34s-.06.09-.13.1a.35.35,0,0,0-.37-.26,1.49,1.49,0,0,0,.07.25,15.91,15.91,0,0,1,.85,4,1,1,0,0,0,.67.91A7.6,7.6,0,0,1,64,51.67a2.73,2.73,0,0,0,.91.53c0-1.3,0-2.55,0-3.81a.9.9,0,0,0-.58-1,8.51,8.51,0,0,0-1.23-.65h0a2.87,2.87,0,0,0-1-.62L62,46.07a.3.3,0,0,0-.31-.15ZM75.2,62.27h0l0,.09s-.06,0-.06,0a4.68,4.68,0,0,0,.42,1.6c.08.17.21.14.29,0a.7.7,0,0,1,.55-.4c.4-.06.57.23.74.5.7-.67.59-1.38-.29-2L77,61.9a.83.83,0,0,0-.36-1.4c-.15,0-.28-.06-.28.19a.63.63,0,0,1-.48.59,1.06,1.06,0,0,1-.87,0,1.56,1.56,0,0,0,.11.94A.1.1,0,0,0,75.2,62.27ZM69.43,51.08c0-.28-.25-.22-.36-.3s-.35-.3-.61-.22c0-.07,0-.15-.08-.17s-.06,0-.07.09-.3.12-.39.27c-.16-.07-.28.06-.41.11a9.36,9.36,0,0,0-1.8,1.19,1.1,1.1,0,0,1-1.53,0,17.61,17.61,0,0,0-1.84-1.2,1.28,1.28,0,0,0-1.68.1l0,0c-.19.08-.18.16,0,.29a4.49,4.49,0,0,1,.88.86.6.6,0,0,0,.64.32c.15,0,.23.07.31.16.42.44.85.87,1.28,1.31a.41.41,0,0,0,.45.16,2.33,2.33,0,0,1,1.54.07c.1,0,.19.1.3,0a11.74,11.74,0,0,0,1.53-1.46.29.29,0,0,1,.26-.15c.72,0,1-.6,1.34-1l.32-.23s.13,0,.11-.09S69.47,51.1,69.43,51.08Zm-5.91-8,0,0c0,.08-.08.17.07.21a.5.5,0,0,0,.7-.44,6,6,0,0,0,0-.74c0-.12,0-.28-.17-.21-.32.17-.59-.07-.88,0a.19.19,0,0,1,.22-.09c.38.09.5-.16.57-.43a8.54,8.54,0,0,0,.17-1c0-.11.06-.3-.14-.27s-.47-.19-.54.19-.17.63-.55.72a.81.81,0,0,1-.91-.21c0,.56.47,1,1.18,1.07-.27.46,0,1-.35,1.48C63.28,43.46,63.4,43.26,63.52,43.08Zm3.57-1,.1-.07c.18-.13.36-.26.53-.41a.63.63,0,0,0,.26-.7.61.61,0,0,1-.55.29c-.59,0-.86-.21-.9-.8,0-.4-.28-.23-.47-.25s-.24.15-.23.33a3.93,3.93,0,0,0,.24,1.17v.13h-.15a10.71,10.71,0,0,1-.34-1.59,4.45,4.45,0,0,0,.27,1.66c-.14.41,0,.87-.21,1.26,0,.06,0,.15.08.13s.47.16.63-.14l0,0c0,.34.28.18.44.21s.24-.13.25-.29C67.08,42.7,67.08,42.37,67.09,42.05Zm9.72-6,0,.05c-.31.3-.72.19-1.09.26-.89.19-1.19.64-.72,1.45.09.14.16.22.33,0,.45-.44.78-.43,1.19,0,.09.1.12.07.2,0A.7.7,0,0,0,77,37c-.18-.2-.1-.3.06-.45a.92.92,0,0,0,.29-1.14.6.6,0,0,1-.82.14.84.84,0,0,1-.46-.83c0-.07.09-.15,0-.2s-.16,0-.22.1l-.67.8a1.43,1.43,0,0,0-.3,1.12,3.18,3.18,0,0,1,1.12-.28A2.6,2.6,0,0,0,76.81,36.05ZM54.87,62.36h-.1c.32-.29.26-.66.23-1-.86.22-1.3,0-1.37-.81a1,1,0,0,0-.87.69c-.15.37.06.58.3.8s0,.23-.11.3a1.09,1.09,0,0,0-.23,1.62c.11.14.17.21.31,0a.64.64,0,0,1,1.16.07c.15.26.25.15.32,0a4.5,4.5,0,0,0,.26-.81C54.83,62.9,55,62.64,54.87,62.36ZM65.12,44.07l-.14,0a1.68,1.68,0,0,0-1.65.67.87.87,0,0,0-.11-.09c-.2-.12-.16-.5-.43-.47a2.15,2.15,0,0,0-.64.29l-.16.09-1.32.66c.34.15.63.27.9.41,1.09.57,2.14,1.21,3.19,1.85a.51.51,0,0,0,.61,0c1-.58,1.95-1.15,2.93-1.7.31-.18.65-.32,1-.49l-1.8-.9-.2-.1c-.15-.1-.23-.06-.31.1a2,2,0,0,1-.54.59c.09-.48-.18-.62-.5-.71S65.4,44.13,65.12,44.07Zm1-5.24c0,.12-.12.29.1.34s.28-.05.33-.22a1.76,1.76,0,0,1,.09-.2c.24-.46.48-.62.86-.57a.83.83,0,0,1,.76.79,2.7,2.7,0,0,0,.41,1,.94.94,0,0,0,.47.41.26.26,0,0,0,.21,0c.09-.05,0-.13,0-.2a1.57,1.57,0,0,1,0-.91,6,6,0,0,1,.56-1.3,2.23,2.23,0,0,0-.11-2.52,1,1,0,0,0-.73-.46,4.34,4.34,0,0,0-1.79.24,1.45,1.45,0,0,0-1,1.14c-.06.38-.18.75-.24,1.12s-.12,1-.17,1.48c0,.07,0,.17.07.19s.12-.06.14-.14l0-.18ZM64,38.91c0,.1,0,.27.16.25s.08-.19.06-.28c-.09-.72-.18-1.43-.29-2.14A1.8,1.8,0,0,0,62.31,35c-.31-.07-.64-.08-1-.12a1.12,1.12,0,0,0-1.09.51,2,2,0,0,0-.4,1.14,3,3,0,0,0,.45,1.59,2.41,2.41,0,0,1,.39,2c0,.06,0,.14,0,.17a.25.25,0,0,0,.25,0,1.82,1.82,0,0,0,.63-.77,6.36,6.36,0,0,0,.25-.85.8.8,0,0,1,.71-.57.7.7,0,0,1,.74.39,4.66,4.66,0,0,1,.25.5c0,.14.11.24.29.22s.09-.19.12-.29Zm1,.23c.32.08.47,0,.5-.36s.19-1,.27-1.47a8,8,0,0,1,1-2.83c.4-.67.4-1-.13-1.55a2.38,2.38,0,0,0-.45-.39,2.82,2.82,0,0,1-1-1.19c0-.06,0-.12-.14-.12a6.12,6.12,0,0,1-1.6,1.88c-.13.09-.14.25-.16.4a2.06,2.06,0,0,0,.21,1,5.81,5.81,0,0,1,.33.91,28.5,28.5,0,0,1,.68,3.43c0,.26.09.49.43.27ZM59.82,54.29H58.29c-.43,0-.87,0-1.31,0a.6.6,0,0,0-.5.28c-.1.14.09.25.18.36a1.49,1.49,0,0,1,.3.75c.23,1.3.2,2.62.3,3.93.12,1.74.15,3.48.37,5.21A6.06,6.06,0,0,0,59.78,69a26.06,26.06,0,0,0,4.75,2.93.45.45,0,0,0,.42,0,19.2,19.2,0,0,0,4.62-2.47,6.41,6.41,0,0,0,2.78-4.61c.31-2.8.5-5.62.59-8.44a2.61,2.61,0,0,1,.49-1.53c.19-.26.14-.41-.17-.5H67.85a1,1,0,0,0-.83.32c-.23.24-.52.42-.76.66a.37.37,0,0,1-.51.08,1.32,1.32,0,0,0-1.51,0c-.15.11-.25,0-.36-.06-.29-.27-.59-.53-.88-.81a.6.6,0,0,0-.49-.19Zm1.52-4.77c-.22.22-.4.43-.6.61a6.32,6.32,0,0,1-1.81,1.1.7.7,0,0,0-.47.61c0,.25-.1.52.28.62.16,0,0,.16,0,.23a.85.85,0,0,1-1.33.13c-.1-.09-.16-.2-.36-.06a1.21,1.21,0,0,1-1.64-.3c.18-.1.36-.19.52-.29s.18-.15.09-.28a.27.27,0,0,0-.35-.12c-.07,0-.12.09-.18.14s-.15.16-.25.12-.11-.18-.12-.29a3.17,3.17,0,0,1,.08-.94c-.4.26-.8.38-.91.85-.05.21-.16.15-.3.05a1.14,1.14,0,0,0-1.36,0,3,3,0,0,0-1,1.24c-.07.14-.22.26,0,.42a.39.39,0,0,0,.54,0,1,1,0,0,0,.44-1c0-.13,0-.19.1-.25a.92.92,0,0,1,1.26.45c.09.26.17.22.36.14a.66.66,0,0,1,.81.17,2.89,2.89,0,0,1,.46.64c.1.19.15.32-.17.34s-.48.22-.36.59a.6.6,0,0,0,.36.45c.3.09.19.21,0,.35a1.94,1.94,0,0,1-1.06.58,14.83,14.83,0,0,1,1.36,1,3.62,3.62,0,0,1,.95,1.31c-.09-1.19.17-2.45-.8-3.41-.14-.14-.07-.22,0-.33a1.91,1.91,0,0,1,1.48-.54c.73.06,1.47,0,2.2,0h1.2c-.34-.56-.63-1-.94-1.52a1.38,1.38,0,0,1-.17-1c0-.16.08-.32.25-.32a2.15,2.15,0,0,0,1-.44C61.54,50.25,61.53,50.24,61.34,49.52Zm7.87,4.31c1.2,0,2.33,0,3.46,0a2.18,2.18,0,0,1,1.44.44c.26.19.32.3,0,.5a1.73,1.73,0,0,0-.67,1.05,9.91,9.91,0,0,0-.06,2,5.57,5.57,0,0,1,2.2-2.07,2.21,2.21,0,0,1-.93-.47c-.31-.25-.31-.28,0-.5a.81.81,0,0,0,.33-.68c0-.18-.13-.25-.28-.31-.42-.15-.43-.17-.17-.58l.22-.3c.33-.38.51-.45,1-.26.19.07.23,0,.3-.14A.87.87,0,0,1,77.24,52c.18,0,.27.08.2.32a1,1,0,0,0,.51,1,.41.41,0,0,0,.48-.06c.16-.15.06-.27,0-.4a3.89,3.89,0,0,0-.71-1A1.29,1.29,0,0,0,76,51.68c-.13.08-.22.08-.25-.06-.1-.49-.52-.61-.91-.86,0,.26.07.47.08.68s0,.42-.11.52-.26-.12-.38-.21a.28.28,0,0,0-.4.07c-.14.15,0,.25.1.33a1.78,1.78,0,0,0,.36.19c.13,0,.16.09.06.21a1.34,1.34,0,0,1-1.52.22.27.27,0,0,0-.42,0,.78.78,0,0,1-1.17,0c-.18-.15-.42-.33,0-.45,0,0,.07-.05.09-.1a.93.93,0,0,0-.4-1,6.45,6.45,0,0,1-2.57-1.82c0,.32-.27.59.08.81a6.35,6.35,0,0,0,1.24.74c.48.16.49.45.47.83a1.21,1.21,0,0,1-.19.59C69.9,52.88,69.55,53.3,69.21,53.83ZM53.27,38.05c.38-.59.75-.63,1.26-.15.08.08.13.18.26.05a.87.87,0,0,0-.13-1.37.85.85,0,0,0-.41-.15l-.92-.11c-.16,0-.31-.08-.33-.33a.91.91,0,0,0,.52.24c.37.08.75,0,1.11.15.53.16.53.15.41-.39a.35.35,0,0,0,0-.11,2.47,2.47,0,0,0-1.15-1.37,1,1,0,0,1-.39,1,.67.67,0,0,1-.89-.1,1,1,0,0,0,.34,1.15c.1.1.21.16.11.34C52.72,37.46,52.78,37.71,53.27,38.05Zm8,15.71-.39-.59c-.27-.41-.54-.83-.8-1.26-.08-.13-.18-.33,0-.44s.32,0,.44.15c.26.32.53.63.78,1s.32.39.63.31.29.09.41.2l1.48,1.42c.08.09.16.18.31.08a1.54,1.54,0,0,1,1.66,0,.32.32,0,0,0,.43-.07,16.44,16.44,0,0,0,1.57-1.44c.07-.08.15-.17.28-.14.36.09.56-.11.75-.38a7.51,7.51,0,0,1,.61-.76c.15-.16.3-.48.55-.29s0,.42-.11.61c-.3.47-.62.92-.93,1.39-.06.09-.2.19-.11.28s.21,0,.28-.14a8.79,8.79,0,0,0,1-1.5.77.77,0,0,0,.11-.46c0-.16.06-.35-.11-.45s-.37,0-.51.14c-.32.3-.62.61-.92.92s-.41.44-.76.37a.22.22,0,0,0-.22.1,14.29,14.29,0,0,1-1.49,1.42.43.43,0,0,1-.52.11,1.91,1.91,0,0,0-1.52-.05.35.35,0,0,1-.4-.09,15.83,15.83,0,0,1-1.28-1.31.66.66,0,0,0-.57-.27.52.52,0,0,1-.46-.26,5.46,5.46,0,0,0-1.11-1.09c-.24-.19-.46-.08-.49.23a1,1,0,0,0,.09.58,12.52,12.52,0,0,0,1,1.63C61,53.8,61.13,53.86,61.28,53.76ZM70.8,44.2a.75.75,0,0,1-1.11.62A5.09,5.09,0,0,1,68.54,44a1.11,1.11,0,0,0-.5-.31,16.57,16.57,0,0,0-2.51-.32c-.2,0-.34,0-.38.27s.15.3.32.33a1.67,1.67,0,0,1,1,.36c.22.24.35.11.38-.08.06-.38.24-.27.45-.17.64.31,1.29.6,1.91.94A1.48,1.48,0,0,0,70.69,45C71.08,44.79,71.12,44.56,70.8,44.2ZM65,40.88c0-.16,0-.32,0-.48s0-.28-.17-.29-.3.06-.32.26-.13.65-.16,1c0,.14-.15.33,0,.45s.19-.16.32-.18l0,0c.37,0,.29-.22.29-.43Zm.62.84c-.07-.5-.13-1-.19-1.47a.16.16,0,0,0-.18-.14c-.11,0-.16.06-.16.16s0,.42,0,.63C65,41.29,65,41.65,65.57,41.72Zm14.65,16.4h0a0,0,0,0,0,0,0h0Z"/><path class="cls-1" d="M61.65,46.84c.26.19.6.22.88.49-.34,0-.56-.24-.86-.29,0,.54.62.38.82.76l-.69-.26c.12.33.48.27.61.54-.24,0-.4-.2-.62-.17,0,0-.14-.15-.18-.24-.1-.27-.11-.55-.22-.83A3.71,3.71,0,0,1,61,45.69c.07,0,0-.14.13-.1.06.33.08.35.39.34h.14v.16s-.14,0-.1.09.16.06.25,0,.17,0,.17-.1l.13.06c0,.09,0,.18.09.22a5.91,5.91,0,0,0,.89.4h0c-.07.2-.19.11-.29,0-.31-.21-.7-.25-1-.46.11.49.67.42,1,.77-.4,0-.65-.4-1-.3,0-.06,0-.15-.1-.17s-.08,0-.08,0A.14.14,0,0,0,61.65,46.84Z"/><path class="cls-1" d="M68.82,51.44l0-.14c.11-.13.07-.28.06-.45-.11.14-.19.29-.39.23s-.29.14-.33-.14c0-.12-.18,0-.27,0l-.06-.07s.1-.08.07-.16.28-.16.39-.27h0v.15l-.09.09,0,0,0-.12a.15.15,0,0,0,.15-.07h0c.26-.08.45.12.61.22s.41,0,.36.3h0l-.16,0,.16.11h0l-.32.23-.25,0Z"/><path class="cls-1" d="M50,57.06a8.2,8.2,0,0,1,.9-4.35,1.49,1.49,0,0,1,.4-.54c.05.17-.09.26-.16.36a7.17,7.17,0,0,0-1,4.24s0,.08.06.13l0,.18-.12,0H50Z"/><path class="cls-1" d="M79.91,57.28c-.13-.67-.08-1.34-.15-2A6.47,6.47,0,0,0,79,52.81c0-.07-.12-.14,0-.27a5.09,5.09,0,0,1,.7,1.54,11.92,11.92,0,0,1,.3,2.66c0,.13,0,.27.08.38A.14.14,0,0,1,79.91,57.28Z"/><path class="cls-1" d="M65.09,35.32c0,1.27,0,2.55,0,3.82H65c0-1.14,0-2.27,0-3.41a.79.79,0,0,1,0-.4Z"/><path class="cls-1" d="M68.92,47.94a19.71,19.71,0,0,0,2.4,1.28A8.24,8.24,0,0,1,68.9,48Z"/><path class="cls-1" d="M65.12,44.07l0,2s-.09,0-.12,0c0-.65,0-1.31,0-2Z"/><path class="cls-1" d="M67,37.06a4.88,4.88,0,0,0-.83,1.77h-.07A3,3,0,0,1,66.93,37Z"/><path class="cls-1" d="M78.71,47.22a10.12,10.12,0,0,0-.93.47,1.14,1.14,0,0,1-.61.12A5.91,5.91,0,0,0,78.76,47C78.88,47.08,78.71,47.13,78.71,47.22Z"/><path class="cls-1" d="M64,38.91a5.47,5.47,0,0,0-.71-1.75l.07-.06A3.41,3.41,0,0,1,64,38.91Z"/><path class="cls-1" d="M51.21,47.05a5.76,5.76,0,0,0,1.56.8c-.55,0-.94-.35-1.41-.5h0c0-.06,0-.08-.08-.08C51.08,47.25,51.16,47.14,51.21,47.05Z"/><path class="cls-1" d="M66.32,41.85c0-.19-.17-.07-.25-.11v-.13a1.63,1.63,0,0,1,1.12.37l-.1.07c-.23-.1-.23-.1-.47.12-.05-.06,0-.11,0-.16l.1-.15c-.14-.1-.24,0-.34,0Z"/><path class="cls-1" d="M76.86,62.78c-.36-.27-.81-.18-1.21-.25a.74.74,0,0,1-.47-.18l0-.09a1.67,1.67,0,0,0,.79.18,1.27,1.27,0,0,1,.93.27Z"/><path class="cls-1" d="M54.87,62.36a.53.53,0,0,1-.45.21,3.68,3.68,0,0,0-1.27.21.77.77,0,0,1,.67-.28,2.53,2.53,0,0,0,1-.15Z"/><path class="cls-1" d="M51.88,47.87a7.74,7.74,0,0,0,1.3.46c-.3.1-.56-.11-.85-.09h0c0-.1-.09-.08-.15-.08h0c0-.09-.12-.07-.2-.08S51.89,48,51.88,47.87Z"/><path class="cls-1" d="M77.65,48.17c-.29,0-.55.2-.87.11a7.71,7.71,0,0,0,1.32-.48c0,.09,0,.19-.11.22s-.15,0-.2.08h0c-.06,0-.13,0-.15.08Z"/><path class="cls-1" d="M61.53,45.93c-.31,0-.33,0-.39-.34C61.29,45.68,61.49,45.71,61.53,45.93Z"/><path class="cls-1" d="M69.11,48.45a1.76,1.76,0,0,1,.57.35c-.31,0-.46-.24-.7-.26h0v-.09Z"/><path class="cls-1" d="M50.84,45.78l.49.49-.06,0a1.16,1.16,0,0,1-.44-.44Z"/><path class="cls-1" d="M69.06,47.27l.54.36-.06.06c-.2,0-.33-.25-.56-.27Z"/><path class="cls-1" d="M78.65,46.63a1.41,1.41,0,0,1,.4-.33c.07,0,.12.07,0,.14l-.38.25Z"/><path class="cls-1" d="M62,46.07c0,.14-.07.14-.17.1l-.15-.09v-.16A.3.3,0,0,1,62,46.07Z"/><path class="cls-1" d="M60.92,47.41a1.35,1.35,0,0,1-.51.25,1.13,1.13,0,0,1,.48-.35Z"/><path class="cls-1" d="M49.69,52.09c-.09.14-.17.29-.25.43l0-.12c0-.12.16-.21.08-.35h0c.06.05.09,0,.13,0Z"/><path class="cls-1" d="M69.94,46a.86.86,0,0,1-.36-.32h.1A.83.83,0,0,1,70,46Z"/><path class="cls-1" d="M49.5,52.05c.08.14-.09.23-.08.35-.18.08-.14,0-.11-.12a.16.16,0,0,0,0-.16h0Z"/><path class="cls-1" d="M61,48.09c-.08.07-.16.17-.31.13A.44.44,0,0,1,61,48Z"/><path class="cls-1" d="M78.75,45.61a.83.83,0,0,1,.24-.29v.13l-.18.23Z"/><path class="cls-1" d="M50.92,45.33c.06.06.18.13.12.22s-.12-.09-.2-.08Z"/><path class="cls-1" d="M69.43,51.08s.11,0,.12.06-.06.08-.11.09h0v-.14Z"/><path class="cls-1" d="M68.31,50.48s0-.11.07-.09.08.1.08.17h0l-.15-.08Z"/><path class="cls-1" d="M49.35,52.12a.16.16,0,0,1,0,.16H49.2C49.24,52.22,49.23,52.11,49.35,52.12Z"/><path class="cls-1" d="M69.05,47.66s.14.05.08.11-.1,0-.14-.05Z"/><path class="cls-1" d="M60.61,47.11l.17-.13v.11l-.11.08Z"/><path class="cls-1" d="M60.78,46.81l-.19.06-.06-.07.12-.07Z"/><path class="cls-1" d="M52.18,48.17c.06,0,.14,0,.15.08A.11.11,0,0,1,52.18,48.17Z"/><path class="cls-1" d="M52,48.09c.08,0,.16,0,.2.08S52.05,48.14,52,48.09Z"/><path class="cls-1" d="M49.87,58.17l-.07,0,0,0h.09Z"/><path class="cls-1" d="M60.35,46.11l.06,0,.14.07-.14,0Z"/><path class="cls-1" d="M61.07,48.46l0,0a.14.14,0,0,1,0,.06Z"/><path class="cls-1" d="M51.28,47.27s.09,0,.08.08S51.28,47.32,51.28,47.27Z"/><path class="cls-1" d="M77.24,58s.07,0,.08,0,0,.08,0,.11Z"/><path class="cls-1" d="M80.22,58.12l0,0h0a0,0,0,0,1,0,0Z"/><path class="cls-1" d="M75.12,62.18l.08.09A.1.1,0,0,1,75.12,62.18Z"/><path class="cls-1" d="M71.67,46.45h.08v.07S71.66,46.51,71.67,46.45Z"/><path class="cls-1" d="M58.3,46.46h.08s0,.06-.08.06Z"/><path class="cls-1" d="M50.92,46.52h-.05l.05-.06h0v.08Z"/><path class="cls-1" d="M69.38,46.35l.06.07h-.09Z"/><path class="cls-1" d="M61.67,45.93H61.6l.06,0Z"/><path class="cls-1" d="M58.73,47.24a3.11,3.11,0,0,1-1.65.28,5.67,5.67,0,0,0,2.31-.75l0,.07c0,.06-.13.08-.1.2.14-.09.36,0,.39-.29h0c.28.09.4-.22.64-.24l0,.06a7,7,0,0,1-4,1.39,6.73,6.73,0,0,0,2.37-.64.71.71,0,0,0,.34-.2A.56.56,0,0,0,58.73,47.24Zm.51-.15,0,0,0,0,0,0Z"/><path class="cls-1" d="M51,50.14c.27-.17.51-.43.89-.27.08,0,.21,0,.32-.08a30.47,30.47,0,0,1,3.4-.79.24.24,0,0,1,.18,0,23.53,23.53,0,0,0-4.5,1.27l0-.06c0-.05.16-.17-.06-.09l-.13.06Z"/><path class="cls-1" d="M52.05,47.21a18.68,18.68,0,0,0,3.34.69A7.62,7.62,0,0,1,52.05,47.21Z"/><path class="cls-1" d="M60.39,48a4.66,4.66,0,0,1-2.2.88A12.63,12.63,0,0,0,60.39,48Z"/><path class="cls-1" d="M57.08,48.86a8.1,8.1,0,0,0,2.38-.75A3.82,3.82,0,0,1,57.08,48.86Z"/><path class="cls-1" d="M59.65,47.75a3.92,3.92,0,0,1-2.07.77A11,11,0,0,0,59.65,47.75Z"/><path class="cls-1" d="M59.34,47.51a4.14,4.14,0,0,1-2.05.68A13.68,13.68,0,0,0,59.34,47.51Z"/><path class="cls-1" d="M57.13,43.51a.67.67,0,0,1,.42.83,1.5,1.5,0,0,0,.06,1c-.24-.17-.22-.42-.21-.67S57.55,43.82,57.13,43.51Z"/><path class="cls-1" d="M59.3,46.54a2.24,2.24,0,0,1-1.56.5,5,5,0,0,0,1.5-.56Z"/><path class="cls-1" d="M57.08,50.79c-.22.44-.12,1-.44,1.39C56.82,51.72,56.73,51.18,57.08,50.79Z"/><path class="cls-1" d="M59.73,45.65a1.32,1.32,0,0,1-1.34-.1,2.12,2.12,0,0,0,1.34,0Z"/><path class="cls-1" d="M57.84,46c-.37-.12-.27-.37-.16-.63a1.34,1.34,0,0,1,.37.34L58,45.8c-.05,0-.12,0-.15,0s0,.1.06.15Z"/><path class="cls-1" d="M56.81,50.51a.76.76,0,0,1,.62-.6A3.9,3.9,0,0,0,56.81,50.51Z"/><path class="cls-1" d="M60.12,46.4c-.1.15-.33.16-.4.35h0c-.12,0-.19.08-.29.09l0-.07.67-.44Z"/><path class="cls-1" d="M51.9,51.69l-.49.46a.7.7,0,0,1,.44-.52Z"/><path class="cls-1" d="M59.48,47.4l.66-.38,0,.09a2.41,2.41,0,0,1-.65.36Z"/><path class="cls-1" d="M50.33,51.17l-.19.25-.07-.06s0-.11,0-.13-.1,0-.15.05l-.06-.06a.45.45,0,0,1,.2-.25l0,.05s0,.12,0,.14.1,0,.15,0Z"/><path class="cls-1" d="M60.34,48.43a1.71,1.71,0,0,1-.78.45A1.71,1.71,0,0,1,60.34,48.43Z"/><path class="cls-1" d="M59.26,49a1.16,1.16,0,0,1-.71.29A1.59,1.59,0,0,1,59.26,49Z"/><path class="cls-1" d="M55,50.43c.06-.22.24-.27.45-.26Z"/><path class="cls-1" d="M51.17,45.66l.38.38-.06.06a1,1,0,0,1-.37-.38Z"/><path class="cls-1" d="M59.24,46.48l.45-.3.05.07a1.09,1.09,0,0,1-.44.29Z"/><path class="cls-1" d="M60,47.92a.56.56,0,0,1,.44-.24A.63.63,0,0,1,60,47.92Z"/><path class="cls-1" d="M60.74,48.52c-.06.21-.22.25-.41.24Z"/><path class="cls-1" d="M52.69,47.11a.54.54,0,0,1-.49-.18A.71.71,0,0,1,52.69,47.11Z"/><path class="cls-1" d="M50.14,51.42l-.25.35-.07-.07c0-.08.13-.14,0-.25h0c.11.08.13-.07.2-.09Z"/><path class="cls-1" d="M49.5,52.05l-.15.08c-.05-.19.09-.3.17-.43l.06.06-.09.29Z"/><path class="cls-1" d="M51.63,46.93c.12.06.27.1.35.26a.54.54,0,0,1-.41-.2Z"/><path class="cls-1" d="M60.12,47.52a.61.61,0,0,1-.42.19c.09-.16.23-.19.36-.26Z"/><path class="cls-1" d="M60.81,47.81a.37.37,0,0,1-.37.19A.4.4,0,0,1,60.81,47.81Z"/><path class="cls-1" d="M54.53,50.59a.54.54,0,0,1,.37-.17.5.5,0,0,1-.31.23Z"/><path class="cls-1" d="M51.83,46.65a.6.6,0,0,1,.3.23c-.17,0-.26-.08-.36-.16Z"/><path class="cls-1" d="M60.06,47.45l.32-.2.06.07-.32.19Z"/><path class="cls-1" d="M60.59,46.87c-.11.07-.19.18-.37.16a.53.53,0,0,1,.31-.23Z"/><path class="cls-1" d="M60.29,48.45a.44.44,0,0,1,.39-.21C60.55,48.39,60.46,48.47,60.29,48.45Z"/><path class="cls-1" d="M51.77,46.72a.78.78,0,0,1-.3-.23l.06-.06.3.22Z"/><path class="cls-1" d="M49.61,51.57a.87.87,0,0,1,.25-.35l.06.06-.05.17h0c-.11,0-.12.13-.2.18Z"/><path class="cls-1" d="M51.16,46.58a.4.4,0,0,1,.22.22c-.15,0-.21-.08-.29-.16Z"/><path class="cls-1" d="M57.32,50.46c0,.15-.07.21-.22.29A.32.32,0,0,1,57.32,50.46Z"/><path class="cls-1" d="M51,50.21l-.29.22-.07-.06.31-.23Z"/><path class="cls-1" d="M57.54,50.18a.28.28,0,0,1-.17.26C57.32,50.29,57.42,50.24,57.54,50.18Z"/><path class="cls-1" d="M51.25,50.3l-.3.23-.05-.06a.62.62,0,0,1,.3-.23Z"/><path class="cls-1" d="M54.59,50.65l-.22.15-.07-.06.23-.15Z"/><path class="cls-1" d="M60.38,47.25l.23-.14,0,.06-.22.15Z"/><path class="cls-1" d="M54.37,50.8l-.23.15-.06-.06.22-.15Z"/><path class="cls-1" d="M54.14,51S54,51.12,54,51s.08-.1.13-.15Z"/><path class="cls-1" d="M49.89,51.77l-.15.22-.07-.06.15-.23Z"/><path class="cls-1" d="M59.92,46.11l-.18.14-.05-.07.17-.12Z"/><path class="cls-1" d="M51.82,46.23c0,.06,0,.07-.08.06a.27.27,0,0,1-.08-.07c0-.06,0-.06,0-.06Z"/><path class="cls-1" d="M60.06,46.33l.17-.12.06.06-.17.13Z"/><path class="cls-1" d="M60.06,45.89a.19.19,0,0,1,.15-.12s0,0,0,0a.19.19,0,0,1-.14.13Z"/><path class="cls-1" d="M52.31,51.42c-.07,0-.1.08-.15.09s-.08,0,0,0a.27.27,0,0,1,.08-.07Z"/><path class="cls-1" d="M52.39,51.26l.06,0s0,.06-.07.07a0,0,0,0,1-.06,0A.16.16,0,0,1,52.39,51.26Z"/><path class="cls-1" d="M51.85,51.63c.06,0,.11-.15.19-.06s-.07.1-.14.12Z"/><path class="cls-1" d="M51.57,47c-.07,0-.17-.08-.14-.12s.14,0,.2.06Z"/><path class="cls-1" d="M51.86,46.32c.06,0,.09,0,.12,0s0,.06,0,.08a.07.07,0,0,1-.06,0Z"/><path class="cls-1" d="M51.7,45.73s.14.05.08.12-.1,0-.13-.06Z"/><path class="cls-1" d="M59.73,45.65v-.08l.14,0h0C59.87,45.66,59.79,45.63,59.73,45.65Z"/><path class="cls-1" d="M50.29,50.82l-.11.13-.06-.06.11-.12Z"/><path class="cls-1" d="M50.91,46.53v-.08c.09-.07.12,0,.17.06l0,.07Z"/><path class="cls-1" d="M50.27,51.11l.11-.12.06,0-.11.13Z"/><path class="cls-1" d="M49.52,51.7l.09-.13.06.06-.09.13Z"/><path class="cls-1" d="M60.23,46.21l.12-.1.06.06-.12.1Z"/><path class="cls-1" d="M50.3,50.69s.08-.12.13-.06,0,.09-.08.13Z"/><path class="cls-1" d="M51.2,45.3l-.07-.11,0,0,.08.09Z"/><path class="cls-1" d="M51.25,45.37l0-.07,0-.06.06.07Z"/><path class="cls-1" d="M49.74,52l-.05.1L49.62,52l.05-.1Z"/><path class="cls-1" d="M51.31,45.31s.07.06,0,.1,0,0-.08,0Z"/><path class="cls-1" d="M60.93,47.76l-.09,0,0-.08Z"/><path class="cls-1" d="M51.42,45.57s-.05-.07,0-.08.08,0,.11,0Z"/><path class="cls-1" d="M51.5,45.64l-.08-.07.07,0,.06.07Z"/><path class="cls-1" d="M51.57,45.72l-.07-.08,0,0,.07.08Z"/><path class="cls-1" d="M51.65,45.79l-.08-.07,0,0,.08.06Z"/><path class="cls-1" d="M60.35,45.73l-.09.08s0,0,0,0l.1-.08Z"/><path class="cls-1" d="M59.4,49l0,0,0,0,0,0Z"/><path class="cls-1" d="M59.53,48.86h0v0l0,0Z"/><path class="cls-1" d="M60.93,48.51s-.07,0-.08,0,0-.06,0-.08Z"/><polygon class="cls-1" points="56.45 50 56.48 49.99 56.48 50.01 56.45 50"/><path class="cls-1" d="M50.72,50.43l-.09.07-.06,0,.08-.08Z"/><path class="cls-1" d="M59.53,47.47s-.07.05-.11,0l.06-.07Z"/><path class="cls-1" d="M50.63,50.5s-.05.08-.1,0,0-.05,0-.08Z"/><path class="cls-1" d="M51,50.53l-.07.07-.06-.06.08-.07Z"/><path class="cls-1" d="M50.74,50.61l.08-.07.06.06-.08.07Z"/><path class="cls-1" d="M50.8,50.67l-.07.08-.07-.07.08-.07Z"/><path class="cls-1" d="M50.35,50.76l-.06.06-.06,0,.07-.08Z"/><path class="cls-1" d="M50.59,50.75l.07-.07.07.07-.08.07Z"/><path class="cls-1" d="M50.52,50.83l.07-.08.06.07-.07.08Z"/><path class="cls-1" d="M50.45,50.91l.07-.08.06.07L50.5,51Z"/><path class="cls-1" d="M59.57,48.13l0,0,0,0,0,0Z"/><path class="cls-1" d="M50.06,51l.06-.08.06.06-.07.07Z"/><path class="cls-1" d="M50.5,51l-.06.07-.06,0,.07-.08Z"/><path class="cls-1" d="M51.08,46.51l.08.07-.07.06L51,46.58Z"/><path class="cls-1" d="M60.36,46.51s.06-.08.11,0,0,0-.06.08Z"/><path class="cls-1" d="M51.47,46.49s0-.07,0-.08.07,0,.1,0Z"/><path class="cls-1" d="M59.68,48h0v.05l0,0Z"/><path class="cls-1" d="M59.86,48v0l0,0,0,0S59.86,48,59.86,48Z"/><path class="cls-1" d="M51.33,46.27s.05.07,0,.07-.07,0-.1,0Z"/><path class="cls-1" d="M51.12,45.72s-.07-.06,0-.1l.07,0Z"/><path class="cls-1" d="M51.55,46s.05.07,0,.08-.07,0-.1,0Z"/><path class="cls-1" d="M59.86,46.06s.06-.08.1,0,0,.06,0,.08Z"/><path class="cls-1" d="M57.92,46.09,57.84,46,57.9,46,58,46Z"/><path class="cls-1" d="M60.12,45.94s-.06.08-.1,0,0,0,0-.08Z"/><path class="cls-1" d="M78.88,50.37a8.68,8.68,0,0,0-3-1c-.5-.12-1-.2-1.53-.3-.06,0-.13,0-.14-.13a19.07,19.07,0,0,1,2,.38c.57.13,1.12.33,1.69.41.28,0,.57,0,.82.15l.4.27-.06.06c-.08,0-.13-.14-.28,0l.18.13Z"/><path class="cls-1" d="M70.21,45.7a1.6,1.6,0,0,0,1.65,0l0,.07c-.23.25-.57.22-.92.33a1.5,1.5,0,0,0,.93-.1l.07.06s-.14.14,0,.12.34-.18.51-.25l.06.06c-.23.3-.61.28-.91.43a8.64,8.64,0,0,0-.83-.24c-.25-.07-.43-.31-.69-.4,0,0,0-.08.06-.11Z"/><path class="cls-1" d="M69.6,47.63a9.64,9.64,0,0,0,2.78,1.09l.51.07c-.57.2-2.34-.4-3.35-1.1Z"/><path class="cls-1" d="M70.22,46.85c.28.14.57.29.86.41.11.06.23.16.37.09h0c.13.21.37.21.57.27a7,7,0,0,0,1.49.29,5.89,5.89,0,0,1-3.35-1Z"/><path class="cls-1" d="M77.79,47.24a11,11,0,0,1-3.21.67C75.65,47.7,76.73,47.52,77.79,47.24Z"/><path class="cls-1" d="M69.92,47.08a10.21,10.21,0,0,0,2.71,1.07,6,6,0,0,1-2.77-1Z"/><path class="cls-1" d="M69.69,48.05a10.41,10.41,0,0,0,2.08.84,4.66,4.66,0,0,1-2.13-.78Z"/><path class="cls-1" d="M72.39,48.49a3.66,3.66,0,0,1-1.91-.66A11.34,11.34,0,0,0,72.39,48.49Z"/><path class="cls-1" d="M71.45,47.35c-.07-.16-.29-.12-.42-.35a5.94,5.94,0,0,0,1.81.48c-.49.15-.93-.1-1.39-.13Z"/><path class="cls-1" d="M72.73,50.56c.5.41.4,1,.6,1.57C73,51.66,73.12,51,72.73,50.56Z"/><path class="cls-1" d="M72.22,47a2.16,2.16,0,0,1-1.44-.48A9.36,9.36,0,0,0,72.22,47Z"/><path class="cls-1" d="M79.57,50.65c-.32.14-.5-.09-.69-.28l.06-.07c.13,0,.18.19.37.19l-.18-.22.05-.06a1.27,1.27,0,0,1,.45.38Z"/><path class="cls-1" d="M73.3,50.2l-.23-.1c0,.15.15.21.07.37L72.67,50l.07-.06c.2.09.46,0,.62.2Z"/><path class="cls-1" d="M70.21,45.7h0l-.12-.15a4,4,0,0,0,1.19.07l0,0C71,45.81,70.58,45.67,70.21,45.7Z"/><path class="cls-1" d="M69.32,46.73a2.42,2.42,0,0,1,.6.35l-.06.06a2,2,0,0,1-.59-.36Z"/><path class="cls-1" d="M70.07,46.87a2.23,2.23,0,0,1-.66-.43,1.75,1.75,0,0,1,.71.36Z"/><path class="cls-1" d="M75,50.38l-.49-.23,0-.09a1.24,1.24,0,0,1,.5.25Z"/><path class="cls-1" d="M78.34,46.54a.9.9,0,0,1-.46.27.92.92,0,0,1,.4-.33Z"/><path class="cls-1" d="M70.31,46.69a1.2,1.2,0,0,1-.45-.29l.06-.07.45.3Z"/><path class="cls-1" d="M78.32,46.91a.56.56,0,0,1-.43.27A.66.66,0,0,1,78.32,46.91Z"/><path class="cls-1" d="M72.7,50.53a.56.56,0,0,1-.29-.44C72.58,50.24,72.69,50.32,72.7,50.53Z"/><path class="cls-1" d="M80.05,51.07a1,1,0,0,1,.26.34l-.07.06c-.07,0-.09-.17-.2-.09h0c.08-.1,0-.17-.05-.26Z"/><path class="cls-1" d="M80.71,52.2l-.15-.08h0c0-.13-.08-.22-.13-.33l.08-.07C80.61,51.87,80.74,52,80.71,52.2Z"/><path class="cls-1" d="M70.3,47.76a.77.77,0,0,1-.39-.25.62.62,0,0,1,.44.19Z"/><path class="cls-1" d="M69.55,48.06c-.13-.06-.28-.09-.37-.26a.67.67,0,0,1,.42.2Z"/><path class="cls-1" d="M70.37,46.63c.12.07.27.1.36.26a.58.58,0,0,1-.42-.2Z"/><path class="cls-1" d="M78.71,46.69a.52.52,0,0,1-.35.22c.07-.17.19-.21.29-.28Z"/><path class="cls-1" d="M75.05,50.31l.31.17c-.16.07-.26,0-.36-.1Z"/><path class="cls-1" d="M70.43,46.28a.56.56,0,0,1,.3.22c-.18,0-.26-.08-.37-.16Z"/><path class="cls-1" d="M80,51.61l-.26-.34.07-.06.21.17h0l0,.17Z"/><path class="cls-1" d="M69.6,47.25a.64.64,0,0,1,.31.22c-.18.05-.26-.08-.37-.15Z"/><path class="cls-1" d="M78.28,46.48l.25-.2.06.06a.6.6,0,0,1-.25.2Z"/><path class="cls-1" d="M79.85,50.82l.2.25-.06,0a.52.52,0,0,1-.2-.24Z"/><path class="cls-1" d="M78.52,45.38c0-.09.1-.19.22-.22,0,.15-.08.21-.16.28Z"/><path class="cls-1" d="M78.55,52a.26.26,0,0,1,.21.25C78.61,52.25,78.57,52.17,78.55,52Z"/><path class="cls-1" d="M77.3,47a.35.35,0,0,1,.36-.11A.29.29,0,0,1,77.3,47Z"/><path class="cls-1" d="M80.56,52.12v.3c-.14,0-.13-.17-.19-.26l.06-.06s.08.07.13,0Z"/><path class="cls-1" d="M80.29,52l-.15-.23.07-.06.14.23Z"/><path class="cls-1" d="M69.54,47.32c-.07,0-.16-.07-.2-.17.13-.06.18.05.26.1Z"/><path class="cls-1" d="M75.87,50.84c.07,0,.21.06.14.14s-.14,0-.2-.08Z"/><path class="cls-1" d="M72.67,50s-.18,0-.14-.12.15,0,.21.06Z"/><path class="cls-1" d="M77.76,51.35a.26.26,0,0,1-.12,0s-.1-.06-.1-.09.06-.05.1,0A.57.57,0,0,1,77.76,51.35Z"/><path class="cls-1" d="M80.31,51.41l.14.23-.06.06-.15-.23Z"/><path class="cls-1" d="M75.59,50.75c-.07,0-.16-.06-.2-.16.13-.07.19,0,.26.1Z"/><path class="cls-1" d="M75.81,50.9l-.22-.15.06-.06.22.15Z"/><path class="cls-1" d="M70.12,46.06l.18.12-.06.07-.18-.13Z"/><path class="cls-1" d="M78.36,46.11s-.11.16-.19.08.07-.11.13-.13Z"/><path class="cls-1" d="M78.15,51.7c-.06,0-.16-.09-.13-.13s.13,0,.2.06Z"/><path class="cls-1" d="M80.14,51.79,80,51.61l.07-.06.12.18Z"/><path class="cls-1" d="M79.63,51l.13.16-.06.06L79.57,51Z"/><path class="cls-1" d="M69.86,46.4c-.07,0-.17-.09-.13-.13s.13,0,.19.06Z"/><path class="cls-1" d="M77.85,51.37s.08.06.09.1,0,.06,0,0a.87.87,0,0,1-.11-.09Z"/><path class="cls-1" d="M78.89,52.4c0,.07,0,.1,0,.1a.16.16,0,0,1-.07-.07s0-.07,0-.1Z"/><path class="cls-1" d="M78.3,45.74s-.11.15-.17.09,0-.11.1-.14Z"/><path class="cls-1" d="M73.43,50.31l-.13-.11.06-.06.12.1Z"/><path class="cls-1" d="M78.64,45.74l.11-.13.06.07-.1.11Z"/><path class="cls-1" d="M79.5,51s-.12-.08-.06-.13.09,0,.13.07Z"/><path class="cls-1" d="M70.3,46.18l.13.1-.07.06-.12-.09Z"/><path class="cls-1" d="M80.37,52.16,80.29,52l.06-.06.08.14Z"/><path class="cls-1" d="M70.06,46.12l-.12-.1L70,46l.11.1Z"/><path class="cls-1" d="M78.22,51.63l.12.11-.06.06-.13-.1Z"/><path class="cls-1" d="M78.86,45.08s0,.06-.08,0,0-.05,0-.08Z"/><path class="cls-1" d="M78.36,51.87l-.08-.07.06-.06.07.07Z"/><path class="cls-1" d="M78.41,51.81l.08.07,0,.07a.6.6,0,0,1-.08-.08Z"/><path class="cls-1" d="M78.49,51.88s.07.06,0,.1-.05,0-.07,0Z"/><path class="cls-1" d="M78.58,45.44l-.07.09-.06-.07.07-.08Z"/><path class="cls-1" d="M78.38,45.54l.07-.08.06.07-.08.08Z"/><path class="cls-1" d="M78.43,45.61l-.07.07-.06-.07.08-.07Z"/><path class="cls-1" d="M78.23,45.69l.07-.08.06.07-.06.06Z"/><path class="cls-1" d="M78.57,45.81l.07-.07.07,0-.07.08Z"/><path class="cls-1" d="M79.1,50.15l.08.06-.05.06L79,50.21Z"/><path class="cls-1" d="M73.48,50.24l.08.08,0,.06-.08-.07Z"/><path class="cls-1" d="M73.56,50.32l0,.08-.08,0Z"/><path class="cls-1" d="M79.63,50.59l.07.08-.06.06-.07-.08Z"/><path class="cls-1" d="M69.25,47s.06,0,0,.08,0,0-.08,0Z"/><path class="cls-1" d="M71,47h0l0,0s0,0,0,0Z"/><path class="cls-1" d="M79.71,50.81l-.07-.08.06-.06.08.07Z"/><path class="cls-1" d="M79.79,50.88l-.08-.07.07-.07.07.08Z"/><path class="cls-1" d="M70.84,46.93v0l0,0,0,0Z"/><path class="cls-1" d="M77.77,46.89l0,0,0,0,0,0Z"/><path class="cls-1" d="M70.12,46.8l.1.05-.06.07-.09-.05Z"/><path class="cls-1" d="M79.57,51,79.5,51l.07-.06.06.08Z"/><path class="cls-1" d="M79.76,51.13l.07.08-.07.06-.06-.08Z"/><path class="cls-1" d="M69.6,48l.09,0,0,.06-.09,0Z"/><path class="cls-1" d="M78.67,46.26l-.08.08-.06-.06.07-.07Z"/><path class="cls-1" d="M78.05,46.24h0v0l0,0S78,46.25,78.05,46.24Z"/><path class="cls-1" d="M78.6,46.21s.06-.07.1,0,0,0,0,.08Z"/><path class="cls-1" d="M69.62,46.11s.06.07,0,.08-.08,0-.11,0Z"/><path class="cls-1" d="M78.86,46.09s-.07,0-.08,0,0-.07,0-.11Z"/><path class="cls-1" d="M69.55,46.06l.07,0-.06.06-.07-.06Z"/><path class="cls-1" d="M70.35,47.7l.06.06c0,.06-.08,0-.11,0Z"/><path class="cls-1" d="M78.8,46l.08-.07.06.07-.08.07Z"/><path class="cls-1" d="M78.3,46.06s.06-.08.1,0,0,.06,0,.08Z"/><path class="cls-1" d="M78.88,46s.08,0,.08,0,0,.07,0,.1Z"/><path class="cls-1" d="M78.56,45.94l-.08.05c-.06-.05,0-.08,0-.11Z"/><path class="cls-1" d="M78.64,45.87l-.08.07,0-.06.06-.07Z"/><path class="cls-1" d="M80.45,51.64l.06.09-.08.07,0-.1Z"/><path class="cls-1" d="M77.94,46.34l0,0,0,0,0,0S77.94,46.33,77.94,46.34Z"/><path class="cls-1" d="M72.69,54.89a12.5,12.5,0,0,0-.41,3.79c-.2,2.17-.23,4.37-.58,6.53a5.56,5.56,0,0,1-2.32,3.6,20.57,20.57,0,0,1-4.51,2.46.33.33,0,0,1-.32,0,19.11,19.11,0,0,1-4.78-3.12,6,6,0,0,1-1.61-3.57,43,43,0,0,1-.33-4.39c-.06-1.29-.13-2.58-.2-3.87a3.77,3.77,0,0,0-.24-1.2c-.07-.2,0-.23.17-.23h4.85a.55.55,0,0,1,.37.16c.33.28.68.55,1,.83a.34.34,0,0,0,.47.07,1.34,1.34,0,0,1,1.59.11.28.28,0,0,0,.42,0c.08-.09.21-.14.28-.24a2.67,2.67,0,0,1,2.45-.9C70.2,55,71.42,54.89,72.69,54.89ZM71.6,58.82h-2a.17.17,0,0,0,.13.11c.47.07.49.1.35.57,0,.06,0,.12-.05.18-.57,1.6-1.19,3.19-1.83,4.76,0,.08,0,.21-.19.22-.63-1.66-1.27-3.31-1.9-5-.23-.61-.23-.61.35-.8,0,0,0,0,0-.07H64l-.07.12c.92-.11,1.08.56,1.32,1.15q1.08,2.73,2.18,5.47a3.49,3.49,0,0,0,.2.44c.1.2.21.24.33,0l.15-.3c.85-1.88,1.61-3.8,2.4-5.7C70.73,59.49,70.88,58.9,71.6,58.82ZM61.3,62.6a1.15,1.15,0,0,0,.74,0A2.15,2.15,0,0,0,64,60.13a1.7,1.7,0,0,0-1.75-1.43c-.92,0-1.84,0-2.76,0-.07,0-.16,0-.18.08a.11.11,0,0,0,.11.08c.64.11.68.14.69.78,0,.84,0,1.67,0,2.5,0,1,0,2,0,2.95,0,.42-.14.69-.6.72,0,0,0,0,0,.07a8.23,8.23,0,0,0,2.38,0c0-.09-.11-.08-.18-.09C61,65.63,61,65.63,61,65c-.09-1.89,0-3.78,0-5.67,0-.21.09-.28.28-.31a1.72,1.72,0,0,1,2,1.66,1.55,1.55,0,0,1-1.53,1.78C61.55,62.47,61.4,62.42,61.3,62.6Zm3.49.91c.08-.23.21-.49,0-.7a1.13,1.13,0,0,0-1.1.1.75.75,0,0,0-.3.92.38.38,0,0,1-.13.52A1,1,0,0,0,64,66.17a1.32,1.32,0,0,0,.84-.27.3.3,0,0,1,.42,0,1.42,1.42,0,0,0,1.26.17l-.37-.11a1.35,1.35,0,0,1-.76-.5c-.09-.15.18-.35.24-.55a.25.25,0,0,1,0-.07c0-.16.17-.38,0-.48a.62.62,0,0,0-.67,0c.28,0,.38.17.35.4s0,.43-.19.49-.27-.18-.4-.29a5.44,5.44,0,0,1-.48-.48,2.52,2.52,0,0,1-.54-.75.55.55,0,0,1,.17-.7.56.56,0,0,1,.66,0C64.71,63.16,64.72,63.35,64.79,63.51Z"/><path class="cls-1" d="M65.09,35.32H65V33.5h.08Z"/><path class="cls-1" d="M63,36.86a2.16,2.16,0,0,0-1-.36c-.7,0-1.07.35-.93,1a5.81,5.81,0,0,1,.2,1.66c0,.09,0,.19-.06.27s-.07-.13-.07-.19a5.7,5.7,0,0,0-.19-1.69.91.91,0,0,1,1-1.21A1.66,1.66,0,0,1,63,36.8Z"/><path class="cls-1" d="M63,36.8a.62.62,0,0,1,.3.3l-.07.06-.29-.3Z"/><path class="cls-1" d="M69,36.77a.71.71,0,0,1,.23.71A6.35,6.35,0,0,0,69,39.42a.15.15,0,0,1-.07.12A3.62,3.62,0,0,1,69,38a1.21,1.21,0,0,0,0-1.14Z"/><path class="cls-1" d="M67.18,36.8A1.46,1.46,0,0,1,69,36.71l-.07,0a1.62,1.62,0,0,0-1.66.1Z"/><path class="cls-1" d="M66.93,37a.5.5,0,0,1,.25-.2l0,.06-.24.2Z"/><path class="cls-1" d="M69,36.71l.06.06,0,.06-.08-.07Z"/><path class="cls-1" d="M65,46q0,.09.12,0l2.31-.73c.11,0,.26-.16.33,0s0,.29-.22.37c-.62.27-1.24.57-1.87.83-.32.14-.68.21-.62.49.09-.27-.26-.37-.57-.52-.66-.31-1.32-.62-2-.95-.09-.05-.31,0-.23-.25s.21-.2.4-.12l1.87.73A1.06,1.06,0,0,0,65,46Z"/><path class="cls-1" d="M65.42,53.29c.17,0,.27.1.26.26s-.11.24-.27.23a.22.22,0,0,1-.23-.23A.24.24,0,0,1,65.42,53.29Z"/><path class="cls-1" d="M64.8,53.32c-.1.07,0,.16,0,.24s-.12.24-.29.22a.22.22,0,0,1-.21-.25c0-.17.12-.23.28-.23s.15.1.24,0Z"/><path class="cls-1" d="M65.22,53.13c-.07.21-.26.18-.42.19h0c-.1-.18-.27-.35,0-.54l.06.07c-.06.09-.1.2,0,.29s.22,0,.31-.07Z"/><path class="cls-1" d="M66.26,53.43l.49-.53.09.1a2.08,2.08,0,0,1-.53.49Z"/><path class="cls-1" d="M68.51,51.08c.2.06.28-.09.39-.23,0,.17,0,.32-.06.45-.09,0-.18-.11-.28,0l0-.07Z"/><path class="cls-1" d="M68.56,51.29a1,1,0,0,1-.39.31.58.58,0,0,1,.35-.38Z"/><path class="cls-1" d="M61.87,51.47a.7.7,0,0,1-.32-.32.58.58,0,0,1,.38.27Z"/><path class="cls-1" d="M66.05,53.73a.76.76,0,0,1-.36.28.51.51,0,0,1,.29-.33Z"/><path class="cls-1" d="M68.81,51.57a.65.65,0,0,1-.35.26.5.5,0,0,1,.28-.32Z"/><path class="cls-1" d="M65.76,52.41a.72.72,0,0,1,.35-.23.5.5,0,0,1-.3.29Z"/><path class="cls-1" d="M66.12,53.13a.28.28,0,0,1-.23.15c0-.14.09-.16.16-.2Z"/><path class="cls-1" d="M61.76,50.76A.38.38,0,0,1,62,51c-.16,0-.21-.08-.29-.16Z"/><path class="cls-1" d="M61.29,51c.13,0,.19.06.28.22C61.41,51.13,61.33,51.1,61.29,51Z"/><path class="cls-1" d="M66.25,52.91a.63.63,0,0,1,.25-.21l.06.06a.61.61,0,0,1-.24.21Z"/><path class="cls-1" d="M67.91,51c-.06.05-.14.17-.2.08s.07-.11.14-.15Z"/><path class="cls-1" d="M65.63,53a.08.08,0,0,1-.11,0s0,0,0,0a.16.16,0,0,1,.08-.06S65.66,53,65.63,53Z"/><path class="cls-1" d="M66,52.61l.18-.13.06.05-.18.14Z"/><path class="cls-1" d="M66.3,52.08s0,.08-.07.09-.07,0-.1,0a.31.31,0,0,1,.07-.09S66.26,52.08,66.3,52.08Z"/><path class="cls-1" d="M62.13,51.06c.06,0,.17.07.11.14s-.12,0-.17-.09Z"/><path class="cls-1" d="M65.81,52.47c0,.05-.11.16-.19.06s.07-.1.14-.12Z"/><path class="cls-1" d="M65.48,52.71s-.08,0,0-.07,0,0,.08,0,.07,0,0,0A.46.46,0,0,1,65.48,52.71Z"/><path class="cls-1" d="M64.79,52.78a.24.24,0,0,1,.33,0l-.06.07a.2.2,0,0,0-.21,0Z"/><path class="cls-1" d="M65.89,52.83c-.06.05-.11.16-.19.08s.06-.11.13-.14Z"/><path class="cls-1" d="M65.2,52.86a.2.2,0,0,1,0,.27l-.07-.06,0-.15Z"/><path class="cls-1" d="M61.46,51.72s0-.08.06,0a.16.16,0,0,1,.06.08s0,.08-.06,0Z"/><path class="cls-1" d="M66.43,52.38l0,0,0,0,0,0Z"/><path class="cls-1" d="M66.21,52.48s.05-.07.1,0l0,.07Z"/><path class="cls-1" d="M66.66,52.56l0,0v.09Z"/><path class="cls-1" d="M66.58,52.63l.08-.07,0,0-.08.09Z"/><path class="cls-1" d="M66.09,52.67s-.06.07-.1,0,0,0,0-.08Z"/><path class="cls-1" d="M66.5,52.7l.08-.07,0,.07-.07.06Z"/><path class="cls-1" d="M65.83,52.77s.06-.07.1,0,0,.06,0,.08Z"/><path class="cls-1" d="M65.12,52.78l.08.08-.08.06-.06-.07Z"/><path class="cls-1" d="M66.32,53s-.06.07-.11,0,0-.05,0-.08Z"/><path class="cls-1" d="M66.05,53.08s.06-.08.11,0,0,.05,0,.08Z"/><path class="cls-1" d="M66.17,53.51l.09-.08,0,.06-.07.07Z"/><path class="cls-1" d="M66.24,53.56s-.06.07-.1,0,0-.05,0-.08Z"/><path class="cls-1" d="M66,53.68s.06-.08.1,0,0,.05,0,.08Z"/><path class="cls-1" d="M61.7,50.82l0-.09.08,0Z"/><path class="cls-1" d="M62.07,51.11,62,51s.08,0,.1,0Z"/><path class="cls-1" d="M61,51.27s-.08-.06,0-.1.05,0,.08,0Z"/><path class="cls-1" d="M61.09,51.21l.07.08,0,.06L61,51.27Z"/><path class="cls-1" d="M61.16,51.29l.08.07-.06.07-.07-.08Z"/><path class="cls-1" d="M61.26,51.5l-.08-.07.06-.07.07.08Z"/><path class="cls-1" d="M61.34,51.58l-.08-.08.05-.06.08.07Z"/><path class="cls-1" d="M61.93,51.42l0,.09-.09,0Z"/><path class="cls-1" d="M68.74,51.51l.08-.07.05.06-.06.07Z"/><path class="cls-1" d="M61.39,51.51l0,.09-.08,0Z"/><path class="cls-1" d="M72.33,45.24A2.74,2.74,0,0,0,72.4,44a.55.55,0,0,1,.38-.55,1.14,1.14,0,0,0-.22,1.19.8.8,0,0,1-.17.63Z"/><path class="cls-1" d="M72.39,45.3c0,.12-.31.26,0,.37a.93.93,0,0,1-.41.42L71.92,46c0-.08.17-.11.13-.23s-.09,0-.14,0l0-.07.47-.49Z"/><path class="cls-1" d="M72.53,46c.06-.05.14-.17.2-.09s-.07.12-.14.15Z"/><path class="cls-1" d="M71.48,45.59l-.16.06,0,0c0-.07.09-.07.15-.07Z"/><path class="cls-1" d="M71.44,45.55c0-.06.07-.1.14,0l-.1.08Z"/><path class="cls-1" d="M52.92,63l-.08.62A.52.52,0,0,1,52.92,63Z"/><path class="cls-1" d="M53,62.86s.07,0,.08,0,0,.08,0,.11Z"/><path class="cls-1" d="M53,62.93S53,63,53,63s0-.07,0-.1Z"/><path class="cls-1" d="M77.14,62.94a.51.51,0,0,1,0,.6L77.08,63Z"/><path class="cls-1" d="M77.08,63l-.22-.21.06-.07a.36.36,0,0,1,.22.23Z"/><path class="cls-1" d="M76.81,36.05s0-.11.07-.07,0,.08,0,.12Z"/><path class="cls-1" d="M66.39,41.91c-.11.11-.06.3-.19.47a.49.49,0,0,1,.12-.53Z"/><path class="cls-1" d="M66.48,43l-.1.13,0,0c0-.06,0-.11.09-.14S66.46,43,66.48,43Z"/><path class="cls-1" d="M65.85,41.82s0-.08.08-.08S65.91,41.84,65.85,41.82Z"/><path class="cls-1" d="M66.44,42.93s0-.07.07,0l0,.08Z"/><path class="cls-1" d="M66,43l.06-.06c.06,0,0,.07,0,.11S66,43,66,43Z"/><path class="cls-1" d="M66,43.06s-.06.07-.1,0L66,43S66,43,66,43.06Z"/><path class="cls-1" d="M63.66,42.77c.08-.18.2-.17.33-.06l0,0a.25.25,0,0,0-.25.06Z"/><path class="cls-1" d="M63.62,43a.17.17,0,0,1-.06.16l0,0,.06-.16Z"/><path class="cls-1" d="M64,42.71c.07,0,.09.08,0,.14a.76.76,0,0,1-.08-.11Z"/><path class="cls-1" d="M63.54,42.35s0,.14-.06.11,0-.09,0-.14Z"/><path class="cls-1" d="M63.58,42.92l.08-.15,0,0c0,.06,0,.12-.08.15Z"/><path class="cls-1" d="M63.62,42.21a.13.13,0,0,1-.08.14l0,0a1.09,1.09,0,0,1,.08-.15Z"/><path class="cls-1" d="M63.59,42.17s0-.07.07,0,0,.06,0,.08Z"/><path class="cls-1" d="M61.66,46.08l.15.09c-.09.06-.19.1-.25,0S61.61,46.09,61.66,46.08Z"/><path class="cls-1" d="M61.65,46.84a.14.14,0,0,1-.12-.18s.06,0,.08,0,.08.11.1.17Z"/><path class="cls-1" d="M69.43,51.08v.14l-.16-.11Z"/><path class="cls-1" d="M68.31,50.48l.15.08a.15.15,0,0,1-.15.07h0Z"/><path class="cls-1" d="M68.31,50.63l0,.12,0,0,.09-.09Z"/><path class="cls-1" d="M59.44,46.84c.1,0,.17-.12.29-.09,0,.24-.25.2-.39.29C59.31,46.92,59.41,46.9,59.44,46.84Z"/><path class="cls-1" d="M58.73,47.24a.56.56,0,0,1,.4-.12.71.71,0,0,1-.34.2Z"/><path class="cls-1" d="M59.24,47.09h0l0,0,0,0Z"/><path class="cls-1" d="M58,46,57.9,46c0-.05-.07-.11-.06-.15s.1,0,.15,0a1.38,1.38,0,0,0,1.1.29A1.19,1.19,0,0,1,58,46Z"/><path class="cls-1" d="M49.87,51.45l.05-.17s.09-.1.15-.05,0,.09,0,.13S50,51.53,49.87,51.45Z"/><path class="cls-1" d="M64.23,65.87a.81.81,0,0,1-.83-.4,1,1,0,0,1,0-1c.11-.21.22-.2.38,0a6.42,6.42,0,0,0,.84.89c.28.23.26.31-.08.42A2.78,2.78,0,0,1,64.23,65.87Z"/></svg>