<svg id="Layer_56" data-name="Layer 56" xmlns="http://www.w3.org/2000/svg" viewBox="0 0 131 131"><defs><style>.cls-1{fill:#1b3d65;}</style></defs><path class="cls-1" d="M105.82,76.06a1.66,1.66,0,0,1-1.33-.18,59.94,59.94,0,0,0-18.4-7.06,49.89,49.89,0,0,0-15.47-.66A56.26,56.26,0,0,0,53,73.24C51.25,74.08,49.5,75,47.79,76a1.27,1.27,0,0,1-.66.17q-5.18,0-10.36,0a.79.79,0,0,1-.78-.42c-.24-.41-.53-.79-.78-1.19-.13-.21-.23-.21-.43-.08-.76.51-1.54,1-2.31,1.49a1.07,1.07,0,0,1-.65.2H24A.33.33,0,0,1,23.7,76c.72-.47,1.43-1,2.16-1.42A95.63,95.63,0,0,1,41.7,66.3a74.16,74.16,0,0,1,17.72-4.86,59.27,59.27,0,0,1,15.46-.19A57.61,57.61,0,0,1,96,68.16a70.33,70.33,0,0,1,11,7.63.42.42,0,0,1,.22.3.87.87,0,0,1-.8-.14c-1-.76-2.06-1.48-3.1-2.22-.17-.11-.31-.3-.52,0s0,.38.17.51l2.37,1.5ZM46.45,72.2l-.07-.11c-.45-.91-.9-1.81-1.34-2.72-.13-.26-.28-.15-.44-.07l-4.27,2c-.26.12-.3.23-.17.48.49.94,1,1.88,1.43,2.83.09.18.16.22.34.12l4.33-2.33C46.35,72.39,46.47,72.35,46.45,72.2Zm9.81-4,0-.1c-.24-.82-.47-1.64-.71-2.47-.06-.21-.18-.18-.35-.14q-2.39.66-4.73,1.46c-.26.09-.25.21-.17.41.31.83.63,1.65.93,2.49.07.2.16.25.37.16,1.47-.6,3-1.13,4.48-1.63C56.15,68.37,56.28,68.37,56.26,68.22Zm10.38-2.54c-.07-.65-.14-1.23-.19-1.81,0-.26-.11-.32-.37-.3-1.61.15-3.22.35-4.83.61-.24,0-.34.1-.28.38.16.67.28,1.35.39,2,0,.28.11.35.4.28a42.64,42.64,0,0,1,4.47-.78C66.54,66.05,66.74,66,66.64,65.68ZM72,64.46c0,.23,0,.46,0,.69s.06.47.45.46a36.91,36.91,0,0,1,4.58.11c.25,0,.32-.08.34-.29,0-.42.08-.85.14-1.27s-.06-.41-.36-.43c-1.37-.13-2.74-.27-4.12-.3C72,63.4,72,63.4,72,64.46Zm16.26,1.89c0-.22-.19-.2-.32-.24-1.36-.47-2.74-.84-4.14-1.19-.8-.2-.8-.19-1,.63,0,.18-.07.37-.12.54s0,.33.24.36c1.59.28,3.15.65,4.7,1.07.11,0,.21.08.26-.07C88,67.09,88.11,66.73,88.23,66.35Zm5.23,1.9c-.07,0-.1.08-.13.16s-.17.43-.27.63,0,.29.16.37a44.09,44.09,0,0,1,4.4,1.93c.34.17.39-.08.48-.27s.32-.37-.06-.57q-2.15-1.16-4.36-2.16Z"/><path class="cls-1" d="M30.62,69a15.79,15.79,0,0,1,1.67-1.89q3.38-3.56,6.78-7.12l6.49-6.81c1.09-1.15,2.17-2.3,3.26-3.43.26-.27.2-.57.2-.87V39.56c0-.56,0-1.13,0-1.7,0-.31.09-.45.42-.45,1.31,0,2.63,0,4,0,.37,0,.43.18.43.49,0,1.87,0,3.74,0,5.61a1.22,1.22,0,0,0,.09.68l0,.09.07-.07a3.9,3.9,0,0,0,1.13-1.05c1.55-1.6,3.07-3.22,4.59-4.84q3-3.18,6-6.37c.44-.47.43-.46.87,0l6,6.4,8.51,9,5.53,5.84,8.92,9.48,4.35,4.62a4.46,4.46,0,0,1,.33.43l0,0a7.88,7.88,0,0,1-1.69-.91A58,58,0,0,0,90.75,63a2.66,2.66,0,0,1-1-.66c-2.42-2.58-4.87-5.14-7.3-7.72-2-2.16-4-4.34-6.09-6.5l-6-6.31c-1.29-1.36-2.56-2.73-3.84-4.09-.4-.42-.48-.43-.88,0L58.27,45.5c-1.66,1.74-3.31,3.49-5,5.24l-7.54,7.92c-1.2,1.25-2.39,2.51-3.58,3.76a5.07,5.07,0,0,0-.49.55c-.94,1.36-2.47,1.79-3.87,2.42-2.11,1-4.19,2-6.22,3.07-.33.18-.66.34-1,.5Z"/><path class="cls-1" d="M39,84.93v.9c0,1.84,0,3.68,0,5.53,0,.42-.13.57-.55.54a4.21,4.21,0,0,0-.87,0c-.37,0-.51-.09-.5-.46s0-.92,0-1.38c0-2.51,0-5,0-7.54,0-.45.15-.54.57-.6a2.28,2.28,0,0,1,2.56,1.26c.5.88,1.18,1.67,1.77,2.51.33.47.4.47.74,0,.83-1.14,1.65-2.28,2.47-3.43a.65.65,0,0,1,.61-.32h1.34c.3,0,.44.09.44.42v9.11c0,.32-.13.44-.44.42h-.37c-1.1,0-1.1,0-1.1-1.13v-5.2c0-.17.09-.43-.11-.48s-.28.2-.38.35l-2.33,3.13c-.45.6-.61.61-1,0l-2.42-3.3-.27-.37Z"/><path class="cls-1" d="M29.24,87a4.76,4.76,0,0,1-3.34,4.87c-2.32.67-4.93.16-6.19-2.2a5.7,5.7,0,0,1,1.19-6.82,5.16,5.16,0,0,1,4.11-1A4.91,4.91,0,0,1,29.24,87ZM21,86.86A4.25,4.25,0,0,0,21.5,89a3.25,3.25,0,0,0,5.88-2.33,3.19,3.19,0,0,0-4.41-3A3.25,3.25,0,0,0,21,86.86Z"/><path class="cls-1" d="M55.75,86.92c0-1.49,0-3,0-4.47,0-.35.09-.52.49-.51q3.23,0,6.45,0c.4,0,.51.15.47.52a4.63,4.63,0,0,0,0,.83c0,.39-.12.5-.5.5-1.43,0-2.85,0-4.28,0-.75,0-.75,0-.75.76,0,.34,0,.68,0,1s.12.48.48.47c1.41,0,2.82,0,4.23,0,.64,0,.64,0,.64.63,0,1.15,0,1.15-1.17,1.15s-2.45,0-3.68,0c-.38,0-.53.13-.5.51a11.81,11.81,0,0,1,0,1.19c0,.37.12.48.48.48H62.4c.76,0,.77,0,.74.76a.28.28,0,0,0,0,.09c0,1,0,1-1.05,1-1.93,0-3.86,0-5.8,0-.44,0-.54-.14-.54-.55C55.76,89.86,55.75,88.39,55.75,86.92Z"/><path class="cls-1" d="M119.71,87c0-1.52,0-3,0-4.56,0-.34.08-.5.46-.46a7.5,7.5,0,0,0,1.06,0c.28,0,.36.08.36.37,0,1.13,0,2.27,0,3.4,0,.32.09.42.41.41q2,0,4,0c.34,0,.4-.12.4-.42,0-1.1,0-2.21,0-3.31,0-.37.12-.48.47-.45a5.68,5.68,0,0,0,1,0c.33,0,.4.11.4.39,0,.71,0,1.41,0,2.12,0,2.28,0,4.57,0,6.85,0,.43-.06.67-.57.58a3.85,3.85,0,0,0-.68,0c-.62,0-.62,0-.62-.59,0-1,0-2,0-3,0-.3-.1-.39-.4-.39-1.35,0-2.7,0-4,0-.32,0-.42.09-.42.41,0,1.07,0,2.15,0,3.22,0,.3-.06.42-.37.4a11,11,0,0,0-1.15,0c-.3,0-.35-.1-.35-.37,0-1.52,0-3,0-4.55Z"/><path class="cls-1" d="M11.34,87c0,1.47,0,3,0,4.42,0,.4-.12.56-.53.51s-1,.19-1.28-.12-.08-.82-.09-1.24c0-.72,0-1.44,0-2.16,0-.34-.1-.47-.44-.47-1.31,0-2.61,0-3.92,0-.36,0-.48.14-.47.49,0,1,0,2,0,3,0,.41-.12.56-.53.52a4.22,4.22,0,0,0-.87,0c-.38,0-.52-.1-.52-.49,0-3,0-5.89,0-8.84,0-.62,0-.62.65-.62,1.26,0,1.26,0,1.25,1.25,0,.81,0,1.63,0,2.44,0,.32.08.48.43.47q2,0,4,0c.35,0,.45-.14.44-.47,0-1.07,0-2.14,0-3.22,0-.35.11-.47.48-.48,1.43,0,1.43,0,1.42,1.43Z"/><path class="cls-1" d="M87.94,91.87l2.25-5c.68-1.53,1.38-3.07,2.06-4.61a.4.4,0,0,1,.44-.28c.45,0,.89,0,1.34,0a.49.49,0,0,1,.54.35l3.52,7.89c.2.44.39.9.6,1.34.12.25.08.37-.22.36h-.09a3.89,3.89,0,0,1-1.5-.07c-.42-.21-.5-.85-.67-1.32S95.8,90,95.39,90c-1.4,0-2.79,0-4.19,0a.5.5,0,0,0-.55.36c-.16.43-.37.83-.56,1.26a.37.37,0,0,1-.41.27C89.13,91.86,88.58,91.87,87.94,91.87Zm5.43-7.77c-.58,1.32-1.13,2.6-1.69,3.88-.13.29.07.26.24.26h3.29c-.59-1.38-1.15-2.67-1.71-3.95A1.08,1.08,0,0,0,93.37,84.1Z"/><path class="cls-1" d="M73,86.9c0-1.5,0-3,0-4.51,0-.36.1-.45.46-.45,1.49,0,3,0,4.46,0a3.35,3.35,0,0,1,3.31,2.88,3.43,3.43,0,0,1-2.27,3.93,4.19,4.19,0,0,1-1.27.18c-.83,0-1.66,0-2.48,0-.27,0-.35.09-.34.34,0,.69,0,1.39,0,2.07,0,.44-.14.56-.54.52a5.06,5.06,0,0,0-.87,0c-.37,0-.47-.11-.47-.46C73,89.9,73,88.4,73,86.9Zm1.86-1.46c0,.47,0,1,0,1.42,0,.29.09.37.37.36.82,0,1.65,0,2.48,0a1.68,1.68,0,0,0,1.72-1.71,1.66,1.66,0,0,0-1.61-1.77c-.89,0-1.78,0-2.67,0-.26,0-.3.12-.29.34C74.82,84.52,74.81,85,74.81,85.44Z"/><path class="cls-1" d="M107.09,87.72c0-1.22,0-2.45,0-3.68,0-.3-.08-.4-.38-.39-.78,0-1.56,0-2.35,0-.31,0-.46-.09-.41-.42,0-.1,0-.21,0-.32,0-1,0-1,1-1,2.22,0,4.45,0,6.67,0,.37,0,.5.09.49.48,0,1.24,0,1.24-1.21,1.24-.51,0-1,0-1.52,0-.32,0-.41.09-.41.41,0,2.42,0,4.85,0,7.27,0,.45-.12.6-.56.54a4.71,4.71,0,0,0-.92,0c-.32,0-.42-.1-.41-.42C107.1,90.21,107.09,89,107.09,87.72Z"/><path class="cls-1" d="M62.19,48.83c0-.39,0-.77,0-1.15s.07-.43.39-.42c.76,0,1.53,0,2.3,0,.31,0,.43.13.43.45,0,.76,0,1.53,0,2.29,0,.31-.1.45-.42.45-.77,0-1.53,0-2.3,0-.29,0-.42-.11-.4-.41s0-.79,0-1.19Z"/><path class="cls-1" d="M62.2,53.8c0-.42,0-.83,0-1.24,0-.24.1-.33.33-.33H65c.26,0,.36.12.36.37q0,1.21,0,2.43c0,.25-.1.36-.35.36H62.53c-.27,0-.34-.13-.34-.37,0-.41,0-.82,0-1.23Z"/><path class="cls-1" d="M69.93,53.84V55c0,.23-.08.33-.32.33l-2.38,0c-.29,0-.43-.1-.42-.4,0-.81,0-1.62,0-2.43,0-.23.08-.34.32-.34.83,0,1.65,0,2.48,0,.26,0,.34.12.34.37C69.93,53,69.93,53.42,69.93,53.84Z"/><path class="cls-1" d="M69.94,48.92c0,.37,0,.74,0,1.1s-.09.42-.39.41H67.21c-.27,0-.4-.1-.39-.37,0-.8,0-1.6,0-2.39,0-.25.1-.36.36-.36H69.6c.27,0,.34.13.34.37,0,.41,0,.83,0,1.24Z"/><path class="cls-1" d="M51.87,97.67c0-.43,0-.86,0-1.29,0-.12-.09-.3.12-.34s.35-.06.49.13c.34.46.69.9,1,1.34.09.11.17.31.33.26s.1-.27.11-.41c0-.35,0-.7,0-1.06s.1-.28.3-.28.32,0,.32.28c0,.93,0,1.86,0,2.8,0,.09,0,.2-.11.22a.36.36,0,0,1-.4-.14c-.32-.42-.64-.82-1-1.23l-.2-.25c-.09-.1-.18-.18-.32-.13s-.12.17-.12.28c0,.38,0,.76,0,1.14s-.07.35-.34.35-.28-.15-.28-.34V97.67Z"/><path class="cls-1" d="M89.21,97.82c0-.47,0-.94,0-1.41,0-.23,0-.39.33-.39s.31.14.3.36V99c0,.11.07.27-.09.32a.36.36,0,0,1-.41-.14c-.36-.49-.74-1-1.12-1.45-.08-.1-.16-.26-.32-.19s-.16.21-.16.35c0,.37,0,.74,0,1.1,0,.2,0,.36-.28.35s-.35-.07-.35-.34c0-.86,0-1.71,0-2.57,0-.13-.08-.33.14-.38a.47.47,0,0,1,.52.18c.31.44.65.85,1,1.26C88.87,97.62,88.93,97.8,89.21,97.82Z"/><path class="cls-1" d="M65.73,97.65c0-.43,0-.86,0-1.29,0-.22,0-.34.3-.33.63,0,1.26,0,1.88,0,.28,0,.28.14.29.35s-.12.26-.31.26H66.73c-.2,0-.37,0-.36.29s.06.43.35.44.74,0,1.11,0c.2,0,.3.07.3.29s-.09.29-.3.29c-.38,0-.77,0-1.15,0s-.35.11-.33.36,0,.39.31.38.79,0,1.19,0,.34.1.34.35-.13.29-.34.28c-.59,0-1.17,0-1.75,0-.32,0-.39-.11-.38-.39S65.73,98.08,65.73,97.65Z"/><path class="cls-1" d="M61.21,97.63c0-.42,0-.85,0-1.28,0-.22,0-.33.3-.32.63,0,1.26,0,1.88,0,.23,0,.29.07.29.29s0,.33-.3.32c-.42,0-.83,0-1.24,0s-.31.15-.31.38,0,.39.31.37.76,0,1.14,0,.34.07.34.31-.14.27-.33.26c-.39,0-.79,0-1.19,0s-.28.16-.27.35-.09.41.26.39.8,0,1.19,0,.41,0,.4.34-.16.29-.38.29c-.56,0-1.13,0-1.7,0-.28,0-.41,0-.39-.37s0-.89,0-1.34Z"/><path class="cls-1" d="M20.85,96h.82c.18,0,.4-.08.4.26s-.17.37-.42.36-.71,0-1.06,0-.38.08-.37.36,0,.41.34.39.77,0,1.15,0,.31.09.32.33-.15.24-.33.24c-.38,0-.76,0-1.15,0s-.33.11-.33.36,0,.41.35.39.8,0,1.2,0,.3.12.3.34-.06.3-.29.29q-.95,0-1.89,0c-.24,0-.27-.1-.27-.3,0-.91,0-1.83,0-2.75,0-.21.08-.26.27-.25S20.52,96,20.85,96Z"/><path class="cls-1" d="M109,97.67c0-.46,0-.92,0-1.38,0-.2.07-.26.27-.26q1,0,1.92,0c.24,0,.29.09.29.3s0,.32-.27.31c-.41,0-.83,0-1.24,0-.26,0-.35.09-.34.35s0,.43.32.42.77,0,1.15,0,.31.1.32.32-.13.26-.32.26c-.37,0-.74,0-1.1,0s-.37.08-.37.37,0,.39.35.38.8,0,1.19,0,.31.12.31.34-.06.3-.29.29c-.62,0-1.23,0-1.84,0-.29,0-.36-.11-.35-.38C109,98.53,109,98.1,109,97.67Z"/><path class="cls-1" d="M106.93,98.23a.81.81,0,0,1-.57,1,1.74,1.74,0,0,1-2.12-2.67,1.79,1.79,0,0,1,2.37-.31c.1.07.24.16.13.29s-.19.3-.41.21l-.2-.11a1.12,1.12,0,0,0-1.31.19,1.31,1.31,0,0,0-.21,1.42,1.09,1.09,0,0,0,1.16.55,2,2,0,0,0,.35-.11c.26-.1.25-.32.23-.54S106.11,98,106,98s-.6,0-.43-.35.67-.13,1-.2c.15,0,.39-.07.38.24S106.93,98,106.93,98.23Z"/><path class="cls-1" d="M82.44,97.65c0-.44,0-.89,0-1.33,0-.21,0-.3.28-.29q.94,0,1.89,0c.22,0,.29,0,.29.28s-.07.34-.32.33-.8,0-1.2,0-.33.16-.33.4,0,.38.32.37.77,0,1.15,0,.32.08.32.32-.15.26-.33.26c-.38,0-.77,0-1.15,0s-.33.14-.32.37,0,.39.32.37.83,0,1.24,0c.23,0,.3.08.29.29s0,.35-.28.34q-.94,0-1.89,0c-.25,0-.28-.11-.28-.3Z"/><path class="cls-1" d="M80.58,99.26a.81.81,0,0,1-1-.29c-.14-.22-.34-.39-.5-.6s-.39-.16-.59-.13-.11.27-.13.42a1.89,1.89,0,0,0,0,.41c0,.26-.12.26-.31.26s-.32,0-.32-.26c0-.93,0-1.87,0-2.8,0-.18.07-.24.25-.24.5,0,1,0,1.51,0a1.08,1.08,0,0,1,1,.83A1,1,0,0,1,79.94,98c-.26.14-.24.24-.06.43S80.33,99,80.58,99.26ZM79,96.61c-.64,0-.64,0-.64.61,0,.08,0,.15,0,.23s.07.22.22.22.55,0,.82,0a.46.46,0,0,0,.45-.53.48.48,0,0,0-.48-.51C79.2,96.6,79.08,96.61,79,96.61Z"/><path class="cls-1" d="M44.83,99.28a.92.92,0,0,1-1.1-.36c-.22-.27-.36-.69-.84-.7-.24,0-.38,0-.35.33s0,.31,0,.46,0,.32-.31.33-.32-.08-.31-.31c0-.91,0-1.81,0-2.72,0-.22.1-.29.31-.28.46,0,.92,0,1.38,0a1.09,1.09,0,0,1,1,.79,1,1,0,0,1-.49,1.22c-.21.13-.21.21-.06.37S44.55,99,44.83,99.28Zm-1.72-1.6a4.19,4.19,0,0,0,.5,0,.5.5,0,0,0,.43-.56.46.46,0,0,0-.39-.45,2.42,2.42,0,0,0-1.07,0,.08.08,0,0,0,0,0,3.08,3.08,0,0,0,0,.86C42.64,97.79,42.93,97.62,43.11,97.68Z"/><path class="cls-1" d="M29.6,98.13c0,.77-.12,1-.73,1.17a1.85,1.85,0,0,1-1.94-.47A1.9,1.9,0,0,1,27,96.46a1.75,1.75,0,0,1,2.22-.23c.1.07.36.11.19.31s-.22.34-.49.16a1.11,1.11,0,0,0-1.33,0,1.21,1.21,0,0,0-.4,1.2,1.11,1.11,0,0,0,1.68.71c.21-.14.18-.34.16-.53S28.82,98,28.7,98a1.74,1.74,0,0,0-.32,0c-.18,0-.2-.1-.19-.24s0-.29.18-.3h.5C29.6,97.41,29.6,97.41,29.6,98.13Z"/><path class="cls-1" d="M115.79,97.89c0-.51,0-1,0-1.54,0-.28.11-.32.35-.33s.29.13.29.35c0,.86,0,1.71,0,2.57,0,.14.09.33-.14.38s-.31-.07-.41-.21l-1.07-1.38a1.08,1.08,0,0,0-.48-.43v1.61c0,.2.08.42-.29.43s-.35-.18-.35-.43c0-.81,0-1.62,0-2.43,0-.15-.11-.37.13-.43a.48.48,0,0,1,.55.2c.38.51.78,1,1.16,1.49a1.59,1.59,0,0,1,.15.21Z"/><path class="cls-1" d="M70.22,97.63c0-.44,0-.88,0-1.33,0-.2.06-.27.25-.27.43,0,.86,0,1.29,0a1.65,1.65,0,0,1-.05,3.26c-.41,0-.82,0-1.24,0-.2,0-.26-.08-.25-.27Zm.62,0h0v.46c0,.73-.11.63.68.64a.92.92,0,0,0,.92-.56A1.15,1.15,0,0,0,72.3,97,1.3,1.3,0,0,0,71,96.64c-.3.16-.09.49-.14.74A.87.87,0,0,0,70.84,97.61Z"/><path class="cls-1" d="M98.67,99.3c.48-1.06.92-2.07,1.38-3.07.12-.27.71-.3.83,0,.47,1,.93,2.06,1.39,3.09-.42.11-.74.09-.85-.38,0-.17-.16-.2-.31-.2H99.86a.29.29,0,0,0-.34.23C99.41,99.4,99.08,99.35,98.67,99.3Zm1.79-2.5c-.17.36-.32.69-.46,1,0,.08-.11.22,0,.24a2.52,2.52,0,0,0,1,0A.11.11,0,0,0,101,98l0-.08A6.37,6.37,0,0,0,100.46,96.8Z"/><path class="cls-1" d="M40,99.27c-.4.11-.72.13-.83-.33-.05-.2-.18-.25-.37-.24s-.62,0-.92,0-.62,0-.73.42-.43.25-.62.18,0-.26,0-.38c.38-.87.78-1.73,1.15-2.6a.44.44,0,0,1,.49-.29.39.39,0,0,1,.45.27C39.13,97.29,39.58,98.27,40,99.27Zm-1.8-2.52c-.18.42-.34.76-.49,1.11,0,.08-.09.23,0,.24.32,0,.64,0,1,0,.09,0,.07-.08.07-.14s0,0,0,0Z"/><path class="cls-1" d="M46.32,99.32c.49-1.06,1-2.06,1.38-3.07.11-.26.3-.2.49-.22a.37.37,0,0,1,.41.27l1.18,2.64c0,.11.25.29,0,.37s-.49.12-.54-.08c-.19-.69-.72-.52-1.18-.52s-.88-.14-1,.5C47,99.45,46.62,99.3,46.32,99.32Zm1.83-2.58c-.19.43-.35.77-.51,1.11s0,.28.18.27a5.76,5.76,0,0,1,.59,0c.21,0,.34,0,.21-.28S48.34,97.18,48.15,96.74Z"/><path class="cls-1" d="M17.45,97.74c0,.44,0,.89,0,1.33,0,.25-.11.27-.31.27s-.34,0-.32-.26,0-.37,0-.55c.08-.47-.13-.56-.56-.55-1,0-1,0-1,1,0,.25-.05.35-.33.35s-.31-.13-.31-.36c0-.87,0-1.75,0-2.62,0-.23.05-.33.3-.33s.34.09.34.34-.16.81.09,1,.65,0,1,0,.58-.11.52-.53c0-.16,0-.33,0-.5s0-.36.32-.36.31.16.3.37v1.34Z"/><path class="cls-1" d="M34.57,97.24c0,.28,0,.55,0,.83a1.31,1.31,0,0,1-1.37,1.3,1.32,1.32,0,0,1-1.49-1.27c0-.58,0-1.16,0-1.75,0-.21,0-.32.3-.32s.32.09.32.32c0,.56,0,1.13,0,1.69a.71.71,0,0,0,.75.76.73.73,0,0,0,.85-.74c0-.55,0-1.1,0-1.65,0-.21,0-.38.3-.38s.34.15.33.39S34.57,97,34.57,97.24Z"/><path class="cls-1" d="M93.47,98c0,.36,0,.73,0,1.1s-.12.26-.31.27-.32,0-.31-.28c0-.61,0-1.22,0-1.84s0-.61-.62-.62c-.23,0-.47,0-.43-.34,0-.17.06-.23.24-.23.74,0,1.47,0,2.21,0,.25,0,.26.13.27.31s-.07.25-.27.26c-.78.05-.78.06-.78.86V98Z"/><path class="cls-1" d="M11,98v-.51c0-.77,0-.79-.78-.84-.23,0-.28-.11-.28-.31S10,96,10.2,96c.73,0,1.47,0,2.2,0,.21,0,.25.09.25.28s0,.28-.24.29-.6-.13-.75.07-.06.56-.06.85c0,.5,0,1,0,1.51,0,.26-.1.31-.32.31s-.3-.07-.3-.29,0-.73,0-1.1Z"/><path class="cls-1" d="M119.71,96c.35,0,.71,0,1.06,0s.3.06.31.28-.1.28-.31.29c-.74,0-.74.05-.74.78,0,.56,0,1.11,0,1.66,0,.26-.12.29-.33.3s-.3-.08-.29-.3c0-.69,0-1.38,0-2.07,0-.3-.08-.42-.39-.38-.13,0-.27,0-.41,0s-.24-.11-.24-.28,0-.3.24-.29c.37,0,.73,0,1.1,0Z"/><path class="cls-1" d="M57.6,97.93v-.51c0-.75,0-.76-.76-.82-.19,0-.27-.07-.27-.27s0-.31.28-.3q1.08,0,2.16,0c.21,0,.26.1.25.28s0,.27-.23.29-.62-.16-.76.11,0,.53,0,.81c0,.5,0,1,0,1.51,0,.26-.1.3-.32.31s-.33-.06-.32-.31,0-.74,0-1.1Z"/><path class="cls-1" d="M100.23,67.76c.06,0,.11,0,.12.11l0,0c-.07,0-.09,0-.11-.11Z"/><path class="cls-1" d="M30.61,69h0Z"/><path class="cls-1" d="M53.93,44.21l-.07.07,0-.09Z"/></svg>