<svg width="807" height="1059" viewBox="0 0 807 1059" fill="none" xmlns="http://www.w3.org/2000/svg">
<path fill-rule="evenodd" clip-rule="evenodd" d="M451 157L457 154V154.344L451 157Z" fill="#781338"/>
<path fill-rule="evenodd" clip-rule="evenodd" d="M259.025 785V722.056L321.758 689.523V752.466L259.025 785ZM502.972 658.804V407.94L565.366 375.715V626.266L502.972 658.804ZM475.607 221.238L65.7942 436.839L46.0895 369.931L132.197 324.628C132.426 324.832 132.536 325.041 132.536 325.228C133.196 327.457 133.082 329.894 132.197 332.54L123.516 337.084L130.86 362.04L140.201 357.161L136.211 343.177C137.755 340.949 139.092 338.507 140.201 335.887C142.423 330.599 142.877 325.433 141.539 320.371C141.31 320.166 141.2 319.958 141.2 319.753L184.934 296.947V297.256C185.589 299.693 185.475 302.234 184.591 304.859L175.593 309.425L182.914 334.668L192.594 329.481L188.265 315.806C190.033 313.577 191.486 311.14 192.594 308.515C194.816 303.04 195.27 297.773 193.932 292.691V292.403L237.327 269.288V269.596C237.982 272.013 237.982 274.554 237.327 277.2L227.986 282.053L235.311 306.988L244.671 302.13L240.658 288.434C242.426 286.205 243.879 283.685 244.992 280.835C247.439 275.359 247.892 270.093 246.33 265.031V264.722L290.041 241.603V241.916C290.719 244.353 290.605 246.894 289.72 249.515L281.039 254.081L288.383 279.015L298.063 274.141L293.711 260.157C295.278 257.924 296.616 255.591 297.724 253.175C299.946 247.491 300.4 242.12 299.062 237.058L342.457 214.256C343.341 216.673 343.227 219.214 342.118 221.856L333.093 226.4L340.78 251.644L350.117 246.481L346.127 232.806C347.671 230.573 349.009 228.136 350.117 225.49C352.568 220.019 353.022 214.649 351.455 209.378L394.85 186.284V186.572C395.735 188.804 395.735 191.346 394.85 194.175L385.486 199.049L392.835 224.272L402.172 219.11L398.186 205.434C399.95 203.202 401.516 200.66 402.854 197.831C405.301 192.151 405.731 186.78 404.192 181.718L450.918 157.076L455.907 154.66V154.347L475.607 221.238Z" fill="#46627D"/>
<path fill-rule="evenodd" clip-rule="evenodd" d="M321.758 689.523L259.025 722.056L196.947 688.922L260.34 655.169L279.385 665.807L321.758 689.523ZM299.062 237.058C298.837 236.645 298.723 236.337 298.723 236.132C298.063 234.313 297.271 232.702 296.386 231.274L311.079 223.366L320.76 218.2L337.784 209.378L338.105 209.069L339.099 208.781C340.666 209.791 341.775 211.402 342.457 213.635V214.256L299.062 237.058ZM348.78 203.594L363.472 195.703L373.469 190.52L391.497 181.101C393.059 182.111 394.172 183.742 394.85 185.975V186.284L351.455 209.378C351.231 209.174 351.116 208.865 351.116 208.472C350.461 206.653 349.664 205.021 348.78 203.594ZM193.932 292.403C193.707 291.989 193.593 291.681 193.593 291.493C192.938 289.653 192.164 288.042 191.256 286.619L205.949 279.015L215.969 273.853L233.997 264.121C235.536 265.135 236.645 266.746 237.327 268.975V269.288L193.932 292.403ZM243.654 258.938L258.342 251.335L268.366 246.168L286.39 236.441C287.929 237.455 289.042 238.982 289.72 241.006C289.72 241.211 289.835 241.419 290.041 241.603L246.33 264.722C246.33 264.309 246.33 264.017 246.33 263.812C245.67 261.993 244.763 260.361 243.654 258.938ZM153.556 306.675L163.236 301.513L181.576 291.781C183.143 292.999 184.251 294.531 184.934 296.346C184.934 296.555 184.934 296.759 184.934 296.947L141.2 319.753C141.2 319.566 141.2 319.257 141.2 318.844C140.54 317.233 139.77 315.705 138.863 314.278L153.556 306.675ZM100.819 334.355L110.5 329.193L129.206 319.461C130.52 320.68 131.519 322.19 132.197 324.027C132.197 324.214 132.197 324.419 132.197 324.628L46.0894 369.931L45.0906 370.549L38.7454 367.202L100.819 334.355ZM547.022 366.292L565.366 375.715L502.972 407.94L441.553 375.402L481.774 354.582L484.11 353.364L504.31 342.868L512.813 347.58L547.022 366.292ZM450.918 157.076L404.192 181.718C403.963 181.305 403.853 180.997 403.853 180.788C403.193 178.973 402.286 177.362 401.177 175.935L448.242 151L455.907 154.347L450.918 157.076Z" fill="#0A2F53"/>
<path fill-rule="evenodd" clip-rule="evenodd" d="M373.406 190.177L363.418 195.343C363.647 191.907 364.53 188.467 366.091 185.028C368.54 179.184 372.413 174.733 377.759 171.709C383.082 168.869 388.314 168.27 393.432 169.875C396.764 171.09 399.323 173.003 401.09 175.64C402.197 177.062 403.104 178.668 403.763 180.477C403.763 180.685 403.873 180.993 404.101 181.405C405.639 186.45 405.209 191.803 402.765 197.464C401.428 200.284 399.863 202.817 398.101 205.042C396.105 207.471 393.747 209.488 391.097 211.094L387.769 202.301C390.873 200.492 393.093 197.959 394.429 194.727C394.429 194.336 394.544 194.028 394.768 193.82C395.652 191 395.652 188.467 394.768 186.242V185.647C394.091 183.422 392.978 181.796 391.418 180.789C390.758 180.377 390.081 179.986 389.422 179.575C386.524 178.772 383.645 179.184 380.748 180.789C377.869 182.415 375.649 184.845 374.088 188.056C373.859 188.675 373.635 189.374 373.406 190.177ZM348.739 203.208C349.622 204.63 350.419 206.257 351.073 208.07C351.073 208.461 351.187 208.769 351.412 208.973C352.977 214.226 352.524 219.579 350.075 225.032C348.967 227.669 347.631 230.098 346.088 232.323C343.85 234.731 341.401 236.873 338.751 238.683L335.4 229.582C338.298 227.977 340.403 225.548 341.74 222.316C341.969 221.904 342.083 221.596 342.083 221.409C343.191 218.776 343.305 216.243 342.422 213.835V213.215C341.74 210.99 340.632 209.384 339.067 208.378C338.412 207.966 337.62 207.554 336.737 207.163C334.087 206.361 331.185 206.752 328.081 208.378C325.184 209.983 323.078 212.412 321.742 215.644C321.288 216.243 320.945 216.963 320.744 217.765L311.072 222.915C311.072 219.475 311.841 216.056 313.406 212.616C316.079 206.564 320.062 202.097 325.408 199.277C330.731 196.437 335.963 195.838 341.085 197.464C344.189 198.475 346.747 200.388 348.739 203.208ZM299.065 236.561C300.402 241.607 299.949 246.96 297.729 252.625C296.621 255.033 295.285 257.358 293.719 259.583C291.728 262.216 289.169 264.441 286.066 266.255L283.049 257.175C285.951 255.544 288.057 253.115 289.394 249.884C289.622 249.493 289.732 249.185 289.732 248.977C290.616 246.365 290.73 243.832 290.053 241.403V241.091C289.847 240.908 289.732 240.7 289.732 240.496C289.055 238.479 287.943 236.957 286.405 235.946C285.723 235.347 285.068 234.935 284.386 234.731C281.511 233.929 278.609 234.34 275.735 235.946C272.837 237.572 270.617 239.98 269.052 243.212C268.828 244.036 268.622 244.838 268.397 245.641L258.382 250.79C258.382 247.371 259.266 243.832 261.055 240.188C263.504 234.132 267.4 229.686 272.723 226.866C278.271 224.025 283.503 223.426 288.396 225.032C291.728 226.246 294.401 228.164 296.392 230.797C297.276 232.219 298.068 233.825 298.727 235.638C298.727 235.842 298.841 236.15 299.065 236.561ZM243.707 258.369C244.815 259.787 245.721 261.413 246.38 263.227C246.38 263.431 246.38 263.722 246.38 264.133V264.441C247.941 269.486 247.488 274.736 245.044 280.193C243.932 283.033 242.481 285.546 240.714 287.767C238.723 289.992 236.388 292.009 233.715 293.843L230.387 284.743C233.262 283.137 235.372 280.704 236.704 277.472C236.933 277.061 237.157 276.753 237.386 276.57C238.041 273.933 238.041 271.4 237.386 268.992V268.372C236.704 266.151 235.596 264.545 234.058 263.535C233.376 263.123 232.607 262.711 231.701 262.32C229.051 261.517 226.149 261.908 223.045 263.535C220.148 265.14 218.042 267.569 216.706 270.801C216.252 271.608 216.047 272.431 216.047 273.234L206.036 278.379C206.036 274.736 206.919 271.113 208.709 267.469C211.153 261.6 215.03 257.275 220.377 254.434C225.718 251.614 230.932 250.894 236.049 252.313C239.377 253.527 241.94 255.544 243.707 258.369ZM194.03 291.722V292.009C195.366 297.075 194.913 302.324 192.693 307.781C191.585 310.397 190.134 312.826 188.367 315.048C186.376 317.477 183.927 319.598 181.03 321.411L178.041 312.332C180.916 310.705 183.021 308.276 184.358 305.044C184.587 304.649 184.696 304.341 184.696 304.138C185.58 301.521 185.694 298.988 185.04 296.559V296.252C185.04 296.064 185.04 295.861 185.04 295.653C184.358 293.843 183.25 292.317 181.685 291.102C181.03 290.508 180.261 290.096 179.378 289.888C176.476 289.085 173.578 289.393 170.699 290.815C167.801 292.629 165.581 295.058 164.016 298.082C163.815 299.092 163.586 299.999 163.361 300.802L153.69 305.947C153.69 302.532 154.459 298.988 156.019 295.345C158.693 289.293 162.702 284.843 168.026 282.023C173.349 279.182 178.471 278.587 183.36 280.193C186.692 281.199 189.365 283.137 191.356 285.957C192.263 287.376 193.036 288.981 193.691 290.815C193.691 291.003 193.805 291.31 194.03 291.722ZM110.672 328.391L101 333.536C101 330.1 101.792 326.477 103.334 322.626C106.008 316.757 110.017 312.436 115.341 309.591C120.687 306.771 125.896 306.155 131.014 307.781C134.346 308.996 137.019 310.909 139.01 313.525C139.916 314.948 140.685 316.47 141.345 318.076C141.345 318.487 141.345 318.795 141.345 318.982C141.345 319.186 141.454 319.394 141.683 319.598C143.02 324.643 142.567 329.792 140.347 335.062C139.239 337.674 137.902 340.107 136.36 342.328C134.117 344.945 131.581 347.166 128.679 349L125.351 339.899C128.226 338.294 130.469 335.865 132.011 332.633C132.011 332.221 132.126 331.909 132.35 331.726C133.234 329.089 133.348 326.66 132.689 324.439C132.689 324.252 132.579 324.044 132.35 323.84C132.35 323.632 132.35 323.429 132.35 323.241C131.673 321.411 130.675 319.906 129.361 318.691C128.679 318.279 127.796 317.888 126.688 317.477C124.015 316.674 121.227 317.065 118.353 318.691C115.226 320.093 113.006 322.522 111.67 325.962C111.239 326.764 110.901 327.588 110.672 328.391Z" fill="#2C3F8D"/>
<path fill-rule="evenodd" clip-rule="evenodd" d="M185.712 305.114C185.712 305.318 185.603 305.625 185.375 306.019C184.045 309.245 181.95 311.67 179.09 313.293L182.064 322.356C184.947 320.546 187.383 318.428 189.364 316.004L193.668 329.609L184.045 334.769L176.768 309.656L185.712 305.114ZM241.446 288.773L245.436 302.399L236.132 307.231L228.849 282.425L238.135 277.597C237.908 277.78 237.685 278.087 237.457 278.498C236.132 281.724 234.032 284.152 231.172 285.755L234.483 294.839C237.143 293.008 239.465 290.994 241.446 288.773ZM137.62 343.235L141.586 357.147L132.3 362L125 337.173L133.63 332.652C133.407 332.835 133.293 333.146 133.293 333.557C131.758 336.783 129.527 339.207 126.667 340.81L129.978 349.894C132.865 348.063 135.388 345.846 137.62 343.235ZM290.217 250.055C290.217 250.263 290.108 250.57 289.88 250.96C288.55 254.186 286.455 256.61 283.568 258.238L286.569 267.301C289.657 265.491 292.203 263.27 294.184 260.642L298.51 274.554L288.887 279.403L281.587 254.597L290.217 250.055ZM346.288 233.432L350.255 247.037L340.974 252.172L333.332 227.059L342.304 222.538C342.304 222.725 342.19 223.032 341.962 223.443C340.632 226.669 338.537 229.093 335.654 230.696L338.988 239.78C341.625 237.974 344.061 235.836 346.288 233.432ZM398.038 206.201L402 219.806L392.719 224.942L385.414 199.849L394.722 195C394.499 195.208 394.385 195.515 394.385 195.905C393.056 199.131 390.847 201.659 387.759 203.465L391.07 212.242C393.707 210.639 396.052 208.626 398.038 206.201Z" fill="#2750A7"/>
<path fill-rule="evenodd" clip-rule="evenodd" d="M157.563 633.163L174.243 691.109L231.291 661.234L214.268 603.288L157.563 633.163ZM122.183 512.708L139.202 570.948L195.934 540.763L178.91 482.812L122.183 512.708ZM209.939 588.329L211.932 587.128L215.944 599.621L272.653 569.746L255.629 511.796L198.925 541.671L202.598 554.495L200.262 555.7L196.589 542.893L139.861 573.082L156.881 631.028L213.613 600.843L209.939 588.329ZM237.951 451.715L181.246 481.611L198.242 539.536L254.974 509.661L237.951 451.715ZM222.608 390.412L239.288 448.359L296.336 418.463L279.34 360.537L222.608 390.412ZM166.902 432.802L164.566 434.024L161.232 422.753L104.504 452.628L121.523 510.574L178.232 480.678L174.243 466.962L176.579 465.74L180.568 479.456L237.296 449.581L220.276 391.634L163.567 421.53L166.902 432.802ZM331.693 538.628L314.354 480.678L257.649 510.884L274.645 568.524L331.693 538.628ZM298.333 417.261L355.06 387.365L338.38 329.415L281.332 359.311L298.333 417.261ZM358.051 388.278L375.075 446.224L431.779 416.328L414.783 358.403L358.051 388.278ZM314.015 478.543L297.018 420.597L239.947 450.493L256.967 508.439L314.015 478.543ZM299.011 419.396L316.034 477.321L372.739 447.446L355.72 389.5L299.011 419.396ZM484 353.058L481.664 354.28L473.823 327.285L417.114 357.181L434.138 415.127L441.457 411.314V413.737L434.793 417.261L441.457 439.967V449.124L432.462 418.463L375.753 448.359L381.079 466.343L378.743 467.565L373.394 449.581L316.689 479.456L333.708 537.406L358.394 524.457V527.19L334.368 539.85L338.041 552.197L335.705 553.419L332.032 541.072L275.328 570.948L279.34 584.516V592.452L273.308 572.17L216.603 602.066L233.284 660.012L279.34 635.607V638.198L173.904 693.846C173.675 694.051 173.451 694.051 173.222 693.846C172.791 693.846 172.567 693.637 172.567 693.244L102.168 452.628C101.944 452.213 101.944 451.92 102.168 451.715C102.397 451.301 102.622 451.092 102.851 451.092L456.8 264.157C457.029 263.948 457.253 263.948 457.482 264.157C457.706 264.157 457.913 264.362 458.137 264.776L484 353.058ZM473.164 324.84L456.145 267.2L399.436 297.096L416.436 355.046L473.164 324.84ZM397.42 298.318L340.372 328.193L357.396 386.143L414.101 356.268L397.42 298.318Z" fill="#B3CED0"/>
<path fill-rule="evenodd" clip-rule="evenodd" d="M157.177 632.315L214.008 602.574L231.07 660.26L173.894 690L157.177 632.315ZM202.312 554.001L198.631 541.235L255.462 511.495L272.523 569.184L215.688 598.924L211.667 586.487L254.466 564.005L245.106 531.523L202.312 554.001ZM209.67 587.683L213.351 600.141L156.493 630.19L139.436 572.505L196.29 542.452L199.971 555.201L157.177 577.679L166.876 610.166L209.67 587.683ZM121.718 512.403L178.572 482.642L195.633 540.331L138.775 570.38L121.718 512.403ZM222.367 390.658L279.225 360.917L296.259 418.582L239.084 448.343L222.367 390.658ZM237.744 451.684L254.805 509.37L197.947 539.11L180.913 481.446L237.744 451.684ZM176.235 465.646L230.069 437.41L220.37 404.62L166.536 432.856L163.195 421.636L220.03 391.874L237.087 449.559L180.233 479.3L176.235 465.646ZM164.195 434.073L132.418 450.776L142.117 483.571L173.894 466.863L177.892 480.517L121.057 510.278L104 452.593L160.854 422.852L164.195 434.073ZM331.695 538.206L274.52 567.967L257.486 510.586L314.317 480.517L331.695 538.206ZM298.26 417.386L281.222 359.696L338.397 329.935L355.114 387.624L298.26 417.386ZM358.111 388.533L414.97 358.792L432.004 416.457L375.173 446.218L358.111 388.533ZM298.94 419.511L355.775 389.749L372.832 447.435L316.001 477.175L298.94 419.511ZM313.977 478.392L256.802 508.153L239.745 450.468L296.943 420.706L313.977 478.392ZM441.703 375.475V411.465L434.368 415.261L417.306 357.576L474.142 327.814L482 354.688L441.703 375.475ZM378.85 467.463L358.456 478.704V524.098L333.715 536.989L316.658 479.3L373.489 449.559L378.85 467.463ZM441.703 449.105V456.53L420.308 444.693L381.191 466.246L375.852 448.343L432.688 418.582L441.703 449.105ZM441.703 439.989L435.024 417.386L441.703 413.878V439.989ZM358.456 526.819V557.634L343.074 549.135L338.057 551.714L334.376 539.423L358.456 526.819ZM335.716 552.93L279.225 582.525V583.888L275.204 570.38L332.035 540.639L335.716 552.93ZM279.225 591.787V634.748L233.066 659.043L216.349 601.358L273.18 571.596L279.225 591.787ZM473.481 325.381L416.627 355.451L399.588 297.761L456.424 268L473.481 325.381ZM397.569 298.978L414.286 356.667L357.455 386.408L340.393 328.718L397.569 298.978Z" fill="white"/>
<path fill-rule="evenodd" clip-rule="evenodd" d="M66 437.392L476.713 222L514 348.219L505.478 343.512L485.234 353.998L459.306 266.059C459.081 265.646 458.875 265.442 458.65 265.442C458.42 265.233 458.195 265.233 457.966 265.442L103.127 451.65C102.897 451.65 102.672 451.859 102.443 452.271C102.218 452.476 102.218 452.767 102.443 453.18L173.018 692.861C173.018 693.253 173.243 693.461 173.675 693.461C173.904 693.666 174.129 693.666 174.359 693.461L280.059 638.029V666.137L260.973 655.51L197.44 689.23V712.614C186.967 715.007 176.719 714.303 166.654 710.488C151.728 705.018 141.796 693.874 136.888 677.073L66 437.392Z" fill="#F5FBFE"/>
<path fill-rule="evenodd" clip-rule="evenodd" d="M164.891 433.844L167.241 432.612L221.266 404L231 437.226L176.974 465.838L174.625 467.07L142.734 484L133 450.77L164.891 433.844Z" fill="#0A2F53"/>
<path fill-rule="evenodd" clip-rule="evenodd" d="M54.4322 433.492L41.7599 390.918L34.0723 428.017L29.7429 426.799L38.7454 367.202L45.0906 370.549L46.0894 369.931L65.7941 436.839L54.4322 433.492ZM196.947 712.329V688.922L259.025 722.057V785L196.947 752.153V712.329ZM502.972 407.94V658.804L481.613 649.386V478.195L441.553 456.586V375.402L502.972 407.94Z" fill="#294C5B"/>
<path fill-rule="evenodd" clip-rule="evenodd" d="M34.0723 428.017H34.4159L36.7478 426.798L10.0427 617.757C8.04518 628.106 9.15847 635.789 13.3963 640.872C14.2805 641.886 15.2793 642.692 16.3925 643.309L0.385037 635.998C-0.297595 632.363 -0.0685238 627.898 1.04018 622.631L29.7428 426.798L34.0723 428.017ZM65.7941 436.839L136.527 676.753C141.424 693.57 151.334 704.725 166.228 710.2C176.271 714.019 186.496 714.724 196.947 712.329V714.453C183.276 719.803 170.035 720.011 157.226 715.054C142.107 709.395 132.083 698.24 127.185 681.61L107.169 613.192L54.4321 433.492L65.7941 436.839ZM584.068 615.629V413.724L647.14 381.186V583.095L584.068 615.629Z" fill="#D5DFF4"/>
<path fill-rule="evenodd" clip-rule="evenodd" d="M54.7727 433.658L108 613.713L57.4732 640.227C43.3329 647.327 31.7543 649.564 22.7837 646.934C22.0993 646.725 21.4334 646.52 20.7722 646.311C20.541 646.106 20.3144 646.022 20.0832 646.022C18.733 645.608 17.4984 644.906 16.3794 643.89C15.2557 643.271 14.2477 642.464 13.3553 641.448C9.07803 636.355 7.95439 628.657 9.97047 618.287L36.924 426.952L34.5703 428.172H34.2235L41.9827 391L54.7727 433.658Z" fill="#9CC1E9"/>
<path fill-rule="evenodd" clip-rule="evenodd" d="M200.282 555.415L202.618 554.213L245.331 531.699L254.672 564.233L211.955 586.751L209.962 587.948L167.25 610.467L157.569 577.929L200.282 555.415ZM279.385 582.782L335.768 553.14L338.105 551.922L343.112 549.339L358.465 557.852L405.507 583.095L342.118 615.938L279.385 582.782ZM807 437.436L744.244 469.974L728.557 461.774V414.943L727.242 413.102L746.919 402.465L807 437.436Z" fill="#FEF4DE"/>
<path fill-rule="evenodd" clip-rule="evenodd" d="M378.405 467.43L380.747 466.209L419.886 444.578L441.293 456.457L481.451 478.109L419.886 511L358 478.711L378.405 467.43ZM729 414.731L666.453 447.329L647.384 436.048V390.349L667.454 380L727.682 412.887L729 414.731Z" fill="#FBEB87"/>
<path fill-rule="evenodd" clip-rule="evenodd" d="M342.118 743.953V615.938L405.507 583.095V709.887L342.118 743.953ZM745.581 532.008L744.244 469.974L807 437.436V500.379L745.581 532.008Z" fill="#EE6F19"/>
<path fill-rule="evenodd" clip-rule="evenodd" d="M419.795 510.922L421.134 704L405.088 695.185V583.11L358 557.827V478.646L419.795 510.922ZM666 447.277V574.274L646.959 564.217V436L666 447.277Z" fill="#F1A20F"/>
<path fill-rule="evenodd" clip-rule="evenodd" d="M422.336 704L421 511.127L482.343 478.285V669.032L422.336 704ZM666.678 447.55L729 415V541.548L666.678 574.412V447.55Z" fill="#FBD01C"/>
<path fill-rule="evenodd" clip-rule="evenodd" d="M280 635.205V582.932L342.707 616.066V744L322.356 733.657V689.604L280 665.903V635.205ZM728.983 524.591V462L744.663 470.195L746 532.189L728.983 524.591Z" fill="#EE6F19"/>
<path fill-rule="evenodd" clip-rule="evenodd" d="M584.372 413L565.506 403.08V375.449L547 366.14L586.045 346L648 380.854L584.372 413Z" fill="#EDF2FB"/>
<path fill-rule="evenodd" clip-rule="evenodd" d="M584 413.043V615L565 604.957V403L584 413.043Z" fill="#B2C3E8"/>
</svg>
