<svg width="315" height="388" viewBox="0 0 315 388" fill="none" xmlns="http://www.w3.org/2000/svg">
<path opacity="0.45" d="M252.104 322.504C260.437 327.315 260.48 335.119 252.202 339.931L177.071 383.592C168.792 388.403 155.323 388.403 146.987 383.592L71.3644 339.931C63.0312 335.12 62.9869 327.317 71.266 322.505L146.395 278.844C154.674 274.033 168.143 274.033 176.479 278.844L252.104 322.504Z" fill="#020B19"/>
<path d="M302.744 126.154L302.284 288.718L83.9946 162.693L84.4571 0.123047L302.744 126.154Z" fill="url(#paint0_linear)"/>
<path d="M119.096 155.799L119.194 253.851L96.948 266.499L96.8496 168.446L119.096 155.799Z" fill="url(#paint1_linear)"/>
<path d="M96.9451 266.501L73.9973 253.165L73.8989 155.112L96.8467 168.448L96.9451 266.501Z" fill="url(#paint2_linear)"/>
<path d="M96.8496 168.447L73.9019 155.111L96.148 142.464L119.096 155.799L96.8496 168.447Z" fill="url(#paint3_linear)"/>
<path d="M86.0128 208.725L86.1112 272.962L63.8611 285.607L63.7627 221.369L86.0128 208.725Z" fill="url(#paint4_linear)"/>
<path d="M63.8611 285.61L40.9134 272.275L40.8149 208.037L63.7627 221.373L63.8611 285.61Z" fill="url(#paint5_linear)"/>
<path d="M63.7657 221.373L40.8179 208.037L63.065 195.389L86.0128 208.725L63.7657 221.373Z" fill="url(#paint6_linear)"/>
<path d="M51.6675 259.22L51.7659 292.837L29.5198 305.484L29.4214 271.867L51.6675 259.22Z" fill="url(#paint7_linear)"/>
<path d="M29.5189 305.482L6.56811 292.148L6.46973 258.531L29.4175 271.867L29.5189 305.482Z" fill="url(#paint8_linear)"/>
<path d="M29.4239 271.867L6.47607 258.526L28.7222 245.878L51.67 259.215L29.4239 271.867Z" fill="url(#paint9_linear)"/>
<path d="M267.544 119.03C267.489 138.368 253.804 146.179 236.964 136.457C220.125 126.735 206.537 103.177 206.592 83.84C206.648 64.5029 220.333 56.7011 237.163 66.4218C253.993 76.1426 267.6 99.6926 267.544 119.03ZM236.986 129.058C250.271 136.727 261.071 130.582 261.114 115.318C261.158 100.054 250.425 81.4773 237.143 73.8083C223.861 66.1394 213.066 72.2958 213.022 87.549C212.979 102.802 223.712 121.39 236.986 129.054" fill="url(#paint10_linear)"/>
<path d="M253.628 110.997C253.598 121.51 246.159 125.748 237.01 120.466C227.861 115.185 220.478 102.391 220.509 91.8769C220.541 81.3629 227.978 77.1353 237.118 82.412C246.258 87.6886 253.656 100.493 253.628 110.997ZM237.03 112.993C242.589 116.201 247.105 113.628 247.122 107.242C247.139 100.857 242.653 93.0942 237.096 89.8861C231.539 86.678 227.031 89.2563 227.014 95.6311C226.997 102.006 231.483 109.789 237.03 112.993Z" fill="url(#paint11_linear)"/>
<path d="M236.986 129.055C250.271 136.724 261.071 130.58 261.115 115.316C261.158 100.052 250.426 81.475 237.143 73.8061C223.861 66.1371 213.067 72.2975 213.024 87.5507C212.98 102.804 223.712 121.394 236.986 129.055ZM237.011 120.463C227.869 115.187 220.478 102.388 220.509 91.8738C220.541 81.3599 227.978 77.1322 237.118 82.4089C246.258 87.6855 253.656 100.491 253.628 110.994C253.599 121.496 246.16 125.745 237.011 120.463Z" fill="url(#paint12_linear)"/>
<path d="M198.757 79.3178C198.688 103.639 215.781 133.245 236.939 145.463C258.097 157.68 275.311 147.878 275.38 123.556C275.449 99.2346 258.355 69.6355 237.188 57.4161C216.02 45.1968 198.825 55.0051 198.757 79.3178ZM236.964 136.458C220.137 126.742 206.538 103.179 206.593 83.8417C206.648 64.5045 220.334 56.7027 237.163 66.4234C253.993 76.1442 267.6 99.6883 267.544 119.03C267.488 138.373 253.803 146.179 236.964 136.458" fill="url(#paint13_linear)"/>
<path d="M227.015 95.6302C227.032 89.2553 231.548 86.6809 237.097 89.8851C242.645 93.0892 247.141 100.864 247.122 107.241C247.104 113.618 242.589 116.196 237.032 112.992C231.475 109.788 226.996 102.016 227.015 95.6302Z" fill="url(#paint14_linear)"/>
<path d="M234.069 55.771C233.456 55.4738 232.848 55.1959 232.243 54.9375C232.029 54.845 231.814 54.7475 231.6 54.66C231.03 54.4267 230.465 54.2132 229.902 54.0134C229.765 53.9652 229.626 53.9071 229.488 53.8599C228.792 53.6217 228.103 53.4112 227.422 53.2222C227.017 53.111 226.618 53.0175 226.22 52.927C226.038 52.8847 225.853 52.8286 225.672 52.7931C225.088 52.6682 224.511 52.5599 223.937 52.4723C223.067 52.3375 222.218 52.2627 221.379 52.2155C221.21 52.2056 221.04 52.1938 220.872 52.1879C220.119 52.1604 219.378 52.1633 218.654 52.2057C218.525 52.2135 218.402 52.2293 218.274 52.2391C217.688 52.2837 217.113 52.351 216.546 52.4408C216.369 52.4694 216.191 52.496 216.015 52.5284C215.371 52.6435 214.732 52.7909 214.102 52.9703C214.073 52.9781 214.045 52.99 214.015 52.9988C213.424 53.172 212.852 53.3797 212.291 53.607C212.127 53.6729 211.964 53.7438 211.799 53.8156C211.318 54.0262 210.847 54.2558 210.388 54.5045C210.236 54.5871 210.079 54.659 209.929 54.7465L220.065 48.8529C220.135 48.8125 220.204 48.7722 220.274 48.7328C220.344 48.6935 220.443 48.6551 220.522 48.6108C220.982 48.3615 221.452 48.1319 221.935 47.922C222.024 47.8836 222.107 47.8324 222.198 47.793C222.272 47.7635 222.352 47.7428 222.426 47.7133C222.988 47.486 223.558 47.2793 224.148 47.1052C224.172 47.0973 224.196 47.0865 224.221 47.0786H224.236C224.858 46.8975 225.499 46.7578 226.149 46.6367C226.225 46.623 226.297 46.5993 226.373 46.5856C226.471 46.5679 226.578 46.5659 226.68 46.5492C227.247 46.4593 227.823 46.392 228.409 46.3474C228.507 46.3395 228.592 46.3208 228.687 46.3149C228.72 46.3149 228.753 46.3149 228.786 46.3149C229.511 46.2716 230.251 46.2697 231.003 46.2962C231.077 46.2962 231.146 46.2913 231.22 46.2962C231.319 46.2962 231.417 46.3199 231.516 46.3248C232.354 46.372 233.204 46.4488 234.074 46.5816H234.079C234.648 46.6692 235.224 46.7784 235.805 46.9024C235.991 46.9438 236.181 47.0008 236.368 47.0392C236.728 47.1229 237.086 47.2026 237.45 47.301C237.486 47.3108 237.523 47.3246 237.558 47.3345C238.241 47.5214 238.93 47.7281 239.624 47.9721C239.762 48.0184 239.9 48.0755 240.039 48.1257C240.6 48.3225 241.165 48.537 241.735 48.7712C241.81 48.8027 241.884 48.8253 241.96 48.8568C242.098 48.9139 242.24 48.9887 242.379 49.0477C242.983 49.3102 243.591 49.588 244.203 49.8813C244.435 49.9934 244.664 50.1037 244.892 50.2208C245.696 50.6262 246.504 51.0543 247.321 51.5247C248.337 52.1151 249.342 52.7508 250.339 53.4161C250.51 53.5292 250.68 53.6404 250.85 53.7566C251.8 54.4041 252.741 55.0867 253.67 55.8044C253.851 55.9432 254.031 56.0849 254.21 56.2276C255.154 56.9696 256.088 57.7362 257.007 58.5421C257.087 58.612 257.165 58.6858 257.244 58.7557C258.131 59.543 259.005 60.3574 259.865 61.1992C259.952 61.2828 260.042 61.3586 260.129 61.4442C260.181 61.4964 260.234 61.5524 260.286 61.6066C260.946 62.26 261.599 62.9252 262.241 63.6092C262.284 63.6554 262.325 63.7076 262.368 63.7499C262.967 64.3915 263.558 65.0459 264.14 65.7131C264.197 65.7781 264.256 65.8391 264.313 65.91C264.386 65.9926 264.452 66.0832 264.524 66.1658C265.485 67.2811 266.424 68.425 267.34 69.5973C267.368 69.6308 267.396 69.6623 267.423 69.6957C267.493 69.7872 267.558 69.8827 267.628 69.9742C268.359 70.913 269.072 71.8745 269.768 72.8586C269.838 72.957 269.912 73.0485 269.981 73.1469C270.013 73.1922 270.041 73.2394 270.074 73.2837C270.738 74.2343 271.384 75.1987 272.011 76.1769C272.072 76.2753 272.138 76.3619 272.198 76.4564C272.288 76.5971 272.371 76.7417 272.459 76.8844C272.967 77.6868 273.463 78.498 273.946 79.3181C274.021 79.445 274.102 79.569 274.177 79.6969C274.206 79.7442 274.232 79.7953 274.258 79.8426C274.805 80.7821 275.333 81.7304 275.844 82.6876C275.887 82.7663 275.933 82.843 275.975 82.9218C276.059 83.0802 276.135 83.2426 276.217 83.401C276.618 84.1634 277.007 84.9303 277.385 85.7018C277.463 85.8612 277.549 86.0187 277.627 86.1801C277.673 86.2785 277.712 86.3769 277.758 86.4684C278.224 87.4446 278.676 88.4238 279.105 89.4108C279.118 89.4423 279.134 89.4728 279.147 89.5092C279.193 89.6155 279.233 89.7228 279.279 89.83C279.661 90.7209 280.026 91.6148 280.374 92.5116C280.431 92.6573 280.496 92.8 280.551 92.9456C280.599 93.0657 280.636 93.1877 280.682 93.3088C281.084 94.3686 281.469 95.4314 281.827 96.4972C281.833 96.5188 281.841 96.5395 281.849 96.5611C281.871 96.6261 281.887 96.692 281.909 96.7579C282.271 97.8552 282.603 98.9544 282.915 100.054C282.953 100.19 283.003 100.328 283.041 100.465C283.063 100.541 283.076 100.616 283.096 100.69C283.446 101.968 283.76 103.245 284.036 104.521C284.06 104.634 284.095 104.748 284.119 104.861C284.155 105.025 284.18 105.191 284.217 105.353C284.315 105.855 284.414 106.355 284.505 106.856C284.569 107.204 284.632 107.55 284.69 107.899C284.776 108.414 284.851 108.928 284.924 109.443C284.958 109.685 285.002 109.928 285.034 110.17C285.043 110.234 285.045 110.296 285.052 110.36C285.192 111.461 285.3 112.557 285.375 113.647C285.392 113.879 285.404 114.109 285.417 114.341C285.483 115.458 285.527 116.569 285.524 117.667C285.489 129.749 281.225 138.25 274.348 142.246L264.212 148.14C271.088 144.143 275.352 135.642 275.387 123.56C275.387 122.462 275.345 121.35 275.281 120.234C275.267 120.003 275.254 119.772 275.238 119.539C275.161 118.451 275.053 117.356 274.915 116.256C274.877 115.949 274.831 115.64 274.788 115.332C274.715 114.821 274.64 114.308 274.555 113.794C274.496 113.446 274.433 113.097 274.369 112.747C274.278 112.249 274.183 111.75 274.081 111.252C274.024 110.973 273.963 110.694 273.903 110.414C273.625 109.139 273.311 107.861 272.963 106.582C272.904 106.371 272.843 106.16 272.783 105.95C272.471 104.848 272.138 103.748 271.775 102.648C271.748 102.563 271.723 102.478 271.695 102.393C271.339 101.327 270.952 100.264 270.55 99.2034C270.452 98.9367 270.345 98.671 270.242 98.4033C269.892 97.5078 269.529 96.6143 269.147 95.7247C269.087 95.5879 269.032 95.4481 268.972 95.3104C268.543 94.3263 268.086 93.3422 267.625 92.367C267.503 92.1111 267.375 91.8582 267.252 91.6033C266.873 90.8285 266.483 90.0587 266.082 89.2937C265.958 89.0605 265.839 88.8243 265.714 88.5911C265.202 87.6326 264.673 86.6813 264.126 85.7372C264.028 85.5611 263.916 85.3879 263.813 85.2117C263.33 84.3917 262.835 83.5801 262.327 82.7771C262.179 82.5429 262.032 82.3067 261.88 82.0735C261.25 81.0966 260.604 80.1316 259.942 79.1783C259.843 79.0347 259.737 78.8949 259.638 78.7512C258.945 77.7731 258.235 76.8113 257.509 75.8659C257.411 75.739 257.312 75.6091 257.214 75.4811C256.301 74.3068 255.361 73.1633 254.396 72.0506C254.267 71.902 254.143 71.7554 254.015 71.6048C253.424 70.9337 252.828 70.2744 252.228 69.6268C252.189 69.5855 252.152 69.5422 252.112 69.5009C251.471 68.8173 250.819 68.1488 250.157 67.4953C250.018 67.3585 249.877 67.2257 249.738 67.0899C248.877 66.2488 248.003 65.4343 247.116 64.6464C247.036 64.5765 246.959 64.5027 246.879 64.4329C245.962 63.6269 245.027 62.8583 244.082 62.1183C243.902 61.9756 243.723 61.8339 243.542 61.6942C242.612 60.9804 241.673 60.2978 240.724 59.6463C240.554 59.5312 240.383 59.42 240.212 59.3068C239.215 58.6415 238.21 58.0029 237.194 57.4154C236.378 56.944 235.569 56.5169 234.765 56.1105C234.529 55.9934 234.299 55.8841 234.069 55.771Z" fill="url(#paint15_linear)"/>
<path d="M74.0753 113.688L93.1744 98.2012L89.363 122.399L83.7459 119.203L72.9663 137.879L64.6429 133.136L40.3361 175.237L26.1939 167.179L9.37888 196.314L5.73779 194.242L26.1713 158.85L40.3115 166.903L64.6183 124.807L72.9426 129.55L80.1136 117.129L74.0753 113.688Z" fill="url(#paint16_linear)"/>
<path d="M37.7891 104.395C37.8038 104.027 37.8107 103.663 37.8088 103.3C37.812 103.662 37.8055 104.027 37.7891 104.395Z" fill="#127171"/>
<path d="M34.5615 117.435C34.8253 116.834 35.0782 116.226 35.3114 115.62C35.8547 114.223 36.3205 112.797 36.7068 111.35C36.3219 112.8 35.8561 114.227 35.3114 115.624C35.0759 116.231 34.8259 116.835 34.5615 117.435Z" fill="#1BAFAF"/>
<path d="M32.2319 91.1348C33.4256 91.8239 34.4554 92.764 35.2501 93.8902C34.4547 92.7647 33.425 91.8247 32.2319 91.1348Z" fill="#1BAFAF"/>
<path d="M28.3057 89.9421C29.6853 90.0495 31.0249 90.4566 32.2311 91.1349C31.0233 90.4603 29.6846 90.0536 28.3057 89.9421Z" fill="#1BAFAF"/>
<path d="M27.786 89.9086C26.4202 89.8636 25.0557 90.0296 23.7404 90.4006C23.3468 90.5042 22.9532 90.6256 22.5596 90.7647C22.9591 90.625 23.3527 90.5019 23.7404 90.3957C25.0564 90.0286 26.4206 89.8643 27.786 89.9086Z" fill="#1BAFAF"/>
<path d="M18.8436 92.4922L18.9037 113.434L34.2849 118.054C33.6944 119.347 33.0341 120.619 32.3167 121.857C31.1634 123.86 29.8573 125.77 28.4099 127.572C27.0311 129.3 25.5081 130.907 23.8575 132.378C22.35 133.726 20.7108 134.919 18.9647 135.938C17.4299 136.845 15.7839 137.548 14.0679 138.03C12.585 138.448 11.0402 138.603 9.50373 138.487C8.12539 138.385 6.78706 137.978 5.58596 137.294C4.38487 136.61 3.3512 135.667 2.56005 134.534C1.68555 133.273 1.0409 131.867 0.655859 130.381C0.209062 128.667 -0.0112936 126.902 0.000445399 125.13C0.00558732 123.117 0.214626 121.109 0.624355 119.138C1.06812 116.978 1.69359 114.859 2.4941 112.805C4.17818 108.497 6.50433 104.47 9.39351 100.859C10.7734 99.1316 12.2966 97.5238 13.9468 96.0526C15.457 94.7064 17.0974 93.5137 18.8436 92.4922Z" fill="url(#paint17_linear)"/>
<path d="M35.25 93.8953C35.7578 94.612 36.1843 95.383 36.5215 96.1941C36.1823 95.384 35.7559 94.6132 35.25 93.8953Z" fill="#1BAFAF"/>
<path d="M18.8447 92.4908C20.0245 91.8009 21.2671 91.2242 22.5557 90.7687C22.9552 90.6303 23.3488 90.5089 23.7366 90.4046C25.1328 90.007 26.5854 89.8437 28.035 89.9214C28.1246 89.9263 28.2132 89.9342 28.3017 89.9411C29.6807 90.0403 31.02 90.4468 32.2215 91.1308C33.423 91.8148 34.4562 92.759 35.2454 93.8941C35.7513 94.612 36.1776 95.3828 36.5168 96.193C36.7695 96.7941 36.9816 97.4115 37.1516 98.0411C37.5971 99.7569 37.8174 101.523 37.807 103.296C37.807 103.662 37.8021 104.026 37.7873 104.394C37.7158 106.039 37.5144 107.675 37.185 109.288C37.0453 109.974 36.8842 110.662 36.7019 111.35C36.3156 112.798 35.8497 114.223 35.3064 115.62C35.0732 116.226 34.8193 116.834 34.5566 117.435C34.465 117.642 34.3745 117.847 34.281 118.053L18.8988 113.434L18.8447 92.4908Z" fill="url(#paint18_linear)"/>
<path d="M276.158 254.896C279.93 257.074 282.994 255.325 283.007 250.99C282.883 248.628 282.201 246.329 281.019 244.281C279.836 242.233 278.186 240.493 276.203 239.205C272.432 237.027 269.365 238.776 269.354 243.107C269.478 245.47 270.159 247.769 271.342 249.818C272.524 251.867 274.175 253.607 276.158 254.896Z" fill="url(#paint19_linear)"/>
<path d="M280.392 281.515C280.39 281.661 280.352 281.804 280.282 281.931C280.212 282.058 280.111 282.166 279.989 282.246L288.818 277.115C288.94 277.035 289.04 276.927 289.11 276.8C289.18 276.672 289.218 276.53 289.219 276.384L289.81 269.756L280.981 274.886L280.392 281.515Z" fill="url(#paint20_linear)"/>
<path d="M257.194 220.906L257.138 220.881C257.088 220.859 257.035 220.841 256.982 220.827C256.943 220.816 256.904 220.808 256.865 220.802C256.832 220.797 256.799 220.794 256.766 220.792C256.736 220.791 256.705 220.791 256.675 220.792C256.646 220.792 256.619 220.797 256.591 220.801C256.564 220.806 256.537 220.813 256.511 220.821C256.484 220.828 256.458 220.838 256.432 220.849C256.406 220.859 256.38 220.871 256.356 220.886H256.348L247.519 226.017L247.528 226.012C247.552 225.998 247.577 225.986 247.604 225.976C247.628 225.965 247.655 225.956 247.681 225.947C247.708 225.938 247.736 225.933 247.762 225.928C247.789 225.923 247.818 225.92 247.847 225.918C247.875 225.917 247.907 225.918 247.936 225.918C247.969 225.92 248.002 225.923 248.035 225.928C248.074 225.934 248.113 225.942 248.152 225.953C248.205 225.967 248.257 225.985 248.307 226.007L248.363 226.031L254.419 228.88L263.249 223.749L257.194 220.906Z" fill="url(#paint21_linear)"/>
<path d="M314.162 255.356V255.348V255.321C314.151 255.243 314.138 255.167 314.122 255.09C314.114 255.054 314.104 255.02 314.095 254.985L314.082 254.932L314.07 254.881C314.052 254.82 314.034 254.759 314.014 254.699C314.002 254.662 313.987 254.625 313.973 254.588L313.964 254.561L313.954 254.535C313.936 254.484 313.914 254.436 313.893 254.382C313.873 254.328 313.851 254.284 313.828 254.24L313.812 254.21L313.801 254.188L313.76 254.105C313.736 254.06 313.711 254.016 313.686 253.974C313.66 253.932 313.638 253.894 313.613 253.854V253.849C313.584 253.807 313.557 253.764 313.527 253.723C313.498 253.682 313.465 253.635 313.429 253.593L313.396 253.553L313.372 253.523C313.354 253.502 313.336 253.478 313.318 253.457C313.27 253.403 313.219 253.351 313.17 253.301L313.152 253.286C313.061 253.196 312.962 253.114 312.857 253.039L306.809 248.898C306.725 248.417 306.631 247.934 306.529 247.45C306.519 247.398 306.511 247.347 306.5 247.296C306.471 247.159 306.436 247.021 306.402 246.885C306.353 246.666 306.303 246.448 306.251 246.229C306.204 246.032 306.153 245.836 306.101 245.633C306.045 245.413 305.989 245.194 305.929 244.974C305.91 244.9 305.892 244.826 305.872 244.753C305.852 244.68 305.834 244.632 305.816 244.571C305.628 243.902 305.423 243.234 305.203 242.568C305.194 242.54 305.187 242.512 305.176 242.484C305.157 242.424 305.133 242.364 305.111 242.303C304.904 241.69 304.684 241.078 304.452 240.467C304.439 240.436 304.429 240.403 304.419 240.369L304.401 240.327C304.238 239.902 304.068 239.48 303.893 239.059L307.787 235.922C307.851 235.868 307.905 235.804 307.946 235.731C307.959 235.704 307.971 235.676 307.982 235.647C308.008 235.593 308.03 235.536 308.047 235.478C308.056 235.438 308.062 235.398 308.067 235.358C308.079 235.297 308.086 235.235 308.09 235.172C308.09 235.126 308.09 235.074 308.09 235.028C308.09 234.961 308.09 234.895 308.079 234.824C308.079 234.808 308.079 234.792 308.079 234.774C308.07 234.696 308.056 234.616 308.038 234.535V234.528L308.033 234.512C308.02 234.453 308.007 234.394 307.99 234.334C307.973 234.274 307.955 234.213 307.934 234.151V234.146V234.137C307.916 234.084 307.897 234.032 307.878 233.979C307.858 233.927 307.836 233.872 307.811 233.815L307.787 233.764L307.773 233.731L307.737 233.653C307.71 233.6 307.685 233.546 307.656 233.493C307.628 233.44 307.604 233.395 307.578 233.352L303.854 226.903L303.843 226.884C303.811 226.829 303.778 226.774 303.745 226.722C303.711 226.67 303.672 226.611 303.634 226.558C303.619 226.535 303.601 226.513 303.584 226.491L303.558 226.457L303.509 226.391C303.461 226.327 303.411 226.267 303.362 226.21C303.339 226.183 303.315 226.162 303.293 226.136L303.233 226.072C303.21 226.049 303.188 226.024 303.165 226.001C303.115 225.951 303.067 225.912 303.014 225.868C302.982 225.839 302.949 225.808 302.916 225.782C302.82 225.704 302.718 225.633 302.612 225.569C302.544 225.53 302.474 225.495 302.402 225.464L302.385 225.459C302.371 225.453 302.356 225.449 302.342 225.444C302.306 225.432 302.269 225.417 302.235 225.408C302.201 225.399 302.185 225.397 302.16 225.392L302.136 225.387L302.116 225.382C302.083 225.377 302.05 225.374 302.018 225.373C301.989 225.371 301.96 225.371 301.932 225.373L301.856 225.381C301.833 225.386 301.809 225.391 301.785 225.399C301.768 225.403 301.751 225.409 301.735 225.416L297.043 227.171L296.821 226.883C296.736 226.773 296.647 226.668 296.561 226.557C296.398 226.352 296.236 226.146 296.069 225.943C295.942 225.788 295.814 225.634 295.687 225.481C295.523 225.284 295.356 225.087 295.189 224.89C295.13 224.823 295.073 224.752 295.014 224.685C294.955 224.618 294.901 224.56 294.845 224.497C294.566 224.18 294.285 223.868 294.001 223.562C293.918 223.472 293.838 223.381 293.754 223.292C293.395 222.91 293.03 222.536 292.661 222.169L292.593 222.1C292.534 222.042 292.475 221.988 292.416 221.931C292.106 221.628 291.793 221.333 291.477 221.046C291.369 220.947 291.261 220.849 291.151 220.75C290.758 220.396 290.364 220.048 289.963 219.713L281.133 224.844C281.535 225.179 281.93 225.527 282.324 225.881C282.432 225.98 282.542 226.078 282.649 226.177C282.964 226.466 283.277 226.761 283.588 227.062C283.668 227.141 283.752 227.22 283.834 227.3C284.202 227.666 284.566 228.041 284.927 228.423C285.01 228.512 285.091 228.603 285.174 228.693C285.457 228.999 285.738 229.31 286.016 229.626C286.131 229.757 286.248 229.89 286.362 230.019C286.529 230.216 286.693 230.413 286.854 230.61C286.983 230.763 287.111 230.917 287.237 231.071C287.403 231.276 287.564 231.482 287.729 231.687C287.893 231.893 288.05 232.093 288.208 232.301L292.9 230.545C292.963 230.521 293.03 230.507 293.097 230.503C293.166 230.498 293.236 230.503 293.304 230.515L293.329 230.521C293.391 230.534 293.452 230.551 293.511 230.573C293.526 230.578 293.54 230.582 293.554 230.588C293.632 230.619 293.708 230.656 293.781 230.698C293.887 230.762 293.989 230.833 294.085 230.911C294.118 230.938 294.15 230.968 294.183 230.997C294.257 231.061 294.331 231.127 294.402 231.201L294.462 231.265C294.553 231.364 294.642 231.471 294.727 231.585L294.754 231.622C294.851 231.754 294.941 231.891 295.023 232.033L298.746 238.482C298.819 238.608 298.883 238.734 298.943 238.862L298.958 238.895C299.014 239.02 299.062 239.145 299.106 239.268V239.276C299.145 239.396 299.178 239.519 299.204 239.643V239.66C299.224 239.758 299.24 239.857 299.25 239.956C299.258 240.027 299.259 240.092 299.26 240.159C299.26 240.208 299.26 240.258 299.26 240.304C299.256 240.366 299.248 240.429 299.236 240.49C299.229 240.53 299.226 240.573 299.217 240.61C299.2 240.668 299.178 240.725 299.151 240.779C299.138 240.807 299.129 240.838 299.116 240.863C299.075 240.935 299.021 241 298.957 241.054L295.063 244.191C295.239 244.612 295.408 245.034 295.571 245.459C295.588 245.504 295.604 245.551 295.622 245.595C295.856 246.207 296.075 246.82 296.282 247.434C296.312 247.521 296.343 247.609 296.372 247.695C296.593 248.362 296.797 249.03 296.984 249.698C297.022 249.833 297.062 249.968 297.099 250.104C297.159 250.323 297.215 250.542 297.271 250.761C297.322 250.958 297.372 251.155 297.421 251.351C297.473 251.572 297.519 251.793 297.573 252.014C297.615 252.2 297.657 252.387 297.695 252.573C297.794 253.057 297.892 253.541 297.975 254.022L304.023 258.163C304.129 258.237 304.227 258.319 304.318 258.41C304.395 258.485 304.468 258.564 304.537 258.647L304.561 258.677C304.639 258.773 304.711 258.874 304.777 258.978C304.846 259.086 304.909 259.197 304.966 259.312L304.977 259.334C305.033 259.447 305.083 259.565 305.128 259.685L305.138 259.711C305.18 259.824 305.216 259.94 305.246 260.056L305.259 260.108C305.287 260.218 305.308 260.33 305.324 260.442L305.329 260.47C305.345 260.595 305.353 260.72 305.354 260.846V260.9L297.939 265.208C297.471 267.559 296.458 269.768 294.981 271.657L298.845 279.273C298.902 279.386 298.951 279.502 298.993 279.621L299.001 279.643C299.041 279.754 299.074 279.868 299.1 279.983V280.003C299.114 280.082 299.122 280.157 299.131 280.235C299.143 280.349 299.146 280.463 299.14 280.577C299.14 280.596 299.14 280.618 299.14 280.638C299.129 280.758 299.103 280.876 299.064 280.991C299.055 281.02 299.042 281.047 299.031 281.076C298.998 281.154 298.957 281.228 298.909 281.298C298.891 281.323 298.873 281.349 298.854 281.373C298.785 281.456 298.704 281.526 298.612 281.581L307.441 276.45C307.533 276.396 307.615 276.325 307.682 276.242C307.704 276.218 307.719 276.192 307.738 276.167C307.786 276.097 307.826 276.023 307.859 275.945C307.87 275.916 307.884 275.889 307.894 275.861C307.933 275.746 307.958 275.627 307.969 275.507C307.969 275.487 307.969 275.465 307.969 275.446C307.976 275.332 307.973 275.217 307.96 275.104C307.96 275.084 307.96 275.067 307.96 275.047C307.952 274.99 307.943 274.931 307.931 274.872V274.852V274.843C307.92 274.791 307.907 274.738 307.892 274.686C307.878 274.634 307.866 274.593 307.851 274.549L307.837 274.512L307.829 274.49C307.822 274.467 307.815 274.445 307.806 274.423C307.791 274.384 307.775 274.346 307.758 274.307C307.742 274.27 307.725 274.232 307.706 274.195L307.682 274.144L303.817 266.527C304.415 265.776 304.93 264.963 305.353 264.101L305.345 266.918C305.369 267.136 305.336 267.358 305.248 267.56C305.161 267.762 305.023 267.938 304.847 268.071L313.676 262.94C313.754 262.894 313.824 262.835 313.882 262.766C314.09 262.484 314.195 262.138 314.177 261.788L314.193 255.717C314.191 255.596 314.18 255.475 314.162 255.356Z" fill="url(#paint22_linear)"/>
<path d="M289.4 212.423C289.4 212.386 289.394 212.348 289.389 212.311C289.382 212.251 289.372 212.189 289.358 212.128L289.348 212.089L289.342 212.06C289.334 212.032 289.329 212.005 289.321 211.977C289.308 211.932 289.294 211.886 289.279 211.841C289.264 211.797 289.253 211.764 289.238 211.725V211.719V211.711C289.222 211.669 289.204 211.628 289.187 211.586C289.169 211.545 289.149 211.503 289.13 211.461C289.11 211.42 289.101 211.405 289.087 211.377L289.079 211.359L289.066 211.335C289.043 211.293 289.02 211.251 288.995 211.209C288.968 211.163 288.941 211.12 288.914 211.077L288.887 211.035L288.869 211.008L288.821 210.937C288.784 210.886 288.748 210.839 288.709 210.787C288.694 210.765 288.674 210.744 288.657 210.722L288.62 210.677C288.603 210.657 288.588 210.637 288.573 210.618C288.511 210.545 288.446 210.477 288.376 210.41L288.371 210.406C288.307 210.344 288.24 210.288 288.174 210.232C288.141 210.204 288.107 210.17 288.076 210.143C287.974 210.064 287.867 209.992 287.755 209.927L282.471 206.877C282.385 206.827 282.296 206.783 282.205 206.745C282.182 206.735 282.161 206.73 282.139 206.721L282.072 206.699C282.043 206.69 282.015 206.677 281.987 206.67C281.934 206.656 281.88 206.644 281.826 206.636C281.811 206.636 281.797 206.636 281.783 206.636H281.755L281.693 206.63C281.655 206.63 281.615 206.63 281.578 206.63C281.543 206.632 281.509 206.636 281.475 206.642H281.464C281.436 206.647 281.409 206.653 281.383 206.661C281.354 206.669 281.326 206.679 281.298 206.691C281.271 206.702 281.244 206.714 281.219 206.729L281.211 206.734L272.382 211.864C272.461 211.819 272.547 211.788 272.636 211.772H272.641C272.736 211.756 272.832 211.753 272.927 211.764H272.954C273.053 211.777 273.15 211.8 273.244 211.832L273.311 211.855C273.426 211.898 273.538 211.95 273.645 212.012L275.792 213.252C275.761 213.252 275.727 213.243 275.694 213.242C275.204 213.22 274.713 213.224 274.223 213.254C273.85 213.278 273.483 213.317 273.124 213.373L268.454 206.211L268.39 206.113C268.363 206.073 268.334 206.034 268.304 205.997C268.273 205.959 268.235 205.909 268.198 205.87C268.151 205.815 268.1 205.764 268.054 205.715C267.91 205.571 267.748 205.446 267.572 205.343C267.501 205.301 267.427 205.265 267.35 205.233C267.286 205.206 267.22 205.183 267.153 205.165C267.103 205.152 267.051 205.141 267 205.133C266.956 205.126 266.912 205.122 266.868 205.12C266.828 205.117 266.788 205.117 266.748 205.12C266.711 205.122 266.674 205.126 266.638 205.133C266.602 205.139 266.567 205.147 266.533 205.156C266.5 205.166 266.467 205.178 266.435 205.191C266.401 205.205 266.368 205.221 266.336 205.238L266.328 205.243L262.58 207.378L253.752 212.51L257.499 210.373H257.507C257.539 210.355 257.572 210.339 257.606 210.326C257.638 210.313 257.671 210.301 257.704 210.291C257.738 210.282 257.772 210.274 257.807 210.268C257.844 210.261 257.881 210.257 257.919 210.254C257.957 210.254 257.997 210.254 258.037 210.254C258.076 210.254 258.125 210.262 258.17 210.268C258.222 210.276 258.273 210.287 258.323 210.3C258.39 210.319 258.456 210.341 258.52 210.368C258.596 210.4 258.671 210.437 258.742 210.478C258.918 210.582 259.08 210.707 259.224 210.85C259.273 210.899 259.323 210.949 259.369 211.004C259.415 211.059 259.439 211.088 259.474 211.133C259.51 211.177 259.531 211.209 259.559 211.249C259.587 211.289 259.601 211.311 259.623 211.347L264.293 218.508C264.653 218.453 265.019 218.414 265.393 218.39C265.882 218.36 266.374 218.356 266.864 218.378C267.419 218.403 267.972 218.457 268.521 218.542C269.181 218.644 269.836 218.782 270.48 218.957C270.781 219.039 271.084 219.128 271.389 219.227L278.736 214.957L278.923 215.065C279.034 215.131 279.141 215.203 279.244 215.283C279.279 215.309 279.311 215.342 279.342 215.371C279.409 215.427 279.478 215.483 279.539 215.546C279.626 215.632 279.709 215.723 279.787 215.817L279.823 215.862C279.898 215.955 279.969 216.049 280.036 216.148L280.054 216.175C280.123 216.281 280.188 216.39 280.245 216.5L280.254 216.518C280.312 216.629 280.363 216.743 280.408 216.859V216.867C280.447 216.976 280.48 217.088 280.506 217.201L280.514 217.229C280.54 217.339 280.558 217.452 280.566 217.565L281.114 224.847L289.943 219.716L289.4 212.423Z" fill="url(#paint23_linear)"/>
<path d="M288.51 266.478C285.875 267.035 282.69 266.414 279.259 264.434C270.229 259.218 262.931 246.578 262.961 236.198C262.975 231.499 264.492 228.077 266.983 226.215C262.681 227.123 259.848 231.174 259.83 237.608C259.801 247.988 267.099 260.63 276.129 265.843C281.069 268.696 285.501 268.728 288.51 266.478Z" fill="url(#paint24_linear)"/>
<path d="M247.002 233.244C247.014 233.762 247.139 234.271 247.37 234.735C247.6 235.2 247.93 235.607 248.336 235.929L254.389 240.073C254.987 243.453 255.964 246.754 257.301 249.914L253.403 253.049C252.916 253.442 253.009 254.565 253.627 255.623L257.349 262.072C257.642 262.613 258.068 263.071 258.587 263.403C258.714 263.493 258.859 263.553 259.013 263.58C259.166 263.606 259.323 263.598 259.473 263.557L264.168 261.803C266.242 264.547 268.616 267.05 271.245 269.267L271.789 276.549C271.866 277.062 272.054 277.552 272.34 277.984C272.627 278.416 273.005 278.78 273.448 279.05L278.731 282.101C279.6 282.601 280.324 282.349 280.396 281.519L280.987 274.889C283.265 275.675 285.694 275.921 288.083 275.608L292.749 282.767C292.971 283.12 293.272 283.415 293.629 283.63C293.81 283.754 294.02 283.829 294.238 283.846C294.456 283.863 294.675 283.823 294.873 283.728L298.62 281.592C299.235 281.242 299.338 280.239 298.855 279.283L294.991 271.667C296.468 269.779 297.481 267.57 297.949 265.219L304.001 268.065C304.761 268.42 305.344 267.924 305.347 266.927L305.364 260.856C305.353 260.338 305.228 259.828 304.997 259.364C304.766 258.9 304.436 258.492 304.029 258.171L297.981 254.029C297.381 250.65 296.404 247.349 295.069 244.188L298.963 241.051C299.448 240.657 299.357 239.534 298.743 238.479L295.019 232.031C294.724 231.489 294.298 231.03 293.779 230.697C293.652 230.607 293.506 230.547 293.353 230.521C293.2 230.494 293.043 230.502 292.893 230.544L288.201 232.299C286.127 229.556 283.753 227.052 281.124 224.835L280.576 217.553C280.501 217.04 280.314 216.55 280.028 216.118C279.742 215.686 279.363 215.323 278.92 215.054L273.639 212.004C272.77 211.504 272.045 211.756 271.966 212.582L271.381 219.214C269.104 218.427 266.675 218.181 264.286 218.496L259.615 211.334C259.393 210.982 259.092 210.687 258.736 210.471C258.556 210.347 258.347 210.272 258.129 210.255C257.911 210.237 257.693 210.278 257.496 210.373L253.748 212.509C253.13 212.856 253.027 213.86 253.508 214.815L257.377 222.433C255.898 224.32 254.885 226.53 254.418 228.881L248.362 226.034C247.607 225.679 247.02 226.173 247.017 227.171L247.002 233.244ZM259.829 237.61C259.858 227.235 267.21 223.046 276.236 228.262C285.262 233.477 292.563 246.117 292.533 256.492C292.502 266.867 285.162 271.061 276.128 265.841C267.094 260.62 259.798 247.986 259.829 237.61Z" fill="url(#paint25_linear)"/>
<path d="M230.416 196.524C232.713 197.851 234.58 196.785 234.587 194.145C234.512 192.707 234.097 191.306 233.377 190.059C232.657 188.811 231.652 187.752 230.444 186.967C228.148 185.641 226.28 186.706 226.272 189.344C226.348 190.783 226.763 192.183 227.483 193.431C228.203 194.679 229.208 195.739 230.416 196.524Z" fill="#F57455"/>
<path d="M232.996 212.734C232.994 212.823 232.971 212.91 232.928 212.988C232.886 213.065 232.824 213.131 232.75 213.18L238.127 210.054C238.202 210.006 238.263 209.94 238.305 209.863C238.348 209.786 238.371 209.699 238.372 209.61L238.73 205.576L233.353 208.7L232.996 212.734Z" fill="#C86148"/>
<path d="M218.866 175.823L218.832 175.808C218.801 175.794 218.768 175.784 218.734 175.776C218.711 175.768 218.687 175.763 218.663 175.759C218.643 175.756 218.623 175.754 218.602 175.754C218.584 175.753 218.565 175.753 218.547 175.754C218.53 175.754 218.513 175.756 218.496 175.76C218.479 175.762 218.462 175.766 218.446 175.771L218.398 175.787C218.383 175.795 218.367 175.802 218.352 175.811H218.347L212.97 178.935H212.975C212.99 178.927 213.005 178.919 213.021 178.913C213.037 178.906 213.052 178.9 213.069 178.895C213.085 178.89 213.102 178.886 213.119 178.884L213.17 178.878C213.188 178.877 213.207 178.877 213.225 178.878C213.246 178.878 213.266 178.88 213.286 178.884C213.31 178.887 213.334 178.892 213.357 178.899C213.39 178.908 213.423 178.918 213.455 178.931L213.489 178.946L217.177 180.681L222.554 177.557L218.866 175.823Z" fill="#D55E41"/>
<path d="M253.563 196.804V196.799V196.783C253.557 196.735 253.549 196.684 253.539 196.642L253.525 196.578L253.516 196.547L253.508 196.514C253.498 196.478 253.486 196.44 253.474 196.404C253.463 196.367 253.459 196.359 253.451 196.335L253.445 196.32L253.439 196.304C253.428 196.273 253.415 196.242 253.402 196.212C253.388 196.181 253.376 196.153 253.361 196.124L253.352 196.106L253.344 196.093L253.32 196.042L253.275 195.962C253.261 195.938 253.246 195.914 253.231 195.889C253.215 195.863 253.198 195.837 253.18 195.811C253.162 195.786 253.142 195.757 253.121 195.733L253.101 195.709L253.087 195.69L253.054 195.65C253.026 195.617 252.995 195.585 252.965 195.552L252.954 195.542C252.898 195.487 252.838 195.437 252.774 195.392L249.089 192.869C249.039 192.574 248.982 192.279 248.92 191.983C248.914 191.952 248.909 191.921 248.902 191.885C248.884 191.801 248.864 191.718 248.845 191.635C248.816 191.501 248.785 191.368 248.753 191.234C248.72 191.101 248.693 190.992 248.661 190.872C248.626 190.738 248.592 190.604 248.555 190.471C248.544 190.426 248.532 190.381 248.52 190.336C248.507 190.291 248.496 190.262 248.486 190.225C248.371 189.818 248.247 189.411 248.113 189.005L248.096 188.953C248.086 188.917 248.07 188.881 248.058 188.843C247.932 188.47 247.798 188.097 247.656 187.725L247.636 187.668L247.626 187.642C247.528 187.384 247.424 187.126 247.317 186.869L249.69 184.959C249.729 184.927 249.763 184.887 249.788 184.843C249.797 184.826 249.804 184.809 249.811 184.792C249.827 184.759 249.841 184.724 249.851 184.688C249.856 184.666 249.859 184.64 249.862 184.616C249.869 184.578 249.874 184.54 249.877 184.502C249.877 184.475 249.877 184.445 249.877 184.415C249.877 184.384 249.877 184.334 249.871 184.29V184.26C249.865 184.213 249.856 184.162 249.846 184.116V184.124V184.115C249.837 184.078 249.83 184.042 249.818 184.006C249.807 183.971 249.797 183.933 249.785 183.895V183.89C249.775 183.858 249.763 183.826 249.752 183.792C249.74 183.757 249.725 183.725 249.71 183.693L249.696 183.662L249.687 183.643L249.665 183.596C249.649 183.564 249.632 183.53 249.615 183.498C249.597 183.465 249.583 183.441 249.568 183.412L247.304 179.486L247.298 179.475C247.279 179.441 247.258 179.408 247.237 179.376C247.217 179.345 247.194 179.309 247.17 179.278L247.14 179.238L247.125 179.215L247.096 179.175C247.065 179.136 247.035 179.1 247.006 179.064C246.992 179.048 246.977 179.035 246.964 179.019L246.927 178.981L246.886 178.937C246.855 178.908 246.825 178.883 246.793 178.857C246.762 178.83 246.755 178.82 246.734 178.805C246.676 178.757 246.614 178.713 246.548 178.676C246.508 178.651 246.465 178.63 246.421 178.612H246.412L246.385 178.603C246.364 178.594 246.342 178.586 246.32 178.58C246.305 178.576 246.289 178.573 246.274 178.57H246.259H246.246L246.185 178.564H246.131L246.085 178.569L246.042 178.579L246.012 178.589L243.158 179.659C243.113 179.6 243.069 179.542 243.022 179.484C242.976 179.426 242.917 179.352 242.865 179.287C242.767 179.162 242.668 179.036 242.57 178.913C242.492 178.818 242.415 178.724 242.338 178.632C242.236 178.512 242.135 178.392 242.034 178.273C241.998 178.232 241.964 178.189 241.928 178.147C241.893 178.106 241.858 178.071 241.825 178.032C241.655 177.84 241.484 177.65 241.311 177.463C241.261 177.408 241.213 177.353 241.16 177.3C240.941 177.066 240.719 176.837 240.494 176.611L240.453 176.569L240.345 176.47C240.157 176.285 239.967 176.106 239.775 175.929L239.578 175.747C239.339 175.532 239.098 175.32 238.853 175.115L233.444 178.22C233.688 178.424 233.929 178.635 234.17 178.852C234.236 178.912 234.301 178.972 234.366 179.033C234.559 179.21 234.749 179.39 234.938 179.574C234.988 179.622 235.037 179.673 235.088 179.72C235.312 179.943 235.535 180.17 235.753 180.404C235.804 180.458 235.851 180.514 235.905 180.567C236.078 180.754 236.249 180.944 236.417 181.136L236.628 181.378C236.726 181.495 236.83 181.615 236.93 181.735C237.008 181.834 237.085 181.922 237.163 182.018C237.262 182.143 237.36 182.268 237.458 182.393C237.557 182.519 237.655 182.64 237.754 182.766L240.608 181.697C240.645 181.682 240.685 181.673 240.726 181.67C240.768 181.669 240.81 181.671 240.852 181.678H240.867C240.905 181.686 240.942 181.697 240.978 181.711L241.003 181.719C241.051 181.738 241.097 181.76 241.142 181.786C241.207 181.825 241.269 181.868 241.328 181.915C241.348 181.931 241.366 181.951 241.387 181.967C241.432 182.006 241.476 182.047 241.521 182.092L241.557 182.131C241.612 182.192 241.667 182.257 241.719 182.328L241.734 182.349C241.792 182.428 241.847 182.512 241.899 182.6L244.162 186.527C244.205 186.604 244.246 186.681 244.281 186.759L244.29 186.779C244.324 186.853 244.354 186.929 244.379 187.006V187.011C244.404 187.087 244.426 187.161 244.441 187.234V187.244C244.454 187.304 244.464 187.364 244.47 187.425C244.47 187.467 244.475 187.509 244.476 187.549C244.477 187.589 244.476 187.609 244.476 187.637C244.473 187.675 244.468 187.712 244.461 187.75C244.461 187.774 244.455 187.8 244.45 187.823C244.44 187.859 244.426 187.893 244.409 187.927C244.401 187.944 244.396 187.962 244.387 187.977C244.362 188.022 244.329 188.061 244.289 188.093L241.917 190.003C242.024 190.261 242.127 190.518 242.226 190.776C242.236 190.804 242.246 190.832 242.258 190.861C242.4 191.233 242.534 191.605 242.659 191.978C242.677 192.033 242.697 192.086 242.714 192.138C242.849 192.544 242.972 192.95 243.087 193.358C243.11 193.441 243.134 193.522 243.157 193.605C243.194 193.739 243.227 193.872 243.263 194.006C243.298 194.14 243.324 194.247 243.352 194.368C243.381 194.489 243.416 194.636 243.451 194.771C243.475 194.884 243.502 194.999 243.525 195.112C243.586 195.407 243.645 195.702 243.695 195.997L247.378 198.52C247.443 198.564 247.503 198.614 247.559 198.669C247.606 198.715 247.651 198.763 247.693 198.814L247.708 198.833C247.754 198.891 247.798 198.952 247.839 199.015C247.88 199.08 247.917 199.147 247.952 199.216L247.96 199.23C247.993 199.299 248.024 199.371 248.052 199.444L248.057 199.46C248.084 199.53 248.104 199.6 248.123 199.67L248.131 199.703C248.149 199.769 248.162 199.838 248.171 199.906V199.922C248.182 199.998 248.187 200.074 248.188 200.15V200.184L243.672 202.808C243.387 204.24 242.77 205.585 241.87 206.735L244.223 211.373C244.257 211.442 244.287 211.513 244.313 211.585V211.598C244.336 211.666 244.355 211.735 244.37 211.805V211.818C244.379 211.864 244.385 211.911 244.388 211.958C244.396 212.028 244.398 212.097 244.394 212.167C244.394 212.18 244.394 212.191 244.394 212.204C244.387 212.278 244.371 212.35 244.348 212.42C244.342 212.437 244.335 212.454 244.326 212.471C244.307 212.518 244.282 212.564 244.253 212.606C244.242 212.622 244.231 212.637 244.219 212.652C244.178 212.703 244.128 212.746 244.071 212.779L249.448 209.654C249.504 209.621 249.554 209.578 249.596 209.528C249.609 209.513 249.619 209.496 249.63 209.481C249.66 209.439 249.685 209.393 249.704 209.346C249.71 209.33 249.719 209.313 249.726 209.294C249.75 209.225 249.765 209.153 249.771 209.08C249.771 209.067 249.771 209.055 249.771 209.042C249.774 208.973 249.773 208.903 249.766 208.834C249.766 208.823 249.766 208.811 249.766 208.798C249.766 208.764 249.755 208.728 249.748 208.692V208.674C249.74 208.642 249.733 208.61 249.724 208.576C249.715 208.542 249.708 208.52 249.699 208.492L249.691 208.47L249.686 208.457L249.672 208.416C249.662 208.392 249.653 208.368 249.642 208.345C249.632 208.321 249.623 208.298 249.611 208.276L249.596 208.244L247.242 203.606C247.605 203.149 247.919 202.654 248.177 202.13L248.172 203.844C248.187 203.978 248.167 204.113 248.114 204.236C248.06 204.359 247.976 204.466 247.869 204.547L253.247 201.423C253.295 201.395 253.337 201.359 253.372 201.316C253.498 201.144 253.561 200.933 253.549 200.72L253.56 197.023C253.566 196.95 253.567 196.877 253.563 196.804Z" fill="url(#paint26_linear)"/>
<path d="M238.481 170.656C238.481 170.634 238.481 170.611 238.475 170.588C238.469 170.564 238.465 170.514 238.457 170.475L238.451 170.452L238.446 170.434L238.433 170.384C238.425 170.356 238.418 170.328 238.408 170.3C238.399 170.273 238.392 170.254 238.384 170.23V170.225C238.375 170.201 238.364 170.174 238.352 170.15C238.341 170.125 238.33 170.098 238.319 170.074L238.292 170.023L238.286 170.013L238.281 169.998C238.266 169.972 238.252 169.946 238.237 169.92C238.222 169.895 238.205 169.865 238.187 169.84L238.171 169.815L238.16 169.798L238.132 169.755L238.064 169.664L238.032 169.623L238.009 169.596L237.978 169.559C237.941 169.517 237.901 169.475 237.861 169.434C237.823 169.397 237.782 169.363 237.74 169.328C237.719 169.31 237.699 169.291 237.678 169.274C237.616 169.225 237.55 169.181 237.481 169.142L234.264 167.284C234.211 167.254 234.156 167.227 234.1 167.203L234.061 167.19L234.019 167.176C234.004 167.171 233.986 167.162 233.968 167.158C233.935 167.149 233.902 167.142 233.87 167.136H233.842H233.826L233.788 167.131H233.717C233.697 167.133 233.676 167.135 233.655 167.139H233.647L233.599 167.15C233.581 167.155 233.564 167.161 233.547 167.169C233.53 167.177 233.515 167.184 233.5 167.193H233.495L228.117 170.317C228.165 170.29 228.217 170.271 228.271 170.261C228.329 170.251 228.388 170.249 228.446 170.256H228.462C228.522 170.264 228.581 170.278 228.638 170.297L228.68 170.311C228.75 170.338 228.818 170.371 228.884 170.409L230.191 171.165L230.134 171.159C229.835 171.146 229.536 171.149 229.237 171.167C229.01 171.182 228.786 171.206 228.568 171.24L225.724 166.879L225.685 166.822L225.633 166.751L225.569 166.673C225.541 166.64 225.51 166.609 225.481 166.574C225.392 166.486 225.293 166.41 225.185 166.347C225.142 166.322 225.097 166.3 225.051 166.281C225.012 166.264 224.972 166.25 224.931 166.24C224.9 166.232 224.869 166.225 224.838 166.22C224.81 166.22 224.783 166.214 224.757 166.212C224.733 166.211 224.709 166.211 224.685 166.212C224.662 166.213 224.64 166.216 224.618 166.221C224.596 166.225 224.575 166.229 224.554 166.235L224.494 166.257C224.474 166.265 224.453 166.275 224.435 166.285H224.43L222.146 167.584L216.769 170.709L219.051 169.409H219.056C219.074 169.399 219.093 169.389 219.113 169.38C219.132 169.371 219.153 169.365 219.174 169.358C219.194 169.352 219.215 169.349 219.238 169.345C219.26 169.341 219.281 169.339 219.306 169.336C219.329 169.335 219.353 169.335 219.377 169.336C219.404 169.336 219.431 169.336 219.457 169.344C219.49 169.348 219.523 169.355 219.555 169.363C219.596 169.375 219.635 169.389 219.674 169.405C219.72 169.424 219.766 169.446 219.809 169.472C219.917 169.534 220.016 169.61 220.105 169.698C220.134 169.727 220.165 169.759 220.193 169.796C220.222 169.834 220.235 169.848 220.257 169.875L220.309 169.945L220.347 170.002L223.192 174.364C223.41 174.33 223.633 174.306 223.861 174.293C224.159 174.273 224.458 174.27 224.756 174.284C225.094 174.299 225.431 174.332 225.766 174.382C226.168 174.445 226.566 174.529 226.959 174.635C227.142 174.685 227.327 174.74 227.513 174.799L231.987 172.199L232.1 172.264C232.169 172.304 232.235 172.348 232.297 172.396C232.318 172.412 232.339 172.433 232.358 172.45C232.4 172.485 232.441 172.519 232.48 172.558C232.533 172.609 232.583 172.664 232.63 172.721L232.654 172.749C232.699 172.805 232.742 172.864 232.782 172.923L232.794 172.94C232.836 173.003 232.875 173.069 232.91 173.136L232.916 173.146C232.952 173.215 232.982 173.285 233.015 173.355V173.36C233.039 173.426 233.06 173.493 233.077 173.561L233.082 173.58C233.097 173.647 233.107 173.715 233.113 173.784L233.448 178.221L238.825 175.096L238.481 170.656Z" fill="url(#paint27_linear)"/>
<path d="M237.939 203.578C235.971 203.869 233.966 203.425 232.304 202.331C226.805 199.156 222.365 191.458 222.378 185.136C222.387 182.273 223.31 180.188 224.827 179.054C222.209 179.608 220.483 182.076 220.471 185.993C220.453 192.316 224.899 200.015 230.397 203.189C233.406 204.928 236.106 204.948 237.939 203.578Z" fill="url(#paint28_linear)"/>
<path d="M212.659 183.337C212.666 183.653 212.743 183.963 212.883 184.245C213.023 184.528 213.224 184.776 213.471 184.973L217.158 187.496C217.523 189.553 218.117 191.563 218.93 193.487L216.555 195.396C216.26 195.637 216.318 196.319 216.692 196.964L218.955 200.892C219.134 201.222 219.393 201.501 219.709 201.703C219.786 201.758 219.874 201.795 219.966 201.812C220.059 201.829 220.154 201.826 220.245 201.801L223.105 200.734C224.369 202.404 225.815 203.929 227.415 205.279L227.746 209.713C227.792 210.026 227.907 210.324 228.082 210.587C228.256 210.85 228.487 211.072 228.757 211.236L231.975 213.094C232.502 213.4 232.944 213.244 232.988 212.739L233.347 208.705C234.734 209.183 236.213 209.333 237.668 209.143L240.509 213.501C240.644 213.716 240.828 213.896 241.045 214.028C241.155 214.104 241.283 214.149 241.416 214.16C241.549 214.171 241.682 214.146 241.803 214.089L244.085 212.789C244.459 212.575 244.522 211.964 244.229 211.382L241.876 206.744C242.775 205.595 243.392 204.25 243.677 202.818L247.364 204.551C247.826 204.766 248.181 204.465 248.183 203.857L248.193 200.16C248.187 199.844 248.11 199.534 247.969 199.252C247.829 198.969 247.627 198.721 247.38 198.525L243.696 196.003C243.331 193.946 242.737 191.936 241.925 190.011L244.296 188.101C244.592 187.86 244.533 187.179 244.162 186.535L241.898 182.609C241.719 182.278 241.459 181.999 241.142 181.796C241.066 181.741 240.978 181.703 240.885 181.686C240.793 181.669 240.697 181.673 240.606 181.698L237.752 182.767C236.489 181.097 235.043 179.572 233.442 178.222L233.107 173.785C233.062 173.472 232.948 173.174 232.773 172.911C232.599 172.648 232.369 172.427 232.099 172.263L228.882 170.405C228.354 170.101 227.91 170.255 227.866 170.759L227.511 174.793C226.124 174.314 224.645 174.164 223.19 174.355L220.345 169.994C220.21 169.779 220.027 169.599 219.81 169.468C219.7 169.392 219.573 169.346 219.44 169.336C219.308 169.325 219.175 169.35 219.055 169.408L216.773 170.708C216.396 170.921 216.334 171.531 216.627 172.114L218.983 176.753C218.082 177.902 217.465 179.247 217.181 180.679L213.493 178.945C213.032 178.73 212.676 179.031 212.674 179.634L212.659 183.337ZM220.471 185.994C220.489 179.675 224.963 177.126 230.462 180.3C235.961 183.475 240.401 191.175 240.389 197.494C240.376 203.813 235.899 206.368 230.397 203.19C224.895 200.012 220.453 192.316 220.471 185.993V185.994Z" fill="url(#paint29_linear)"/>
<path d="M284.583 159.968L284.499 189.621L293.629 194.892L293.713 165.24L284.583 159.968Z" fill="#0A2F53"/>
<g opacity="0.75">
<path opacity="0.75" d="M272.01 166.954L271.966 182.418L281.096 187.69L281.14 172.226L272.01 166.954Z" fill="#0A2F53"/>
</g>
<g opacity="0.48">
<path opacity="0.48" d="M259.564 164.985L259.535 175.116L268.665 180.388L268.694 170.257L259.564 164.985Z" fill="#0A2F53"/>
</g>
<path d="M252.103 301.064C260.436 305.875 260.48 313.679 252.202 318.491L177.07 362.148C168.791 366.959 155.322 366.959 146.986 362.148L71.3629 318.487C63.0297 313.677 62.9854 305.873 71.2645 301.061L146.394 257.404C154.673 252.593 168.142 252.593 176.478 257.404L252.103 301.064Z" fill="url(#paint30_linear)"/>
<path d="M258.367 310.213C258.361 310.32 258.355 310.427 258.344 310.534C258.335 310.627 258.321 310.72 258.308 310.813C258.294 310.92 258.279 311.026 258.258 311.133C258.238 311.239 258.221 311.321 258.199 311.415C258.178 311.51 258.152 311.621 258.123 311.724C258.095 311.827 258.071 311.911 258.041 312.005C258.01 312.098 257.976 312.21 257.942 312.313C257.909 312.415 257.875 312.496 257.838 312.587C257.796 312.695 257.75 312.803 257.703 312.91C257.662 312.999 257.62 313.09 257.577 313.179C257.525 313.286 257.47 313.392 257.413 313.499C257.367 313.584 257.314 313.671 257.269 313.755C257.195 313.882 257.117 314.008 257.036 314.133C256.988 314.209 256.938 314.286 256.887 314.36C256.789 314.499 256.691 314.637 256.587 314.774C256.542 314.834 256.5 314.894 256.453 314.952C256.281 315.169 256.096 315.384 255.902 315.595C255.852 315.651 255.797 315.704 255.747 315.758C255.592 315.919 255.432 316.08 255.265 316.237C255.188 316.31 255.111 316.382 255.032 316.453C254.934 316.542 254.829 316.631 254.725 316.719C254.622 316.808 254.529 316.883 254.43 316.964C254.332 317.046 254.211 317.138 254.097 317.225C253.984 317.312 253.889 317.384 253.781 317.462C253.672 317.541 253.543 317.632 253.421 317.715C253.299 317.799 253.198 317.869 253.083 317.943C252.968 318.018 252.827 318.108 252.696 318.189C252.534 318.288 252.373 318.391 252.204 318.491L177.073 362.151C176.613 362.42 176.13 362.667 175.639 362.905C175.51 362.967 175.379 363.029 175.245 363.088C174.801 363.294 174.348 363.489 173.882 363.671C173.821 363.694 173.762 363.721 173.702 363.745C173.204 363.934 172.692 364.105 172.175 364.267C171.816 364.38 171.446 364.481 171.077 364.58C170.799 364.656 170.524 364.737 170.243 364.804C169.855 364.903 169.456 364.977 169.062 365.056C168.777 365.113 168.494 365.18 168.206 365.23C168.086 365.251 167.964 365.268 167.843 365.287C167.356 365.367 166.866 365.436 166.373 365.495C166.228 365.513 166.084 365.532 165.941 365.546C165.368 365.612 164.792 365.66 164.213 365.691L163.892 365.708C163.504 365.727 163.114 365.732 162.725 365.74C162.335 365.748 161.947 365.75 161.557 365.745C161.233 365.745 160.909 365.731 160.584 365.719C160.224 365.704 159.864 365.686 159.502 365.66C159.172 365.637 158.845 365.609 158.518 365.579C158.162 365.544 157.809 365.504 157.456 365.459C157.138 365.419 156.821 365.374 156.505 365.325C156.126 365.266 155.75 365.2 155.377 365.128C154.984 365.053 154.59 364.98 154.208 364.891L153.93 364.829C153.389 364.699 152.854 364.554 152.328 364.399C152.178 364.354 152.033 364.306 151.88 364.26C151.442 364.122 151.011 363.975 150.587 363.818C150.463 363.772 150.339 363.73 150.216 363.683C149.83 363.534 149.457 363.368 149.084 363.202C148.903 363.122 148.715 363.049 148.538 362.964C148.002 362.709 147.478 362.439 146.977 362.149L71.3625 318.491C67.1683 316.07 65.0752 312.891 65.0841 309.718L65.0132 330.904C65.0044 334.077 67.0985 337.256 71.2916 339.677L146.914 383.338C147.416 383.627 147.939 383.897 148.475 384.152C148.652 384.236 148.84 384.31 149.021 384.39C149.339 384.532 149.653 384.679 149.982 384.809C150.038 384.83 150.097 384.849 150.153 384.871C150.275 384.918 150.4 384.96 150.524 385.006C150.948 385.163 151.379 385.31 151.817 385.448C151.967 385.495 152.112 385.546 152.265 385.587C152.363 385.617 152.462 385.651 152.566 385.68C152.994 385.802 153.429 385.913 153.868 386.016C153.96 386.039 154.054 386.059 154.146 386.08C154.359 386.128 154.57 386.179 154.785 386.224C154.959 386.26 155.139 386.283 155.315 386.316C155.689 386.387 156.064 386.454 156.443 386.513C156.594 386.537 156.738 386.57 156.894 386.592C157.06 386.616 157.228 386.626 157.394 386.648C157.747 386.693 158.1 386.733 158.456 386.766C158.625 386.783 158.792 386.808 158.962 386.823C159.133 386.838 159.28 386.837 159.439 386.848C159.798 386.873 160.159 386.892 160.521 386.905C160.702 386.913 160.881 386.93 161.062 386.934C161.207 386.934 161.351 386.93 161.495 386.934C161.889 386.939 162.273 386.934 162.663 386.93C162.859 386.93 163.049 386.93 163.243 386.93C163.437 386.93 163.637 386.91 163.834 386.901L164.153 386.884C164.639 386.856 165.125 386.82 165.606 386.772C165.698 386.763 165.789 386.749 165.881 386.74C166.026 386.724 166.169 386.706 166.314 386.688C166.806 386.629 167.297 386.559 167.785 386.48C167.905 386.46 168.027 386.442 168.147 386.423L168.32 386.395C168.551 386.353 168.775 386.297 169.004 386.248C169.398 386.168 169.791 386.09 170.185 385.997C170.467 385.928 170.742 385.847 171.021 385.77C171.389 385.672 171.757 385.573 172.117 385.458C172.194 385.434 172.275 385.416 172.351 385.39C172.79 385.248 173.22 385.095 173.644 384.934C173.704 384.91 173.762 384.884 173.824 384.86C174.29 384.679 174.742 384.483 175.187 384.278C175.318 384.218 175.449 384.157 175.581 384.095C176.073 383.857 176.555 383.61 177.015 383.342L252.146 339.679C252.234 339.629 252.321 339.58 252.406 339.525C252.49 339.47 252.56 339.427 252.639 339.378C252.77 339.297 252.899 339.215 253.025 339.134C253.151 339.052 253.253 338.981 253.365 338.904C253.478 338.828 253.607 338.737 253.724 338.652C253.84 338.568 253.937 338.494 254.041 338.414C254.146 338.335 254.265 338.242 254.372 338.155C254.479 338.067 254.569 337.991 254.667 337.909C254.766 337.826 254.873 337.731 254.971 337.643C255.013 337.605 255.057 337.569 255.098 337.532C255.14 337.494 255.167 337.462 255.205 337.427C255.372 337.269 255.532 337.109 255.685 336.948C255.737 336.893 255.792 336.84 255.842 336.785C256.039 336.572 256.221 336.36 256.393 336.142L256.417 336.115C256.457 336.063 256.489 336.016 256.528 335.962C256.632 335.825 256.733 335.688 256.823 335.551C256.876 335.476 256.922 335.398 256.972 335.323C257.053 335.197 257.131 335.071 257.205 334.945C257.225 334.912 257.249 334.879 257.269 334.847C257.298 334.796 257.321 334.744 257.349 334.693C257.406 334.586 257.461 334.48 257.513 334.373C257.557 334.283 257.598 334.193 257.639 334.103C257.686 333.995 257.731 333.888 257.774 333.781C257.794 333.733 257.817 333.683 257.835 333.637C257.853 333.59 257.863 333.551 257.878 333.507C257.915 333.408 257.948 333.301 257.977 333.199C258.005 333.096 258.034 333.012 258.059 332.916C258.085 332.821 258.112 332.711 258.135 332.608C258.148 332.552 258.165 332.496 258.176 332.44C258.184 332.402 258.186 332.364 258.194 332.325C258.214 332.219 258.23 332.112 258.244 332.007C258.259 331.902 258.271 331.821 258.28 331.727C258.289 331.634 258.298 331.513 258.303 331.406C258.303 331.344 258.314 331.281 258.316 331.219C258.318 331.157 258.316 331.094 258.316 331.032L258.387 309.846C258.382 309.964 258.367 310.089 258.367 310.213Z" fill="url(#paint31_linear)"/>
<path d="M230.572 289.693C236.725 293.245 236.758 299.006 230.645 302.558L175.18 334.791C169.068 338.343 159.122 338.343 152.97 334.791L97.1403 302.559C90.9889 299.006 90.9564 293.245 97.0675 289.694L152.533 257.457C158.646 253.906 168.592 253.906 174.743 257.457L230.572 289.693Z" fill="url(#paint32_linear)"/>
<path d="M235.197 296.446C235.192 296.524 235.187 296.604 235.179 296.683C235.171 296.762 235.164 296.82 235.154 296.888C235.144 296.957 235.131 297.046 235.117 297.125C235.104 297.203 235.089 297.263 235.074 297.333C235.059 297.403 235.039 297.486 235.018 297.562C234.997 297.637 234.98 297.7 234.957 297.768C234.934 297.836 234.91 297.921 234.882 297.997C234.855 298.072 234.832 298.131 234.806 298.198C234.781 298.265 234.741 298.357 234.708 298.436C234.675 298.516 234.648 298.568 234.615 298.633C234.583 298.698 234.536 298.791 234.493 298.869C234.46 298.933 234.425 298.995 234.388 299.059C234.333 299.158 234.275 299.245 234.215 299.339C234.179 299.395 234.144 299.451 234.107 299.506C234.037 299.605 233.961 299.71 233.884 299.81C233.851 299.853 233.819 299.899 233.786 299.942C233.659 300.102 233.522 300.26 233.378 300.416C233.341 300.458 233.302 300.497 233.262 300.537C233.149 300.656 233.03 300.775 232.907 300.891C232.851 300.945 232.795 300.997 232.736 301.05C232.662 301.116 232.586 301.182 232.509 301.247C232.431 301.312 232.366 301.368 232.293 301.428C232.22 301.488 232.131 301.557 232.047 301.625C231.963 301.693 231.893 301.742 231.814 301.799C231.735 301.856 231.638 301.924 231.548 301.986C231.459 302.048 231.384 302.099 231.297 302.154C231.211 302.209 231.108 302.275 231.013 302.335C230.893 302.41 230.775 302.485 230.649 302.558L175.184 334.791C174.843 334.988 174.487 335.172 174.124 335.348C174.029 335.394 173.933 335.439 173.836 335.483C173.508 335.636 173.173 335.778 172.83 335.914L172.696 335.967C172.329 336.107 171.951 336.234 171.569 336.354C171.304 336.438 171.031 336.512 170.759 336.585C170.555 336.641 170.351 336.701 170.143 336.752C169.858 336.821 169.566 336.879 169.273 336.938C169.063 336.98 168.854 337.029 168.642 337.067L168.373 337.109C168.013 337.167 167.653 337.218 167.291 337.262L166.973 337.301C166.55 337.346 166.124 337.381 165.693 337.407L165.456 337.42C165.169 337.434 164.882 337.438 164.595 337.443C164.308 337.449 164.02 337.451 163.733 337.443C163.494 337.439 163.254 337.433 163.015 337.424C162.749 337.414 162.483 337.4 162.218 337.381C161.975 337.364 161.734 337.344 161.492 337.32C161.23 337.295 160.967 337.266 160.705 337.233C160.471 337.203 160.238 337.171 160.003 337.134C159.724 337.091 159.446 337.036 159.171 336.989C158.895 336.942 158.592 336.881 158.308 336.814C158.239 336.799 158.17 336.784 158.103 336.767C157.703 336.669 157.308 336.566 156.922 336.45C156.811 336.417 156.702 336.382 156.592 336.347C156.267 336.246 155.948 336.138 155.636 336.021C155.547 335.988 155.454 335.956 155.364 335.923C155.078 335.813 154.803 335.691 154.528 335.569C154.394 335.509 154.254 335.456 154.124 335.393C153.73 335.205 153.342 335.005 152.972 334.791L97.1433 302.559C94.0473 300.771 92.5014 298.426 92.5073 296.082L92.4551 311.722C92.4492 314.065 93.9952 316.412 97.0911 318.199L152.919 350.431C153.29 350.646 153.675 350.845 154.07 351.033C154.201 351.095 154.34 351.149 154.475 351.209C154.709 351.314 154.941 351.422 155.183 351.519C155.225 351.534 155.268 351.548 155.31 351.565C155.4 351.599 155.492 351.631 155.582 351.663C155.896 351.778 156.214 351.887 156.537 351.989C156.648 352.025 156.756 352.059 156.868 352.088C156.942 352.11 157.014 352.135 157.089 352.156C157.405 352.248 157.726 352.329 158.051 352.406C158.118 352.423 158.187 352.436 158.256 352.453C158.413 352.489 158.569 352.526 158.727 352.559C158.856 352.586 158.989 352.602 159.121 352.628C159.396 352.68 159.674 352.726 159.953 352.772C160.065 352.79 160.174 352.814 160.287 352.83C160.4 352.845 160.533 352.856 160.655 352.871C160.916 352.904 161.176 352.933 161.442 352.959C161.567 352.97 161.69 352.991 161.816 353.001C161.942 353.011 162.05 353.012 162.167 353.019C162.43 353.038 162.695 353.052 162.964 353.062C163.097 353.067 163.229 353.08 163.363 353.083C163.469 353.083 163.577 353.083 163.683 353.083C163.971 353.083 164.257 353.083 164.544 353.083C164.688 353.083 164.83 353.083 164.972 353.083C165.114 353.083 165.261 353.069 165.408 353.061L165.644 353.048C166.002 353.028 166.36 353.002 166.716 352.965C166.783 352.959 166.851 352.95 166.92 352.942C167.026 352.931 167.131 352.917 167.237 352.904C167.601 352.861 167.964 352.806 168.32 352.75C168.409 352.736 168.498 352.723 168.589 352.708L168.715 352.688C168.887 352.656 169.051 352.614 169.22 352.58C169.516 352.521 169.803 352.463 170.089 352.394C170.298 352.343 170.501 352.283 170.705 352.227C170.978 352.153 171.249 352.08 171.515 351.996C171.571 351.978 171.632 351.965 171.688 351.948C172.011 351.843 172.33 351.729 172.642 351.611C172.687 351.594 172.731 351.574 172.776 351.556C173.119 351.422 173.454 351.278 173.782 351.127C173.88 351.082 173.978 351.038 174.07 350.991C174.433 350.815 174.789 350.633 175.13 350.435L230.595 318.203L230.792 318.09C230.851 318.053 230.905 318.016 230.965 317.979C231.063 317.92 231.161 317.86 231.249 317.799C231.336 317.738 231.417 317.686 231.5 317.63C231.583 317.574 231.678 317.506 231.765 317.444C231.851 317.382 231.923 317.327 231.999 317.268C232.075 317.209 232.163 317.141 232.244 317.071C232.324 317.001 232.391 316.951 232.462 316.89C232.533 316.829 232.615 316.759 232.687 316.693C232.718 316.667 232.751 316.639 232.785 316.612C232.82 316.586 232.836 316.56 232.864 316.534C232.987 316.418 233.106 316.3 233.219 316.18C233.256 316.14 233.298 316.101 233.335 316.06C233.479 315.903 233.615 315.745 233.742 315.585L233.759 315.565C233.788 315.528 233.813 315.491 233.84 315.453C233.918 315.355 233.993 315.251 234.062 315.149C234.1 315.094 234.136 315.038 234.173 314.982C234.232 314.889 234.29 314.796 234.345 314.703C234.359 314.677 234.377 314.652 234.391 314.628C234.405 314.603 234.429 314.552 234.451 314.512C234.492 314.434 234.534 314.355 234.572 314.276C234.611 314.197 234.634 314.144 234.665 314.079C234.695 314.014 234.734 313.921 234.763 313.841C234.777 313.807 234.795 313.771 234.806 313.735C234.818 313.699 234.827 313.671 234.839 313.637C234.866 313.561 234.89 313.486 234.914 313.409C234.937 313.332 234.956 313.27 234.975 313.201C234.993 313.131 235.013 313.048 235.031 312.972C235.04 312.931 235.052 312.89 235.061 312.847C235.066 312.82 235.069 312.792 235.074 312.764C235.089 312.685 235.101 312.606 235.111 312.529C235.122 312.453 235.13 312.391 235.138 312.323C235.146 312.255 235.151 312.165 235.154 312.086C235.154 312.039 235.163 311.993 235.164 311.947C235.165 311.901 235.164 311.854 235.164 311.81L235.216 296.169C235.208 296.262 235.202 296.354 235.197 296.446Z" fill="url(#paint33_linear)"/>
<path d="M104.855 35.9565V295.951C104.919 297.827 106.212 299.69 108.687 301.106L154.854 327.77C159.947 330.703 168.161 330.703 173.223 327.77L219.09 301.106C221.534 299.687 222.796 297.843 222.858 295.998V35.9565H104.855Z" fill="url(#paint34_linear)"/>
<path d="M219.447 290.424C224.573 293.384 224.6 298.185 219.507 301.144L173.292 328C168.199 330.96 159.908 330.96 154.785 328L108.268 301.144C103.142 298.184 103.114 293.383 108.208 290.425L154.422 263.565C159.516 260.604 167.806 260.604 172.929 263.565L219.447 290.424Z" fill="#98BDE1"/>
<path d="M199.806 263.853C202.897 263.853 205.403 261.347 205.403 258.256C205.403 255.166 202.897 252.66 199.806 252.66C196.716 252.66 194.21 255.166 194.21 258.256C194.21 261.347 196.716 263.853 199.806 263.853Z" fill="url(#paint35_radial)"/>
<path d="M212.671 215.042C212.671 215.571 212.514 216.089 212.221 216.529C211.927 216.969 211.509 217.312 211.02 217.514C210.532 217.717 209.994 217.77 209.475 217.667C208.956 217.564 208.48 217.309 208.105 216.935C207.731 216.561 207.476 216.085 207.373 215.566C207.269 215.047 207.322 214.51 207.524 214.021C207.727 213.532 208.069 213.114 208.509 212.82C208.949 212.526 209.466 212.369 209.995 212.369C210.346 212.369 210.694 212.438 211.019 212.572C211.343 212.706 211.638 212.903 211.887 213.151C212.135 213.4 212.332 213.694 212.467 214.019C212.601 214.343 212.671 214.691 212.671 215.042Z" fill="url(#paint36_radial)"/>
<path d="M123.219 132.812C123.219 133.8 122.926 134.766 122.377 135.587C121.828 136.409 121.047 137.049 120.134 137.427C119.222 137.805 118.217 137.904 117.248 137.711C116.279 137.518 115.389 137.042 114.69 136.343C113.991 135.644 113.516 134.754 113.323 133.785C113.13 132.816 113.229 131.811 113.607 130.898C113.986 129.986 114.626 129.205 115.448 128.656C116.269 128.107 117.235 127.814 118.223 127.814C118.879 127.814 119.529 127.944 120.135 128.195C120.742 128.446 121.292 128.814 121.756 129.278C122.22 129.742 122.588 130.293 122.839 130.899C123.09 131.506 123.22 132.155 123.219 132.812Z" fill="url(#paint37_radial)"/>
<path d="M133.686 100.343C133.686 100.705 133.579 101.06 133.377 101.361C133.176 101.663 132.889 101.898 132.554 102.037C132.219 102.175 131.851 102.212 131.495 102.141C131.14 102.07 130.813 101.896 130.556 101.639C130.3 101.383 130.125 101.056 130.055 100.701C129.984 100.345 130.02 99.9763 130.159 99.6413C130.298 99.3063 130.533 99.0199 130.834 98.8185C131.136 98.617 131.49 98.5095 131.853 98.5095C132.339 98.5098 132.805 98.703 133.149 99.0468C133.493 99.3905 133.686 99.8567 133.686 100.343Z" fill="url(#paint38_radial)"/>
<path d="M189.325 88.6834C189.325 89.2089 189.169 89.7226 188.877 90.1595C188.586 90.5965 188.171 90.937 187.685 91.1381C187.2 91.3393 186.665 91.3919 186.15 91.2893C185.635 91.1868 185.161 90.9338 184.789 90.5622C184.418 90.1906 184.165 89.7172 184.062 89.2017C183.96 88.6863 184.012 88.1521 184.213 87.6666C184.415 87.1811 184.755 86.7661 185.192 86.4742C185.629 86.1822 186.143 86.0264 186.668 86.0264C187.373 86.0264 188.049 86.3063 188.547 86.8046C189.045 87.3029 189.325 87.9787 189.325 88.6834Z" fill="url(#paint39_radial)"/>
<path d="M201.482 119.316C201.482 119.841 201.327 120.355 201.035 120.792C200.743 121.229 200.328 121.569 199.842 121.77C199.357 121.972 198.822 122.024 198.307 121.922C197.792 121.819 197.318 121.566 196.947 121.194C196.575 120.823 196.322 120.349 196.22 119.834C196.117 119.319 196.17 118.784 196.371 118.299C196.572 117.813 196.912 117.398 197.349 117.106C197.786 116.815 198.3 116.659 198.825 116.659C199.174 116.659 199.52 116.727 199.842 116.861C200.165 116.994 200.458 117.19 200.704 117.437C200.951 117.684 201.147 117.977 201.28 118.299C201.414 118.621 201.482 118.967 201.482 119.316Z" fill="url(#paint40_radial)"/>
<path d="M136.757 246.916C136.756 247.443 136.6 247.959 136.307 248.397C136.013 248.835 135.597 249.177 135.11 249.379C134.622 249.58 134.086 249.633 133.569 249.53C133.052 249.427 132.576 249.173 132.204 248.8C131.831 248.427 131.577 247.952 131.474 247.435C131.371 246.917 131.424 246.381 131.626 245.894C131.828 245.407 132.17 244.99 132.608 244.697C133.047 244.404 133.562 244.248 134.09 244.248C134.44 244.248 134.787 244.317 135.111 244.451C135.434 244.585 135.728 244.782 135.976 245.029C136.223 245.277 136.42 245.571 136.554 245.895C136.688 246.218 136.757 246.565 136.757 246.916Z" fill="url(#paint41_radial)"/>
<path d="M175.302 231.733C175.302 219.643 169.767 209.844 162.941 209.844C156.114 209.844 150.579 219.644 150.579 231.733C150.579 243.823 162.941 287.896 162.941 287.896C162.941 287.896 175.302 243.823 175.302 231.733Z" fill="url(#paint42_linear)"/>
<path d="M143.455 202.591C144.025 207.388 145.343 212.066 147.362 216.456C155.915 221.022 169.073 221.045 177.63 216.534C179.67 212.123 181.001 207.417 181.574 202.591H143.455Z" fill="url(#paint43_linear)"/>
<path d="M144.386 207.782C148.311 210.025 154.852 211.497 162.259 211.497C170.054 211.497 176.888 209.867 180.726 207.424C180.892 206.686 181.042 205.944 181.176 205.198C170.189 210.035 154.842 210.013 143.848 205.123C144.005 206.015 144.181 206.906 144.386 207.782Z" fill="url(#paint44_radial)"/>
<path d="M200.757 201.701C200.379 197.093 198.676 194.681 196.623 193.489L193.756 191.822C195.805 193.014 197.507 195.426 197.889 200.035C197.888 200.326 197.958 200.613 198.093 200.87C198.229 201.128 198.425 201.348 198.665 201.512L201.534 203.179C201.294 203.015 201.097 202.794 200.961 202.537C200.826 202.279 200.756 201.992 200.757 201.701Z" fill="url(#paint45_linear)"/>
<path d="M187.843 177.12C205.291 175.07 204.966 200.754 204.953 202.105L203.411 202.995C202.023 203.797 200.88 203.223 200.754 201.7C199.705 188.92 188.476 193.03 187.885 193.245L187.843 177.12Z" fill="url(#paint46_linear)"/>
<path d="M193.11 176.926L192.994 176.86L192.909 176.815C192.773 176.739 192.634 176.666 192.494 176.595L192.357 176.527C192.179 176.441 191.999 176.358 191.814 176.28L191.794 176.271L191.714 176.241C191.568 176.18 191.419 176.123 191.268 176.069C191.212 176.047 191.155 176.028 191.097 176.009C190.955 175.96 190.811 175.914 190.667 175.87C190.633 175.859 190.598 175.847 190.564 175.837L190.521 175.826C190.332 175.771 190.139 175.721 189.941 175.675C189.9 175.666 189.861 175.658 189.823 175.649C189.66 175.614 189.498 175.58 189.331 175.55C189.301 175.545 189.272 175.538 189.241 175.533C189.211 175.528 189.173 175.523 189.143 175.518C188.983 175.491 188.822 175.468 188.659 175.448L188.5 175.426C188.287 175.403 188.071 175.383 187.852 175.369H187.819H187.721C187.524 175.358 187.327 175.351 187.119 175.348H186.923C186.679 175.348 186.431 175.348 186.181 175.362C186.059 175.368 185.934 175.378 185.81 175.386C185.734 175.391 185.66 175.395 185.585 175.401C185.383 175.418 185.18 175.438 184.972 175.462L187.841 177.129C188.046 177.104 188.251 177.084 188.452 177.068C188.527 177.062 188.6 177.058 188.672 177.053C188.798 177.044 188.924 177.034 189.049 177.029C189.3 177.019 189.547 177.015 189.79 177.015H189.987C190.191 177.015 190.392 177.025 190.588 177.036C190.631 177.036 190.673 177.036 190.714 177.042C190.934 177.056 191.151 177.076 191.363 177.099L191.521 177.121C191.685 177.141 191.846 177.164 192.005 177.191L192.196 177.223C192.363 177.253 192.526 177.285 192.688 177.322L192.806 177.346C193.003 177.393 193.2 177.445 193.388 177.499L193.534 177.542C193.678 177.585 193.822 177.632 193.963 177.681L194.135 177.742C194.285 177.796 194.43 177.853 194.581 177.914L194.679 177.953C194.864 178.03 195.045 178.114 195.222 178.2C195.27 178.222 195.315 178.246 195.361 178.268C195.501 178.339 195.64 178.412 195.776 178.488C195.842 178.525 195.911 178.561 195.973 178.599L193.11 176.926Z" fill="url(#paint47_linear)"/>
<path d="M187.888 193.247L185.018 191.583L184.973 175.457L187.841 177.124L187.888 193.247Z" fill="url(#paint48_linear)"/>
<path d="M120.594 201.701C120.972 197.093 122.674 194.681 124.727 193.489L127.595 191.822C125.546 193.013 123.843 195.425 123.461 200.035C123.463 200.326 123.393 200.612 123.257 200.87C123.122 201.127 122.925 201.347 122.685 201.511L119.816 203.178C120.057 203.014 120.253 202.794 120.389 202.536C120.525 202.279 120.595 201.992 120.594 201.701Z" fill="url(#paint49_linear)"/>
<path d="M133.507 177.12C116.059 175.07 116.384 200.754 116.397 202.105L117.939 202.995C119.326 203.796 120.47 203.223 120.596 201.7C121.645 188.92 132.873 193.029 133.464 193.245L133.507 177.12Z" fill="url(#paint50_linear)"/>
<path d="M133.462 193.245L136.331 191.578L136.376 175.452L133.508 177.119L133.462 193.245Z" fill="url(#paint51_linear)"/>
<path d="M194.696 175.671C193.985 185.017 191.619 194.163 187.709 202.681C173.447 210.201 151.515 210.16 137.26 202.552C133.372 194.036 131.025 184.9 130.326 175.565C128.677 156.676 132.5 137.055 138.02 121.554C139.511 117.338 141.235 113.208 143.183 109.184C150.584 94.0202 158.847 83.3025 161.586 81.0529C161.848 80.8379 162.177 80.7205 162.516 80.7205C162.855 80.7205 163.184 80.8379 163.447 81.0529C166.18 83.2986 174.452 94.0202 181.849 109.184C183.812 113.235 185.545 117.393 187.04 121.639C192.555 137.157 196.361 156.782 194.696 175.671Z" fill="url(#paint52_linear)"/>
<path d="M184.536 115.144C183.662 113.048 182.765 111.056 181.848 109.184C174.446 94.0202 166.175 83.3025 163.446 81.0529C163.183 80.8379 162.854 80.7205 162.515 80.7205C162.176 80.7205 161.847 80.8379 161.585 81.0529C158.851 83.2986 150.588 94.0202 143.182 109.184C142.279 111.036 141.393 112.999 140.525 115.074C153.5 120.824 171.581 120.848 184.536 115.144Z" fill="url(#paint53_linear)"/>
<path d="M162.934 80.7882C158.152 93.0076 154.361 105.592 151.597 118.419C147.787 117.742 144.068 116.621 140.518 115.079C140.8 114.399 141.093 113.73 141.374 113.074C141.75 112.231 142.124 111.401 142.499 110.588C142.734 110.12 142.956 109.651 143.179 109.182C150.589 94.027 158.842 83.3005 161.582 81.0578C161.74 80.9301 161.922 80.8361 162.118 80.7816C162.313 80.7271 162.518 80.7132 162.719 80.7409C162.792 80.7513 162.864 80.7671 162.934 80.7882Z" fill="url(#paint54_linear)"/>
<path opacity="0.38" d="M162.931 80.793C162.702 80.7225 162.459 80.7093 162.224 80.7548C161.988 80.8003 161.768 80.903 161.581 81.0538C158.847 83.2995 150.584 94.021 143.179 109.185C141.23 113.209 139.506 117.339 138.015 121.555C132.495 137.056 128.672 156.676 130.322 175.566C131.02 184.9 133.368 194.037 137.256 202.552C141.697 204.843 146.464 206.436 151.39 207.276C136.75 152.285 157.371 94.7217 162.931 80.793Z" fill="#C4BC9A"/>
<path opacity="0.53" d="M146.248 168.35C140.683 167.351 135.265 165.661 130.118 163.321C130.082 162.817 130.059 162.312 130.047 161.797C130.045 161.795 130.043 161.792 130.041 161.789C130.04 161.786 130.039 161.783 130.039 161.78C130.039 161.776 130.04 161.773 130.041 161.77C130.043 161.767 130.045 161.764 130.047 161.762C130.071 160.989 130.106 160.215 130.164 159.442C135.257 161.935 140.664 163.729 146.237 164.777V164.787C146.229 165.969 146.24 167.154 146.248 168.35Z" fill="#0031BA"/>
<path opacity="0.53" d="M146.592 176.99C140.909 175.998 135.374 174.289 130.121 171.902C130.038 170.623 129.991 169.334 129.957 168.046V167.917C135.154 170.495 140.685 172.337 146.391 173.391C146.452 174.586 146.51 175.783 146.592 176.99Z" fill="#0031BA"/>
<path d="M124.348 237.023C124.318 235.418 123.757 204.908 144.799 183.055L141.141 183.192C141.141 183.192 121.939 200.745 122.033 235.681L124.348 237.023Z" fill="url(#paint55_linear)"/>
<path d="M144.801 183.052C123.757 204.906 124.32 235.414 124.348 237.02L126.212 235.944C127.102 235.36 127.85 234.585 128.403 233.674C128.955 232.764 129.297 231.742 129.404 230.683C130.585 213.814 145.821 201.906 146.534 201.342L144.801 183.052Z" fill="url(#paint56_linear)"/>
<path d="M198.355 237.023C198.383 235.418 198.945 204.908 177.901 183.055L181.56 183.192C181.56 183.192 200.762 200.745 200.667 235.681L198.355 237.023Z" fill="url(#paint57_linear)"/>
<path d="M177.902 183.052C198.946 204.906 198.384 235.414 198.354 237.02L196.49 235.944C195.601 235.36 194.852 234.584 194.301 233.674C193.749 232.764 193.407 231.742 193.3 230.683C192.119 213.814 176.883 201.906 176.17 201.342L177.902 183.052Z" fill="url(#paint58_linear)"/>
<path d="M149.106 131.9C155.247 135.443 160.212 144.04 160.192 151.1C160.172 158.161 155.173 160.999 149.033 157.455C142.894 153.91 137.928 145.315 137.948 138.259C137.967 131.203 142.967 128.354 149.106 131.9Z" fill="url(#paint59_linear)"/>
<path d="M149.098 134.82C153.834 137.555 157.659 144.183 157.649 149.63C157.639 155.077 153.78 157.266 149.043 154.532C144.307 151.798 140.482 145.168 140.492 139.726C140.502 134.283 144.362 132.086 149.098 134.82Z" fill="url(#paint60_linear)"/>
<path d="M153.491 138.751L143.401 148.835C142.328 147.143 141.516 145.299 140.993 143.366L149.372 134.986C150.955 135.99 152.349 137.264 153.491 138.751Z" fill="url(#paint61_linear)"/>
<path d="M157.194 146.148L148.899 154.444C147.301 153.461 145.894 152.197 144.744 150.714L154.814 140.644C155.884 142.346 156.686 144.203 157.194 146.148Z" fill="url(#paint62_linear)"/>
<path d="M162.638 149.173C162.633 148.995 162.625 148.814 162.614 148.634C162.608 148.552 162.6 148.47 162.594 148.387L162.585 148.281C162.58 148.219 162.576 148.156 162.571 148.093C162.553 147.912 162.533 147.73 162.51 147.548C162.486 147.366 162.459 147.176 162.431 146.99V146.974V146.955C162.402 146.779 162.372 146.604 162.339 146.428C162.303 146.231 162.263 146.041 162.221 145.847C162.206 145.779 162.19 145.711 162.174 145.642L162.145 145.522C162.126 145.435 162.108 145.35 162.086 145.265C162.038 145.068 161.988 144.871 161.93 144.674C161.89 144.53 161.847 144.386 161.804 144.242L161.781 144.164L161.759 144.086C161.7 143.894 161.639 143.702 161.574 143.51C161.51 143.32 161.445 143.132 161.377 142.943C161.364 142.908 161.35 142.874 161.336 142.838L161.305 142.752C161.26 142.634 161.217 142.516 161.171 142.398C161.101 142.218 161.028 142.038 160.954 141.859C160.899 141.728 160.842 141.599 160.786 141.465L160.758 141.399L160.726 141.325C160.647 141.145 160.565 140.965 160.481 140.787C160.389 140.59 160.294 140.394 160.197 140.197C160.182 140.167 160.165 140.138 160.151 140.108C160.136 140.079 160.11 140.031 160.091 139.992C160.012 139.838 159.933 139.683 159.853 139.53C159.749 139.333 159.639 139.148 159.531 138.957C159.477 138.858 159.424 138.76 159.368 138.669C159.347 138.63 159.327 138.591 159.304 138.553C159.206 138.387 159.099 138.229 158.998 138.061C158.85 137.822 158.703 137.581 158.55 137.348C158.526 137.311 158.503 137.27 158.479 137.235C158.252 136.894 158.018 136.56 157.776 136.233C157.614 136.013 157.45 135.797 157.284 135.584C157.148 135.411 157.01 135.24 156.869 135.072L156.861 135.062L156.855 135.054C156.714 134.884 156.571 134.717 156.426 134.552C156.283 134.39 156.139 134.229 155.993 134.073L155.922 133.997C155.895 133.97 155.87 133.943 155.844 133.916C155.746 133.809 155.641 133.701 155.538 133.597C155.383 133.439 155.227 133.284 155.07 133.132C155.02 133.086 154.971 133.041 154.921 132.995C154.871 132.95 154.847 132.926 154.811 132.897C154.733 132.826 154.658 132.752 154.58 132.682C154.416 132.535 154.252 132.391 154.088 132.25C154.015 132.189 153.942 132.13 153.868 132.07L153.757 131.979C153.702 131.935 153.649 131.889 153.594 131.845C153.431 131.718 153.269 131.593 153.102 131.473C152.985 131.385 152.865 131.302 152.744 131.218C152.722 131.203 152.701 131.187 152.68 131.172C152.658 131.157 152.638 131.142 152.619 131.129C152.461 131.021 152.305 130.918 152.145 130.817C151.986 130.715 151.832 130.62 151.675 130.528L151.565 130.464C151.447 130.395 151.328 130.329 151.211 130.267C151.059 130.185 150.907 130.106 150.756 130.031C150.657 129.983 150.559 129.939 150.46 129.894L150.39 129.861L150.303 129.82C150.153 129.754 150.008 129.69 149.857 129.632C149.707 129.574 149.556 129.515 149.408 129.462L149.334 129.439L149.266 129.416C149.167 129.383 149.064 129.347 148.963 129.318C148.809 129.271 148.656 129.228 148.503 129.191C148.429 129.172 148.358 129.158 148.286 129.143L148.187 129.121C148.14 129.111 148.089 129.098 148.044 129.09C147.88 129.057 147.718 129.03 147.558 129.01C147.46 128.996 147.362 128.988 147.263 128.98C147.23 128.98 147.194 128.971 147.16 128.969L147.061 128.96C146.884 128.947 146.711 128.942 146.539 128.942C146.463 128.942 146.39 128.95 146.316 128.953C146.256 128.953 146.199 128.953 146.142 128.961C146.085 128.968 146.021 128.961 145.963 128.969C145.748 128.991 145.534 129.023 145.322 129.068H145.311C145.265 129.078 145.223 129.094 145.177 129.105C144.963 129.15 144.752 129.208 144.545 129.278C144.522 129.287 144.499 129.298 144.475 129.307C144.452 129.316 144.408 129.335 144.377 129.348C144.125 129.445 143.882 129.561 143.649 129.696L141.196 131.121C141.43 130.987 141.675 130.871 141.926 130.774C141.96 130.76 141.992 130.746 142.025 130.733C142.255 130.65 142.49 130.583 142.729 130.531C142.774 130.52 142.815 130.504 142.86 130.494C143.135 130.441 143.413 130.406 143.693 130.39L143.865 130.382C144.147 130.37 144.43 130.375 144.711 130.397L144.815 130.408C145.124 130.438 145.432 130.485 145.736 130.549L145.834 130.572C146.167 130.646 146.495 130.737 146.818 130.845L146.884 130.868C147.231 130.986 147.584 131.128 147.941 131.291L148.012 131.324C148.375 131.493 148.742 131.682 149.114 131.896C149.486 132.111 149.862 132.351 150.227 132.604L150.293 132.65C150.634 132.888 150.971 133.142 151.301 133.41L151.412 133.501C151.733 133.764 152.048 134.039 152.358 134.327L152.469 134.425C152.782 134.721 153.089 135.028 153.39 135.346C153.417 135.374 153.442 135.4 153.468 135.427C153.79 135.77 154.104 136.125 154.409 136.492L154.416 136.502C154.728 136.878 155.033 137.265 155.326 137.664C155.594 138.027 155.851 138.401 156.1 138.78C156.255 139.014 156.401 139.254 156.548 139.493C156.672 139.69 156.8 139.887 156.919 140.095C156.974 140.194 157.026 140.292 157.081 140.384C157.278 140.725 157.463 141.073 157.641 141.419L157.701 141.535C157.915 141.96 158.119 142.39 158.307 142.823L158.336 142.889C158.521 143.315 158.693 143.741 158.853 144.169L158.885 144.254C159.047 144.694 159.195 145.136 159.329 145.578L159.352 145.657C159.479 146.082 159.592 146.509 159.692 146.936L159.721 147.056C159.819 147.495 159.908 147.933 159.976 148.369V148.388C160.046 148.827 160.098 149.264 160.135 149.697L160.143 149.801C160.178 150.235 160.197 150.665 160.195 151.088C160.193 151.511 160.172 151.916 160.136 152.307C160.136 152.343 160.128 152.378 160.125 152.413C160.089 152.773 160.039 153.118 159.975 153.45L159.948 153.581C159.884 153.893 159.805 154.202 159.71 154.506C159.692 154.561 159.673 154.615 159.655 154.67C159.565 154.939 159.462 155.204 159.346 155.463C159.332 155.491 159.322 155.522 159.309 155.548C159.178 155.827 159.029 156.098 158.863 156.357C158.841 156.391 158.815 156.421 158.794 156.456C158.661 156.653 158.516 156.843 158.362 157.025C158.306 157.09 158.249 157.151 158.192 157.212C158.06 157.354 157.921 157.489 157.775 157.616C157.715 157.668 157.657 157.722 157.594 157.772C157.391 157.936 157.176 158.085 156.951 158.218L159.405 156.793C159.629 156.66 159.844 156.511 160.046 156.347C160.108 156.296 160.167 156.241 160.227 156.191C160.373 156.063 160.512 155.928 160.645 155.787C160.702 155.726 160.76 155.665 160.816 155.6C160.97 155.419 161.114 155.229 161.246 155.031C161.269 154.998 161.293 154.969 161.315 154.932L161.331 154.91C161.486 154.666 161.626 154.412 161.75 154.15L161.761 154.123C161.774 154.095 161.784 154.065 161.797 154.038C161.875 153.87 161.95 153.698 162.016 153.519C162.049 153.431 162.077 153.336 162.108 153.244C162.126 153.19 162.144 153.137 162.162 153.081C162.18 153.026 162.196 152.983 162.21 152.934C162.264 152.749 162.314 152.561 162.359 152.366C162.374 152.299 162.387 152.226 162.4 152.156C162.41 152.113 162.419 152.069 162.428 152.025C162.441 151.957 162.455 151.892 162.468 151.824C162.498 151.651 162.524 151.473 162.548 151.292C162.561 151.194 162.57 151.091 162.579 150.988L162.59 150.883C162.59 150.841 162.599 150.8 162.603 150.757C162.617 150.586 162.628 150.412 162.635 150.232C162.643 150.053 162.646 149.878 162.648 149.696V149.671C162.645 149.508 162.643 149.341 162.638 149.173Z" fill="url(#paint63_linear)"/>
<path opacity="0.32" d="M153.491 138.751L143.401 148.835C142.328 147.143 141.516 145.299 140.993 143.366L149.372 134.986C150.955 135.99 152.349 137.264 153.491 138.751Z" fill="url(#paint64_linear)"/>
<path d="M157.194 146.149L148.899 154.445C147.301 153.461 145.894 152.197 144.744 150.714L154.814 140.644C155.884 142.347 156.686 144.203 157.194 146.149Z" fill="url(#paint65_linear)"/>
<path d="M184.536 115.144C183.662 113.048 182.765 111.056 181.848 109.184C174.446 94.0202 166.175 83.3025 163.446 81.0529C163.183 80.8379 162.854 80.7205 162.515 80.7205C162.176 80.7205 161.847 80.8379 161.585 81.0529C158.851 83.2986 150.588 94.0202 143.182 109.184C142.279 111.036 141.393 112.999 140.525 115.074C153.5 120.824 171.581 120.848 184.536 115.144Z" fill="url(#paint66_linear)"/>
<path opacity="0.53" d="M162.934 80.7872C158.152 93.0066 154.361 105.591 151.597 118.418C147.787 117.741 144.068 116.62 140.518 115.078C140.8 114.398 141.093 113.729 141.374 113.073C141.75 112.23 142.124 111.4 142.499 110.587C142.734 110.119 142.956 109.65 143.179 109.181C150.589 94.026 158.842 83.2995 161.582 81.0568C161.74 80.9291 161.922 80.8351 162.118 80.7806C162.313 80.7261 162.518 80.7123 162.719 80.7399C162.792 80.7503 162.864 80.7661 162.934 80.7872Z" fill="#0A2F53"/>
<path d="M194.95 171.327C195.019 169.987 195.056 168.646 195.074 167.303C186.133 172.174 174.444 174.854 161.97 174.854C150.03 174.854 138.784 172.4 129.962 167.917C129.987 169.248 130.043 170.574 130.119 171.904C149.108 180.706 176.39 180.51 194.95 171.327Z" fill="url(#paint67_linear)"/>
<path d="M194.95 162.745C195.019 161.405 195.056 160.064 195.074 158.721C186.133 163.595 174.444 166.272 161.97 166.272C150.03 166.272 138.784 163.818 129.962 159.335C129.987 160.666 130.043 161.993 130.119 163.322C149.108 172.123 176.39 171.934 194.95 162.745Z" fill="url(#paint68_linear)"/>
<g opacity="0.53">
<g opacity="0.4">
<path opacity="0.4" d="M146.592 176.989C140.908 175.998 135.373 174.288 130.12 171.902C130.038 170.622 129.99 169.333 129.956 168.045V167.916C135.154 170.494 140.685 172.337 146.39 173.39C146.451 174.585 146.509 175.782 146.592 176.989Z" fill="#0031BA"/>
</g>
<g opacity="0.53">
<path opacity="0.4" d="M146.251 168.349C140.687 167.35 135.268 165.661 130.121 163.32C130.086 162.816 130.062 162.312 130.051 161.796C130.048 161.794 130.046 161.791 130.044 161.788C130.043 161.785 130.042 161.782 130.042 161.778C130.042 161.775 130.043 161.771 130.044 161.768C130.046 161.765 130.048 161.763 130.051 161.76C130.004 160.952 129.981 160.144 129.952 159.334L130.163 159.44C135.256 161.933 140.662 163.728 146.236 164.775V164.786C146.23 165.969 146.24 167.154 146.251 168.349Z" fill="#0031BA"/>
</g>
</g>
<defs>
<linearGradient id="paint0_linear" x1="142.619" y1="243.697" x2="277.443" y2="92.0475" gradientUnits="userSpaceOnUse">
<stop stop-color="white" stop-opacity="0"/>
<stop offset="1" stop-color="white"/>
</linearGradient>
<linearGradient id="paint1_linear" x1="108.022" y1="278.454" x2="108.022" y2="161.334" gradientUnits="userSpaceOnUse">
<stop stop-color="#00EAF9"/>
<stop offset="1" stop-color="#00BFF9"/>
</linearGradient>
<linearGradient id="paint2_linear" x1="73.8989" y1="210.807" x2="96.9451" y2="210.807" gradientUnits="userSpaceOnUse">
<stop stop-color="#006EE6"/>
<stop offset="0.979" stop-color="#00BFF9"/>
</linearGradient>
<linearGradient id="paint3_linear" x1="73.9019" y1="155.455" x2="119.096" y2="155.455" gradientUnits="userSpaceOnUse">
<stop stop-color="#0A2F53"/>
<stop offset="1" stop-color="#0089F9"/>
</linearGradient>
<linearGradient id="paint4_linear" x1="74.9369" y1="289.989" x2="74.9369" y2="207.418" gradientUnits="userSpaceOnUse">
<stop stop-color="#00EAF9"/>
<stop offset="1" stop-color="#00BFF9"/>
</linearGradient>
<linearGradient id="paint5_linear" x1="40.8149" y1="208.037" x2="63.8611" y2="208.037" gradientUnits="userSpaceOnUse">
<stop stop-color="#006EE6"/>
<stop offset="0.979" stop-color="#00BFF9"/>
</linearGradient>
<linearGradient id="paint6_linear" x1="40.8179" y1="208.381" x2="86.0128" y2="208.381" gradientUnits="userSpaceOnUse">
<stop stop-color="#0A2F53"/>
<stop offset="1" stop-color="#0089F9"/>
</linearGradient>
<linearGradient id="paint7_linear" x1="40.5937" y1="310.758" x2="40.5937" y2="257.739" gradientUnits="userSpaceOnUse">
<stop stop-color="#00EAF9"/>
<stop offset="1" stop-color="#00BFF9"/>
</linearGradient>
<linearGradient id="paint8_linear" x1="6.46973" y1="258.531" x2="29.5189" y2="258.531" gradientUnits="userSpaceOnUse">
<stop stop-color="#006EE6"/>
<stop offset="0.979" stop-color="#00BFF9"/>
</linearGradient>
<linearGradient id="paint9_linear" x1="6.47607" y1="258.873" x2="51.67" y2="258.873" gradientUnits="userSpaceOnUse">
<stop stop-color="#0A2F53"/>
<stop offset="1" stop-color="#0089F9"/>
</linearGradient>
<linearGradient id="paint10_linear" x1="287.964" y1="129.741" x2="235.768" y2="98.4439" gradientUnits="userSpaceOnUse">
<stop offset="0.038" stop-color="#FFFDF5"/>
<stop offset="1" stop-color="#EFEBDA"/>
</linearGradient>
<linearGradient id="paint11_linear" x1="287.939" y1="129.768" x2="235.78" y2="98.4326" gradientUnits="userSpaceOnUse">
<stop offset="0.038" stop-color="#FFFDF5"/>
<stop offset="1" stop-color="#EFEBDA"/>
</linearGradient>
<linearGradient id="paint12_linear" x1="292.615" y1="142.191" x2="233.569" y2="98.3079" gradientUnits="userSpaceOnUse">
<stop stop-color="#E66748"/>
<stop offset="0.804" stop-color="#CE5D42"/>
<stop offset="1" stop-color="#C85A40"/>
</linearGradient>
<linearGradient id="paint13_linear" x1="292.621" y1="142.243" x2="233.565" y2="98.315" gradientUnits="userSpaceOnUse">
<stop stop-color="#FCA08A"/>
<stop offset="1" stop-color="#E66748"/>
</linearGradient>
<linearGradient id="paint14_linear" x1="292.627" y1="142.197" x2="233.56" y2="98.3162" gradientUnits="userSpaceOnUse">
<stop stop-color="#E66748"/>
<stop offset="1" stop-color="#E2755A"/>
</linearGradient>
<linearGradient id="paint15_linear" x1="252.867" y1="97.6167" x2="219.276" y2="74.2498" gradientUnits="userSpaceOnUse">
<stop stop-color="#E66748"/>
<stop offset="1" stop-color="#FF6641"/>
</linearGradient>
<linearGradient id="paint16_linear" x1="-13.0611" y1="211.325" x2="71.177" y2="147.344" gradientUnits="userSpaceOnUse">
<stop stop-color="#E66748"/>
<stop offset="0.979" stop-color="#F1866C"/>
<stop offset="1" stop-color="#E66748"/>
</linearGradient>
<linearGradient id="paint17_linear" x1="0" y1="92.4922" x2="34.2849" y2="92.4922" gradientUnits="userSpaceOnUse">
<stop stop-color="#006EE6"/>
<stop offset="0.979" stop-color="#00BFF9"/>
</linearGradient>
<linearGradient id="paint18_linear" x1="10.0082" y1="126.076" x2="53.7924" y2="101.132" gradientUnits="userSpaceOnUse">
<stop stop-color="#0031BA"/>
<stop offset="1" stop-color="#0089F9"/>
</linearGradient>
<linearGradient id="paint19_linear" x1="424.522" y1="289.311" x2="332.3" y2="224.293" gradientUnits="userSpaceOnUse">
<stop stop-color="#8E3620"/>
<stop offset="0.979" stop-color="#E66748"/>
<stop offset="1" stop-color="#FFA088"/>
</linearGradient>
<linearGradient id="paint20_linear" x1="391.606" y1="306.051" x2="325.777" y2="259.103" gradientUnits="userSpaceOnUse">
<stop stop-color="#8E3620"/>
<stop offset="0.979" stop-color="#E66748"/>
<stop offset="1" stop-color="#FFA088"/>
</linearGradient>
<linearGradient id="paint21_linear" x1="426.285" y1="244.296" x2="387.595" y2="176.054" gradientUnits="userSpaceOnUse">
<stop stop-color="#8E3620"/>
<stop offset="0.979" stop-color="#E66748"/>
<stop offset="1" stop-color="#FFA088"/>
</linearGradient>
<linearGradient id="paint22_linear" x1="656.851" y1="399.502" x2="386.143" y2="268.303" gradientUnits="userSpaceOnUse">
<stop stop-color="#8E3620"/>
<stop offset="0.979" stop-color="#E66748"/>
<stop offset="1" stop-color="#FFA088"/>
</linearGradient>
<linearGradient id="paint23_linear" x1="665.069" y1="262.451" x2="567.949" y2="100.863" gradientUnits="userSpaceOnUse">
<stop stop-color="#8E3620"/>
<stop offset="0.979" stop-color="#E66748"/>
<stop offset="1" stop-color="#FFA088"/>
</linearGradient>
<linearGradient id="paint24_linear" x1="585.78" y1="347.882" x2="376.539" y2="217.878" gradientUnits="userSpaceOnUse">
<stop stop-color="#8E3620"/>
<stop offset="0.979" stop-color="#E66748"/>
<stop offset="1" stop-color="#FFA088"/>
</linearGradient>
<linearGradient id="paint25_linear" x1="424.598" y1="299.894" x2="370.953" y2="250.717" gradientUnits="userSpaceOnUse">
<stop stop-color="#E66748"/>
<stop offset="1" stop-color="#F57455"/>
</linearGradient>
<linearGradient id="paint26_linear" x1="462.117" y1="284.566" x2="297.341" y2="204.726" gradientUnits="userSpaceOnUse">
<stop stop-color="#8E3620"/>
<stop offset="0.979" stop-color="#E66748"/>
<stop offset="1" stop-color="#FFA088"/>
</linearGradient>
<linearGradient id="paint27_linear" x1="467.437" y1="201.112" x2="408.35" y2="102.689" gradientUnits="userSpaceOnUse">
<stop stop-color="#8E3620"/>
<stop offset="0.979" stop-color="#E66748"/>
<stop offset="1" stop-color="#FFA088"/>
</linearGradient>
<linearGradient id="paint28_linear" x1="362.961" y1="218.911" x2="304.777" y2="187.063" gradientUnits="userSpaceOnUse">
<stop stop-color="#E66748"/>
<stop offset="1" stop-color="#D15D41"/>
</linearGradient>
<linearGradient id="paint29_linear" x1="320.79" y1="223.935" x2="288.116" y2="193.994" gradientUnits="userSpaceOnUse">
<stop stop-color="#E66748"/>
<stop offset="1" stop-color="#F57455"/>
</linearGradient>
<linearGradient id="paint30_linear" x1="247.944" y1="365.532" x2="177.878" y2="230.418" gradientUnits="userSpaceOnUse">
<stop stop-color="#0A2F53"/>
<stop offset="0.979" stop-color="#00BFF9"/>
<stop offset="1" stop-color="#00BFF9"/>
</linearGradient>
<linearGradient id="paint31_linear" x1="161.7" y1="428.635" x2="161.7" y2="300.915" gradientUnits="userSpaceOnUse">
<stop stop-color="#0A2F53"/>
<stop offset="1" stop-color="#0031BA"/>
</linearGradient>
<linearGradient id="paint32_linear" x1="227.502" y1="337.29" x2="175.77" y2="237.537" gradientUnits="userSpaceOnUse">
<stop stop-color="#006EE6"/>
<stop offset="0.979" stop-color="#00BFF9"/>
</linearGradient>
<linearGradient id="paint33_linear" x1="163.835" y1="383.864" x2="163.835" y2="289.583" gradientUnits="userSpaceOnUse">
<stop stop-color="#0089F9"/>
<stop offset="1" stop-color="#0A2F53"/>
</linearGradient>
<linearGradient id="paint34_linear" x1="163.857" y1="297.04" x2="163.857" y2="62.4177" gradientUnits="userSpaceOnUse">
<stop stop-color="white"/>
<stop offset="1" stop-color="white" stop-opacity="0"/>
</linearGradient>
<radialGradient id="paint35_radial" cx="0" cy="0" r="1" gradientUnits="userSpaceOnUse" gradientTransform="translate(199.806 258.256) scale(5.59647)">
<stop stop-color="white"/>
<stop offset="1"/>
</radialGradient>
<radialGradient id="paint36_radial" cx="0" cy="0" r="1" gradientUnits="userSpaceOnUse" gradientTransform="translate(209.445 214.771) scale(2.67472)">
<stop stop-color="white"/>
<stop offset="1"/>
</radialGradient>
<radialGradient id="paint37_radial" cx="0" cy="0" r="1" gradientUnits="userSpaceOnUse" gradientTransform="translate(118.483 132.921) scale(4.99618)">
<stop stop-color="white"/>
<stop offset="1"/>
</radialGradient>
<radialGradient id="paint38_radial" cx="0" cy="0" r="1" gradientUnits="userSpaceOnUse" gradientTransform="translate(131.853 100.343) scale(1.83335)">
<stop stop-color="white"/>
<stop offset="1"/>
</radialGradient>
<radialGradient id="paint39_radial" cx="0" cy="0" r="1" gradientUnits="userSpaceOnUse" gradientTransform="translate(186.668 88.6834) scale(2.65703)">
<stop stop-color="white"/>
<stop offset="1"/>
</radialGradient>
<radialGradient id="paint40_radial" cx="0" cy="0" r="1" gradientUnits="userSpaceOnUse" gradientTransform="translate(198.825 119.316) scale(2.657)">
<stop stop-color="white"/>
<stop offset="1"/>
</radialGradient>
<radialGradient id="paint41_radial" cx="0" cy="0" r="1" gradientUnits="userSpaceOnUse" gradientTransform="translate(134.618 247.235) scale(2.66686)">
<stop stop-color="white"/>
<stop offset="1"/>
</radialGradient>
<linearGradient id="paint42_linear" x1="162.94" y1="279.076" x2="162.94" y2="218.898" gradientUnits="userSpaceOnUse">
<stop stop-color="#FFFB03"/>
<stop offset="1" stop-color="#FF7006"/>
</linearGradient>
<linearGradient id="paint43_linear" x1="162.515" y1="216.783" x2="162.515" y2="208.787" gradientUnits="userSpaceOnUse">
<stop offset="0.038" stop-color="#FFFDF5"/>
<stop offset="1" stop-color="#EFEBDA"/>
</linearGradient>
<radialGradient id="paint44_radial" cx="0" cy="0" r="1" gradientUnits="userSpaceOnUse" gradientTransform="translate(-596.852 -368.356) scale(16.6918 4.35029)">
<stop offset="0.014" stop-color="#AFA477"/>
<stop offset="0.152" stop-color="#B2A77C"/>
<stop offset="0.334" stop-color="#BCB38D"/>
<stop offset="0.54" stop-color="#CCC5A8"/>
<stop offset="0.765" stop-color="#E2DECF"/>
<stop offset="1" stop-color="white"/>
</radialGradient>
<linearGradient id="paint45_linear" x1="200.57" y1="202.702" x2="193.525" y2="195.611" gradientUnits="userSpaceOnUse">
<stop stop-color="#0089F9"/>
<stop offset="1" stop-color="#0031BA"/>
</linearGradient>
<linearGradient id="paint46_linear" x1="209.969" y1="205.017" x2="178.589" y2="190.724" gradientUnits="userSpaceOnUse">
<stop offset="0.021" stop-color="#00BFF9"/>
<stop offset="1" stop-color="#006EE6"/>
</linearGradient>
<linearGradient id="paint47_linear" x1="184.972" y1="176.973" x2="195.973" y2="176.973" gradientUnits="userSpaceOnUse">
<stop offset="0.074" stop-color="#BFB89D"/>
<stop offset="1" stop-color="#EFEBDA"/>
</linearGradient>
<linearGradient id="paint48_linear" x1="184.973" y1="184.352" x2="187.888" y2="184.352" gradientUnits="userSpaceOnUse">
<stop offset="0.038" stop-color="#FFFDF5"/>
<stop offset="1" stop-color="#EFEBDA"/>
</linearGradient>
<linearGradient id="paint49_linear" x1="121.652" y1="202.429" x2="126.599" y2="196.176" gradientUnits="userSpaceOnUse">
<stop stop-color="#0089F9"/>
<stop offset="1" stop-color="#0031BA"/>
</linearGradient>
<linearGradient id="paint50_linear" x1="114.084" y1="203.62" x2="139.638" y2="190.785" gradientUnits="userSpaceOnUse">
<stop offset="0.021" stop-color="#00BFF9"/>
<stop offset="1" stop-color="#006EE6"/>
</linearGradient>
<linearGradient id="paint51_linear" x1="126.795" y1="184.348" x2="129.709" y2="184.348" gradientUnits="userSpaceOnUse">
<stop offset="0.038" stop-color="#FFFDF5"/>
<stop offset="1" stop-color="#EFEBDA"/>
</linearGradient>
<linearGradient id="paint52_linear" x1="123.359" y1="129.324" x2="197.67" y2="138.293" gradientUnits="userSpaceOnUse">
<stop offset="0.038" stop-color="#FFFDF5"/>
<stop offset="1" stop-color="#EFEBDA"/>
</linearGradient>
<linearGradient id="paint53_linear" x1="139.425" y1="100.062" x2="184.712" y2="100.062" gradientUnits="userSpaceOnUse">
<stop stop-color="#0031BA"/>
<stop offset="1" stop-color="#0089F9"/>
</linearGradient>
<linearGradient id="paint54_linear" x1="166.498" y1="111.597" x2="142.284" y2="103.675" gradientUnits="userSpaceOnUse">
<stop stop-color="#0031BA"/>
<stop offset="1" stop-color="#0089F9"/>
</linearGradient>
<linearGradient id="paint55_linear" x1="154.087" y1="230.763" x2="101.071" y2="215.326" gradientUnits="userSpaceOnUse">
<stop stop-color="#0031BA"/>
<stop offset="1" stop-color="#0089F9"/>
</linearGradient>
<linearGradient id="paint56_linear" x1="126.827" y1="183.052" x2="149.02" y2="183.052" gradientUnits="userSpaceOnUse">
<stop stop-color="#006EE6"/>
<stop offset="0.979" stop-color="#00BFF9"/>
</linearGradient>
<linearGradient id="paint57_linear" x1="73.5187" y1="230.763" x2="20.5024" y2="215.326" gradientUnits="userSpaceOnUse">
<stop stop-color="#0031BA"/>
<stop offset="1" stop-color="#0089F9"/>
</linearGradient>
<linearGradient id="paint58_linear" x1="46.2882" y1="183.052" x2="68.4788" y2="183.052" gradientUnits="userSpaceOnUse">
<stop stop-color="#006EE6"/>
<stop offset="0.979" stop-color="#00BFF9"/>
</linearGradient>
<linearGradient id="paint59_linear" x1="137.948" y1="144.678" x2="160.192" y2="144.678" gradientUnits="userSpaceOnUse">
<stop stop-color="#0A2F53"/>
<stop offset="0.979" stop-color="#00BFF9"/>
<stop offset="1" stop-color="#00BFF9"/>
</linearGradient>
<linearGradient id="paint60_linear" x1="141.109" y1="153.37" x2="158.173" y2="142.116" gradientUnits="userSpaceOnUse">
<stop stop-color="#0A2F53"/>
<stop offset="1" stop-color="#0089F9"/>
</linearGradient>
<linearGradient id="paint61_linear" x1="138.906" y1="150.151" x2="153.858" y2="136.856" gradientUnits="userSpaceOnUse">
<stop stop-color="#0031BA"/>
<stop offset="1" stop-color="#0089F9"/>
</linearGradient>
<linearGradient id="paint62_linear" x1="144.147" y1="155.88" x2="159.058" y2="142.638" gradientUnits="userSpaceOnUse">
<stop stop-color="#0031BA"/>
<stop offset="1" stop-color="#0089F9"/>
</linearGradient>
<linearGradient id="paint63_linear" x1="165.845" y1="162.903" x2="139.931" y2="137.882" gradientUnits="userSpaceOnUse">
<stop stop-color="#0A2F53"/>
<stop offset="1" stop-color="#0A2F53"/>
</linearGradient>
<linearGradient id="paint64_linear" x1="143.105" y1="144.763" x2="166.435" y2="128.272" gradientUnits="userSpaceOnUse">
<stop stop-color="white" stop-opacity="0"/>
<stop offset="1" stop-color="white"/>
</linearGradient>
<linearGradient id="paint65_linear" x1="148.242" y1="150.677" x2="171.58" y2="134.205" gradientUnits="userSpaceOnUse">
<stop stop-color="white" stop-opacity="0"/>
<stop offset="1" stop-color="white"/>
</linearGradient>
<linearGradient id="paint66_linear" x1="188.321" y1="131.628" x2="148.867" y2="84.4422" gradientUnits="userSpaceOnUse">
<stop stop-color="#0A2F53"/>
<stop offset="1" stop-color="#0089F9"/>
</linearGradient>
<linearGradient id="paint67_linear" x1="129.962" y1="167.303" x2="195.074" y2="167.303" gradientUnits="userSpaceOnUse">
<stop stop-color="#006EE6"/>
<stop offset="0.979" stop-color="#00BFF9"/>
</linearGradient>
<linearGradient id="paint68_linear" x1="129.962" y1="158.721" x2="195.074" y2="158.721" gradientUnits="userSpaceOnUse">
<stop stop-color="#006EE6"/>
<stop offset="0.979" stop-color="#00BFF9"/>
</linearGradient>
</defs>
</svg>
