<svg width="67" height="68" viewBox="0 0 67 68" fill="none" xmlns="http://www.w3.org/2000/svg">
<path d="M58.132 56.7927C55.114 56.7927 54.778 55.4527 54.778 54.7827C56.8348 53.8963 58.5757 52.4092 59.7727 50.5162C60.9697 48.6233 61.5669 46.4128 61.486 44.1747V43.3927C61.4908 42.0706 61.2337 40.7608 60.7297 39.5386C60.2256 38.3164 59.4846 37.206 58.5492 36.2717C57.6139 35.3374 56.5028 34.5976 55.2801 34.0948C54.0573 33.5921 52.7471 33.3365 51.4251 33.3428H38.0101C37.861 33.3337 37.7116 33.3564 37.5719 33.4093C37.4323 33.4622 37.3054 33.5442 37.1998 33.6498C37.0941 33.7553 37.0121 33.8821 36.959 34.0217C36.906 34.1613 36.8831 34.3106 36.892 34.4597C36.895 36.9875 37.8533 39.4208 39.575 41.2717C39.3168 42.3331 39.1671 43.4181 39.1281 44.5097C39.136 46.6868 39.7734 48.8151 40.9637 50.638C42.1539 52.461 43.8461 53.9007 45.8361 54.7837C45.8361 55.4537 45.5011 56.7937 42.4821 56.7937C41.7464 56.7859 41.0166 56.925 40.3354 57.2027C39.6541 57.4805 39.0351 57.8914 38.5146 58.4112C37.994 58.9311 37.5823 59.5496 37.3038 60.2305C37.0252 60.9114 36.8852 61.641 36.892 62.3767V67.9597H39.1281V62.3767C39.1202 61.9343 39.2015 61.4948 39.3674 61.0846C39.5332 60.6743 39.78 60.3016 40.0931 59.9889C40.4061 59.6762 40.7792 59.4298 41.1896 59.2645C41.6001 59.0992 42.0397 59.0183 42.4821 59.0267C45.9481 59.0267 48.0721 57.3517 48.0721 54.5597V54.0017C48.066 53.7725 47.9868 53.5513 47.8459 53.3705C47.705 53.1896 47.5097 53.0586 47.289 52.9967C45.5515 52.3585 44.0518 51.2024 42.9922 49.6847C41.9327 48.167 41.3644 46.3607 41.3641 44.5097C41.3416 43.9862 41.3791 43.4618 41.476 42.9468C43.1149 43.981 45.0161 44.5234 46.954 44.5097H59.2541C59.2674 46.3502 58.7027 48.1484 57.6397 49.651C56.5767 51.1535 55.069 52.2846 53.329 52.8848C53.1084 52.9468 52.9136 53.0778 52.7729 53.2587C52.6322 53.4395 52.553 53.6607 52.547 53.8898V54.5597C52.547 57.3517 54.671 59.0267 58.137 59.0267C58.5794 59.0183 59.019 59.0992 59.4295 59.2645C59.8399 59.4298 60.2128 59.6762 60.5259 59.9889C60.839 60.3016 61.0859 60.6743 61.2518 61.0846C61.4176 61.4948 61.4989 61.9343 61.491 62.3767V67.9597H63.7271V62.3767C63.7341 61.6405 63.594 60.9103 63.3151 60.229C63.0363 59.5476 62.6243 58.9289 62.1032 58.4088C61.5821 57.8887 60.9625 57.4779 60.2806 57.2004C59.5987 56.9229 58.8682 56.7843 58.132 56.7927ZM46.953 42.2757C45.0774 42.2699 43.2663 41.5899 41.8503 40.36C40.4342 39.13 39.5075 37.432 39.2391 35.5757H51.424C53.2996 35.5815 55.1107 36.2615 56.5268 37.4914C57.9429 38.7214 58.8696 40.4194 59.138 42.2757H46.953Z" fill="url(#paint0_linear)"/>
<path d="M66.964 31.11V12.126C66.984 11.543 66.8857 10.962 66.675 10.4181C66.4644 9.87413 66.1457 9.37838 65.7383 8.96094C65.3308 8.5435 64.8431 8.21291 64.3044 7.98914C63.7658 7.76536 63.1873 7.65305 62.604 7.65894H40.245V5.4259C40.241 4.24153 39.7685 3.10691 38.9305 2.2699C38.0926 1.43289 36.9573 0.96162 35.7729 0.958984H4.47302C3.28865 0.96162 2.1535 1.43289 1.31555 2.2699C0.477603 3.10691 0.0049374 4.24153 0.000976562 5.4259V29.9929C0.000976562 34.6829 1.67798 38.033 5.03198 40.043L6.15002 38.1429C3.57902 36.4679 2.23706 33.9 2.23706 29.991V5.42395C2.23917 4.83185 2.47545 4.26471 2.89441 3.84631C3.31337 3.42792 3.88092 3.19224 4.47302 3.19092H35.7729C36.365 3.19224 36.9326 3.42792 37.3516 3.84631C37.7705 4.26471 38.0069 4.83185 38.009 5.42395V26.64C38.0072 27.2323 37.7709 27.7996 37.3519 28.2183C36.9329 28.6369 36.3652 28.8726 35.7729 28.8739H15.873C14.1841 28.8715 12.5513 29.4811 11.2771 30.5897C10.0029 31.6983 9.17335 33.2309 8.94202 34.9039V35.574H11.178V35.127C11.3425 34.0017 11.9094 32.9742 12.7737 32.235C13.6379 31.4958 14.7409 31.095 15.8781 31.1069H35.778C36.9623 31.1043 38.0976 30.633 38.9355 29.796C39.7735 28.959 40.246 27.8244 40.25 26.64H53.665C54.4007 26.6323 55.1304 26.7713 55.8116 27.0491C56.4929 27.3268 57.1119 27.7376 57.6324 28.2574C58.153 28.7773 58.5647 29.3959 58.8433 30.0768C59.1219 30.7577 59.2618 31.4872 59.255 32.2229H61.491C61.4968 31.194 61.2984 30.1743 60.9071 29.2228C60.5158 28.2712 59.9396 27.4068 59.2117 26.6797C58.4838 25.9525 57.6187 25.3771 56.6667 24.9868C55.7148 24.5965 54.6949 24.3991 53.666 24.406H40.251V9.88892H62.6C63.1921 9.89023 63.7596 10.1259 64.1786 10.5443C64.5975 10.9627 64.8339 11.5299 64.8361 12.1219V31.106C64.964 33.4361 64.2498 35.7345 62.824 37.5819L64.501 39.0339C66.3035 36.8039 67.1847 33.9689 66.964 31.11Z" fill="url(#paint1_linear)"/>
<path d="M27.9482 57.9099C27.0942 57.9203 26.2691 57.6012 25.6444 57.0188C25.0197 56.4364 24.6436 55.6356 24.5942 54.7829C26.6232 53.8969 28.3441 52.4295 29.5394 50.5659C30.7348 48.7023 31.3511 46.5263 31.3103 44.3127C31.2695 42.0991 30.5736 39.9472 29.3104 38.1289C28.0473 36.3106 26.2736 34.9075 24.2134 34.0968C22.1532 33.2861 19.8989 33.1041 17.7353 33.574C15.5718 34.0438 13.596 35.1443 12.0576 36.7366C10.5192 38.3288 9.48723 40.3412 9.09203 42.5196C8.69684 44.6981 8.95621 46.9448 9.83727 48.9759C10.9811 51.5701 13.0549 53.6418 15.6503 54.7829C15.6009 55.6356 15.2248 56.4364 14.6001 57.0188C13.9754 57.6012 13.1503 57.9203 12.2963 57.9099C11.5606 57.9021 10.8308 58.0412 10.1495 58.3189C9.46828 58.5967 8.84927 59.0076 8.32873 59.5274C7.80819 60.0473 7.39663 60.6659 7.11804 61.3468C6.83944 62.0277 6.69947 62.7572 6.70629 63.4929V67.9599H8.94225V63.4929C8.93438 63.0505 9.01582 62.611 9.18163 62.2008C9.34745 61.7905 9.59426 61.4179 9.90734 61.1052C10.2204 60.7925 10.5933 60.546 11.0038 60.3807C11.4142 60.2154 11.8538 60.1345 12.2963 60.1429C13.0319 60.1507 13.7617 60.0116 14.443 59.7339C15.1242 59.4561 15.7432 59.0453 16.2638 58.5254C16.7843 58.0055 17.1959 57.3871 17.4745 56.7062C17.7531 56.0253 17.893 55.2956 17.8862 54.5599V54.0019C17.8802 53.7727 17.8009 53.5516 17.66 53.3707C17.5191 53.1898 17.324 53.0588 17.1033 52.9969C15.5467 52.4441 14.1714 51.4753 13.1268 50.1957C12.0822 48.9161 11.4083 47.3747 11.1782 45.739H14.5322C14.7699 45.7157 14.9993 45.6392 15.2032 45.515L17.8862 43.7279L20.5692 45.515C20.7732 45.6391 21.0026 45.7157 21.2402 45.739H28.9542C28.7446 47.382 28.0783 48.9331 27.0309 50.2162C25.9835 51.4992 24.5971 52.4627 23.0293 52.9969C22.8085 53.0588 22.6133 53.1898 22.4724 53.3707C22.3315 53.5516 22.2522 53.7727 22.2462 54.0019V54.5599C22.2394 55.2956 22.3794 56.0253 22.658 56.7062C22.9365 57.3871 23.3482 58.0055 23.8688 58.5254C24.3893 59.0453 25.0083 59.4561 25.6896 59.7339C26.3708 60.0116 27.1006 60.1507 27.8363 60.1429C28.2787 60.1345 28.7182 60.2154 29.1287 60.3807C29.5391 60.546 29.9121 60.7925 30.2252 61.1052C30.5383 61.4179 30.7851 61.7905 30.9509 62.2008C31.1167 62.611 31.1981 63.0505 31.1902 63.4929V67.9599H33.4263V63.4929C33.455 62.7609 33.3338 62.0308 33.0701 61.3474C32.8063 60.664 32.4056 60.0417 31.8926 59.5188C31.3795 58.9959 30.765 58.5834 30.0867 58.3067C29.4084 58.0301 28.6806 57.895 27.9482 57.9099ZM21.5763 43.3929L18.5582 41.3829C18.3718 41.2734 18.1595 41.2157 17.9432 41.2157C17.727 41.2157 17.5147 41.2734 17.3282 41.3829L14.1982 43.3929H11.2913C11.424 42.2277 11.7889 41.101 12.3643 40.0791C12.9396 39.0572 13.7139 38.1609 14.6414 37.4432C15.5688 36.7255 16.6306 36.2009 17.7642 35.9002C18.8977 35.5996 20.08 35.5292 21.2412 35.693C23.199 35.9388 25.0196 36.8286 26.4161 38.2226C27.8127 39.6166 28.7059 41.4355 28.9552 43.3929H21.5763Z" fill="url(#paint2_linear)"/>
<path d="M29.0698 6.54004H5.58984V8.77004H29.0698V6.54004Z" fill="url(#paint3_linear)"/>
<path d="M12.2998 11.0098H5.58984V13.2398H12.2998V11.0098Z" fill="url(#paint4_linear)"/>
<path d="M31.3003 11.0098H14.5303V13.2398H31.3003V11.0098Z" fill="url(#paint5_linear)"/>
<path d="M7.82984 15.48H5.58984V17.71H7.82984V15.48Z" fill="url(#paint6_linear)"/>
<path d="M19.0001 15.48H10.0601V17.71H19.0001V15.48Z" fill="url(#paint7_linear)"/>
<path d="M31.3002 15.48H21.2402V17.71H31.3002V15.48Z" fill="url(#paint8_linear)"/>
<path d="M62.6002 14.3599H46.9502V16.5899H62.6002V14.3599Z" fill="url(#paint9_linear)"/>
<path d="M50.31 18.8301H42.48V21.0601H50.31V18.8301Z" fill="url(#paint10_linear)"/>
<path d="M62.6 18.8301H52.54V21.0601H62.6V18.8301Z" fill="url(#paint11_linear)"/>
<path d="M44.72 14.3599H42.48V16.5899H44.72V14.3599Z" fill="url(#paint12_linear)"/>
<path d="M32 65.96H8V67.96H32V65.96Z" fill="url(#paint13_linear)"/>
<path d="M63 65.96H39V67.96H63V65.96Z" fill="url(#paint14_linear)"/>
<defs>
<linearGradient id="paint0_linear" x1="50.3087" y1="33.3408" x2="50.3087" y2="67.9597" gradientUnits="userSpaceOnUse">
<stop stop-color="#436280"/>
<stop offset="1" stop-color="#0A2F53"/>
</linearGradient>
<linearGradient id="paint1_linear" x1="33.4992" y1="0.958984" x2="33.4992" y2="40.043" gradientUnits="userSpaceOnUse">
<stop stop-color="#436280"/>
<stop offset="1" stop-color="#0A2F53"/>
</linearGradient>
<linearGradient id="paint2_linear" x1="20.0682" y1="33.3188" x2="20.0682" y2="67.9599" gradientUnits="userSpaceOnUse">
<stop stop-color="#436280"/>
<stop offset="1" stop-color="#0A2F53"/>
</linearGradient>
<linearGradient id="paint3_linear" x1="17.3298" y1="6.54004" x2="17.3298" y2="8.77004" gradientUnits="userSpaceOnUse">
<stop stop-color="#436280"/>
<stop offset="1" stop-color="#0A2F53"/>
</linearGradient>
<linearGradient id="paint4_linear" x1="8.94484" y1="11.0098" x2="8.94484" y2="13.2398" gradientUnits="userSpaceOnUse">
<stop stop-color="#436280"/>
<stop offset="1" stop-color="#0A2F53"/>
</linearGradient>
<linearGradient id="paint5_linear" x1="22.9153" y1="11.0098" x2="22.9153" y2="13.2398" gradientUnits="userSpaceOnUse">
<stop stop-color="#436280"/>
<stop offset="1" stop-color="#0A2F53"/>
</linearGradient>
<linearGradient id="paint6_linear" x1="6.70984" y1="15.48" x2="6.70984" y2="17.71" gradientUnits="userSpaceOnUse">
<stop stop-color="#436280"/>
<stop offset="1" stop-color="#0A2F53"/>
</linearGradient>
<linearGradient id="paint7_linear" x1="14.5301" y1="15.48" x2="14.5301" y2="17.71" gradientUnits="userSpaceOnUse">
<stop stop-color="#436280"/>
<stop offset="1" stop-color="#0A2F53"/>
</linearGradient>
<linearGradient id="paint8_linear" x1="26.2702" y1="15.48" x2="26.2702" y2="17.71" gradientUnits="userSpaceOnUse">
<stop stop-color="#436280"/>
<stop offset="1" stop-color="#0A2F53"/>
</linearGradient>
<linearGradient id="paint9_linear" x1="54.7752" y1="14.3599" x2="54.7752" y2="16.5899" gradientUnits="userSpaceOnUse">
<stop stop-color="#436280"/>
<stop offset="1" stop-color="#0A2F53"/>
</linearGradient>
<linearGradient id="paint10_linear" x1="46.395" y1="18.8301" x2="46.395" y2="21.0601" gradientUnits="userSpaceOnUse">
<stop stop-color="#436280"/>
<stop offset="1" stop-color="#0A2F53"/>
</linearGradient>
<linearGradient id="paint11_linear" x1="57.57" y1="18.8301" x2="57.57" y2="21.0601" gradientUnits="userSpaceOnUse">
<stop stop-color="#436280"/>
<stop offset="1" stop-color="#0A2F53"/>
</linearGradient>
<linearGradient id="paint12_linear" x1="43.6" y1="14.3599" x2="43.6" y2="16.5899" gradientUnits="userSpaceOnUse">
<stop stop-color="#436280"/>
<stop offset="1" stop-color="#0A2F53"/>
</linearGradient>
<linearGradient id="paint13_linear" x1="20" y1="65.96" x2="20" y2="67.96" gradientUnits="userSpaceOnUse">
<stop stop-color="#436280"/>
<stop offset="1" stop-color="#0A2F53"/>
</linearGradient>
<linearGradient id="paint14_linear" x1="51" y1="65.96" x2="51" y2="67.96" gradientUnits="userSpaceOnUse">
<stop stop-color="#436280"/>
<stop offset="1" stop-color="#0A2F53"/>
</linearGradient>
</defs>
</svg>
