<svg width="78" height="77" viewBox="0 0 78 77" fill="none" xmlns="http://www.w3.org/2000/svg">
<path d="M36.2722 55.959C35.9766 55.9678 35.6961 56.0913 35.4901 56.3035C35.2842 56.5157 35.1689 56.7998 35.1689 57.0955C35.1689 57.3912 35.2842 57.6753 35.4901 57.8875C35.6961 58.0996 35.9766 58.2232 36.2722 58.232H41.7282C42.0238 58.2232 42.3043 58.0996 42.5103 57.8875C42.7163 57.6753 42.8315 57.3912 42.8315 57.0955C42.8315 56.7998 42.7163 56.5157 42.5103 56.3035C42.3043 56.0913 42.0238 55.9678 41.7282 55.959H36.2722Z" fill="url(#paint0_linear)"/>
<path d="M13.8431 38.3096H21.3561C21.5853 38.9114 21.9919 39.4293 22.5221 39.7948C23.0523 40.1603 23.6811 40.3559 24.3251 40.3559C24.969 40.3559 25.5978 40.1603 26.128 39.7948C26.6583 39.4293 27.0649 38.9114 27.2941 38.3096H28.7941C28.9462 38.3141 29.0976 38.288 29.2394 38.233C29.3813 38.1779 29.5106 38.0949 29.6198 37.9889C29.7289 37.8829 29.8157 37.7561 29.875 37.616C29.9343 37.4758 29.9648 37.3252 29.9648 37.1731C29.9648 37.0209 29.9343 36.8703 29.875 36.7302C29.8157 36.5901 29.7289 36.4632 29.6198 36.3573C29.5106 36.2513 29.3813 36.1683 29.2394 36.1132C29.0976 36.0581 28.9462 36.0321 28.7941 36.0366H27.2941C27.0649 35.4348 26.6583 34.9168 26.128 34.5514C25.5978 34.1859 24.969 33.9902 24.3251 33.9902C23.6811 33.9902 23.0523 34.1859 22.5221 34.5514C21.9919 34.9168 21.5853 35.4348 21.3561 36.0366H13.8431C13.691 36.0321 13.5395 36.0581 13.3977 36.1132C13.2559 36.1683 13.1266 36.2513 13.0174 36.3573C12.9082 36.4632 12.8214 36.5901 12.7622 36.7302C12.7029 36.8703 12.6724 37.0209 12.6724 37.1731C12.6724 37.3252 12.7029 37.4758 12.7622 37.616C12.8214 37.7561 12.9082 37.8829 13.0174 37.9889C13.1266 38.0949 13.2559 38.1779 13.3977 38.233C13.5395 38.288 13.691 38.3141 13.8431 38.3096ZM24.3251 36.2636C24.5049 36.2636 24.6806 36.3169 24.8301 36.4168C24.9796 36.5167 25.0961 36.6586 25.1649 36.8247C25.2337 36.9908 25.2517 37.1736 25.2166 37.3499C25.1815 37.5263 25.095 37.6882 24.9678 37.8154C24.8407 37.9425 24.6787 38.029 24.5024 38.0641C24.3261 38.0992 24.1433 38.0812 23.9772 38.0124C23.8111 37.9436 23.6692 37.8271 23.5693 37.6776C23.4694 37.5281 23.4161 37.3524 23.4161 37.1726C23.4163 36.9316 23.5122 36.7005 23.6826 36.5301C23.853 36.3597 24.0841 36.2639 24.3251 36.2636Z" fill="url(#paint1_linear)"/>
<path d="M13.8431 31.793H15.2941C15.5233 32.3948 15.9299 32.9127 16.4601 33.2782C16.9904 33.6436 17.6191 33.8393 18.2631 33.8393C18.907 33.8393 19.5358 33.6436 20.066 33.2782C20.5962 32.9127 21.0029 32.3948 21.2321 31.793H28.7961C28.9482 31.7975 29.0996 31.7714 29.2414 31.7164C29.3833 31.6613 29.5126 31.5783 29.6218 31.4723C29.7309 31.3663 29.8177 31.2395 29.877 31.0994C29.9363 30.9592 29.9668 30.8086 29.9668 30.6565C29.9668 30.5043 29.9363 30.3537 29.877 30.2136C29.8177 30.0735 29.7309 29.9466 29.6218 29.8407C29.5126 29.7347 29.3833 29.6517 29.2414 29.5966C29.0996 29.5415 28.9482 29.5155 28.7961 29.52H21.2321C21.0029 28.9182 20.5962 28.4002 20.066 28.0348C19.5358 27.6693 18.907 27.4736 18.2631 27.4736C17.6191 27.4736 16.9904 27.6693 16.4601 28.0348C15.9299 28.4002 15.5233 28.9182 15.2941 29.52H13.8431C13.691 29.5155 13.5395 29.5415 13.3977 29.5966C13.2559 29.6517 13.1266 29.7347 13.0174 29.8407C12.9082 29.9466 12.8214 30.0735 12.7622 30.2136C12.7029 30.3537 12.6724 30.5043 12.6724 30.6565C12.6724 30.8086 12.7029 30.9592 12.7622 31.0994C12.8214 31.2395 12.9082 31.3663 13.0174 31.4723C13.1266 31.5783 13.2559 31.6613 13.3977 31.7164C13.5395 31.7714 13.691 31.7975 13.8431 31.793ZM18.2631 29.747C18.4429 29.747 18.6186 29.8003 18.7681 29.9002C18.9176 30.0001 19.0341 30.142 19.1029 30.3081C19.1717 30.4742 19.1897 30.657 19.1546 30.8333C19.1195 31.0097 19.033 31.1716 18.9058 31.2988C18.7787 31.4259 18.6167 31.5124 18.4404 31.5475C18.2641 31.5826 18.0813 31.5646 17.9152 31.4958C17.7491 31.427 17.6072 31.3105 17.5073 31.161C17.4074 31.0115 17.3541 30.8358 17.3541 30.656C17.3543 30.415 17.4502 30.1839 17.6206 30.0135C17.791 29.8431 18.0221 29.7473 18.2631 29.747Z" fill="url(#paint2_linear)"/>
<path d="M29.0232 21.337C29.6512 21.337 30.1602 20.8279 30.1602 20.2C30.1602 19.572 29.6512 19.063 29.0232 19.063C28.3953 19.063 27.8862 19.572 27.8862 20.2C27.8862 20.8279 28.3953 21.337 29.0232 21.337Z" fill="url(#paint3_linear)"/>
<path d="M25.8909 21.337C26.5189 21.337 27.0279 20.8279 27.0279 20.2C27.0279 19.572 26.5189 19.063 25.8909 19.063C25.263 19.063 24.7539 19.572 24.7539 20.2C24.7539 20.8279 25.263 21.337 25.8909 21.337Z" fill="url(#paint4_linear)"/>
<path d="M22.7591 21.337C23.387 21.337 23.8961 20.8279 23.8961 20.2C23.8961 19.572 23.387 19.063 22.7591 19.063C22.1311 19.063 21.6221 19.572 21.6221 20.2C21.6221 20.8279 22.1311 21.337 22.7591 21.337Z" fill="url(#paint5_linear)"/>
<path d="M74.3871 7.30979H73.9611L74.2781 6.99279C74.7347 6.53501 74.9911 5.91484 74.9911 5.26829C74.9911 4.62174 74.7347 4.00157 74.2781 3.54379L71.7911 1.05479C71.3333 0.598204 70.7132 0.341797 70.0666 0.341797C69.4201 0.341797 68.7999 0.598204 68.3421 1.05479L62.0871 7.30979H3.61313C2.70923 7.31085 1.84265 7.67032 1.20341 8.30937C0.564172 8.94843 0.204448 9.8149 0.203125 10.7188L0.203125 57.9188C0.204184 59.0239 0.643651 60.0834 1.42507 60.8648C2.2065 61.6463 3.26603 62.0857 4.37113 62.0868H31.2931V70.1268H25.8151C25.112 70.1276 24.4379 70.4072 23.9408 70.9044C23.4436 71.4016 23.1639 72.0757 23.1631 72.7788V73.9178C23.1639 74.6209 23.4436 75.295 23.9408 75.7922C24.4379 76.2893 25.112 76.569 25.8151 76.5698H52.1851C52.8882 76.569 53.5623 76.2893 54.0595 75.7922C54.5567 75.295 54.8363 74.6209 54.8371 73.9178V72.7818C54.8363 72.0787 54.5567 71.4046 54.0595 70.9074C53.5623 70.4102 52.8882 70.1306 52.1851 70.1298H46.7031V62.0898H58.8531C59.1487 62.081 59.4292 61.9574 59.6352 61.7453C59.8412 61.5331 59.9564 61.249 59.9564 60.9533C59.9564 60.6576 59.8412 60.3735 59.6352 60.1613C59.4292 59.9491 59.1487 59.8256 58.8531 59.8168H4.37113C3.86929 59.8152 3.38846 59.6152 3.03361 59.2603C2.67876 58.9055 2.47871 58.4246 2.47712 57.9228V54.5568H75.5241V57.9208C75.5225 58.4226 75.3225 58.9035 74.9676 59.2583C74.6128 59.6132 74.132 59.8132 73.6301 59.8148H64.1571C63.8615 59.8236 63.581 59.9471 63.375 60.1593C63.169 60.3715 63.0538 60.6556 63.0538 60.9513C63.0538 61.247 63.169 61.5311 63.375 61.7433C63.581 61.9554 63.8615 62.079 64.1571 62.0878H73.6291C74.7342 62.0867 75.7938 61.6473 76.5752 60.8658C77.3566 60.0844 77.7961 59.0249 77.7971 57.9198V10.7198C77.7961 9.81573 77.4365 8.949 76.7972 8.30973C76.1579 7.67046 75.2912 7.31085 74.3871 7.30979ZM52.1871 72.4038C52.2876 72.4038 52.384 72.4437 52.4551 72.5148C52.5262 72.5859 52.5661 72.6823 52.5661 72.7828V73.9178C52.5661 74.0183 52.5262 74.1147 52.4551 74.1858C52.384 74.2569 52.2876 74.2968 52.1871 74.2968H25.8151C25.7146 74.2968 25.6182 74.2569 25.5471 74.1858C25.4761 74.1147 25.4361 74.0183 25.4361 73.9178V72.7818C25.4361 72.732 25.4459 72.6827 25.465 72.6368C25.484 72.5908 25.5119 72.549 25.5471 72.5138C25.5823 72.4786 25.6241 72.4507 25.6701 72.4316C25.7161 72.4126 25.7654 72.4028 25.8151 72.4028L52.1871 72.4038ZM33.5661 62.0898H44.4341V70.1298H33.5661V62.0898ZM69.9491 2.66179C69.9645 2.64634 69.9829 2.63408 70.003 2.62572C70.0232 2.61736 70.0448 2.61305 70.0666 2.61305C70.0885 2.61305 70.1101 2.61736 70.1302 2.62572C70.1504 2.63408 70.1687 2.64634 70.1841 2.66179L72.6721 5.14979C72.6876 5.16521 72.6998 5.18352 72.7082 5.20369C72.7166 5.22385 72.7209 5.24546 72.7209 5.26729C72.7209 5.28912 72.7166 5.31073 72.7082 5.33089C72.6998 5.35106 72.6876 5.36937 72.6721 5.38479L70.2981 7.75879L67.5751 5.03779L69.9491 2.66179ZM65.9671 6.64379L68.6891 9.36679L67.8961 10.1598L65.1741 7.43779L65.9671 6.64379ZM63.5671 9.04379L66.2901 11.7668L52.8401 25.2168L50.1171 22.4938L63.5671 9.04379ZM61.8841 19.4378C62.4379 19.4378 62.9793 19.602 63.4397 19.9097C63.9002 20.2173 64.2591 20.6546 64.471 21.1663C64.6829 21.6779 64.7384 22.2409 64.6303 22.784C64.5223 23.3272 64.2556 23.8261 63.864 24.2177C63.4724 24.6093 62.9735 24.876 62.4304 24.984C61.8872 25.092 61.3242 25.0366 60.8126 24.8247C60.301 24.6127 59.8637 24.2538 59.556 23.7934C59.2483 23.3329 59.0841 22.7916 59.0841 22.2378C59.0841 22.2198 59.0841 22.2028 59.0841 22.1848L61.8311 19.4378H61.8841ZM50.8651 26.4578L47.5031 27.8318L48.8771 24.4678L50.8651 26.4578ZM75.5241 52.2848H2.47613V10.7198C2.47639 10.4183 2.59627 10.1293 2.80944 9.9161C3.02261 9.70293 3.31166 9.58306 3.61313 9.58279H59.8131L58.0801 11.3158H19.4501C19.1545 11.3246 18.874 11.4481 18.668 11.6603C18.4621 11.8725 18.3468 12.1566 18.3468 12.4523C18.3468 12.748 18.4621 13.0321 18.668 13.2443C18.874 13.4564 19.1545 13.58 19.4501 13.5888H55.8031L47.7861 21.6068C47.56 21.8341 47.3812 22.104 47.2601 22.4008L44.7211 28.6168C44.6073 28.8953 44.5782 29.2012 44.6376 29.4962C44.6971 29.7911 44.8423 30.062 45.0551 30.2747C45.2679 30.4874 45.5388 30.6325 45.8338 30.6917C46.1288 30.751 46.4347 30.7218 46.7131 30.6078L52.9291 28.0688C53.2174 27.9507 53.4801 27.7783 53.7031 27.5608L57.1611 24.1038C57.47 24.8871 57.969 25.5813 58.613 26.1238C59.257 26.6663 60.0259 27.04 60.8503 27.2114C61.6747 27.3827 62.5288 27.3463 63.3357 27.1053C64.1425 26.8644 64.8767 26.4265 65.4722 25.8311C66.0677 25.2358 66.5057 24.5016 66.7467 23.6948C66.9878 22.888 67.0244 22.0339 66.8531 21.2094C66.6819 20.385 66.3083 19.6161 65.7659 18.972C65.2235 18.3279 64.5294 17.8288 63.7461 17.5198L67.6771 13.5888H71.5131V48.2778H70.9131L66.7941 41.1428C66.6408 40.8868 66.393 40.7014 66.1041 40.6266C65.8153 40.5517 65.5086 40.5933 65.2502 40.7425C64.9918 40.8918 64.8025 41.1366 64.7229 41.4241C64.6434 41.7117 64.6801 42.019 64.8251 42.2798L68.2881 48.2798H52.4121L50.7121 45.3298L58.6481 31.5778L62.1751 37.6868C62.2484 37.8186 62.3473 37.9346 62.4658 38.0278C62.5844 38.1211 62.7204 38.1898 62.8658 38.23C63.0112 38.2703 63.1631 38.2811 63.3127 38.262C63.4624 38.2429 63.6067 38.1942 63.7374 38.1188C63.868 38.0434 63.9823 37.9427 64.0737 37.8226C64.165 37.7026 64.2316 37.5655 64.2694 37.4195C64.3073 37.2735 64.3157 37.1214 64.2942 36.9721C64.2727 36.8227 64.2217 36.6792 64.1441 36.5498L60.3811 30.0378C60.2057 29.7333 59.9532 29.4804 59.6489 29.3046C59.3447 29.1287 58.9995 29.0361 58.6481 29.0361C58.2967 29.0361 57.9515 29.1287 57.6473 29.3046C57.3431 29.4804 57.0905 29.7333 56.9151 30.0378L49.3961 43.0558L39.7491 26.3468C39.5737 26.0423 39.3212 25.7894 39.0169 25.6136C38.7127 25.4377 38.3675 25.3451 38.0161 25.3451C37.6647 25.3451 37.3195 25.4377 37.0153 25.6136C36.7111 25.7894 36.4585 26.0423 36.2831 26.3468L33.7201 30.7858V18.6018C33.7193 17.8987 33.4397 17.2246 32.9425 16.7274C32.4453 16.2302 31.7712 15.9506 31.0681 15.9498H11.5681C10.865 15.9506 10.1909 16.2302 9.69376 16.7274C9.19658 17.2246 8.91692 17.8987 8.91613 18.6018V43.4568C8.91771 43.9586 9.11776 44.4395 9.47261 44.7943C9.82746 45.1492 10.3083 45.3492 10.8101 45.3508H25.3101L23.6201 48.2778H6.48313V13.5888H14.1461C14.2982 13.5933 14.4497 13.5672 14.5915 13.5122C14.7333 13.4571 14.8626 13.3741 14.9718 13.2681C15.081 13.1621 15.1678 13.0353 15.227 12.8952C15.2863 12.755 15.3168 12.6044 15.3168 12.4523C15.3168 12.3001 15.2863 12.1495 15.227 12.0094C15.1678 11.8693 15.081 11.7425 14.9718 11.6365C14.8626 11.5305 14.7333 11.4475 14.5915 11.3924C14.4497 11.3373 14.2982 11.3113 14.1461 11.3158H6.10313C5.60129 11.3174 5.12046 11.5174 4.76561 11.8723C4.41076 12.2271 4.21071 12.708 4.20913 13.2098V48.6568C4.21071 49.1586 4.41076 49.6395 4.76561 49.9943C5.12046 50.3492 5.60129 50.5492 6.10313 50.5508H71.8961C72.398 50.5492 72.8788 50.3492 73.2336 49.9943C73.5885 49.6395 73.7885 49.1586 73.7901 48.6568V13.2098C73.7885 12.708 73.5885 12.2271 73.2336 11.8723C72.8788 11.5174 72.398 11.3174 71.8961 11.3158H69.9541L71.6871 9.58279H74.3871C74.6886 9.58306 74.9776 9.70293 75.1908 9.9161C75.404 10.1293 75.5239 10.4183 75.5241 10.7198V52.2848ZM31.4481 24.8968V43.0778H11.1901V24.8968H31.4481ZM11.1901 22.6238V18.6018C11.1901 18.5013 11.2301 18.4049 11.3011 18.3338C11.3722 18.2627 11.4686 18.2228 11.5691 18.2228H31.0691C31.1696 18.2228 31.266 18.2627 31.3371 18.3338C31.4082 18.4049 31.4481 18.5013 31.4481 18.6018V22.6238H11.1901ZM27.9371 45.3508H31.8271C32.329 45.3492 32.8098 45.1492 33.1646 44.7943C33.5195 44.4395 33.7195 43.9586 33.7211 43.4568V41.0488C34.0121 41.1878 34.3306 41.2596 34.6531 41.2588C35.0302 41.261 35.401 41.1627 35.7276 40.9741C36.0541 40.7856 36.3245 40.5135 36.5111 40.1858L38.4461 36.8378C38.4676 36.8004 38.4985 36.7693 38.5358 36.7477C38.5732 36.7261 38.6155 36.7147 38.6586 36.7147C38.7017 36.7147 38.7441 36.7261 38.7814 36.7477C38.8187 36.7693 38.8497 36.8004 38.8711 36.8378L40.0641 38.9028C40.2524 39.2293 40.5233 39.5004 40.8497 39.6889C41.176 39.8774 41.5463 39.9767 41.9231 39.9767C42.3 39.9767 42.6702 39.8774 42.9966 39.6889C43.3229 39.5004 43.5938 39.2293 43.7821 38.9028L44.0821 38.3898L49.7921 48.2798H26.2471L27.9371 45.3508ZM33.7211 37.2438V35.3318L38.0211 27.8908L42.7691 36.1138L41.9271 37.5728L40.8441 35.6978C40.623 35.3151 40.305 34.9973 39.9222 34.7764C39.5393 34.5555 39.1051 34.4392 38.6631 34.4392C38.2211 34.4392 37.7869 34.5555 37.4041 34.7764C37.0212 34.9973 36.7033 35.3151 36.4821 35.6978L34.6581 38.8578L33.7211 37.2438Z" fill="url(#paint6_linear)"/>
<defs>
<linearGradient id="paint0_linear" x1="39.0002" y1="55.959" x2="39.0002" y2="58.232" gradientUnits="userSpaceOnUse">
<stop stop-color="#264E75"/>
<stop offset="1" stop-color="#1E3D5B"/>
</linearGradient>
<linearGradient id="paint1_linear" x1="21.3186" y1="33.9902" x2="21.3186" y2="40.3559" gradientUnits="userSpaceOnUse">
<stop stop-color="#264E75"/>
<stop offset="1" stop-color="#1E3D5B"/>
</linearGradient>
<linearGradient id="paint2_linear" x1="21.3196" y1="27.4736" x2="21.3196" y2="33.8393" gradientUnits="userSpaceOnUse">
<stop stop-color="#264E75"/>
<stop offset="1" stop-color="#1E3D5B"/>
</linearGradient>
<linearGradient id="paint3_linear" x1="29.0232" y1="19.063" x2="29.0232" y2="21.337" gradientUnits="userSpaceOnUse">
<stop stop-color="#264E75"/>
<stop offset="1" stop-color="#1E3D5B"/>
</linearGradient>
<linearGradient id="paint4_linear" x1="25.8909" y1="19.063" x2="25.8909" y2="21.337" gradientUnits="userSpaceOnUse">
<stop stop-color="#264E75"/>
<stop offset="1" stop-color="#1E3D5B"/>
</linearGradient>
<linearGradient id="paint5_linear" x1="22.7591" y1="19.063" x2="22.7591" y2="21.337" gradientUnits="userSpaceOnUse">
<stop stop-color="#264E75"/>
<stop offset="1" stop-color="#1E3D5B"/>
</linearGradient>
<linearGradient id="paint6_linear" x1="39.0001" y1="0.341797" x2="39.0001" y2="76.5698" gradientUnits="userSpaceOnUse">
<stop stop-color="#264E75"/>
<stop offset="1" stop-color="#1E3D5B"/>
</linearGradient>
</defs>
</svg>
