<svg width="628" height="804" viewBox="0 0 628 804" fill="none" xmlns="http://www.w3.org/2000/svg">
<path d="M436.859 242.759C436.109 246.246 439.231 249.758 443.823 250.577C448.405 251.386 452.776 249.204 453.533 245.718L453.642 245.214L436.975 242.226L436.859 242.759ZM435.689 238.555C435.295 238.798 434.998 239.174 434.899 239.628C434.809 240.062 434.907 240.486 435.153 240.836L455.88 244.552C456.268 244.309 456.554 243.938 456.655 243.491C456.752 243.054 456.641 242.621 456.394 242.265L435.689 238.555ZM436.519 235.19C436.07 235.423 435.726 235.822 435.616 236.315C435.52 236.749 435.625 237.173 435.864 237.524L456.598 241.239C456.985 240.997 457.274 240.624 457.373 240.178C457.474 239.702 457.34 239.234 457.043 238.867L436.519 235.19ZM464.46 212.15C465.355 211.225 465.446 210.28 464.728 209.345C464.289 208.769 463.786 208.483 463.203 208.483C463.065 208.483 462.921 208.496 462.772 208.53C461.171 208.877 459.273 210.873 457.459 214.585C460.2 214.577 463.098 213.562 464.46 212.15ZM478.591 183.306C474.423 177.638 468.082 173.795 460.736 172.491C453.389 171.184 445.917 172.573 439.695 176.399C433.469 180.223 429.24 186.029 427.783 192.742C426.222 199.948 428.131 207.422 433.02 213.247L433.096 213.363C434.994 217.405 437.098 224.922 437.562 226.629L437.659 226.645L437.682 227.084C437.75 229.339 439.567 231.292 442.001 231.724L443.446 231.98C444.501 228.166 446.185 220.904 446.779 214.723C444.809 214.775 443.269 213.982 442.144 212.412C440.264 209.769 440.245 205.279 442.107 203.503C442.647 202.988 443.828 202.265 445.631 203.205C447.931 204.408 448.43 208.582 448.123 213.421C448.275 213.382 448.438 213.333 448.601 213.281C449.506 212.995 450.347 212.675 451.117 212.33C450.309 209.994 451.041 206.855 452.189 204.758C453.562 202.255 455.46 201.151 457.144 201.888C458.541 202.498 459.291 203.729 459.19 205.257C459.046 207.547 456.948 210.593 452.682 212.818C452.987 213.277 453.407 213.654 453.953 213.906C454.619 214.213 455.369 214.411 456.154 214.506C458.306 210.02 460.606 207.86 462.486 207.452C463.758 207.176 464.906 207.625 465.738 208.717C466.767 210.063 466.637 211.58 465.38 212.878C463.729 214.585 460.186 215.81 456.948 215.681C455.112 219.811 453.407 225.744 452.247 233.545L453.374 233.743C455.808 234.181 458.31 232.989 459.31 230.924L459.497 230.538L459.603 230.551C460.73 229.152 465.829 222.887 469.283 219.791L469.397 219.709C476.357 215.984 481.239 209.718 482.803 202.511C484.252 195.8 482.76 188.975 478.591 183.306ZM452.212 211.792C455.985 209.795 457.847 207.163 457.97 205.197C458.02 204.434 457.818 203.417 456.608 202.884C456.435 202.809 456.264 202.776 456.086 202.776C455.033 202.776 453.953 204.031 453.283 205.253C452.251 207.14 451.628 209.839 452.212 211.792ZM445.019 204.165C444.631 203.962 444.283 203.863 443.968 203.863C443.599 203.863 443.277 203.997 442.995 204.266C441.643 205.555 441.484 209.444 443.172 211.809C443.838 212.74 444.957 213.684 446.874 213.611C447.224 208.968 446.865 205.132 445.019 204.165ZM444.65 232.196L451.045 233.332C452.218 225.472 453.877 219.666 455.67 215.56C454.866 215.433 454.098 215.217 453.393 214.892C452.599 214.525 452.016 213.992 451.6 213.342C450.802 213.702 449.936 214.034 449.007 214.329C448.677 214.434 448.354 214.516 448.032 214.581C447.391 221.99 445.124 230.465 444.65 232.196ZM483.999 202.727C482.379 210.216 477.309 216.737 470.091 220.626C466.427 223.935 460.701 231.072 460.392 231.456C459.53 233.155 457.842 234.336 455.913 234.761L456.618 234.886C457.626 235.063 458.288 235.957 458.09 236.865C457.999 237.281 457.741 237.624 457.401 237.867L436.534 234.125C436.334 233.795 436.247 233.401 436.334 233.002C436.534 232.094 437.515 231.495 438.525 231.674L439.242 231.799C437.63 230.751 436.548 229.08 436.457 227.209C436.338 226.754 434.009 218.179 431.999 213.861C426.935 207.79 424.959 200.021 426.585 192.53C428.102 185.528 432.513 179.473 439.007 175.48C445.501 171.492 453.298 170.04 460.975 171.406C468.642 172.766 475.26 176.776 479.609 182.691C483.962 188.605 485.52 195.721 483.999 202.727ZM421.649 210.311L411.659 216.235L412.333 217.166L422.325 211.238L421.649 210.311ZM420.515 227.416L421.42 228.166L429.503 220.207L428.599 219.457L420.515 227.416ZM418.254 200.793L406.354 201.74L406.463 202.845L418.364 201.897L418.254 200.793ZM486.932 214.338L497.536 219.319L498.098 218.336L487.496 213.355L486.932 214.338ZM479.92 221.471L486.668 230.396L487.678 229.772L480.934 220.843L479.92 221.471ZM469.512 227.287L473.64 237.438L474.788 237.055L470.66 226.905L469.512 227.287ZM418.852 190.131L407.201 187.757L406.933 188.84L418.584 191.209L418.852 190.131ZM430.79 172.805L424.046 163.88L423.032 164.503L429.782 173.431L430.79 172.805ZM441.202 166.987L437.076 156.836L435.928 157.219L440.054 167.369L441.202 166.987ZM451.921 164.706L451.07 153.913L449.846 153.996L450.697 164.784L451.921 164.706ZM492.101 203.343L491.89 204.434L503.667 206.262L503.877 205.171L492.101 203.343ZM423.199 180.076L412.597 175.09L412.032 176.078L422.636 181.059L423.199 180.076ZM491.938 193.323L503.838 192.373L503.729 191.269L491.829 192.218L491.938 193.323ZM489.026 184.132L499.017 178.205L498.343 177.278L488.352 183.205L489.026 184.132ZM490.159 167.026L489.261 166.273L481.173 174.237L482.076 174.987L490.159 167.026ZM478.646 159.244L477.552 158.752L472.224 168.431L473.319 168.923L478.646 159.244ZM462.898 165.381L461.697 165.168L464.017 154.555L465.217 154.771L462.898 165.381Z" fill="#FFAA00"/>
<path d="M344.033 390.743L344.507 391.094C360.898 373.008 356.789 334.424 356.745 334.034L356.133 334.09C356.177 334.476 360.262 372.837 344.033 390.743ZM351.185 332.172L350.573 332.182C350.577 332.562 350.896 370.714 331.684 379.171L331.951 379.669C351.508 371.055 351.189 332.562 351.185 332.172ZM303.264 398.27L303.351 397.723C277.615 394.498 261.712 346.484 261.553 345.999L260.966 346.156C261.123 346.645 277.141 394.996 303.264 398.27ZM309.076 382.84C310.443 382.84 311.822 382.745 313.194 382.545L313.097 381.999C283.497 386.222 266.327 343.159 266.154 342.726L265.581 342.907C265.624 343.021 269.956 354.003 277.934 364.318C287.365 376.508 298.056 382.84 309.076 382.84ZM365.255 362.503L364.647 362.552L377.877 504.085L378.485 504.039L365.255 362.503ZM354.289 400.469L365.251 521.499L355.198 536.444L341.294 387.863L340.682 387.91L354.746 538.18L365.824 521.707L365.878 521.634L354.895 400.422L354.289 400.469ZM306.31 393.817L319.373 546.755L319.981 546.712L306.922 393.774L306.31 393.817ZM295.521 409.884L306.249 543.086L294.431 531.533L280.882 395.602L280.274 395.654L293.829 531.676L293.837 531.771L306.986 544.625L296.133 409.845L295.521 409.884ZM266.174 372.723L278.6 498.695L277.992 498.742L265.562 372.771L266.174 372.723Z" fill="#100F0D"/>
<path d="M340.064 544.533C340.064 545.832 338.897 546.889 337.456 546.889C336.018 546.889 334.851 545.832 334.851 544.533C334.851 543.23 336.018 542.174 337.456 542.174C338.897 542.174 340.064 543.23 340.064 544.533ZM337.716 517.62C337.716 518.918 336.547 519.979 335.113 519.979C333.674 519.979 332.508 518.918 332.508 517.62C332.508 516.316 333.674 515.258 335.113 515.258C336.547 515.258 337.716 516.316 337.716 517.62ZM335.348 490.704C335.348 492.008 334.181 493.06 332.741 493.06C331.302 493.06 330.136 492.008 330.136 490.704C330.136 489.4 331.302 488.345 332.741 488.345C334.181 488.345 335.348 489.4 335.348 490.704ZM332.976 463.79C332.976 465.094 331.809 466.15 330.369 466.15C328.934 466.15 327.768 465.094 327.768 463.79C327.768 462.486 328.934 461.434 330.369 461.434C331.809 461.434 332.976 462.486 332.976 463.79ZM330.422 436.877C330.422 438.18 329.256 439.236 327.819 439.236C326.381 439.236 325.214 438.18 325.214 436.877C325.214 435.576 326.381 434.521 327.819 434.521C329.256 434.521 330.422 435.576 330.422 436.877ZM328.13 409.961C328.13 411.265 326.964 412.322 325.523 412.322C324.085 412.322 322.922 411.265 322.922 409.961C322.922 408.663 324.085 407.605 325.523 407.605C326.964 407.605 328.13 408.663 328.13 409.961ZM343.196 558.499L334.688 560.625L318.388 371.406H325.566L325.715 372.992L325.222 372.536L324.348 373.316L325.878 374.728L343.196 558.499ZM362.428 333.873L361.276 334.25C369.707 355.413 358.153 394.623 356.14 401.084L327.059 374.236L326.692 370.298H317.063L317.576 376.222L317.197 376.019L295.665 409.023C263.012 384.252 258.631 347.581 258.592 347.212L257.374 347.32C257.411 347.697 261.883 385.216 295.434 410.291L295.991 410.701L317.681 377.461L333.526 561.384L333.584 562.05L344.507 559.321L327.221 375.97L356.727 403.211L357.024 402.31C357.172 401.86 371.727 357.211 362.428 333.873Z" fill="#100F0D"/>
<path d="M258.693 667.816C248.146 667.07 238.179 665.913 228.94 664.563C172.048 656.257 103.653 608.197 101.027 579.121C98.4053 550.045 144.718 430.979 144.718 430.979C144.718 430.979 141.662 381.133 144.718 379.951C147.773 378.765 170.491 379.951 170.491 379.951C171.425 379.859 172.429 379.718 173.463 379.557C173.033 382.169 168.383 412.772 178.01 465.068C182.46 489.223 190.5 520.546 204.867 557.794C175.696 534.655 152.016 532.135 151.773 532.113L151.639 533.269C151.883 533.292 176.075 535.851 205.714 560.015L205.722 560.006C218.169 591.905 235.253 628.088 258.693 667.816ZM482.546 419.974C464.131 419.974 449.205 411.231 449.205 400.443C449.205 389.656 464.131 380.913 482.546 380.913C500.955 380.913 515.883 389.656 515.883 400.443C515.883 411.231 500.955 419.974 482.546 419.974ZM426.255 418.077C425.94 419.125 394 523.158 344.717 563.93L343.852 563.072C391.274 523.839 422.626 425.456 424.893 418.185L395.047 401.478L413.405 387.785L377.5 343.506L378.533 342.817L415.155 387.984L397.249 401.343L426.385 417.657L426.255 418.077ZM496.526 376.304C470.635 370.852 474.166 341.756 474.166 341.756L437.869 345.632C437.869 345.632 392.37 339.915 364.38 335.714C373.003 358.788 385.472 404.518 375.754 458.667C361.692 536.989 336.142 557.564 336.142 557.564C336.142 557.564 299.377 531.85 273.602 470.537C255.805 428.211 255.498 376.812 257.019 349.03C233.196 359.689 194.57 376.006 174.123 379.453L174.764 379.548C174.706 379.856 169.288 410.668 179.292 464.951C187.625 510.166 208.507 580.468 260.205 667.924C286.692 669.681 316.714 668.773 347.865 661.623L338.998 568.668C286.166 552.142 221.693 444.213 221.042 443.121L220.842 442.782L240.179 420.992L220.799 415.534L240.661 359.991L241.881 360.347L222.421 414.773L242.359 420.393L222.378 442.909C226.419 449.629 288.843 552.177 339.802 567.693L340.202 567.814L349.122 661.328C381.115 653.819 414.256 639.684 445.932 615.074C435.291 608.131 426.317 598.744 420.689 587.873C409.969 567.168 430.021 459.351 438.582 413.309C440.567 402.638 441.876 395.589 442.039 393.748C442.933 383.581 458.76 379.085 459.434 378.899L459.807 380.007C459.65 380.055 444.143 384.463 443.316 393.84C443.15 395.731 441.835 402.804 439.844 413.505C431.303 459.433 411.305 567.004 421.851 587.38C427.5 598.288 436.558 607.676 447.296 614.537C453.83 613.099 495.215 602.185 510.285 553.606C526.668 500.799 526.998 398.145 526.998 398.145C526.998 398.145 522.41 381.756 496.526 376.304Z" fill="#EE6F19"/>
<path d="M362.098 619.521C357.469 619.521 353.72 622.921 353.72 627.109C353.72 631.3 357.469 634.695 362.098 634.695C366.729 634.695 370.478 631.3 370.478 627.109C370.478 622.921 366.729 619.521 362.098 619.521ZM510.625 446.001C506.307 447.512 502.527 452.474 502.183 457.087C501.839 461.699 505.058 464.216 509.376 462.703C513.692 461.196 517.47 456.234 517.814 451.618C518.162 447.005 514.945 444.489 510.625 446.001ZM514.044 423.204C509.731 424.715 505.949 429.679 505.605 434.291C505.258 438.908 508.478 441.419 512.797 439.911C517.111 438.401 520.889 433.433 521.239 428.821C521.584 424.21 518.364 421.693 514.044 423.204ZM365.56 578.502C365.56 582.695 361.812 586.09 357.182 586.09C352.558 586.09 348.802 582.695 348.802 578.502C348.802 574.311 352.558 570.916 357.182 570.916C361.812 570.916 365.56 574.311 365.56 578.502Z" fill="white"/>
<path d="M368.182 294.904C362.075 316.062 359.004 323.78 345.905 329.322L346.032 334.666C346.032 334.666 342.193 373.021 323.841 375.802C305.488 378.565 284.301 370.259 273.596 344.541C262.893 318.826 256.335 302.815 256.335 302.815L246.737 296.285C246.737 296.285 232.53 301.235 218.336 285.806C208.272 274.87 206.326 264.145 213.049 258.041C215.809 255.534 220.028 253.802 225.768 253.162C225.768 253.162 230.44 248.113 237.744 241.498C242.78 236.934 250.667 234.241 252.629 221.324C257.44 189.683 258.967 189.077 262.021 188.091C262.021 188.091 263.332 170.895 284.521 178.005C305.709 185.129 352.228 193.041 329.757 175.646C330.465 176.017 352.974 188.221 357.698 208.67C357.98 209.89 358.248 211.085 358.52 212.259C362.739 231.085 364.691 244.041 368.182 250C371.904 256.337 374.305 273.739 368.182 294.904Z" fill="#EAC49F"/>
<path d="M356.441 291.183C354.862 298.411 351.037 306.281 342.518 311.809C322.415 324.872 287.471 294.505 293.913 294.994C300.356 295.492 315.972 294.112 332.172 289.555C342.349 286.697 349.382 280.807 353.192 276.81C355.466 274.437 356.603 272.743 356.603 272.743C356.603 272.743 358.592 281.376 356.441 291.183Z" fill="#100F0D"/>
<path d="M353.819 285.039C354.452 281.553 353.811 278.611 353.192 276.81C349.382 280.807 342.349 286.697 332.172 289.555C315.972 294.112 300.356 295.492 293.913 294.994C287.471 294.505 322.415 324.872 342.518 311.809C351.037 306.281 354.862 298.411 356.44 291.183C355.604 284.121 353.819 285.039 353.819 285.039ZM305.383 255.617C305.383 255.617 293.837 243.994 278.557 246.96C263.28 249.931 267.211 270.596 286.213 269.162C305.22 267.73 305.383 255.617 305.383 255.617ZM335.309 247.432C335.309 247.432 333.837 230.669 344.975 225.922C356.119 221.176 361.525 232.599 358.903 240.161C356.282 247.727 347.108 255.145 335.309 247.432Z" fill="white"/>
<path d="M354.858 284.535L354.351 284.23C354.177 284.459 336.949 307.314 306.646 301.75L306.527 302.291C309.855 302.903 313.027 303.175 316.04 303.175C340.806 303.175 354.705 284.744 354.858 284.535ZM334.588 332.683C342.982 331.939 346.144 329.846 346.271 329.761L345.54 328.873C345.511 328.889 342.465 330.868 334.468 331.583C326.284 332.31 286.859 322.844 282.392 320.671C277.648 318.358 264.606 306.786 264.472 306.67L263.614 307.458C264.154 307.943 276.916 319.263 281.813 321.645C286.605 323.978 323.209 332.726 333.487 332.726C333.895 332.726 334.262 332.713 334.588 332.683ZM332.541 269.565L331.799 268.686L324.128 273.987L324.868 274.87L332.541 269.565ZM345.095 259.856L345.062 259.355L344.503 259.336C340.045 259.224 331.267 249.775 328.264 246.147L327.283 246.809C327.724 247.34 337.84 259.489 343.891 260.393C343.924 262.29 343.757 269.518 339.495 274.07L340.422 274.788C345.665 269.194 345.119 260.237 345.095 259.856ZM239.389 272.385C228.806 263.706 219.21 264.922 218.808 264.98L218.995 266.075C219.086 266.066 228.412 264.879 238.567 273.208L239.389 272.385ZM280.263 245.259C265.954 248.42 268.684 259.299 268.684 259.299C268.684 259.299 272.444 247.969 282.229 247.035C284.163 246.852 286.232 247.077 288.314 247.553C286.296 248.935 283.79 251.901 284.96 257.855C286.817 267.31 300.059 268.99 298.955 251.733C302.743 253.738 305.383 255.617 305.383 255.617C305.383 255.617 294.569 242.093 280.263 245.259ZM356.364 228.412C357.125 230.639 357.335 233.435 356.828 236.554C355.408 245.259 345.468 246.74 343.722 236.554C342.751 230.908 344.134 227.516 345.554 225.61C345.363 225.705 345.173 225.806 344.975 225.922C336.949 230.691 335.247 246.147 335.247 246.147C335.247 246.147 330.944 231.808 343.392 224.191C355.843 216.577 358.817 231.698 358.817 231.698C358.817 231.698 357.922 230.089 356.364 228.412Z" fill="#100F0D"/>
<path d="M243.297 261.947C248.342 265.122 251.757 268.002 251.757 268.002L248.86 258.791L243.297 261.947ZM366.385 182.124C363.625 174.493 355.905 171.106 345.191 172.838C329.408 175.39 315.9 171.318 302.848 167.386C293.12 164.45 283.932 161.679 274.045 161.557C267.761 161.471 263.26 163.143 260.655 166.515C256.327 172.111 258.464 180.758 259.684 184.463C256.067 181.764 247.932 174.047 253.814 162.372C261.224 147.674 298.429 153.304 298.802 153.363L299.023 152.222C297.448 151.97 260.463 146.38 252.648 161.891C246.386 174.319 255.078 182.53 258.923 185.388C254.459 183.795 250.28 183.942 246.502 185.856C234.478 191.937 230.479 213.49 230.317 214.407L231.584 214.594C231.621 214.372 235.64 192.677 247.128 186.869C250.032 185.397 253.217 185.093 256.607 185.921C247.429 188.152 245.282 197.874 243.029 208.097C241.236 216.235 239.375 224.65 234.051 230.6C230.776 234.267 227.13 236.065 223.157 235.931C214.356 235.649 206.809 225.983 206.736 225.888L205.685 226.55C206.005 226.97 213.668 236.783 223.109 237.095C223.258 237.1 223.41 237.1 223.558 237.1C227.763 237.1 231.627 235.16 235.051 231.331C240.576 225.161 242.46 216.599 244.286 208.323C246.846 196.714 249.066 186.684 260.76 186.606L262.205 187.412L261.564 185.895C261.5 185.024 261.075 175.459 272.31 171.426C283.932 167.261 305.404 183.838 305.618 184.008L306.455 183.127C305.55 182.422 284.177 165.915 271.836 170.348C263.618 173.297 261.219 179.169 260.535 182.842C259.41 178.863 258.163 171.77 261.706 167.179C264.055 164.146 268.163 162.641 274.027 162.717C283.711 162.839 292.809 165.584 302.442 168.487C315.653 172.471 329.317 176.584 345.42 173.982C359.128 171.764 363.673 178.36 365.165 182.487C368.116 190.659 364.064 201.42 356.828 204.634L357.393 205.676C365.146 202.235 369.511 190.788 366.385 182.124ZM252.299 149.129C239.049 152.235 231.168 156.793 228.857 162.697C227.068 167.274 229.259 171.452 230.426 173.211C229.81 163.969 238.806 155.529 252.299 149.129ZM373.429 197.583C371.583 205.542 364.394 209.938 358.52 212.259C358.248 211.085 357.98 209.89 357.698 208.67C356.249 202.412 353.135 196.93 349.495 192.317C345.144 192.651 339.4 193.834 331.98 196.669C310.352 204.928 289.6 193.412 280.861 185.155C273.06 177.779 265.232 179.182 263.643 187.757C264.591 185.289 265.886 183.825 267.627 183.258C272.089 181.807 279.016 186.16 291.92 195.839C309.965 209.371 330.575 200.909 330.781 200.823L331.321 201.875C331.201 201.923 324.524 204.669 315.414 204.669C308.163 204.669 299.371 202.932 291.102 196.734C278.843 187.537 271.912 183.101 268.062 184.353C266.121 184.981 264.82 187.173 263.959 191.239L263.328 191.131L263.241 191.114C262.691 191.049 259.649 191.2 256.024 201.252C255.082 205.941 253.987 212.399 252.629 221.324C251.083 231.508 247.745 238.421 243.938 243.132V243.145C243.938 243.145 233.967 254.395 227.361 254.044C227.361 254.044 223.878 253.876 222.186 253.755C218.239 254.617 215.197 256.088 213.049 258.047C198.457 252.533 174.815 214.863 193.206 207.275C212.868 199.178 230.566 174.45 230.566 174.45L230.063 174.808C229.857 174.566 225.065 168.916 227.648 162.307C230.263 155.616 239.366 150.601 254.694 147.406L254.839 147.973C259.902 145.755 265.504 143.811 271.415 142.203C295.441 135.686 322.749 157.439 334.109 161.596C345.468 165.745 360.109 157.832 368.837 162.783C377.576 167.72 376.7 183.549 373.429 197.583ZM228.977 255.092C231.359 255.825 235.582 257.376 235.582 257.376L246.147 250.84L244.162 243.847C242.633 245.678 235.376 254.011 228.977 255.092ZM242.38 261.095L248.338 257.717L246.698 251.91L236.578 258.168C238.777 259.254 242.38 261.095 242.38 261.095ZM354.503 208.297C353.848 207.405 343.145 200.978 341.399 201.269C339.653 201.571 335.612 201.767 325.892 212.949C325.892 212.949 324.136 222.835 325.892 222.835C327.638 222.835 338.668 210.472 341.078 210.472C343.054 210.472 349.074 213.273 351.95 214.273C352.576 214.493 353.05 214.62 353.308 214.62C353.666 214.62 353.963 214.26 354.192 213.715C354.872 212.121 354.992 208.952 354.503 208.297ZM298.911 222.926C298.911 222.926 296.401 214.174 292.794 214.174C289.194 214.174 276.083 225.299 271.335 227.225C266.584 229.158 264.451 243.431 265.599 245.046C266.747 246.661 282.258 227.819 298.911 222.926ZM341.399 201.269C339.653 201.571 335.612 201.767 325.892 212.949C325.892 212.949 324.136 222.835 325.892 222.835C327.638 222.835 338.668 210.472 341.078 210.472C343.054 210.472 349.074 213.273 351.95 214.273C352.566 214.13 353.322 213.945 354.192 213.715C354.872 212.121 354.992 208.952 354.503 208.297C353.848 207.405 343.145 200.978 341.399 201.269ZM354.134 273.038C356.669 271.357 359.386 269.22 361.358 267.599C361.945 267.114 362.801 267.776 362.399 268.401C359.161 273.411 352.479 284.086 334.794 290.76C316.986 297.467 296.737 296.501 287.51 294.964C286.731 294.834 286.778 293.782 287.567 293.713C293.718 293.179 304.35 291.763 311.395 288.13C321.01 283.172 334.414 282.224 336.449 282.107C336.626 282.094 336.782 282.019 336.902 281.898C346.191 272.536 349.443 276.144 354.134 273.038Z" fill="black"/>
<path d="M500.782 313.149C501.274 316.855 513.399 336.585 516.346 339.997C519.296 343.41 522.573 352.604 515.203 363.581C507.828 374.56 500.295 405.268 500.295 405.268C476.208 414.475 460.969 397.85 460.969 397.85L458.679 388.65C458.679 388.65 442.129 370.999 440.328 367.883C438.529 364.768 428.696 324.568 440.328 323.087C451.958 321.602 470.967 307.064 470.967 307.064C470.967 307.064 482.105 271.908 484.401 265.676C486.693 259.45 489.644 249.512 497.999 245.505C506.355 241.498 512.088 244.466 509.469 249.211C506.843 253.958 489.312 307.064 489.312 307.064C498.655 304.244 500.295 309.437 500.782 313.149Z" fill="#EAC49F"/>
<path d="M495.769 354.731C494.875 355.51 493.531 356.462 491.973 357.566C485.415 362.208 474.448 369.977 474.448 381.385C474.448 395.246 481.058 401.534 481.34 401.795L482.216 401.023C482.152 400.963 475.672 394.757 475.672 381.385C475.672 370.518 486.348 362.958 492.723 358.441C494.312 357.32 495.679 356.346 496.621 355.527C501.136 351.577 512.305 351.526 512.414 351.526V350.416C511.936 350.416 500.644 350.469 495.769 354.731ZM467.082 326.832C465.384 328.479 462.711 330.617 459.162 332.169C459.368 333.81 459.98 340.003 458.238 344.731C460.085 346.324 469.78 355.206 471.573 367.513L470.359 367.661C468.446 354.518 457.239 345.397 457.125 345.307L456.814 345.056L456.952 344.705C458.632 340.495 458.205 334.679 457.985 332.648C455.786 333.476 453.298 334.065 450.514 334.174L450.462 333.064C461.649 332.635 468.183 323.879 468.244 323.792L468.255 323.797C468.871 322.65 469.627 321.796 470.536 321.399C470.961 321.212 471.464 320.934 472.029 320.587C474.586 318.123 475.705 315.711 475.347 313.404C474.778 309.78 470.699 307.566 470.656 307.54L471.276 306.587C471.464 306.687 475.901 309.082 476.557 313.244C476.81 314.85 476.451 316.482 475.51 318.123C481.26 313.725 488.778 306.769 488.877 306.678L489.753 307.448C489.189 307.972 475.86 320.302 471.066 322.398C466.872 324.23 466.336 340.616 468.086 344.224C469.269 346.658 471.023 347.779 471.967 348.238C473.822 337.408 478.743 330.77 479.312 330.037C480.485 328.522 496.616 320.688 499.84 319.132L500.415 320.108C491.188 324.564 481.006 329.777 480.312 330.674C479.753 331.396 474.792 338.07 473.065 349.017C473.339 349.98 475.868 358.172 482.235 359.515C482.723 356.13 484.926 342.396 489.026 340.396C490.604 339.63 493.039 338.827 495.86 337.906C500.677 336.324 506.674 334.358 510.644 331.73L511.367 332.622C507.257 335.347 501.169 337.343 496.276 338.949C493.502 339.859 491.107 340.642 489.605 341.375C486.338 342.968 483.995 355.531 483.368 360.239L483.292 360.802L482.67 360.72C475.31 359.728 472.43 351.175 471.928 349.456C471.029 349.109 468.527 347.887 466.963 344.669C465.705 342.077 465.384 332.926 467.082 326.832Z" fill="#100F0D"/>
</svg>