<svg width="373" height="330" viewBox="0 0 373 330" fill="none" xmlns="http://www.w3.org/2000/svg">
<path fill-rule="evenodd" clip-rule="evenodd" d="M67.401 317.806C67.401 317.806 66.9631 320.856 66.909 321.309C66.8548 321.762 62.0269 321.039 62.0269 321.039L61.6333 317.413C61.6333 317.413 66.7987 317.376 67.401 317.806Z" fill="#1D2C5B"/>
<path fill-rule="evenodd" clip-rule="evenodd" d="M66.9592 320.92C67.8208 321.948 68.8359 322.837 69.9686 323.556C71.4447 324.356 73.772 324.673 74.6469 325.5C75.2777 326.099 76.9467 328.672 70.8031 328.62C64.6594 328.568 61.6974 328.984 61.039 327.997C60.3807 327.01 61.9906 320.715 61.9906 320.715C63.6183 321.102 65.3053 321.171 66.9592 320.92Z" fill="#03112A"/>
<path fill-rule="evenodd" clip-rule="evenodd" d="M98.3283 317.832C98.3283 317.832 97.8894 320.877 97.8362 321.337C97.7831 321.796 92.9542 321.066 92.9542 321.066L92.5605 317.44C92.5605 317.44 97.725 317.402 98.3283 317.832Z" fill="#1D2C5B"/>
<path fill-rule="evenodd" clip-rule="evenodd" d="M97.8854 320.95C98.7469 321.978 99.762 322.867 100.895 323.585C102.371 324.385 107.818 325.042 108.693 325.871C109.323 326.469 110.374 328.874 101.73 328.65C95.5886 328.49 92.6236 329.014 91.9652 328.026C91.3069 327.038 92.9178 320.744 92.9178 320.744C92.9178 320.744 94.2886 321.303 97.8854 320.95Z" fill="#03112A"/>
<path fill-rule="evenodd" clip-rule="evenodd" d="M40.5562 324.916L41.1397 326.557L65.7939 318.919L64.613 315.595L40.5562 324.916Z" fill="#7D706C"/>
<path fill-rule="evenodd" clip-rule="evenodd" d="M90.1391 324.915L89.5556 326.557L64.9004 318.918L65.9829 315.385L90.1391 324.915Z" fill="#7D706C"/>
<path fill-rule="evenodd" clip-rule="evenodd" d="M72.7682 326.381V328.291L64.8955 318.918L65.978 315.385L72.7682 326.381Z" fill="#7D706C"/>
<path fill-rule="evenodd" clip-rule="evenodd" d="M92.4439 327.199C92.4437 327.655 92.3085 328.1 92.0552 328.479C91.802 328.857 91.4422 329.153 91.0213 329.327C90.6004 329.501 90.1373 329.547 89.6905 329.458C89.2437 329.369 88.8333 329.149 88.5112 328.827C88.189 328.505 87.9697 328.095 87.8807 327.648C87.7918 327.201 87.8373 326.738 88.0116 326.317C88.1858 325.896 88.481 325.536 88.8597 325.283C89.2384 325.03 89.6836 324.895 90.1392 324.895C90.7504 324.895 91.3366 325.137 91.7689 325.57C92.2011 326.002 92.4439 326.588 92.4439 327.199Z" fill="#AFA19A"/>
<path fill-rule="evenodd" clip-rule="evenodd" d="M72.9649 327.199C72.9647 327.655 72.8294 328.1 72.5762 328.479C72.323 328.857 71.9632 329.153 71.5423 329.327C71.1214 329.501 70.6583 329.547 70.2115 329.458C69.7647 329.369 69.3543 329.149 69.0322 328.827C68.71 328.505 68.4907 328.095 68.4017 327.648C68.3128 327.201 68.3583 326.738 68.5326 326.317C68.7068 325.896 69.002 325.536 69.3807 325.283C69.7594 325.03 70.2046 324.895 70.6602 324.895C70.9628 324.895 71.2625 324.954 71.5421 325.07C71.8218 325.186 72.0758 325.356 72.2898 325.57C72.5039 325.784 72.6736 326.038 72.7895 326.317C72.9053 326.597 72.9649 326.897 72.9649 327.199Z" fill="#AFA19A"/>
<path fill-rule="evenodd" clip-rule="evenodd" d="M42.8599 327.199C42.8601 327.655 42.7252 328.1 42.4721 328.479C42.2191 328.858 41.8594 329.154 41.4385 329.328C41.0175 329.503 40.5543 329.549 40.1073 329.46C39.6604 329.371 39.2498 329.152 38.9275 328.83C38.6053 328.507 38.3857 328.097 38.2968 327.65C38.2078 327.203 38.2534 326.74 38.4277 326.319C38.6021 325.898 38.8973 325.538 39.2762 325.285C39.6551 325.032 40.1005 324.896 40.5562 324.896C41.167 324.896 41.7528 325.139 42.1848 325.571C42.6168 326.003 42.8596 326.588 42.8599 327.199Z" fill="#AFA19A"/>
<path fill-rule="evenodd" clip-rule="evenodd" d="M358.991 315.935C358.991 315.935 359.47 319.307 359.53 319.812C359.59 320.317 364.884 319.517 364.884 319.517L365.312 315.502C365.312 315.502 359.652 315.459 358.991 315.935Z" fill="#433A32"/>
<path fill-rule="evenodd" clip-rule="evenodd" d="M359.47 319.384C358.527 320.52 357.415 321.504 356.172 322.301C354.55 323.187 352 323.537 351.041 324.454C350.352 325.115 348.52 327.965 355.255 327.907C361.99 327.849 365.241 328.31 365.962 327.218C366.683 326.125 364.917 319.156 364.917 319.156C364.917 319.156 363.328 319.734 359.47 319.384Z" fill="#1F262A"/>
<path fill-rule="evenodd" clip-rule="evenodd" d="M321.065 315.935C321.065 315.935 321.548 319.307 321.607 319.812C321.666 320.317 326.96 319.517 326.96 319.517L327.39 315.502C327.39 315.502 321.728 315.459 321.065 315.935Z" fill="#433A32"/>
<path fill-rule="evenodd" clip-rule="evenodd" d="M321.551 319.384C320.608 320.52 319.495 321.505 318.252 322.301C316.63 323.187 310.66 323.914 309.702 324.83C309.013 325.493 307.86 328.157 317.338 327.908C324.071 327.731 327.32 328.311 328.042 327.219C328.765 326.127 326.996 319.157 326.996 319.157C326.996 319.157 325.494 319.774 321.551 319.384Z" fill="#1F262A"/>
<path fill-rule="evenodd" clip-rule="evenodd" d="M258.73 319.842C258.73 319.842 255.088 322.055 253.433 322.88C251.778 323.706 245.326 324.015 244.698 324.629C244.069 325.243 244.324 327.171 245.396 327.354C246.469 327.537 254.324 328.154 256.937 327.511C259.549 326.867 264.456 327.838 265.537 327.456C266.619 327.075 265.847 321.237 265.411 319.93C264.975 318.623 258.73 319.842 258.73 319.842Z" fill="#03112A"/>
<path fill-rule="evenodd" clip-rule="evenodd" d="M258.398 317.453L258.732 319.841C258.732 319.841 263.652 320.698 265.128 319.924L264.734 317.445L258.398 317.453Z" fill="#172551"/>
<path fill-rule="evenodd" clip-rule="evenodd" d="M242.478 319.842C242.478 319.842 238.837 322.055 237.182 322.88C235.526 323.706 229.075 324.015 228.444 324.629C227.813 325.243 228.07 327.171 229.143 327.354C230.215 327.537 238.072 328.154 240.683 327.511C243.294 326.867 248.204 327.838 249.284 327.456C250.363 327.075 249.594 321.237 249.158 319.93C248.722 318.623 242.478 319.842 242.478 319.842Z" fill="#03112A"/>
<path fill-rule="evenodd" clip-rule="evenodd" d="M242.142 317.453L242.477 319.841C242.477 319.841 247.397 320.698 248.873 319.924L248.48 317.445L242.142 317.453Z" fill="#172551"/>
<path fill-rule="evenodd" clip-rule="evenodd" d="M322.954 74.1213V42.7094C322.954 42.0187 322.881 41.33 322.737 40.6547C323.972 39.285 325.302 38.0026 326.715 36.8167L326.02 35.9822C324.741 37.0559 323.529 38.2075 322.391 39.4305C321.715 37.5445 320.473 35.9134 318.835 34.7601C317.197 33.6069 315.243 32.9879 313.239 32.9877H312.871C314.975 30.9674 317.344 28.6902 320.031 25.9928C320.73 25.2909 321.384 24.5892 321.994 23.8879C327.834 21.4839 334.094 20.2618 340.41 20.2921C348.021 20.2921 356.542 21.9463 366.056 25.8452C364.378 25.5171 362.671 25.3589 360.961 25.3729C354.813 25.3729 344.768 27.341 340.435 39.272C335.924 51.6842 333.446 64.4064 322.954 74.1213Z" fill="url(#paint0_linear)"/>
<path fill-rule="evenodd" clip-rule="evenodd" d="M322.736 46.6424C322.647 46.2282 322.53 45.8202 322.388 45.4211C323.526 44.1971 324.739 43.0445 326.02 41.97L326.715 42.8045C325.301 43.9903 323.972 45.2727 322.736 46.6424Z" fill="url(#paint1_linear)"/>
<path fill-rule="evenodd" clip-rule="evenodd" d="M312.866 38.9772H302.4C303.943 35.6914 305.9 32.6159 308.222 29.8253C311.559 26.4932 313.759 21.7834 314.587 20.0081C314.729 19.7128 314.859 19.4343 314.901 19.3694L314.22 18.9364C314.151 19.0417 314.062 19.2316 313.858 19.6676C313.045 21.4055 310.888 26.0208 307.65 29.2486C306.118 30.7769 303.765 34.3196 301.45 38.9772H290.565C292.042 23.5449 300.459 6.61767 328.071 0.227051C328.071 0.227051 335.117 14.7826 321.988 29.8774C321.379 30.5781 320.725 31.2797 320.027 31.9824C317.338 34.6797 314.97 36.9569 312.866 38.9772Z" fill="url(#paint2_linear)"/>
<path fill-rule="evenodd" clip-rule="evenodd" d="M302.4 38.9773H301.448C303.76 34.3207 306.112 30.778 307.647 29.2487C310.885 26.0219 313.042 21.4056 313.855 19.6677C314.06 19.2357 314.15 19.0408 314.217 18.9365L314.898 19.3695C314.857 19.4345 314.726 19.7149 314.584 20.0082C313.757 21.7795 311.556 26.4923 308.219 29.8254C305.898 32.6162 303.943 35.6917 302.4 38.9773Z" fill="url(#paint3_linear)"/>
<path fill-rule="evenodd" clip-rule="evenodd" d="M313.235 250.736H190.455V230.751H233.647V227.721H190.455V223.687H223.242V220.657H190.455V194.264H236.428C236.725 194.264 237.019 194.205 237.294 194.091C237.569 193.978 237.818 193.811 238.028 193.601C238.238 193.391 238.405 193.141 238.519 192.866C238.633 192.592 238.691 192.298 238.691 192V155.145C238.691 154.848 238.633 154.554 238.519 154.279C238.405 154.005 238.238 153.755 238.028 153.545C237.818 153.335 237.569 153.168 237.294 153.054C237.019 152.941 236.725 152.882 236.428 152.882H190.455V148.505H236.428C236.725 148.505 237.019 148.446 237.294 148.333C237.569 148.219 237.818 148.052 238.028 147.842C238.238 147.632 238.405 147.382 238.519 147.108C238.633 146.833 238.691 146.539 238.691 146.241V140.632C238.691 140.032 238.453 139.456 238.028 139.032C237.604 138.607 237.028 138.369 236.428 138.369H188.606C188.566 138.369 188.526 138.369 188.486 138.369C187.622 137.264 186.518 136.371 185.257 135.757C183.996 135.143 182.611 134.825 181.209 134.826H81.4429V42.7063C81.4429 40.1287 82.4668 37.6567 84.2894 35.8341C86.112 34.0115 88.5841 32.9875 91.1616 32.9875H290.567C290.019 39.5687 290.45 46.1948 291.846 52.6495C291.112 53.9189 290.426 55.1687 289.789 56.3821C283.73 67.9214 280.081 78.951 283.804 84.1607C284.022 84.4654 284.266 84.7505 284.534 85.013C286.017 86.4694 288.299 87.2872 291.545 87.2872C295.779 87.106 299.959 86.264 303.933 84.7915C312.334 81.9849 318.399 78.337 322.957 74.1192V114.695H265.475C263.155 114.695 260.93 115.617 259.289 117.257C257.648 118.898 256.727 121.123 256.726 123.443V234.841C256.727 237.161 257.648 239.386 259.289 241.027C260.93 242.668 263.155 243.589 265.475 243.59H322.608C322.044 245.643 320.821 247.454 319.128 248.745C317.435 250.036 315.365 250.736 313.235 250.736Z" fill="#FBFBFB"/>
<path fill-rule="evenodd" clip-rule="evenodd" d="M291.541 87.2862C288.294 87.2862 286.013 86.4684 284.53 85.012C289.801 82.2123 299.922 76.2202 304.926 69.1496C307.328 65.5735 309.516 61.8584 311.479 58.0235C314.711 52.0147 318.034 45.8446 322.735 40.6516C322.88 41.3269 322.953 42.0156 322.952 42.7063V74.1182C318.397 78.336 312.324 81.984 303.928 84.7906C299.954 86.263 295.775 87.105 291.54 87.2862H291.541ZM283.802 84.1607C288.939 81.4338 299.163 75.4221 304.042 68.5247C306.423 64.987 308.589 61.3094 310.529 57.5118C313.9 51.2501 317.364 44.8172 322.388 39.4303C321.713 37.5444 320.471 35.9132 318.833 34.76C317.194 33.6068 315.24 32.9877 313.237 32.9875H312.868C302.904 42.5499 298.862 46.3415 295.045 61.5131C294.94 61.9245 294.835 62.3525 294.729 62.7826C294.709 62.7314 294.526 62.2758 294.248 61.4708C293.263 58.5835 292.461 55.6373 291.846 52.6495C291.111 53.9189 290.426 55.1687 289.788 56.3821C283.729 67.9214 280.08 78.951 283.804 84.1607H283.802Z" fill="url(#paint4_linear)"/>
<path fill-rule="evenodd" clip-rule="evenodd" d="M284.53 85.0123C284.263 84.7499 284.019 84.4647 283.801 84.1601C288.938 81.4332 299.163 75.4215 304.042 68.524C306.423 64.9863 308.589 61.3088 310.529 57.5112C313.899 51.2495 317.363 44.8165 322.388 39.4297C322.532 39.8296 322.65 40.2386 322.74 40.6539C318.039 45.8469 314.715 52.0171 311.484 58.0259C309.522 61.8607 307.334 65.5759 304.931 69.1519C299.927 76.2225 289.805 82.2146 284.535 85.0143L284.53 85.0123Z" fill="url(#paint5_linear)"/>
<path fill-rule="evenodd" clip-rule="evenodd" d="M295.043 61.5131C294.578 51.4568 298.556 40.5522 302.401 32.9875H312.868C302.903 42.5499 298.862 46.3415 295.044 61.5131H295.043ZM294.246 61.4708C293.846 51.6615 297.592 40.7677 301.453 32.9875H290.567C290.019 39.5687 290.45 46.1948 291.846 52.6495C292.462 55.6373 293.265 58.5835 294.25 61.4708H294.246Z" fill="url(#paint6_linear)"/>
<path fill-rule="evenodd" clip-rule="evenodd" d="M294.727 62.7826C294.707 62.7314 294.524 62.2758 294.245 61.4708C293.845 51.6615 297.591 40.7677 301.452 32.9875H302.4C298.555 40.5561 294.577 51.4568 295.042 61.5131C294.938 61.9245 294.834 62.3525 294.727 62.7826Z" fill="url(#paint7_linear)"/>
<path d="M188.863 138.366H236.169C236.838 138.366 237.479 138.631 237.951 139.104C238.424 139.577 238.689 140.218 238.689 140.886V145.982C238.689 146.65 238.424 147.291 237.952 147.763C237.479 148.236 236.838 148.501 236.17 148.501H188.863C188.194 148.501 187.553 148.235 187.08 147.763C186.608 147.29 186.342 146.649 186.342 145.981V140.886C186.342 140.218 186.608 139.577 187.08 139.104C187.553 138.631 188.194 138.366 188.863 138.366V138.366Z" fill="#A8CAEB"/>
<path fill-rule="evenodd" clip-rule="evenodd" d="M236.426 194.265H190.458V152.878H236.43C237.031 152.878 237.606 153.117 238.031 153.541C238.455 153.966 238.694 154.541 238.694 155.142V192.007C238.692 192.607 238.452 193.182 238.027 193.605C237.602 194.029 237.026 194.266 236.426 194.265Z" fill="#E2E3E2"/>
<path d="M302.36 66.04H272.842V69.0011H302.36V66.04Z" fill="#A8CAEB"/>
<path d="M306.768 75.2085H272.842V78.1696H306.768V75.2085Z" fill="#A8CAEB"/>
<path d="M290.343 84.3252H272.791V87.2873H290.343V84.3252Z" fill="#A8CAEB"/>
<path d="M299.835 93.4409H272.791V96.404H299.835V93.4409Z" fill="#A8CAEB"/>
<path d="M223.242 220.654H94.0894V223.684H223.242V220.654Z" fill="white"/>
<path d="M233.643 227.721H94.0894V230.75H233.643V227.721Z" fill="white"/>
<path d="M184.64 234.79H94.0894V237.819H184.64V234.79Z" fill="white"/>
<path fill-rule="evenodd" clip-rule="evenodd" d="M337.521 243.586H322.611C322.84 242.749 322.955 241.885 322.954 241.018V114.694H337.518C339.838 114.694 342.063 115.616 343.704 117.257C345.345 118.897 346.266 121.122 346.267 123.443V234.841C346.266 237.16 345.344 239.384 343.704 241.023C342.064 242.663 339.84 243.585 337.521 243.586Z" fill="#F9F8FC"/>
<path fill-rule="evenodd" clip-rule="evenodd" d="M322.612 243.586H265.475C263.155 243.586 260.93 242.664 259.289 241.024C257.649 239.383 256.727 237.158 256.727 234.838V123.44C256.727 121.12 257.649 118.895 259.289 117.254C260.93 115.613 263.155 114.692 265.475 114.691H322.954V241.018C322.956 241.886 322.84 242.749 322.612 243.586Z" fill="#F3F3F3"/>
<path d="M330.587 193.313H268.924C268.159 193.313 267.539 193.933 267.539 194.698V196.506C267.539 197.271 268.159 197.891 268.924 197.891H330.587C331.352 197.891 331.972 197.271 331.972 196.506V194.698C331.972 193.933 331.352 193.313 330.587 193.313Z" fill="#C8D2DA"/>
<path d="M268.924 203.412H312.011C312.193 203.412 312.373 203.447 312.541 203.517C312.709 203.586 312.862 203.688 312.991 203.817C313.12 203.945 313.222 204.098 313.292 204.266C313.361 204.434 313.397 204.614 313.397 204.796V206.603C313.397 206.785 313.361 206.966 313.292 207.134C313.222 207.302 313.12 207.455 312.991 207.584C312.862 207.712 312.709 207.814 312.541 207.884C312.372 207.953 312.192 207.989 312.01 207.989H268.926C268.743 207.989 268.563 207.953 268.395 207.883C268.226 207.813 268.074 207.711 267.945 207.582C267.816 207.454 267.714 207.301 267.644 207.132C267.575 206.964 267.539 206.783 267.539 206.601V204.796C267.539 204.429 267.685 204.077 267.945 203.817C268.204 203.558 268.556 203.412 268.924 203.412Z" fill="#C8D2DA"/>
<path d="M268.925 213.511H320.626C320.994 213.511 321.346 213.657 321.605 213.916C321.865 214.176 322.011 214.528 322.011 214.895V216.703C322.011 217.07 321.865 217.422 321.605 217.682C321.346 217.942 320.994 218.088 320.626 218.088H268.925C268.557 218.088 268.205 217.942 267.945 217.682C267.685 217.422 267.539 217.07 267.539 216.702V214.896C267.539 214.529 267.685 214.176 267.945 213.917C268.205 213.657 268.557 213.511 268.925 213.511V213.511Z" fill="#C8D2DA"/>
<path d="M294.603 225.924H308.398C309.724 225.924 310.996 226.451 311.934 227.389C312.872 228.327 313.399 229.599 313.399 230.925V244.72C313.399 246.046 312.872 247.317 311.935 248.255C310.997 249.192 309.726 249.719 308.4 249.719H294.601C293.275 249.719 292.004 249.192 291.066 248.255C290.129 247.317 289.602 246.046 289.602 244.72V230.925C289.602 229.599 290.129 228.327 291.067 227.389C292.005 226.451 293.277 225.924 294.603 225.924Z" fill="white"/>
<path d="M302.626 233.086H300.373V242.553H302.626V233.086Z" fill="#B6BEC5"/>
<path d="M306.232 236.693H296.766V238.945H306.232V236.693Z" fill="#B6BEC5"/>
<path fill-rule="evenodd" clip-rule="evenodd" d="M181.208 273.803H47.9286C45.4761 273.803 43.124 272.829 41.3893 271.096C39.6547 269.362 38.6795 267.01 38.6782 264.558V144.073C38.6795 141.62 39.6547 139.269 41.3893 137.535C43.124 135.801 45.4761 134.827 47.9286 134.827H81.4444V241.018C81.4443 242.294 81.6956 243.558 82.1839 244.737C82.6723 245.916 83.3882 246.988 84.2907 247.89C85.1932 248.793 86.2646 249.508 87.4438 249.997C88.623 250.485 89.8869 250.737 91.1632 250.736H190.457V264.558C190.456 267.01 189.481 269.362 187.746 271.095C186.012 272.829 183.66 273.803 181.208 273.803Z" fill="#FBFBFB"/>
<path fill-rule="evenodd" clip-rule="evenodd" d="M190.455 250.741H91.1616C89.8853 250.741 88.6215 250.49 87.4423 250.002C86.2631 249.513 85.1916 248.798 84.2891 247.895C83.3866 246.993 82.6708 245.921 82.1824 244.742C81.694 243.563 81.4427 242.299 81.4429 241.023V134.827H181.209C182.611 134.826 183.996 135.144 185.257 135.758C186.518 136.372 187.622 137.265 188.486 138.37C187.907 138.401 187.362 138.653 186.963 139.074C186.564 139.495 186.342 140.053 186.343 140.633V146.243C186.343 146.843 186.581 147.419 187.006 147.843C187.43 148.268 188.006 148.506 188.606 148.506H190.455V152.883H188.606C188.006 152.883 187.43 153.122 187.006 153.546C186.581 153.971 186.343 154.546 186.343 155.147V192.008C186.343 192.306 186.402 192.6 186.515 192.875C186.629 193.149 186.796 193.399 187.006 193.609C187.216 193.819 187.466 193.986 187.74 194.1C188.015 194.213 188.309 194.272 188.606 194.272H190.455V220.662H94.0903V223.692H190.455V227.727H94.0903V230.756H190.455V250.741ZM141.242 237.819H184.64V234.789H94.0903V237.818L141.242 237.819Z" fill="#FBFBFB"/>
<path fill-rule="evenodd" clip-rule="evenodd" d="M190.454 148.501H188.605C188.307 148.501 188.013 148.442 187.739 148.329C187.464 148.215 187.214 148.048 187.004 147.838C186.794 147.628 186.627 147.378 186.514 147.104C186.4 146.829 186.341 146.535 186.341 146.238V140.628C186.34 140.048 186.562 139.49 186.961 139.069C187.36 138.648 187.905 138.396 188.485 138.365C189.763 139.991 190.456 142 190.453 144.068L190.454 148.501Z" fill="#F9FDFF"/>
<path fill-rule="evenodd" clip-rule="evenodd" d="M190.454 194.265H188.605C188.004 194.265 187.429 194.026 187.004 193.602C186.58 193.177 186.341 192.602 186.341 192.001V155.142C186.341 154.541 186.58 153.966 187.004 153.541C187.429 153.117 188.004 152.878 188.605 152.878H190.454V194.265Z" fill="white"/>
<path fill-rule="evenodd" clip-rule="evenodd" d="M190.454 223.684H161.338V220.654H94.0894H190.455L190.454 223.684Z" fill="white"/>
<path fill-rule="evenodd" clip-rule="evenodd" d="M190.454 230.75H166.753V227.721H94.0894H190.455L190.454 230.75Z" fill="white"/>
<path fill-rule="evenodd" clip-rule="evenodd" d="M184.64 237.819H141.242V234.79H94.0894H184.64V237.819Z" fill="white"/>
<path d="M161.338 220.654H94.0894V223.684H161.338V220.654Z" fill="url(#paint8_linear)"/>
<path d="M166.753 227.721H94.0894V230.75H166.753V227.721Z" fill="url(#paint9_linear)"/>
<path d="M141.238 234.79H94.0894V237.819H141.238V234.79Z" fill="url(#paint10_linear)"/>
<path fill-rule="evenodd" clip-rule="evenodd" d="M172.372 183.412L172.24 182.61L152.689 185.813L146.35 199.326L125.27 200.757L118.441 210.83L102.325 210.429L102.304 211.242L118.864 211.652L125.719 201.541L146.882 200.105L153.242 186.548L172.372 183.412Z" fill="#3E96D4"/>
<path fill-rule="evenodd" clip-rule="evenodd" d="M148.478 156.134H169.547C170.185 156.134 170.798 155.88 171.25 155.428C171.701 154.977 171.955 154.364 171.955 153.725C171.955 153.086 171.701 152.474 171.25 152.022C170.798 151.57 170.185 151.317 169.547 151.317H148.478C147.84 151.317 147.227 151.57 146.775 152.022C146.324 152.474 146.07 153.086 146.07 153.725C146.07 154.364 146.324 154.977 146.775 155.428C147.227 155.88 147.84 156.134 148.478 156.134Z" fill="#006DB7"/>
<path fill-rule="evenodd" clip-rule="evenodd" d="M148.478 164.538H169.547C170.186 164.538 170.799 164.284 171.251 163.832C171.704 163.379 171.958 162.766 171.958 162.127C171.958 161.487 171.704 160.874 171.251 160.422C170.799 159.97 170.186 159.716 169.547 159.716H148.478C147.839 159.716 147.226 159.97 146.774 160.422C146.321 160.874 146.067 161.487 146.067 162.127C146.067 162.766 146.321 163.379 146.774 163.832C147.226 164.284 147.839 164.538 148.478 164.538Z" fill="#3E96D4"/>
<path fill-rule="evenodd" clip-rule="evenodd" d="M148.478 172.94H169.547C170.186 172.94 170.799 172.686 171.251 172.234C171.704 171.782 171.958 171.169 171.958 170.529C171.958 169.89 171.704 169.276 171.251 168.824C170.799 168.372 170.186 168.118 169.547 168.118H148.478C147.839 168.118 147.226 168.372 146.774 168.824C146.321 169.276 146.067 169.89 146.067 170.529C146.067 171.169 146.321 171.782 146.774 172.234C147.226 172.686 147.839 172.94 148.478 172.94Z" fill="#3E96D4"/>
<path d="M54.2527 150.56H129.333C130.07 150.56 130.778 150.853 131.299 151.374C131.82 151.895 132.113 152.603 132.113 153.34V159.35C132.113 160.086 131.82 160.793 131.299 161.314C130.779 161.835 130.072 162.128 129.335 162.128H54.2527C53.8876 162.128 53.5262 162.056 53.189 161.916C52.8517 161.776 52.5453 161.572 52.2872 161.313C52.0292 161.055 51.8245 160.749 51.6849 160.411C51.5453 160.074 51.4735 159.713 51.4736 159.348V153.339C51.4736 152.602 51.7664 151.895 52.2876 151.374C52.8088 150.853 53.5156 150.56 54.2527 150.56V150.56Z" fill="#3E96D4"/>
<path d="M54.2527 167.154H129.333C130.07 167.154 130.778 167.447 131.299 167.969C131.82 168.49 132.113 169.197 132.113 169.934V175.943C132.113 176.308 132.041 176.67 131.902 177.007C131.762 177.344 131.557 177.651 131.299 177.909C131.041 178.167 130.734 178.372 130.397 178.512C130.06 178.651 129.698 178.723 129.333 178.723H54.2527C53.5156 178.723 52.8088 178.43 52.2876 177.909C51.7664 177.388 51.4736 176.681 51.4736 175.944V169.933C51.4736 169.196 51.7664 168.489 52.2876 167.968C52.8088 167.447 53.5156 167.154 54.2527 167.154V167.154Z" fill="#006DB7"/>
<path fill-rule="evenodd" clip-rule="evenodd" d="M162.339 240.663C159.228 242.947 155.364 243.96 151.533 243.498C147.701 243.037 144.189 241.134 141.709 238.176C141.492 237.919 141.282 237.651 141.079 237.373C139.302 234.946 138.285 232.046 138.156 229.04C138.027 226.034 138.792 223.058 140.355 220.487C141.917 217.916 144.207 215.866 146.935 214.597C149.663 213.328 152.706 212.896 155.679 213.356C158.652 213.816 161.422 215.148 163.639 217.182C165.855 219.217 167.418 221.863 168.131 224.786C168.843 227.709 168.673 230.777 167.641 233.603C166.61 236.43 164.763 238.887 162.335 240.663H162.339ZM169.72 216.405C166.541 212.063 161.768 209.161 156.45 208.339C151.133 207.516 145.706 208.84 141.364 212.018C137.022 215.197 134.121 219.97 133.298 225.288C132.476 230.605 133.799 236.032 136.978 240.374C137.247 240.742 137.528 241.099 137.816 241.444C141.204 245.47 146.023 248.022 151.256 248.563C156.49 249.104 161.729 247.59 165.868 244.341C170.008 241.093 172.723 236.363 173.441 231.151C174.159 225.938 172.825 220.651 169.719 216.404L169.72 216.405Z" fill="#3E96D4"/>
<path fill-rule="evenodd" clip-rule="evenodd" d="M138.146 228.173L133.068 228.1C133.131 223.88 134.507 219.784 137.004 216.382C139.502 212.979 142.997 210.439 147.004 209.114L148.593 213.936C145.589 214.929 142.969 216.834 141.096 219.385C139.224 221.936 138.193 225.006 138.145 228.17L138.146 228.173Z" fill="#004173"/>
<path fill-rule="evenodd" clip-rule="evenodd" d="M141.713 238.174L137.824 241.443C137.535 241.098 137.256 240.74 136.986 240.373C134.376 236.819 133 232.508 133.068 228.099L138.146 228.172C138.094 231.477 139.126 234.708 141.083 237.372C141.285 237.65 141.495 237.917 141.713 238.174Z" fill="#005CA6"/>
<path fill-rule="evenodd" clip-rule="evenodd" d="M142.277 245.394C140.606 244.305 139.106 242.975 137.825 241.447L141.713 238.179C142.673 239.326 143.797 240.323 145.05 241.139L142.277 245.394Z" fill="#0072BB"/>
<path fill-rule="evenodd" clip-rule="evenodd" d="M4.70303 186.116C8.75351 184.18 12.7833 197.071 12.7833 197.071C19.6719 206.167 29.2864 194.067 28.3456 207.663C26.6992 231.456 55.7316 215.142 42.3373 239.984C28.9429 264.826 54.1639 254.029 45.8406 274.059C37.5172 294.089 48.3008 317.974 35.7813 308.159C35.7813 308.159 24.7537 283.978 13.3816 276.496C2.0096 269.014 20.1935 260.136 16.636 249.975C11.4686 235.214 -0.979047 235.795 7.9938 219.934C16.9667 204.074 -9.0623 192.7 4.70303 186.116Z" fill="url(#paint11_linear)"/>
<path fill-rule="evenodd" clip-rule="evenodd" d="M39.7483 299.059C34.3191 295.24 27.9659 268.635 27.587 252.788C27.3902 244.67 24.993 241.29 22.8762 238.305C20.853 235.452 19.1052 232.991 20.1208 227.336C22.0654 216.527 16.9511 211.862 16.8989 211.816L17.4894 211.142C17.7177 211.339 23.0445 216.152 21.0025 227.495C20.0509 232.779 21.6186 234.989 23.6044 237.787C25.6877 240.722 28.2788 244.38 28.4796 252.767C28.886 269.773 35.3819 294.893 40.26 298.324L39.7483 299.059Z" fill="white"/>
<path fill-rule="evenodd" clip-rule="evenodd" d="M68.0049 250.219C66.956 250.883 66.0138 251.701 65.2101 252.647C62.7981 255.173 59.7976 258.318 52.1877 258.355C48.4 258.372 46.2832 258.866 45.31 259.955C44.2491 261.146 44.4814 263.21 44.8012 266.066C44.9222 267.149 45.059 268.367 45.1437 269.696C45.4072 274.772 43.859 279.777 40.7753 283.817C38.0504 287.064 34.9693 293.517 36.2545 297.2C36.519 297.92 36.9773 298.554 37.5788 299.03C38.1804 299.506 38.9017 299.807 39.6633 299.899C45.803 301.14 47.4976 297.298 50.3071 290.935C50.8218 289.766 51.3542 288.559 51.9594 287.283C55.2118 280.414 58.2477 279.223 62.8424 277.421C63.9455 276.987 65.1943 276.498 66.5592 275.884C72.3653 273.274 71.3182 269.692 70.2092 265.898C70.0498 265.355 69.8933 264.815 69.7546 264.279C69.0559 261.548 70.4345 260.146 72.1793 258.362C73.7375 256.906 75.0247 255.184 75.9808 253.278C76.5713 252.046 77.0574 250.372 76.0261 249.395C74.67 248.109 71.2218 248.463 68.0058 250.217L68.0049 250.219ZM41.7801 301.03C41.0087 301.024 40.24 300.941 39.4852 300.781C38.569 300.664 37.7031 300.296 36.9835 299.717C36.2639 299.137 35.7186 298.37 35.4082 297.501C33.9438 293.315 37.335 286.517 40.0865 283.24C42.9943 279.362 44.4653 274.595 44.2482 269.752C44.1655 268.445 44.0297 267.234 43.9096 266.165C43.5642 263.077 43.3143 260.851 44.6408 259.357C45.8089 258.044 48.0664 257.475 52.1848 257.455C59.4099 257.422 62.2667 254.43 64.5616 252.026C65.4281 251.012 66.4446 250.137 67.5758 249.431C71.1765 247.463 74.9899 247.177 76.6441 248.742C77.4314 249.487 78.0927 250.946 76.7907 253.663C75.7908 255.657 74.4466 257.459 72.82 258.986C71.1529 260.687 70.0508 261.813 70.6245 264.053C70.7593 264.577 70.9197 265.109 71.0703 265.642C72.1842 269.451 73.4468 273.769 66.9263 276.698C65.5427 277.32 64.2821 277.815 63.1701 278.252C58.6187 280.038 55.8731 281.117 52.7713 287.662C52.171 288.93 51.6406 290.13 51.1289 291.292C48.6824 296.839 46.8324 301.03 41.7801 301.03Z" fill="url(#paint12_linear)"/>
<path fill-rule="evenodd" clip-rule="evenodd" d="M39.5796 306.213L38.6831 306.165C38.7284 305.323 39.864 285.468 47.8351 279.657C56.5806 273.282 59.339 266.432 60.6517 261.833C62.1987 256.414 70.0753 254.967 70.4099 254.907L70.5663 255.793C70.4896 255.807 62.9072 257.204 61.5128 262.082C60.1626 266.806 57.3314 273.847 48.3615 280.386C40.73 285.944 39.5904 306.011 39.5796 306.213Z" fill="url(#paint13_linear)"/>
<path fill-rule="evenodd" clip-rule="evenodd" d="M57.8091 206.153C52.1428 204.21 53.3198 215.13 50.9206 223.211C48.5214 231.293 24.2854 226.735 34.4608 246.97C44.6362 267.205 21.593 253.737 28.4757 271.393C35.3583 289.049 29.075 307.935 36.5569 303.132C44.0389 298.328 40.7599 276.095 48.5411 273.452C56.3222 270.808 57.5946 267.728 49.8873 260.545C42.18 253.363 70.0747 246.233 63.1921 231.73C56.3094 217.226 64.3513 208.398 57.8091 206.153Z" fill="url(#paint14_linear)"/>
<path fill-rule="evenodd" clip-rule="evenodd" d="M40.0312 302.285C39.3177 299.262 33.2331 272.664 38.9113 269.447C43.9153 266.611 43.7923 255.591 43.0119 245.181C42.3231 235.968 54.1547 231.661 54.6585 231.481L54.9587 232.327C54.8416 232.369 43.2668 236.586 43.9065 245.114C44.7075 255.803 44.7921 267.148 39.3531 270.228C35.0419 272.67 39.0107 294.043 40.905 302.08L40.0312 302.285Z" fill="white"/>
<path fill-rule="evenodd" clip-rule="evenodd" d="M52.9112 292.814L44.821 323.505H26.7425L18.6523 292.814H52.9112Z" fill="url(#paint15_linear)"/>
<path fill-rule="evenodd" clip-rule="evenodd" d="M52.9121 292.814C52.9121 292.814 35.1003 296.16 35.1003 323.505H26.7425L18.6523 292.814H52.9121Z" fill="url(#paint16_linear)"/>
<path fill-rule="evenodd" clip-rule="evenodd" d="M98.9857 19V21.6039H73.6132V46.9755H71.0093V19H98.9857Z" fill="url(#paint17_linear)"/>
<path d="M103.505 252.944H78.019V254.456H103.505V252.944Z" fill="#D9C6BD"/>
<path d="M83.6665 258.394H81.4336V327.198H83.6665V258.394Z" fill="#584F4B"/>
<path d="M117.233 252.514H99.5161V254.675H117.233V252.514Z" fill="#C1ADA7"/>
<path d="M111.727 234.079H105.02V254.456H111.727V234.079Z" fill="#847670"/>
<path d="M167.031 254.482H68.875V258.393H167.031V254.482Z" fill="#A5785A"/>
<path fill-rule="evenodd" clip-rule="evenodd" d="M50.0378 230.802C50.0378 230.802 48.9641 245.858 51.9075 247.659C53.7497 248.788 61.0978 252.595 60.8794 253.31C60.6609 254.024 56.7305 259.662 56.7305 259.662C56.7305 259.662 42.6178 250.367 42.1661 247.439C41.7203 244.577 42.8608 225.395 44.8005 224.51C46.253 223.848 47.0206 224.395 48.8509 225.755C51.4155 227.665 50.0378 230.802 50.0378 230.802Z" fill="#C1563C"/>
<path fill-rule="evenodd" clip-rule="evenodd" d="M51.8317 265.186C51.8317 265.186 69.3828 268.155 73.3457 268.776C77.3086 269.398 98.8019 274.748 101.49 276.377C103.629 277.674 100.369 308.828 99.6059 320.714H91.1428L90.5288 285.059C80.3711 285.313 73.1223 282.683 65.724 283.807C58.3257 284.931 52.1594 286.527 47.4595 280.223C47.4565 280.223 47.2853 266.562 51.8317 265.186Z" fill="#03112A"/>
<path fill-rule="evenodd" clip-rule="evenodd" d="M69.13 320.743L60.8804 320.232L60.0764 285.058C56.9277 285.156 53.7769 284.956 50.6657 284.462L44.0044 268.979C49.842 270.146 68.5395 274.861 71.0391 276.377C73.1775 277.674 69.8916 308.856 69.13 320.743Z" fill="#03112A"/>
<path fill-rule="evenodd" clip-rule="evenodd" d="M59.9106 199.402C59.9106 199.402 66.3436 197.623 68.7979 202.619C71.2521 207.614 70.1401 217.085 66.8976 217.97C63.655 218.856 58.9925 217.835 57.6472 214.723C56.302 211.61 55.2274 207.198 55.5492 204.339C55.871 201.479 58.2022 200.084 59.9106 199.402Z" fill="#EB936D"/>
<path fill-rule="evenodd" clip-rule="evenodd" d="M65.2162 216.975C65.2162 216.975 65.1453 220.772 65.5645 221.582C65.9837 222.392 56.6094 222.189 56.6094 222.189C56.6094 222.189 58.0855 217.629 57.248 213.742C56.4155 209.897 65.2162 216.975 65.2162 216.975Z" fill="#EB936D"/>
<path fill-rule="evenodd" clip-rule="evenodd" d="M56.7402 212.303C56.7402 212.303 57.242 213.321 59.6688 213.157C62.0955 212.993 65.2977 210.064 66.3281 209.802C67.3584 209.54 67.4194 208.954 67.4194 208.954L67.9656 209.924L69.0205 210.084C69.0205 210.084 68.3031 207.148 69.8658 206.116C71.4286 205.084 69.1622 196.759 61.2473 198.767C61.2473 198.767 55.207 199.873 55.1263 203.245C55.0456 206.618 55.5662 210.517 56.7402 212.303Z" fill="#1D242C"/>
<path fill-rule="evenodd" clip-rule="evenodd" d="M66.0571 221.484C66.0571 221.484 66.0315 219.938 65.3299 219.79C64.6282 219.641 57.9591 218.724 57.0971 219.062L56.728 221.104C56.728 221.104 58.3862 222.125 66.0571 221.484Z" fill="#D9C6BD"/>
<path fill-rule="evenodd" clip-rule="evenodd" d="M67.9911 208.263C67.811 206.995 66.3693 205.539 65.5437 207.513C64.718 209.487 66.1017 212.366 67.0287 212.211C67.9557 212.057 68.2312 209.983 67.9911 208.263Z" fill="#EB936D"/>
<path fill-rule="evenodd" clip-rule="evenodd" d="M58.0332 200.307C58.0332 200.307 50.1891 199.938 56.6644 212.184L58.0332 200.307Z" fill="#1D242C"/>
<path d="M66.641 290.944H63.8384V317.748H66.641V290.944Z" fill="#7D706C"/>
<path d="M73.5037 289.519H56.9751V291.098H73.5037V289.519Z" fill="#453E3A"/>
<path d="M48.7621 283.536H81.9355C82.3282 283.536 82.7171 283.613 83.08 283.764C83.4428 283.914 83.7725 284.134 84.0502 284.412C84.3279 284.69 84.5482 285.019 84.6985 285.382C84.8488 285.745 84.9261 286.134 84.9261 286.527C84.9261 286.919 84.8488 287.308 84.6985 287.671C84.5482 288.034 84.3279 288.364 84.0502 288.641C83.7725 288.919 83.4428 289.139 83.08 289.29C82.7171 289.44 82.3282 289.517 81.9355 289.517H48.7602C47.9673 289.517 47.207 289.203 46.6462 288.642C46.0854 288.082 45.7701 287.322 45.7695 286.529V286.529C45.7695 285.735 46.0848 284.974 46.646 284.413C47.2073 283.851 47.9684 283.536 48.7621 283.536V283.536Z" fill="#D9C6BD"/>
<path d="M154.473 258.394H152.24V327.198H154.473V258.394Z" fill="#584F4B"/>
<path d="M82.6906 203.03H134.06C134.93 203.03 135.764 203.375 136.38 203.991C136.995 204.606 137.341 205.441 137.341 206.311V240.614C137.341 241.045 137.256 241.471 137.091 241.869C136.926 242.267 136.684 242.629 136.38 242.934C136.075 243.238 135.713 243.48 135.315 243.645C134.917 243.81 134.49 243.895 134.06 243.895H82.6916C81.8212 243.895 80.9864 243.549 80.3709 242.933C79.7554 242.318 79.4097 241.483 79.4097 240.613V206.311C79.4097 205.441 79.7553 204.606 80.3706 203.991C80.9859 203.375 81.8204 203.03 82.6906 203.03V203.03Z" fill="#A89790"/>
<path d="M135.07 205.239H81.6787V237.491H135.07V205.239Z" fill="#F4F7FC"/>
<path fill-rule="evenodd" clip-rule="evenodd" d="M132.698 240.534C132.816 240.983 132.79 241.458 132.625 241.892C132.46 242.326 132.163 242.698 131.776 242.954C131.388 243.211 130.931 243.34 130.467 243.324C130.003 243.307 129.555 243.146 129.187 242.862C128.82 242.579 128.55 242.187 128.416 241.742C128.281 241.298 128.29 240.822 128.44 240.383C128.589 239.943 128.873 239.561 129.251 239.291C129.628 239.021 130.081 238.875 130.545 238.875C131.049 238.818 131.556 238.96 131.957 239.269C132.359 239.579 132.624 240.032 132.698 240.534Z" fill="#7C6F69"/>
<path fill-rule="evenodd" clip-rule="evenodd" d="M120.367 254.534V253.807C120.367 253.807 119.344 249.28 112.113 249.28C104.882 249.28 105.028 254.53 105.028 254.53L120.367 254.534Z" fill="#847670"/>
<path fill-rule="evenodd" clip-rule="evenodd" d="M104.939 249.956C105.675 249.912 106.399 249.754 107.087 249.488C107.662 249.139 111.105 246.825 111.915 247.195C112.724 247.565 118.106 249.215 117.918 250.001C117.729 250.788 117.229 250.713 116.853 250.574C115.335 250.169 113.785 249.894 112.22 249.752C112.22 249.752 116.058 251.153 116.074 252.174C116.091 253.196 115.271 253.446 114.907 253.832C114.543 254.219 114.106 255.179 113.117 255.252C112.128 255.326 107.3 253.646 106.305 253.57C105.318 253.597 104.33 253.565 103.347 253.471C103.795 252.264 104.327 251.089 104.939 249.956Z" fill="#EB936D"/>
<path fill-rule="evenodd" clip-rule="evenodd" d="M76.339 223.629C71.3301 222.749 66.0574 221.485 66.0574 221.485L56.7283 221.105C56.7283 221.105 48.1668 222.988 44.7953 224.513C44.4755 224.657 44.4735 232.151 43.5957 234.115L46.3905 240.013C46.3905 240.013 48.0054 251.695 48.3409 256.891C48.4944 259.277 47.906 279.943 47.906 279.943C47.906 279.943 48.7434 280.355 55.1104 281.058C61.4774 281.761 77.3851 280.804 77.4855 280.052C77.5859 279.3 74.4053 252.052 74.2636 250.64C74.0481 248.475 74.8895 238.467 74.8895 238.467C76.0891 240.078 79.1476 247.355 82.335 250.816C84.2097 252.854 93.4945 254.103 95.2442 254.162C99.0536 254.29 106.003 255.048 106.206 254.677C106.368 254.455 106.811 248.508 106.376 248.363C105.994 248.237 93.091 247.493 89.7835 245.739C88.5751 245.098 84.9616 237.213 84.9616 237.213C84.9616 237.213 79.1013 224.87 76.339 223.629Z" fill="#E66748"/>
<path d="M57.3094 241.945H42.9379C39.4498 241.945 36.6221 244.773 36.6221 248.261V273.029C36.6221 276.518 39.4498 279.345 42.9379 279.345H57.3094C60.7976 279.345 63.6253 276.518 63.6253 273.029V248.261C63.6253 244.773 60.7976 241.945 57.3094 241.945Z" fill="#D9C6BD"/>
<path fill-rule="evenodd" clip-rule="evenodd" d="M58.8403 288.029C57.0481 288.102 55.2615 287.785 53.6042 287.098C51.9469 286.412 50.4587 285.374 49.2426 284.056C43.8439 278.095 44.8142 267.621 44.8575 267.176C44.9011 266.783 45.0979 266.423 45.4051 266.174C45.7123 265.925 46.1052 265.807 46.4986 265.846C46.8921 265.885 47.2543 266.077 47.5069 266.381C47.7596 266.686 47.8821 267.077 47.8481 267.471C47.8363 267.59 46.9772 277.086 51.4744 282.043C52.4088 283.049 53.553 283.838 54.8259 284.352C56.0988 284.867 57.4692 285.096 58.8403 285.022C59.239 285.022 59.6213 285.18 59.9032 285.462C60.1851 285.744 60.3435 286.127 60.3435 286.525C60.3435 286.924 60.1851 287.306 59.9032 287.588C59.6213 287.87 59.239 288.028 58.8403 288.028V288.029Z" fill="#D9C6BD"/>
<path d="M85.9328 207.807H100.633C100.758 207.807 100.877 207.856 100.966 207.944C101.054 208.033 101.103 208.152 101.103 208.277V209.04C101.103 209.165 101.054 209.285 100.965 209.373C100.877 209.461 100.757 209.511 100.632 209.511H85.9338C85.872 209.511 85.8108 209.499 85.7538 209.475C85.6967 209.452 85.6448 209.417 85.6012 209.373C85.5575 209.33 85.5228 209.278 85.4992 209.221C85.4755 209.164 85.4634 209.102 85.4634 209.041V208.276C85.4634 208.152 85.5128 208.032 85.6009 207.944C85.6889 207.856 85.8083 207.807 85.9328 207.807V207.807Z" fill="#D7DAE3"/>
<path d="M85.9348 211.463H100.633C100.758 211.463 100.877 211.512 100.966 211.601C101.054 211.689 101.103 211.809 101.103 211.933V212.696C101.103 212.821 101.054 212.94 100.966 213.029C100.877 213.117 100.758 213.166 100.633 213.166H85.9338C85.8092 213.166 85.6897 213.117 85.6015 213.029C85.5133 212.941 85.4636 212.822 85.4634 212.697V211.934C85.4634 211.809 85.513 211.689 85.6014 211.601C85.6898 211.513 85.8097 211.463 85.9348 211.463V211.463Z" fill="#D7DAE3"/>
<path d="M87.0438 215.655H99.522C99.9414 215.655 100.344 215.821 100.64 216.118C100.937 216.415 101.103 216.817 101.103 217.236V233.342C101.103 233.761 100.937 234.163 100.64 234.46C100.344 234.756 99.9414 234.923 99.522 234.923H87.0458C86.6261 234.923 86.2236 234.756 85.9269 234.46C85.6301 234.163 85.4634 233.76 85.4634 233.341V217.235C85.4634 216.816 85.6299 216.414 85.9263 216.118C86.2227 215.821 86.6247 215.655 87.0438 215.655Z" fill="#D7DAE3"/>
<path d="M106.766 207.807H129.61C130.273 207.807 130.91 208.071 131.379 208.541C131.848 209.01 132.111 209.647 132.111 210.31V232.418C132.111 233.082 131.847 233.719 131.378 234.188C130.908 234.658 130.271 234.922 129.607 234.922H106.766C106.102 234.922 105.465 234.658 104.995 234.188C104.526 233.719 104.262 233.082 104.262 232.418V210.311C104.262 209.647 104.526 209.01 104.995 208.54C105.465 208.071 106.102 207.807 106.766 207.807V207.807Z" fill="#D7DAE3"/>
<path d="M98.725 62.5503H98.2251V114.985H98.725V62.5503Z" fill="#D9D9D7"/>
<path d="M134.26 62.5503H133.76V114.985H134.26V62.5503Z" fill="#D9D9D7"/>
<path d="M169.794 62.5503H169.295V114.985H169.794V62.5503Z" fill="#D9D9D7"/>
<path d="M205.33 62.5503H204.831V114.985H205.33V62.5503Z" fill="#D9D9D7"/>
<path d="M240.866 62.5503H240.366V114.985H240.866V62.5503Z" fill="#D9D9D7"/>
<path d="M104.129 118.09H98.4751V119.912H104.129V118.09Z" fill="#A9A8A7"/>
<path d="M106.986 56.0898H98.4751V57.4567H106.986V56.0898Z" fill="#D0CFCF"/>
<path d="M110.549 58.616H98.4751V59.9809H110.549V58.616Z" fill="#D0CFCF"/>
<path d="M143.62 56.0898H133.627V57.4567H143.62V56.0898Z" fill="#D0CFCF"/>
<path d="M140.016 58.616H133.627V59.9809H140.016V58.616Z" fill="#D0CFCF"/>
<path d="M175.988 56.0898H169.795V57.4567H175.988V56.0898Z" fill="#D0CFCF"/>
<path d="M177.013 58.616H169.795V59.9809H177.013V58.616Z" fill="#D0CFCF"/>
<path d="M214.35 56.0898H205.33V57.4567H214.35V56.0898Z" fill="#D0CFCF"/>
<path d="M212.547 58.616H205.33V59.9809H212.547V58.616Z" fill="#D0CFCF"/>
<path d="M246.003 56.0898H240.616V57.4567H246.003V56.0898Z" fill="#D0CFCF"/>
<path d="M244.925 58.616H240.616V59.9809H244.925V58.616Z" fill="#D0CFCF"/>
<path d="M139.664 118.09H134.01V119.912H139.664V118.09Z" fill="#A9A8A7"/>
<path d="M175.448 118.09H169.795V119.912H175.448V118.09Z" fill="#A9A8A7"/>
<path d="M210.983 118.09H205.33V119.912H210.983V118.09Z" fill="#A9A8A7"/>
<path d="M246.518 118.09H240.865V119.912H246.518V118.09Z" fill="#A9A8A7"/>
<path fill-rule="evenodd" clip-rule="evenodd" d="M228.301 99.4052C217.218 99.4052 207.583 94.6137 197.538 89.6185C185.138 83.4523 172.317 77.0764 155.232 78.8222C144.323 79.9362 137.475 84.3813 131.435 88.2989C125.965 91.8494 120.793 94.97 113.788 95.2376C102.471 95.6667 98.541 90.8398 98.4761 90.5445V87.4467C98.4899 87.5008 100.962 92.9201 113.776 92.8591C120.086 92.8266 124.744 89.8084 130.138 86.3061C136.406 82.2399 143.509 77.6314 154.991 76.4574C172.758 74.6418 185.891 81.1731 198.599 87.49C211.893 94.101 224.579 100.3 240.62 94.9217V97.4685C236.656 98.8221 232.488 99.4774 228.301 99.4052Z" fill="url(#paint18_linear)"/>
<path fill-rule="evenodd" clip-rule="evenodd" d="M161.772 98.8118C153.591 98.8118 147.102 93.3088 140.749 87.9239C135.932 83.84 130.935 79.6655 125.166 77.6048C107.562 71.3195 98.5548 82.7968 98.4751 82.8982V79.4077C98.5735 79.2886 100.177 77.2023 104.824 75.2106C109.056 73.3959 116.157 71.9493 125.95 75.3572C132.149 77.5143 137.307 81.8826 142.285 86.1083C152.394 94.6786 161.125 102.08 176.284 90.4864C187.768 81.7055 198.593 73.3378 209.242 70.2813C219.661 67.2897 230.521 69.4802 240.687 79.6458L240.613 82.8165C219.019 61.1264 200.632 74.8691 177.73 92.3778C171.67 97.0158 166.444 98.8118 161.772 98.8118Z" fill="url(#paint19_linear)"/>
<path fill-rule="evenodd" clip-rule="evenodd" d="M274.41 122.944C272.706 122.947 271.073 123.625 269.868 124.83C268.664 126.035 267.986 127.668 267.985 129.372V176.384C267.987 178.087 268.664 179.721 269.869 180.925C271.073 182.13 272.706 182.808 274.41 182.81H327.525C329.228 182.808 330.861 182.13 332.066 180.925C333.27 179.721 333.948 178.087 333.95 176.384V129.372C333.948 127.668 333.271 126.035 332.066 124.83C330.862 123.625 329.229 122.947 327.525 122.944H274.41ZM327.526 183.7H274.41C272.47 183.697 270.611 182.925 269.239 181.554C267.868 180.182 267.096 178.323 267.093 176.383V129.372C267.095 127.432 267.867 125.572 269.238 124.2C270.61 122.828 272.47 122.056 274.41 122.054H327.525C329.465 122.056 331.324 122.828 332.696 124.2C334.067 125.572 334.839 127.432 334.84 129.372V176.384C334.838 178.323 334.066 180.182 332.695 181.554C331.324 182.925 329.465 183.697 327.526 183.7Z" fill="#68B3E5"/>
<path fill-rule="evenodd" clip-rule="evenodd" d="M357.112 228.88C357.112 228.88 359.926 237.244 359.557 244.457C359.188 251.669 361.013 259.558 361.76 267.091C362.593 275.489 366.001 295.369 366.126 299.86C366.251 304.352 365.596 318.698 365.596 318.698L358.774 318.854C358.774 318.854 353.044 284.099 351.559 280.553C350.074 277.006 342.716 251.719 342.469 248.887C342.222 246.055 357.112 228.88 357.112 228.88Z" fill="#131A1F"/>
<path fill-rule="evenodd" clip-rule="evenodd" d="M328.427 230.37C328.427 230.37 324.679 250.133 324.185 254.547C323.691 258.96 323.361 275.901 323.113 278.663C322.865 281.426 321.463 314.759 320.146 318.856H328.869C328.869 318.856 335.561 294.621 335.561 283.155C335.561 271.688 340.733 258.227 344.073 250.662C347.413 243.098 355.055 242.918 357.11 228.882C357.11 228.88 331.208 225.918 328.427 230.37Z" fill="#1F262A"/>
<path fill-rule="evenodd" clip-rule="evenodd" d="M346.154 162.826C346.154 162.826 339.277 160.259 336.106 165.491C332.935 170.723 333.243 181.204 336.708 182.491C340.173 183.778 345.38 183.106 347.154 179.834C348.929 176.562 350.53 171.825 350.453 168.661C350.376 165.497 347.958 163.739 346.154 162.826Z" fill="#EB936D"/>
<path fill-rule="evenodd" clip-rule="evenodd" d="M337.862 182.17C338.015 183.069 337.953 183.991 337.681 184.861C337.222 185.746 346.33 185.77 346.33 185.77C346.815 182.75 347.53 179.772 348.469 176.861C349.873 172.782 337.862 182.17 337.862 182.17Z" fill="#EB936D"/>
<path fill-rule="evenodd" clip-rule="evenodd" d="M348.469 176.86C348.469 176.86 347.843 177.897 345.277 177.496C342.71 177.094 339.582 173.679 338.509 173.304C337.436 172.929 337.427 172.301 337.427 172.301L336.755 173.285L335.618 173.356C335.618 173.356 336.655 170.305 335.091 169.058C333.528 167.811 336.715 159.173 344.946 162.048C344.946 162.048 351.264 163.792 351.035 167.385C350.807 170.978 349.884 175.071 348.469 176.86Z" fill="#FFC08D"/>
<path fill-rule="evenodd" clip-rule="evenodd" d="M337.142 184.754C337.142 184.754 337.172 183.058 337.938 182.895C338.703 182.731 346.427 181.989 347.37 182.361V184.338C347.37 184.338 345.552 185.456 337.142 184.754Z" fill="#D9C6BD"/>
<path fill-rule="evenodd" clip-rule="evenodd" d="M337.599 170.995C337.745 170.392 339.272 168.669 339.863 170.514C340.453 172.359 338.977 174.844 338.152 174.627C337.328 174.411 337.232 172.523 337.599 170.995Z" fill="#EB936D"/>
<path fill-rule="evenodd" clip-rule="evenodd" d="M337.141 184.753C337.141 184.753 332.91 186.274 328.008 188.357C326.32 189.064 324.851 190.209 323.753 191.673C322.655 193.138 321.968 194.869 321.762 196.687C321.436 199.993 317.919 217.53 317.259 219.015C316.599 220.5 308.796 244.341 308.524 244.836C308.253 245.331 314.89 248.083 315.328 247.867C315.766 247.652 322.885 226.122 323.598 224.529C323.598 224.529 327.693 211.624 327.804 209.699C327.804 209.699 327.921 215.183 328.14 216.721C328.358 218.259 324.499 248.146 324.61 248.971C324.721 249.795 342.162 250.84 349.143 250.074C353.401 249.599 357.617 248.804 361.756 247.697C361.756 247.697 356.263 224.113 356.43 221.497C356.8 215.8 358.702 205.069 358.702 205.069L364.394 215.795L357.112 234.541L358.779 240.237C358.779 240.237 372.318 219.777 372.753 217.909C373.188 216.041 372.09 213.659 371.376 212.12C370.661 210.581 365.963 198.866 364.869 197.218C363.774 195.569 361.916 188.966 357.421 187.127C354.144 185.948 350.783 185.014 347.367 184.333L337.141 184.753Z" fill="#E66748"/>
<path d="M301.633 225.202L295.936 247.46L327.843 255.626L333.54 233.367L301.633 225.202Z" fill="#CDCECD"/>
<path fill-rule="evenodd" clip-rule="evenodd" d="M305.743 249.701C305.743 249.701 304.831 251.177 304.498 251.594C304.166 252.011 305.317 252.283 305.81 251.852C306.303 251.421 305.743 249.701 305.743 249.701Z" fill="#BC6946"/>
<path fill-rule="evenodd" clip-rule="evenodd" d="M312.383 254.732C312.649 254.461 312.869 254.15 313.037 253.809C313.037 253.809 313.196 253.138 313.34 252.667C313.375 252.545 313.417 252.425 313.465 252.308C313.81 251.705 314.056 251.051 314.193 250.37C314.336 249.462 314.731 245.382 314.731 245.382L312.262 244.759L310.275 244.339C310.275 244.339 305.989 248.615 305.759 249.448C305.738 249.527 305.721 249.607 305.708 249.688C305.67 250.256 305.691 250.827 305.771 251.391C305.762 251.532 305.783 252.951 306.113 253.216C306.286 253.376 306.498 253.489 306.727 253.544C306.956 253.599 307.196 253.595 307.423 253.532C307.92 253.901 308.511 254.124 309.128 254.174C309.381 254.362 309.673 254.491 309.983 254.548C310.293 254.606 310.612 254.592 310.915 254.507C310.915 254.507 311.844 255.079 312.383 254.732Z" fill="#D88763"/>
<path fill-rule="evenodd" clip-rule="evenodd" d="M322.031 228.929C322.031 228.929 316.37 246.074 315.328 247.873C312.88 247.329 310.566 246.298 308.524 244.841L314.736 226.34L322.031 228.929Z" fill="#E66748"/>
<path fill-rule="evenodd" clip-rule="evenodd" d="M239.564 228.505C238.742 228.408 237.916 228.359 237.089 228.357C236.296 228.401 232.779 230.374 231.594 230.318C228.386 229.55 225.225 228.597 222.128 227.464C221.76 227.258 222.226 226.691 222.226 226.691L239.743 224.974L239.564 228.505Z" fill="#EB936D"/>
<path fill-rule="evenodd" clip-rule="evenodd" d="M253.643 200.276L255.45 218.724C255.45 218.724 256.237 221.003 251.072 221.842C245.799 222.7 237.558 224.49 237.558 224.49C237.558 224.49 237.695 230.643 238.391 230.679C240.4 230.786 255.365 228.252 261.294 226.999C265.997 226.007 263.045 200.855 263.045 200.855L253.643 200.276Z" fill="#C72B2E"/>
<path fill-rule="evenodd" clip-rule="evenodd" d="M239.313 222.309C238.514 222.527 237.703 222.698 236.885 222.822C236.098 222.896 232.325 221.466 231.16 221.698C228.102 222.933 225.117 224.343 222.221 225.921C221.888 226.179 222.432 226.67 222.432 226.67L240.006 225.771L239.313 222.309Z" fill="#EB936D"/>
<path fill-rule="evenodd" clip-rule="evenodd" d="M248.699 233.814C248.56 235.464 248.451 239.068 248.367 242.855C248.348 243.698 248.334 244.547 248.319 245.389C248.221 250.487 248.178 255.207 248.178 255.207C248.419 261.619 249.434 275.497 251.344 278.615C253.92 282.821 256.909 317.829 256.909 317.829L266.374 318.846C266.374 318.846 266.964 295.441 265.545 289.329C263.971 282.504 260.935 273.198 262.667 266.99C263.749 263.093 266.021 250.556 266.021 250.556C266.021 250.556 268.443 236.451 265.929 225.625C265.301 222.917 248.699 233.814 248.699 233.814Z" fill="#03112A"/>
<path fill-rule="evenodd" clip-rule="evenodd" d="M240.108 318.542H249.811C249.811 318.542 253.069 299.778 253.337 291.509C253.369 290.747 253.36 289.984 253.31 289.223C253.17 287.47 252.96 285.548 252.768 283.559V283.518C252.197 277.6 251.776 271.102 253.735 266.703C255.383 263.008 259.458 250.932 259.458 250.932C259.458 250.932 263.918 237.334 263.014 226.256C262.786 223.489 245.548 230.444 245.548 230.444C244.719 233.893 244.072 237.383 243.607 240.899C241.274 262.409 242.148 276.425 242.148 276.425C243.476 281.168 240.108 318.542 240.108 318.542Z" fill="#03112A"/>
<path fill-rule="evenodd" clip-rule="evenodd" d="M247.048 184.581C247.048 184.581 243.678 192.584 242.985 196.87C242.292 201.155 245.133 212.89 245.26 215.314C245.659 222.837 245.842 231.158 245.842 231.158L262.27 238.48C263.491 233.577 264.464 228.616 265.185 223.615C266.046 216.98 265.901 210.253 264.756 203.662C262.47 188.907 253.235 181.77 253.235 181.77L247.048 184.581Z" fill="#C4ADA5"/>
<path fill-rule="evenodd" clip-rule="evenodd" d="M234.589 170.179C234.589 170.179 233.45 174.587 234.639 174.935C235.623 175.223 234.695 179.501 234.606 180.184C234.516 180.868 236.426 180.873 236.908 181.184C237.389 181.495 239.741 186.152 241.26 185.935C242.78 185.719 248.89 181.748 250.243 179.409C251.596 177.07 250.984 168.156 248.88 164.852C246.776 161.547 236.617 162.473 234.589 170.179Z" fill="#EB936D"/>
<path fill-rule="evenodd" clip-rule="evenodd" d="M243.856 181.036C243.856 181.036 243.976 181.468 244.146 182.136C244.218 182.416 244.297 182.737 244.383 183.085C244.447 183.351 244.518 183.632 244.58 183.922C244.606 184.026 244.629 184.131 244.655 184.239C244.767 184.726 244.879 185.236 244.979 185.74C245.232 186.813 245.375 187.909 245.405 189.011C245.315 190.979 252.335 181.675 252.335 181.675C251.24 177.326 250.455 172.904 249.983 168.443C249.267 161.361 243.856 181.036 243.856 181.036Z" fill="#EB936D"/>
<path fill-rule="evenodd" clip-rule="evenodd" d="M234.379 171.126C233.484 170.036 232.99 168.672 232.98 167.262C232.969 165.851 233.444 164.48 234.323 163.377C237.446 159.302 245.967 163.003 246.827 163.013C247.687 163.023 252.265 162.204 252.02 170.832C251.803 178.508 251.425 178.181 251.425 178.181C251.425 178.181 249.063 174.957 248.066 174.555C246.519 173.926 243.695 174.864 243.695 174.864C243.695 174.864 244.168 170.882 241.897 170.894C239.626 170.906 236.35 169.785 234.379 171.126Z" fill="#03112A"/>
<path fill-rule="evenodd" clip-rule="evenodd" d="M245.464 172.213C245.53 171.666 245.613 169.367 247.766 170.174C249.919 170.981 247.926 175.767 247.618 175.899C247.31 176.031 244.91 176.81 245.464 172.213Z" fill="#EB936D"/>
<path fill-rule="evenodd" clip-rule="evenodd" d="M244.795 233.83C244.795 233.83 245.55 230.287 245.696 229.755L267.861 233.442L267.636 236.307C267.636 236.307 251.662 235.352 244.795 233.83Z" fill="#0A0E1C"/>
<path fill-rule="evenodd" clip-rule="evenodd" d="M267.926 216.1C267.592 227.139 269.871 238.101 274.579 248.091C275.536 250.114 259.905 250.01 259.905 250.01L267.926 216.1Z" fill="#E66748"/>
<path fill-rule="evenodd" clip-rule="evenodd" d="M245.091 202.381C245.381 204.082 245.632 205.801 245.848 207.521C246.28 210.947 246.574 214.385 246.764 217.738C246.785 218.089 246.803 218.437 246.82 218.783C246.849 219.348 246.876 219.909 246.899 220.466C246.929 221.208 246.954 221.946 246.976 222.678C247.309 232.065 249.372 241.309 253.061 249.946C253.061 249.946 264.266 250.713 267.151 249.145C268.362 237.803 268.729 226.387 268.249 214.991C268.179 213.68 268.091 212.37 267.982 211.07C266.844 197.319 261.467 184.022 253.238 181.774C253.043 181.956 243.566 193.435 245.091 202.381Z" fill="#E66748"/>
<path d="M238.02 225.681L208.774 226.863L208.883 229.542L238.128 228.359L238.02 225.681Z" fill="#6A574C"/>
<path d="M201.504 201.09L198.981 201.996L208.875 229.542L211.398 228.636L201.504 201.09Z" fill="#6A574C"/>
<path fill-rule="evenodd" clip-rule="evenodd" d="M248.872 274.778C249.696 280.112 253.257 291.262 253.336 291.507C253.368 290.746 253.36 289.983 253.31 289.222C253.169 287.469 252.959 285.547 252.768 283.558V283.516C252.248 281.088 251.495 278.715 250.519 276.431C249.685 274.245 248.877 265.582 248.877 265.582C248.359 268.625 248.357 271.734 248.872 274.778Z" fill="#090B10"/>
<path fill-rule="evenodd" clip-rule="evenodd" d="M244.657 184.239C244.769 184.726 244.882 185.236 244.982 185.739C247.049 184.321 249.418 180.552 249.564 180.317C248.723 181.539 244.722 184.195 244.657 184.239Z" fill="#955D45"/>
<path fill-rule="evenodd" clip-rule="evenodd" d="M246.818 216.867C246.839 217.209 246.857 217.549 246.874 217.887C246.905 218.439 246.931 218.986 246.953 219.529C249.469 219.016 254.243 217.733 255.681 215.187C257.64 211.717 252.756 203.606 252.649 203.432C252.694 203.648 254.739 213.634 252.649 214.627C251.292 215.276 248.478 216.157 246.818 216.867Z" fill="#9E1B20"/>
<path fill-rule="evenodd" clip-rule="evenodd" d="M245.129 191.397C244.093 197.591 244.023 203.909 244.923 210.125C246.18 218.655 246.667 224.776 246.667 224.776L246.038 227.181L244.89 225.333C244.89 225.333 242.91 214.41 242.541 209.865C241.8 203.629 242.444 197.307 244.427 191.349L245.129 191.397Z" fill="#041027"/>
<path fill-rule="evenodd" clip-rule="evenodd" d="M245.241 191.406C245.096 191.58 244.906 191.711 244.692 191.783C244.35 191.886 243.769 191.405 245.194 188.791L245.241 191.406Z" fill="#041027"/>
<path fill-rule="evenodd" clip-rule="evenodd" d="M252.093 180.702C252.093 180.702 247.763 186.206 244.923 187.705L245.035 192.339L253.238 181.771L252.093 180.702Z" fill="#EAD0C8"/>
<path fill-rule="evenodd" clip-rule="evenodd" d="M261.491 195.814C261.158 193.709 258.701 184.757 253.643 186.072C248.585 187.387 250.009 193.478 251.112 198.068C252.267 202.87 256.402 214.468 255.681 215.191C254.961 215.914 249.106 218.568 247.829 219.008C246.553 219.448 238.439 222.024 237.813 222.292C237.187 222.561 240.953 229.192 240.953 229.192C240.953 229.192 261.175 222.295 264.606 220.064C268.036 217.833 261.491 195.814 261.491 195.814Z" fill="#E66748"/>
<defs>
<linearGradient id="paint0_linear" x1="282.29" y1="47.2064" x2="366.056" y2="47.2064" gradientUnits="userSpaceOnUse">
<stop stop-color="#2C481F"/>
<stop offset="0.01" stop-color="#2C481F"/>
<stop offset="1" stop-color="#56882F"/>
</linearGradient>
<linearGradient id="paint1_linear" x1="280.662" y1="88.6941" x2="319.845" y2="54.5502" gradientUnits="userSpaceOnUse">
<stop stop-color="#2C481F"/>
<stop offset="0.01" stop-color="#2C481F"/>
<stop offset="1" stop-color="#56882F"/>
</linearGradient>
<linearGradient id="paint2_linear" x1="290.329" y1="19.6021" x2="325.389" y2="19.6021" gradientUnits="userSpaceOnUse">
<stop stop-color="#2C481F"/>
<stop offset="0.01" stop-color="#2C481F"/>
<stop offset="1" stop-color="#56882F"/>
</linearGradient>
<linearGradient id="paint3_linear" x1="286.827" y1="62.7658" x2="329.9" y2="32.36" gradientUnits="userSpaceOnUse">
<stop stop-color="#2C481F"/>
<stop offset="0.01" stop-color="#2C481F"/>
<stop offset="1" stop-color="#56882F"/>
</linearGradient>
<linearGradient id="paint4_linear" x1="284.415" y1="60.1369" x2="363.807" y2="60.1369" gradientUnits="userSpaceOnUse">
<stop stop-color="#D5DDD0"/>
<stop offset="0.01" stop-color="#D5DDD0"/>
<stop offset="1" stop-color="#DEE9D1"/>
</linearGradient>
<linearGradient id="paint5_linear" x1="278.194" y1="90.5756" x2="324.323" y2="56.3655" gradientUnits="userSpaceOnUse">
<stop stop-color="#D5DDD0"/>
<stop offset="0.01" stop-color="#D5DDD0"/>
<stop offset="1" stop-color="#DEE9D1"/>
</linearGradient>
<linearGradient id="paint6_linear" x1="290.765" y1="47.2503" x2="329.609" y2="47.2503" gradientUnits="userSpaceOnUse">
<stop stop-color="#D5DDD0"/>
<stop offset="0.01" stop-color="#D5DDD0"/>
<stop offset="1" stop-color="#DEE9D1"/>
</linearGradient>
<linearGradient id="paint7_linear" x1="291.089" y1="59.3561" x2="326.02" y2="55.0365" gradientUnits="userSpaceOnUse">
<stop stop-color="#D5DDD0"/>
<stop offset="0.01" stop-color="#D5DDD0"/>
<stop offset="1" stop-color="#DEE9D1"/>
</linearGradient>
<linearGradient id="paint8_linear" x1="194.356" y1="222.169" x2="65.1054" y2="222.169" gradientUnits="userSpaceOnUse">
<stop stop-color="#FFF9EF"/>
<stop offset="1" stop-color="#FDECF0"/>
</linearGradient>
<linearGradient id="paint9_linear" x1="194.365" y1="229.236" x2="65.0966" y2="229.236" gradientUnits="userSpaceOnUse">
<stop stop-color="#FFF9EF"/>
<stop offset="1" stop-color="#FDECF0"/>
</linearGradient>
<linearGradient id="paint10_linear" x1="194.374" y1="236.304" x2="65.0931" y2="236.304" gradientUnits="userSpaceOnUse">
<stop stop-color="#FFF9EF"/>
<stop offset="1" stop-color="#FDECF0"/>
</linearGradient>
<linearGradient id="paint11_linear" x1="7.59716" y1="248.177" x2="41.648" y2="248.177" gradientUnits="userSpaceOnUse">
<stop stop-color="#3FBCD2"/>
<stop offset="1" stop-color="#375BA6"/>
</linearGradient>
<linearGradient id="paint12_linear" x1="36.117" y1="274.383" x2="76.9765" y2="274.383" gradientUnits="userSpaceOnUse">
<stop stop-color="#3FBCD2"/>
<stop offset="1" stop-color="#375BA6"/>
</linearGradient>
<linearGradient id="paint13_linear" x1="38.6831" y1="280.56" x2="70.5663" y2="280.56" gradientUnits="userSpaceOnUse">
<stop stop-color="#3FBCD2"/>
<stop offset="1" stop-color="#375BA6"/>
</linearGradient>
<linearGradient id="paint14_linear" x1="31.4384" y1="254.908" x2="59.8768" y2="254.908" gradientUnits="userSpaceOnUse">
<stop stop-color="#3FBCD2"/>
<stop offset="1" stop-color="#375BA6"/>
</linearGradient>
<linearGradient id="paint15_linear" x1="18.6523" y1="308.16" x2="52.9112" y2="308.16" gradientUnits="userSpaceOnUse">
<stop stop-color="#F67823"/>
<stop offset="1" stop-color="#FFC120"/>
</linearGradient>
<linearGradient id="paint16_linear" x1="18.6523" y1="308.16" x2="52.9121" y2="308.16" gradientUnits="userSpaceOnUse">
<stop stop-color="#BC581B"/>
<stop offset="1" stop-color="#FFC120"/>
</linearGradient>
<linearGradient id="paint17_linear" x1="98.9857" y1="32.9877" x2="71.0093" y2="32.9877" gradientUnits="userSpaceOnUse">
<stop stop-color="#3FBCD2"/>
<stop offset="1" stop-color="#375BA6"/>
</linearGradient>
<linearGradient id="paint18_linear" x1="98.4761" y1="87.7799" x2="240.62" y2="87.7799" gradientUnits="userSpaceOnUse">
<stop stop-color="#FFAE3D"/>
<stop offset="1" stop-color="#E6133F"/>
</linearGradient>
<linearGradient id="paint19_linear" x1="98.4751" y1="83.9291" x2="240.687" y2="83.9291" gradientUnits="userSpaceOnUse">
<stop stop-color="#3FBCD2"/>
<stop offset="1" stop-color="#375BA6"/>
</linearGradient>
</defs>
</svg>
