<svg width="74" height="73" viewBox="0 0 74 73" fill="none" xmlns="http://www.w3.org/2000/svg">
<path d="M46.832 18.9632C47.6409 18.9642 48.4264 18.6919 49.0612 18.1905C49.6959 17.6892 50.1427 16.9881 50.329 16.2009C50.5154 15.4138 50.4303 14.5868 50.0877 13.8541C49.7451 13.1213 49.1651 12.5258 48.4416 12.1641C47.7181 11.8023 46.8936 11.6956 46.1019 11.8612C45.3101 12.0267 44.5975 12.4549 44.0796 13.0762C43.5617 13.6976 43.2689 14.4757 43.2487 15.2843C43.2284 16.0929 43.4819 16.8847 43.968 17.5312L38.078 25.7612C37.4695 25.5611 36.8184 25.5283 36.1929 25.666C35.5673 25.8038 34.9903 26.107 34.522 26.5442L30.596 24.3162C30.7092 23.7931 30.7037 23.2514 30.5802 22.7307C30.4567 22.2101 30.2181 21.7237 29.8821 21.3072C29.5461 20.8907 29.1211 20.5548 28.6383 20.324C28.1555 20.0932 27.6272 19.9734 27.092 19.9734C26.5569 19.9734 26.0286 20.0932 25.5458 20.324C25.063 20.5548 24.638 20.8907 24.302 21.3072C23.966 21.7237 23.7274 22.2101 23.6039 22.7307C23.4804 23.2514 23.4749 23.7931 23.588 24.3162L19.662 26.5442C19.0354 25.9626 18.2212 25.6246 17.367 25.5912C16.5127 25.5579 15.6747 25.8315 15.0046 26.3625C14.3346 26.8934 13.8767 27.6468 13.7139 28.486C13.5511 29.3253 13.6942 30.1952 14.1171 30.9382C14.5401 31.6811 15.2151 32.2482 16.0199 32.5366C16.8247 32.8251 17.7062 32.8159 18.5048 32.5108C19.3034 32.2057 19.9665 31.6247 20.3739 30.8731C20.7813 30.1215 20.9062 29.2489 20.726 28.4132L24.652 26.1852C25.3142 26.8032 26.1863 27.1469 27.092 27.1469C27.9978 27.1469 28.8699 26.8032 29.532 26.1852L33.458 28.4132C33.3313 29.0002 33.354 29.6097 33.5242 30.1857C33.6944 30.7617 34.0066 31.2856 34.4321 31.7095C34.8575 32.1334 35.3827 32.4436 35.9593 32.6116C36.5359 32.7797 37.1455 32.8001 37.7321 32.6712C38.3186 32.5422 38.8634 32.268 39.3164 31.8736C39.7693 31.4792 40.116 30.9774 40.3244 30.4141C40.5329 29.8508 40.5965 29.2442 40.5094 28.65C40.4223 28.0558 40.1873 27.4929 39.826 27.0132L45.716 18.7832C46.0761 18.902 46.4528 18.9628 46.832 18.9632ZM46.832 13.9442C47.1157 13.9442 47.3929 14.0283 47.6287 14.1858C47.8646 14.3434 48.0483 14.5674 48.1569 14.8294C48.2654 15.0914 48.2938 15.3797 48.2385 15.6579C48.1832 15.9361 48.0466 16.1916 47.846 16.3921C47.6455 16.5927 47.39 16.7293 47.1118 16.7846C46.8336 16.8399 46.5453 16.8115 46.2833 16.703C46.0212 16.5945 45.7973 16.4107 45.6397 16.1748C45.4821 15.939 45.398 15.6618 45.398 15.3782C45.3988 14.9982 45.5502 14.634 45.819 14.3654C46.0878 14.0968 46.4521 13.9457 46.832 13.9452V13.9442ZM17.22 30.6022C16.9364 30.6022 16.6592 30.5181 16.4234 30.3605C16.1875 30.2029 16.0037 29.979 15.8952 29.7169C15.7867 29.4549 15.7583 29.1666 15.8136 28.8884C15.8689 28.6102 16.0055 28.3547 16.2061 28.1542C16.4066 27.9536 16.6621 27.817 16.9403 27.7617C17.2185 27.7064 17.5068 27.7348 17.7688 27.8433C18.0308 27.9518 18.2548 28.1357 18.4124 28.3715C18.5699 28.6073 18.654 28.8845 18.654 29.1682C18.6535 29.5483 18.5023 29.9128 18.2335 30.1816C17.9646 30.4504 17.6002 30.6016 17.22 30.6022ZM27.09 25.0022C26.8064 25.0022 26.5292 24.9181 26.2934 24.7605C26.0575 24.6029 25.8737 24.379 25.7652 24.1169C25.6567 23.8549 25.6283 23.5666 25.6836 23.2884C25.7389 23.0102 25.8755 22.7547 26.0761 22.5542C26.2766 22.3536 26.5321 22.217 26.8103 22.1617C27.0884 22.1064 27.3768 22.1348 27.6388 22.2433C27.9008 22.3518 28.1248 22.5357 28.2824 22.7715C28.4399 23.0073 28.524 23.2845 28.524 23.5682C28.5225 23.9473 28.371 24.3104 28.1028 24.5783C27.8345 24.8462 27.4712 24.9971 27.092 24.9982L27.09 25.0022ZM36.96 30.6022C36.6764 30.6022 36.3992 30.5181 36.1634 30.3605C35.9275 30.2029 35.7437 29.979 35.6352 29.7169C35.5267 29.4549 35.4983 29.1666 35.5536 28.8884C35.6089 28.6102 35.7455 28.3547 35.9461 28.1542C36.1466 27.9536 36.4021 27.817 36.6803 27.7617C36.9585 27.7064 37.2468 27.7348 37.5088 27.8433C37.7708 27.9518 37.9948 28.1357 38.1524 28.3715C38.3099 28.6073 38.394 28.8845 38.394 29.1682C38.3935 29.548 38.2425 29.9121 37.9742 30.1809C37.7058 30.4496 37.3419 30.6011 36.962 30.6022H36.96Z" fill="url(#paint0_linear)"/>
<path d="M60.049 53.9362H3.042C2.80577 53.9359 2.5793 53.842 2.41226 53.6749C2.24522 53.5079 2.15126 53.2814 2.151 53.0452V8.67921C2.15126 8.44298 2.24522 8.2165 2.41226 8.04947C2.5793 7.88243 2.80577 7.78847 3.042 7.7882H8.112C8.39724 7.7882 8.6708 7.67489 8.87249 7.4732C9.07419 7.2715 9.1875 6.99795 9.1875 6.71271C9.1875 6.42747 9.07419 6.15391 8.87249 5.95221C8.6708 5.75052 8.39724 5.63721 8.112 5.63721H3.042C2.23546 5.638 1.46217 5.95875 0.891858 6.52906C0.321545 7.09938 0.000794235 7.87266 0 8.67921L0 53.0452C0.000794235 53.8518 0.321545 54.625 0.891858 55.1953C1.46217 55.7657 2.23546 56.0864 3.042 56.0872H10.457V58.4542C10.4578 59.1021 10.7154 59.7232 11.1733 60.1815C11.6312 60.6398 12.2521 60.8979 12.9 60.8992H23.666L18.6 70.7922C18.47 71.046 18.4462 71.3411 18.5338 71.6124C18.6214 71.8838 18.8132 72.1093 19.067 72.2392C19.3208 72.3692 19.6159 72.393 19.8872 72.3054C20.1586 72.2178 20.384 72.026 20.514 71.7722L26.083 60.8982H37.973L43.542 71.7722C43.6063 71.8979 43.6948 72.0097 43.8024 72.1011C43.9099 72.1926 44.0344 72.262 44.1688 72.3054C44.3031 72.3488 44.4447 72.3652 44.5855 72.3539C44.7262 72.3425 44.8633 72.3036 44.989 72.2392C45.1147 72.1749 45.2264 72.0864 45.3179 71.9789C45.4094 71.8713 45.4788 71.7468 45.5222 71.6124C45.5655 71.4781 45.582 71.3365 45.5707 71.1957C45.5593 71.055 45.5203 70.9179 45.456 70.7922L40.389 60.8992H51.153C51.8017 60.8989 52.4238 60.6412 52.8826 60.1826C53.3415 59.7239 53.5995 59.1019 53.6 58.4532V56.0872H60.05C60.3352 56.0872 60.6088 55.9739 60.8105 55.7722C61.0122 55.5705 61.1255 55.2969 61.1255 55.0117C61.1255 54.7265 61.0122 54.4529 60.8105 54.2512C60.6088 54.0495 60.3352 53.9362 60.05 53.9362H60.049ZM51.449 58.4532C51.4475 58.5307 51.416 58.6046 51.3612 58.6594C51.3064 58.7142 51.2325 58.7457 51.155 58.7472H12.9C12.8225 58.7457 12.7486 58.7142 12.6938 58.6594C12.639 58.6046 12.6075 58.5307 12.606 58.4532V56.0872H51.446L51.449 58.4532Z" fill="url(#paint1_linear)"/>
<path d="M12.4129 7.78724H61.0129C61.2491 7.78751 61.4756 7.88146 61.6426 8.0485C61.8097 8.21554 61.9036 8.44202 61.9039 8.67824V18.9042C61.9039 19.1895 62.0172 19.463 62.2189 19.6647C62.4206 19.8664 62.6942 19.9797 62.9794 19.9797C63.2646 19.9797 63.5382 19.8664 63.7399 19.6647C63.9416 19.463 64.0549 19.1895 64.0549 18.9042V8.67924C64.0541 7.8727 63.7334 7.09941 63.163 6.5291C62.5927 5.95879 61.8194 5.63804 61.0129 5.63724H37.9969V3.52324C37.9969 2.80716 37.7124 2.1204 37.2061 1.61405C36.6997 1.10771 36.013 0.823242 35.2969 0.823242H28.7579C28.0418 0.823242 27.3551 1.10771 26.8487 1.61405C26.3424 2.1204 26.0579 2.80716 26.0579 3.52324V5.63724H12.4129C12.1277 5.63724 11.8541 5.75055 11.6524 5.95225C11.4507 6.15394 11.3374 6.4275 11.3374 6.71274C11.3374 6.99798 11.4507 7.27154 11.6524 7.47324C11.8541 7.67493 12.1277 7.78824 12.4129 7.78824V7.78724ZM28.2129 3.52224C28.2132 3.37725 28.2709 3.23827 28.3734 3.13575C28.4759 3.03322 28.6149 2.97551 28.7599 2.97524H35.3009C35.4459 2.97551 35.5849 3.03322 35.6874 3.13575C35.7899 3.23827 35.8476 3.37725 35.8479 3.52224V5.63724H28.2099V3.52324L28.2129 3.52224Z" fill="url(#paint2_linear)"/>
<path d="M15.0408 38.2515C14.7557 38.2515 14.4823 38.3647 14.2807 38.5663C14.0791 38.7679 13.9658 39.0414 13.9658 39.3265V48.8265C13.9658 49.1116 14.0791 49.385 14.2807 49.5866C14.4823 49.7882 14.7557 49.9015 15.0408 49.9015H19.4038C19.6889 49.9015 19.9624 49.7882 20.164 49.5866C20.3656 49.385 20.4788 49.1116 20.4788 48.8265V39.3265C20.4788 39.0414 20.3656 38.7679 20.164 38.5663C19.9624 38.3647 19.6889 38.2515 19.4038 38.2515H15.0408ZM18.3278 47.7515H16.1168V40.3995H18.3288L18.3278 47.7515Z" fill="url(#paint3_linear)"/>
<path d="M24.9109 32.7554C24.6258 32.7554 24.3524 32.8686 24.1508 33.0702C23.9492 33.2718 23.8359 33.5453 23.8359 33.8304V48.8304C23.8359 49.1155 23.9492 49.3889 24.1508 49.5905C24.3524 49.7921 24.6258 49.9054 24.9109 49.9054H29.2739C29.559 49.9054 29.8325 49.7921 30.0341 49.5905C30.2357 49.3889 30.3489 49.1155 30.3489 48.8304V33.8304C30.3489 33.5453 30.2357 33.2718 30.0341 33.0702C29.8325 32.8686 29.559 32.7554 29.2739 32.7554H24.9109ZM28.1989 47.7554H25.9869V34.9074H28.1989V47.7554Z" fill="url(#paint4_linear)"/>
<path d="M34.7811 38.2515C34.4959 38.2515 34.2225 38.3647 34.0209 38.5663C33.8193 38.7679 33.7061 39.0414 33.7061 39.3265V48.8265C33.7061 49.1116 33.8193 49.385 34.0209 49.5866C34.2225 49.7882 34.4959 49.9015 34.7811 49.9015H39.1441C39.4292 49.9015 39.7026 49.7882 39.9042 49.5866C40.1058 49.385 40.2191 49.1116 40.2191 48.8265V39.3265C40.2191 39.0414 40.1058 38.7679 39.9042 38.5663C39.7026 38.3647 39.4292 38.2515 39.1441 38.2515H34.7811ZM38.0681 47.7515H35.8561V40.3995H38.0681V47.7515Z" fill="url(#paint5_linear)"/>
<path d="M44.6512 44.5972C44.3661 44.5972 44.0926 44.7104 43.891 44.912C43.6894 45.1136 43.5762 45.3871 43.5762 45.6722V48.8292C43.5762 49.1143 43.6894 49.3877 43.891 49.5893C44.0926 49.7909 44.3661 49.9042 44.6512 49.9042H49.0142C49.2994 49.9042 49.573 49.7909 49.7747 49.5892C49.9764 49.3875 50.0897 49.1139 50.0897 48.8287C50.0897 48.5434 49.9764 48.2699 49.7747 48.0682C49.573 47.8665 49.2994 47.7532 49.0142 47.7532H45.7272V45.6712C45.727 45.53 45.6991 45.3902 45.645 45.2599C45.5908 45.1295 45.5115 45.011 45.4116 44.9113C45.3117 44.8116 45.1931 44.7325 45.0626 44.6786C44.9321 44.6247 44.7924 44.597 44.6512 44.5972Z" fill="url(#paint6_linear)"/>
<path d="M72.8651 54.9471L66.6961 44.2611C68.7992 42.0163 70.1083 39.144 70.4229 36.0841C70.7374 33.0242 70.04 29.9455 68.4376 27.3199C66.8351 24.6942 64.416 22.6664 61.5508 21.5471C58.6856 20.4278 55.5325 20.2788 52.5745 21.1228C49.6166 21.9669 47.017 23.7576 45.174 26.2204C43.3311 28.6832 42.3465 31.6824 42.3711 34.7583C42.3956 37.8343 43.428 40.8173 45.3101 43.2504C47.1921 45.6835 49.82 47.4323 52.7911 48.2291C53.9849 48.5502 55.2158 48.7132 56.452 48.7141C57.5179 48.714 58.5803 48.5912 59.6181 48.3481L65.7861 59.0341C66.0545 59.499 66.4118 59.9066 66.8378 60.2334C67.2637 60.5602 67.7498 60.8 68.2684 60.9389C68.7869 61.0779 69.3278 61.1134 69.8601 61.0433C70.3923 60.9732 70.9056 60.799 71.3706 60.5306C71.8355 60.2622 72.243 59.9048 72.5699 59.4789C72.8967 59.053 73.1364 58.5668 73.2754 58.0483C73.4144 57.5297 73.4498 56.9888 73.3798 56.4566C73.3097 55.9243 73.1355 55.411 72.8671 54.9461L72.8651 54.9471ZM53.3471 46.1471C50.688 45.4341 48.3584 43.8213 46.7551 41.5833C45.1519 39.3454 44.3741 36.6207 44.5544 33.8737C44.7347 31.1266 45.8619 28.527 47.744 26.5178C49.626 24.5086 52.1465 23.2141 54.8759 22.8548C57.6053 22.4956 60.3749 23.0937 62.7128 24.5475C65.0506 26.0012 66.8121 28.2206 67.6972 30.8274C68.5822 33.4343 68.536 36.2673 67.5665 38.844C66.597 41.4206 64.7641 43.5813 62.3801 44.9581C61.0275 45.7451 59.5322 46.2559 57.9807 46.4608C56.4293 46.6658 54.8526 46.5608 53.3421 46.1521L53.3471 46.1471ZM70.2941 58.6631C69.849 58.9194 69.3205 58.9887 68.8244 58.8558C68.3284 58.7229 67.9053 58.3986 67.6481 57.9541L61.7141 47.6731C62.9155 47.1842 64.0437 46.5321 65.0671 45.7351L71.0021 56.0261C71.1295 56.2463 71.2123 56.4895 71.2456 56.7418C71.279 56.994 71.2622 57.2504 71.1964 57.4961C71.1305 57.7419 71.0168 57.9723 70.8618 58.1741C70.7068 58.3759 70.5135 58.5451 70.2931 58.6721L70.2941 58.6631Z" fill="url(#paint7_linear)"/>
<path d="M66.1781 37.6831C66.9381 35.2488 66.7564 32.6179 65.6691 30.3111C65.5475 30.0531 65.3283 29.8539 65.0599 29.7574C64.7914 29.6609 64.4956 29.675 64.2376 29.7966C63.9795 29.9182 63.7803 30.1374 63.6838 30.4058C63.5874 30.6743 63.6015 30.9701 63.7231 31.2281C64.5586 33.01 64.7129 35.036 64.1569 36.9238C63.6009 38.8116 62.373 40.4306 60.705 41.475C59.037 42.5195 57.0444 42.9172 55.1033 42.593C53.1622 42.2688 51.4069 41.2453 50.1688 39.7155C48.9307 38.1857 48.2955 36.2557 48.3831 34.2896C48.4707 32.3236 49.275 30.4576 50.6441 29.044C52.0133 27.6303 53.8527 26.7669 55.8149 26.6166C57.7772 26.4663 59.7265 27.0395 61.2951 28.2281C61.4077 28.3135 61.536 28.3758 61.6727 28.4116C61.8094 28.4474 61.9518 28.4559 62.0918 28.4366C62.2318 28.4173 62.3666 28.3707 62.4885 28.2993C62.6105 28.2279 62.7172 28.1332 62.8026 28.0206C62.8879 27.908 62.9503 27.7797 62.986 27.643C63.0218 27.5063 63.0303 27.3639 63.011 27.2239C62.9918 27.0839 62.9451 26.9491 62.8737 26.8271C62.8024 26.7052 62.7077 26.5985 62.5951 26.5131C60.8647 25.2022 58.7616 24.4768 56.591 24.4422C54.4204 24.4076 52.2952 25.0657 50.524 26.3208C48.7527 27.576 47.4276 29.3629 46.7408 31.4223C46.054 33.4817 46.0414 35.7063 46.7047 37.7734C47.3681 39.8404 48.6729 41.6423 50.4298 42.9175C52.1867 44.1926 54.3042 44.8748 56.4751 44.8648C58.646 44.8549 60.7572 44.1534 62.5023 42.8621C64.2474 41.5709 65.5357 39.7572 66.1801 37.6841L66.1781 37.6831Z" fill="url(#paint8_linear)"/>
<defs>
<linearGradient id="paint0_linear" x1="21.7762" y1="14.2596" x2="27.316" y2="40.2526" gradientUnits="userSpaceOnUse">
<stop stop-color="#3D668D"/>
<stop offset="1" stop-color="#0A2F53"/>
</linearGradient>
<linearGradient id="paint1_linear" x1="13.5087" y1="13.5102" x2="43.7504" y2="87.6315" gradientUnits="userSpaceOnUse">
<stop stop-color="#3D668D"/>
<stop offset="1" stop-color="#0A2F53"/>
</linearGradient>
<linearGradient id="paint2_linear" x1="22.988" y1="3.08371" x2="26.2987" y2="27.4582" gradientUnits="userSpaceOnUse">
<stop stop-color="#3D668D"/>
<stop offset="1" stop-color="#0A2F53"/>
</linearGradient>
<linearGradient id="paint3_linear" x1="15.4052" y1="39.6262" x2="22.3807" y2="50.059" gradientUnits="userSpaceOnUse">
<stop stop-color="#3D668D"/>
<stop offset="1" stop-color="#0A2F53"/>
</linearGradient>
<linearGradient id="paint4_linear" x1="25.2753" y1="34.7791" x2="36.3859" y2="46.0673" gradientUnits="userSpaceOnUse">
<stop stop-color="#3D668D"/>
<stop offset="1" stop-color="#0A2F53"/>
</linearGradient>
<linearGradient id="paint5_linear" x1="35.1454" y1="39.6262" x2="42.121" y2="50.059" gradientUnits="userSpaceOnUse">
<stop stop-color="#3D668D"/>
<stop offset="1" stop-color="#0A2F53"/>
</linearGradient>
<linearGradient id="paint6_linear" x1="45.0157" y1="45.2234" x2="46.9323" y2="51.5168" gradientUnits="userSpaceOnUse">
<stop stop-color="#3D668D"/>
<stop offset="1" stop-color="#0A2F53"/>
</linearGradient>
<linearGradient id="paint7_linear" x1="49.2314" y1="25.3614" x2="69.9035" y2="67.7582" gradientUnits="userSpaceOnUse">
<stop stop-color="#3D668D"/>
<stop offset="1" stop-color="#0A2F53"/>
</linearGradient>
<linearGradient id="paint8_linear" x1="50.7301" y1="26.8509" x2="59.4102" y2="50.0731" gradientUnits="userSpaceOnUse">
<stop stop-color="#3D668D"/>
<stop offset="1" stop-color="#0A2F53"/>
</linearGradient>
</defs>
</svg>
