<svg width="78" height="79" viewBox="0 0 78 79" fill="none" xmlns="http://www.w3.org/2000/svg">
<path d="M77.9138 65.241V55.791L74.2939 54.866C74.2689 54.805 74.2438 54.744 74.2178 54.683L76.1228 51.471L69.4409 44.789L66.2289 46.694L66.0458 46.618L65.1228 43.001H55.6729L54.7478 46.621L54.5648 46.697L51.3528 44.792L44.6708 51.474L46.5758 54.686C46.5498 54.748 46.5248 54.809 46.4998 54.869L42.8818 55.794V65.243L46.5018 66.168C46.5268 66.229 46.5519 66.29 46.5779 66.351L44.6729 69.562L51.3548 76.244L54.5668 74.339L54.7498 74.415L55.6748 78.033H65.1238L66.0488 74.413L66.2318 74.337L69.4428 76.242L76.1248 69.56L74.2198 66.348C74.2458 66.286 74.2708 66.225 74.2958 66.165L77.9138 65.241ZM72.9808 69.166L69.0468 73.1L66.3728 71.513L65.7729 71.801C65.384 71.986 64.9857 72.1509 64.5798 72.295L63.9498 72.519L63.1819 75.531H57.6178L56.8499 72.519L56.2198 72.295C55.8138 72.1522 55.4159 71.9872 55.0278 71.801L54.4279 71.513L51.7538 73.1L47.8199 69.166L49.4059 66.492L49.1178 65.892C48.9328 65.5031 48.7679 65.1049 48.6238 64.699L48.3998 64.069L45.3828 63.301V57.737L48.3948 56.969L48.6188 56.339C48.7616 55.9326 48.9265 55.5343 49.1129 55.146L49.4008 54.546L47.8138 51.872L51.7478 47.938L54.4218 49.524L55.0219 49.236C55.4108 49.0509 55.8089 48.886 56.2148 48.742L56.8448 48.518L57.6129 45.505H63.1828L63.9508 48.517L64.5818 48.741C64.9879 48.8838 65.3858 49.0487 65.7738 49.235L66.3738 49.523L69.0479 47.936L72.9818 51.87L71.3958 54.544L71.6838 55.144C71.8689 55.5329 72.0338 55.9311 72.1779 56.337L72.4019 56.967L75.4149 57.735V63.301L72.4028 64.069L72.1788 64.699C72.036 65.105 71.8711 65.503 71.6848 65.891L71.3969 66.491L72.9808 69.166Z" fill="url(#paint0_linear)"/>
<path d="M60.3987 50.5078C58.4191 50.5078 56.4839 51.0948 54.838 52.1946C53.192 53.2944 51.9091 54.8576 51.1516 56.6865C50.394 58.5154 50.1958 60.5279 50.582 62.4695C50.9682 64.411 51.9214 66.1945 53.3212 67.5942C54.721 68.994 56.5044 69.9473 58.446 70.3335C60.3875 70.7197 62.4 70.5215 64.2289 69.7639C66.0578 69.0064 67.621 67.7235 68.7208 66.0775C69.8206 64.4315 70.4077 62.4964 70.4077 60.5168C70.4045 57.8632 69.3489 55.3193 67.4726 53.4429C65.5962 51.5665 63.0522 50.511 60.3987 50.5078ZM60.3987 68.0238C58.9139 68.0238 57.4625 67.5835 56.228 66.7587C54.9935 65.9338 54.0313 64.7613 53.4631 63.3896C52.8949 62.0179 52.7462 60.5085 53.0359 59.0523C53.3255 57.5961 54.0405 56.2584 55.0904 55.2086C56.1403 54.1587 57.4779 53.4437 58.9341 53.1541C60.3903 52.8644 61.8997 53.0131 63.2715 53.5812C64.6432 54.1494 65.8156 55.1116 66.6405 56.3462C67.4654 57.5807 67.9056 59.0321 67.9056 60.5168C67.9038 62.5072 67.1123 64.4156 65.7049 65.823C64.2974 67.2305 62.3891 68.0219 60.3987 68.0238Z" fill="url(#paint1_linear)"/>
<path d="M60.3945 55.5127C59.4056 55.5127 58.4389 55.8059 57.6167 56.3553C56.7944 56.9048 56.1536 57.6856 55.7751 58.5993C55.3967 59.5129 55.2977 60.5183 55.4906 61.4882C55.6835 62.4581 56.1597 63.349 56.859 64.0482C57.5583 64.7475 58.4492 65.2237 59.4191 65.4166C60.389 65.6096 61.3943 65.5105 62.308 65.1321C63.2216 64.7536 64.0025 64.1128 64.5519 63.2906C65.1013 62.4683 65.3945 61.5016 65.3945 60.5127C65.3922 59.1873 64.8646 57.917 63.9274 56.9798C62.9903 56.0426 61.7199 55.5151 60.3945 55.5127ZM60.3945 63.0197C59.9001 63.0197 59.4167 62.8731 59.0056 62.5984C58.5945 62.3237 58.2741 61.9332 58.0848 61.4764C57.8956 61.0196 57.8461 60.5169 57.9426 60.032C58.039 59.547 58.2771 59.1016 58.6268 58.7519C58.9764 58.4023 59.4218 58.1642 59.9068 58.0677C60.3918 57.9713 60.8944 58.0208 61.3512 58.21C61.808 58.3992 62.1985 58.7196 62.4732 59.1308C62.7479 59.5419 62.8945 60.0252 62.8945 60.5197C62.8945 61.1827 62.6311 61.8186 62.1623 62.2875C61.6935 62.7563 61.0576 63.0197 60.3945 63.0197Z" fill="url(#paint2_linear)"/>
<path d="M32.0297 21.6467C32.4476 22.8633 33.1707 23.9523 34.1297 24.8097V25.8707L28.1807 28.1007C26.9887 28.5504 25.9616 29.3519 25.2356 30.3988C24.5096 31.4458 24.1191 32.6887 24.1157 33.9627V40.5037H54.1427V33.9627C54.1386 32.6902 53.7484 31.4488 53.0236 30.4029C52.2989 29.3569 51.2737 28.5555 50.0837 28.1047L44.1337 25.8747V24.8147C45.0934 23.9579 45.8166 22.8687 46.2337 21.6517C47.3959 21.4536 48.4507 20.8513 49.2118 19.9511C49.973 19.0508 50.3916 17.9106 50.3937 16.7317V11.7317C50.3937 8.74534 49.2074 5.88132 47.0957 3.76966C44.9841 1.658 42.1201 0.47168 39.1337 0.47168C36.1474 0.47168 33.2834 1.658 31.1717 3.76966C29.06 5.88132 27.8737 8.74534 27.8737 11.7317V16.7317C27.8768 17.9091 28.2954 19.0477 29.0557 19.9468C29.816 20.846 30.8692 21.4479 32.0297 21.6467ZM41.6297 26.3897L39.1297 30.5597L36.6297 26.3897V26.2977C38.2454 26.8806 40.014 26.8806 41.6297 26.2977V26.3897ZM34.8367 28.2737L37.3587 32.4737L34.8527 33.7257L33.2337 28.8717L34.8367 28.2737ZM51.6367 33.9577V37.9967H26.6157V33.9627C26.618 33.199 26.8521 32.454 27.2871 31.8263C27.7221 31.1987 28.3375 30.7179 29.0517 30.4477L30.8907 29.7587L33.3907 37.2587L39.1257 34.3907L44.8607 37.2587L47.3607 29.7587L49.2017 30.4487C49.9155 30.7189 50.5303 31.1994 50.965 31.8267C51.3996 32.454 51.6335 33.1985 51.6357 33.9617L51.6367 33.9577ZM45.0177 28.8747L43.3987 33.7297L40.8927 32.4777L43.4147 28.2777L45.0177 28.8747ZM39.1247 24.2347C37.7994 24.2323 36.529 23.7048 35.5918 22.7676C34.6546 21.8304 34.1271 20.56 34.1247 19.2347V14.1397C35.9469 13.9591 37.6806 13.2656 39.1247 12.1397C40.5685 13.2661 42.3024 13.9597 44.1247 14.1397V19.2287C44.1237 20.554 43.5974 21.8249 42.6612 22.7631C41.7249 23.7012 40.4551 24.23 39.1297 24.2337L39.1247 24.2347ZM46.6317 18.8827V14.5737C47.0117 14.7905 47.3275 15.1039 47.5472 15.4822C47.7669 15.8605 47.8826 16.2902 47.8826 16.7277C47.8826 17.1651 47.7669 17.5948 47.5472 17.9731C47.3275 18.3514 47.0117 18.6649 46.6317 18.8817V18.8827ZM39.1297 2.96268C41.4516 2.96559 43.6775 3.88924 45.3194 5.53105C46.9612 7.17287 47.8848 9.39881 47.8877 11.7207V12.4207C47.1315 11.9691 46.2685 11.7274 45.3877 11.7207H45.1727C44.2147 11.7239 43.2656 11.5369 42.3803 11.1706C41.4951 10.8043 40.6914 10.2659 40.0157 9.58668L39.1307 8.70068L38.2457 9.58668C37.5703 10.266 36.7668 10.8046 35.8817 11.1713C34.9967 11.538 34.0477 11.7254 33.0897 11.7227H32.8747C31.994 11.7294 31.1309 11.9711 30.3747 12.4227V11.7227C30.3771 9.40098 31.3001 7.17498 32.9413 5.53282C34.5826 3.89066 36.808 2.96639 39.1297 2.96268ZM31.6227 14.5727V18.8807C31.2428 18.6639 30.9269 18.3504 30.7072 17.9721C30.4875 17.5938 30.3718 17.1641 30.3718 16.7267C30.3718 16.2892 30.4875 15.8595 30.7072 15.4812C30.9269 15.1029 31.2428 14.7895 31.6227 14.5727Z" fill="url(#paint3_linear)"/>
<path d="M0.344727 78.0329H25.3677V45.5039H0.344727V78.0329ZM2.84473 48.0039H22.8647V75.5289H2.84473V48.0039Z" fill="url(#paint4_linear)"/>
<path d="M5.34961 50.5078H20.3636V53.0078H5.34961V50.5078Z" fill="url(#paint5_linear)"/>
<path d="M5.34961 55.5127H7.84961V58.0127H5.34961V55.5127Z" fill="url(#paint6_linear)"/>
<path d="M10.3535 55.5127H20.3625V58.0127H10.3535V55.5127Z" fill="url(#paint7_linear)"/>
<path d="M5.34961 60.5171H20.3636V63.0171H5.34961V60.5171Z" fill="url(#paint8_linear)"/>
<path d="M5.34961 65.522H20.3636V68.022H5.34961V65.522Z" fill="url(#paint9_linear)"/>
<path d="M17.8608 70.5259H20.3608V73.0259H17.8608V70.5259Z" fill="url(#paint10_linear)"/>
<path d="M5.34961 70.5259H15.3586V73.0259H5.34961V70.5259Z" fill="url(#paint11_linear)"/>
<path d="M33.7576 56.3969L31.9886 54.6279L26.0996 60.5169L31.9886 66.4059L33.7576 64.6369L30.8886 61.7679H40.3796V59.2679H30.8886L33.7576 56.3969Z" fill="url(#paint12_linear)"/>
<path d="M14.1045 20.4808C14.105 20.1492 14.237 19.8313 14.4715 19.5968C14.706 19.3623 15.0239 19.2304 15.3555 19.2298H21.0935L18.2245 22.0988L19.9935 23.8678L25.8825 17.9788L19.9935 12.0898L18.2245 13.8588L21.0935 16.7278H15.3575C14.3625 16.7292 13.4087 17.125 12.7052 17.8285C12.0016 18.5321 11.6058 19.4859 11.6045 20.4808V43.0008H14.1045V20.4808Z" fill="url(#paint13_linear)"/>
<path d="M60.3986 20.481V36.228L57.5296 33.359L55.7606 35.128L61.6496 41.017L67.5386 35.128L65.7696 33.359L62.9006 36.228V20.481C62.8993 19.4861 62.5035 18.5323 61.7999 17.8287C61.0964 17.1252 60.1426 16.7294 59.1476 16.728H52.8916V19.228H59.1476C59.4796 19.2286 59.7978 19.3608 60.0323 19.5957C60.2669 19.8307 60.3986 20.1491 60.3986 20.481Z" fill="url(#paint14_linear)"/>
<defs>
<linearGradient id="paint0_linear" x1="41.6907" y1="46.1889" x2="79.8056" y2="82.3069" gradientUnits="userSpaceOnUse">
<stop stop-color="#0A2F53"/>
<stop offset="1" stop-color="#4F779E"/>
</linearGradient>
<linearGradient id="paint1_linear" x1="49.709" y1="52.3295" x2="71.4886" y2="72.968" gradientUnits="userSpaceOnUse">
<stop stop-color="#0A2F53"/>
<stop offset="1" stop-color="#4F779E"/>
</linearGradient>
<linearGradient id="paint2_linear" x1="55.0545" y1="56.4227" x2="65.9345" y2="66.7327" gradientUnits="userSpaceOnUse">
<stop stop-color="#0A2F53"/>
<stop offset="1" stop-color="#4F779E"/>
</linearGradient>
<linearGradient id="paint3_linear" x1="23.0948" y1="4.11459" x2="64.2887" y2="33.3943" gradientUnits="userSpaceOnUse">
<stop stop-color="#0A2F53"/>
<stop offset="1" stop-color="#4F779E"/>
</linearGradient>
<linearGradient id="paint4_linear" x1="-0.506056" y1="48.464" x2="33.2364" y2="73.0606" gradientUnits="userSpaceOnUse">
<stop stop-color="#0A2F53"/>
<stop offset="1" stop-color="#4F779E"/>
</linearGradient>
<linearGradient id="paint5_linear" x1="4.83913" y1="50.7353" x2="5.76775" y2="56.02" gradientUnits="userSpaceOnUse">
<stop stop-color="#0A2F53"/>
<stop offset="1" stop-color="#4F779E"/>
</linearGradient>
<linearGradient id="paint6_linear" x1="5.26461" y1="55.7402" x2="7.98461" y2="58.3177" gradientUnits="userSpaceOnUse">
<stop stop-color="#0A2F53"/>
<stop offset="1" stop-color="#4F779E"/>
</linearGradient>
<linearGradient id="paint7_linear" x1="10.0132" y1="55.7402" x2="11.3559" y2="60.8342" gradientUnits="userSpaceOnUse">
<stop stop-color="#0A2F53"/>
<stop offset="1" stop-color="#4F779E"/>
</linearGradient>
<linearGradient id="paint8_linear" x1="4.83913" y1="60.7446" x2="5.76775" y2="66.0293" gradientUnits="userSpaceOnUse">
<stop stop-color="#0A2F53"/>
<stop offset="1" stop-color="#4F779E"/>
</linearGradient>
<linearGradient id="paint9_linear" x1="4.83913" y1="65.7495" x2="5.76775" y2="71.0342" gradientUnits="userSpaceOnUse">
<stop stop-color="#0A2F53"/>
<stop offset="1" stop-color="#4F779E"/>
</linearGradient>
<linearGradient id="paint10_linear" x1="17.7758" y1="70.7534" x2="20.4958" y2="73.3309" gradientUnits="userSpaceOnUse">
<stop stop-color="#0A2F53"/>
<stop offset="1" stop-color="#4F779E"/>
</linearGradient>
<linearGradient id="paint11_linear" x1="5.0093" y1="70.7534" x2="6.35199" y2="75.8473" gradientUnits="userSpaceOnUse">
<stop stop-color="#0A2F53"/>
<stop offset="1" stop-color="#4F779E"/>
</linearGradient>
<linearGradient id="paint12_linear" x1="25.6141" y1="55.6997" x2="38.3245" y2="70.3028" gradientUnits="userSpaceOnUse">
<stop stop-color="#0A2F53"/>
<stop offset="1" stop-color="#4F779E"/>
</linearGradient>
<linearGradient id="paint13_linear" x1="11.119" y1="14.9027" x2="35.8624" y2="25.7331" gradientUnits="userSpaceOnUse">
<stop stop-color="#0A2F53"/>
<stop offset="1" stop-color="#4F779E"/>
</linearGradient>
<linearGradient id="paint14_linear" x1="52.3936" y1="18.9383" x2="75.1941" y2="31.9674" gradientUnits="userSpaceOnUse">
<stop stop-color="#0A2F53"/>
<stop offset="1" stop-color="#4F779E"/>
</linearGradient>
</defs>
</svg>
