<svg width="77" height="69" viewBox="0 0 77 69" fill="none" xmlns="http://www.w3.org/2000/svg">
<path d="M65.9942 0.851074H11.1702C6.03223 0.851074 0.532227 3.65107 0.532227 11.4891V48.2461C0.532227 56.0851 6.03223 58.8841 11.1702 58.8841H31.4632V65.6591H28.0922C27.8739 65.6537 27.6567 65.692 27.4535 65.7718C27.2502 65.8517 27.0649 65.9713 26.9086 66.1238C26.7523 66.2763 26.6281 66.4586 26.5433 66.6598C26.4585 66.861 26.4148 67.0772 26.4148 67.2956C26.4148 67.514 26.4585 67.7301 26.5433 67.9314C26.6281 68.1326 26.7523 68.3148 26.9086 68.4673C27.0649 68.6198 27.2502 68.7395 27.4535 68.8193C27.6567 68.8991 27.8739 68.9375 28.0922 68.9321H49.6922C49.9105 68.9375 50.1277 68.8991 50.331 68.8193C50.5343 68.7395 50.7195 68.6198 50.8758 68.4673C51.0321 68.3148 51.1564 68.1326 51.2412 67.9314C51.326 67.7301 51.3697 67.514 51.3697 67.2956C51.3697 67.0772 51.326 66.861 51.2412 66.6598C51.1564 66.4586 51.0321 66.2763 50.8758 66.1238C50.7195 65.9713 50.5343 65.8517 50.331 65.7718C50.1277 65.692 49.9105 65.6537 49.6922 65.6591H45.7012V58.8831H65.9942C73.8332 58.8831 76.6322 53.3831 76.6322 48.2451V11.4891C76.6322 3.65107 71.1322 0.851074 65.9942 0.851074ZM42.4322 65.6591H34.7322V58.8831H42.4322V65.6581V65.6591ZM73.3592 48.2461C73.3592 50.4551 72.6392 55.6111 65.9942 55.6111H11.1702C8.96123 55.6111 3.80523 54.8911 3.80523 48.2461V45.9061H73.3592V48.2461ZM73.3592 42.6461H3.80523V11.5511C3.80523 4.90707 8.96023 4.18607 11.1702 4.18607H65.9942C68.2032 4.18607 73.3592 4.90607 73.3592 11.5511V42.6461Z" fill="url(#paint0_linear)"/>
<path d="M65.1142 8.57593C64.7672 8.31543 64.331 8.20334 63.9014 8.26428C63.4718 8.32522 63.084 8.55421 62.8232 8.90093H62.9052L50.6931 25.2689L44.9652 17.8229C44.8185 17.6314 44.6312 17.4748 44.4166 17.3644C44.2021 17.2541 43.9657 17.1928 43.7246 17.1849C43.4835 17.1771 43.2436 17.2229 43.0223 17.319C42.8011 17.4152 42.6039 17.5593 42.4452 17.7409L33.1142 28.3459L26.2752 16.6599C26.132 16.4167 25.9281 16.2148 25.6835 16.074C25.4389 15.9332 25.1619 15.8583 24.8797 15.8567C24.5975 15.8551 24.3196 15.9268 24.0734 16.0648C23.8272 16.2028 23.6211 16.4023 23.4752 16.6439L12.1842 34.8929C12.0308 35.0751 11.919 35.2885 11.8565 35.5183C11.7941 35.7482 11.7826 35.9888 11.8228 36.2236C11.863 36.4583 11.9539 36.6814 12.0892 36.8774C12.2245 37.0734 12.4009 37.2375 12.6061 37.3582C12.8114 37.479 13.0405 37.5536 13.2775 37.5767C13.5145 37.5998 13.7537 37.5709 13.9784 37.492C14.2031 37.4131 14.4079 37.2862 14.5785 37.12C14.7491 36.9539 14.8814 36.7525 14.9662 36.5299L24.7862 20.5229L31.3321 31.7989C31.4626 32.0218 31.6439 32.2106 31.8613 32.35C32.0787 32.4894 32.326 32.5754 32.5829 32.6009C32.8399 32.6265 33.0993 32.5909 33.3398 32.497C33.5804 32.4032 33.7954 32.2537 33.9672 32.0609L43.4922 21.4069L49.3352 29.0009C49.5007 29.1881 49.7015 29.3408 49.9261 29.4503C50.1507 29.5598 50.3947 29.6239 50.6442 29.6389C50.8955 29.6364 51.1429 29.5759 51.3671 29.4623C51.5913 29.3488 51.7864 29.185 51.9372 28.9839L65.4372 10.8669C65.6979 10.5202 65.8103 10.0842 65.7497 9.6546C65.6892 9.22503 65.4606 8.83707 65.1142 8.57593Z" fill="url(#paint1_linear)"/>
<defs>
<linearGradient id="paint0_linear" x1="38.5822" y1="38.5001" x2="38.5822" y2="68.9326" gradientUnits="userSpaceOnUse">
<stop stop-color="#3F658A"/>
<stop offset="1" stop-color="#0A2F53"/>
</linearGradient>
<linearGradient id="paint1_linear" x1="38.7825" y1="24.471" x2="38.7825" y2="37.5844" gradientUnits="userSpaceOnUse">
<stop stop-color="#3F658A"/>
<stop offset="1" stop-color="#0A2F53"/>
</linearGradient>
</defs>
</svg>
