<svg width="48" height="72" viewBox="0 0 48 72" fill="none" xmlns="http://www.w3.org/2000/svg">
<path d="M34.8243 0.658203H9.02832V3.2382H34.8243V0.658203Z" fill="url(#paint0_linear)"/>
<path d="M47.077 42.5749C47.0754 41.3782 46.5993 40.231 45.7531 39.3848C44.9069 38.5386 43.7597 38.0625 42.563 38.0609H39.983V3.19092H37.4V38.0609H34.176C33.2785 38.0594 32.4009 38.3258 31.6558 38.8262C30.9106 39.3265 30.3319 40.0379 29.9936 40.8692C29.6553 41.7006 29.5729 42.614 29.757 43.4925C29.9412 44.3709 30.3834 45.1744 31.027 45.7999C30.2887 46.5116 29.8182 47.4559 29.6947 48.4739C29.5712 49.4919 29.8023 50.5214 30.349 51.3889C29.5683 51.749 28.9068 52.3248 28.4424 53.0484C27.978 53.7719 27.7302 54.6132 27.728 55.4729C27.7316 56.1438 27.8864 56.8052 28.181 57.4079H18.057C18.0569 55.5342 17.603 53.6884 16.734 52.0284C15.8649 50.3684 14.6067 48.9436 13.067 47.8759C14.5333 47.3168 15.7954 46.3258 16.6864 45.0339C17.5774 43.7421 18.0553 42.2102 18.057 40.6409C18.0571 40.4715 18.0239 40.3037 17.9591 40.1471C17.8943 39.9905 17.7993 39.8483 17.6795 39.7285C17.5596 39.6086 17.4174 39.5136 17.2608 39.4489C17.1042 39.3841 16.9364 39.3508 16.767 39.3509H6.449V3.19092H3.869V39.3509C2.84329 39.3522 1.85996 39.7603 1.13467 40.4856C0.409375 41.2109 0.00132299 42.1942 0 43.2199V71.5949H2.58V43.2199C2.58027 42.8779 2.71626 42.5499 2.95812 42.308C3.19999 42.0662 3.52795 41.9302 3.87 41.9299H15.314C15.0266 43.0374 14.3797 44.0182 13.4748 44.7184C12.5699 45.4186 11.4582 45.7986 10.314 45.7989H6.445C6.10287 45.7989 5.77475 45.9348 5.53283 46.1768C5.29091 46.4187 5.155 46.7468 5.155 47.0889C5.155 47.4311 5.29091 47.7592 5.53283 48.0011C5.77475 48.243 6.10287 48.3789 6.445 48.3789C8.83848 48.3818 11.1331 49.3339 12.8255 51.0264C14.518 52.7188 15.4701 55.0134 15.473 57.4069V58.6969C15.4729 58.8664 15.5061 59.0342 15.5709 59.1907C15.6357 59.3473 15.7307 59.4896 15.8505 59.6094C15.9704 59.7292 16.1126 59.8242 16.2692 59.889C16.4257 59.9538 16.5936 59.9871 16.763 59.9869H24.31C24.0155 60.5897 23.8606 61.2511 23.857 61.9219C23.8586 63.1186 24.3347 64.2659 25.1809 65.112C26.0271 65.9582 27.1743 66.4343 28.371 66.4359V71.5949H30.951V66.4359H36.751C37.9477 66.4343 39.0949 65.9582 39.9411 65.112C40.7873 64.2659 41.2634 63.1186 41.265 61.9219C41.2611 61.2442 41.1028 60.5763 40.802 59.9689C41.5897 59.943 42.3566 59.7098 43.0253 59.2927C43.694 58.8757 44.2409 58.2896 44.6107 57.5937C44.9805 56.8977 45.1603 56.1165 45.1317 55.3289C45.1031 54.5413 44.8673 53.7752 44.448 53.1079C45.1122 52.8037 45.6922 52.342 46.1376 51.7629C46.5831 51.1838 46.8806 50.5048 47.0043 49.7848C47.1281 49.0648 47.0743 48.3254 46.8477 47.6308C46.6211 46.9363 46.2285 46.3075 45.704 45.7989C46.1368 45.3807 46.4814 44.8798 46.7172 44.326C46.953 43.7723 47.0754 43.1768 47.077 42.5749ZM36.759 63.8559H28.375C27.8696 63.8444 27.3887 63.6356 27.0353 63.274C26.6819 62.9125 26.484 62.427 26.484 61.9214C26.484 61.4158 26.6819 60.9304 27.0353 60.5688C27.3887 60.2073 27.8696 59.9984 28.375 59.9869H36.759C37.0167 59.9811 37.2731 60.0268 37.5129 60.1214C37.7527 60.2159 37.9712 60.3575 38.1556 60.5377C38.34 60.7179 38.4864 60.9332 38.5865 61.1708C38.6865 61.4084 38.738 61.6636 38.738 61.9214C38.738 62.1792 38.6865 62.4344 38.5865 62.6721C38.4864 62.9097 38.34 63.1249 38.1556 63.3051C37.9712 63.4853 37.7527 63.6269 37.5129 63.7215C37.2731 63.8161 37.0167 63.8618 36.759 63.8559ZM40.628 57.4069H32.244C31.9863 57.4128 31.7299 57.3671 31.4901 57.2725C31.2503 57.1779 31.0318 57.0364 30.8474 56.8561C30.663 56.6759 30.5166 56.4607 30.4165 56.2231C30.3165 55.9854 30.265 55.7302 30.265 55.4724C30.265 55.2146 30.3165 54.9594 30.4165 54.7218C30.5166 54.4842 30.663 54.2689 30.8474 54.0887C31.0318 53.9085 31.2503 53.7669 31.4901 53.6723C31.7299 53.5778 31.9863 53.5321 32.244 53.5379H40.628C40.8857 53.5321 41.1421 53.5778 41.3819 53.6723C41.6217 53.7669 41.8402 53.9085 42.0246 54.0887C42.209 54.2689 42.3554 54.4842 42.4555 54.7218C42.5555 54.9594 42.607 55.2146 42.607 55.4724C42.607 55.7302 42.5555 55.9854 42.4555 56.2231C42.3554 56.4607 42.209 56.6759 42.0246 56.8561C41.8402 57.0364 41.6217 57.1779 41.3819 57.2725C41.1421 57.3671 40.8857 57.4128 40.628 57.4069ZM42.563 50.9579H34.179C33.9213 50.9638 33.6649 50.9181 33.4251 50.8235C33.1853 50.7289 32.9668 50.5873 32.7824 50.4071C32.598 50.2269 32.4516 50.0117 32.3515 49.7741C32.2515 49.5364 32.2 49.2812 32.2 49.0234C32.2 48.7656 32.2515 48.5104 32.3515 48.2728C32.4516 48.0352 32.598 47.8199 32.7824 47.6397C32.9668 47.4595 33.1853 47.3179 33.4251 47.2233C33.6649 47.1288 33.9213 47.0831 34.179 47.0889H42.563C42.8207 47.0831 43.0771 47.1288 43.3169 47.2233C43.5567 47.3179 43.7752 47.4595 43.9596 47.6397C44.144 47.8199 44.2904 48.0352 44.3905 48.2728C44.4905 48.5104 44.542 48.7656 44.542 49.0234C44.542 49.2812 44.4905 49.5364 44.3905 49.7741C44.2904 50.0117 44.144 50.2269 43.9596 50.4071C43.7752 50.5873 43.5567 50.7289 43.3169 50.8235C43.0771 50.9181 42.8207 50.9638 42.563 50.9579ZM42.563 44.5089H34.179C33.6736 44.4974 33.1927 44.2886 32.8393 43.927C32.4859 43.5655 32.288 43.08 32.288 42.5744C32.288 42.0688 32.4859 41.5834 32.8393 41.2218C33.1927 40.8603 33.6736 40.6514 34.179 40.6399H42.563C43.0685 40.6514 43.5493 40.8603 43.9027 41.2218C44.2561 41.5834 44.454 42.0688 44.454 42.5744C44.454 43.08 44.2561 43.5655 43.9027 43.927C43.5493 44.2886 43.0685 44.4974 42.563 44.5089Z" fill="url(#paint1_linear)"/>
<path d="M25.7961 16.1362V13.5562H21.9271C21.7577 13.556 21.5899 13.5893 21.4333 13.6541C21.2767 13.7189 21.1345 13.8139 21.0147 13.9337C20.8949 14.0535 20.7998 14.1958 20.7351 14.3523C20.6703 14.5089 20.637 14.6767 20.6371 14.8462V18.7151H18.0571V21.2952H20.6371V26.4561H23.2171V21.2972H25.7971V18.7172H23.2171V16.1372L25.7961 16.1362Z" fill="url(#paint2_linear)"/>
<path d="M29.6649 8.39697H14.1869C13.1612 8.3983 12.1778 8.80635 11.4525 9.53164C10.7272 10.2569 10.3192 11.2403 10.3179 12.266V27.743C10.3192 28.7687 10.7272 29.752 11.4525 30.4773C12.1778 31.2026 13.1612 31.6106 14.1869 31.612H29.6639C30.6896 31.6106 31.6729 31.2026 32.3982 30.4773C33.1235 29.752 33.5315 28.7687 33.5329 27.743V12.266C33.5315 11.2404 33.1236 10.2573 32.3986 9.53199C31.6735 8.80673 30.6904 8.39856 29.6649 8.39697ZM30.9549 27.744C30.9546 28.086 30.8186 28.414 30.5768 28.6558C30.3349 28.8977 30.0069 29.0337 29.6649 29.034H14.1869C13.8448 29.0337 13.5169 28.8977 13.275 28.6558C13.0331 28.414 12.8971 28.086 12.8969 27.744V12.266C12.8971 11.9239 13.0331 11.596 13.275 11.3541C13.5169 11.1122 13.8448 10.9762 14.1869 10.976H29.6639C30.0059 10.9762 30.3339 11.1122 30.5757 11.3541C30.8176 11.596 30.9536 11.9239 30.9539 12.266L30.9549 27.744Z" fill="url(#paint3_linear)"/>
<defs>
<linearGradient id="paint0_linear" x1="-3.50854" y1="-2.04822" x2="-3.2516" y2="23.6731" gradientUnits="userSpaceOnUse">
<stop stop-color="#0A2F53"/>
<stop offset="1" stop-color="#7493B1"/>
</linearGradient>
<linearGradient id="paint1_linear" x1="-22.8794" y1="-68.5649" x2="74.0577" y2="599.388" gradientUnits="userSpaceOnUse">
<stop stop-color="#0A2F53"/>
<stop offset="1" stop-color="#7493B1"/>
</linearGradient>
<linearGradient id="paint2_linear" x1="14.2955" y1="0.0240591" x2="35.1286" y2="125.175" gradientUnits="userSpaceOnUse">
<stop stop-color="#0A2F53"/>
<stop offset="1" stop-color="#7493B1"/>
</linearGradient>
<linearGradient id="paint3_linear" x1="-0.96462" y1="-15.9556" x2="21.9254" y2="213.223" gradientUnits="userSpaceOnUse">
<stop stop-color="#0A2F53"/>
<stop offset="1" stop-color="#7493B1"/>
</linearGradient>
</defs>
</svg>
