<svg width="71" height="67" viewBox="0 0 71 67" fill="none" xmlns="http://www.w3.org/2000/svg">
<path d="M53.372 66.96C53.2353 66.9598 53.1 66.9326 52.9738 66.8801C52.8476 66.8275 52.733 66.7506 52.6365 66.6537C52.54 66.5569 52.4636 66.4419 52.4115 66.3155C52.3594 66.1891 52.3327 66.0537 52.333 65.917V34.001C52.3325 33.7248 52.4416 33.4597 52.6364 33.264C52.8312 33.0682 53.0958 32.9578 53.372 32.957H59.82L56.664 27.732H36.54V32.96H43.793C43.9299 32.9603 44.0653 32.9875 44.1916 33.0401C44.3179 33.0927 44.4327 33.1697 44.5292 33.2667C44.6258 33.3636 44.7023 33.4786 44.7545 33.6052C44.8066 33.7317 44.8333 33.8671 44.833 34.004V56.575C44.833 56.8508 44.7234 57.1153 44.5284 57.3104C44.3333 57.5054 44.0689 57.615 43.793 57.615C43.5172 57.615 43.2527 57.5054 43.0576 57.3104C42.8626 57.1153 42.753 56.8508 42.753 56.575V35.048H28.246V64.876H42.754V60.79C42.754 60.5141 42.8636 60.2497 43.0586 60.0546C43.2536 59.8596 43.5182 59.7501 43.794 59.7501C44.0698 59.7501 44.3344 59.8596 44.5294 60.0546C44.7245 60.2497 44.834 60.5141 44.834 60.79V65.92C44.8343 66.0568 44.8076 66.1923 44.7554 66.3188C44.7033 66.4452 44.6267 66.5602 44.5302 66.657C44.4336 66.7539 44.3188 66.8309 44.1925 66.8834C44.0662 66.9359 43.9308 66.9629 43.794 66.9631H27.206C27.0692 66.9629 26.9338 66.9359 26.8075 66.8834C26.6812 66.8309 26.5664 66.7539 26.4699 66.657C26.3733 66.5602 26.2967 66.4452 26.2446 66.3188C26.1924 66.1923 26.1658 66.0568 26.166 65.92V34.004C26.1658 33.8671 26.1924 33.7317 26.2446 33.6052C26.2967 33.4786 26.3732 33.3636 26.4698 33.2667C26.5664 33.1697 26.6811 33.0927 26.8074 33.0401C26.9337 32.9875 27.0692 32.9603 27.206 32.96H34.459V27.735H14.336L11.18 32.96H17.628C17.7648 32.9603 17.9003 32.9875 18.0266 33.0401C18.1529 33.0927 18.2676 33.1697 18.3642 33.2667C18.4608 33.3636 18.5374 33.4786 18.5895 33.6052C18.6416 33.7317 18.6683 33.8671 18.668 34.004V38.1041C18.668 38.3799 18.5584 38.6444 18.3634 38.8394C18.1684 39.0344 17.9038 39.144 17.628 39.144C17.3522 39.144 17.0877 39.0344 16.8926 38.8394C16.6976 38.6444 16.588 38.3799 16.588 38.1041V35.048H2.08002V64.876H16.587V42.371C16.587 42.0952 16.6966 41.8307 16.8916 41.6357C17.0866 41.4406 17.3512 41.331 17.627 41.331C17.9028 41.331 18.1673 41.4406 18.3624 41.6357C18.5574 41.8307 18.667 42.0952 18.667 42.371V65.92C18.6674 66.0568 18.6408 66.1924 18.5887 66.319C18.5367 66.4456 18.4601 66.5607 18.3635 66.6576C18.2669 66.7546 18.1521 66.8316 18.0258 66.8842C17.8994 66.9368 17.7639 66.9639 17.627 66.964H1.03998C0.903192 66.9638 0.76781 66.9366 0.641545 66.884C0.51528 66.8313 0.400636 66.7544 0.304143 66.6574C0.207649 66.5604 0.13118 66.4454 0.0791669 66.3189C0.0271535 66.1924 0.00058643 66.0568 0.000980891 65.92V34.0051C0.000586358 33.8682 0.0271657 33.7326 0.0791669 33.606C0.131168 33.4794 0.207601 33.3644 0.304081 33.2674C0.400562 33.1703 0.515213 33.0932 0.641484 33.0405C0.767755 32.9877 0.903145 32.9604 1.03998 32.96H8.74799L12.86 26.149C12.9528 25.9962 13.0835 25.8699 13.2394 25.7823C13.3953 25.6947 13.5712 25.6488 13.75 25.649H34.46V18.891C33.8637 18.826 33.275 18.7038 32.702 18.5261C32.4376 18.4445 32.2164 18.2612 32.0871 18.0165C31.9578 17.7719 31.931 17.4859 32.0125 17.2215C32.0941 16.9571 32.2773 16.7359 32.522 16.6066C32.7666 16.4773 33.0526 16.4505 33.317 16.532C35.0309 17.0686 36.8814 16.9641 38.5241 16.238C40.1667 15.5119 41.4895 14.2136 42.2462 12.5849C43.003 10.9561 43.1421 9.10787 42.6376 7.38421C42.1332 5.66054 41.0196 4.17895 39.5042 3.21514C37.9888 2.25133 36.1748 1.87095 34.3998 2.14495C32.6249 2.41895 31.01 3.32859 29.8558 4.70452C28.7015 6.08045 28.0866 7.82903 28.1255 9.62456C28.1643 11.4201 28.8543 13.1403 30.067 14.465C30.2544 14.6682 30.3534 14.9374 30.3422 15.2136C30.3311 15.4897 30.2107 15.7502 30.0075 15.9376C29.8044 16.1249 29.5351 16.2239 29.2589 16.2127C28.9828 16.2015 28.7224 16.0811 28.535 15.878C27.101 14.3112 26.2367 12.3071 26.0814 10.1889C25.9261 8.07067 26.4889 5.96185 27.679 4.20269C28.8691 2.44352 30.6171 1.13654 32.641 0.492606C34.6649 -0.151326 36.8468 -0.0945997 38.8346 0.653494C40.8224 1.40159 42.5003 2.79747 43.5975 4.61602C44.6947 6.43457 45.1472 8.56974 44.8822 10.6771C44.6172 12.7844 43.6501 14.7409 42.1367 16.2311C40.6234 17.7214 38.6522 18.6584 36.541 18.891V25.65H57.25C57.4288 25.6498 57.6047 25.6957 57.7606 25.7833C57.9165 25.8708 58.0472 25.9971 58.14 26.15L62.253 32.96H69.961C70.0978 32.9603 70.2333 32.9875 70.3596 33.0401C70.4859 33.0927 70.6006 33.1697 70.6972 33.2667C70.7938 33.3636 70.8703 33.4786 70.9224 33.6052C70.9746 33.7317 71.0012 33.8671 71.001 34.004V65.92C71.0013 66.1962 70.8919 66.4612 70.6968 66.6568C70.5018 66.8524 70.2372 66.9625 69.961 66.9631L53.372 66.96ZM54.412 64.873H68.92V35.045H54.413L54.412 64.873ZM57.14 58.451C56.8689 58.4426 56.6116 58.329 56.4227 58.1342C56.2339 57.9394 56.1283 57.6788 56.1283 57.4075C56.1283 57.1362 56.2339 56.8756 56.4227 56.6808C56.6116 56.4861 56.8689 56.3725 57.14 56.3641H65.826C66.0972 56.3725 66.3544 56.4861 66.5433 56.6808C66.7321 56.8756 66.8377 57.1362 66.8377 57.4075C66.8377 57.6788 66.7321 57.9394 66.5433 58.1342C66.3544 58.329 66.0972 58.4426 65.826 58.451H57.14ZM31.157 58.451C30.8858 58.4426 30.6286 58.329 30.4398 58.1342C30.2509 57.9394 30.1453 57.6788 30.1453 57.4075C30.1453 57.1362 30.2509 56.8756 30.4398 56.6808C30.6286 56.4861 30.8858 56.3725 31.157 56.3641H39.842C40.1131 56.3725 40.3704 56.4861 40.5593 56.6808C40.7481 56.8756 40.8537 57.1362 40.8537 57.4075C40.8537 57.6788 40.7481 57.9394 40.5593 58.1342C40.3704 58.329 40.1131 58.4426 39.842 58.451H31.157ZM5.17298 58.451C4.90182 58.4426 4.64459 58.329 4.45575 58.1342C4.26691 57.9394 4.16132 57.6788 4.16132 57.4075C4.16132 57.1362 4.26691 56.8756 4.45575 56.6808C4.64459 56.4861 4.90182 56.3725 5.17298 56.3641H13.859C14.1302 56.3725 14.3874 56.4861 14.5762 56.6808C14.7651 56.8756 14.8707 57.1362 14.8707 57.4075C14.8707 57.6788 14.7651 57.9394 14.5762 58.1342C14.3874 58.329 14.1302 58.4426 13.859 58.451H5.17298ZM57.14 54.727C56.8689 54.7186 56.6116 54.605 56.4227 54.4102C56.2339 54.2154 56.1283 53.9548 56.1283 53.6835C56.1283 53.4122 56.2339 53.1516 56.4227 52.9568C56.6116 52.7621 56.8689 52.6485 57.14 52.6401H65.826C66.0972 52.6485 66.3544 52.7621 66.5433 52.9568C66.7321 53.1516 66.8377 53.4122 66.8377 53.6835C66.8377 53.9548 66.7321 54.2154 66.5433 54.4102C66.3544 54.605 66.0972 54.7186 65.826 54.727H57.14ZM31.157 54.727C30.8858 54.7186 30.6286 54.605 30.4398 54.4102C30.2509 54.2154 30.1453 53.9548 30.1453 53.6835C30.1453 53.4122 30.2509 53.1516 30.4398 52.9568C30.6286 52.7621 30.8858 52.6485 31.157 52.6401H39.842C40.1131 52.6485 40.3704 52.7621 40.5593 52.9568C40.7481 53.1516 40.8537 53.4122 40.8537 53.6835C40.8537 53.9548 40.7481 54.2154 40.5593 54.4102C40.3704 54.605 40.1131 54.7186 39.842 54.727H31.157ZM5.17298 54.727C4.90182 54.7186 4.64459 54.605 4.45575 54.4102C4.26691 54.2154 4.16132 53.9548 4.16132 53.6835C4.16132 53.4122 4.26691 53.1516 4.45575 52.9568C4.64459 52.7621 4.90182 52.6485 5.17298 52.6401H13.859C14.1302 52.6485 14.3874 52.7621 14.5762 52.9568C14.7651 53.1516 14.8707 53.4122 14.8707 53.6835C14.8707 53.9548 14.7651 54.2154 14.5762 54.4102C14.3874 54.605 14.1302 54.7186 13.859 54.727H5.17298ZM57.14 51.004C56.8631 51.004 56.5976 50.894 56.4018 50.6982C56.206 50.5024 56.096 50.2369 56.096 49.96C56.096 49.6831 56.206 49.4176 56.4018 49.2219C56.5976 49.0261 56.8631 48.9161 57.14 48.9161H65.826C66.1029 48.9161 66.3684 49.0261 66.5642 49.2219C66.76 49.4176 66.87 49.6831 66.87 49.96C66.87 50.2369 66.76 50.5024 66.5642 50.6982C66.3684 50.894 66.1029 51.004 65.826 51.004H57.14ZM31.157 51.004C30.8801 51.004 30.6146 50.894 30.4188 50.6982C30.223 50.5024 30.113 50.2369 30.113 49.96C30.113 49.6831 30.223 49.4176 30.4188 49.2219C30.6146 49.0261 30.8801 48.9161 31.157 48.9161H39.842C40.1189 48.9161 40.3844 49.0261 40.5802 49.2219C40.776 49.4176 40.886 49.6831 40.886 49.96C40.886 50.2369 40.776 50.5024 40.5802 50.6982C40.3844 50.894 40.1189 51.004 39.842 51.004H31.157ZM5.17298 51.004C4.89609 51.004 4.63055 50.894 4.43476 50.6982C4.23897 50.5024 4.12903 50.2369 4.12903 49.96C4.12903 49.6831 4.23897 49.4176 4.43476 49.2219C4.63055 49.0261 4.89609 48.9161 5.17298 48.9161H13.859C14.1359 48.9161 14.4014 49.0261 14.5972 49.2219C14.793 49.4176 14.903 49.6831 14.903 49.96C14.903 50.2369 14.793 50.5024 14.5972 50.6982C14.4014 50.894 14.1359 51.004 13.859 51.004H5.17298ZM57.14 47.279C56.8689 47.2706 56.6116 47.157 56.4227 46.9622C56.2339 46.7674 56.1283 46.5068 56.1283 46.2355C56.1283 45.9642 56.2339 45.7036 56.4227 45.5088C56.6116 45.3141 56.8689 45.2005 57.14 45.1921H65.826C66.0972 45.2005 66.3544 45.3141 66.5433 45.5088C66.7321 45.7036 66.8377 45.9642 66.8377 46.2355C66.8377 46.5068 66.7321 46.7674 66.5433 46.9622C66.3544 47.157 66.0972 47.2706 65.826 47.279H57.14ZM31.157 47.279C30.8858 47.2706 30.6286 47.157 30.4398 46.9622C30.2509 46.7674 30.1453 46.5068 30.1453 46.2355C30.1453 45.9642 30.2509 45.7036 30.4398 45.5088C30.6286 45.3141 30.8858 45.2005 31.157 45.1921H39.842C40.1131 45.2005 40.3704 45.3141 40.5593 45.5088C40.7481 45.7036 40.8537 45.9642 40.8537 46.2355C40.8537 46.5068 40.7481 46.7674 40.5593 46.9622C40.3704 47.157 40.1131 47.2706 39.842 47.279H31.157ZM5.17298 47.279C4.90182 47.2706 4.64459 47.157 4.45575 46.9622C4.26691 46.7674 4.16132 46.5068 4.16132 46.2355C4.16132 45.9642 4.26691 45.7036 4.45575 45.5088C4.64459 45.3141 4.90182 45.2005 5.17298 45.1921H13.859C14.1302 45.2005 14.3874 45.3141 14.5762 45.5088C14.7651 45.7036 14.8707 45.9642 14.8707 46.2355C14.8707 46.5068 14.7651 46.7674 14.5762 46.9622C14.3874 47.157 14.1302 47.2706 13.859 47.279H5.17298ZM57.14 42.404C56.8631 42.404 56.5976 42.294 56.4018 42.0982C56.206 41.9024 56.096 41.6369 56.096 41.36C56.096 41.0832 56.206 40.8175 56.4018 40.6218C56.5976 40.426 56.8631 40.316 57.14 40.316H59.2C59.4769 40.316 59.7424 40.426 59.9382 40.6218C60.134 40.8175 60.244 41.0832 60.244 41.36C60.244 41.6369 60.134 41.9024 59.9382 42.0982C59.7424 42.294 59.4769 42.404 59.2 42.404H57.14ZM31.157 42.404C30.8801 42.404 30.6146 42.294 30.4188 42.0982C30.223 41.9024 30.113 41.6369 30.113 41.36C30.113 41.0832 30.223 40.8175 30.4188 40.6218C30.6146 40.426 30.8801 40.316 31.157 40.316H33.218C33.4949 40.316 33.7605 40.426 33.9562 40.6218C34.152 40.8175 34.262 41.0832 34.262 41.36C34.262 41.6369 34.152 41.9024 33.9562 42.0982C33.7605 42.294 33.4949 42.404 33.218 42.404H31.157ZM5.17298 42.404C4.89609 42.404 4.63055 42.294 4.43476 42.0982C4.23897 41.9024 4.12903 41.6369 4.12903 41.36C4.12903 41.0832 4.23897 40.8175 4.43476 40.6218C4.63055 40.426 4.89609 40.316 5.17298 40.316H7.23401C7.5109 40.316 7.77645 40.426 7.97223 40.6218C8.16802 40.8175 8.27802 41.0832 8.27802 41.36C8.27802 41.6369 8.16802 41.9024 7.97223 42.0982C7.77645 42.294 7.5109 42.404 7.23401 42.404H5.17298Z" fill="url(#paint0_linear)"/>
<defs>
<linearGradient id="paint0_linear" x1="35.501" y1="0.0478516" x2="35.501" y2="66.964" gradientUnits="userSpaceOnUse">
<stop stop-color="#5B89B6"/>
<stop offset="1" stop-color="#0A2F53"/>
</linearGradient>
</defs>
</svg>
