<svg width="74" height="74" viewBox="0 0 74 74" fill="none" xmlns="http://www.w3.org/2000/svg">
<path d="M24.4158 46.7708C24.4158 46.447 24.2872 46.1364 24.0582 45.9074C23.8292 45.6785 23.5186 45.5498 23.1948 45.5498C22.871 45.5498 22.5604 45.6785 22.3314 45.9074C22.1025 46.1364 21.9738 46.447 21.9738 46.7708V47.9918H18.3118C17.988 47.9918 17.6774 48.1204 17.4484 48.3494C17.2195 48.5784 17.0908 48.889 17.0908 49.2128C17.0908 49.5366 17.2195 49.8472 17.4484 50.0762C17.6774 50.3052 17.988 50.4338 18.3118 50.4338H21.9738V51.6498C21.9738 51.9736 22.1025 52.2842 22.3314 52.5132C22.5604 52.7422 22.871 52.8708 23.1948 52.8708C23.5186 52.8708 23.8292 52.7422 24.0582 52.5132C24.2872 52.2842 24.4158 51.9736 24.4158 51.6498V50.4288H53.7158C54.0396 50.4288 54.3502 50.3001 54.5792 50.0712C54.8082 49.8422 54.9368 49.5316 54.9368 49.2078C54.9368 48.884 54.8082 48.5734 54.5792 48.3444C54.3502 48.1154 54.0396 47.9868 53.7158 47.9868H24.4158V46.7708Z" fill="url(#paint0_linear)"/>
<path d="M32.3193 31.086C32.1422 31.1955 31.9961 31.3485 31.8948 31.5303C31.7935 31.7121 31.7403 31.9168 31.7403 32.125V41.886C31.739 42.0947 31.7912 42.3002 31.892 42.4829C31.9927 42.6656 32.1386 42.8195 32.3157 42.9298C32.4928 43.0401 32.6952 43.1032 32.9036 43.113C33.1121 43.1229 33.3195 43.0792 33.5063 42.986L43.2723 38.103C43.4753 38.0017 43.6461 37.8458 43.7654 37.6528C43.8848 37.4598 43.948 37.2374 43.948 37.0105C43.948 36.7836 43.8848 36.5612 43.7654 36.3682C43.6461 36.1752 43.4753 36.0193 43.2723 35.918L33.5063 31.035C33.3204 30.9417 33.1139 30.8975 32.9061 30.9064C32.6984 30.9153 32.4964 30.9771 32.3193 31.086ZM34.1823 34.1L39.9983 37.008L34.1823 39.916V34.1Z" fill="url(#paint1_linear)"/>
<path d="M23.1909 33.3429C23.5147 33.3429 23.8253 33.2142 24.0543 32.9853C24.2833 32.7563 24.4119 32.4457 24.4119 32.1219C24.4119 31.798 24.2833 31.4875 24.0543 31.2585C23.8253 31.0295 23.5147 30.9009 23.1909 30.9009C22.71 30.9009 22.2338 30.9956 21.7895 31.1796C21.3452 31.3637 20.9415 31.6334 20.6015 31.9734C20.2614 32.3135 19.9917 32.7172 19.8077 33.1615C19.6236 33.6058 19.5289 34.082 19.5289 34.5629V35.7839H18.3079C17.9841 35.7839 17.6735 35.9125 17.4445 36.1415C17.2156 36.3705 17.0869 36.6811 17.0869 37.0049C17.0869 37.3287 17.2156 37.6393 17.4445 37.8683C17.6735 38.0972 17.9841 38.2259 18.3079 38.2259H19.5289V41.8879C19.5289 42.2117 19.6576 42.5223 19.8865 42.7513C20.1155 42.9802 20.4261 43.1089 20.7499 43.1089C21.0737 43.1089 21.3843 42.9802 21.6133 42.7513C21.8423 42.5223 21.9709 42.2117 21.9709 41.8879V38.2259H23.1909C23.5147 38.2259 23.8253 38.0972 24.0543 37.8683C24.2833 37.6393 24.4119 37.3287 24.4119 37.0049C24.4119 36.6811 24.2833 36.3705 24.0543 36.1415C23.8253 35.9125 23.5147 35.7839 23.1909 35.7839H21.9699V34.5629C21.9702 34.2392 22.0989 33.9289 22.3279 33.7001C22.5568 33.4714 22.8673 33.3429 23.1909 33.3429Z" fill="url(#paint2_linear)"/>
<path d="M50.0508 41.8879C50.0508 42.2117 50.1794 42.5223 50.4084 42.7513C50.6374 42.9802 50.948 43.1089 51.2718 43.1089C51.5956 43.1089 51.9062 42.9802 52.1352 42.7513C52.3641 42.5223 52.4928 42.2117 52.4928 41.8879V35.7879C52.4928 35.4641 52.3641 35.1535 52.1352 34.9245C51.9062 34.6955 51.5956 34.5669 51.2718 34.5669C50.948 34.5669 50.6374 34.6955 50.4084 34.9245C50.1794 35.1535 50.0508 35.4641 50.0508 35.7879V41.8879Z" fill="url(#paint3_linear)"/>
<path d="M52.4928 32.1219C52.4928 32.3634 52.4212 32.5994 52.287 32.8002C52.1528 33.001 51.9621 33.1575 51.739 33.2499C51.5159 33.3424 51.2704 33.3665 51.0336 33.3194C50.7967 33.2723 50.5792 33.156 50.4084 32.9853C50.2376 32.8145 50.1214 32.5969 50.0742 32.3601C50.0271 32.1232 50.0513 31.8777 50.1437 31.6546C50.2361 31.4315 50.3926 31.2408 50.5934 31.1067C50.7942 30.9725 51.0303 30.9009 51.2718 30.9009C51.5956 30.9009 51.9062 31.0295 52.1352 31.2585C52.3641 31.4875 52.4928 31.798 52.4928 32.1219Z" fill="url(#paint4_linear)"/>
<path d="M15.8698 24.7969H12.2078C11.884 24.7969 11.5734 24.9255 11.3444 25.1545C11.1155 25.3835 10.9868 25.694 10.9868 26.0179V55.3179C10.9868 55.6417 11.1155 55.9523 11.3444 56.1813C11.5734 56.4102 11.884 56.5389 12.2078 56.5389H61.0388C61.3626 56.5389 61.6732 56.4102 61.9022 56.1813C62.1312 55.9523 62.2598 55.6417 62.2598 55.3179V30.8969C62.2598 30.7365 62.2282 30.5777 62.1669 30.4296C62.1055 30.2815 62.0156 30.1469 61.9022 30.0335C61.7888 29.9201 61.6542 29.8302 61.5061 29.7688C61.3579 29.7075 61.1992 29.6759 61.0388 29.6759C60.8785 29.6759 60.7197 29.7075 60.5716 29.7688C60.4234 29.8302 60.2888 29.9201 60.1754 30.0335C60.0621 30.1469 59.9721 30.2815 59.9108 30.4296C59.8494 30.5777 59.8178 30.7365 59.8178 30.8969V54.0969H13.4288V27.2389H15.8708C16.1946 27.2389 16.5052 27.1102 16.7342 26.8813C16.9632 26.6523 17.0918 26.3417 17.0918 26.0179C17.0918 25.694 16.9632 25.3835 16.7342 25.1545C16.5052 24.9255 16.1946 24.7969 15.8708 24.7969H15.8698Z" fill="url(#paint5_linear)"/>
<path d="M42.7269 27.2389C43.0508 27.2389 43.3613 27.1102 43.5903 26.8813C43.8193 26.6523 43.9479 26.3417 43.9479 26.0179C43.9479 25.694 43.8193 25.3835 43.5903 25.1545C43.3613 24.9255 43.0508 24.7969 42.7269 24.7969H34.1819C33.8581 24.7969 33.5475 24.9255 33.3186 25.1545C33.0896 25.3835 32.9609 25.694 32.9609 26.0179C32.9609 26.3417 33.0896 26.6523 33.3186 26.8813C33.5475 27.1102 33.8581 27.2389 34.1819 27.2389H42.7269Z" fill="url(#paint6_linear)"/>
<path d="M65.921 29.68C65.5986 29.681 65.2896 29.8096 65.0616 30.0376C64.8336 30.2656 64.7051 30.5745 64.704 30.897V57.754C64.704 57.9143 64.6724 58.0731 64.6111 58.2212C64.5497 58.3694 64.4598 58.504 64.3464 58.6173C64.233 58.7307 64.0984 58.8207 63.9503 58.882C63.8021 58.9434 63.6434 58.975 63.483 58.975H9.76603C9.4422 58.975 9.13163 58.8463 8.90265 58.6173C8.67367 58.3884 8.54503 58.0778 8.54503 57.754V26.014C8.54503 25.6901 8.41639 25.3796 8.1874 25.1506C7.95842 24.9216 7.64786 24.793 7.32403 24.793C7.0002 24.793 6.68963 24.9216 6.46065 25.1506C6.23167 25.3796 6.10303 25.6901 6.10303 26.014V57.754C6.10303 58.2349 6.19775 58.7111 6.38178 59.1553C6.56581 59.5996 6.83555 60.0033 7.1756 60.3434C7.51565 60.6834 7.91935 60.9532 8.36364 61.1372C8.80793 61.3212 9.28413 61.416 9.76503 61.416H26.857V66.299H19.532C18.5607 66.299 17.6291 66.6848 16.9422 67.3717C16.2554 68.0585 15.8695 68.9901 15.8695 69.9615C15.8695 70.9328 16.2554 71.8644 16.9422 72.5512C17.6291 73.2381 18.5607 73.624 19.532 73.624H53.714C54.0379 73.624 54.3484 73.4953 54.5774 73.2663C54.8064 73.0374 54.935 72.7268 54.935 72.403C54.935 72.0791 54.8064 71.7686 54.5774 71.5396C54.3484 71.3106 54.0379 71.182 53.714 71.182H19.532C19.2082 71.182 18.8976 71.0533 18.6686 70.8243C18.4397 70.5954 18.311 70.2848 18.311 69.961C18.311 69.6371 18.4397 69.3266 18.6686 69.0976C18.8976 68.8686 19.2082 68.74 19.532 68.74H53.714C54.0379 68.74 54.3484 68.6113 54.5774 68.3823C54.8064 68.1534 54.935 67.8428 54.935 67.519C54.935 67.1951 54.8064 66.8846 54.5774 66.6556C54.3484 66.4266 54.0379 66.298 53.714 66.298H46.389V61.415H63.48C64.4512 61.415 65.3827 61.0292 66.0695 60.3424C66.7562 59.6556 67.142 58.7242 67.142 57.753V30.897C67.141 30.5738 67.0119 30.2643 66.783 30.0362C66.5541 29.8081 66.2442 29.68 65.921 29.68ZM43.948 66.303H29.299V61.42H43.948V66.303Z" fill="url(#paint7_linear)"/>
<path d="M67.142 0.381836H52.493C50.8761 0.384744 49.3262 1.02835 48.1829 2.1717C47.0395 3.31504 46.3959 4.86491 46.393 6.48184V19.9138H33.957C34.1018 19.5228 34.1779 19.1098 34.182 18.6928V4.04384C34.182 3.56285 34.0872 3.08658 33.9032 2.64222C33.7191 2.19786 33.4492 1.79412 33.1091 1.45406C32.7689 1.114 32.3651 0.844276 31.9207 0.660302C31.4763 0.476328 31 0.381705 30.519 0.381836H3.662C2.69078 0.381836 1.75933 0.767653 1.07257 1.45441C0.385817 2.14117 0 3.07261 0 4.04384L0 18.6928C0 19.6641 0.385817 20.5955 1.07257 21.2823C1.75933 21.969 2.69078 22.3548 3.662 22.3548H17.806L27.214 31.7628C27.3848 31.9334 27.6023 32.0496 27.839 32.0967C28.0758 32.1437 28.3211 32.1195 28.5442 32.0272C28.7672 31.9348 28.9578 31.7784 29.092 31.5778C29.2262 31.3771 29.2979 31.1412 29.298 30.8998V22.3558H46.511C46.7942 23.7337 47.5439 24.9717 48.6336 25.8612C49.7233 26.7507 51.0864 27.2373 52.493 27.2388H67.142C68.7589 27.2359 70.3088 26.5923 71.4521 25.449C72.5955 24.3056 73.2391 22.7558 73.242 21.1388V6.48184C73.2391 4.86491 72.5955 3.31504 71.4521 2.1717C70.3088 1.02835 68.7589 0.384744 67.142 0.381836V0.381836ZM29.3 19.9138H28.078C27.7542 19.9138 27.4436 20.0425 27.2146 20.2715C26.9856 20.5004 26.857 20.811 26.857 21.1348V27.9538L19.175 20.2718C18.9462 20.0428 18.6358 19.914 18.312 19.9138H3.662C3.33817 19.9138 3.0276 19.7852 2.79862 19.5562C2.56964 19.3272 2.441 19.0167 2.441 18.6928V4.04384C2.44127 3.72018 2.57002 3.40987 2.79898 3.18111C3.02793 2.95234 3.33834 2.82384 3.662 2.82384H30.519C30.8427 2.82384 31.1531 2.95234 31.382 3.18111C31.611 3.40987 31.7397 3.72018 31.74 4.04384V18.6928C31.74 19.0167 31.6114 19.3272 31.3824 19.5562C31.1534 19.7852 30.8428 19.9138 30.519 19.9138H29.3ZM70.8 21.1348C70.8 22.1061 70.4142 23.0375 69.7274 23.7243C69.0407 24.411 68.1092 24.7968 67.138 24.7968H52.493C51.5218 24.7968 50.5903 24.411 49.9036 23.7243C49.2168 23.0375 48.831 22.1061 48.831 21.1348V6.48184C48.831 5.51061 49.2168 4.57917 49.9036 3.89241C50.5903 3.20565 51.5218 2.81984 52.493 2.81984H67.142C68.1125 2.8209 69.0429 3.20718 69.7288 3.89382C70.4147 4.58047 70.8 5.51131 70.8 6.48184V21.1348Z" fill="url(#paint8_linear)"/>
<path d="M64.7008 12.59C64.3769 12.59 64.0664 12.7187 63.8374 12.9477C63.6084 13.1766 63.4798 13.4872 63.4798 13.811C63.4798 14.5353 63.265 15.2433 62.8626 15.8455C62.4602 16.4477 61.8883 16.9171 61.2192 17.1943C60.55 17.4714 59.8137 17.544 59.1034 17.4027C58.393 17.2614 57.7405 16.9126 57.2284 16.4005C56.7162 15.8883 56.3674 15.2358 56.2261 14.5255C56.0848 13.8151 56.1574 13.0788 56.4345 12.4096C56.7117 11.7405 57.1811 11.1686 57.7833 10.7662C58.3855 10.3638 59.0935 10.149 59.8178 10.149C60.1416 10.149 60.4522 10.0204 60.6812 9.79141C60.9101 9.56243 61.0388 9.25186 61.0388 8.92803C61.0388 8.6042 60.9101 8.29364 60.6812 8.06466C60.4522 7.83567 60.1416 7.70703 59.8178 7.70703C58.6113 7.70703 57.4319 8.06479 56.4288 8.73507C55.4257 9.40534 54.6438 10.358 54.1821 11.4727C53.7204 12.5873 53.5996 13.8138 53.835 14.9971C54.0704 16.1804 54.6513 17.2673 55.5044 18.1204C56.3575 18.9735 57.4444 19.5545 58.6277 19.7898C59.811 20.0252 61.0375 19.9044 62.1521 19.4427C63.2668 18.981 64.2195 18.1992 64.8897 17.196C65.56 16.1929 65.9178 15.0135 65.9178 13.807C65.9167 13.4846 65.7882 13.1757 65.5601 12.9476C65.3321 12.7196 65.0232 12.5911 64.7008 12.59Z" fill="url(#paint9_linear)"/>
<path d="M24.4148 5.26465H12.2078C11.884 5.26465 11.5734 5.39329 11.3444 5.62227C11.1155 5.85125 10.9868 6.16182 10.9868 6.48565C10.9868 6.80948 11.1155 7.12004 11.3444 7.34903C11.5734 7.57801 11.884 7.70665 12.2078 7.70665H24.4148C24.7386 7.70665 25.0492 7.57801 25.2782 7.34903C25.5072 7.12004 25.6358 6.80948 25.6358 6.48565C25.6358 6.16182 25.5072 5.85125 25.2782 5.62227C25.0492 5.39329 24.7386 5.26465 24.4148 5.26465Z" fill="url(#paint10_linear)"/>
<path d="M7.325 12.59H17.091C17.4148 12.59 17.7254 12.4613 17.9544 12.2323C18.1834 12.0033 18.312 11.6928 18.312 11.3689C18.312 11.0451 18.1834 10.7346 17.9544 10.5056C17.7254 10.2766 17.4148 10.1479 17.091 10.1479H7.325C7.00118 10.1479 6.69061 10.2766 6.46163 10.5056C6.23265 10.7346 6.104 11.0451 6.104 11.3689C6.104 11.6928 6.23265 12.0033 6.46163 12.2323C6.69061 12.4613 7.00118 12.59 7.325 12.59Z" fill="url(#paint11_linear)"/>
<path d="M24.416 15.0308H13.429C13.1052 15.0308 12.7946 15.1594 12.5656 15.3884C12.3366 15.6174 12.208 15.9279 12.208 16.2518C12.208 16.5756 12.3366 16.8862 12.5656 17.1151C12.7946 17.3441 13.1052 17.4728 13.429 17.4728H24.416C24.7398 17.4728 25.0504 17.3441 25.2794 17.1151C25.5084 16.8862 25.637 16.5756 25.637 16.2518C25.637 15.9279 25.5084 15.6174 25.2794 15.3884C25.0504 15.1594 24.7398 15.0308 24.416 15.0308Z" fill="url(#paint12_linear)"/>
<path d="M8.54601 15.0308H7.325C7.00118 15.0308 6.69061 15.1594 6.46163 15.3884C6.23265 15.6174 6.104 15.9279 6.104 16.2518C6.104 16.5756 6.23265 16.8862 6.46163 17.1151C6.69061 17.3441 7.00118 17.4728 7.325 17.4728H8.54601C8.86983 17.4728 9.1804 17.3441 9.40938 17.1151C9.63836 16.8862 9.767 16.5756 9.767 16.2518C9.767 15.9279 9.63836 15.6174 9.40938 15.3884C9.1804 15.1594 8.86983 15.0308 8.54601 15.0308Z" fill="url(#paint13_linear)"/>
<path d="M24.415 10.1479H21.973C21.6491 10.1479 21.3386 10.2766 21.1096 10.5056C20.8806 10.7346 20.752 11.0451 20.752 11.3689C20.752 11.6928 20.8806 12.0033 21.1096 12.2323C21.3386 12.4613 21.6491 12.59 21.973 12.59H24.415C24.7388 12.59 25.0494 12.4613 25.2783 12.2323C25.5073 12.0033 25.636 11.6928 25.636 11.3689C25.636 11.0451 25.5073 10.7346 25.2783 10.5056C25.0494 10.2766 24.7388 10.1479 24.415 10.1479Z" fill="url(#paint14_linear)"/>
<defs>
<linearGradient id="paint0_linear" x1="21.5188" y1="23.4037" x2="22.9753" y2="74.0073" gradientUnits="userSpaceOnUse">
<stop stop-color="#0A2F53"/>
<stop offset="1" stop-color="#3F72A4"/>
</linearGradient>
<linearGradient id="paint1_linear" x1="33.1685" y1="-6.02736" x2="45.4644" y2="76.6037" gradientUnits="userSpaceOnUse">
<stop stop-color="#0A2F53"/>
<stop offset="1" stop-color="#3F72A4"/>
</linearGradient>
<linearGradient id="paint2_linear" x1="17.9439" y1="-6.0283" x2="37.6729" y2="73.5323" gradientUnits="userSpaceOnUse">
<stop stop-color="#0A2F53"/>
<stop offset="1" stop-color="#3F72A4"/>
</linearGradient>
<linearGradient id="paint3_linear" x1="50.3365" y1="8.72732" x2="74.5363" y2="55.2245" gradientUnits="userSpaceOnUse">
<stop stop-color="#0A2F53"/>
<stop offset="1" stop-color="#3F72A4"/>
</linearGradient>
<linearGradient id="paint4_linear" x1="50.3365" y1="23.5138" x2="52.7956" y2="40.0413" gradientUnits="userSpaceOnUse">
<stop stop-color="#0A2F53"/>
<stop offset="1" stop-color="#3F72A4"/>
</linearGradient>
<linearGradient id="paint5_linear" x1="16.9858" y1="-71.2227" x2="37.042" y2="146.516" gradientUnits="userSpaceOnUse">
<stop stop-color="#0A2F53"/>
<stop offset="1" stop-color="#3F72A4"/>
</linearGradient>
<linearGradient id="paint6_linear" x1="34.2464" y1="17.4098" x2="34.8045" y2="34.2847" gradientUnits="userSpaceOnUse">
<stop stop-color="#0A2F53"/>
<stop offset="1" stop-color="#3F72A4"/>
</linearGradient>
<linearGradient id="paint7_linear" x1="13.2446" y1="-122.921" x2="52.8918" y2="210.164" gradientUnits="userSpaceOnUse">
<stop stop-color="#0A2F53"/>
<stop offset="1" stop-color="#3F72A4"/>
</linearGradient>
<linearGradient id="paint8_linear" x1="8.56931" y1="-95.6264" x2="22.6668" y2="123.024" gradientUnits="userSpaceOnUse">
<stop stop-color="#0A2F53"/>
<stop offset="1" stop-color="#3F72A4"/>
</linearGradient>
<linearGradient id="paint9_linear" x1="55.1452" y1="-29.198" x2="67.4306" y2="53.3716" gradientUnits="userSpaceOnUse">
<stop stop-color="#0A2F53"/>
<stop offset="1" stop-color="#3F72A4"/>
</linearGradient>
<linearGradient id="paint10_linear" x1="12.7007" y1="-2.12241" x2="13.1195" y2="14.7606" gradientUnits="userSpaceOnUse">
<stop stop-color="#0A2F53"/>
<stop offset="1" stop-color="#3F72A4"/>
</linearGradient>
<linearGradient id="paint11_linear" x1="7.53234" y1="2.7609" x2="8.03468" y2="19.6393" gradientUnits="userSpaceOnUse">
<stop stop-color="#0A2F53"/>
<stop offset="1" stop-color="#3F72A4"/>
</linearGradient>
<linearGradient id="paint12_linear" x1="13.7792" y1="7.64371" x2="14.2359" y2="24.5247" gradientUnits="userSpaceOnUse">
<stop stop-color="#0A2F53"/>
<stop offset="1" stop-color="#3F72A4"/>
</linearGradient>
<linearGradient id="paint13_linear" x1="6.53257" y1="7.64371" x2="8.19194" y2="24.3725" gradientUnits="userSpaceOnUse">
<stop stop-color="#0A2F53"/>
<stop offset="1" stop-color="#3F72A4"/>
</linearGradient>
<linearGradient id="paint14_linear" x1="21.3234" y1="2.7609" x2="22.5732" y2="19.5613" gradientUnits="userSpaceOnUse">
<stop stop-color="#0A2F53"/>
<stop offset="1" stop-color="#3F72A4"/>
</linearGradient>
</defs>
</svg>
