<svg width="78" height="73" viewBox="0 0 78 73" fill="none" xmlns="http://www.w3.org/2000/svg">
<path d="M73.9171 35.291V6.84002C73.9153 5.1257 73.2334 3.48213 72.0212 2.26992C70.809 1.05771 69.1655 0.375876 67.4511 0.374023H10.5511C8.83646 0.375347 7.19237 1.05694 5.97973 2.26921C4.76709 3.48148 4.08498 5.12536 4.08313 6.84002V26.24C3.05476 26.2411 2.06878 26.6499 1.34143 27.3769C0.614071 28.1039 0.204713 29.0897 0.203125 30.118L0.203125 68.918C0.204184 69.9467 0.613308 70.933 1.34072 71.6604C2.06813 72.3878 3.05441 72.797 4.08313 72.798H32.5341C33.5628 72.797 34.5491 72.3878 35.2765 71.6604C36.0039 70.933 36.4131 69.9467 36.4141 68.918H47.2521C47.8487 68.9181 48.4372 68.7807 48.972 68.5163C49.5067 68.2519 49.9733 67.8678 50.3355 67.3937C50.6976 66.9196 50.9455 66.3685 51.0599 65.783C51.1743 65.1975 51.1521 64.5935 50.9951 64.018L48.4531 54.693H55.8131V68.915C55.8142 69.9437 56.2233 70.93 56.9507 71.6574C57.6781 72.3848 58.6644 72.794 59.6931 72.795H73.9171C74.9458 72.794 75.9321 72.3848 76.6595 71.6574C77.3869 70.93 77.7961 69.9437 77.7971 68.915V39.174C77.7969 38.1448 77.3881 37.1577 76.6606 36.4297C75.9331 35.7016 74.9464 35.2921 73.9171 35.291ZM33.8271 68.915C33.8253 69.2574 33.6885 69.5852 33.4464 69.8273C33.2043 70.0694 32.8765 70.2062 32.5341 70.208H4.08313C3.74077 70.2062 3.41295 70.0694 3.17087 69.8273C2.92878 69.5852 2.79196 69.2574 2.79012 68.915V66.328H33.8271V68.915ZM33.8271 63.742H2.78912V35.291H33.8271V63.742ZM33.8271 32.705H2.78912V30.118C2.79097 29.7755 2.92792 29.4475 3.17022 29.2054C3.41253 28.9633 3.74059 28.8266 4.08313 28.825H32.5341C32.8765 28.8269 33.2043 28.9637 33.4464 29.2058C33.6885 29.4479 33.8253 29.7757 33.8271 30.118V32.705ZM48.5031 64.695C48.5554 64.8869 48.5627 65.0882 48.5246 65.2833C48.4864 65.4785 48.4037 65.6622 48.283 65.8202C48.1622 65.9781 48.0067 66.1062 47.8284 66.1942C47.6501 66.2823 47.454 66.3281 47.2551 66.328H36.4131V63.742H48.2401L48.5031 64.695ZM36.4131 61.156V54.689H45.7711L47.5351 61.155L36.4131 61.156ZM55.8131 52.103H36.4131V44.344H55.8131V52.103ZM55.8131 39.171V41.757H36.4131V30.118C36.4121 29.0893 36.0029 28.103 35.2755 27.3756C34.5481 26.6482 33.5618 26.2391 32.5331 26.238H6.66913V6.83802C6.67018 5.80931 7.07931 4.82303 7.80672 4.09562C8.53413 3.36821 9.52041 2.95908 10.5491 2.95802H67.4491C68.4778 2.95908 69.4641 3.36821 70.1915 4.09562C70.9189 4.82303 71.3281 5.80931 71.3291 6.83802V35.291H59.6911C58.6621 35.2923 57.6756 35.702 56.9483 36.43C56.221 37.1581 55.8124 38.145 55.8121 39.174L55.8131 39.171ZM75.2131 68.915C75.2113 69.2574 75.0745 69.5852 74.8324 69.8273C74.5903 70.0694 74.2625 70.2062 73.9201 70.208H59.6911C59.3496 70.2049 59.0231 70.0675 58.7821 69.8255C58.5411 69.5836 58.4049 69.2565 58.4031 68.915V66.328H75.2101L75.2131 68.915ZM75.2131 63.742H58.4031V44.344H75.2101L75.2131 63.742ZM75.2131 41.757H58.4031V39.174C58.4031 38.8313 58.5384 38.5025 58.7796 38.259C59.0208 38.0155 59.3484 37.8772 59.6911 37.874H73.9171C74.2607 37.8759 74.5896 38.0137 74.8318 38.2573C75.0741 38.5009 75.2101 38.8305 75.2101 39.174L75.2131 41.757Z" fill="url(#paint0_linear)"/>
<path d="M12.22 48.6006L7.04688 53.7739L8.87541 55.6025L14.0485 50.4292L12.22 48.6006Z" fill="url(#paint1_linear)"/>
<path d="M27.7393 42.1352L12.2202 57.6539L14.0488 59.4824L29.5679 43.9638L27.7393 42.1352Z" fill="url(#paint2_linear)"/>
<path d="M22.5651 38.2569L14.8062 46.0161L16.6347 47.8447L24.3936 40.0855L22.5651 38.2569Z" fill="url(#paint3_linear)"/>
<path d="M67.8265 47.311L61.3613 53.7759L63.1899 55.6045L69.6552 49.1395L67.8265 47.311Z" fill="url(#paint4_linear)"/>
<path d="M70.4121 52.4887L63.9473 58.954L65.7758 60.7827L72.2406 54.3174L70.4121 52.4887Z" fill="url(#paint5_linear)"/>
<path d="M41.9634 14.979L34.2041 22.7379L36.0327 24.5664L43.792 16.8076L41.9634 14.979Z" fill="url(#paint6_linear)"/>
<path d="M53.6035 12.3921L45.8442 20.151L47.6729 21.9795L55.4321 14.2206L53.6035 12.3921Z" fill="url(#paint7_linear)"/>
<path d="M43.2561 22.7387L38.083 27.912L39.9115 29.7407L45.0846 24.5674L43.2561 22.7387Z" fill="url(#paint8_linear)"/>
<path d="M49.7278 7.22317L44.542 12.4092L46.3705 14.2378L51.5564 9.05178L49.7278 7.22317Z" fill="url(#paint9_linear)"/>
<path d="M11.8419 5.54688H9.25586V8.13287H11.8419V5.54688Z" fill="url(#paint10_linear)"/>
<path d="M17.0142 5.54688H14.4282V8.13287H17.0142V5.54688Z" fill="url(#paint11_linear)"/>
<path d="M22.1871 5.54688H19.6011V8.13287H22.1871V5.54688Z" fill="url(#paint12_linear)"/>
<defs>
<linearGradient id="paint0_linear" x1="77.7971" y1="-18.3114" x2="91.6221" y2="86.5332" gradientUnits="userSpaceOnUse">
<stop stop-color="#2C5379"/>
<stop offset="1" stop-color="#0A2F53"/>
</linearGradient>
<linearGradient id="paint1_linear" x1="11.7482" y1="48.1288" x2="14.5689" y2="50.681" gradientUnits="userSpaceOnUse">
<stop stop-color="#2C5379"/>
<stop offset="1" stop-color="#0A2F53"/>
</linearGradient>
<linearGradient id="paint2_linear" x1="27.2676" y1="41.6635" x2="30.0048" y2="44.3111" gradientUnits="userSpaceOnUse">
<stop stop-color="#2C5379"/>
<stop offset="1" stop-color="#0A2F53"/>
</linearGradient>
<linearGradient id="paint3_linear" x1="22.0933" y1="37.7851" x2="24.8731" y2="40.3856" gradientUnits="userSpaceOnUse">
<stop stop-color="#2C5379"/>
<stop offset="1" stop-color="#0A2F53"/>
</linearGradient>
<linearGradient id="paint4_linear" x1="67.3548" y1="46.8392" x2="70.151" y2="49.4207" gradientUnits="userSpaceOnUse">
<stop stop-color="#2C5379"/>
<stop offset="1" stop-color="#0A2F53"/>
</linearGradient>
<linearGradient id="paint5_linear" x1="69.9404" y1="52.017" x2="72.7368" y2="54.5983" gradientUnits="userSpaceOnUse">
<stop stop-color="#2C5379"/>
<stop offset="1" stop-color="#0A2F53"/>
</linearGradient>
<linearGradient id="paint6_linear" x1="41.4916" y1="14.5073" x2="44.2713" y2="17.108" gradientUnits="userSpaceOnUse">
<stop stop-color="#2C5379"/>
<stop offset="1" stop-color="#0A2F53"/>
</linearGradient>
<linearGradient id="paint7_linear" x1="53.1317" y1="11.9204" x2="55.9114" y2="14.521" gradientUnits="userSpaceOnUse">
<stop stop-color="#2C5379"/>
<stop offset="1" stop-color="#0A2F53"/>
</linearGradient>
<linearGradient id="paint8_linear" x1="42.7843" y1="22.267" x2="45.605" y2="24.8192" gradientUnits="userSpaceOnUse">
<stop stop-color="#2C5379"/>
<stop offset="1" stop-color="#0A2F53"/>
</linearGradient>
<linearGradient id="paint9_linear" x1="49.2561" y1="6.75139" x2="52.0764" y2="9.30401" gradientUnits="userSpaceOnUse">
<stop stop-color="#2C5379"/>
<stop offset="1" stop-color="#0A2F53"/>
</linearGradient>
<linearGradient id="paint10_linear" x1="11.8419" y1="4.87969" x2="12.3694" y2="8.61387" gradientUnits="userSpaceOnUse">
<stop stop-color="#2C5379"/>
<stop offset="1" stop-color="#0A2F53"/>
</linearGradient>
<linearGradient id="paint11_linear" x1="17.0142" y1="4.87969" x2="17.5418" y2="8.61387" gradientUnits="userSpaceOnUse">
<stop stop-color="#2C5379"/>
<stop offset="1" stop-color="#0A2F53"/>
</linearGradient>
<linearGradient id="paint12_linear" x1="22.1871" y1="4.87969" x2="22.7146" y2="8.61387" gradientUnits="userSpaceOnUse">
<stop stop-color="#2C5379"/>
<stop offset="1" stop-color="#0A2F53"/>
</linearGradient>
</defs>
</svg>
