<svg id="Layer_11" data-name="Layer 11" xmlns="http://www.w3.org/2000/svg" viewBox="0 0 131 131"><defs><style>.cls-1{fill:#ef8429;}.cls-2{fill:#fff;}</style></defs><circle class="cls-1" cx="65.5" cy="65.57" r="47.9"/><path class="cls-2" d="M39.22,61.39A9.21,9.21,0,0,1,36.39,58a18.72,18.72,0,0,1-.91-2.06,16.15,16.15,0,0,1-.58-2.83,13.77,13.77,0,0,1,.76-6.75A9.83,9.83,0,0,1,39.16,42a14.18,14.18,0,0,1,4.35-2,11.45,11.45,0,0,1,3.13-.51c5.49-.09,11-.11,16.47-.16.33,0,1,.79,1.06,1.21,0,.19,0,.38,0,.57q0,22,0,44c0,.38.17.75-.16,1.2a1.79,1.79,0,0,1-1.7.7c-4.23,0-8.47,0-12.7,0-1.43,0-2.85-.41-4.28-.48a13,13,0,0,1-3.93-1.09,12.26,12.26,0,0,1-4.83-3.28,11.65,11.65,0,0,1-3.1-6.59,25.93,25.93,0,0,1-.4-3.8,11.42,11.42,0,0,1,2.77-7.63A27.57,27.57,0,0,1,39.22,61.39Zm15.45,5.25a37.48,37.48,0,0,0-6.88.32,5.47,5.47,0,0,0-3.32,1.7,5.75,5.75,0,0,0-.83,5.52,4.88,4.88,0,0,0,1.82,2.56,5.15,5.15,0,0,0,2.72,1.19c2,.14,4,.13,6,.17a2.89,2.89,0,0,0,.49-.07Zm0-18.64a2.44,2.44,0,0,0-.43,0,27.21,27.21,0,0,0-6.1.38,5.72,5.72,0,0,0-2.2,1,3,3,0,0,0-1,1.51,13.15,13.15,0,0,0-.17,2.81A4.47,4.47,0,0,0,48.11,58a20.55,20.55,0,0,0,6.45.42s.07-.06.11-.1Z"/><path class="cls-2" d="M88.5,64.57c.33.38.66.71.94,1.07a29.64,29.64,0,0,1,3.61,7c.64,1.59,1.44,3.11,2.13,4.69C96,79.15,96.7,81,97.48,82.8c.35.81.74,1.62,1.12,2.42A1.41,1.41,0,0,1,97.51,87c-2.94,0-5.89,0-8.83,0a.88.88,0,0,1-.67-.43c-.71-1.72-1.36-3.46-2.05-5.19Q85,79,84,76.64c-.77-1.9-1.53-3.81-2.34-5.7a4.69,4.69,0,0,0-3.6-2.87c-1.7-.33-1.71-.29-1.71,1.44V85.29c0,1.26-.44,1.71-1.67,1.71-2.15,0-4.3,0-6.46,0a1.51,1.51,0,0,1-1.49-1.52c0-.17,0-.34,0-.5V41.06a1.53,1.53,0,0,1,1.73-1.71c4.13,0,8.27,0,12.41,0a27.74,27.74,0,0,1,4.15.46,16.32,16.32,0,0,1,3.47.86,17.66,17.66,0,0,1,3.07,1.81,8.75,8.75,0,0,1,2.75,3.2,10.5,10.5,0,0,1,1,2.78A19.38,19.38,0,0,1,96,52.8a24.68,24.68,0,0,1-.67,4.39,9.86,9.86,0,0,1-2.13,4.15A9.65,9.65,0,0,1,89,64.26,5.08,5.08,0,0,0,88.5,64.57ZM76.37,48.25V58.87c0,.41.07.63.6.59,1.42-.1,2.86,0,4.27-.19a5.34,5.34,0,0,0,3.27-1.65A5.57,5.57,0,0,0,86,53.16a5,5,0,0,0-1.49-3.35,4.45,4.45,0,0,0-2.4-1.1C80.23,48.47,78.36,48.4,76.37,48.25Z"/></svg>