<svg id="Layer_13" data-name="Layer 13" xmlns="http://www.w3.org/2000/svg" xmlns:xlink="http://www.w3.org/1999/xlink" viewBox="0 0 131 131"><defs><style>.cls-1{fill:#ef8429;}</style><image id="image" width="43" height="67" xlink:href="C:%5CUsers%5CHYDR%5CDownloads%5Cmen.png"/></defs><path class="cls-1" d="M77.57,53.14V68H73.5A2.76,2.76,0,0,0,68,68h0a2.76,2.76,0,0,0-5.49,0H58.35l-8.09,1.59,8.09-3.44v-13Z"/><path class="cls-1" d="M79.77,67Zm0,0h0l0,0,0,0Z"/><path class="cls-1" d="M64.85,39.31c.62.13,1.25.23,1.86.39,3.41.9,6.85,1.7,10.2,2.75A14.7,14.7,0,0,1,83.8,47.7c.19.24.17.64.25,1-.37,0-.81.16-1.09,0A10,10,0,0,1,81.3,47.5a13.91,13.91,0,0,0-7.73-3,1.31,1.31,0,0,0-.48,0c-.67.25-1.34.54-2,.81A7.45,7.45,0,0,0,72.18,47c1,.91,2.06,1.73,1.83,3.28a1.17,1.17,0,0,1-.49.84c-.19.08-.6-.18-.85-.37-1-.77-1.89-1.56-2.82-2.35-1.48-1.27-2.92-2.58-4.46-3.78a4,4,0,0,0-2.12-.92,19,19,0,0,0-5.22.25,19.47,19.47,0,0,0-10.31,6.51,32.18,32.18,0,0,0-2.2,3.4,9.6,9.6,0,0,1,.19-2.23,11.38,11.38,0,0,1,1.38-3.17c3.43-4.85,7.92-8.11,14-8.94a3.93,3.93,0,0,0,.66-.22Z"/><path class="cls-1" d="M83.75,63a3.83,3.83,0,0,1-1.43-1.25c-1.09-1.64-2.31-3-4.62-2.61V68h1a2.76,2.76,0,0,1,5.48,0c.59,0,.93-.35.93-1C85.15,65.49,85.6,63.86,83.75,63Zm-5.36-.11V60.16c1.72-.08,2.64.75,3,2.72Z"/><path class="cls-1" d="M79.76,67h0l0,0Z"/><path class="cls-1" d="M46.84,71.59a14.66,14.66,0,0,0,7.88,5.14,28.66,28.66,0,0,0,11.44.66,1.93,1.93,0,0,0,1-.55c1-1,2.09-2,3.08-3,.76-.8,1.44-1.69,2.17-2.52a9.61,9.61,0,0,1,.76-.65c.27.35.79.75.74,1A9.93,9.93,0,0,1,73,74.34,15.37,15.37,0,0,1,71.81,76c-.47.74-.13,1.29.66,1.37a6.11,6.11,0,0,0,2.13-.16,13.58,13.58,0,0,0,7.09-4.29,9.14,9.14,0,0,1,1.4-1.31c.2-.14.58,0,.88,0,0,.29.12.65,0,.87A15.61,15.61,0,0,1,77.64,79c-1.56.82-3.17,1.54-4.75,2.31a11.16,11.16,0,0,1-8,.81c-3.17-.82-6.43-1.37-9.54-2.39a25.79,25.79,0,0,1-5.83-3A5.89,5.89,0,0,1,46.84,71.59Z"/><path class="cls-1" d="M76.9,75.74c0-.25,0-.47,0-.69l.15-.41a10.84,10.84,0,0,1,.82-1.59,5.48,5.48,0,0,1,1-.93l.33.24c-.12.63-.25,1.26-.38,1.9l.12.06c.2-.43.38-.87.58-1.29a7.75,7.75,0,0,1,.64-1.29,4.43,4.43,0,0,1,.74-.68,3.47,3.47,0,0,0,.37-.3,1.67,1.67,0,0,1,.11.34C81.89,73,79.28,74.8,76.9,75.74Z"/><path class="cls-1" d="M79.77,67h0l0,0,0,0h0Z"/><path class="cls-1" d="M76.45,46.07c.12-.15.32-.45.33-.44.69.44,1.35.91,2,1.37l0,0,.54,1.68c-1.56.31-1.71-1.18-2.47-1.77Z"/><path class="cls-1" d="M78.8,47c.1-.15.23-.45.3-.44a3.85,3.85,0,0,1,2.66,3.37,9.69,9.69,0,0,1-1.6-1.08A17.42,17.42,0,0,1,78.76,47Z"/><path class="cls-1" d="M76.45,46.07l.38.8-.17.85c-.29-.1-.68-.11-.84-.31-.51-.63-.93-1.34-1.38-2l.28-.37Z"/><path class="cls-1" d="M77.1,74.64l-.15.41-1.48,1.54-.35-.31c.34-1,.44-2.24,1.92-2.82Z"/><path class="cls-1" d="M83,68l0,0h0s0,0,0,0Z"/><path class="cls-1" d="M5.62,87.18C5.46,86.61,5.18,86,4.42,86a.93.93,0,0,0-1,1c0,.63.42.93,1.16,1.29S6.14,89,6.14,90a1.83,1.83,0,0,1-2,1.71,3.05,3.05,0,0,1-.91-.14,4.3,4.3,0,0,1-.45-.19c-.06-.18-.19-1-.25-1.41l.27-.08c.16.56.6,1.49,1.52,1.49a1,1,0,0,0,1-1c0-.65-.48-.95-1.17-1.31s-1.5-.76-1.5-1.73a1.7,1.7,0,0,1,1.9-1.62,3.81,3.81,0,0,1,1.17.21c0,.32.08.68.16,1.26Z"/><path class="cls-1" d="M12.91,86.06c-.52,0-.75.16-.79.53a11.06,11.06,0,0,0-.06,1.4v.7a3.26,3.26,0,0,1-.69,2.36,2.33,2.33,0,0,1-1.67.62,2.44,2.44,0,0,1-1.49-.43,2.46,2.46,0,0,1-.82-2.15V87c0-.82-.08-.86-.79-.92v-.27H9v.27c-.71,0-.79.1-.79.92v1.93c0,1.46.61,2.26,1.71,2.26,1.29,0,1.73-1,1.73-2.5V88a8,8,0,0,0-.08-1.43c0-.34-.25-.46-.87-.5v-.27h2.18Z"/><path class="cls-1" d="M16.57,87.18c-.15-.57-.43-1.21-1.19-1.21a.93.93,0,0,0-1,1c0,.63.41.93,1.15,1.29S17.1,89,17.1,90a1.83,1.83,0,0,1-2,1.71,3.05,3.05,0,0,1-.91-.14,4.3,4.3,0,0,1-.45-.19c-.06-.18-.19-1-.25-1.41l.27-.08c.15.56.6,1.49,1.52,1.49a1,1,0,0,0,1-1c0-.65-.48-.95-1.17-1.31s-1.5-.76-1.5-1.73a1.7,1.7,0,0,1,1.9-1.62,3.81,3.81,0,0,1,1.17.21c0,.32.08.68.16,1.26Z"/><path class="cls-1" d="M20.92,87.18c-.16-.57-.43-1.21-1.2-1.21a.94.94,0,0,0-1,1c0,.63.42.93,1.16,1.29S21.45,89,21.45,90a1.83,1.83,0,0,1-2.05,1.71,3.11,3.11,0,0,1-.91-.14,3.87,3.87,0,0,1-.44-.19A12.58,12.58,0,0,1,17.8,90l.27-.08c.15.56.59,1.49,1.52,1.49a1,1,0,0,0,1.05-1c0-.65-.49-.95-1.18-1.31S18,88.25,18,87.28a1.69,1.69,0,0,1,1.89-1.62,3.88,3.88,0,0,1,1.18.21c0,.32.08.68.15,1.26Z"/><path class="cls-1" d="M26.69,90.12c-.06.33-.23,1.15-.31,1.43H21.93V91.3c.82-.06.9-.15.9-.87V87c0-.82-.08-.84-.78-.9v-.27h4.1c0,.23.05.82.09,1.32l-.28,0a2.51,2.51,0,0,0-.3-.77c-.13-.19-.38-.25-1-.25H24c-.3,0-.32,0-.32.29v2h.83c.81,0,.87-.08,1-.68h.27v1.74h-.27c-.13-.65-.2-.69-1-.69h-.83v1.62c0,.42,0,.62.22.73a2.22,2.22,0,0,0,.92.1c.66,0,.94-.06,1.14-.29a2.77,2.77,0,0,0,.46-.85Z"/><path class="cls-1" d="M30.46,91.55V91.3c.57-.08.62-.17.46-.46s-.6-.93-1.2-1.84c-.46.68-.82,1.26-1.1,1.74s-.18.47.43.56v.25H26.93V91.3A1.46,1.46,0,0,0,28,90.78c.24-.28.73-.92,1.51-2.07-.47-.74-.9-1.38-1.23-1.89a1.27,1.27,0,0,0-1.19-.76v-.27h2.32v.27c-.54.07-.53.16-.41.38.29.46.62,1,1,1.56.39-.56.66-1,.9-1.39s.18-.47-.43-.55v-.27h2.13v.27a1.48,1.48,0,0,0-1.28.68c-.21.26-.53.7-1.12,1.55.51.77,1,1.52,1.46,2.18A1.41,1.41,0,0,0,33,91.3v.25Z"/><path class="cls-1" d="M40.58,87.22a2.09,2.09,0,0,0-.31-.83c-.15-.2-.31-.27-1-.27h-.61v4.32c0,.7.07.8.93.86v.25H36.91V91.3c.83-.06.91-.15.91-.86V86.12h-.53c-.78,0-1,.09-1.09.27a2.43,2.43,0,0,0-.31.83h-.27c0-.57.08-1.16.1-1.65h.19c.14.22.25.22.52.22H40.1a.49.49,0,0,0,.47-.22h.19c0,.41.05,1.09.09,1.62Z"/><path class="cls-1" d="M44.32,91.55V91.3c.57-.08.64-.16.52-.52s-.29-.79-.48-1.3h-2c-.15.41-.27.75-.38,1.1-.2.54-.12.64.56.72v.25h-2V91.3c.59-.09.72-.15,1-.94l1.9-4.62.31-.08q.87,2.36,1.77,4.7c.29.78.41.88,1,.94v.25Zm-.89-4.67h0c-.29.73-.57,1.49-.84,2.2h1.66Z"/><path class="cls-1" d="M47.13,91.55V91.3c.73-.06.81-.11.81-.87v-3.5c0-.77-.08-.82-.81-.87v-.27H49.6v.27c-.74,0-.82.1-.82.87v3.5c0,.76.08.81.82.87v.25Z"/><path class="cls-1" d="M54.77,90.12c-.06.31-.25,1.16-.34,1.43H50.26V91.3c.77-.06.85-.12.85-.89V86.93c0-.77-.06-.82-.81-.87v-.27h2.45v.27c-.71,0-.8.1-.8.87v3.45c0,.48,0,.65.21.74a1.94,1.94,0,0,0,.84.12A1.28,1.28,0,0,0,54,91a2.4,2.4,0,0,0,.49-.88Z"/><path class="cls-1" d="M58.42,85.66a3,3,0,0,1,3,2.94,3,3,0,0,1-3.16,3.09,3,3,0,0,1-3.06-3,3.05,3.05,0,0,1,3.18-3.07Zm-.2.33c-1,0-2,.83-2,2.51s1,2.86,2.26,2.86c1,0,2-.81,2-2.53S59.42,86,58.23,86Z"/><path class="cls-1" d="M67.53,91.63l-.32,0a1.69,1.69,0,0,1-1.53-.81c-.31-.43-.6-1-.88-1.39-.16-.26-.32-.37-.78-.37h-.26v1.39c0,.74.09.81.81.87v.25H62.12V91.3c.73-.06.82-.13.82-.87V86.91c0-.75-.08-.8-.78-.85v-.27h2.32A2.57,2.57,0,0,1,66,86.1a1.3,1.3,0,0,1,.6,1.16,1.63,1.63,0,0,1-1.15,1.51c.16.29.53.87.8,1.27a7.84,7.84,0,0,0,.73.94,1.18,1.18,0,0,0,.64.4Zm-3.36-2.88a1.45,1.45,0,0,0,1-.26,1.24,1.24,0,0,0,.49-1.09,1.19,1.19,0,0,0-1.3-1.3.87.87,0,0,0-.48.09c-.06,0-.1.15-.1.38v2.18Z"/><path class="cls-1" d="M72.52,90.12c-.06.33-.23,1.15-.31,1.43H67.76V91.3c.82-.06.9-.15.9-.87V87c0-.82-.08-.84-.78-.9v-.27H72c0,.23,0,.82.09,1.32l-.28,0a2.28,2.28,0,0,0-.3-.77c-.13-.19-.38-.25-1-.25h-.67c-.3,0-.32,0-.32.29v2h.83c.81,0,.87-.08,1-.68h.27v1.74h-.27c-.13-.65-.2-.69-1-.69H69.5v1.62c0,.42,0,.62.22.73a2.28,2.28,0,0,0,.93.1c.66,0,.93-.06,1.13-.29a2.77,2.77,0,0,0,.46-.85Z"/><path class="cls-1" d="M75.76,85.79a3.76,3.76,0,0,1,2.6.76,2.59,2.59,0,0,1,.77,1.91A2.82,2.82,0,0,1,78,90.82a4.65,4.65,0,0,1-2.75.73H73V91.3c.78-.06.86-.11.86-.87V86.92c0-.76-.08-.8-.78-.85v-.28ZM74.7,90.35c0,.7.31.87,1,.87a2.41,2.41,0,0,0,2.5-2.62,2.35,2.35,0,0,0-1-2.09,2.91,2.91,0,0,0-1.61-.41,1.49,1.49,0,0,0-.72.12c-.09.06-.12.17-.12.52Z"/><path class="cls-1" d="M87.71,91.63l-.32,0a1.67,1.67,0,0,1-1.52-.81c-.31-.43-.61-1-.88-1.39-.16-.26-.32-.37-.79-.37H84v1.39c0,.74.08.81.81.87v.25H82.31V91.3c.73-.06.81-.13.81-.87V86.91c0-.75-.07-.8-.78-.85v-.27h2.32a2.53,2.53,0,0,1,1.47.31,1.3,1.3,0,0,1,.6,1.16,1.62,1.62,0,0,1-1.14,1.51c.16.29.53.87.8,1.27a6.92,6.92,0,0,0,.73.94,1.15,1.15,0,0,0,.64.4Zm-3.36-2.88a1.47,1.47,0,0,0,1-.26,1.23,1.23,0,0,0,.48-1.09,1.19,1.19,0,0,0-1.29-1.3.91.91,0,0,0-.49.09c-.06,0-.09.15-.09.38v2.18Z"/><path class="cls-1" d="M92.71,90.12c-.06.33-.24,1.15-.32,1.43H88V91.3c.82-.06.9-.15.9-.87V87c0-.82-.08-.84-.79-.9v-.27h4.11c0,.23,0,.82.08,1.32l-.27,0a2.8,2.8,0,0,0-.3-.77c-.13-.19-.38-.25-1-.25H90c-.29,0-.31,0-.31.29v2h.83c.81,0,.87-.08,1-.68h.28v1.74H91.5c-.12-.65-.19-.69-1-.69h-.83v1.62c0,.42,0,.62.21.73a2.3,2.3,0,0,0,.93.1c.66,0,.93-.06,1.14-.29a2.77,2.77,0,0,0,.46-.85Z"/><path class="cls-1" d="M98.33,91.55V91.3c.74-.08.77-.14.76-1.07l0-3.55h0L96.81,91.5h-.18l-2-4.7h0l-.13,2.49a12.48,12.48,0,0,0,0,1.46c0,.41.23.47.83.53v.27H93.11v-.27c.52,0,.7-.17.77-.52s.11-.69.18-1.64l.13-1.78c.08-1.15,0-1.2-.79-1.28v-.27H95l2,4.36,2.08-4.36h1.59v.27c-.79.07-.85.1-.82,1l.09,3.2c0,.93,0,1,.84,1.07v.25Z"/><path class="cls-1" d="M104.54,85.66a2.94,2.94,0,0,1,3,2.94,3,3,0,0,1-3.16,3.09,3,3,0,0,1-3-3,3,3,0,0,1,3.17-3.07Zm-.2.33c-1,0-2,.83-2,2.51s1,2.86,2.26,2.86c1,0,1.95-.81,1.95-2.53s-1-2.84-2.22-2.84Z"/><path class="cls-1" d="M114.16,86.06c-.61.07-.74.16-1.1,1-.25.58-1.19,2.78-1.89,4.62h-.31c-.61-1.62-1.38-3.53-1.89-4.79-.27-.66-.42-.75-1-.79v-.28h2.31v.27c-.66.07-.67.15-.53.54.25.64.93,2.37,1.5,3.79h0c.5-1.2,1.14-2.82,1.42-3.63.18-.52.13-.62-.61-.7v-.27h2.06Z"/><path class="cls-1" d="M117.11,91.55V91.3c.56-.08.64-.16.52-.52s-.29-.79-.49-1.3H115.2c-.15.41-.27.75-.39,1.1-.19.54-.12.64.57.72v.25h-2V91.3c.58-.09.71-.15,1-.94l1.9-4.62.32-.08c.58,1.57,1.16,3.14,1.76,4.7.29.78.42.88,1,.94v.25Zm-.89-4.67h0c-.29.73-.58,1.49-.85,2.2H117Z"/><path class="cls-1" d="M124.39,90.12c-.06.31-.25,1.16-.34,1.43h-4.18V91.3c.78-.06.86-.12.86-.89V86.93c0-.77-.06-.82-.81-.87v-.27h2.45v.27c-.72,0-.8.1-.8.87v3.45c0,.48,0,.65.21.74a1.94,1.94,0,0,0,.84.12,1.28,1.28,0,0,0,1-.29,2.4,2.4,0,0,0,.49-.88Z"/><path class="cls-1" d="M128,87.18c-.16-.57-.44-1.21-1.2-1.21a.93.93,0,0,0-1,1c0,.63.42.93,1.16,1.29s1.57.79,1.57,1.76a1.83,1.83,0,0,1-2,1.71,3.11,3.11,0,0,1-.91-.14c-.23-.08-.35-.15-.45-.19a13,13,0,0,1-.24-1.41l.27-.08c.15.56.59,1.49,1.52,1.49a1,1,0,0,0,1-1c0-.65-.49-.95-1.18-1.31S125,88.25,125,87.28a1.69,1.69,0,0,1,1.89-1.62,3.88,3.88,0,0,1,1.18.21c0,.32.07.68.15,1.26Z"/><path class="cls-1" d="M65.23,66.31a2,2,0,1,0,2,2A2,2,0,0,0,65.23,66.31Zm0,3.13a1.1,1.1,0,1,1,1.1-1.1A1.1,1.1,0,0,1,65.23,69.44Z"/><path class="cls-1" d="M81.47,66.31a2,2,0,1,0,2,2A2,2,0,0,0,81.47,66.31Zm0,3.13a1.1,1.1,0,1,1,1.1-1.1A1.1,1.1,0,0,1,81.47,69.44Z"/><path class="cls-1" d="M70.73,66.31a2,2,0,1,0,2,2A2,2,0,0,0,70.73,66.31Zm0,3.13a1.1,1.1,0,1,1,1.1-1.1A1.1,1.1,0,0,1,70.73,69.44Z"/><path class="cls-1" d="M82.93,68s0,0,0,0h0l0,0ZM81,71.06a2.59,2.59,0,0,0,.48,0,1.67,1.67,0,0,0-.11-.34A3.47,3.47,0,0,1,81,71.06ZM79.77,67h0l0,0,0,0,0,.1,0-.1h0Z"/><use transform="translate(44.6 56.27) scale(0.22)" xlink:href="#image"/><use transform="translate(44.6 56.27) scale(0.22)" xlink:href="#image"/></svg>