<svg id="Layer_13_copy" data-name="Layer 13 copy" xmlns="http://www.w3.org/2000/svg" viewBox="0 0 131 131"><defs><style>.cls-1{fill:#ef8429;}</style></defs><path class="cls-1" d="M9,63.64c-.21-.73-.56-1.55-1.54-1.55a1.19,1.19,0,0,0-1.28,1.23c0,.8.53,1.19,1.48,1.65s2,1,2,2.27A2.35,2.35,0,0,1,7,69.43a3.61,3.61,0,0,1-1.17-.19A3.28,3.28,0,0,1,5.29,69,16.91,16.91,0,0,1,5,67.19l.35-.1c.19.72.76,1.91,1.95,1.91a1.24,1.24,0,0,0,1.34-1.34c0-.82-.62-1.21-1.51-1.67s-1.92-1-1.92-2.23a2.18,2.18,0,0,1,2.44-2.07,4.89,4.89,0,0,1,1.5.27c.05.4.1.87.21,1.62Z"/><path class="cls-1" d="M18.34,62.2c-.68,0-1,.21-1,.68a17.17,17.17,0,0,0-.07,1.8v.89a4.14,4.14,0,0,1-.89,3,3,3,0,0,1-2.14.8,3.09,3.09,0,0,1-1.91-.55,3.13,3.13,0,0,1-1.06-2.76V63.38c0-1.05-.1-1.1-1-1.18v-.34h3.12v.34c-.91.06-1,.13-1,1.18v2.48c0,1.87.78,2.9,2.2,2.9,1.65,0,2.21-1.32,2.21-3.21v-.87a11.09,11.09,0,0,0-.09-1.83c-.06-.44-.33-.59-1.13-.65v-.34h2.81Z"/><path class="cls-1" d="M23,63.64c-.2-.73-.56-1.55-1.54-1.55a1.19,1.19,0,0,0-1.28,1.23c0,.8.53,1.19,1.48,1.65s2,1,2,2.27a2.35,2.35,0,0,1-2.62,2.19A3.81,3.81,0,0,1,19.35,69,16.91,16.91,0,0,1,19,67.19l.35-.1c.19.72.76,1.91,1.95,1.91a1.24,1.24,0,0,0,1.34-1.34c0-.82-.62-1.21-1.5-1.67s-1.92-1-1.92-2.23a2.17,2.17,0,0,1,2.43-2.07,5,5,0,0,1,1.51.27c0,.4.1.87.2,1.62Z"/><path class="cls-1" d="M28.62,63.64c-.2-.73-.56-1.55-1.54-1.55a1.19,1.19,0,0,0-1.28,1.23c0,.8.53,1.19,1.48,1.65s2,1,2,2.27a2.35,2.35,0,0,1-2.62,2.19A3.81,3.81,0,0,1,24.93,69a16.91,16.91,0,0,1-.32-1.81l.35-.1c.19.72.76,1.91,1.95,1.91a1.24,1.24,0,0,0,1.34-1.34c0-.82-.62-1.21-1.51-1.67s-1.91-1-1.91-2.23a2.17,2.17,0,0,1,2.43-2.07,4.89,4.89,0,0,1,1.5.27c0,.4.11.87.21,1.62Z"/><path class="cls-1" d="M36,67.41c-.08.42-.3,1.47-.4,1.84H29.91v-.33c1.05-.08,1.15-.18,1.15-1.12V63.35c0-1-.1-1.07-1-1.15v-.34h5.27c0,.3.06,1,.11,1.69l-.36,0a3,3,0,0,0-.38-1c-.17-.25-.49-.33-1.29-.33h-.86c-.38,0-.41,0-.41.37V65.2h1.07c1,0,1.12-.09,1.27-.86h.35v2.23h-.35c-.17-.83-.25-.9-1.27-.9H32.14v2.09c0,.54.07.8.28.94a2.89,2.89,0,0,0,1.19.13c.85,0,1.2-.08,1.46-.37a3.72,3.72,0,0,0,.59-1.1Z"/><path class="cls-1" d="M40.86,69.25v-.33c.73-.1.79-.22.58-.58s-.76-1.2-1.53-2.36c-.59.87-1.06,1.61-1.41,2.23s-.24.6.55.71v.33H36.32v-.33a1.89,1.89,0,0,0,1.4-.66,32.39,32.39,0,0,0,1.93-2.66l-1.58-2.43a1.63,1.63,0,0,0-1.53-1v-.34h3v.34c-.7.09-.69.2-.53.48.36.6.79,1.24,1.31,2,.5-.72.84-1.25,1.15-1.78s.23-.61-.55-.71v-.34h2.73v.34a1.88,1.88,0,0,0-1.64.88c-.28.33-.68.89-1.44,2,.65,1,1.3,2,1.88,2.81a1.81,1.81,0,0,0,1.63,1v.33Z"/><path class="cls-1" d="M54.54,69.35l-.42,0a2.18,2.18,0,0,1-1.95-1c-.4-.56-.78-1.25-1.13-1.79-.21-.33-.41-.47-1-.47H49.7V67.8c0,1,.11,1,1,1.12v.33H47.6v-.33c.94-.08,1-.16,1-1.12V63.3c0-1-.1-1-1-1.1v-.34h3a3.24,3.24,0,0,1,1.89.4,1.67,1.67,0,0,1,.77,1.49,2.06,2.06,0,0,1-1.47,1.92c.2.38.68,1.12,1,1.64a8,8,0,0,0,.94,1.2,1.48,1.48,0,0,0,.81.52Zm-4.32-3.7a2,2,0,0,0,1.27-.32,1.63,1.63,0,0,0,.62-1.4,1.53,1.53,0,0,0-1.66-1.67,1.19,1.19,0,0,0-.62.1c-.08.07-.13.2-.13.49v2.8Z"/><path class="cls-1" d="M61,67.41c-.08.42-.31,1.47-.41,1.84h-5.7v-.33c1-.08,1.15-.18,1.15-1.12V63.35c0-1-.1-1.07-1-1.15v-.34h5.27c0,.3.06,1,.1,1.69l-.35,0a3.27,3.27,0,0,0-.38-1c-.18-.25-.49-.33-1.29-.33h-.87c-.38,0-.4,0-.4.37V65.2h1.06c1,0,1.12-.09,1.27-.86h.35v2.23H59.4c-.16-.83-.25-.9-1.27-.9H57.07v2.09c0,.54.06.8.28.94a2.87,2.87,0,0,0,1.19.13c.84,0,1.19-.08,1.46-.37a4,4,0,0,0,.59-1.1Z"/><path class="cls-1" d="M68.16,69.25v-.33c.94-.09,1-.17,1-1.36l0-4.57h0l-2.84,6.19H66l-2.61-6h0l-.17,3.19c0,.94,0,1.42,0,1.88s.3.61,1.06.69v.34H61.47v-.34c.67-.07.89-.23,1-.68a19.65,19.65,0,0,0,.23-2.1l.17-2.29c.1-1.48,0-1.54-1-1.64v-.34h2l2.64,5.59,2.67-5.59h2v.34c-1,.09-1.08.13-1,1.25l.11,4.11c0,1.19.07,1.27,1.08,1.36v.33Z"/><path class="cls-1" d="M76.14,61.69A3.77,3.77,0,0,1,80,65.46a3.87,3.87,0,0,1-4,4,3.79,3.79,0,0,1-3.92-3.8,3.9,3.9,0,0,1,4.07-3.94Zm-.26.43c-1.31,0-2.55,1.06-2.55,3.21S74.57,69,76.24,69c1.3,0,2.5-1,2.5-3.24,0-2.38-1.32-3.64-2.85-3.64Z"/><path class="cls-1" d="M88.48,62.2c-.79.09-1,.21-1.41,1.25-.32.74-1.53,3.57-2.43,5.92h-.4c-.78-2.08-1.77-4.53-2.42-6.14-.35-.85-.55-1-1.25-1v-.35h3v.34c-.84.09-.85.19-.67.7.32.82,1.19,3,1.92,4.86h0c.64-1.54,1.45-3.62,1.81-4.66.23-.67.17-.79-.78-.9v-.34h2.65Z"/><path class="cls-1" d="M92.26,69.25v-.33c.72-.1.82-.2.67-.66l-.62-1.67h-2.5c-.19.52-.35,1-.5,1.42-.24.69-.15.82.73.91v.33H87.47v-.33c.76-.11.92-.19,1.33-1.2l2.44-5.93.41-.1c.74,2,1.49,4,2.26,6,.37,1,.53,1.12,1.29,1.2v.33Zm-1.14-6h0c-.37.94-.73,1.91-1.08,2.83h2.12Z"/><path class="cls-1" d="M101.61,67.42c-.08.38-.32,1.48-.44,1.83H95.81v-.33c1-.07,1.1-.15,1.1-1.14V63.32c0-1-.08-1.06-1-1.12v-.34H99v.34c-.92.06-1,.13-1,1.12v4.42c0,.62.05.84.27,1a2.61,2.61,0,0,0,1.08.14,1.65,1.65,0,0,0,1.29-.36,3.34,3.34,0,0,0,.63-1.13Z"/><path class="cls-1" d="M111,67.42c-.08.38-.32,1.48-.43,1.83h-5.37v-.33c1-.07,1.1-.15,1.1-1.14V63.32c0-1-.08-1.06-1-1.12v-.34h3.15v.34c-.92.06-1,.13-1,1.12v4.42c0,.62,0,.84.27,1a2.63,2.63,0,0,0,1.08.14,1.63,1.63,0,0,0,1.29-.36,3,3,0,0,0,.63-1.13Z"/><path class="cls-1" d="M117.13,63.69a2.6,2.6,0,0,0-.4-1.06c-.19-.27-.39-.35-1.28-.35h-.79v5.54c0,.9.1,1,1.2,1.1v.33h-3.44v-.33c1.07-.07,1.17-.19,1.17-1.1V62.28h-.68c-1,0-1.25.11-1.41.35a3.78,3.78,0,0,0-.39,1.06h-.35c0-.73.11-1.49.13-2.12h.25c.17.29.32.29.66.29h4.71a.61.61,0,0,0,.6-.29h.25c0,.52.06,1.4.12,2.08Z"/><path class="cls-1" d="M121.7,61.86a4.81,4.81,0,0,1,3.34,1,3.34,3.34,0,0,1,1,2.45,3.6,3.6,0,0,1-1.46,3,5.93,5.93,0,0,1-3.52.94h-2.89v-.33c1-.07,1.1-.14,1.1-1.11v-4.5c0-1-.1-1-1-1.1v-.35Zm-1.35,5.85c0,.9.39,1.11,1.25,1.11a3.1,3.1,0,0,0,3.21-3.36,3,3,0,0,0-1.32-2.68,3.7,3.7,0,0,0-2.06-.52,2,2,0,0,0-.94.15c-.11.08-.14.22-.14.66Z"/></svg>