<svg id="Layer_17" data-name="Layer 17" xmlns="http://www.w3.org/2000/svg" viewBox="0 0 131 131"><defs><style>.cls-1{fill:#ef8429;}</style></defs><path class="cls-1" d="M42.12,51.34a5.43,5.43,0,0,1,1.22,3.85v2.72a5.43,5.43,0,0,1-1.22,3.85,4.77,4.77,0,0,1-3.67,1.32H36.89v7.86H33.61V50h4.84A4.77,4.77,0,0,1,42.12,51.34Zm-5.23,8.75h1.56a1.55,1.55,0,0,0,1.21-.45,2.31,2.31,0,0,0,.4-1.52V55a2.33,2.33,0,0,0-.4-1.52A1.55,1.55,0,0,0,38.45,53H36.89Z"/><path class="cls-1" d="M51.65,70a14.35,14.35,0,0,1-.06-1.61V65.08a3.22,3.22,0,0,0-.51-2,2,2,0,0,0-1.64-.61H48.3v8.52H45V50h5a5.05,5.05,0,0,1,3.7,1.18,5,5,0,0,1,1.17,3.63v1.65q0,3.23-2.16,4.24a3,3,0,0,1,1.68,1.6,6.89,6.89,0,0,1,.51,2.85V68.4a14.14,14.14,0,0,0,.06,1.45,3.68,3.68,0,0,0,.29,1.09H51.89A4.81,4.81,0,0,1,51.65,70ZM48.3,59.43h1.29a2,2,0,0,0,1.48-.5,2.41,2.41,0,0,0,.49-1.71V55.16a2.65,2.65,0,0,0-.4-1.64A1.53,1.53,0,0,0,49.89,53H48.3Z"/><path class="cls-1" d="M58,51.16a4.82,4.82,0,0,1,3.71-1.37,4.81,4.81,0,0,1,3.7,1.37A5.46,5.46,0,0,1,66.74,55V65.92a5.44,5.44,0,0,1-1.29,3.88,4.81,4.81,0,0,1-3.7,1.38A4.82,4.82,0,0,1,58,69.8a5.48,5.48,0,0,1-1.28-3.88V55A5.5,5.5,0,0,1,58,51.16Zm3.71,17c1.13,0,1.7-.69,1.7-2.06V54.83c0-1.37-.57-2.06-1.7-2.06S60,53.46,60,54.83v11.3C60,67.5,60.61,68.19,61.75,68.19Z"/><path class="cls-1" d="M83,65.92a5.54,5.54,0,0,1-1.26,3.9,5.56,5.56,0,0,1-7.29,0,5.59,5.59,0,0,1-1.25-3.9V55a5.59,5.59,0,0,1,1.25-3.9,5.6,5.6,0,0,1,7.29,0A5.54,5.54,0,0,1,83,55v2H79.91V54.83c0-1.37-.57-2.06-1.7-2.06s-1.71.69-1.71,2.06v11.3c0,1.35.57,2,1.71,2s1.7-.68,1.7-2v-3H83Z"/><path class="cls-1" d="M88.3,50V68h5.41v3H85V50Z"/><path class="cls-1" d="M102.94,58.84v3H98.43V68h5.68v3h-9V50h9v3H98.43v5.83Z"/><path class="cls-1" d="M113.46,70.94l-.57-3.8h-4l-.57,3.8h-3L108.62,50h4.81l3.34,20.92Zm-1-6.64-1.58-10.57L109.28,64.3Z"/><path class="cls-1" d="M121.23,70.94h-3V50h4.12l3.38,12.52V50h2.92V70.94h-3.37l-4.09-15.15Z"/><path class="cls-1" d="M56.52,76.89a1.67,1.67,0,0,1-.18.79,1.65,1.65,0,0,1-.52.57,2.36,2.36,0,0,1-.82.35,4.47,4.47,0,0,1-1.16.13h-.56V80.4a.1.1,0,0,1,0,.08.23.23,0,0,1-.11,0l-.21,0h-.66l-.21,0a.23.23,0,0,1-.11,0,.13.13,0,0,1,0-.08V75.68a.34.34,0,0,1,.13-.29.54.54,0,0,1,.33-.09h2l.52.06a2.78,2.78,0,0,1,.61.17,2,2,0,0,1,.53.32,1.31,1.31,0,0,1,.33.45A1.4,1.4,0,0,1,56.52,76.89ZM55.09,77a.76.76,0,0,0-.13-.46.83.83,0,0,0-.3-.26,1.34,1.34,0,0,0-.39-.11l-.41,0h-.58V77.9h.61a1.75,1.75,0,0,0,.55-.07.88.88,0,0,0,.36-.19.71.71,0,0,0,.21-.3A.91.91,0,0,0,55.09,77Z"/><path class="cls-1" d="M62.36,80.15a.9.9,0,0,1,.08.23.12.12,0,0,1,0,.13.34.34,0,0,1-.2,0h-.82a1.06,1.06,0,0,1-.22,0,.23.23,0,0,1-.11-.05.22.22,0,0,1,0-.08l-.46-1.06H58l-.43,1a.19.19,0,0,1-.05.09.2.2,0,0,1-.11.06.87.87,0,0,1-.21,0h-.74a.38.38,0,0,1-.19-.06.14.14,0,0,1,0-.13,1.11,1.11,0,0,1,.07-.23l2.08-4.66a.41.41,0,0,1,.07-.11.23.23,0,0,1,.13-.06.88.88,0,0,1,.26,0h.91a1,1,0,0,1,.28,0,.26.26,0,0,1,.15.06.32.32,0,0,1,.07.13ZM59.28,76.3h0l-1,2.23h1.91Z"/><path class="cls-1" d="M68.29,80.41a.11.11,0,0,1,0,.08s0,0-.1.05l-.22,0h-.76a.87.87,0,0,1-.21,0,.19.19,0,0,1-.1,0,.2.2,0,0,1-.06-.09l-.6-1.17a3.59,3.59,0,0,0-.21-.35,1.47,1.47,0,0,0-.23-.26,1.08,1.08,0,0,0-.3-.16,1.46,1.46,0,0,0-.38,0h-.43v2a.13.13,0,0,1,0,.08.28.28,0,0,1-.11,0l-.21,0h-.66l-.22,0a.19.19,0,0,1-.1,0,.1.1,0,0,1,0-.08V75.63a.27.27,0,0,1,.12-.25.47.47,0,0,1,.29-.08h2.18l.31,0a3.14,3.14,0,0,1,.73.15,1.69,1.69,0,0,1,.55.29,1.15,1.15,0,0,1,.35.41,1.25,1.25,0,0,1,.12.56,1.28,1.28,0,0,1-.09.48,1.36,1.36,0,0,1-.25.39,1.58,1.58,0,0,1-.41.29,2.83,2.83,0,0,1-.56.21,1.2,1.2,0,0,1,.28.13,1.22,1.22,0,0,1,.25.2,1.78,1.78,0,0,1,.22.26,3.37,3.37,0,0,1,.21.34l.56,1a2,2,0,0,1,.11.23A.26.26,0,0,1,68.29,80.41Zm-1.76-3.56a.65.65,0,0,0-.15-.44.84.84,0,0,0-.49-.25l-.24,0h-1V77.6h.7a2.59,2.59,0,0,0,.51,0,1.19,1.19,0,0,0,.36-.16.6.6,0,0,0,.22-.23A.67.67,0,0,0,66.53,76.85Z"/><path class="cls-1" d="M73.67,75.74c0,.07,0,.14,0,.2a1,1,0,0,1,0,.13.16.16,0,0,1-.07.07.11.11,0,0,1-.08,0H71.78V80.4a.13.13,0,0,1,0,.08.23.23,0,0,1-.11,0l-.21,0h-.66l-.21,0a.27.27,0,0,1-.12,0,.13.13,0,0,1,0-.08V76.17H68.73a.12.12,0,0,1-.09,0,.16.16,0,0,1-.07-.07.42.42,0,0,1,0-.13,1.23,1.23,0,0,1,0-.2,1.06,1.06,0,0,1,0-.21.49.49,0,0,1,0-.14.16.16,0,0,1,.07-.07s0,0,.09,0h4.74a.11.11,0,0,1,.08,0,.16.16,0,0,1,.07.07,1.27,1.27,0,0,1,0,.14S73.67,75.65,73.67,75.74Z"/><path class="cls-1" d="M80,80.18a.29.29,0,0,1,0,.16.43.43,0,0,1-.11.12.36.36,0,0,1-.17.07.63.63,0,0,1-.19,0h-.59a1.42,1.42,0,0,1-.31,0,.77.77,0,0,1-.25-.1,1,1,0,0,1-.21-.21,2.87,2.87,0,0,1-.24-.33l-1.67-2.45q-.15-.22-.3-.48c-.1-.17-.19-.33-.27-.49h0c0,.19,0,.39,0,.58s0,.4,0,.6V80.4a.09.09,0,0,1,0,.07l-.1.06-.19,0h-.61l-.19,0-.09-.06a.09.09,0,0,1,0-.07V75.68a.33.33,0,0,1,.15-.29A.63.63,0,0,1,75,75.3h.73l.33,0a.85.85,0,0,1,.24.09.83.83,0,0,1,.21.17c.06.07.12.16.19.26L78,77.76l.22.35.22.33.2.34a3.37,3.37,0,0,1,.19.32h0c0-.19,0-.39,0-.59s0-.4,0-.59V75.45a.11.11,0,0,1,0-.07.19.19,0,0,1,.1,0,.77.77,0,0,1,.2,0h.6a.6.6,0,0,1,.18,0,.13.13,0,0,1,.09,0,.11.11,0,0,1,0,.07Z"/><path class="cls-1" d="M85.46,80.13a1.15,1.15,0,0,1,0,.2.5.5,0,0,1,0,.13l-.06.07-.09,0H81.88a.55.55,0,0,1-.29-.08.28.28,0,0,1-.11-.26V75.63a.26.26,0,0,1,.11-.25.47.47,0,0,1,.29-.08h3.36a.11.11,0,0,1,.08,0,.09.09,0,0,1,.06.07.4.4,0,0,1,0,.13,1,1,0,0,1,0,.2,1,1,0,0,1,0,.19.4.4,0,0,1,0,.13.11.11,0,0,1-.06.07.11.11,0,0,1-.08,0h-2.4v1.29h2a.15.15,0,0,1,.09,0,.22.22,0,0,1,.06.07.34.34,0,0,1,0,.12,1.21,1.21,0,0,1,0,.2,1.09,1.09,0,0,1,0,.19.34.34,0,0,1,0,.12.14.14,0,0,1-.06.07l-.09,0h-2v1.48h2.42a.16.16,0,0,1,.09,0,.14.14,0,0,1,.06.07.34.34,0,0,1,0,.12A1.21,1.21,0,0,1,85.46,80.13Z"/><path class="cls-1" d="M91.66,80.41a.19.19,0,0,1,0,.08.3.3,0,0,1-.1.05l-.23,0h-.76l-.2,0a.23.23,0,0,1-.11,0,.19.19,0,0,1,0-.09l-.61-1.17a3.59,3.59,0,0,0-.21-.35,1.47,1.47,0,0,0-.23-.26,1,1,0,0,0-.29-.16,1.54,1.54,0,0,0-.39,0H88v2s0,0,0,.08a.23.23,0,0,1-.11,0l-.21,0H87l-.21,0a.23.23,0,0,1-.11,0,.13.13,0,0,1,0-.08V75.63a.28.28,0,0,1,.11-.25.47.47,0,0,1,.29-.08h2.18l.31,0a3,3,0,0,1,.73.15,1.69,1.69,0,0,1,.55.29,1.06,1.06,0,0,1,.35.41,1.25,1.25,0,0,1,.12.56,1.28,1.28,0,0,1-.09.48,1.18,1.18,0,0,1-.25.39,1.58,1.58,0,0,1-.41.29,2.62,2.62,0,0,1-.56.21,1.28,1.28,0,0,1,.29.13,1.57,1.57,0,0,1,.25.2,2.75,2.75,0,0,1,.22.26A2.18,2.18,0,0,1,91,79l.57,1,.1.23A.3.3,0,0,1,91.66,80.41ZM89.9,76.85a.65.65,0,0,0-.15-.44.91.91,0,0,0-.5-.25l-.24,0H88V77.6h.69a2.44,2.44,0,0,0,.51,0,1,1,0,0,0,.36-.16.6.6,0,0,0,.22-.23A.68.68,0,0,0,89.9,76.85Z"/><path class="cls-1" d="M96.54,79a1.35,1.35,0,0,1-.19.73,1.68,1.68,0,0,1-.54.52,2.56,2.56,0,0,1-.79.32,4.25,4.25,0,0,1-1,.1,4.31,4.31,0,0,1-.64,0,4.88,4.88,0,0,1-.53-.11,3.3,3.3,0,0,1-.38-.13l-.22-.12a.29.29,0,0,1-.1-.16,1,1,0,0,1,0-.28,1.22,1.22,0,0,1,0-.21.39.39,0,0,1,0-.14.12.12,0,0,1,.06-.08l.09,0a.4.4,0,0,1,.2.07l.34.15.5.15a3.33,3.33,0,0,0,.67.06,2.09,2.09,0,0,0,.45,0,1.26,1.26,0,0,0,.33-.14.53.53,0,0,0,.21-.21.51.51,0,0,0,.07-.28.41.41,0,0,0-.12-.3,1,1,0,0,0-.32-.23,4,4,0,0,0-.46-.19l-.52-.18L93.17,78a2.52,2.52,0,0,1-.45-.3,1.3,1.3,0,0,1-.33-.41,1.22,1.22,0,0,1-.12-.56,1.24,1.24,0,0,1,.18-.67,1.35,1.35,0,0,1,.48-.47,2.12,2.12,0,0,1,.72-.28,3.46,3.46,0,0,1,.87-.1,3.87,3.87,0,0,1,.48,0l.45.08a2.74,2.74,0,0,1,.37.11,1,1,0,0,1,.21.1.45.45,0,0,1,.07.07l0,.07a.43.43,0,0,1,0,.12v.38a1.3,1.3,0,0,1,0,.13.16.16,0,0,1-.05.08l-.09,0a.62.62,0,0,1-.18,0l-.31-.13-.42-.12a2.22,2.22,0,0,0-.53,0,1.51,1.51,0,0,0-.39,0,1,1,0,0,0-.28.12.46.46,0,0,0-.16.18.43.43,0,0,0-.06.22.38.38,0,0,0,.13.3,1.14,1.14,0,0,0,.32.23,3.53,3.53,0,0,0,.47.19l.53.18.53.22a1.83,1.83,0,0,1,.46.3,1.26,1.26,0,0,1,.33.4A1.2,1.2,0,0,1,96.54,79Z"/><path class="cls-1" d="M102.84,80.4a.1.1,0,0,1,0,.08.23.23,0,0,1-.11,0l-.21,0h-.66l-.21,0a.28.28,0,0,1-.11,0,.13.13,0,0,1,0-.08V78.28H99V80.4s0,0,0,.08a.19.19,0,0,1-.11,0l-.2,0h-.67l-.21,0a.23.23,0,0,1-.11,0,.13.13,0,0,1,0-.08v-5a.11.11,0,0,1,0-.07.23.23,0,0,1,.11-.05l.21,0h.67a.88.88,0,0,1,.2,0,.19.19,0,0,1,.11.05.13.13,0,0,1,0,.07v1.93h2.51V75.44a.11.11,0,0,1,0-.07.28.28,0,0,1,.11-.05.87.87,0,0,1,.21,0h.66a.87.87,0,0,1,.21,0,.23.23,0,0,1,.11.05.09.09,0,0,1,0,.07Z"/><path class="cls-1" d="M105.68,80.4s0,0,0,.08a.23.23,0,0,1-.11,0l-.21,0h-.66l-.21,0a.23.23,0,0,1-.11,0,.1.1,0,0,1,0-.08v-5a.09.09,0,0,1,0-.07.23.23,0,0,1,.11-.05l.21,0h.66a.87.87,0,0,1,.21,0,.23.23,0,0,1,.11.05.13.13,0,0,1,0,.07Z"/><path class="cls-1" d="M111.75,76.89a1.67,1.67,0,0,1-.18.79,1.72,1.72,0,0,1-.51.57,2.5,2.5,0,0,1-.83.35,4.47,4.47,0,0,1-1.16.13h-.56V80.4a.1.1,0,0,1,0,.08.23.23,0,0,1-.11,0l-.2,0h-.67l-.21,0a.23.23,0,0,1-.11,0,.13.13,0,0,1,0-.08V75.68a.34.34,0,0,1,.13-.29.56.56,0,0,1,.33-.09h2l.52.06a2.78,2.78,0,0,1,.61.17,2,2,0,0,1,.53.32,1.19,1.19,0,0,1,.33.45A1.4,1.4,0,0,1,111.75,76.89Zm-1.43.08a.76.76,0,0,0-.13-.46.83.83,0,0,0-.3-.26,1.34,1.34,0,0,0-.39-.11l-.41,0h-.58V77.9h.61a1.75,1.75,0,0,0,.55-.07.88.88,0,0,0,.36-.19.63.63,0,0,0,.21-.3A.91.91,0,0,0,110.32,77Z"/><path class="cls-1" d="M18.73,42.08a7.63,7.63,0,1,0,7.63,7.62A7.63,7.63,0,0,0,18.73,42.08Zm0,14a6.36,6.36,0,1,1,6.36-6.37A6.37,6.37,0,0,1,18.73,56.07Z"/><path class="cls-1" d="M23.35,49.71h-1a4.69,4.69,0,0,0-1.27-2.39,4.57,4.57,0,0,0-2.4-1.27v-1a4.61,4.61,0,0,1,4.62,4.62Z"/><path class="cls-1" d="M21.35,73.67A7.63,7.63,0,1,0,29,81.3,7.63,7.63,0,0,0,21.35,73.67Zm0,14a6.36,6.36,0,1,1,6.36-6.36A6.36,6.36,0,0,1,21.35,87.66Z"/><path class="cls-1" d="M26,81.3H25a4.73,4.73,0,0,0-1.27-2.39,4.61,4.61,0,0,0-2.4-1.27v-1A4.64,4.64,0,0,1,26,81.3Z"/><path class="cls-1" d="M8.21,61.15a5.91,5.91,0,1,0,5.91,5.91A5.91,5.91,0,0,0,8.21,61.15ZM8.21,72a4.93,4.93,0,1,1,4.93-4.93A4.93,4.93,0,0,1,8.21,72Z"/><path class="cls-1" d="M11.79,67.06h-.74a3.63,3.63,0,0,0-1-1.85,3.55,3.55,0,0,0-1.86-1v-.74a3.57,3.57,0,0,1,3.58,3.57Z"/></svg>