<svg id="Layer_18" data-name="Layer 18" xmlns="http://www.w3.org/2000/svg" viewBox="0 0 131 131"><defs><style>.cls-1{fill:#1b3d65;}</style></defs><path class="cls-1" d="M64.85,61.87V60.58c0-.18.09-.32.3-.31s.25.17.26.34a2.08,2.08,0,0,1,0,.5c-.36,1.65.82,2.4,1.95,3.36,0-1.66,0-3.18,0-4.7a.73.73,0,0,0-.28-.56c-.89-.87-1.81-1.74-2.67-2.65-.62-.64-1.38-.33-2.08-.44-.38-.06-1.08.3-1.08-.29s.71-.23,1.1-.28a7,7,0,0,1,.82,0,14.11,14.11,0,0,0-1.73-1.85c-.4-.44-.85-.84-1.27-1.27-.18-.2-.62-.37-.32-.7s.57,0,.75.22c.92.88,1.8,1.82,2.71,2.72l4,3.92c0-1.26,0-2.28,0-3.3,0-.23-.24-.34-.4-.49-1-.93-2.07-1.86-3.09-2.8-.19-.18-.66-.32-.32-.67s.54.07.74.25c.86.76,1.71,1.53,2.56,2.3a4.91,4.91,0,0,0,.52.35V49.81c0-.3-.26-.4-.43-.56-.6-.55-1.23-1.07-1.83-1.62-.13-.12-.46-.18-.24-.47s.41-.21.63,0l1.89,1.62V45.25c0-.21,0-.43,0-.65a.25.25,0,0,1,.28-.24.24.24,0,0,1,.26.25c0,.19,0,.38,0,.57,0,1.64,0,3.28,0,4.92,0,.28-.15.69.13.82s.49-.25.7-.45l1.41-1.36c.15-.15.32-.36.54-.14s0,.44-.15.62l-1.81,1.77c-.92.91-1,1.31-.68,2.81l2.7-2.66a7.94,7.94,0,0,1,.59-.57c.23-.19.46-.67.78-.34s-.17.61-.37.81c-1.05,1.07-2.11,2.13-3.23,3.13a1.79,1.79,0,0,0-.62,1.57c0,.82,0,1.64,0,2.46,0,.15,0,.35.16.42s.29-.1.41-.21.33-.36.52-.51a2.54,2.54,0,0,0,1.23-2.7.92.92,0,0,1,0-.33c0-.24-.11-.63.3-.63s.25.37.27.59,0,.33,0,.49-.08.42.15.51.33-.15.46-.27l3.6-3.45c.14-.14.28-.26.43-.39s.36-.42.62-.17-.07.48-.23.64c-.87.86-1.77,1.7-2.66,2.55l-4.83,4.65a1,1,0,0,0-.45.74c0,1.06,0,2.13,0,3.19a.51.51,0,0,0,.14.35c.18.13.28-.08.4-.18a2.36,2.36,0,0,0,1.11-2.36c0-.24-.19-.72.24-.74s.24.48.33.75-.08.37.14.61l2.13-2a1.08,1.08,0,0,0,.21-.85c0-.41,0-.82,0-1.23,0-.21.08-.4.33-.37s.26.18.26.36c0,.35,0,.7,0,1.24.6-.54,1.08-1,1.56-1.37.21-.17.42-.59.72-.23s-.13.48-.31.65c-2.14,2-4.28,4.06-6.44,6a2.21,2.21,0,0,0-.86,1.9c.08,1.25,0,2.51,0,3.77,0,.26.09.64-.3.64s-.27-.4-.28-.64c0-1.36,0-2.73,0-4.09a1.21,1.21,0,0,0-.43-1c-2.43-2.27-4.84-4.55-7.26-6.83-.22-.21-.55-.44-.25-.73s.49.09.68.26l1.83,1.76c.13.12.27.31.49.21s.07-.3.12-.44c.14-.39-.34-1.13.33-1.13.47,0,.29.78.21,1.14C62.79,60.63,63.9,61.14,64.85,61.87Z"/><path class="cls-1" d="M33.65,87.93a1.66,1.66,0,0,1-1.76-.4c-1.88-1.71-3.78-3.39-5.68-5.07-.15-.14-.3-.41-.52-.33s-.16.42-.16.64c0,1.53,0,3.06,0,4.59,0,.31.1.67-.45.67s-.42-.37-.42-.67c0-4,0-7.92,0-11.88,0-.58.16-.75.73-.73,1.44,0,2.89,0,4.34,0a3.53,3.53,0,1,1,.11,7.06c-.6,0-1.2,0-1.8,0-.26,0-.61-.13-.72.22s.23.4.4.56Zm-8.13-9.74h0c0,.69,0,1.37,0,2s.13.77.72.75c1.12,0,2.24,0,3.36,0a2.64,2.64,0,0,0,2.89-2.64,2.73,2.73,0,0,0-2.85-2.73c-1.12,0-2.24,0-3.35,0-.65,0-.8.24-.76.82S25.52,77.6,25.52,78.19Z"/><path class="cls-1" d="M43.49,88a1.56,1.56,0,0,1-1.69-.46c-1.87-1.71-3.78-3.38-5.68-5.06-.15-.13-.28-.41-.53-.27s-.12.39-.12.6c0,1.53,0,3.06,0,4.59,0,.29.14.68-.41.68s-.44-.37-.44-.67c0-4,0-8,0-12,0-.52.19-.66.67-.65,1.53,0,3.06,0,4.59,0a3.46,3.46,0,0,1,3.43,3.46,3.41,3.41,0,0,1-3.37,3.58c-.71,0-1.42,0-2.13,0-.2,0-.48-.12-.58.16s.18.36.33.5l5.38,4.79C43.13,87.49,43.4,87.65,43.49,88Zm-8.06-9.67c0,.71,0,1.42,0,2.13,0,.43.12.57.55.56,1.23,0,2.46,0,3.69,0a2.64,2.64,0,0,0,2.77-2.53,2.7,2.7,0,0,0-2.59-2.82c-1.28-.07-2.57,0-3.85,0-.42,0-.59.13-.57.56C35.45,76.86,35.43,77.57,35.43,78.28Z"/><path class="cls-1" d="M7,88.05c-1.83,0-3.41-.4-4.39-2.13a2.71,2.71,0,0,1-.33-1.25c0-.26,0-.49.37-.48s.49,0,.58.39a3.07,3.07,0,0,0,3.24,2.61,5.58,5.58,0,0,0,2.65-.34,2.59,2.59,0,0,0,1.7-2.7A2.92,2.92,0,0,0,8.45,82c-.72-.11-1.46-.11-2.2-.16a4,4,0,0,1-2.92-1.6,3.13,3.13,0,0,1,.29-4.11,5,5,0,0,1,7.14.36,2.7,2.7,0,0,1,.55,1.26c0,.25.27.62-.24.69s-.55,0-.66-.48a3.1,3.1,0,0,0-3-2.27,3.52,3.52,0,0,0-3.57,1.65,2.61,2.61,0,0,0,1.89,3.53A9.61,9.61,0,0,0,8,81a3.92,3.92,0,0,1,3.39,2c1.16,2.14-.14,4.51-2.73,5A12.48,12.48,0,0,1,7,88.05Z"/><path class="cls-1" d="M128.71,87.9a1.59,1.59,0,0,1-1.84-.52c-1.78-1.61-3.58-3.2-5.37-4.79-.23-.2-.47-.38-.77-.61a3.64,3.64,0,0,0-.1,1.38c0,1.36,0,2.73,0,4.09,0,.34,0,.6-.47.58s-.37-.31-.37-.58c0-4,0-8.08,0-12.13,0-.43.16-.58.58-.57,1.61,0,3.22,0,4.83,0a3.6,3.6,0,0,1,3.29,3.56,3.49,3.49,0,0,1-3.41,3.48c-.74,0-1.48,0-2.22,0-.18,0-.42-.11-.52.1s.14.38.29.51l5.32,4.75C128.17,87.39,128.4,87.62,128.71,87.9Zm-8.08-9.61c0,.74,0,1.47,0,2.21,0,.35.12.48.47.47,1.37,0,2.73,0,4.09,0a2.67,2.67,0,0,0,2.4-2.74A2.73,2.73,0,0,0,125,75.62c-1.28,0-2.56,0-3.83,0-.45,0-.57.17-.56.58C120.64,76.87,120.63,77.58,120.63,78.29Z"/><path class="cls-1" d="M96.18,81.34c0-2,0-3.93,0-5.89,0-.54.15-.74.69-.71,1.44.09,2.88-.1,4.32.13a6.52,6.52,0,0,1,5.68,7.24A6.6,6.6,0,0,1,100.18,88c-1.09,0-2.18,0-3.27,0-.57,0-.75-.14-.74-.72,0-2,0-4,0-6Zm.85.07h0v2.94c0,.19,0,.39,0,.58.06.72-.31,1.66.17,2.12s1.41.1,2.14.14a6.68,6.68,0,0,0,3.93-.84,5.78,5.78,0,0,0,2.59-6.43,5.71,5.71,0,0,0-5.29-4.24c-.93-.05-1.86,0-2.78-.05-.59,0-.78.13-.77.71C97,78,97,79.72,97,81.41Z"/><path class="cls-1" d="M78.48,88a6.64,6.64,0,0,1-4.86-11,6.18,6.18,0,0,1,6.74-2A6.38,6.38,0,0,1,85,79.67c.07.24.43.65-.12.81s-.63-.23-.75-.62a5.46,5.46,0,0,0-4.58-4.13A5.69,5.69,0,0,0,73,80.15,5.85,5.85,0,0,0,77,87,5.78,5.78,0,0,0,84.1,83a1.34,1.34,0,0,0,.09-.31c0-.42.33-.47.65-.43.5,0,.24.43.2.63a6.59,6.59,0,0,1-4.93,4.93A6.85,6.85,0,0,1,78.48,88Z"/><path class="cls-1" d="M22.5,79.27c0-1.31,0-2.62,0-3.93,0-.33,0-.59.44-.61s.47.27.46.58c0,2.6.08,5.2,0,7.79a5.15,5.15,0,0,1-10.29-.34q0-3.67,0-7.37c0-.27-.15-.62.37-.63s.48.31.48.64c0,2.48,0,5,0,7.45a4.29,4.29,0,0,0,8.45,1.08,15.61,15.61,0,0,0,.11-3.35c0-.43,0-.87,0-1.31Z"/><path class="cls-1" d="M118.53,87.75c.06.18,0,.26-.19.26s-.62.11-.78-.27a9.43,9.43,0,0,1-.68-1.57c-.45-2-1.66-2.73-3.69-2.43a19.75,19.75,0,0,1-3.44,0,.85.85,0,0,0-.92.61c-.43,1-.9,2-1.35,3.07a3,3,0,0,1-.16.37.6.6,0,0,1-.8.17c-.31-.13,0-.39,0-.55q1.59-3.69,3.19-7.36c.7-1.6,1.42-3.19,2.12-4.79.12-.28.22-.54.62-.53s.46.24.57.49l5.36,12.21C118.44,87.55,118.48,87.65,118.53,87.75Zm-6.08-11.64-2.76,6.3c-.19.45.11.5.45.5h4.75c.45,0,.5-.15.33-.54C114.32,80.37,113.43,78.35,112.45,76.11Z"/><path class="cls-1" d="M44.58,81.37c0-2,0-3.93,0-5.9,0-.59.18-.73.75-.72,2.37,0,4.74,0,7.12,0,.32,0,.68-.08.67.45s-.4.42-.69.42c-2.1,0-4.21,0-6.31,0-.52,0-.72.12-.7.67,0,1.34,0,2.68,0,4,0,.58.2.67.7.66,1.45,0,2.9,0,4.34,0,.3,0,.6-.06.59.43s-.33.41-.61.41c-1.47,0-3,0-4.42,0-.47,0-.61.14-.6.6,0,1.39,0,2.79,0,4.18,0,.53.19.63.66.62,2.1,0,4.2,0,6.31,0,.31,0,.76-.17.73.45s-.46.36-.74.36c-2.37,0-4.74,0-7.12,0-.55,0-.68-.18-.67-.7C44.59,85.35,44.58,83.36,44.58,81.37Z"/><path class="cls-1" d="M86.36,81.39c0-2,0-3.93,0-5.89,0-.55.12-.77.72-.76,2.38,0,4.75,0,7.12,0,.29,0,.71-.14.71.41s-.41.42-.7.42c-2.07,0-4.15,0-6.22,0-.62,0-.8.18-.78.79q.06,2,0,3.93c0,.55.18.69.7.68,1.36,0,2.73,0,4.09,0,.3,0,.78-.22.8.39s-.52.42-.83.43c-1.34,0-2.68,0-4,0-.56,0-.77.14-.75.72,0,1.29,0,2.57,0,3.85,0,.63.14.85.8.84,2.07,0,4.14,0,6.22,0,.31,0,.69-.11.68.43s-.42.4-.7.4c-2.35,0-4.7,0-7,0-.69,0-.81-.24-.81-.85C86.38,85.27,86.37,83.33,86.36,81.39Z"/><path class="cls-1" d="M76.91,50.44c1.11,0,1.11,0,1.38-1.29A15.6,15.6,0,0,1,80,44.58a3.87,3.87,0,0,1,1.59-1.49c.58-.3.81-.16.82.47,0,.9,0,1.8,0,2.69a1.56,1.56,0,0,0,.76,1.44c1.67,1,1.47,2.19,1.13,3.6a1,1,0,0,0,.2,1c.56.47.83,1.15,1.37,1.61s.25.73-.27.82a4.49,4.49,0,0,1-2.55-.44,19.58,19.58,0,0,1-2.63-1.5c-.21-.13-.64-.73-.71.18,0,.32-.29.06-.41,0A31.87,31.87,0,0,1,76.91,50.44Zm2.46.79c0,.08-.36.13-.07.22a5.42,5.42,0,0,0,1.21.15,14.17,14.17,0,0,0,2.26.2c.26,0,.62,0,.63-.36S83,51,82.75,51a10.84,10.84,0,0,0-1.14,0,1.68,1.68,0,0,1,1.51-.3c.35.06.53-.1.69-.41s0-.54-.27-.74c-.58-.48-1.06,0-1.57.16l-.08-.09c.23-.4.67-.52,1-.74.17-.11.38-.23.31-.43s-.32-.27-.54-.21-.66.21-1,.31c-.1-.24.34-.3.16-.54-.37,0-.56.31-.88.39a.43.43,0,0,0-.12-.11,2.53,2.53,0,0,1,.89-.8.54.54,0,0,0,.29-.54c0-.29-.28-.36-.55-.34l-.12-.13c.17-.23.35-.47.5-.71a.55.55,0,0,0-.05-.6c-.15-.3-.34-.11-.53-.07h0c-.13-.13,0-.25,0-.37s.45-.52.16-.7-.5.2-.67.42a12.85,12.85,0,0,0-2.43,6c-.08.46.2.52.55.5l.41,0C79.46,51,79.41,51.12,79.37,51.23Zm5.35,2.64v-.25c.12-.46-.08-.65-.53-.68-.25,0-.79.11-.25-.45.26-.27-.09-.48-.32-.45-1.21.13-2.38-.33-3.86-.17.5.13.42.46.61.57a12.66,12.66,0,0,0,4.26,1.94c.19,0,.44.1.51-.11S84.88,54,84.72,53.87ZM79.63,51.8l.13,0s-.05-.07-.08-.08a.56.56,0,0,0-.12,0Z"/><path class="cls-1" d="M54.19,74.87a1.06,1.06,0,0,1,1.42.44c1.13,1.61,2.31,3.17,3.44,4.78.34.47.52.48.87,0,1.12-1.58,2.31-3.1,3.4-4.7a1.1,1.1,0,0,1,1.36-.57c.09.29-.15.44-.29.63-1.34,1.85-2.68,3.71-4,5.54a2,2,0,0,0-.4,1.28c0,1.67,0,3.33,0,5,0,.31.18.75-.43.76s-.46-.41-.46-.73c0-1.69,0-3.39,0-5.08a1.88,1.88,0,0,0-.39-1.2C57.15,79,55.69,76.94,54.19,74.87Z"/><path class="cls-1" d="M81.12,51.14a3.26,3.26,0,0,1-1.75.09c0-.11.09-.21,0-.3L80.47,50h0c.28.22-.77.44,0,.66h0c-.06.3-.38.24-.54.42.41.28.79-.1,1.18-.05A.57.57,0,0,1,81.12,51.14Z"/><path class="cls-1" d="M78.37,50.48l.38-1s.07,0,.09,0-.11.38.16.45h0c0,.33.46.7-.07,1C78.57,51,78.29,50.94,78.37,50.48Z"/><path class="cls-1" d="M83.75,53.6l1,0v.25a1.32,1.32,0,0,1-1-.27Z"/><path class="cls-1" d="M79.83,47.87a5.28,5.28,0,0,1,1-2.3h0a5.34,5.34,0,0,1-1,2.29Z"/><path class="cls-1" d="M79.16,48.68a1.13,1.13,0,0,1-.32.87s0-.06-.09,0c.14-.27.06-.65.41-.81Z"/><path class="cls-1" d="M81.29,45.08a.39.39,0,0,1-.33.33h0c0-.24,0-.41.33-.32Z"/><path class="cls-1" d="M80.47,50c0-.19.11-.33.32-.34l0,0a.29.29,0,0,1-.34.31Z"/><path class="cls-1" d="M81.28,46.71l-.14.16-.09-.08.23-.2A.24.24,0,0,1,81.28,46.71Z"/><path class="cls-1" d="M81.12,51.14a.57.57,0,0,0,0-.13l.52,0C81.54,51.28,81.29,51.11,81.12,51.14Z"/><path class="cls-1" d="M79.91,48.59s.06,0,0,.06a.67.67,0,0,1-.06.12s-.05,0,0-.05A1.12,1.12,0,0,1,79.91,48.59Z"/><path class="cls-1" d="M80.48,47.87l0-.28s.06,0,.07,0a.18.18,0,0,1-.13.23Z"/><path class="cls-1" d="M80.47,47.86c0,.14,0,.27-.16.33h0c0-.14,0-.28.17-.32Z"/><path class="cls-1" d="M81.13,50.36a.24.24,0,0,1-.33.13h0a.29.29,0,0,1,.3-.16Z"/><path class="cls-1" d="M80.47,50.65a.37.37,0,0,1,.33-.16h0c0,.22-.19.17-.33.16Z"/><path class="cls-1" d="M81.79,49.84c-.07.1-.13.21-.28.17a.15.15,0,0,1,0-.12c0-.12.15-.1.26-.08Z"/><path class="cls-1" d="M79,50c0-.13,0-.27.17-.33h0c0,.13,0,.28-.17.32Z"/><path class="cls-1" d="M79.32,49.34c0,.13,0,.28-.16.33h0a.32.32,0,0,1,.16-.33Z"/><path class="cls-1" d="M81.44,48.86l-.09-.08s.08-.08.12-.09.07.05.1.08Z"/><path class="cls-1" d="M80.8,45.57c0-.1,0-.2.17-.16h0c0,.1,0,.18-.16.16Z"/><path class="cls-1" d="M81.1,50.33l.14-.14.05.06-.16.11Z"/><path class="cls-1" d="M80.79,49.66l.09-.12c.1.1,0,.12-.07.14Z"/><path class="cls-1" d="M79.81,47.86l-.06.14-.06-.09.14,0Z"/><path class="cls-1" d="M79.33,49.34l.07-.12c.07.11,0,.12-.08.12Z"/><path class="cls-1" d="M81.22,49.15l0,0,.06-.09s0,0,0,.06S81.24,49.13,81.22,49.15Z"/><path class="cls-1" d="M82,49.69l-.18.15,0,0c0-.12,0-.16.13-.21Z"/><path class="cls-1" d="M80.81,47.21l0-.11c.11.09,0,.08,0,.11Z"/><path class="cls-1" d="M81.28,46.71a.24.24,0,0,0,0-.12.19.19,0,0,1,.1-.13.69.69,0,0,0,.11.13Z"/><path class="cls-1" d="M80.83,48.54l-.14.1,0-.17Z"/><path class="cls-1" d="M80.8,47.21l0,.12c-.11-.1,0-.1.06-.12Z"/><path class="cls-1" d="M79.16,48.69l.07-.13c.06.09,0,.14-.07.12Z"/><path class="cls-1" d="M80.74,48.47l.12-.2a.43.43,0,0,1,.12.11l-.15.16Z"/><path class="cls-1" d="M80.31,48.19l-.06.14-.07-.08.13-.06Z"/><path class="cls-1" d="M79.41,48.33a.07.07,0,0,1,0,0l0,0s0,0,0,0S79.42,48.32,79.41,48.33Z"/><path class="cls-1" d="M82.77,53.11l-.21-.06.07-.07.14.13Z"/><path class="cls-1" d="M82.77,53.11c.14,0,.28,0,.33.16h0c-.14,0-.27,0-.32-.17Z"/><path class="cls-1" d="M83.43,53.44c-.15,0-.28,0-.34-.16h0c.14,0,.27,0,.32.17Z"/><path class="cls-1" d="M83.75,53.6c-.14,0-.27,0-.32-.16h0c.14,0,.27,0,.33.16Z"/></svg>