<svg id="Layer_19" data-name="Layer 19" xmlns="http://www.w3.org/2000/svg" viewBox="0 0 131 131"><defs><style>.cls-1{fill:#ef8429;}</style></defs><path class="cls-1" d="M80.09,73.8c1.44-1.34,2.23-3,3.79-3.9a3.37,3.37,0,0,0,1.32-3.1c0-2.57,0-5.15,0-7.72a3,3,0,0,1,1.49-2.95c.88-.53,1.68-1.21,2.54-1.79.71-.49.78-.9,0-1.41-.93-.62-1.8-1.35-2.75-2a2.66,2.66,0,0,1-1.26-2.51c0-2.62,0-5.24,0-7.86a5.86,5.86,0,0,0-.2-1.73A2.65,2.65,0,0,0,83.09,37c-.78-.16-1.14.74-1.56,1.29-1.31,1.66-2.62,3.33-3.87,5a2.13,2.13,0,0,1-2,.85c-4.74,0-9.48,0-14.21,0a2.87,2.87,0,0,0-2.29.84,3.43,3.43,0,0,1-5.06-.16,3.71,3.71,0,0,1,0-4.61A3.44,3.44,0,0,1,59.18,40a2.8,2.8,0,0,0,2.15.84c4.2,0,8.4,0,12.6,0a2.45,2.45,0,0,0,2.19-1c1.33-1.76,2.72-3.48,4.08-5.22,1.12-1.43,3.2-1.57,5-.33a7.09,7.09,0,0,1,3.35,6.38c0,2.21,0,4.42,0,6.63a1.91,1.91,0,0,0,.9,1.81c1.33.93,2.64,1.89,4,2.84,1.62,1.16,1.62,2.22,0,3.36C92.17,56.2,91,57.15,89.67,58a2.36,2.36,0,0,0-1.13,2.26c0,2.12,0,4.25,0,6.37C88.49,71.45,85.27,74.29,80.09,73.8Z"/><path class="cls-1" d="M45.76,62.81c0,1.35,0,2.71,0,4.06A4.17,4.17,0,0,0,46.27,69c.87,1.59,1.79,1.71,2.92.34,1.36-1.66,2.73-3.33,4-5.06a2.43,2.43,0,0,1,2.17-1.06c4.74,0,9.48,0,14.22,0a2.94,2.94,0,0,0,2.18-.82,3.38,3.38,0,0,1,5,.06,3.47,3.47,0,1,1-5.06,4.75,2.11,2.11,0,0,0-1.78-.76c-4.33,0-8.67,0-13,0a2.28,2.28,0,0,0-2,1c-1.45,1.9-3,3.73-4.44,5.63a1.85,1.85,0,0,1-2,.77,6.78,6.78,0,0,1-6-7q0-3.45,0-6.9a1.89,1.89,0,0,0-1-1.86c-1.42-.86-2.72-1.91-4.06-2.9s-1.36-2,0-3,2.53-1.89,3.85-2.75A2.48,2.48,0,0,0,42.45,47c-.05-2.3,0-4.61,0-6.91a6.63,6.63,0,0,1,7.37-6.7c.26,0,.59-.08.7.24s-.2.48-.4.64c-1.24,1-2,2.42-3.3,3.35a3,3,0,0,0-1.06,2.67c0,2.66-.05,5.32,0,8a2.85,2.85,0,0,1-1.45,2.81c-.89.53-1.67,1.24-2.53,1.8s-.82.89-.07,1.41,1.74,1.29,2.66,1.86a2.79,2.79,0,0,1,1.4,2.71c0,1.31,0,2.62,0,3.93Z"/><path class="cls-1" d="M63.88,73.93h-11c-.34,0-.8.16-1-.18s.21-.63.39-.93a3.93,3.93,0,0,1,3.91-2.2c5.86.15,11.73,0,17.6.09,2.53,0,4.46-.88,5.53-3.12a6.09,6.09,0,0,0-.88-6.85A5.13,5.13,0,0,0,74.12,59c-5.55,0-11.1,0-16.65,0a6,6,0,0,1-1.34-.08,1.45,1.45,0,0,1-1.24-1.66,1.35,1.35,0,0,1,1.32-1.44c.58,0,1.17,0,1.75,0,5.37,0,10.75.19,16.11-.05,6.58-.29,10.9,6.58,8.52,12.67a8.44,8.44,0,0,1-8.15,5.61c-3.52,0-7,0-10.56,0Z"/><path class="cls-1" d="M66.64,33.37c3.61,0,7.22,0,10.83,0,.47,0,1.13-.17,1.39.28s-.38.83-.6,1.25c-.74,1.42-1.9,1.73-3.45,1.71-6-.09-12.1,0-18.15,0A5.57,5.57,0,0,0,51,42.53a5.46,5.46,0,0,0,5.64,5.77c5.37,0,10.74,0,16.11,0a13.36,13.36,0,0,1,1.9.07,1.58,1.58,0,0,1-.14,3.15c-1.4,0-2.8,0-4.2,0-4.47,0-8.94-.08-13.41,0a8.21,8.21,0,0,1-8.19-4.88,9.24,9.24,0,0,1,.67-9.65,7.76,7.76,0,0,1,7-3.67c3.43,0,6.86,0,10.29,0Z"/><path class="cls-1" d="M9.29,97.61c-1.94,0-3.88,0-5.82,0-1.09,0-1.13-.59-1.12-1.39s-.07-1.55,1.11-1.54c3.12,0,6.23,0,9.34,0,1.11,0,2-.1,2-1.54s-.36-1.58-2-1.58c-2.26,0-4.52,0-6.77,0-2.44,0-3.54-1.13-3.59-3.56,0-.54,0-1.08,0-1.62.08-2.1,1.19-3.29,3.28-3.33,3.52-.07,7,0,10.56,0,1.15,0,1.31.62,1.32,1.56S17.15,86,16.08,86c-3,0-5.95,0-8.93,0-.78,0-1.43.14-1.54,1.11-.15,1.24.24,1.78,1.52,1.8,2.34,0,4.69,0,7,0,2.67,0,3.72,1,3.87,3.6a13.77,13.77,0,0,1,0,2,3,3,0,0,1-3,3c-1.89.07-3.79,0-5.68,0Z"/><path class="cls-1" d="M38,90.3c0-2,.05-4,0-6,0-1.26.67-1.34,1.64-1.34s1.71.07,1.65,1.33c0,1.08,0,2.16,0,3.24,0,.9.35,1.32,1.28,1.31,2.39,0,4.78,0,7.17,0,.91,0,1.19-.41,1.17-1.24,0-1.17,0-2.34,0-3.52S51.57,83,52.36,83s1.79-.25,1.8,1q0,6.28,0,12.58c0,1.42-1.19.88-1.94,1s-1.32-.12-1.28-1.08c0-1.22,0-2.43,0-3.65,0-.79-.32-1.17-1.12-1.17q-3.72,0-7.44,0c-.73,0-1,.35-1,1.08,0,1.27,0,2.53,0,3.79s-1,1-1.72,1.07S38,97.72,38,96.53c0-2.08,0-4.15,0-6.23Z"/><path class="cls-1" d="M29.82,97.54c-1.81,0-3.62.11-5.41,0-2.58-.19-3.86-1.42-4.12-4a24.66,24.66,0,0,1,.14-7,3.67,3.67,0,0,1,3.34-3.23c3.73-.49,7.49-.19,11.23-.2,1.14,0,.83,1,.88,1.63s-.12,1.42-1.15,1.41c-2.66,0-5.33,0-8,0s-3.27.54-3.33,3.22a24.5,24.5,0,0,0,.05,3c.16,1.65.79,2.25,2.44,2.28,2.8.06,5.6.07,8.4.06,1.17,0,1.7.4,1.61,1.67-.06,1-.34,1.38-1.35,1.34-1.58-.07-3.16,0-4.74,0Z"/><path class="cls-1" d="M89.32,97.57c-1.63,0-3.26.08-4.88,0A3.22,3.22,0,0,1,81,94.14a32.93,32.93,0,0,1,0-4.33c.15-2.36,1.18-3.47,3.56-3.58,2.79-.13,5.6-.09,8.4,0,1.75.06,2.46.88,2.65,2.64.41,3.77.31,3.89-3.41,3.92l-7,0c-.45,0-1,0-1.08.56a1.22,1.22,0,0,0,.68,1.35,4,4,0,0,0,2,.31c2.39,0,4.78,0,7.17,0,1.11,0,1.39.48,1.41,1.47s-.65,1.11-1.43,1.11h-4.6Zm-1-6.69h0c1,0,1.9,0,2.84,0,.7,0,1.53.19,1.48-1,0-1-.57-1.35-1.48-1.34-1.72,0-3.43,0-5.14,0a3.21,3.21,0,0,0-1.18.26,1.27,1.27,0,0,0-.77,1.43c.07.77.7.59,1.14.61C86.28,90.91,87.32,90.88,88.35,90.88Z"/><path class="cls-1" d="M113,89.87c0-2.21.06-4.42,0-6.62,0-1.25.7-1.22,1.57-1.25s1.41.17,1.47,1.23c.14,2.88.18,2.88,3.06,2.91,1.85,0,3.7,0,5.54.09,2.83.1,4,1.32,4,4.12,0,2,0,4,0,6,0,1.13-.56,1.32-1.52,1.31s-1.55-.12-1.51-1.3c.06-1.84,0-3.69,0-5.54,0-1.32-.69-1.88-1.93-1.89-2.21,0-4.42,0-6.62,0-.95,0-1.13.42-1.12,1.23,0,2.12,0,4.24,0,6.36,0,1.29-.79,1.15-1.61,1.18s-1.43-.15-1.39-1.25c.07-2.16,0-4.32,0-6.49Z"/><path class="cls-1" d="M73.1,92c0,1.49,0,3,0,4.46,0,1.14-.62,1.22-1.46,1.19s-1.8.21-1.78-1.17c0-2.89-.06-5.77,0-8.65,0-1.26-.31-1.82-1.66-1.73s-2.79,0-4.19,0c-1,0-1.2-.54-1.14-1.38S62.73,83,64,83q7.5,0,15,0c1.19,0,1.12.78,1.13,1.55s0,1.57-1.16,1.53c-1.53,0-3.07,0-4.6,0-.93,0-1.3.36-1.28,1.27,0,1.54,0,3.07,0,4.6Z"/><path class="cls-1" d="M105.59,97.52c-1.67,0-3.34.09-5,0a3.09,3.09,0,0,1-3.23-3.16,30.79,30.79,0,0,1,0-5,3.15,3.15,0,0,1,3.21-3.07c3.15-.31,6.31-.07,9.47-.1,1.08,0,.85.81.9,1.46s-.27,1.15-1.1,1.15c-2.48,0-5,0-7.44,0a1.78,1.78,0,0,0-2.05,1.93c-.26,4.82.35,4.37,3.81,4.35,1.81,0,3.61,0,5.42,0,1,0,1.43.35,1.43,1.41s-.6,1.15-1.39,1.14h-4.06Z"/></svg>