<svg id="Layer_2" data-name="Layer 2" xmlns="http://www.w3.org/2000/svg" viewBox="0 0 131 131"><defs><style>.cls-1{fill:#1b3d65;}</style></defs><path class="cls-1" d="M60.49,129.17c-1.35-.56-2.81-.43-4.21-.68C31.94,124.14,14.82,110.61,6,87.54-7.67,51.66,14.11,11.74,51.53,3.26a63.85,63.85,0,0,1,76.62,49.2,57,57,0,0,1,1.07,7.38c0,.17,0,.32.23.37v10.7c-.38.14-.24.49-.27.75-.28,2.55-.69,5.09-1.22,7.6-5.3,25.27-27.11,45.63-52.68,49.21a31.41,31.41,0,0,0-4.83.7Zm5.29-5.68a58.05,58.05,0,1,0-58.11-58A58,58,0,0,0,65.78,123.49Z"/><path class="cls-1" d="M110.65,92.44a52.86,52.86,0,0,1-19.86,19A48.21,48.21,0,0,1,82,115.24c-.67.22-1.09.41-1.13,1.3a2.93,2.93,0,0,1-2.69,2.66,71.5,71.5,0,0,1-18,.92,59.43,59.43,0,0,1-6.9-.88,2.85,2.85,0,0,1-2.58-2.87c0-.89-.61-.87-1.11-1A52.15,52.15,0,0,1,23.71,96.76c-1-1.35-1.93-2.78-3-4.32ZM75.16,116l.25.17c-.2.53-1.13.86-.66,1.55.28.42.9,0,1.37,0,.26,0,.65,0,.74-.3s-.11-.5-.52-.6,0-.36.09-.5a.89.89,0,0,0-.14-1.31,1.21,1.21,0,0,0-1.59.12.68.68,0,0,0-.31.74C74.52,116.14,74.89,116,75.16,116Zm-8.76.7.23.19-.81.77a.67.67,0,0,0-.24.67c.11.39.45.26.73.25s.74,0,1.11,0c.54,0,.5-.59.27-.66-.7-.21-.49-.41-.13-.75a.78.78,0,0,0,.17-.81c-.16-.66-.69-.78-1.26-.71s-1,.35-1,.82S66.07,116.67,66.4,116.66Zm2,.37c.06.69.24,1.42,1.22,1.44s1.27-.69,1.25-1.5-.24-1.52-1.24-1.53S68.41,116.08,68.42,117Zm-13.54.07c-.06,1,.79.64,1.26.8s.87-.19.5-.63,0-1.06.09-1.51c.1-.68.3-.62-.39-.79s-1.36-.14-1.32.91A7.12,7.12,0,0,1,54.88,117.1Zm3.68.28c-.19,0-.35.1-.41.05-.41-.34-.75-.18-.86.22s.33.43.58.51a1.16,1.16,0,0,0,1.45-.35c.55-.78-.21-1.12-.65-1.59.45-.07.91,0,.88-.52,0-.31-.4-.38-.67-.44a1.06,1.06,0,0,0-1.3.48C57.11,116.68,58.12,116.85,58.56,117.38Zm2,.14c.13.19-.44.81.37.92.29,0,.46,0,.5-.38.08-.69-.23-1.55.75-1.91a.4.4,0,0,0,0-.34,2,2,0,0,0-2-.25c-.7.29-.09.59.28.87S60.55,117.05,60.6,117.52Zm12.79-.2c-.06-.55-.14-1.16-.19-1.77,0-.35-.22-.37-.5-.35a1.62,1.62,0,0,0-1.18.79c-.14.18.16.46.26.46.89,0,.61.62.67,1.06s0,.66.54.59S73.45,117.73,73.39,117.32Zm-9.7.69c-.11-.26-.29-.5-.62-.43a.48.48,0,0,0-.38.55.45.45,0,0,0,.59.43A.5.5,0,0,0,63.69,118Z"/><path class="cls-1" d="M110.56,38.48H20.64C31.33,22.26,46,13.42,65.33,13.07A51.67,51.67,0,0,1,110.56,38.48Z"/><path class="cls-1" d="M24.63,66.48a11.09,11.09,0,0,1-10-6.05,11.42,11.42,0,0,1,.55-12.15c2.62-3.94,6.65-5.13,11.15-4.94,5.52.23,9.84,3.62,11,8.46C39.19,59.8,33.8,66.47,24.63,66.48Zm5-11.66c0-2.8-1.63-4.64-4.16-4.68s-4.27,1.88-4.3,4.6,1.74,4.8,4.21,4.84S29.66,57.65,29.66,54.82Z"/><path class="cls-1" d="M96.84,54.89V44.81c0-.38-.17-.86.55-.83,4,.13,8-.37,11.92.32,4.31.77,7.66,2.94,8.56,7.52.92,4.74,0,8.86-4,11.73a13.92,13.92,0,0,1-8.12,2.33c-2.65.05-5.31,0-8,0-.87,0-1-.29-1-1.06C96.86,61.53,96.84,58.21,96.84,54.89Zm7.22.09v2.11c0,2.66.15,2.78,2.84,2.25l.12,0c2.5-.52,3.61-1.91,3.63-4.54a4.15,4.15,0,0,0-3.5-4.31,13.15,13.15,0,0,0-2.34-.22c-.6,0-.78.16-.76.76C104.09,52.33,104.06,53.65,104.06,55Z"/><path class="cls-1" d="M60.74,65.89c-2.76,0-5.56,0-8.37,0-.59,0-.73-.47-1-.84-1.12-1.78-2.21-3.57-3.41-5.51-1.15,1.92-2.23,3.74-3.31,5.56-.25.43-.44.81-1.09.8-2.65,0-5.29,0-8.19,0,.92-1.36,1.73-2.57,2.55-3.77,1.54-2.25,3.06-4.52,4.66-6.74a1.27,1.27,0,0,0,0-1.81c-2.18-3-4.27-6-6.39-9-.09-.12-.16-.25-.37-.56h8.57c.48,0,.6.4.79.69,1,1.59,1.91,3.19,3,4.92.95-1.63,1.89-3.17,2.74-4.75A1.38,1.38,0,0,1,52.35,44c2.53,0,5.06,0,7.83,0-.45.65-.79,1.17-1.15,1.69-1.81,2.58-3.6,5.17-5.45,7.71a1.36,1.36,0,0,0,0,1.91c2.38,3.28,4.69,6.62,7,9.94C60.69,65.39,60.88,65.52,60.74,65.89Z"/><path class="cls-1" d="M80.16,54.92c0-3.32,0-6.64,0-10,0-.85.25-1,1-1,4.35,0,8.71,0,13.06,0,.84,0,1,.25,1,1q-.09,2.12,0,4.23c0,.72-.21.91-.9.9-2.11,0-4.23,0-6.34,0-.73,0-.9.22-.89.91s.09,1,.86.95c2-.06,3.9,0,5.85,0,.84,0,1,.25,1,1-.06,1.28-.06,2.57,0,3.85,0,.71-.19.92-.9.91-1.94-.05-3.89,0-5.84,0-.75,0-1,.16-1,.95s.21,1.06,1,1c2.24-.06,4.48,0,6.72,0,.74,0,1,.15,1,1-.07,1.45-.07,2.91,0,4.35,0,.81-.25,1-1,1q-6.9,0-13.8,0c-.73,0-.89-.23-.89-.92C80.18,61.63,80.16,58.27,80.16,54.92Z"/><path class="cls-1" d="M69.82,44c2.74,0,5.47,0,8.21,0,.68,0,.93.14.9.87-.06,1.53-.05,3.07,0,4.6,0,.69-.22.85-.85.82-1.2,0-2.41,0-3.6,0-.84,0-1,.25-1,1.05,0,4.47,0,8.95.05,13.43,0,1-.29,1.24-1.24,1.2q-2.55-.1-5.1,0c-.89,0-1.2-.16-1.18-1.14.06-4.43,0-8.87,0-13.3,0-.92-.14-1.34-1.18-1.24s-2.24,0-3.35,0c-.69,0-.84-.22-.82-.85,0-1.53.06-3.07,0-4.6,0-.78.29-.86.94-.85C64.35,44,67.09,44,69.82,44Z"/><path class="cls-1" d="M28.5,77.76c0-2.7,0-5.39,0-8.09,0-.78.21-1,1-1,3.4,0,6.8,0,10.2,0,.81,0,1,.27.94,1,0,2,0,2-2,2s-3.9,0-5.85,0c-.7,0-1,.18-.9.9.1,1.14-.46,2.63.22,3.35s2.11.17,3.22.2c1.33,0,2.66,0,4,0,.75,0,.94.25.86.92a3.72,3.72,0,0,0,0,1c.09.7-.18.91-.88.89-2.12,0-4.23,0-6.35,0-.76,0-1.13.11-1.06,1a18,18,0,0,1,0,3.11c-.08.9.31,1,1.06,1,2.36,0,4.73,0,7.09,0,.85,0,1.23.19,1.09,1.09a5.24,5.24,0,0,0,0,1.12c0,.49-.06.74-.65.74-3.74,0-7.47,0-11.2,0-.79,0-.74-.41-.74-.94Q28.51,81.88,28.5,77.76Z"/><path class="cls-1" d="M88.31,86.8c.67-1.54,1.31-3,2-4.54C92.1,78.07,94,73.9,95.71,69.67c.48-1.16,1.26-.88,2.08-1a1.4,1.4,0,0,1,1.65,1c2.4,5.68,4.86,11.34,7.37,17.16-1.15,0-2.21,0-3.26,0-.45,0-.64-.21-.79-.61-.34-.93-.82-1.81-1.12-2.75a.91.91,0,0,0-1.07-.73q-3.1,0-6.21,0c-.53,0-.88.11-1,.66a4,4,0,0,1-.24.57C91.86,87.17,91.86,87.17,88.31,86.8Zm6.45-6.88c1.66,0,3.19,0,4.72,0,.47,0,.69-.07.47-.63-.83-2.08-1.61-4.19-2.47-6.47Z"/><path class="cls-1" d="M48.73,87.39a8.64,8.64,0,0,1-5.82-2.1c-.4-.36-.49-.62,0-1a2.13,2.13,0,0,0,.26-.26c.49-.44.92-1.09,1.49-1.28s.91.64,1.42.94a4.71,4.71,0,0,0,4.15.59A2.48,2.48,0,0,0,52,82.1a2.19,2.19,0,0,0-1.33-2.19A22.84,22.84,0,0,0,47,78.58c-4.37-1.48-4.47-5.51-2.93-7.72,1.42-2,3.6-2.53,5.91-2.53a7.72,7.72,0,0,1,4.45,1.35c.56.39.89.73.18,1.26a.77.77,0,0,0-.17.19c-.76,1.07-1.45,1.7-2.81.54a3.37,3.37,0,0,0-3.77-.13,2.11,2.11,0,0,0-1.29,2,1.92,1.92,0,0,0,1.2,1.87c1,.44,2,.79,3,1.14,3.54,1.2,4.83,2.93,4.45,6-.35,2.78-2.67,4.64-6,4.82Z"/><path class="cls-1" d="M75.25,68.72c1,0,2,0,3.06,0,.68,0,.67.53.81.91,1.35,3.73,2.68,7.46,4,11.19.19.52.4,1,.68,1.78,1.4-3.87,2.73-7.51,4.05-11.15,1-2.77,1-2.77,4-2.72.12,0,.25,0,.55,0l-2,5c-1.66,4.14-3.34,8.27-5,12.42a.91.91,0,0,1-1.23.66c-.72-.16-1.72.59-2.16-.53q-3.43-8.64-6.83-17.28A1.93,1.93,0,0,1,75.25,68.72Z"/><path class="cls-1" d="M14.93,77.83c0-2.73,0-5.47,0-8.2,0-.68.15-.94.88-.93,3.32,0,6.63,0,9.94,0,.8,0,1,.25,1,1,0,2,0,2-2,2s-3.73,0-5.6,0c-.65,0-.86.2-.83.86a29.33,29.33,0,0,1,0,3.11c-.05.76.29.88.93.87,2,0,4,0,6,0,.84,0,1.12.24,1,1a3.35,3.35,0,0,0,0,1c.09.69-.25.82-.87.81-2,0-4.06,0-6.09,0-.74,0-1,.15-1,.94.07,1.86,0,3.73,0,5.6,0,.77-.13,1.07-1,1.06-2.38,0-2.38,0-2.38-2.37Z"/><path class="cls-1" d="M64.93,79.26c0,2.16,0,4.31,0,6.47,0,.87-.12,1.22-1.12,1.19-2.3-.07-2.3,0-2.3-2.34,0-3.94,0-7.88,0-11.82,0-.9-.26-1.12-1.11-1.07-1.2.07-2.41,0-3.61,0-.63,0-.83-.13-.84-.81,0-2.19-.06-2.19,2.1-2.19,3.69,0,7.38,0,11.07,0,1,0,1.38.15,1.32,1.25-.1,1.76,0,1.77-1.75,1.77-1,0-2,0-3,0-.67,0-.83.22-.82.85C65,74.78,64.93,77,64.93,79.26Z"/><path class="cls-1" d="M107.42,77.81c0-2.73,0-5.46,0-8.2,0-.71.2-.9.91-.91,2.47,0,2.47-.07,2.47,2.42,0,3.93,0,7.87,0,11.8,0,.87.22,1.12,1.09,1.08,1.86-.06,3.72,0,5.59,0,.77,0,1.19.12,1,1a3.29,3.29,0,0,0,0,1c.13.8-.22,1-1,1q-4.53-.06-9.07,0c-.8,0-1.05-.18-1-1C107.45,83.2,107.42,80.51,107.42,77.81Z"/><path class="cls-1" d="M74.68,77.79c0,2.69,0,5.38,0,8.06,0,.74-.08,1.08-1,1.07-2.33,0-2.33,0-2.33-2.3,0-4.93,0-9.85,0-14.77,0-.95.25-1.18,1.17-1.15,2.13.06,2.13,0,2.13,2.14Z"/><path class="cls-1" d="M66.4,116.66c.08-.06.19-.19.23-.17.19.1.09.24,0,.36Z"/><path class="cls-1" d="M75.16,116c.06-.19.17-.41.39-.25s0,.3-.14.42Z"/></svg>