<svg id="Layer_22" data-name="Layer 22" xmlns="http://www.w3.org/2000/svg" viewBox="0 0 131 131"><defs><style>.cls-1{opacity:0.3;}.cls-2{fill:#1b3d65;}</style></defs><g class="cls-1"><path class="cls-2" d="M69,72c-.54-.18-.87-.08-.85.58a3.89,3.89,0,0,0,2.59,3.14,1.31,1.31,0,0,0,1.48-.39c.54-.68-.34-.6-.57-.87a.85.85,0,0,1-.19-1c.16-.35.49-.41.87-.41a3.11,3.11,0,0,1,2.88,3,2.76,2.76,0,0,1-2.61,3c-3.1.26-5-1.57-5.39-5.15,0-.29,0-.59,0-.89s-.06-.67-.43-.65-.48.47-.41.79c.2,1,.5,1.92.68,2.89a11.56,11.56,0,0,1-.21,5.42,4.21,4.21,0,0,1-1.36,2.18c-1.81-2.51-1.77-5.27-1.28-8.08.14-.82.39-1.63.57-2.45.07-.28.1-.66-.27-.74s-.5.34-.53.68a8.41,8.41,0,0,1-1.29,4.19A4.46,4.46,0,0,1,57.76,79a2.92,2.92,0,0,1-1.89-3.42A3.25,3.25,0,0,1,58.6,73a1,1,0,0,1,1,.55.68.68,0,0,1-.2.92c-.29.23-1,.24-.51.9a1.15,1.15,0,0,0,1.34.36c1.6-.44,2.44-1.69,2.5-3.75-1.3-1.28-.73-2.76-.46-4.21a1.25,1.25,0,0,1,1.32-.19c.37.23.77.43.81.93a.84.84,0,0,0-.52-.73.4.4,0,0,1,0-.54c.43-1.16-.34-2.06-.74-3-1.53-3.67-2.26-7.38-.57-11.19.82-1.84,2.23-3.38,3-5.69.73,2.84,2.74,4.66,3.47,7.19,1,3.45,0,6.62-1.13,9.79-.5,1.34-1,2.69-1.41,4.06-.19.61-.54,1.35.35,1.8.49,0,1-.17,1.47-.1C69.27,70.21,69.55,71,69,72Z"/><path class="cls-2" d="M60.9,67.17c-1.36-1.07-2.32-1.19-5.64-.66-.11-.89.62-1.38,1-2.05a2.4,2.4,0,0,0-2.14,2.65,12.63,12.63,0,0,1-.55,4.23c-.21.61-.4.92-.94.3S51.12,70.87,51,69.9a.67.67,0,0,1,.55-.31c-.1,0-.18,0-.26,0-.45,0-.89.15-1.23-.25A2.2,2.2,0,0,1,50,68a.77.77,0,0,1,.53-.49c-.6,0-.58.41-.58.8-.06.74.21,1.46.13,2.19,0,.47.12,1.14-.73,1.13.37-2-.7-3.75-.61-5.68A4.92,4.92,0,0,1,51,61.85c5-3.34,11.69-.46,12.32,5.3A1.88,1.88,0,0,1,60.9,67.17Z"/><path class="cls-2" d="M78.14,72c-1.3-.48-.93-1.73-1.15-2.66a14.73,14.73,0,0,1-.06-2.21,2.77,2.77,0,0,0-2-2.74c-.18.29,0,.39.13.54.32.43.86.91.53,1.42s-.92,0-1.37,0c-2.79-.45-4.73.5-5.27,2.66-.44.4-.74-.47-1.17-.12a.39.39,0,0,1-.34-.1c-.12-5,4.2-9,8.92-8.2A7.57,7.57,0,0,1,81.24,63a4.88,4.88,0,0,1,.46,5.38,1.12,1.12,0,0,1-.49-.34c-.72-.72-1.62-.32-2.45-.38a.25.25,0,0,0-.21.06l.12.08a.85.85,0,0,1,.17.39,11.71,11.71,0,0,1-.13,3.29A1.56,1.56,0,0,1,78.14,72Z"/></g><path class="cls-2" d="M6.22,71.15l-.26,0a1.39,1.39,0,0,1-1.25-.66c-.25-.35-.49-.79-.71-1.13s-.26-.3-.64-.3H3.15v1.13c0,.6.07.66.66.71v.2h-2v-.2c.6,0,.67-.11.67-.71V67.3c0-.61-.06-.65-.64-.69v-.22H3.73a2.15,2.15,0,0,1,1.2.25,1.07,1.07,0,0,1,.49,1,1.3,1.3,0,0,1-.93,1.22c.13.24.43.71.65,1a5.11,5.11,0,0,0,.6.76.91.91,0,0,0,.51.34ZM3.48,68.8a1.24,1.24,0,0,0,.81-.21,1,1,0,0,0,.39-.89,1,1,0,0,0-1.06-1.06.7.7,0,0,0-.39.07s-.08.12-.08.31V68.8Z"/><path class="cls-2" d="M11.75,69.91c-.05.28-.2.94-.26,1.17H7.87v-.2c.66,0,.73-.12.73-.71V67.34c0-.66-.07-.68-.64-.73v-.22h3.35c0,.19,0,.67.07,1.07l-.23,0a2.18,2.18,0,0,0-.24-.63c-.11-.15-.31-.2-.82-.2H9.54c-.24,0-.26,0-.26.23v1.62H10c.66,0,.71-.06.8-.55H11v1.42h-.23c-.1-.53-.15-.57-.8-.57H9.28v1.33c0,.34,0,.5.18.59a1.69,1.69,0,0,0,.76.09c.53,0,.76,0,.92-.24a2.36,2.36,0,0,0,.38-.7Z"/><path class="cls-2" d="M18.6,69.1c-.44.07-.46.11-.46.55v.6a2.77,2.77,0,0,0,.05.67,8.24,8.24,0,0,1-1.72.28,2.5,2.5,0,0,1-2.8-2.43c0-1.66,1.4-2.49,2.9-2.49a6.87,6.87,0,0,1,1.49.22c0,.25.05.65.11,1.16l-.21,0a1.34,1.34,0,0,0-1.5-1.16,2,2,0,0,0-2,2.13,2.1,2.1,0,0,0,2.08,2.25,1.47,1.47,0,0,0,.63-.13.43.43,0,0,0,.25-.46v-.59c0-.54-.05-.59-.8-.65v-.2h2Z"/><path class="cls-2" d="M24.33,69.91c0,.28-.2.94-.26,1.17H20.45v-.2c.66,0,.73-.12.73-.71V67.34c0-.66-.07-.68-.64-.73v-.22h3.35c0,.19,0,.67.07,1.07l-.23,0a2.18,2.18,0,0,0-.24-.63c-.11-.15-.31-.2-.82-.2h-.55c-.24,0-.26,0-.26.23v1.62h.68c.66,0,.71-.06.8-.55h.23v1.42h-.23c-.1-.53-.15-.57-.8-.57h-.68v1.33c0,.34,0,.5.18.59a1.69,1.69,0,0,0,.76.09c.53,0,.76,0,.92-.24a2.36,2.36,0,0,0,.38-.7Z"/><path class="cls-2" d="M31.34,66.61c-.41,0-.59.1-.62.43s0,.56,0,1.23v2.89h-.24L27.2,67.4h0v1.76a11.54,11.54,0,0,0,.05,1.21c0,.38.2.47.71.51v.2H26.18v-.2c.42,0,.61-.13.64-.49a9.15,9.15,0,0,0,.06-1.23V67.61c0-.53,0-.57-.16-.74a.78.78,0,0,0-.65-.26v-.22H27.2L30.35,70h0V68.27a11.12,11.12,0,0,0-.05-1.2c0-.34-.21-.44-.74-.46v-.22h1.76Z"/><path class="cls-2" d="M37.83,69.84A8.25,8.25,0,0,1,37.4,71,6.85,6.85,0,0,1,36,71.2a2.47,2.47,0,0,1-2.75-2.4c0-1.52,1.23-2.52,2.94-2.52a6.54,6.54,0,0,1,1.37.21c.06.41.11.72.16,1.13l-.23,0A1.35,1.35,0,0,0,36,66.55a1.94,1.94,0,0,0-1.92,2.1,2,2,0,0,0,2,2.27c.76,0,1.18-.41,1.57-1.16Z"/><path class="cls-2" d="M44.11,66.61c-.52,0-.62.15-.9.59s-.57.88-.93,1.53a.79.79,0,0,0-.13.48v1c0,.61.06.67.75.72v.2H40.75v-.2c.65,0,.72-.1.72-.72v-.92a.79.79,0,0,0-.16-.44c-.24-.41-.51-.88-.93-1.58-.29-.48-.38-.57-.82-.61v-.22h1.83v.22c-.54.07-.51.16-.38.4.31.55.67,1.14,1,1.69.27-.47.67-1.19.88-1.63s.13-.41-.44-.46v-.22h1.67Z"/><path class="cls-2" d="M53.18,69.91c0,.28-.19.94-.26,1.17H49.3v-.2c.67,0,.73-.12.73-.71V67.34c0-.66-.06-.68-.64-.73v-.22h3.35c0,.19,0,.67.07,1.07l-.23,0a2.18,2.18,0,0,0-.24-.63c-.11-.15-.31-.2-.82-.2H51c-.24,0-.25,0-.25.23v1.62h.67c.66,0,.71-.06.81-.55h.22v1.42H52.2c-.11-.53-.16-.57-.81-.57h-.67v1.33c0,.34,0,.5.17.59a1.72,1.72,0,0,0,.76.09c.54,0,.76,0,.93-.24a2.62,2.62,0,0,0,.37-.7Z"/><path class="cls-2" d="M57.62,67.52c-.12-.46-.35-1-1-1a.76.76,0,0,0-.82.79c0,.51.34.75.94,1s1.28.65,1.28,1.45a1.49,1.49,0,0,1-1.66,1.39,2.32,2.32,0,0,1-.74-.12,2.92,2.92,0,0,1-.37-.15,10.14,10.14,0,0,1-.2-1.15l.22-.07c.12.46.48,1.22,1.24,1.22a.79.79,0,0,0,.85-.85c0-.53-.39-.77-1-1.07s-1.21-.62-1.21-1.41a1.38,1.38,0,0,1,1.54-1.32,3.15,3.15,0,0,1,1,.18c0,.25.06.55.13,1Z"/><path class="cls-2" d="M64,67.56a1.82,1.82,0,0,0-.25-.68c-.13-.17-.25-.22-.82-.22h-.5v3.52c0,.57.06.65.76.7v.2H61v-.2c.67,0,.74-.13.74-.7V66.66h-.43c-.64,0-.79.07-.89.22a2.06,2.06,0,0,0-.26.68H59.9c0-.47.07-1,.09-1.35h.15c.11.18.21.18.42.18h3a.39.39,0,0,0,.39-.18h.16c0,.33,0,.89.07,1.32Z"/><path class="cls-2" d="M68.45,71.08v-.2c.46-.07.53-.13.43-.42s-.24-.65-.4-1.06H66.9l-.32.89c-.15.44-.1.53.46.59v.2H65.41v-.2c.48-.08.59-.13.85-.77l1.55-3.76.25-.07c.48,1.28,1,2.56,1.44,3.83.24.64.34.72.82.77v.2Zm-.72-3.81h0L67,69.07h1.35Z"/><path class="cls-2" d="M75.67,67.56a1.63,1.63,0,0,0-.26-.68c-.12-.17-.25-.22-.81-.22h-.5v3.52c0,.57.06.65.76.7v.2H72.68v-.2c.67,0,.74-.13.74-.7V66.66H73c-.64,0-.8.07-.9.22a2.39,2.39,0,0,0-.25.68h-.22c0-.47.07-1,.08-1.35h.16c.11.18.2.18.42.18h3a.41.41,0,0,0,.39-.18h.15c0,.33,0,.89.08,1.32Z"/><path class="cls-2" d="M81.63,69.91c0,.28-.2.94-.26,1.17H77.75v-.2c.66,0,.73-.12.73-.71V67.34c0-.66-.07-.68-.64-.73v-.22h3.35c0,.19,0,.67.07,1.07l-.23,0a2.18,2.18,0,0,0-.24-.63c-.11-.15-.31-.2-.82-.2h-.55c-.24,0-.26,0-.26.23v1.62h.68c.66,0,.71-.06.8-.55h.23v1.42h-.23c-.1-.53-.15-.57-.8-.57h-.68v1.33c0,.34,0,.5.18.59a1.69,1.69,0,0,0,.76.09c.53,0,.76,0,.92-.24a2.36,2.36,0,0,0,.38-.7Z"/><path class="cls-2" d="M89.5,67.52c-.13-.46-.36-1-1-1a.76.76,0,0,0-.81.79c0,.51.34.75.94,1s1.28.65,1.28,1.45a1.49,1.49,0,0,1-1.67,1.39,2.43,2.43,0,0,1-.74-.12,2.6,2.6,0,0,1-.36-.15c0-.15-.16-.8-.21-1.15l.23-.07c.12.46.48,1.22,1.23,1.22a.8.8,0,0,0,.86-.85c0-.53-.4-.77-1-1.07s-1.22-.62-1.22-1.41a1.39,1.39,0,0,1,1.55-1.32,3,3,0,0,1,1,.18c0,.25.07.55.13,1Z"/><path class="cls-2" d="M95.66,69.91c0,.28-.2.94-.26,1.17H91.78v-.2c.67,0,.73-.12.73-.71V67.34c0-.66-.06-.68-.64-.73v-.22h3.35c0,.19,0,.67.07,1.07l-.23,0a2.18,2.18,0,0,0-.24-.63c-.11-.15-.31-.2-.82-.2h-.55c-.24,0-.25,0-.25.23v1.62h.67c.66,0,.71-.06.81-.55h.22v1.42h-.22c-.11-.53-.16-.57-.81-.57H93.2v1.33c0,.34,0,.5.17.59a1.72,1.72,0,0,0,.76.09c.54,0,.76,0,.93-.24a2.62,2.62,0,0,0,.37-.7Z"/><path class="cls-2" d="M101.94,71.15l-.26,0a1.36,1.36,0,0,1-1.24-.66c-.25-.35-.5-.79-.72-1.13s-.26-.3-.64-.3h-.21v1.13c0,.6.07.66.67.71v.2h-2v-.2c.59,0,.66-.11.66-.71V67.3c0-.61-.06-.65-.63-.69v-.22h1.89a2.19,2.19,0,0,1,1.2.25,1.06,1.06,0,0,1,.48,1,1.3,1.3,0,0,1-.93,1.22c.13.24.43.71.65,1a5.88,5.88,0,0,0,.6.76A.93.93,0,0,0,102,71ZM99.2,68.8a1.24,1.24,0,0,0,.81-.21,1,1,0,0,0,.39-.89,1,1,0,0,0-1.05-1.06.77.77,0,0,0-.4.07s-.08.12-.08.31V68.8Z"/><path class="cls-2" d="M108.17,66.61c-.5,0-.6.13-.89.79-.21.47-1,2.27-1.55,3.76h-.25c-.5-1.32-1.12-2.87-1.54-3.9-.22-.54-.34-.61-.79-.65v-.22H105v.22c-.54,0-.54.12-.43.44.2.52.76,1.93,1.23,3.09h0c.4-1,.92-2.3,1.14-3,.15-.43.11-.5-.49-.57v-.22h1.68Z"/><path class="cls-2" d="M110,71.08v-.2c.61,0,.67-.09.67-.71V67.32c0-.63-.06-.67-.67-.71v-.22h2v.22c-.6,0-.66.08-.66.71v2.85c0,.62.06.66.66.71v.2Z"/><path class="cls-2" d="M118.61,69.84a7.15,7.15,0,0,1-.43,1.15,6.85,6.85,0,0,1-1.42.21A2.47,2.47,0,0,1,114,68.8c0-1.52,1.23-2.52,2.94-2.52a6.42,6.42,0,0,1,1.37.21c.06.41.12.72.16,1.13l-.22,0a1.36,1.36,0,0,0-1.5-1.12,2,2,0,0,0-1.93,2.1,2,2,0,0,0,2,2.27c.77,0,1.19-.41,1.58-1.16Z"/><path class="cls-2" d="M124.31,69.91c0,.28-.19.94-.25,1.17h-3.63v-.2c.67,0,.73-.12.73-.71V67.34c0-.66-.06-.68-.63-.73v-.22h3.34c0,.19,0,.67.07,1.07l-.22,0a1.91,1.91,0,0,0-.25-.63c-.11-.15-.31-.2-.82-.2h-.54c-.25,0-.26,0-.26.23v1.62h.68c.66,0,.71-.06.8-.55h.22v1.42h-.22c-.1-.53-.16-.57-.8-.57h-.68v1.33c0,.34,0,.5.18.59a1.67,1.67,0,0,0,.75.09c.54,0,.76,0,.93-.24a2.36,2.36,0,0,0,.38-.7Z"/><path class="cls-2" d="M128.76,67.52c-.13-.46-.36-1-1-1a.76.76,0,0,0-.81.79c0,.51.34.75.94,1s1.28.65,1.28,1.45a1.49,1.49,0,0,1-1.67,1.39,2.38,2.38,0,0,1-.74-.12,3.75,3.75,0,0,1-.37-.15c0-.15-.15-.8-.2-1.15l.22-.07c.13.46.49,1.22,1.24,1.22a.8.8,0,0,0,.86-.85c0-.53-.4-.77-1-1.07s-1.22-.62-1.22-1.41a1.38,1.38,0,0,1,1.54-1.32,3.15,3.15,0,0,1,1,.18c0,.25.07.55.13,1Z"/></svg>