<svg id="Layer_24" data-name="Layer 24" xmlns="http://www.w3.org/2000/svg" viewBox="0 0 131 131"><defs><style>.cls-1{fill:#1b3d65;}</style></defs><path class="cls-1" d="M23.13,70.22h-3V66l-7.25-6.47L5.58,66v4.27h-3V64.6l10.29-9.22L23.13,64.6Zm-20.58,2H23.13v3H2.55Z"/><path class="cls-1" d="M36.23,71.46a5.33,5.33,0,0,0,5.46-5.68,5.46,5.46,0,1,0-10.91,0,5.32,5.32,0,0,0,5.45,5.68m0-15.52a9.82,9.82,0,0,1,0,19.63,9.82,9.82,0,1,1,0-19.63M51.69,75.23h-4V62h3.93v1.52a4.39,4.39,0,0,1,3.71-1.85c3.32,0,4.84,2.36,4.84,5.28v8.32H56.08V67.64a2.05,2.05,0,0,0-2.14-2.31,2.15,2.15,0,0,0-2.19,2.31l-.06,7.59ZM70.7,67a2.36,2.36,0,0,0-2.64-2.25A2.55,2.55,0,0,0,65.42,67Zm3.66,4.38c-.62,2.31-2.76,4.22-6.08,4.22a7,7,0,0,1-.28-14c4.11,0,6.64,2.53,6.64,6.8,0,.57-.06,1.19-.06,1.24H65.36a2.86,2.86,0,0,0,3,2.53A2.47,2.47,0,0,0,71,70.45ZM83,64.6c1.74,0,2.64-1,2.64-2.31S84.65,60,83,60H80.49V64.6Zm-1,3.6H80.49v7H76.27V56.39h7.48a5.76,5.76,0,0,1,6.13,5.9,5.49,5.49,0,0,1-3.71,5.35L90,75.28H85.38C85.32,75.23,82,68.2,82,68.2Z"/><path class="cls-1" d="M99.83,68.59a2.94,2.94,0,0,0-3-3.26,3,3,0,0,0-3,3.26,3,3,0,1,0,6,0m4,0a7,7,0,1,1-7-7,6.83,6.83,0,0,1,7,7m11,0a2.94,2.94,0,0,0-3-3.26,3,3,0,0,0-3,3.26,3,3,0,0,0,3,3.32c1.58,0,3-1.07,3-3.32m4,0a7,7,0,1,1-7-7,6.82,6.82,0,0,1,7,7m6.64-3.2v9.84h-4V65.39H119.4V62h2.08V60.83a4.74,4.74,0,0,1,5.06-5.11,5,5,0,0,1,1.91.28v3.31a5.07,5.07,0,0,0-1.18-.11,1.62,1.62,0,0,0-1.74,1.8v1h2.87v3.43l-2.87,0Z"/></svg>