<svg id="Layer_25" data-name="Layer 25" xmlns="http://www.w3.org/2000/svg" viewBox="0 0 131 131"><defs><style>.cls-1{fill:#ef8429;}.cls-2{fill:#fff;}</style></defs><path class="cls-1" d="M62.64,70.83v1.08H41.93v-1c3.46-1.25,4.42-2.68,4.42-6.32V33.43c0-2.21-.66-3-2.92-3.29l-.12-1H61.86v1.19s-1,.18-1.43.3a2.64,2.64,0,0,0-2.15,2.75c-.06,4.77,0,9.48,0,14.25,0,.06.06.12.18.36.72-.59,1.37-1.19,2-1.79,3.4-3.16,6.86-6.32,10.2-9.54a6,6,0,0,0,1.49-2.51,3,3,0,0,0-2.86-3.94,6.71,6.71,0,0,1-.06-1.13H87.45l0,1.07c-4.3,1.44-8.42,4.3-11.88,6.92s-7.1,5.55-10.56,8.3a38,38,0,0,0-2.86,2.56l4.18.36A14.79,14.79,0,0,1,78,55.38c1.85,2.86,3.22,6,5.07,8.95a38.8,38.8,0,0,0,4.24,5.25,3.58,3.58,0,0,0,1.79,1.19V72h-1.2C83.93,72,80,72,76.06,72a2.3,2.3,0,0,1-2.27-1.2c-1.37-2.62-2.74-5.19-4-7.87-1.67-3.4-2.45-5.13-4.3-8.47-1.49-2.69-3.58-3.88-5.61-3.94-1.07-.06-1.67.71-1.67,2v8.23c0,1.79-.06,3.52,0,5.25s.66,3.34,2.27,4.18a5.12,5.12,0,0,0,2.15.59"/><path class="cls-2" d="M49.45,70.12a1.85,1.85,0,0,0,2.33-1c.24-.36.54-.89.59-3.34.12-10.2.06-20.4,0-30.6a6.75,6.75,0,0,0-1-3.58c-.3-.42-.89-1-1.55-.72a9.22,9.22,0,0,1,1.07,4.3c.12,10.08.06,20.1.12,30.18,0,1.73,0,3.4-1.55,4.72"/><path class="cls-1" d="M3.93,84.34H6.6v6.15L11,84.34H13.8L9,91l5.28,6.65H11L6.6,91.65V97.6H3.93Z"/><path class="cls-1" d="M16,93.46a2.69,2.69,0,0,0,2.85,2.43,2.54,2.54,0,0,0,2.36-1.32h2.42a5.59,5.59,0,0,1-2,2.47,4.88,4.88,0,0,1-2.81.86,5.22,5.22,0,0,1,0-10.44A5,5,0,0,1,22.41,89a5.31,5.31,0,0,1,1.45,4.5Zm5.6-1.79a2.7,2.7,0,0,0-2.79-2.22A2.66,2.66,0,0,0,16,91.67Z"/><path class="cls-1" d="M35.43,97.6H33.09V96.18a3.67,3.67,0,0,1-3.32,1.72,5.23,5.23,0,0,1,0-10.44,3.68,3.68,0,0,1,3.32,1.74V87.76h2.34Zm-8.31-4.88a3,3,0,0,0,3,3,2.79,2.79,0,0,0,2.62-1.58,3.34,3.34,0,0,0,.37-1.38,3,3,0,0,0-.27-1.38,2.88,2.88,0,0,0-2.74-1.74,3,3,0,0,0-3,3.07Z"/><path class="cls-1" d="M38.05,89.57H36.42V87.76h1.63V84.34h2.34v3.42h1.69v1.81H40.39v8H38.05Z"/><path class="cls-1" d="M43.08,84.34h2.34v2.1H43.08Zm0,3.42h2.34V97.6H43.08Z"/><path class="cls-1" d="M47.38,87.76h2.2c0,.43,0,.85,0,1.31a3.2,3.2,0,0,1,3.06-1.61c3.21,0,3.82,2.47,3.82,4.21V97.6H54.09V92.26c0-1.47-.48-2.6-2.13-2.6s-2.24,1.13-2.24,2.51V97.6H47.38Z"/><path class="cls-1" d="M68.42,96.43a5.61,5.61,0,0,1-.91,3.48,5.67,5.67,0,0,1-4.52,2c-3.06,0-4.53-1.83-4.89-3.35h2.73a2.15,2.15,0,0,0,1,1,2.77,2.77,0,0,0,1.29.34,2.83,2.83,0,0,0,2.91-3v-.82a3.5,3.5,0,0,1-3.18,1.75,5.21,5.21,0,0,1,0-10.42,3.6,3.6,0,0,1,3.18,1.61V87.76h2.37ZM60.2,92.67a2.9,2.9,0,0,0,2.94,3,2.83,2.83,0,0,0,2.09-.84,3,3,0,0,0,.84-2.1,3.32,3.32,0,0,0-.71-2.11,2.71,2.71,0,0,0-2.22-1,2.92,2.92,0,0,0-2.94,3Z"/><path class="cls-1" d="M70.44,84.34h7.42v1.87h-5.3V90h5.23v1.84H72.56v3.92h5.3V97.6H70.44Z"/><path class="cls-1" d="M84,90.4a1.25,1.25,0,0,0-1.42-1.31,1.27,1.27,0,0,0-1.4,1.25c0,.77.74,1.13,1.78,1.42,1.48.41,3.11.84,3.17,2.94a3.23,3.23,0,0,1-3.48,3.18,3.3,3.3,0,0,1-3.54-3.1H80.9a1.63,1.63,0,0,0,1.72,1.58,1.5,1.5,0,0,0,1.59-1.45c0-1-.75-1.29-2.49-1.86-1.36-.42-2.43-1.06-2.45-2.53a3,3,0,0,1,3.28-3,3,3,0,0,1,3.24,2.83Z"/><path class="cls-1" d="M88.33,89.31H86.58V87.85h1.75V84.34H90.2v3.51h1.88v1.46H90.2V97.6H88.33Z"/><path class="cls-1" d="M102.55,97.6h-1.86V95.89a3.93,3.93,0,0,1-3.62,2,5.16,5.16,0,0,1,0-10.31,3.94,3.94,0,0,1,3.62,2V87.85h1.86Zm-8.61-4.84a3.35,3.35,0,0,0,3.4,3.39,3.2,3.2,0,0,0,3-1.94,3.8,3.8,0,0,0,.34-1.45,3.37,3.37,0,0,0-3.41-3.45,3.33,3.33,0,0,0-3.36,3.43Z"/><path class="cls-1" d="M105.34,89.31h-1.75V87.85h1.75V84.34h1.87v3.51h1.88v1.46h-1.88V97.6h-1.87Z"/><path class="cls-1" d="M110.84,93.32a3.18,3.18,0,0,0,3.28,3,3,3,0,0,0,2.81-1.65h1.94a5.4,5.4,0,0,1-2,2.42,5,5,0,0,1-2.78.82A5.16,5.16,0,1,1,117.7,89a5.25,5.25,0,0,1,1.47,4.32Zm6.49-1.45a3.15,3.15,0,0,0-3.23-2.71,3.1,3.1,0,0,0-3.22,2.71Z"/><path class="cls-1" d="M124.94,90.4a1.41,1.41,0,0,0-2.81-.06c0,.77.73,1.13,1.77,1.42,1.49.41,3.11.84,3.17,2.94a3.23,3.23,0,0,1-3.48,3.18,3.3,3.3,0,0,1-3.54-3.1h1.84a1.63,1.63,0,0,0,1.72,1.58,1.51,1.51,0,0,0,1.6-1.45c0-1-.76-1.29-2.49-1.86-1.36-.42-2.44-1.06-2.46-2.53a3,3,0,0,1,3.28-3,3,3,0,0,1,3.24,2.83Z"/></svg>