<svg id="Layer_26" data-name="Layer 26" xmlns="http://www.w3.org/2000/svg" viewBox="0 0 131 131"><defs><style>.cls-1{fill:#1b3d65;}</style></defs><path class="cls-1" d="M86.11,74.84C82,63,76.63,58.29,67.84,58.36s-14.6,5.07-18.33,16.32c-2.08-6.18-1.25-11.52,3.19-16.12,7.76-8.05,7.49-13.88-1.33-20.91,6-1.21,10.7.77,14.83,4.58,1,.94,1.85,2.58,3.54.94,3.14-3,6.56-2.1,10-.69.13,1.19-1.11,1.51-1.53,2.34-1.54,3.07-3.17,5.39,1.46,8.3C87.22,57.86,88.5,65.64,86.11,74.84Z"/><path class="cls-1" d="M89.75,36.53c10.1,13.27,10.18,32.69.1,39.49,2.36-7.31,2-14.08-1.7-20.41-1-1.73.1-2.22,1-3.16,2.69-2.77,3.33-6.72.36-8.65C84.86,40.77,88.22,39.25,89.75,36.53Z"/><path class="cls-1" d="M71,86.62c4.48-5.09,5.26-9.69,2.41-14.23-3.22-5.13-7.39-6-16.5-3.53a12.33,12.33,0,0,1,13.91-5.77A13.23,13.23,0,0,1,80.88,74.5c.52,6-2.53,10.57-8.81,13.18C71,88.09,70.79,87.54,71,86.62Z"/><path class="cls-1" d="M38.41,60c.48-2.65-1-4.63-2.1-6.83A9.31,9.31,0,0,1,50.55,41.9c3.37,2.86,4.54,6.5,2.64,10.59-1.56,3.37-4.18,5-8,3.52,3.46-1,6.65-2.1,5.56-6.66a6.06,6.06,0,0,0-7.8-4.11c-3.56,1.18-5.06,4.91-3.46,8.83.82,2,2.17,4,0,5.93A.64.64,0,0,1,38.41,60Z"/><path class="cls-1" d="M69,79.39a6.91,6.91,0,1,1-13.81,0,6.91,6.91,0,0,1,13.81,0Z"/><path class="cls-1" d="M44.52,61.37c-1.3,8.72,0,15.58,5,21.66C43.77,82.55,37.29,74.56,35,65.34,38.38,65.68,41.44,65,44.52,61.37Z"/><path class="cls-1" d="M59.92,34.58a25.78,25.78,0,0,0-17.34,2.06c3.17-6,11.49-10.3,21-11.06.39,1.65-1.36,2.41-1.56,3.79C60.39,30.72,63.32,33.94,59.92,34.58Z"/><path class="cls-1" d="M65.6,37.11c-1.75-6.22.12-9.93,4.3-10.85s8.06,1.41,8.54,5.85c.39,3.69,2,5.17,5.86,5.12-4.45,2.78-7.12,2.1-8.61-2.16-1-2.88-2.24-5.18-5.72-4.79C66.76,30.63,65.93,33.06,65.6,37.11Z"/><path class="cls-1" d="M87.75,47.64c-.19,2-1.19,3.28-3,3.31a2.83,2.83,0,0,1-3-3.08A2.7,2.7,0,0,1,84.41,45C86.35,44.83,87.32,46,87.75,47.64Z"/><path class="cls-1" d="M47.39,50.75c-.12,1.83-1.18,2.89-2.8,2.84a2.66,2.66,0,0,1-.22-5.28C46.07,48.09,47,49.18,47.39,50.75Z"/><path class="cls-1" d="M72.89,36a2.35,2.35,0,0,1-2.32,2.57,2.25,2.25,0,0,1-2.41-1.91,2.23,2.23,0,0,1,2-2.75C71.63,33.64,72.55,34.56,72.89,36Z"/><path class="cls-1" d="M84.78,31.93c0,1.42-.59,2.11-1.65,2.27a1.61,1.61,0,0,1-1.74-1.35,1.72,1.72,0,0,1,1.37-2.17C83.93,30.39,84.32,31.41,84.78,31.93Z"/><path class="cls-1" d="M34.65,59.82c-.39-.57-1-1.06-1-1.57a1.28,1.28,0,0,1,1.59-1.32,1.22,1.22,0,0,1,1.16,1.31C36.33,59.13,35.62,59.5,34.65,59.82Z"/><path class="cls-1" d="M38.41,60l1,0c-.36,2-1.61,2.47-3.76,1.86C36.27,60.6,37.42,60.38,38.41,60Z"/><path class="cls-1" d="M71,86.62l1.11,1.06c-1.32,1.54-2.92.86-4.91.56Z"/><path class="cls-1" d="M13.68,82.12c0-1.38-.12-1.44-.75-1.64V79.8a4.54,4.54,0,0,0,2.45-1.9l.37.13-.32,1.77h1.33a1.63,1.63,0,0,0,.88-.16c0,.1,0,.36,0,.44,0,.68-.32.82-.91.82l-1.31,0s0,1.92,0,3.15c0,1.6.15,3,1.4,3a3.44,3.44,0,0,0,1.72-.77l.08.07a2.66,2.66,0,0,1-2.52,1.86c-1.9,0-2.45-1.33-2.45-3.14C13.61,84,13.68,82.74,13.68,82.12Z"/><path class="cls-1" d="M20,83.42V80.48c0-1.49,0-4.52-.36-4.85l.05-.06c2,0,2.12.73,2.12,2.66a17.73,17.73,0,0,1-.19,2.71h.06a3.21,3.21,0,0,1,2.84-1.39c2.14,0,2.37,1.13,2.37,2.25s-.07,2.31-.07,3.73c0,.73,0,1.71.82,1.71a1.13,1.13,0,0,0,.61-.23l.07,0a1.87,1.87,0,0,1-1.8,1A1.29,1.29,0,0,1,25,86.76c0-1.43,0-2.42,0-4.1,0-1.07,0-2.11-1.42-2.11a2.13,2.13,0,0,0-1.95,2.32c0,1.46.07,2.56.07,4.1,0,.88-.46,1.1-1,1.1a6.22,6.22,0,0,1-1.15-.16S20,87.56,20,83.42Z"/><path class="cls-1" d="M33,79.56c2.14,0,3,1.21,3,2.32,0,1.62-1.7,2.2-3.13,2.2A4.26,4.26,0,0,1,31,83.63l-.07,0c0,2,.91,3.28,2.58,3.28A4.85,4.85,0,0,0,36.09,86l.08.09a3.15,3.15,0,0,1-3.28,2.05,3.81,3.81,0,0,1-3.78-4.08C29.11,81.83,30.59,79.56,33,79.56Zm-.47,3.71A1.39,1.39,0,0,0,34,81.86c0-.76-.34-1.56-1.26-1.56-1.16,0-1.77,2-1.77,2.58C31,83,31.81,83.27,32.49,83.27Z"/><path class="cls-1" d="M6.31,102h.15a6.46,6.46,0,0,0,4.63,2c2.13,0,2.85-1.13,2.85-2.31,0-3.43-7.81-3-7.81-7.73,0-2.87,2.7-4.46,5.44-4.46,1.17,0,4.32.44,4.32,1.66A2.8,2.8,0,0,1,15,93h-.15a5.06,5.06,0,0,0-3.78-2.24,2.41,2.41,0,0,0-2.54,2.43c0,3.39,7.8,2.65,7.8,7.65,0,3-2.85,4.61-5.59,4.61-1.84,0-5-.74-5-2.11A3.21,3.21,0,0,1,6.31,102Z"/><path class="cls-1" d="M23.57,93.9c2.87,0,4,1.63,4,3.11,0,2.17-2.28,2.95-4.2,2.95A5.69,5.69,0,0,1,21,99.35l-.08.05c0,2.61,1.21,4.39,3.45,4.39a6.5,6.5,0,0,0,3.41-1.24l.11.11s-.74,2.76-4.39,2.76c-2.91,0-5.06-2.28-5.06-5.48C18.42,96.94,20.4,93.9,23.57,93.9Zm-.63,5A1.87,1.87,0,0,0,25,97c0-1-.45-2.09-1.69-2.09-1.55,0-2.37,2.63-2.37,3.46A3.46,3.46,0,0,0,22.94,98.88Z"/><path class="cls-1" d="M35.44,93.9c.91,0,3.5.39,3.5,1.54a2.63,2.63,0,0,1-.76,1.46h-.11s-1.22-2-3.11-2c-2.15,0-2.91,2.39-2.91,4.26,0,2.56,1.41,4.63,3.63,4.63a7.13,7.13,0,0,0,3.52-1.41l.09.08a4.58,4.58,0,0,1-4.52,2.94A5.3,5.3,0,0,1,29.53,100,5.87,5.87,0,0,1,35.44,93.9Z"/><path class="cls-1" d="M42,99.85c0-4.41-.46-5.56-.55-5.65A3.77,3.77,0,0,1,42.49,94c1,0,1.76.5,1.76,1.39a3.32,3.32,0,0,1-.15.8l.08,0A3.87,3.87,0,0,1,47.46,94c.85,0,1.07.37,1.07.85a4.83,4.83,0,0,1-.26,1.54l-.11,0a4.28,4.28,0,0,0-1.74-.61c-1.69,0-2.17,1.76-2.17,4.18,0,4.28.45,5.06.5,5.08a10.5,10.5,0,0,1-1.52.22c-.81,0-1.37-.33-1.37-1.67S42,101.05,42,99.85Z"/><path class="cls-1" d="M54.79,93.9c2.87,0,4,1.63,4,3.11,0,2.17-2.28,2.95-4.19,2.95a5.69,5.69,0,0,1-2.39-.61l-.09.05c0,2.61,1.22,4.39,3.46,4.39A6.5,6.5,0,0,0,59,102.55l.11.11s-.74,2.76-4.39,2.76c-2.92,0-5.07-2.28-5.07-5.48C49.64,96.94,51.62,93.9,54.79,93.9Zm-.63,5A1.88,1.88,0,0,0,56.21,97c0-1-.46-2.09-1.7-2.09-1.54,0-2.37,2.63-2.37,3.46A3.46,3.46,0,0,0,54.16,98.88Z"/><path class="cls-1" d="M61.82,97.33c0-1.84-.15-1.93-1-2.19v-.91c.93,0,3-1.83,3.28-2.55l.5.18-.43,2.37H66A2.06,2.06,0,0,0,67.12,94c0,.13,0,.48,0,.58,0,.92-.43,1.11-1.21,1.11l-1.76,0s-.07,2.56-.07,4.22c0,2.15.2,4,1.87,4a4.6,4.6,0,0,0,2.3-1l.11.09a3.57,3.57,0,0,1-3.37,2.5c-2.54,0-3.28-1.78-3.28-4.22C61.73,99.79,61.82,98.16,61.82,97.33Z"/><path class="cls-1" d="M82.52,89.55c2,0,4.86.79,4.86,2.07a3.27,3.27,0,0,1-.87,1.74h-.13A5.32,5.32,0,0,0,82,90.77c-2.41,0-4.65,2-4.65,6.19,0,3.31,1.78,6.55,5.39,6.55a7.62,7.62,0,0,0,5-1.79l.06.07c-.41,1.95-2.8,3.63-5.58,3.63-5.15,0-7.5-3.63-7.5-7.41C74.65,93.77,77.56,89.55,82.52,89.55Z"/><path class="cls-1" d="M95.43,98.38v-.2c0-1.82-.41-2.85-2.08-2.85a4.8,4.8,0,0,0-3,1.31l-.09-.09a4.31,4.31,0,0,1,4-2.65c3.09,0,3.5,1.85,3.5,3.82,0,1.16-.07,2.61-.07,3.81v.26c0,.85,0,2.41,1.09,2.41a1.56,1.56,0,0,0,.83-.3l.08.06a2.48,2.48,0,0,1-2.41,1.35c-.89,0-1.82-.37-1.85-1.52l-.08-.05a3.36,3.36,0,0,1-3,1.68,2.78,2.78,0,0,1-2.89-2.91C89.52,99.35,93.06,98.42,95.43,98.38Zm-2,5.5c.74,0,1.94-.68,1.94-1.5s.06-2,.06-3.13c-.89.15-3.45.54-3.45,2.84C92,103.4,92.67,103.88,93.43,103.88Z"/><path class="cls-1" d="M101.57,96.46c0-2,0-4-.11-5.39a6.2,6.2,0,0,0-.39-2.43l.06-.09c1.46,0,2.81.26,2.81,1.61,0,2.2-.09,4.48-.09,6.78,0,1.94,0,3.91.09,5.83,0,.74.21,1.43,1,1.43a1.56,1.56,0,0,0,.83-.3l.09.06a2.51,2.51,0,0,1-2.42,1.35,1.76,1.76,0,0,1-2-1.89C101.46,101.64,101.57,99,101.57,96.46Z"/><path class="cls-1" d="M108.05,99.77c0-1.09,0-2.22-.09-3.26-.11-2.11-.44-2.31-.44-2.31a3.77,3.77,0,0,1,1.07-.19c1,0,1.69.52,1.69,1.19a2.11,2.11,0,0,1-.08.55l.08,0c.42-1.07,2-1.76,3.37-1.76,2,0,2.87.78,3,1.74l.09,0A3.86,3.86,0,0,1,120.13,94c2.87,0,3.17,1.5,3.17,3s-.09,3-.09,4.89c0,1,0,2.28,1.09,2.28a1.56,1.56,0,0,0,.83-.3l.08.06a2.48,2.48,0,0,1-2.41,1.35,1.73,1.73,0,0,1-2-1.76c0-1.87.06-3.17.06-5.39,0-1.44,0-2.83-1.85-2.83-2,0-2.3,2.79-2.3,3.83,0,0,0,3.76,0,3.89a2.61,2.61,0,0,1-.84,2.26c-.79-.11-1.59-.18-1.59-1.67,0-1.87.06-3.26.06-5.48,0-1.44,0-2.83-1.91-2.83-.91,0-2.17,1-2.17,3s.09,3.44.09,5.5c0,1.17-.61,1.48-1.37,1.48a8.25,8.25,0,0,1-1.55-.22C107.68,105,108.05,103.66,108.05,99.77Z"/></svg>