<svg id="Layer_28" data-name="Layer 28" xmlns="http://www.w3.org/2000/svg" viewBox="0 0 131 131"><defs><style>.cls-1{fill:#1b3d65;}</style></defs><path class="cls-1" d="M80.18,29.53l1.21,1.21-5,5,0,0-5,5,0,0-3.37,3.37,1.71,1.78,3.4-3.4,0,0,5-5,.05,0,5-5L84.66,34V29.53Zm-1.37,8.72-1.36,1.37a15.33,15.33,0,0,1,3.14,9.3,14.42,14.42,0,0,1-.14,2,8.77,8.77,0,0,0,2-.41,13.64,13.64,0,0,0,.08-1.57A17.14,17.14,0,0,0,78.81,38.25Zm-18-6.06a8.55,8.55,0,0,0-.09,1.73c0,.09,0,.18,0,.27l.21-.06a13.09,13.09,0,0,1,.13-2ZM81.74,52.84A13.2,13.2,0,0,1,80,53a1.15,1.15,0,0,1-.06.17h0A9.53,9.53,0,0,0,81.74,52.84ZM79.11,55.5a15.39,15.39,0,0,1-24,5l12.7-12.71,1.71-1.71-1.8-1.69L66,46.12,53.39,58.74A15.35,15.35,0,0,1,58.28,35.2c0-.25,0-.51,0-.77a10.41,10.41,0,0,1,0-1.35,17.28,17.28,0,1,0,23,22.27,13.26,13.26,0,0,1-1.72.14ZM65.21,31.63a18.18,18.18,0,0,0-1.82.09,7.87,7.87,0,0,0-.15,2,14.16,14.16,0,0,1,2-.14,15.23,15.23,0,0,1,9,2.91l1.37-1.37A17.18,17.18,0,0,0,65.21,31.63Z"/><path class="cls-1" d="M63,22.12l7.67,0a48,48,0,0,0-5.51,5.16c-2.53,2.77-3,3.93-3.19,4.63a9.16,9.16,0,0,0,.29,5.73l14,14.54a10.45,10.45,0,0,0,6-.65c.63-.28,1.48-.82,4.1-3.18,0,0,1.15-1,4.74-4.87v6.79L89.78,48a13,13,0,0,1-5.37,5.1,13.34,13.34,0,0,1-9.2.92L65,44.4l-5-5.3a12.95,12.95,0,0,1,5.41-15.24Z"/><path class="cls-1" d="M69.53,46.1l-1.71,1.71h0L66,46.12l1.71-1.71Z"/><path class="cls-1" d="M3.84,76.26a4.24,4.24,0,0,1,3.4-1.33,4.3,4.3,0,0,1,3.42,1.33,5.46,5.46,0,0,1,1.16,3.67V90.24a5.46,5.46,0,0,1-1.16,3.67,4.3,4.3,0,0,1-3.42,1.33,4.26,4.26,0,0,1-3.39-1.33,5.46,5.46,0,0,1-1.16-3.67V79.93A5.45,5.45,0,0,1,3.84,76.26ZM5.48,92.48a2.09,2.09,0,0,0,1.76.74c1.58,0,2.36-1,2.36-2.87V79.82A3.38,3.38,0,0,0,9,77.7,2.11,2.11,0,0,0,7.24,77a2.1,2.1,0,0,0-1.76.75,3.32,3.32,0,0,0-.6,2.12V90.35A3.3,3.3,0,0,0,5.48,92.48Z"/><path class="cls-1" d="M20.19,93.22a2,2,0,0,0,1.73-.74,3.42,3.42,0,0,0,.57-2.13V75.13h2.08V90.24a5.6,5.6,0,0,1-1.11,3.69,4.09,4.09,0,0,1-3.36,1.34,4.06,4.06,0,0,1-3.33-1.35,5.63,5.63,0,0,1-1.11-3.68V75.13h2.19V90.35C17.85,92.27,18.63,93.22,20.19,93.22Z"/><path class="cls-1" d="M31.48,77.15H27.81v-2h9.56v2H33.7V95H31.48Z"/><path class="cls-1" d="M48.46,76.39A5.36,5.36,0,0,1,49.55,80v2.39c0,3.21-1.54,4.81-4.64,4.81H43V95H40.73V75.13h4.35A4.25,4.25,0,0,1,48.46,76.39Zm-1.7,8.18a2.89,2.89,0,0,0,.6-2V79.88a3.23,3.23,0,0,0-.54-2.06,2.1,2.1,0,0,0-1.74-.67H43v8h2A2.44,2.44,0,0,0,46.76,84.57Z"/><path class="cls-1" d="M60.28,85.94H55.41V93h6v2h-8.2V75.13h8.2v2h-6V84h4.87Z"/><path class="cls-1" d="M73.07,76.26a4.85,4.85,0,0,1,1.07,3.42V81.3a5.29,5.29,0,0,1-.6,2.68,3.2,3.2,0,0,1-1.88,1.42,3.12,3.12,0,0,1,1.91,1.44,5.47,5.47,0,0,1,.59,2.71v3.1A12.86,12.86,0,0,0,74.23,94a2.8,2.8,0,0,0,.33,1H72.31a4.34,4.34,0,0,1-.28-1,8.83,8.83,0,0,1-.09-1.46V89.5a3,3,0,0,0-.72-2.3A3.14,3.14,0,0,0,69,86.54H67.48V95H65.26V75.13H69.7A4.46,4.46,0,0,1,73.07,76.26Zm-1.82,7.66a2.73,2.73,0,0,0,.69-2.14v-1.9a3.26,3.26,0,0,0-.54-2,2.09,2.09,0,0,0-1.76-.68H67.48v7.37h1.65A3.19,3.19,0,0,0,71.25,83.92Z"/><path class="cls-1" d="M85.09,86.42H80.51V95H78.29V75.13H86.2v2H80.51V84.4h4.58Z"/><path class="cls-1" d="M90.77,76.26a4.23,4.23,0,0,1,3.4-1.33,4.28,4.28,0,0,1,3.41,1.33,5.41,5.41,0,0,1,1.17,3.67V90.24a5.41,5.41,0,0,1-1.17,3.67,5,5,0,0,1-6.8,0,5.41,5.41,0,0,1-1.17-3.67V79.93A5.46,5.46,0,0,1,90.77,76.26ZM92.4,92.48a2.13,2.13,0,0,0,1.77.74c1.57,0,2.36-1,2.36-2.87V79.82A3.45,3.45,0,0,0,96,77.7a2.48,2.48,0,0,0-3.55,0,3.32,3.32,0,0,0-.59,2.12V90.35A3.3,3.3,0,0,0,92.4,92.48Z"/><path class="cls-1" d="M110.49,76.26a4.85,4.85,0,0,1,1.06,3.42V81.3A5.4,5.4,0,0,1,111,84a3.2,3.2,0,0,1-1.88,1.42,3.07,3.07,0,0,1,1.9,1.44,5.36,5.36,0,0,1,.6,2.71v3.1a10.69,10.69,0,0,0,.07,1.38,2.8,2.8,0,0,0,.33,1h-2.25a3.85,3.85,0,0,1-.28-1,8.83,8.83,0,0,1-.09-1.46V89.5a3,3,0,0,0-.72-2.3,3.16,3.16,0,0,0-2.18-.66h-1.57V95h-2.22V75.13h4.44A4.49,4.49,0,0,1,110.49,76.26Zm-1.83,7.66a2.7,2.7,0,0,0,.7-2.14v-1.9a3.26,3.26,0,0,0-.54-2,2.1,2.1,0,0,0-1.76-.68h-2.17v7.37h1.65A3.17,3.17,0,0,0,108.66,83.92Z"/><path class="cls-1" d="M120.91,95l-3.3-15.85V95h-1.93V75.13h3.1L122.05,91l3.16-15.9h3.1V95h-2.1V79l-3.16,16Z"/><path class="cls-1" d="M5.82,108.83l-.2-1.34H4.2L4,108.83H2.94l1.18-7.36H5.81L7,108.83Zm-.36-2.33-.55-3.72-.56,3.72Z"/><path class="cls-1" d="M11.19,101.94a1.9,1.9,0,0,1,.43,1.35v1a1.89,1.89,0,0,1-.43,1.35,1.68,1.68,0,0,1-1.29.47H9.35v2.76H8.2v-7.36H9.9A1.68,1.68,0,0,1,11.19,101.94ZM9.35,105H9.9a.54.54,0,0,0,.42-.16.79.79,0,0,0,.14-.54v-1.1a.79.79,0,0,0-.14-.54.54.54,0,0,0-.42-.15H9.35Z"/><path class="cls-1" d="M15.82,101.94a1.9,1.9,0,0,1,.43,1.35v1a1.89,1.89,0,0,1-.43,1.35,1.68,1.68,0,0,1-1.29.47H14v2.76H12.83v-7.36h1.7A1.68,1.68,0,0,1,15.82,101.94ZM14,105h.55a.58.58,0,0,0,.43-.16.85.85,0,0,0,.14-.54v-1.1a.85.85,0,0,0-.14-.54.58.58,0,0,0-.43-.15H14Z"/><path class="cls-1" d="M18.62,101.47v6.31h1.9v1H17.46v-7.36Z"/><path class="cls-1" d="M22.85,101.47v7.36H21.69v-7.36Z"/><path class="cls-1" d="M27.71,107.06a1.9,1.9,0,0,1-.44,1.37,1.95,1.95,0,0,1-2.56,0,1.9,1.9,0,0,1-.44-1.37v-3.82a1.91,1.91,0,0,1,.44-1.37,1.95,1.95,0,0,1,2.56,0,1.91,1.91,0,0,1,.44,1.37V104H26.62v-.78c0-.49-.2-.73-.6-.73s-.6.24-.6.73v4c0,.47.2.71.6.71s.6-.24.6-.71v-1h1.09Z"/><path class="cls-1" d="M31.66,108.83l-.2-1.34H30.05l-.2,1.34H28.78L30,101.47h1.69l1.18,7.36Zm-.35-2.33-.56-3.72-.56,3.72Z"/><path class="cls-1" d="M36.87,101.47v1.06h-1.2v6.3H34.51v-6.3H33.3v-1.06Z"/><path class="cls-1" d="M39.21,101.47v7.36H38.05v-7.36Z"/><path class="cls-1" d="M41.08,101.87a2,2,0,0,1,2.6,0,2,2,0,0,1,.45,1.37v3.82a1.93,1.93,0,0,1-.45,1.37,2,2,0,0,1-2.6,0,1.89,1.89,0,0,1-.46-1.37v-3.82A1.91,1.91,0,0,1,41.08,101.87Zm1.3,6q.6,0,.6-.72v-4c0-.49-.2-.73-.6-.73s-.6.24-.6.73v4Q41.78,107.86,42.38,107.86Z"/><path class="cls-1" d="M46.58,108.83h-1v-7.36H47l1.19,4.41v-4.41h1v7.36H48l-1.44-5.33Z"/><path class="cls-1" d="M54.84,101.47a1.68,1.68,0,0,1,1.29.47,1.9,1.9,0,0,1,.43,1.35V107a1.91,1.91,0,0,1-.43,1.36,1.72,1.72,0,0,1-1.29.46H53v-7.36Zm-.67,6.31h.65a.55.55,0,0,0,.43-.17.8.8,0,0,0,.16-.55v-3.82a.84.84,0,0,0-.16-.55.54.54,0,0,0-.43-.16h-.65Z"/><path class="cls-1" d="M60.71,104.57v1.05H59.12v2.16h2v1H58v-7.36h3.15v1.06h-2v2Z"/><path class="cls-1" d="M64.33,101.47a1.69,1.69,0,0,1,1.3.47,2,2,0,0,1,.43,1.35V107a2,2,0,0,1-.43,1.36,1.73,1.73,0,0,1-1.3.46H62.51v-7.36Zm-.67,6.31h.65a.57.57,0,0,0,.44-.17.8.8,0,0,0,.15-.55v-3.82a.84.84,0,0,0-.15-.55.57.57,0,0,0-.44-.16h-.65Z"/><path class="cls-1" d="M68.62,101.47v7.36H67.47v-7.36Z"/><path class="cls-1" d="M73.49,107.06a1.9,1.9,0,0,1-.45,1.37,1.95,1.95,0,0,1-2.56,0,1.94,1.94,0,0,1-.44-1.37v-3.82a2,2,0,0,1,.44-1.37,1.95,1.95,0,0,1,2.56,0,1.92,1.92,0,0,1,.45,1.37V104h-1.1v-.78c0-.49-.2-.73-.6-.73s-.6.24-.6.73v4c0,.47.2.71.6.71s.6-.24.6-.71v-1h1.1Z"/><path class="cls-1" d="M77.44,108.83l-.2-1.34H75.82l-.2,1.34H74.56l1.17-7.36h1.69l1.18,7.36Zm-.36-2.33-.56-3.72L76,106.5Z"/><path class="cls-1" d="M82.65,101.47v1.06H81.44v6.3H80.28v-6.3h-1.2v-1.06Z"/><path class="cls-1" d="M85,101.47v7.36H83.82v-7.36Z"/><path class="cls-1" d="M86.85,101.87a2,2,0,0,1,2.6,0,2,2,0,0,1,.46,1.37v3.82a1.94,1.94,0,0,1-.46,1.37,2,2,0,0,1-2.6,0,1.93,1.93,0,0,1-.45-1.37v-3.82A2,2,0,0,1,86.85,101.87Zm1.3,6q.6,0,.6-.72v-4c0-.49-.2-.73-.6-.73s-.6.24-.6.73v4Q87.55,107.86,88.15,107.86Z"/><path class="cls-1" d="M92.35,108.83h-1v-7.36h1.45L94,105.88v-4.41h1v7.36H93.79l-1.44-5.33Z"/><path class="cls-1" d="M102.13,104.73v2.33a1.9,1.9,0,0,1-.44,1.37,1.95,1.95,0,0,1-2.56,0,1.9,1.9,0,0,1-.44-1.37v-3.82a1.91,1.91,0,0,1,.44-1.37,1.95,1.95,0,0,1,2.56,0,1.91,1.91,0,0,1,.44,1.37V104H101v-.78c0-.49-.2-.73-.6-.73s-.6.24-.6.73v4c0,.47.2.71.6.71s.6-.24.6-.71v-1.36h-.52v-1Z"/><path class="cls-1" d="M105.88,108.49c0-.1,0-.29,0-.56v-1.16a1.11,1.11,0,0,0-.18-.72.72.72,0,0,0-.57-.22h-.4v3h-1.16v-7.36h1.75a1.48,1.48,0,0,1,1.71,1.7v.57a1.48,1.48,0,0,1-.76,1.5,1,1,0,0,1,.59.56,2.39,2.39,0,0,1,.18,1v1.14c0,.21,0,.38,0,.5a1.4,1.4,0,0,0,.1.39H106A2.46,2.46,0,0,1,105.88,108.49Zm-1.17-3.71h.45a.74.74,0,0,0,.52-.17.88.88,0,0,0,.17-.6v-.73a.92.92,0,0,0-.14-.58.52.52,0,0,0-.45-.17h-.55Z"/><path class="cls-1" d="M108.8,101.87a1.73,1.73,0,0,1,1.31-.48,1.71,1.71,0,0,1,1.3.48,2,2,0,0,1,.45,1.37v3.82a1.93,1.93,0,0,1-.45,1.37,1.71,1.71,0,0,1-1.3.48,1.73,1.73,0,0,1-1.31-.48,1.93,1.93,0,0,1-.45-1.37v-3.82A2,2,0,0,1,108.8,101.87Zm1.31,6q.6,0,.6-.72v-4c0-.49-.2-.73-.6-.73s-.6.24-.6.73v4Q109.51,107.86,110.11,107.86Z"/><path class="cls-1" d="M115.42,108.83h-1.58l-.82-7.36h1.12l.62,5.8.56-5.8h1.11l.58,5.85.6-5.85h1l-.82,7.36h-1.54l-.42-3.92Z"/><path class="cls-1" d="M123.1,101.47v1.06h-1.21v6.3h-1.15v-6.3h-1.21v-1.06Z"/><path class="cls-1" d="M124.28,108.83v-7.36h1.15v3.16h1.32v-3.16h1.17v7.36h-1.17v-3.15h-1.32v3.15Z"/></svg>