<svg id="Layer_29" data-name="Layer 29" xmlns="http://www.w3.org/2000/svg" viewBox="0 0 131 131"><defs><style>.cls-1{fill:#ef8429;}</style></defs><path class="cls-1" d="M95.25,71.3l-.34-.36L66.67,42.7c-.25-.26-.39-.29-.66,0L37.74,71c-.09.09-.22.15-.23.34h9A1,1,0,0,0,47.3,71l13-13q2.9-2.88,5.78-5.79c.22-.22.35-.25.58,0,.47.51,1,1,1.47,1.48L85.36,71a1,1,0,0,0,.79.33h9.1Zm-78.41-.11.07.11H26a.86.86,0,0,0,.67-.28L45.45,52.27c.23-.24.35-.29.61,0,1,1,2,2,3,3,.2.21.31.2.5,0q2.13-2.16,4.29-4.28c.24-.24.2-.35,0-.57q-3.88-3.87-7.75-7.76c-.28-.28-.41-.23-.65,0L17.16,71A2.67,2.67,0,0,1,16.84,71.19Zm98.78.11.06-.1a2.51,2.51,0,0,1-.31-.26L88.28,43.87,87,42.56c-.15-.15-.24-.2-.42,0-2.64,2.66-5.3,5.31-8,8-.17.16-.17.25,0,.41,1.47,1.46,2.94,2.93,4.39,4.4.19.19.28.15.44,0,1-1,2-2,3-3,.26-.27.39-.26.65,0Q96.45,61.67,105.83,71a.81.81,0,0,0,.64.27h9.15ZM57,71.21h18.4c.11,0,.28.07.32-.08s-.12-.2-.2-.28c-2.92-2.93-5.85-5.84-8.76-8.78-.3-.3-.46-.28-.74,0l-8.76,8.77C57.14,71,57,71,57,71.21Zm61.81,8.67h.07l.07.13c1.32,2.7,2.64,5.4,3.93,8.11.18.39.42.36.73.39s.42-.14.53-.38q1.78-3.91,3.59-7.82c.05-.12.06-.29.24-.35v7.8c0,.77,0,.76.78.74.2,0,.29,0,.29-.26,0-3.54,0-7.07,0-10.6,0-.09.05-.24-.06-.25a6.18,6.18,0,0,0-.86,0c-.2,0-.19.21-.25.33q-2.07,4.45-4.13,8.92c0,.1-.06.24-.22.27C122,83.93,120.56,81,119.13,78c-.24-.51-.5-.76-1.08-.68-.26,0-.34.08-.34.35,0,1.44,0,2.89,0,4.33v6.14c0,.22,0,.34.29.34.78,0,.78,0,.78-.77ZM35.3,88.49c0-.16-.07-.21-.12-.28-1.08-1.49-2.15-3-3.24-4.46-.2-.28-.23-.39.14-.51A4.9,4.9,0,0,0,34,82.06c1.14-1.13,1.16-4.1-1.19-4.59a4.89,4.89,0,0,0-1-.12c-1.45,0-2.89,0-4.34,0-.34,0-.45.06-.45.43,0,3.33,0,6.65,0,10,0,.73,0,.71.71.74.35,0,.43-.09.42-.43,0-3,0-6.11,0-9.16a2.81,2.81,0,0,0,0-.29c0-.15.06-.21.22-.21,1.21,0,2.42,0,3.64,0a1.45,1.45,0,0,1,1.46,1.24A2.05,2.05,0,0,1,32.29,82a6.79,6.79,0,0,1-1.83.55c-.1,0-.25,0-.25.14s-.08.56.11.82c1.14,1.58,2.27,3.17,3.4,4.75.08.1.14.19.29.19ZM2,82.89C2,84.6,2,86.32,2,88c0,.38.1.47.46.46.67,0,.67,0,.67-.67v-9c0-.16-.1-.39.24-.39,1.2,0,2.4,0,3.6,0a1.72,1.72,0,0,1,1.74,1.34,2.21,2.21,0,0,1-1.12,2.67,7,7,0,0,1-2.68.82c-.32,0-.49.11-.38.52.17.63.13.65.78.53A8.26,8.26,0,0,0,8.76,83a3.26,3.26,0,0,0,1.07-3.78,2.81,2.81,0,0,0-2.9-1.82c-1.53,0-3,0-4.58,0-.33,0-.37.1-.37.38C2,79.45,2,81.17,2,82.89Zm45.83,0v4.87c0,.74,0,.72.74.75.33,0,.39-.11.39-.42,0-1.37,0-2.75,0-4.12,0-.61,0-.61.61-.61h5.11c.25,0,.39,0,.34-.33a1,1,0,0,1,0-.24c.06-.34,0-.46-.43-.46-1.74,0-3.49,0-5.23,0-.29,0-.41,0-.4-.37,0-1.08,0-2.16,0-3.23,0-.3.09-.37.37-.36,1.76,0,3.52,0,5.27,0,.67,0,.66,0,.67-.66,0-.28-.06-.37-.35-.37q-3.37,0-6.75,0c-.27,0-.34.07-.33.34C47.83,79.42,47.82,81.15,47.82,82.88Zm59.5,0v4.83c0,.76,0,.74.76.77.33,0,.38-.12.37-.4,0-1.46,0-2.92,0-4.37,0-.31.08-.39.39-.39h5.31c.28,0,.41-.06.37-.35a.71.71,0,0,1,0-.29c0-.3-.06-.39-.38-.38h-5.27c-.31,0-.43-.06-.42-.4,0-1.06,0-2.12,0-3.19,0-.32.1-.38.4-.37,1.81,0,3.62,0,5.43,0,.41,0,.55-.11.48-.5a.43.43,0,0,1,0-.16c0-.3-.07-.38-.38-.38-2.23,0-4.47,0-6.7,0-.29,0-.35.08-.35.36C107.33,79.44,107.32,81.17,107.32,82.9Zm-65.7.53c0-1.56,0-3.13,0-4.7,0-.29.08-.36.36-.35,1,0,2,0,3,0,.29,0,.4-.08.36-.37a.43.43,0,0,1,0-.16c.06-.39-.06-.52-.49-.52-2.43,0-4.85,0-7.28,0-.71,0-.69,0-.7.7,0,.3.11.33.35.33.93,0,1.86,0,2.79,0,.38,0,.49.07.49.48,0,2.94,0,5.89,0,8.83,0,.81,0,.8.8.81.28,0,.36-.06.35-.35C41.61,86.57,41.62,85,41.62,83.43Zm30.59-.52v5.23c0,.2,0,.36.28.36q3.41,0,6.83,0c.24,0,.3-.08.28-.3a.92.92,0,0,1,0-.33c0-.31-.07-.41-.4-.41-1.73,0-3.46,0-5.19,0-.68,0-.68,0-.68-.7V78.1c0-.75,0-.72-.74-.75-.35,0-.39.12-.38.41C72.22,79.48,72.21,81.19,72.21,82.91Zm11.74,0V78.06c0-.71,0-.69-.73-.71-.34,0-.43.07-.43.42q0,5,0,10c0,.75,0,.74.77.76.31,0,.39-.08.38-.38C83.94,86.39,84,84.66,84,82.93Z"/><path class="cls-1" d="M95.25,71.3h-9.1a1,1,0,0,1-.79-.33L68.09,53.7c-.49-.49-1-1-1.47-1.48-.23-.24-.36-.21-.58,0Q63.16,55.14,60.26,58l-13,13a1,1,0,0,1-.75.32h-9c0-.19.14-.25.23-.34L66,42.69c.27-.28.41-.25.66,0L94.91,70.94Z"/><path class="cls-1" d="M16.84,71.19a2.67,2.67,0,0,0,.32-.24L45.43,42.68c.24-.25.37-.3.65,0q3.86,3.9,7.75,7.76c.22.22.26.33,0,.57q-2.16,2.11-4.29,4.28c-.19.2-.3.21-.5,0-1-1-2-2-3-3-.26-.27-.38-.22-.61,0L26.71,71a.86.86,0,0,1-.67.28H16.91Z"/><path class="cls-1" d="M115.62,71.3h-9.15a.81.81,0,0,1-.64-.27q-9.37-9.39-18.74-18.76c-.26-.26-.39-.27-.65,0-1,1-2,2-3,3-.16.16-.25.2-.44,0-1.45-1.47-2.92-2.94-4.39-4.4-.17-.16-.17-.25,0-.41,2.65-2.65,5.31-5.3,8-8,.18-.18.27-.13.42,0l1.3,1.31,27.09,27.07a2.51,2.51,0,0,0,.31.26Z"/><path class="cls-1" d="M57,71.21c0-.18.16-.25.26-.35L66,62.09c.28-.29.44-.31.74,0,2.91,2.94,5.84,5.85,8.76,8.78.08.08.24.16.2.28s-.21.08-.32.08H57Z"/><path class="cls-1" d="M118.79,79.88v7.85c0,.78,0,.76-.78.77-.28,0-.3-.12-.29-.34V82c0-1.44,0-2.89,0-4.33,0-.27.08-.31.34-.35.58-.08.84.17,1.08.68,1.43,3,2.9,5.91,4.36,8.86.16,0,.17-.17.22-.27q2.07-4.45,4.13-8.92c.06-.12,0-.32.25-.33a6.18,6.18,0,0,1,.86,0c.11,0,.06.16.06.25,0,3.53,0,7.06,0,10.6,0,.22-.09.26-.29.26-.78,0-.78,0-.78-.74V80c-.18.06-.19.23-.24.35q-1.8,3.9-3.59,7.82c-.11.24-.2.41-.53.38s-.55,0-.73-.39c-1.29-2.71-2.61-5.41-3.93-8.11l-.07-.13Z"/><path class="cls-1" d="M93.19,88.57a7.69,7.69,0,0,1-2.13-.24A4.3,4.3,0,0,1,87.78,85a8.43,8.43,0,0,1,0-4.29,4.43,4.43,0,0,1,4-3.38,8.32,8.32,0,0,1,3.37.14,4.23,4.23,0,0,1,3.22,3.09,8.21,8.21,0,0,1,0,4.71,4.35,4.35,0,0,1-3.9,3.17A5.94,5.94,0,0,1,93.19,88.57Zm0-1,.67,0a3.48,3.48,0,0,0,3.31-2.73,7.36,7.36,0,0,0,0-3.64,3.4,3.4,0,0,0-2.91-2.72,7.38,7.38,0,0,0-2-.07,3.55,3.55,0,0,0-3.42,3,7.3,7.3,0,0,0,0,3.32,3.39,3.39,0,0,0,2,2.48A5.65,5.65,0,0,0,93.22,87.54Z"/><path class="cls-1" d="M18.27,88.57a7.83,7.83,0,0,1-2.09-.24,4.3,4.3,0,0,1-3.29-3.28,8.33,8.33,0,0,1,0-4.32,4.24,4.24,0,0,1,3.18-3.19,8.06,8.06,0,0,1,4.08-.05,4.23,4.23,0,0,1,3.28,3.17,8.28,8.28,0,0,1,0,4.68,4.36,4.36,0,0,1-3.88,3.14A6.47,6.47,0,0,1,18.27,88.57Zm0-1,.73,0a3.48,3.48,0,0,0,3.27-2.73,7.27,7.27,0,0,0,0-3.79,3.36,3.36,0,0,0-2.66-2.53,6.49,6.49,0,0,0-2.56,0,3.45,3.45,0,0,0-3.06,3,7.27,7.27,0,0,0,0,3.28,3.4,3.4,0,0,0,2.46,2.68A6,6,0,0,0,18.31,87.54Z"/><path class="cls-1" d="M63.45,88.57a8.16,8.16,0,0,1-2.12-.24,4.28,4.28,0,0,1-3.23-3.19,8.19,8.19,0,0,1-.05-4.2,4.43,4.43,0,0,1,4-3.57,8.64,8.64,0,0,1,3.32.13,4.27,4.27,0,0,1,3.3,3.27,8.55,8.55,0,0,1,0,4.32,4.39,4.39,0,0,1-3.94,3.39A7.31,7.31,0,0,1,63.45,88.57Zm0-1,.73,0a3.47,3.47,0,0,0,3.27-2.73,7.36,7.36,0,0,0,0-3.64,3.37,3.37,0,0,0-2.71-2.68,6.44,6.44,0,0,0-2.55,0,3.47,3.47,0,0,0-3.06,2.92,7.3,7.3,0,0,0,0,3.32,3.41,3.41,0,0,0,2.47,2.68A5.91,5.91,0,0,0,63.49,87.54Z"/><path class="cls-1" d="M35.3,88.49H34c-.15,0-.21-.09-.29-.19-1.13-1.58-2.26-3.17-3.4-4.75-.19-.26-.11-.54-.11-.82s.15-.12.25-.14A6.79,6.79,0,0,0,32.29,82a2.05,2.05,0,0,0,1.18-2.36A1.45,1.45,0,0,0,32,78.44c-1.22-.06-2.43,0-3.64,0-.16,0-.23.06-.22.21a2.81,2.81,0,0,1,0,.29c0,3,0,6.11,0,9.16,0,.34-.07.44-.42.43-.71,0-.71,0-.71-.74,0-3.33,0-6.65,0-10,0-.37.11-.44.45-.43,1.45,0,2.89,0,4.34,0a4.89,4.89,0,0,1,1,.12c2.35.49,2.33,3.46,1.19,4.59a4.9,4.9,0,0,1-1.93,1.18c-.37.12-.34.23-.14.51,1.09,1.48,2.16,3,3.24,4.46C35.23,88.28,35.33,88.33,35.3,88.49Z"/><path class="cls-1" d="M2,82.89c0-1.72,0-3.44,0-5.16,0-.28,0-.39.37-.38,1.53,0,3.05,0,4.58,0a2.81,2.81,0,0,1,2.9,1.82A3.26,3.26,0,0,1,8.76,83a8.26,8.26,0,0,1-3.47,1.35c-.65.12-.61.1-.78-.53-.11-.41.06-.47.38-.52a7,7,0,0,0,2.68-.82,2.21,2.21,0,0,0,1.12-2.67A1.72,1.72,0,0,0,7,78.43c-1.2,0-2.4,0-3.6,0-.34,0-.24.23-.24.39v9c0,.66,0,.64-.67.67-.36,0-.47-.08-.46-.46C2,86.32,2,84.6,2,82.89Z"/><path class="cls-1" d="M47.82,82.88c0-1.73,0-3.46,0-5.19,0-.27.06-.34.33-.34q3.38,0,6.75,0c.29,0,.36.09.35.37,0,.66,0,.66-.67.66-1.75,0-3.51,0-5.27,0-.28,0-.38.06-.37.36,0,1.07,0,2.15,0,3.23,0,.32.11.37.4.37,1.74,0,3.49,0,5.23,0,.38,0,.49.12.43.46A1,1,0,0,0,55,83c0,.29-.09.33-.34.33H49.55c-.61,0-.61,0-.61.61,0,1.37,0,2.75,0,4.12,0,.31-.06.43-.39.42-.74,0-.74,0-.74-.75Z"/><path class="cls-1" d="M107.32,82.9c0-1.73,0-3.46,0-5.19,0-.28.06-.36.35-.36,2.23,0,4.47,0,6.7,0,.31,0,.43.08.38.38a.43.43,0,0,0,0,.16c.07.39-.07.51-.48.5-1.81,0-3.62,0-5.43,0-.3,0-.41.05-.4.37,0,1.07,0,2.13,0,3.19,0,.34.11.4.42.4h5.27c.32,0,.42.08.38.38a.71.71,0,0,0,0,.29c0,.29-.09.35-.37.35h-5.31c-.31,0-.39.08-.39.39,0,1.45,0,2.91,0,4.37,0,.28,0,.41-.37.4-.76,0-.76,0-.76-.77Z"/><path class="cls-1" d="M41.62,83.43c0,1.57,0,3.14,0,4.71,0,.29-.07.36-.35.35-.8,0-.8,0-.8-.81,0-2.94,0-5.89,0-8.83,0-.41-.11-.49-.49-.48-.93,0-1.86,0-2.79,0-.24,0-.36,0-.35-.33,0-.7,0-.7.7-.7,2.43,0,4.85,0,7.28,0,.43,0,.55.13.49.52a.43.43,0,0,0,0,.16c0,.29-.07.37-.36.37-1,0-2,0-3,0-.28,0-.36.06-.36.35C41.62,80.3,41.62,81.87,41.62,83.43Z"/><path class="cls-1" d="M72.21,82.91c0-1.72,0-3.43,0-5.15,0-.29,0-.43.38-.41.74,0,.74,0,.74.75v8.66c0,.7,0,.7.68.7,1.73,0,3.46,0,5.19,0,.33,0,.44.1.4.41a.92.92,0,0,0,0,.33c0,.22,0,.3-.28.3q-3.42,0-6.83,0c-.31,0-.28-.16-.28-.36Z"/><path class="cls-1" d="M84,82.93c0,1.73,0,3.46,0,5.19,0,.3-.07.38-.38.38-.77,0-.77,0-.77-.76q0-5,0-10c0-.35.09-.43.43-.42.72,0,.73,0,.73.71Z"/></svg>