<svg id="Layer_3" data-name="Layer 3" xmlns="http://www.w3.org/2000/svg" viewBox="0 0 131 131"><defs><style>.cls-1{fill:#ef8429;}</style></defs><path class="cls-1" d="M18,78.2l2-4.66Q27,57.34,34,41.15c.64-1.49,1.3-3,1.92-4.48a.6.6,0,0,1,.66-.43c1.86,0,1.85,0,2.6,1.68q8,18.21,16.07,36.42L57,78.19c-1.13,0-2.18,0-3.23,0-.3,0-.32-.32-.41-.52C51.44,73.43,49.55,69.2,47.69,65a.81.81,0,0,0-.89-.58c-6.22,0-12.44,0-18.66,0a1.08,1.08,0,0,0-1.21.78c-1.74,4.16-3.53,8.3-5.29,12.45a.82.82,0,0,1-.93.62C19.84,78.16,19,78.2,18,78.2ZM37.29,41.33c-.09.13-.12.16-.14.2Q33,51.28,28.76,61c-.21.49,0,.51.4.51H45.43c.71,0,.71,0,.43-.64q-3.36-7.68-6.73-15.38C38.53,44.13,37.93,42.76,37.29,41.33Z"/><path class="cls-1" d="M118.3,78.3c-.26-.23-.18-.48-.19-.7-.06-3.29-.11-6.59-.17-9.88-.08-5-.18-10.09-.24-15.14,0-.57-.33-.65-.73-.76L81.84,41.65c-4.73-1.36-9.44-2.79-14.11-4.35a1.33,1.33,0,0,0-.86,0C60,39.21,53,41,46.05,42.59c-.27,0-.68.3-.79,0s.4-.29.63-.38c7-2.67,14-5.09,21.06-7.4a1.7,1.7,0,0,1,1,.09c5.79,1.63,11.52,3.44,17.23,5.3,10.12,3.29,20.25,6.53,30.37,9.79.94.3,1.87.62,2.81.9a.61.61,0,0,1,.52.71q-.21,10.51-.39,21c0,1.56-.05,3.12-.08,4.68A2,2,0,0,1,118.3,78.3Z"/><path class="cls-1" d="M94.89,60.8V77.27c0,.91-.36,1.17-1.28.93a.28.28,0,0,1-.24-.31v-.58c0-6.12,0-12.23,0-18.35,0-.3-.24-.81.21-.88s1-.22,1.46.31c2.33,2.81,4.71,5.59,7.07,8.38l7.2,8.52a1.86,1.86,0,0,1,.19.38,1.38,1.38,0,0,0,.16-.84V58.67c0-.21-.13-.56.19-.6a2.45,2.45,0,0,1,1.26.06c.13.06.06.28.06.42q0,9.56,0,19.12c0,.43-.13.52-.54.55a1.62,1.62,0,0,1-1.45-.69q-6.92-8.22-13.87-16.4C95.23,61,95.16,60.84,94.89,60.8Z"/><path class="cls-1" d="M68.11,68.24c1.8.85,2.65,2.46,3.62,4,1.17,1.79,2.31,3.6,3.46,5.4a1.12,1.12,0,0,1,.26.61H73.83c-.29,0-.35-.28-.47-.47-1.37-2.14-2.7-4.31-4.09-6.44a4.77,4.77,0,0,0-3.52-2.53c-1-.09-2,0-2.94-.06-.44,0-.33.3-.33.53,0,1.91,0,3.81,0,5.72,0,.89,0,1.79,0,2.69,0,.46-.15.62-.59.56a3.38,3.38,0,0,0-.45,0c-.4,0-.56-.08-.56-.52q0-9.56,0-19.12c0-.26,0-.53.36-.52a54.71,54.71,0,0,1,6.53.16,5.12,5.12,0,0,1,3.51,8,4.91,4.91,0,0,1-2.88,1.9C68.35,68.12,68.28,68.17,68.11,68.24Zm-5.63-5v3.45c0,.27,0,.53.37.52a20.08,20.08,0,0,0,4.83-.32A3.62,3.62,0,0,0,70,65.49a3.77,3.77,0,0,0-2.23-5.78,23.63,23.63,0,0,0-5-.23c-.35,0-.28.26-.28.45Z"/><path class="cls-1" d="M78.44,68.07c0-3.14,0-6.29,0-9.43,0-.48.12-.61.6-.61,3.14,0,6.28,0,9.42,0,.76,0,.52.46.57.84s-.07.63-.58.62c-2.6,0-5.21,0-7.82,0-.47,0-.66.07-.66.61,0,2.22,0,4.45,0,6.67,0,.45.11.57.56.57,2.55,0,5.09,0,7.63,0,.56,0,.63.21.6.67s.12.81-.6.8c-2.54,0-5.08,0-7.63,0-.46,0-.57.14-.56.58,0,2.29,0,4.58,0,6.87,0,.53.17.62.65.62,2.67,0,5.34,0,8,0,.68,0,.62.31.65.76s-.13.69-.67.68q-4.78,0-9.55,0c-.53,0-.64-.16-.63-.64C78.45,74.4,78.44,71.24,78.44,68.07Z"/><path class="cls-1" d="M61.38,85.44c.06,1.67-1,2.67-1.88,3.8a22.67,22.67,0,0,0-1.31,1.89,3.56,3.56,0,0,0,.06,4c.07.12.23.2.16.46a5.09,5.09,0,0,1-2.18-3,4.81,4.81,0,0,1,.41-3.78,24.09,24.09,0,0,1,2.82-4,5.89,5.89,0,0,0,1.75-4.24c.17-.09.24,0,.31.08a24,24,0,0,1,4.91,6.36,7.16,7.16,0,0,1-.66,7.9,1.73,1.73,0,0,1-1.28.84,4.44,4.44,0,0,0,1.1-2.25,5.2,5.2,0,0,0-.49-3.48,17.4,17.4,0,0,0-3.41-4.45A1.84,1.84,0,0,0,61.38,85.44Z"/><path class="cls-1" d="M37.3,86.23V92c0,.35,0,.69,0,1s.11.57-.37.56-.32-.32-.32-.54c0-2.4,0-4.79,0-7.19a2.9,2.9,0,0,1,0-.51c0-.21-.14-.51.2-.59a.6.6,0,0,1,.66.28c1,1.2,2,2.38,3,3.58l2.89,3.42c.08.09.13.24.37.21v-7c0-.27,0-.52.37-.5s.29.3.29.5q0,3.91,0,7.83c0,.17.13.43-.15.49a.66.66,0,0,1-.73-.25c-.85-1-1.73-2.06-2.6-3.09l-3.48-4.09Z"/><path class="cls-1" d="M98.44,86.14c-.93,1.14-1.86,2.27-2.77,3.43-.27.35-.41.38-.7,0-.9-1.17-1.83-2.3-2.75-3.45-.25.13-.15.33-.15.48q0,3.24,0,6.47c0,.28.07.56-.39.55s-.31-.31-.31-.54c0-2.56,0-5.13,0-7.69,0-.21-.14-.51.18-.6a.64.64,0,0,1,.73.27c.88,1.12,1.78,2.24,2.67,3.36l.39.46,2.91-3.64.23-.3a.53.53,0,0,1,.59-.15c.28,0,.18.3.18.47q0,3.95,0,7.89c0,.23,0,.47-.33.47s-.33-.24-.33-.47V87.07c0-.28,0-.56,0-.84a.81.81,0,0,0,0-.16Z"/><path class="cls-1" d="M111.4,86V93.1c0,.25.06.52-.35.53s-.35-.28-.35-.52q0-3.84,0-7.7c0-.21-.14-.5.18-.61s.51.07.7.3l3.93,4.66,2.2,2.58c.22-.19.12-.39.12-.57,0-2.14,0-4.28,0-6.42,0-.23-.15-.59.34-.57s.3.34.3.56q0,3.84,0,7.7c0,.19.14.47-.13.56a.62.62,0,0,1-.72-.26Q114.82,90,112,86.64Z"/><path class="cls-1" d="M104.73,89.05a2.25,2.25,0,0,1,2,1.77,2.27,2.27,0,0,1-2.28,2.77c-.93.08-1.88,0-2.82,0-.3,0-.35-.14-.34-.39V85.15c0-.27.08-.38.37-.37.68,0,1.37,0,2,.06a2.24,2.24,0,0,1,2.26,1.56C106.22,87.48,105.91,88.17,104.73,89.05Zm-2.79,2.2v1.34c0,.21,0,.4.29.39a10.86,10.86,0,0,0,2.48-.12A1.64,1.64,0,0,0,106,91.32a1.61,1.61,0,0,0-1.23-1.67,9,9,0,0,0-2.54-.19c-.27,0-.31.16-.31.38C102,90.31,101.94,90.78,101.94,91.25Zm0-4c.13.48-.31,1.26.19,1.58s1.19,0,1.81,0l.06,0A1.61,1.61,0,0,0,105.26,87a1.48,1.48,0,0,0-1.45-1.49,7.86,7.86,0,0,0-1-.1c-1.11,0-.9-.09-.92.91Z"/><path class="cls-1" d="M53.65,91.34v.39c0,1.49,0,1.51-1.45,1.84a5.35,5.35,0,0,1-4.53-.72,4.63,4.63,0,0,1-1.39-5.33A4.49,4.49,0,0,1,51,84.7a7.59,7.59,0,0,1,2.1.51c.2.08.4.15.39.43s0,.52-.42.31a5.3,5.3,0,0,0-2.59-.59,3.87,3.87,0,0,0-.22,7.73,5.27,5.27,0,0,0,2.32-.37c.25-.09.4-.21.39-.5,0-.56,0-1.11,0-1.67,0-.27-.11-.38-.38-.37s-.82,0-1.22,0c-.22,0-.31-.09-.3-.31s0-.34.28-.34c.68,0,1.37,0,2.05,0,.3,0,.27.22.27.4C53.66,90.4,53.65,90.87,53.65,91.34Z"/><path class="cls-1" d="M127.52,86.11a5.89,5.89,0,0,0-3.13-.74,3.88,3.88,0,0,0,0,7.73,4.82,4.82,0,0,0,.76,0c1.76-.16,2.29-.93,1.89-2.65-.06-.28-.23-.26-.42-.26-.39,0-.77,0-1.16,0s-.33-.1-.32-.34.08-.31.3-.31c.66,0,1.32,0,2,0,.28,0,.3.16.3.37,0,.94,0,1.89,0,2.83,0,.17,0,.32-.2.42-1.51.74-4.37,1-6-.53a4.73,4.73,0,0,1-1-5.33A4.42,4.42,0,0,1,125,84.7a8.52,8.52,0,0,1,2,.43C127.51,85.29,127.72,85.55,127.52,86.11Z"/><path class="cls-1" d="M26.21,93.57a.65.65,0,0,1-.94-.46c-.25-.66-.6-1.29-.84-1.94a.67.67,0,0,0-.77-.49c-1.05,0-2.09,0-3.14,0a.63.63,0,0,0-.71.46c-.25.66-.59,1.28-.82,2-.16.49-.43.63-1,.48l1-2.26c.87-2,1.75-4,2.63-6,.09-.21.11-.51.47-.52s.38.28.48.5l3.48,7.91A4.09,4.09,0,0,1,26.21,93.57Zm-4.12-7.68c-.59,1.37-1.14,2.61-1.68,3.86-.1.25,0,.34.27.34q1.44,0,2.88,0c.28,0,.34-.11.23-.36C23.24,88.5,22.69,87.26,22.09,85.89Z"/><path class="cls-1" d="M82.28,87.78c0-.77,0-1.54,0-2.31,0-.25-.23-.7.36-.69s.32.42.32.67c0,1.28,0,2.56,0,3.85,0,.38,0,.76.06,1.15a2.86,2.86,0,0,0,5.71,0c.18-1.6,0-3.21.08-4.81a4.34,4.34,0,0,0,0-.51c0-.25,0-.41.35-.39s.32.14.32.36c0,1.82.06,3.64,0,5.45a3.58,3.58,0,0,1-7.12,0c-.07-.91,0-1.84,0-2.76Z"/><path class="cls-1" d="M10.77,89.26v3.91c0,.24.05.47-.33.46s-.36-.2-.36-.45c0-1.07,0-2.14,0-3.21,0-.37-.11-.47-.48-.46-1.6,0-3.2,0-4.81,0-.38,0-.45.13-.45.48,0,1.07,0,2.14,0,3.21,0,.25,0,.44-.36.43s-.3-.23-.3-.43v-8c0-.23,0-.47.34-.46s.32.26.32.48c0,1,0,2,0,3,0,.43.08.6.55.59,1.54,0,3.08,0,4.62,0,.45,0,.59-.14.57-.58q0-1.35,0-2.7c0-.29-.27-.83.39-.79s.27.5.28.75C10.79,86.78,10.77,88,10.77,89.26Z"/><path class="cls-1" d="M69.76,89.26c0-1.33,0-2.65,0-4,0-.39.12-.52.51-.5a21.9,21.9,0,0,1,2.56.09,2.24,2.24,0,0,1,2.12,2.36A2.26,2.26,0,0,1,72.7,89.5a10.23,10.23,0,0,1-1.66,0c-.47,0-.58.15-.57.58,0,1,0,2,0,3,0,.26,0,.5-.38.5s-.34-.28-.34-.52C69.75,91.83,69.76,90.54,69.76,89.26Zm1.95-.37a5.62,5.62,0,0,0,1.19-.08,1.6,1.6,0,0,0,1.29-1.73,1.56,1.56,0,0,0-1.43-1.55,14.2,14.2,0,0,0-1.84-.11c-.34,0-.46.11-.45.44,0,.62,0,1.24,0,1.86C70.48,88.89,70.48,88.89,71.71,88.89Z"/><path class="cls-1" d="M12.77,89.22c0-1.28,0-2.57,0-3.85,0-.48.14-.61.61-.6,1.2,0,2.39,0,3.59,0,.23,0,.48-.05.48.32s-.27.32-.49.32c-1,0-2,0-2.94,0-.46,0-.58.15-.56.59,0,.79,0,1.58,0,2.37,0,.36.1.49.47.48,1,0,2,0,3,0,.26,0,.44,0,.44.36s-.23.3-.43.3c-1,0-1.93,0-2.89,0-.4,0-.56.07-.55.51,0,.84,0,1.67,0,2.5,0,.38.11.47.47.47C15,93,16,93,17.06,93c.23,0,.48-.06.47.33s-.26.31-.49.31c-1.26,0-2.52,0-3.78,0-.4,0-.51-.11-.5-.5C12.78,91.83,12.77,90.52,12.77,89.22Z"/><path class="cls-1" d="M29.55,89.6c0,1.15,0,2.31,0,3.46,0,.25.14.58-.35.56s-.32-.36-.32-.59c0-2.33,0-4.66,0-7,0-.53-.16-.66-.65-.63-.72,0-1.45,0-2.17,0-.24,0-.41,0-.41-.33s.2-.32.43-.32c2.09,0,4.18,0,6.27,0,.24,0,.41,0,.41.33s-.18.32-.41.32c-.73,0-1.45,0-2.18,0-.53,0-.64.17-.63.66,0,1.17,0,2.35,0,3.52Z"/><path class="cls-1" d="M76.27,89.21c0-1.28,0-2.57,0-3.85,0-.25-.11-.6.36-.58s.32.34.32.57c0,2.33,0,4.66,0,7,0,.55.16.67.68.65,1.06,0,2.13,0,3.2,0,.24,0,.47,0,.47.33s-.21.31-.42.31c-1.39,0-2.78,0-4.17,0-.41,0-.44-.19-.43-.51Z"/><path class="cls-1" d="M33.9,89.2V85.3c0-.25-.06-.52.36-.53s.37.25.37.51v7.81c0,.27.07.56-.39.54s-.34-.29-.34-.53c0-1.3,0-2.6,0-3.9Z"/><path class="cls-1" d="M108.74,89.22v3.9c0,.25.08.52-.35.51s-.33-.3-.33-.54q0-3.9,0-7.8c0-.25-.06-.52.35-.51s.33.31.33.54c0,1.3,0,2.6,0,3.9Z"/><path class="cls-1" d="M98.44,86.14l.12-.07a.81.81,0,0,1,0,.16Z"/></svg>