<svg id="Layer_30" data-name="Layer 30" xmlns="http://www.w3.org/2000/svg" viewBox="0 0 131 131"><defs><style>.cls-1{fill:#1b3d65;}</style></defs><path class="cls-1" d="M66.46,59a1.9,1.9,0,0,1,.58-.45,23.59,23.59,0,0,0,4.78-4,11.6,11.6,0,0,0,2.78-4.75,6.18,6.18,0,0,0-2.27-6.71,10.57,10.57,0,0,0-6-2,16.85,16.85,0,0,0-6,.84,23.38,23.38,0,0,0-5.83,2.8.54.54,0,0,0-.27.68c.13.46.24.93.36,1.39A81,81,0,0,0,59.73,61,62.05,62.05,0,0,0,67.3,73.16a.94.94,0,0,0,1,.38A23.13,23.13,0,0,0,87.75,53a21.7,21.7,0,0,0-.26-6.33A23,23,0,0,0,62.21,27.88a22.48,22.48,0,0,0-9.9,3.52.9.9,0,0,0-.48,1c.44,3.48,1,7,1.75,10.38,0,.11,0,.26.21.29s.22-.15.32-.24a26.51,26.51,0,0,1,4.52-3.22,21.3,21.3,0,0,1,13.71-2.89,11.7,11.7,0,0,1,6.31,2.75,6.7,6.7,0,0,1,2.43,5.26A8.31,8.31,0,0,1,80,48.66a17.43,17.43,0,0,1-4.71,5.26,44,44,0,0,1-8.35,5C66.77,59,66.65,59.11,66.46,59Zm4.69,21.25c-.65-.62-1.29-1.23-1.93-1.86A51.39,51.39,0,0,1,64.41,73a63.46,63.46,0,0,1-8.36-14.56,82.15,82.15,0,0,1-3.77-11.22c-.05-.21,0-.46-.26-.63a18.34,18.34,0,0,0-1.75,1.52c-.56.53-1.1,1.08-1.63,1.64s-1,1.11-1.54,1.74a.93.93,0,0,1,.22-.58A37.77,37.77,0,0,1,51.4,45.5a.82.82,0,0,0,.26-.83c-.56-2.32-1-4.67-1.38-7Q49.53,33,49.2,28.29c-.15-2.22-.26-4.44-.24-6.67a.58.58,0,0,0-.08-.41,2,2,0,0,0-.23.71A28.93,28.93,0,0,0,48,27.48a46.62,46.62,0,0,0,.1,5.67.89.89,0,0,1-.36.86A22.85,22.85,0,0,0,40.13,56.5,22.53,22.53,0,0,0,51.76,71.88a22.1,22.1,0,0,0,11.77,2.69,1.18,1.18,0,0,1,1,.41,28.82,28.82,0,0,0,3.26,3A22,22,0,0,0,71.15,80.28Zm-3.86,29.44c.45-.6,12.49-27.66,12.54-28.13H75a.42.42,0,0,0-.43.28l-.18.4q-3.36,7.51-6.73,15a1.48,1.48,0,0,1-.31.58c-.17,0-.19-.19-.23-.3-.37-.81-.73-1.63-1.09-2.44q-2.89-6.5-5.78-13a.75.75,0,0,0-.83-.54c-1.35,0-2.7,0-4.06,0a.79.79,0,0,0-.59.12Zm38.62-20.29a7.08,7.08,0,0,0-1.4.15,7.34,7.34,0,0,0-4.64,2.69,5.6,5.6,0,0,0,.71,7.6,8,8,0,0,0,3.31,1.52c.83.19,1.69.23,2.52.37a4.16,4.16,0,0,1,1.9.75,1,1,0,0,1,0,1.66,2.82,2.82,0,0,1-1.35.61,6,6,0,0,1-5.06-1.13c-.24-.19-.39-.23-.6,0-.85,1-1.71,2-2.56,3.06-.25.31-.24.34.08.6a10.56,10.56,0,0,0,3.14,1.76,11.22,11.22,0,0,0,5,.52,8.57,8.57,0,0,0,4.06-1.44,5.89,5.89,0,0,0,.09-9.6,9.49,9.49,0,0,0-4.51-1.67,9.3,9.3,0,0,1-2.5-.48.79.79,0,0,1-.28-1.42,2.55,2.55,0,0,1,1.62-.73,5.87,5.87,0,0,1,4,.95c.38.26.39.26.72-.07.62-.62,1.22-1.25,1.83-1.87l1-1c.17-.17.18-.3,0-.45s-.35-.29-.54-.43A10.94,10.94,0,0,0,105.91,89.43Zm18.21,9h0V95c0-.6,0-.61.63-.61h2.5c.44,0,.46,0,.46-.46,0-1.31,0-2.62,0-3.93,0-.34-.14-.43-.44-.42h-2.56c-.59,0-.6,0-.6-.57V85.3c0-.51,0-.52-.53-.52H119.9c-.58,0-.59,0-.59.58,0,1.23,0,2.45,0,3.68,0,.51,0,.52-.52.52h-2.5c-.54,0-.54,0-.54.57,0,1.23,0,2.45,0,3.68,0,.55,0,.56.54.56h2.5c.51,0,.51,0,.52.54,0,.14,0,.29,0,.43,0,2.13,0,4.25,0,6.37a7.67,7.67,0,0,0,3.86,6.91,7.47,7.47,0,0,0,6.3.72c.49-.15.51-.19.35-.65-.42-1.2-.85-2.4-1.27-3.59-.16-.44-.17-.43-.6-.33a3.1,3.1,0,0,1-.74.13,3,3,0,0,1-3.09-2.93C124.09,100.81,124.12,99.64,124.12,98.48ZM27.92,91.4c0-.48,0-1,0-1.42s0-.49-.49-.49H23.8c-.78,0-.74-.07-.74.75v18.58a2,2,0,0,0,0,.25c0,.45,0,.46.45.46q2,0,3.93,0c.45,0,.45,0,.47-.45v-.38c0-3.36,0-6.73,0-10.1a4.08,4.08,0,0,1,3.41-4.22,3.93,3.93,0,0,1,2.76.5c.29.16.44.11.58-.18.66-1.37,1.34-2.73,2-4.08.14-.27.06-.42-.19-.54a7.06,7.06,0,0,0-2.33-.66,7.79,7.79,0,0,0-5.67,1.64C28.34,91.18,28.22,91.37,27.92,91.4Z"/><path class="cls-1" d="M66.46,59c.19.08.31,0,.44-.09a44,44,0,0,0,8.35-5A17.43,17.43,0,0,0,80,48.66a8.31,8.31,0,0,0,1.12-3.92,6.7,6.7,0,0,0-2.43-5.26,11.7,11.7,0,0,0-6.31-2.75,21.3,21.3,0,0,0-13.71,2.89,26.51,26.51,0,0,0-4.52,3.22c-.1.09-.23.17-.32.24s-.18-.18-.21-.29c-.77-3.43-1.31-6.9-1.75-10.38a.9.9,0,0,1,.48-1,23.1,23.1,0,0,1,27.56,1.93,22.49,22.49,0,0,1,7.62,13.33A21.7,21.7,0,0,1,87.75,53,23.13,23.13,0,0,1,68.31,73.54a.94.94,0,0,1-1-.38A62.05,62.05,0,0,1,59.73,61a81,81,0,0,1-5.16-14.16c-.12-.46-.23-.93-.36-1.39a.54.54,0,0,1,.27-.68A23.38,23.38,0,0,1,60.31,42a16.85,16.85,0,0,1,6-.84,10.57,10.57,0,0,1,6,2,6.18,6.18,0,0,1,2.27,6.71,11.6,11.6,0,0,1-2.78,4.75,23.59,23.59,0,0,1-4.78,4A1.9,1.9,0,0,0,66.46,59Z"/><path class="cls-1" d="M71.15,80.28A22,22,0,0,1,67.82,78a28.82,28.82,0,0,1-3.26-3,1.18,1.18,0,0,0-1-.41,22.1,22.1,0,0,1-11.77-2.69A22.53,22.53,0,0,1,40.13,56.5,22.85,22.85,0,0,1,47.72,34a.89.89,0,0,0,.36-.86,46.62,46.62,0,0,1-.1-5.67,28.93,28.93,0,0,1,.67-5.56,2,2,0,0,1,.23-.71.58.58,0,0,1,.08.41c0,2.23.09,4.45.24,6.67q.33,4.7,1.08,9.35c.37,2.36.82,4.71,1.38,7a.82.82,0,0,1-.26.83,37.77,37.77,0,0,0-4.08,5.43.93.93,0,0,0-.22.58c.56-.63,1-1.2,1.54-1.74s1.07-1.11,1.63-1.64A18.34,18.34,0,0,1,52,46.61c.22.17.21.42.26.63a82.15,82.15,0,0,0,3.77,11.22A63.46,63.46,0,0,0,64.41,73a51.39,51.39,0,0,0,4.81,5.4C69.86,79.05,70.5,79.66,71.15,80.28Z"/><path class="cls-1" d="M1.1,95.47v-13c0-.14,0-.29,0-.43,0-.31.07-.49.41-.45a2.09,2.09,0,0,0,.25,0H13.43a8,8,0,0,1,.22,16c-2.31,0-4.62,0-6.93,0H6.29c-.2,0-.32.07-.31.29s0,.29,0,.43V108.6c0,.11,0,.21,0,.32,0,.61,0,.61-.63.62H1.67c-.57,0-.57,0-.57-.6V95.47Zm9-9H6.38c-.33,0-.43.1-.43.42,0,1.81,0,3.62,0,5.42,0,.43,0,.44.46.45H9.48c1.32,0,2.65,0,4,0A3,3,0,0,0,16,91.39a3,3,0,0,0,.2-3.3,2.89,2.89,0,0,0-2.72-1.65Z"/><path class="cls-1" d="M81.47,102a5.51,5.51,0,0,0,4,2.88,5.16,5.16,0,0,0,3.82-.76c.22-.13.39-.2.6,0,1,1,1.91,2,2.87,3,.23.24.06.34-.12.48a9.72,9.72,0,0,1-4.28,1.92,10.23,10.23,0,0,1-10-16.36,9.92,9.92,0,0,1,8.45-3.91,10.18,10.18,0,0,1,9.66,8.49,11.15,11.15,0,0,1,0,3.6c-.09.59-.09.6-.7.6H81.47Zm9.65-4.86a5.14,5.14,0,0,0-4.84-3c-2.06,0-4.2,1.36-4.72,3Z"/><path class="cls-1" d="M67.29,109.72l-12.5-28a.79.79,0,0,1,.59-.12c1.36,0,2.71,0,4.06,0a.75.75,0,0,1,.83.54q2.88,6.51,5.78,13c.36.81.72,1.63,1.09,2.44,0,.11.06.25.23.3a1.48,1.48,0,0,0,.31-.58q3.38-7.5,6.73-15l.18-.4a.42.42,0,0,1,.43-.28h4.81C79.78,82.06,67.74,109.12,67.29,109.72Z"/><path class="cls-1" d="M36.18,99.51a10.2,10.2,0,1,1,10.11,10.27A10.21,10.21,0,0,1,36.18,99.51Zm10.16,5.39A5.34,5.34,0,1,0,41,99.57,5.38,5.38,0,0,0,46.34,104.9Z"/><path class="cls-1" d="M105.91,89.43a10.94,10.94,0,0,1,6.46,2c.19.14.35.29.54.43s.19.28,0,.45l-1,1c-.61.62-1.21,1.25-1.83,1.87-.33.33-.34.33-.72.07a5.87,5.87,0,0,0-4-.95,2.55,2.55,0,0,0-1.62.73.79.79,0,0,0,.28,1.42,9.3,9.3,0,0,0,2.5.48,9.49,9.49,0,0,1,4.51,1.67,5.89,5.89,0,0,1-.09,9.6,8.57,8.57,0,0,1-4.06,1.44,11.22,11.22,0,0,1-5-.52,10.56,10.56,0,0,1-3.14-1.76c-.32-.26-.33-.29-.08-.6.85-1,1.71-2,2.56-3.06.21-.27.36-.23.6,0a6,6,0,0,0,5.06,1.13,2.82,2.82,0,0,0,1.35-.61,1,1,0,0,0,0-1.66,4.16,4.16,0,0,0-1.9-.75c-.83-.14-1.69-.18-2.52-.37a8,8,0,0,1-3.31-1.52,5.6,5.6,0,0,1-.71-7.6,7.34,7.34,0,0,1,4.64-2.69A7.08,7.08,0,0,1,105.91,89.43Z"/><path class="cls-1" d="M124.12,98.48c0,1.16,0,2.33,0,3.49a3,3,0,0,0,3.09,2.93,3.1,3.1,0,0,0,.74-.13c.43-.1.44-.11.6.33.42,1.19.85,2.39,1.27,3.59.16.46.14.5-.35.65a7.47,7.47,0,0,1-6.3-.72,7.67,7.67,0,0,1-3.86-6.91c0-2.12,0-4.24,0-6.37,0-.14,0-.29,0-.43,0-.52,0-.53-.52-.54h-2.5c-.54,0-.54,0-.54-.56,0-1.23,0-2.45,0-3.68,0-.56,0-.56.54-.57h2.5c.51,0,.52,0,.52-.52,0-1.23,0-2.45,0-3.68,0-.57,0-.58.59-.58h3.68c.52,0,.53,0,.53.52V89c0,.57,0,.57.6.57h2.56c.3,0,.45.08.44.42,0,1.31,0,2.62,0,3.93,0,.43,0,.46-.46.46h-2.5c-.62,0-.63,0-.63.61v3.5Z"/><path class="cls-1" d="M27.92,91.4c.3,0,.42-.22.58-.34a7.79,7.79,0,0,1,5.67-1.64,7.06,7.06,0,0,1,2.33.66c.25.12.33.27.19.54-.68,1.35-1.36,2.71-2,4.08-.14.29-.29.34-.58.18a3.93,3.93,0,0,0-2.76-.5,4.08,4.08,0,0,0-3.41,4.22c0,3.37,0,6.74,0,10.1v.38c0,.43,0,.45-.47.45q-2,0-3.93,0c-.44,0-.44,0-.45-.46a2,2,0,0,1,0-.25V90.24c0-.82,0-.75.74-.75h3.62c.48,0,.49,0,.49.49S27.92,90.92,27.92,91.4Z"/></svg>