<svg id="Layer_32" data-name="Layer 32" xmlns="http://www.w3.org/2000/svg" viewBox="0 0 131 131"><defs><style>.cls-1{fill:#1b3d65;}</style></defs><path class="cls-1" d="M85.94,64.8,85.17,66c-5.73,5-12.66,5.6-19.77,5.32-6.31-.25-12.11-3-18.31-4-4.92-.79-8.09-4.72-8.15-8.52a7.57,7.57,0,0,1,3.34-6.69l.34.35c-.19.35-.37.72-.58,1.07-2.78,4.66-1.78,8.36,2.93,11.14a15.09,15.09,0,0,0,6.5,1.89,18.15,18.15,0,0,1-2-6.51c0-.19.18-.4.44-.93,1,2.54,1.78,5,3.77,6.62,1,.85,1.84,2.52,3.75.63,1-1,3.05-1,4.47-1.81,5.28-3.13,5.44-9.24.1-12.74-4.1-2.69-8.46-5-12.76-7.34-2.85-1.56-5.49-3.28-5.18-7s3.13-5.77,6.42-7c4.24-1.57,8.59-.09,12.89-.2.9,0,.89.79.9,1.46a30.66,30.66,0,0,1-.17,4c-1-2.93-3.38-3.85-6-4.36a10.52,10.52,0,0,0-8,1.47c-2.9,1.91-3.09,5.6-.15,7.48C54.17,43,58.65,45.44,63,48a18.66,18.66,0,0,1,3.27,2.15c1.49,1.38,2.89,1.14,4.42.2a6.21,6.21,0,0,0,2.76-6.82c-.44-2.29-2.87-4.15-6.11-4.47-2.6-.25-5.22-.31-7.83-.42a10.45,10.45,0,0,1-5.18-1.31c6.26-.06,12.59-.68,18.68,1.19,4.72,1.44,6.55,4.65,5.31,8.42-.65,2-2.3,3.07-4.13,4.12C85.6,54.05,88.57,57.58,85.94,64.8ZM58.88,68.23c4.53,1.63,9.11,1.56,13.73,1A11.67,11.67,0,0,0,80,65.64a6.82,6.82,0,0,0,0-9.54c-3-2.94-6.79-3.45-11.08-3.77,2.2,3.88,2.63,7.43-.14,10.79C66.18,66.19,62.66,67.43,58.88,68.23Zm-1.45-.4a2.93,2.93,0,0,0,.43.13s.12-.08.17-.13c-.1-.07-.2-.19-.32-.2S57.54,67.75,57.43,67.83Z"/><path class="cls-1" d="M62.89,20.12A30.43,30.43,0,1,0,93.31,50.54,30.42,30.42,0,0,0,62.89,20.12Zm0,59.06A28.64,28.64,0,1,1,91.52,50.54,28.64,28.64,0,0,1,62.89,79.18Z"/><path class="cls-1" d="M12.78,88.34a2.5,2.5,0,0,0-.72-1,2.57,2.57,0,0,0-1.73-.58,2,2,0,0,0-2.26,1.93c0,.48.17,1.32,1.73,1.94l1.61.65c3,1.2,3.77,2.89,3.77,4.71A4.94,4.94,0,0,1,10,101.13a4.7,4.7,0,0,1-3.77-1.61,5.19,5.19,0,0,1-1.35-3.13l2.43-.53a3.45,3.45,0,0,0,.68,2,2.52,2.52,0,0,0,2.09,1,2.57,2.57,0,0,0,2.64-2.69c0-1.64-1.25-2.31-2.31-2.74l-1.54-.65c-1.32-.56-3.26-1.66-3.26-4.07a4.33,4.33,0,0,1,4.68-4.23,4.73,4.73,0,0,1,3.22,1.08,5.51,5.51,0,0,1,1.23,1.61Z"/><path class="cls-1" d="M26.48,97H19.63l-1.76,3.87H15.23l8-17,7.6,17H28.16Zm-1-2.31L23.11,89.2l-2.47,5.44Z"/><path class="cls-1" d="M34.07,84.78V98.51h4.71v2.31H31.62v-16Z"/><path class="cls-1" d="M42.34,84.78V98.51h4.71v2.31H39.89v-16Z"/><path class="cls-1" d="M50.78,93.89l-5.27-9.11H48.3L52,91.2l3.71-6.42h2.78l-5.26,9.11v6.93H50.78Z"/><path class="cls-1" d="M66,84.78c2.07,0,3.37.27,4.42,1.25a4.1,4.1,0,0,1,1.28,3.17,3.52,3.52,0,0,1-.48,1.9,2.65,2.65,0,0,1-1.2,1.11,4.45,4.45,0,0,1,2.06,1.15,4.17,4.17,0,0,1,1.06,3,3.89,3.89,0,0,1-1.06,2.88,6.2,6.2,0,0,1-4.49,1.57h-4v-16Zm0,6.9h.75a2.81,2.81,0,0,0,2-.62,2.42,2.42,0,0,0,.63-1.83,2,2,0,0,0-.58-1.54,2.61,2.61,0,0,0-1.94-.6h-.85Zm0,6.83h1.49A4.18,4.18,0,0,0,70,97.88a2.29,2.29,0,0,0,.8-1.78,2.41,2.41,0,0,0-.65-1.68,3.53,3.53,0,0,0-2.53-.72H66.06Z"/><path class="cls-1" d="M77.91,84.78a7.14,7.14,0,0,1,4.23.94A4.46,4.46,0,0,1,84,89.49,4.4,4.4,0,0,1,80.49,94l5,6.86h-3l-4.59-6.57H77.5v6.57H75.05v-16Zm-.41,7.36h.77c.68,0,3.42-.07,3.42-2.62,0-2.26-2.14-2.48-3.34-2.48H77.5Z"/><path class="cls-1" d="M96.11,97H89.26l-1.76,3.87H84.86l8-17,7.6,17H97.79Zm-1-2.31L92.74,89.2l-2.47,5.44Z"/><path class="cls-1" d="M104.62,84.78a9.36,9.36,0,0,1,6,1.56,7.94,7.94,0,0,1,3.08,6.47,7.65,7.65,0,0,1-3.23,6.47,9.2,9.2,0,0,1-5.86,1.54h-3.32v-16Zm-.92,13.73h1.06A7,7,0,0,0,109,97.38a5.94,5.94,0,0,0,0-9.18,7.11,7.11,0,0,0-4.28-1.11H103.7Z"/><path class="cls-1" d="M118.39,93.89l-5.27-9.11h2.79l3.7,6.42,3.71-6.42h2.79l-5.27,9.11v6.93h-2.45Z"/><path class="cls-1" d="M46.06,105.36a2.6,2.6,0,0,0-1.81-.74,2.38,2.38,0,0,0-2.43,2.54,2.41,2.41,0,0,0,2.44,2.5,2.65,2.65,0,0,0,1.8-.77v1.21a3.64,3.64,0,0,1-1.83.5,3.34,3.34,0,0,1-2.36-.92,3.27,3.27,0,0,1-1.07-2.52,3.49,3.49,0,0,1,1.07-2.61,3.3,3.3,0,0,1,2.41-.87,3.17,3.17,0,0,1,1.78.48Z"/><path class="cls-1" d="M53.73,107.14a3.47,3.47,0,1,1-3.47-3.46A3.38,3.38,0,0,1,53.73,107.14Zm-1,0a2.45,2.45,0,1,0-2.45,2.52A2.39,2.39,0,0,0,52.71,107.14Z"/><path class="cls-1" d="M58.73,108.86H55.88l-.73,1.61h-1.1l3.32-7.06,3.16,7.06h-1.1Zm-.41-1-1-2.26-1,2.26Z"/><path class="cls-1" d="M66.16,105.36a2.6,2.6,0,0,0-1.81-.74,2.38,2.38,0,0,0-2.43,2.54,2.41,2.41,0,0,0,2.44,2.5,2.65,2.65,0,0,0,1.8-.77v1.21a3.64,3.64,0,0,1-1.83.5,3.34,3.34,0,0,1-2.36-.92,3.27,3.27,0,0,1-1.07-2.52A3.49,3.49,0,0,1,62,104.55a3.3,3.3,0,0,1,2.41-.87,3.17,3.17,0,0,1,1.78.48Z"/><path class="cls-1" d="M68.44,106.44H71.3V103.8h1v6.67h-1V107.4H68.44v3.07h-1V103.8h1Z"/><path class="cls-1" d="M74.94,103.8v6.67h-1V103.8Z"/><path class="cls-1" d="M76.54,110.47v-7.12l4.84,5.07V103.8h1v7.08l-4.84-5.07v4.66Z"/><path class="cls-1" d="M87.45,107H90.2v0a3.64,3.64,0,0,1-1,2.7,3.12,3.12,0,0,1-2.27.85,2.91,2.91,0,0,1-2.27-.91,3.5,3.5,0,0,1,2.49-6,3.61,3.61,0,0,1,1.74.42,3,3,0,0,1,1.08,1l-.81.57a2.72,2.72,0,0,0-.82-.76,2.25,2.25,0,0,0-1.18-.29,2.41,2.41,0,0,0-1.76.69,2.77,2.77,0,0,0,0,3.68,2.17,2.17,0,0,0,1.67.67,2,2,0,0,0,1.49-.59,1.79,1.79,0,0,0,.56-1.13H87.45Z"/></svg>