<svg id="Layer_33" data-name="Layer 33" xmlns="http://www.w3.org/2000/svg" viewBox="0 0 131 131"><defs><style>.cls-1{fill:#ef8429;}</style></defs><path class="cls-1" d="M69.71,54.07a2.64,2.64,0,0,0-2.31.76c-.48.46-.81.61-1.34.05a1.06,1.06,0,0,0-1.25-.37,2.57,2.57,0,0,1,1.1,2.08c0,3.2,0,6.4,0,9.6a1.53,1.53,0,0,1-.51,1.24c-.23.19-.22.36.09.45a5.66,5.66,0,0,1,2.18,1.31c.16.14.3.24.51.08.58-.44,1.15-.89,1.74-1.33.11-.09.16-.15.08-.29s-.15-.25-.26-.13c-.52.52-.75-.11-1.1-.27a1,1,0,0,1-.55-1.07c0-2.73,0-5.47,0-8.2C68.1,56.48,68,55,69.71,54.07Zm43.76.22c-1.28-.12-1.28-.12-1.53,1-.06.26-.11.52-.18.78s-.19.35,0,.45.35,0,.46-.23Z"/><path class="cls-1" d="M4.23,57.92c.33-.1.29-.43.37-.66a5.55,5.55,0,0,1,5.85-3.68c2.26.09,4.48.64,6.73.88,1.14.11,2.21.19,2.9-1,.07-.12.17-.25.35-.12a.39.39,0,0,1,.19.42,3.15,3.15,0,0,1-2.88,2.66,3.31,3.31,0,0,1-.44,0c-1.47,0-1.47,0-1.47,1.53,0,2.91,0,5.82,0,8.72,0,.58.13.65.65.46A6.57,6.57,0,0,0,20,64.33c.11-.17.16-.56.51-.35s.05.44,0,.63a7.37,7.37,0,0,1-7.58,4.81,7.54,7.54,0,0,1-6-2.78,7,7,0,0,1,.66-8.93,12.09,12.09,0,0,1,2.3-2,4,4,0,0,0-5,2.3c-.15.36-.26.6-.68.39Zm7,2.41V56.17c0-.2.09-.47-.2-.56a.63.63,0,0,0-.6.18,10.23,10.23,0,0,0-1.35,1.44,6.48,6.48,0,0,0,.2,8.53c.79.82,1.45.65,1.82-.47a3.46,3.46,0,0,0,.13-1Zm4.09,1.55c0-1.56,0-3.13,0-4.69,0-.69-.2-1-.84-1a1.45,1.45,0,0,1-.37,0c-.64-.24-.7.08-.69.62,0,2.17,0,4.34,0,6.51a1.91,1.91,0,0,1-.64,1.5c-.62.57-1.26,1.15-1.91,1.69-.32.26-.28.37.07.54a7.69,7.69,0,0,0,3.7.6c.5,0,.67-.17.67-.68C15.34,65.24,15.36,63.56,15.36,61.88Z"/><path class="cls-1" d="M102.71,60.41c-1.5,1-1.38,2.42-1.33,3.87,0,.65,0,1.3,0,2,.35.07.47-.19.66-.31s.25-.13.38,0,0,.26-.08.35c-1.18,1-2.36,2-3.53,3-.28.23-.39,0-.53-.14a7.76,7.76,0,0,0-2-1.81c-.28-.15-.27-.39,0-.51.67-.32.65-.94.67-1.5,0-1,0-2,0-2.93,0-.41-.15-.49-.52-.48-.78,0-1.56,0-2.34,0-.46,0-.51.17-.51.55,0,1.52,0,3,0,4.55a3.44,3.44,0,0,1-2.79,3.53,8.76,8.76,0,0,1-2.55-.14c-.65-.06-1.17,0-1.34.76,0,.14,0,.31-.26.29s-.22-.21-.24-.38a2,2,0,0,1,1.76-2.41l.29,0c.92-.13,1.92-.18,2.3-1.23a3.83,3.83,0,0,0-.44-3.43,1.87,1.87,0,0,0-3-.6c-.13.09-.23.19-.37.05s-.06-.27,0-.4a2.41,2.41,0,0,1,2.21-1.64c.62,0,.75-.24.75-.81a5.88,5.88,0,0,1,3.06-5.16,35.41,35.41,0,0,1,4-2.12.87.87,0,0,1,1,.19c.75.52.9.81,1.25,2.32l2.7-1.7c1.53-1,1.53-1,3,.12a2.33,2.33,0,0,1,.35.27c.5.54,1,.55,1.42-.05.1-.13.24-.44.49-.24s0,.43-.15.6a3,3,0,0,0-.75,2c0,3.1,0,6.2,0,9.3a3,3,0,0,0,.06.73c.18.72.61.87,1.25.47.14-.08.25-.35.46-.08s0,.38-.18.51c-.65.52-1.31,1-1.95,1.54a.54.54,0,0,1-.73,0,2.3,2.3,0,0,1-1.13-2c-.14-3,0-6.1-.07-9.16a2.81,2.81,0,0,1,0-.65c.38-1.47-.6-2.17-1.61-2.83a.69.69,0,0,0-1,.54c0,1.61,0,3.22,0,4.84,0,.27.14.32.37.31h.8Zm-9,.84c.57-1.32,1.68-1,2.66-1h.29c.22,0,.31-.11.31-.31a20.61,20.61,0,0,0-.17-4.23A1.24,1.24,0,0,0,94.65,55a2.26,2.26,0,0,0-.87,1.39A21.83,21.83,0,0,0,93.69,61.25Zm-3.24,7.3c2.17.16,2.69-.34,2.69-2.48,0-2.61,0-5.22,0-7.83a12.48,12.48,0,0,1,.21-2.39,2.55,2.55,0,0,0-1.22,2C91.87,60.44,92,63,92,65.61,92,66.89,91.79,68,90.45,68.55Zm10.49-4.16V63.15c0-1.32,0-1.3-1.3-1.29-.41,0-.55.11-.54.53,0,.9,0,1.8,0,2.7a2.87,2.87,0,0,0,.32,1.68c.22.3.45.62.89.45a.78.78,0,0,0,.61-.86C100.9,65.7,100.93,65,100.94,64.39Zm0-9.08c-1.37.47-2.09,1.25-1.8,2.71a5.66,5.66,0,0,1,0,1.09c0,1.18,0,1.16,1.21,1.16.42,0,.61-.07.6-.55C100.91,58.26,100.93,56.81,100.93,55.31Z"/><path class="cls-1" d="M46.33,62.42a6.41,6.41,0,0,1,.2-2,4.13,4.13,0,0,1,2.2-3.16,57,57,0,0,0,5.7-3.55,2.06,2.06,0,0,1,1.54-.4,9.91,9.91,0,0,1,5.31,2.22,5.89,5.89,0,0,1,1.06,8,15,15,0,0,1-5.83,5.09,7.06,7.06,0,0,1-9.9-4A6.57,6.57,0,0,1,46.33,62.42Zm8-.85c0-1.83,0-3.66,0-5.49,0-.91-.56-.69-1-.76-.73-.11-.51.42-.51.75,0,2,0,4,0,5.94a2.81,2.81,0,0,1-1,2.33c-.45.39-.83.84-1.27,1.22s-.38.51,0,.8a6.37,6.37,0,0,0,3.15,1.27c.49.05.63-.06.62-.56C54.35,65.24,54.37,63.4,54.37,61.57Zm.36,4c0,.51,0,1,0,1.53s.06.59.56.56a6.84,6.84,0,0,0,5.38-3.89.61.61,0,0,0-.27-.81,5.14,5.14,0,0,0-2.31-1,2.94,2.94,0,0,0-3.35,2.64ZM50.62,60h.08V57.45c0-.19.09-.44-.13-.53s-.34.13-.49.25a5.5,5.5,0,0,0-.9,7.66c.2.28.34.78.74.68s.54-.59.65-1a2.15,2.15,0,0,0,0-.51Zm7.12-.45a3.35,3.35,0,0,0,2.39-.86c.38-.28.43-.46.09-.83a8.39,8.39,0,0,0-5.12-2.41c-.3-.05-.38.09-.38.36,0,.71,0,1.42,0,2.13a.55.55,0,0,0,.19.52A4.19,4.19,0,0,0,57.74,59.55Zm-3-.62c0,1.15,0,2.17,0,3.19,0,.15-.1.37.09.46s.35-.1.5-.21A3,3,0,0,1,57,61.56a4.48,4.48,0,0,1,3.7,1.09c.23.24.39.14.44-.14a6.38,6.38,0,0,0,0-3.19c-.16-.53-.35-.53-.73-.23a4.19,4.19,0,0,1-3.57.89A7.05,7.05,0,0,1,54.73,58.93Z"/><path class="cls-1" d="M21.54,54.28a2.15,2.15,0,0,1,1.53.63.57.57,0,0,0,.87,0A3.37,3.37,0,0,1,26.16,54c.06.14.06.23,0,.29A2.84,2.84,0,0,0,24.92,57c0,1.12,0,2.24,0,3.34.24.13.34-.05.46-.15.79-.62,1.62-1.19,2.35-1.86a.73.73,0,0,1,1.16,0,2.73,2.73,0,0,1,1,2C30,62.56,30,64.78,30,67a4.07,4.07,0,0,1-1.81,3.26,14.29,14.29,0,0,1-3.91,2.09c-.16.06-.37.24-.49,0s.16-.3.33-.38.39-.18.6-.26c2.06-.86,3.26-2.24,3.11-4.64-.11-1.9,0-3.81,0-5.71a3.54,3.54,0,0,0-.07-.73c-.21-.85-.82-1-1.54-.55a2.5,2.5,0,0,0-1.26,2.66,30.35,30.35,0,0,1,0,3.44c0,.58,0,1.12.52,1.49.21.14.22.3,0,.45a1.86,1.86,0,0,0-.22.19c-1.5,1.28-1.68,1.26-3.07-.17-.23-.23-.18-.38,0-.52.55-.36.56-.89.55-1.47,0-2.93,0-5.86,0-8.79C22.72,55.55,22.72,55.55,21.54,54.28Z"/><path class="cls-1" d="M71.14,67.68c.85-.89.71-1.93.72-2.94,0-1.47,0-2.93,0-4.4,0-.4.05-.68.52-.78s1.27-.27,1.35-.71-.67-.71-1.09-.9a2.49,2.49,0,0,1-1.56-3c0-.17-.07-.38.08-.48s.35.09.5.19l6.15,4.22c.36.25.65.54.94-.08.09-.2.36-.48.57-.35s0,.42-.08.63a2.29,2.29,0,0,0-.16,1c0,2.27,0,4.55,0,6.82a.76.76,0,0,1-.62.88A7.38,7.38,0,0,0,76,69.13a.55.55,0,0,1-.77.08A9.37,9.37,0,0,0,71.14,67.68Zm5.76-3.53h0a6.42,6.42,0,0,1,0-1.24,2.75,2.75,0,0,0-1.8-3.33c-.23-.1-.41-.35-.72-.13a.8.8,0,0,0-.41.7c0,2,0,3.9,0,5.85a.57.57,0,0,0,.4.61c.7.29,1.39.59,2.07.92.37.18.46.07.45-.31C76.89,66.2,76.9,65.18,76.9,64.15Z"/><path class="cls-1" d="M39.16,66.88c-1.21.88-2.27,1.67-3.35,2.44-.18.13-.36,0-.54-.1a10.63,10.63,0,0,0-2.94-1c-.35-.07-.53-.19-.21-.49a1.69,1.69,0,0,0,.43-1.35V60.27c0-.29-.06-.56.34-.69a20.16,20.16,0,0,0,3.24-1.48.44.44,0,0,1,.66.12c.79,1,1.61,1.89,2.43,2.82.33.36.21.54-.15.78-1.31.88-2.57,1.84-3.9,2.7-.84.55-.38,1.32-.47,2-.07.52.47.47.76.62a15.85,15.85,0,0,0,1.47.63.79.79,0,0,0,.73-.21A2.08,2.08,0,0,1,39.16,66.88Zm-4.5-5.3h0c0,.7,0,1.41,0,2.12,0,.39.14.42.42.22l2.21-1.56c.17-.12.32-.22.11-.45-.77-.84-1.54-1.7-2.3-2.55-.09-.09-.19-.19-.31-.15s-.13.2-.13.32Z"/><path class="cls-1" d="M69.71,54.07C68,55,68.1,56.48,68.09,58c0,2.73,0,5.47,0,8.2a1,1,0,0,0,.55,1.07c.35.16.58.79,1.1.27.11-.12.2,0,.26.13s0,.2-.08.29c-.59.44-1.16.89-1.74,1.33-.21.16-.35.06-.51-.08a5.66,5.66,0,0,0-2.18-1.31c-.31-.09-.32-.26-.09-.45a1.53,1.53,0,0,0,.51-1.24c0-3.2,0-6.4,0-9.6a2.57,2.57,0,0,0-1.1-2.08,1.06,1.06,0,0,1,1.25.37c.53.56.86.41,1.34-.05A2.64,2.64,0,0,1,69.71,54.07Z"/><path class="cls-1" d="M115.19,54.41a2.1,2.1,0,0,1,1.64.66c.32.32.5.34.81,0a3.36,3.36,0,0,1,2.17-1.1c.11,0,.24,0,.33.09s0,.12,0,.13a3.2,3.2,0,0,0-1.49,3.18c0,3,0,5.91,0,8.86a1,1,0,0,0,.58,1.07c.32.17.57.68,1,.22.08-.07.18,0,.25.07s.11.21,0,.31c-.62.47-1.23,1-1.86,1.42-.22.16-.36,0-.5-.18a5.58,5.58,0,0,0-2-1.24c-.33-.1-.44-.24-.16-.49a2.14,2.14,0,0,0,.56-1.68c0-2.91,0-5.81,0-8.72A2.92,2.92,0,0,0,115.19,54.41Z"/><path class="cls-1" d="M121.41,54.42a1.94,1.94,0,0,1,1.67.67c.33.33.5.26.79,0a2.76,2.76,0,0,1,2.56-1c0,.17-.11.2-.21.26a2.61,2.61,0,0,0-1.34,2.43q0,4.88,0,9.75a1.4,1.4,0,0,0,1.52,1.08c.11,0,.2-.13.3,0a.22.22,0,0,1,0,.36l-1.75,1.34c-.26.2-.41,0-.56-.14a5.59,5.59,0,0,0-2.12-1.26c-.3-.09-.36-.22-.1-.45a1.91,1.91,0,0,0,.55-1.59c0-2.52,0-5,0-7.55C122.65,56.92,123,55.47,121.41,54.42Z"/><path class="cls-1" d="M75.52,77.68c.59-1.38,1.18-2.68,1.7-4a.92.92,0,0,1,1-.68c.58,0,.67.34.82.72.5,1.19,1,2.39,1.5,3.57.15.37.16.53-.31.51s-.94.07-1-.59c0-.25-.26-.31-.51-.3H77.51c-.21,0-.43,0-.47.25-.14.72-.67.65-1.18.63a2.91,2.91,0,0,0-.59,0c-.77.1-1.38-.07-1.63-.91-.14-.47-.53-.46-.9-.4s-.25.43-.23.66c0,.5-.11.67-.64.66s-.59-.18-.58-.63q0-1.83,0-3.66c0-.39.11-.51.49-.49.73,0,1.47,0,2.19.06a1.66,1.66,0,0,1,1.09,2.72c-.45.51-.32.79,0,1.2C75.21,77.18,75.33,77.39,75.52,77.68Zm-3-3c0,.45-.14.91.61.84s1.15-.29,1.11-.83c0-.69-.56-.72-1.1-.79C72.41,73.83,72.46,74.26,72.5,74.69Zm5.61-.21c-.19.46-.33.8-.46,1.13s-.09.38.21.37.56.06.7-.07-.08-.43-.14-.64S78.25,74.82,78.11,74.48Z"/><path class="cls-1" d="M109.49,59.46c.5-.42,1-.82,1.5-1.27.29-.26.47-.22.73,0a13.62,13.62,0,0,0,1.18,1c.33.24.33.43,0,.65a1.29,1.29,0,0,0-.52,1.26c0,1.71,0,3.41,0,5.12a3.17,3.17,0,0,0,.11,1c.17.49.4.64.84.29.14-.11.3-.35.47-.08s-.09.3-.21.4c-.54.45-1.11.87-1.64,1.34-.29.25-.48.17-.75,0-1-.71-.93-1.76-.95-2.78,0-1.53,0-3.07,0-4.61A2.42,2.42,0,0,0,109.49,59.46Z"/><path class="cls-1" d="M19.07,75.34a9.31,9.31,0,0,1-.49,1.06c-.22.35-.15.93-.85.92s-.6-.61-.83-1a7.17,7.17,0,0,0-.61-1c0,.65,0,1.29,0,1.94,0,.41-.17.49-.52.47s-.63,0-.62-.46c0-1.22,0-2.45,0-3.67,0-.22-.19-.63.26-.61s.94-.3,1.22.3.7,1.49,1.09,2.34c.39-.84.74-1.56,1.05-2.29s.84-.34,1.26-.34.22.42.22.64c0,1.12,0,2.25,0,3.37,0,.41.05.73-.57.74s-.51-.42-.52-.77c0-.56,0-1.11,0-1.67Z"/><path class="cls-1" d="M104.4,75.55c.32-.7.68-1.4,1-2.12s.82-.39,1.25-.39.24.45.25.68c0,1.15,0,2.3,0,3.45,0,.48-.13.61-.61.62s-.49-.31-.49-.65a9.18,9.18,0,0,0-.12-1.8l-.6,1.29c-.15.31-.18.68-.71.69s-.6-.39-.76-.72a5.68,5.68,0,0,0-.72-1.24c0,.64,0,1.27,0,1.91,0,.44-.16.52-.55.51s-.59,0-.58-.5c0-1.19,0-2.39,0-3.59,0-.22-.18-.64.21-.64s1-.33,1.29.31.59,1.29.88,1.93C104.21,75.41,104.26,75.51,104.4,75.55Z"/><path class="cls-1" d="M47.26,75c0,.92,0,1.61,0,2.29,0,.49-.25.47-.59.47s-.61,0-.6-.48c0-1.16,0-2.34,0-3.5,0-.26-.2-.68.19-.75s.89-.18,1.23.34c.51.77,1.09,1.48,1.77,2.39,0-.83,0-1.47,0-2.11,0-.48.07-.66.61-.68s.59.29.58.71c0,1.1,0,2.19,0,3.29,0,.26.2.67-.18.75s-.9.18-1.24-.33C48.52,76.65,47.94,75.94,47.26,75Z"/><path class="cls-1" d="M120.16,75.78c0-.92,0-1.62,0-2.32,0-.53.29-.44.61-.44s.61-.07.59.45c0,1.19,0,2.39,0,3.58,0,.24.18.63-.17.69s-.85.21-1.19-.27c-.54-.77-1.13-1.51-1.83-2.44,0,.86,0,1.53,0,2.19,0,.47-.15.58-.59.57s-.63,0-.61-.55c0-1.17,0-2.34,0-3.51,0-.23-.17-.63.18-.68s.85-.21,1.19.28C118.87,74.11,119.47,74.85,120.16,75.78Z"/><path class="cls-1" d="M68.17,77.78a2.39,2.39,0,1,1,2.57-2.4A2.38,2.38,0,0,1,68.17,77.78Zm1.34-2.36a1.35,1.35,0,1,0-2.7-.08,1.49,1.49,0,0,0,1.35,1.46A1.46,1.46,0,0,0,69.51,75.42Z"/><path class="cls-1" d="M98.67,77.78a2.39,2.39,0,1,1,2.59-2.37A2.37,2.37,0,0,1,98.67,77.78ZM100,75.43a1.35,1.35,0,1,0-2.69-.1,1.35,1.35,0,1,0,2.69.1Z"/><path class="cls-1" d="M23.39,77.78a2.39,2.39,0,1,1,0-4.76,2.39,2.39,0,1,1,0,4.76Zm1.36-2.41A1.41,1.41,0,0,0,23.39,74a1.43,1.43,0,0,0-1.34,1.38,1.48,1.48,0,0,0,1.4,1.4A1.48,1.48,0,0,0,24.75,75.37Z"/><path class="cls-1" d="M51.34,75.48c0-.78,0-1.41,0-2,0-.31.07-.44.41-.43.68,0,1.36,0,2,0a2.36,2.36,0,0,1,0,4.7c-.8.06-1.86.3-2.33-.09S51.4,76.13,51.34,75.48Zm1.2-.14c0,.37,0,.73,0,1.1,0,.16,0,.32.21.39a1.57,1.57,0,0,0,1.92-1A1.43,1.43,0,0,0,53.6,74c-.91-.22-1.06-.1-1.06.82Z"/><path class="cls-1" d="M10,77.66c-1.21.26-1.28.26-1.79-.72a.77.77,0,0,0-.94-.47c-.45.09-.26.48-.24.72,0,.5-.17.59-.63.6s-.61-.15-.6-.62q0-1.83,0-3.66c0-.37.08-.52.49-.5.63,0,1.27,0,1.9,0a1.59,1.59,0,0,1,1.6,1,1.74,1.74,0,0,1-.39,2c-.29.27-.19.44,0,.68S9.81,77.32,10,77.66Zm-3-2.82c-.08.39-.06.75.63.69s1-.1,1.09-.78-.36-.77-1.12-.84S7,74.32,7.05,74.84Z"/><path class="cls-1" d="M45.13,77.77c-.41.06-.74,0-.83-.47-.07-.33-.28-.42-.6-.4a7,7,0,0,1-1,0,.57.57,0,0,0-.66.44.54.54,0,0,1-.55.46c-.9,0-.93,0-.57-.81.5-1.18,1-2.36,1.5-3.57.17-.43.47-.4.81-.39s.63,0,.81.4c.47,1.25,1,2.48,1.54,3.7C45.78,77.63,45.78,77.9,45.13,77.77Zm-2-3.32c-.19.6-.59,1-.44,1.43.09.24.63.11,1,0Z"/><path class="cls-1" d="M34.92,77.76c-.46.07-.8,0-.89-.45a.49.49,0,0,0-.66-.4c-.51.11-1.24-.36-1.52.29s-.67.59-1.15.58c-.32,0-.38-.08-.25-.38.6-1.36,1.18-2.73,1.74-4.1.2-.48.58-.22.88-.27a.5.5,0,0,1,.64.31c.54,1.36,1.12,2.7,1.66,4C35.65,78.09,35,77.62,34.92,77.76Zm-2-3.28c-.18.44-.3.76-.44,1.06s-.11.43.27.45c.71,0,.76,0,.51-.66C33.16,75.08,33.05,74.84,32.91,74.48Z"/><path class="cls-1" d="M116,77.77a.63.63,0,0,1-.86-.53c-.06-.29-.28-.36-.56-.34a6,6,0,0,1-.95,0,.63.63,0,0,0-.77.49.48.48,0,0,1-.51.41c-.9.06-.94,0-.59-.79.49-1.16,1-2.32,1.47-3.5.18-.49.49-.47.89-.49a.7.7,0,0,1,.81.53c.48,1.22,1,2.43,1.52,3.63C116.71,77.72,116.58,77.88,116,77.77Zm-2-3.29c-.2.55-.59,1-.44,1.43.06.18.61.1,1,0Z"/><path class="cls-1" d="M59.89,77.78a4,4,0,0,1-1.68-.35c-.54-.23-.55-.55-.28-1s.32-.3.56-.11a2.67,2.67,0,0,0,1.13.5c.28,0,.58,0,.68-.28s-.19-.47-.43-.56-.75-.23-1.11-.38a1.18,1.18,0,0,1-.82-1.18,1.25,1.25,0,0,1,.87-1.23,3.39,3.39,0,0,1,2.5.16c.38.15.28.39.13.63s-.13.65-.59.38a2.54,2.54,0,0,0-1.1-.35c-.2,0-.42,0-.48.24s.11.37.29.45.55.19.83.28c1,.33,1.32.78,1.24,1.56s-.61,1.15-1.57,1.24Z"/><path class="cls-1" d="M85.12,76.33c0,1-.13,1.16-1.1,1.36a2.64,2.64,0,0,1-2.8-.77,2.28,2.28,0,0,1-.34-2.47,2.73,2.73,0,0,1,4-.93c.19.16.33.31.09.52s-.26.59-.67.37a4.59,4.59,0,0,0-.57-.32,1.24,1.24,0,0,0-1.5.44,1.32,1.32,0,0,0-.1,1.57,1.27,1.27,0,0,0,1.35.67c.43-.06.65-.27.58-.74s-.07-.73.55-.72.48.39.5.72Z"/><path class="cls-1" d="M10.69,75.34c0-.61,0-1.22,0-1.83,0-.36.07-.51.47-.5.91,0,1.81,0,2.71,0,.37,0,.51.07.51.48s-.22.45-.54.44c-.49,0-1,0-1.46,0s-.49.16-.49.52.06.55.47.52.84,0,1.25,0,.5.13.5.51-.18.44-.49.42-.69,0-1,0-.72-.09-.71.52.35.46.67.47c.49,0,1,0,1.47,0,.33,0,.41.14.41.44s-.05.5-.43.49c-1,0-1.91,0-2.86,0-.36,0-.46-.11-.45-.46C10.7,76.66,10.69,76,10.69,75.34Z"/><path class="cls-1" d="M85.82,75.34c0-.61,0-1.22,0-1.83,0-.36.06-.51.47-.5.9,0,1.81,0,2.71,0,.36,0,.5.08.51.48s-.22.45-.54.44c-.49,0-1,0-1.47,0s-.48.16-.48.52.06.55.47.52.83,0,1.25,0,.49.13.5.51-.18.44-.5.42-.68,0-1,0-.72-.09-.71.52.35.46.67.47c.49,0,1,0,1.47,0,.33,0,.41.14.41.44s-.06.5-.44.49q-1.43,0-2.85,0c-.36,0-.47-.12-.45-.46C85.84,76.66,85.82,76,85.82,75.34Z"/><path class="cls-1" d="M107.69,75.37c0-.12,0-.25,0-.37.09-.65-.19-1.33.15-2,1,0,2.11-.23,3.1.25.71.35.78,1,.72,1.7a1.46,1.46,0,0,1-1.11,1.38,1.6,1.6,0,0,1-.65.09c-.73-.1-1.16.06-1,.94.09.55-.38.35-.65.38s-.57,0-.55-.43C107.72,76.69,107.69,76,107.69,75.37Zm1.2-.66c0,.36-.21.87.53.81.55,0,1.06-.09,1.07-.78s-.5-.76-1-.82C108.73,73.84,108.91,74.33,108.89,74.71Z"/><path class="cls-1" d="M25.93,73c1.3,0,1.3,0,1.69,1l.78,2.17c.31-.85.57-1.56.82-2.27.38-1.06.38-1.06,1.6-.9-.57,1.48-1.15,3-1.71,4.42-.15.41-.48.26-.74.26s-.58.13-.73-.27C27.08,76,26.51,74.55,25.93,73Z"/><path class="cls-1" d="M94,77.78a2.38,2.38,0,0,1-1.46-4.33,2.91,2.91,0,0,1,3.18.1c.29.24.2.41,0,.58s-.28.69-.71.3a1.28,1.28,0,0,0-1.34-.36A1.42,1.42,0,0,0,92.92,76a1.28,1.28,0,0,0,1.84.61c.21-.11.34-.46.69-.25.57.34.59.71,0,1.06A2.51,2.51,0,0,1,94,77.78Z"/><path class="cls-1" d="M123.89,74.86a8,8,0,0,0,.55-1c.29-.79.83-1,1.66-.72-.39.76-.75,1.52-1.18,2.25a2.83,2.83,0,0,0-.47,1.87c.07.48-.16.58-.58.55s-.72,0-.63-.5c.2-1.12-.55-1.92-1-2.83a8.64,8.64,0,0,1-.66-1.37c.79-.21,1.34,0,1.64.75A2.49,2.49,0,0,0,123.89,74.86Z"/><path class="cls-1" d="M63.85,73c.49,0,1,0,1.47,0s.54,0,.53.46-.14.56-.51.49c-.8-.15-1,.23-.93,1s0,1.61,0,2.41c0,.53-.31.44-.62.44s-.63.08-.6-.45c0-.83,0-1.66,0-2.49,0-.68-.12-1-.86-.87-.32.05-.56,0-.55-.44s.08-.53.49-.51S63.34,73,63.85,73Z"/><path class="cls-1" d="M35.78,75.31c0-.56,0-1.12,0-1.68s.07-.63.58-.63.67.13.64.65c0,.87,0,1.75,0,2.63,0,.42.14.57.55.53s.59,0,.88,0,.54,0,.54.45-.16.55-.56.53c-.7,0-1.41,0-2.12,0-.39,0-.5-.12-.49-.5C35.8,76.63,35.78,76,35.78,75.31Z"/><path class="cls-1" d="M113.47,54.29l-1.25,2c-.11.18-.26.35-.46.23s0-.3,0-.45.12-.52.18-.78C112.19,54.17,112.19,54.17,113.47,54.29Z"/></svg>