<svg id="Layer_34" data-name="Layer 34" xmlns="http://www.w3.org/2000/svg" viewBox="0 0 131 131"><defs><style>.cls-1{fill:#1b3d65;}</style></defs><path class="cls-1" d="M68.09,128.81h-6s0-.07-.06-.07a20.51,20.51,0,0,1-2.48-.15c-.62-.07-1.24-.07-1.85-.16-1.11-.16-2.23-.3-3.34-.5s-2.38-.43-3.55-.7a66.33,66.33,0,0,1-7.29-2.18c-1.92-.7-3.79-1.5-5.64-2.37-1.1-.52-2.16-1.09-3.23-1.67s-2.31-1.32-3.43-2.05a61.43,61.43,0,0,1-6.54-4.81c-1-.86-2-1.74-3-2.65-1.16-1.11-2.28-2.26-3.34-3.47-.74-.83-1.46-1.68-2.17-2.54-1.07-1.29-2.07-2.64-3-4a56.29,56.29,0,0,1-3.5-5.76c-.74-1.42-1.47-2.86-2.11-4.33a62.48,62.48,0,0,1-2.61-7q-.78-2.52-1.33-5.1c-.27-1.23-.48-2.46-.67-3.7-.11-.77-.21-1.53-.31-2.29s-.2-1.8-.26-2.71a16.11,16.11,0,0,1-.09-2.31c0-.06,0-.15-.08-.18V63.74c.09,0,.08-.08.08-.14,0-.55,0-1.1.06-1.65.06-.88.14-1.76.22-2.64.11-1.13.29-2.24.44-3.36.21-1.5.51-3,.86-4.44a63.17,63.17,0,0,1,2.25-7.45c.75-2,1.59-3.93,2.51-5.84.41-.86.88-1.69,1.33-2.53.69-1.3,1.45-2.56,2.26-3.8A62.58,62.58,0,0,1,16.5,26c1-1.24,2.07-2.44,3.18-3.6,1.31-1.36,2.68-2.68,4.12-3.92.9-.78,1.81-1.56,2.76-2.29,1.45-1.1,2.93-2.18,4.47-3.16s3.14-1.93,4.77-2.79c1.41-.74,2.84-1.44,4.31-2.06S43,7,44.51,6.51A65.15,65.15,0,0,1,51.4,4.57c1.68-.37,3.38-.66,5.07-.93,1.11-.18,2.23-.28,3.35-.37s2-.11,3.07-.16c.39,0,.78,0,1.18,0,.08,0,.2.06.25-.07H66c0,.06,0,.07.11.07a40.15,40.15,0,0,1,4.78.22c.79.08,1.57.12,2.35.24,1,.15,2.06.31,3.08.49,1.27.23,2.54.48,3.79.79,2,.5,4,1.1,6,1.8s3.94,1.5,5.85,2.4,3.75,1.9,5.56,3c2,1.2,3.86,2.49,5.71,3.88a60.08,60.08,0,0,1,5,4.25c1,.95,2,1.94,2.93,3s1.78,2,2.63,3Q115.35,28,116.72,30a65.27,65.27,0,0,1,4.44,7.4c.57,1.1,1.06,2.23,1.57,3.36.7,1.54,1.29,3.13,1.85,4.73s1,3,1.38,4.56.7,2.89,1,4.35c.22,1.21.39,2.42.54,3.64s.24,2.18.34,3.27a14,14,0,0,1,.09,2.24c0,.07,0,.17.07.21v4.44a.09.09,0,0,0-.07.1c0,1-.07,1.88-.14,2.82s-.14,1.74-.24,2.6c-.13,1.11-.31,2.21-.51,3.31s-.43,2.29-.7,3.43a60.92,60.92,0,0,1-2.26,7.49q-.86,2.29-1.9,4.52c-.58,1.24-1.2,2.45-1.85,3.66S118.82,98.74,118,100a59.09,59.09,0,0,1-4.68,6.33c-.88,1-1.79,2.08-2.73,3.08-1.21,1.28-2.49,2.49-3.81,3.67-.54.48-1.08,1-1.65,1.42-1.27,1-2.53,2-3.84,2.9a66.49,66.49,0,0,1-6.22,3.87c-1.14.62-2.29,1.21-3.47,1.74-.9.4-1.79.83-2.7,1.2q-3,1.19-6,2.09c-1.46.42-2.93.79-4.42,1.12-1.1.24-2.2.46-3.31.63s-2.07.31-3.11.4c-1.2.11-2.39.27-3.59.29C68.34,128.74,68.19,128.65,68.09,128.81ZM89,76l-.16-.41L82.18,56.61c-.62-1.78-1.26-3.55-1.72-5.39a2.16,2.16,0,0,1,2-2.8,12,12,0,0,1,1.47-.05c.2,0,.26,0,.25-.25a8.18,8.18,0,0,1,0-1c0-.33-.09-.38-.39-.38H70.64c-.35,0-.69,0-1,0-.2,0-.29,0-.28.27a10.27,10.27,0,0,1,0,1.11c0,.19.07.24.26.24.35,0,.71,0,1.06.07a3.43,3.43,0,0,1,3,2.22c1.18,2.88,2.14,5.84,3.21,8.76.06.18,0,.26-.17.23H67.82c-.26,0-.37,0-.35.33a5.13,5.13,0,0,1,0,1c0,.23.07.29.28.32A2.5,2.5,0,0,1,69.86,63,4.45,4.45,0,0,1,70,65.56a13.93,13.93,0,0,1-1.91,4.63,31.62,31.62,0,0,1-2.42,3.43c-.16.21-.29.32-.44,0l-.11-.15A118.44,118.44,0,0,1,58.45,63c-.16-.28-.1-.37.16-.51a33.33,33.33,0,0,0,5.18-3.29,8.73,8.73,0,0,0,3.67-6.33,7.05,7.05,0,0,0-4.09-7.06,10,10,0,0,0-8.59.28,8.63,8.63,0,0,0-5,5.85A13,13,0,0,0,50,58.43a29.28,29.28,0,0,0,1.6,4.37c.1.24.07.34-.16.45-.38.19-.75.42-1.12.64a33,33,0,0,0-6,4.36,14.83,14.83,0,0,0-3,4.15c-1.24-3.65-4-5.5-7.62-6.43l.83-.38a8.91,8.91,0,0,0,5.36-9A9.27,9.27,0,0,0,36.29,50,14.32,14.32,0,0,0,29,47.11a44.7,44.7,0,0,0-6.33-.35H6.76c-.16,0-.21.06-.21.21,0,.35,0,.69,0,1s0,.37.35.37a10.21,10.21,0,0,1,2.65.13,2.74,2.74,0,0,1,2.31,2.31,18.22,18.22,0,0,1,.24,2.94V78.6c0,.92,0,1.82-.12,2.73a3,3,0,0,1-2.21,2.93,4.2,4.2,0,0,1-1.27.19H6.8c-.19,0-.26,0-.25.24,0,.36,0,.72,0,1.07s0,.31.3.31c6.7,0,13.4.06,20.11,0a30.43,30.43,0,0,0,5.71-.62,11.34,11.34,0,0,0,6-3.16,11.66,11.66,0,0,0,1.78-2.44l.09.16a8.71,8.71,0,0,0,3.16,4.12A10.34,10.34,0,0,0,48.94,86a15.31,15.31,0,0,0,8.14-1.39,24.26,24.26,0,0,0,5.44-3.77c.19-.17.3-.21.49,0A21.53,21.53,0,0,0,65,82.66a13.18,13.18,0,0,0,5.51,3.07,8.53,8.53,0,0,0,8.22-2A11.51,11.51,0,0,0,81.76,78a.24.24,0,0,0-.09-.29c-.46-.32-.9-.65-1.37-1-.09.28-.15.52-.22.75a4.82,4.82,0,0,1-3.29,3.44,6.5,6.5,0,0,1-5-.71,17.25,17.25,0,0,1-4.58-4c-.15-.18,0-.26.07-.37A61.37,61.37,0,0,0,72.37,68a47.54,47.54,0,0,1,2.84-4.69,4.21,4.21,0,0,1,2.12-1.64c.25-.09.36-.07.46.21q4.27,12,8.56,24.05c.12.32.15.75.37.94s.69,0,1,.07.37-.06.46-.32c1-2.73,1.92-5.45,2.88-8.18l5.31-15.07a1.43,1.43,0,0,1,.27-.59c0,.07,0,.13.07.19q4.06,11.41,8.11,22.84c.12.36.16.82.41,1s.75,0,1.14.09.41-.11.5-.38q3.75-10.9,7.51-21.81,1.64-4.74,3.26-9.48a32.62,32.62,0,0,1,1.6-4.3,4.06,4.06,0,0,1,3-2.53,5.81,5.81,0,0,1,1.18-.09c.17,0,.23,0,.23-.23,0-.36,0-.71,0-1.07s-.09-.32-.34-.32c-.76,0-1.53,0-2.29,0h-9.09c-.25,0-.39,0-.36.33a6.68,6.68,0,0,1,0,1c0,.25.08.3.31.29a8,8,0,0,1,2.58.35,2,2,0,0,1,1.37,2.21,17.1,17.1,0,0,1-.82,3.24q-3.24,9.46-6.5,18.93c-.32.92-.64,1.84-1,2.82a2,2,0,0,1-.11-.23Q105,68.82,102.6,61.93c-1-2.79-2-5.57-2.9-8.4a8.55,8.55,0,0,1-.56-3.21,1.93,1.93,0,0,1,1.36-1.75,4.7,4.7,0,0,1,1.49-.2c.39,0,.92.14,1.14-.06s0-.77.09-1.17-.1-.39-.41-.39H89.58c-.55,0-1.09,0-1.63,0-.23,0-.34,0-.32.3a9,9,0,0,1,0,1c0,.22.06.31.29.28h.4a4.12,4.12,0,0,1,3.4,1.7,9.89,9.89,0,0,1,1.37,2.64c.64,1.77,1.25,3.55,1.88,5.33a.74.74,0,0,1,0,.53Q92.63,65.29,90.3,72C89.86,73.3,89.42,74.57,89,76Zm24.24,4a3.34,3.34,0,0,0-3.4,3.41,3.41,3.41,0,1,0,6.81,0A3.34,3.34,0,0,0,113.19,80Z"/><path class="cls-1" d="M18.06,75q0-3.68,0-7.35c0-.28.07-.38.36-.4a35.62,35.62,0,0,1,7.3,0,11,11,0,0,1,6.35,2.63,7.57,7.57,0,0,1,2.39,4.93c.46,4-2.24,7.22-6.2,8.18a18.46,18.46,0,0,1-5.5.4,31,31,0,0,1-4.38-.6c-.28-.06-.32-.17-.32-.41C18.06,80,18.06,77.5,18.06,75Z"/><path class="cls-1" d="M18.06,57v-6.9c0-.21,0-.34.26-.39a18.16,18.16,0,0,1,9.4.2,7.7,7.7,0,0,1,5.34,5.16,7,7,0,0,1-5.63,9.18,30.92,30.92,0,0,1-9,.06c-.3,0-.42-.13-.42-.47C18.07,61.57,18.06,59.29,18.06,57Z"/><path class="cls-1" d="M53.39,82a6.8,6.8,0,0,1-6.81-5.86,8.62,8.62,0,0,1,2.59-7.82,17.31,17.31,0,0,1,3.45-2.69c.15-.1.25-.18.36.06a74.24,74.24,0,0,0,7.45,12c.13.17.25.36.39.53s.12.21,0,.33a22.91,22.91,0,0,1-3.71,2.53A8.15,8.15,0,0,1,53.39,82Z"/><path class="cls-1" d="M54.82,52.56c.17-1.9.81-3.61,2.6-4.48a4.17,4.17,0,0,1,6.22,3.64,7.35,7.35,0,0,1-2.75,6.08,16.1,16.1,0,0,1-3.57,2.38c-.15.08-.24.13-.33-.09A30.4,30.4,0,0,1,55,54,11.33,11.33,0,0,1,54.82,52.56Z"/></svg>