<svg id="Layer_36" data-name="Layer 36" xmlns="http://www.w3.org/2000/svg" viewBox="0 0 131 131"><defs><style>.cls-1{fill:#1b3d65;}</style></defs><path class="cls-1" d="M38,65.34c-.07.12-.12.17-.14.22a2.3,2.3,0,0,1-4,1.48c-1.06-.85-2.07-1.78-3.08-2.7a7.06,7.06,0,0,1-1.59-2.52c-.23-.51-.44-1-.66-1.56-.08-.18-.14-.41-.4-.35s-.26.28-.26.49v.7q0,4.65,0,9.3c0,2.9,0,5.8,0,8.7a1.78,1.78,0,0,0,.57,1.4c1.42,1.41,2.8,2.85,4.2,4.28a5.43,5.43,0,0,1,.59.68,1.84,1.84,0,0,1,.18,2.23,2.16,2.16,0,0,1-2.22,1,3.68,3.68,0,0,1-2.19-1.12c-1.74-1.75-3.46-3.51-5.18-5.28a2.56,2.56,0,0,1-.69-1.92q0-3.34,0-6.7V73a.5.5,0,0,0-.51-.59c-1-.1-2-.24-3-.36a1.06,1.06,0,0,0-.15.8c0,2.63,0,5.27,0,7.9a1.7,1.7,0,0,0,.56,1.31c1.41,1.41,2.8,2.85,4.2,4.28a4,4,0,0,1,.7.84,2,2,0,0,1-1.59,3.07,3.51,3.51,0,0,1-2.85-1.2c-1.25-1.24-2.48-2.51-3.72-3.77l-1.19-1.21a2.78,2.78,0,0,1-.87-2.15q0-10.35,0-20.7A3.32,3.32,0,0,0,14.71,60a2.11,2.11,0,0,0-.79,1.18A11.49,11.49,0,0,1,10,66.46c-.6.48-1.13,1-1.74,1.5a2.37,2.37,0,0,1-3.54-.7,3.68,3.68,0,0,1-.28-1.53c-.35-.07-.45.17-.57.35a3.16,3.16,0,0,0,.24,4A7.59,7.59,0,0,0,7,72a23.05,23.05,0,0,0,5.86,1.6c.9.14,1.25.46,1.28,1.13,0,.35-.07.59-.5.55a19.46,19.46,0,0,1-9.17-2.78A6.57,6.57,0,0,1,2.74,71a4.4,4.4,0,0,1-.44-5A7.63,7.63,0,0,1,3.55,64.3a1.69,1.69,0,0,1,2-.59.92.92,0,0,0,1-.21l.16-.13C9.83,61,10,60.84,11.27,57.1c.1-.28.19-.57.3-.85a5.22,5.22,0,0,1,5.18-3.81c3.09-.07,6.2-.08,9.3,0a5.21,5.21,0,0,1,5.08,3.67c.36,1,.7,1.94,1,2.92A5,5,0,0,0,34,61.47c.81.59,1.6,1.2,2.38,1.82a1.2,1.2,0,0,0,1.09.34,1.45,1.45,0,0,1,1.36.46,7.16,7.16,0,0,1,1.74,2.41,4.42,4.42,0,0,1-.94,4.91,9.18,9.18,0,0,1-3.29,2.21,23.38,23.38,0,0,1-6.69,1.57c-.73.08-.95-.25-.69-.94.19-.53.63-.64,1.11-.71A21.11,21.11,0,0,0,35.63,72a7.76,7.76,0,0,0,2.92-2A3.17,3.17,0,0,0,38,65.34Zm-33.53.24s.06,0,.06-.06,0,0,0-.07l-.07.09Z"/><path class="cls-1" d="M46.56,62.5V53.4c0-1.91.86-2.75,2.77-2.77,3.23,0,6.47,0,9.7,0,.67,0,1.34,0,2,0a1.74,1.74,0,0,1,1.77,2,1.61,1.61,0,0,1-1.31,1.56,7,7,0,0,1-1.3.1h-8.1c-.75,0-.76,0-.76.78,0,1.47,0,2.94,0,4.41,0,.79,0,.74.79.73h6.51a4.3,4.3,0,0,1,1.38.14,1.74,1.74,0,0,1,0,3.3,3.22,3.22,0,0,1-1.19.15c-2.27,0-4.53,0-6.8,0-.71,0-.72,0-.72.71q0,3.09,0,6.2a9,9,0,0,1-.15,1.79A2.2,2.2,0,0,1,49,74.37a2.25,2.25,0,0,1-2.32-1.68,4.36,4.36,0,0,1-.14-1.39Z"/><path class="cls-1" d="M121.52,69.3l1.68-4.77c.66-1.88,1.32-3.77,2-5.64a12.1,12.1,0,0,1,.56-1.28,1.88,1.88,0,0,1,3.47,1.29,9.74,9.74,0,0,1-.56,1.91q-2.85,7.47-5.7,14.93c-.27.71-.6,1.41-.93,2.1a4.9,4.9,0,0,1-4,2.89,10.49,10.49,0,0,1-3.58-.15,1.81,1.81,0,0,1-1.42-1c-.57-1.3.38-2.47,1.88-2.3a12.67,12.67,0,0,0,1.38.16,1.92,1.92,0,0,0,1.74-1,19.27,19.27,0,0,0,1-2.26c.18-.41,0-.71-.17-1q-2.28-5.76-4.57-11.51c-.29-.74-.62-1.47-.85-2.24A2,2,0,0,1,115,56.76a1.8,1.8,0,0,1,2.13.88,8,8,0,0,1,.67,1.56c1,3.08,2.12,6.17,3.18,9.25.09.28.2.55.31.83Z"/><path class="cls-1" d="M100.93,50.23a7.32,7.32,0,0,1,2.78.38,1.51,1.51,0,0,1,1.15,1.46,1.39,1.39,0,0,1-1.57,1.51c-.53,0-1.06-.16-1.59-.17-1.18,0-1.64.34-1.83,1.51-.09.55-.05,1.13-.09,1.69,0,.37.18.45.5.44a6.59,6.59,0,0,1,1.88.17,1.42,1.42,0,0,1,1.1,1.9,1.17,1.17,0,0,1-.83.91,6.2,6.2,0,0,1-1.87.19c-.76,0-.77,0-.77.76q0,5.15,0,10.29a4.7,4.7,0,0,1-.16,1.58,2.11,2.11,0,0,1-4.06,0,4.27,4.27,0,0,1-.15-1.38V61.33c0-.24,0-.47,0-.7s-.13-.42-.42-.41-.8,0-1.2,0A1.67,1.67,0,0,1,92.24,59a1.44,1.44,0,0,1,1-1.78,4.22,4.22,0,0,1,1.58-.16c.45,0,.57-.17.56-.59a12.79,12.79,0,0,1,.15-2.69A3.72,3.72,0,0,1,99,50.41,7.65,7.65,0,0,1,100.93,50.23Z"/><path class="cls-1" d="M79.49,60.33c0,.22,0,.45,0,.68q0,3.6,0,7.2a10.54,10.54,0,0,0,.12,1.59A1.21,1.21,0,0,0,81,71c.53,0,1.06-.17,1.58-.23a1.4,1.4,0,0,1,1.63.85,1.59,1.59,0,0,1-.51,1.88,3.61,3.61,0,0,1-1.64.69,10.44,10.44,0,0,1-3.78.06,3.38,3.38,0,0,1-3-2.84,11.47,11.47,0,0,1-.22-2.68c0-2.57,0-5.13,0-7.7,0-.74,0-.75-.74-.79a2.23,2.23,0,0,1-1-.23,1.46,1.46,0,0,1-.81-1.39,1.43,1.43,0,0,1,.91-1.32c.15-.07.32-.09.48-.15.34-.13.81.08,1-.22s.08-.77.09-1.17c0-.93,0-1.86,0-2.8a2,2,0,0,1,2-2.14,2.08,2.08,0,0,1,2.19,2.1c.06,1.06,0,2.13,0,3.2s-.1.95,1,.95a4.69,4.69,0,0,1,1.29.1A1.52,1.52,0,0,1,83,58.65c0,.73-.36,1.14-1.18,1.4a5.06,5.06,0,0,1-1.28.17A2,2,0,0,0,79.49,60.33Z"/><path class="cls-1" d="M26.44,45.9a5.13,5.13,0,1,1-5.09-5.17A5.1,5.1,0,0,1,26.44,45.9Z"/><path class="cls-1" d="M106,65.48q0-3.06,0-6.1a4.91,4.91,0,0,1,.09-1.09,2,2,0,0,1,2-1.6,2.09,2.09,0,0,1,2.12,1.63,4.76,4.76,0,0,1,.12,1.19c0,4,0,7.93,0,11.9a5.27,5.27,0,0,1-.18,1.48,2.12,2.12,0,0,1-1.94,1.48,2.06,2.06,0,0,1-2-1.32,3.56,3.56,0,0,1-.21-1.38Z"/><path class="cls-1" d="M90.26,65.51v5.8c0,.3,0,.6,0,.9a2.16,2.16,0,0,1-2.17,2.16A2.11,2.11,0,0,1,86,72.27q0-.3,0-.6V59.38a5.37,5.37,0,0,1,.06-.9,2,2,0,0,1,2.07-1.79,2.09,2.09,0,0,1,2.15,1.83,6.5,6.5,0,0,1,.05,1Z"/><path class="cls-1" d="M65.57,65.5c0-2,0-3.93,0-5.9a4.12,4.12,0,0,1,.17-1.48,2,2,0,0,1,2-1.43,2.08,2.08,0,0,1,2.08,1.42A3.93,3.93,0,0,1,70,59.39q0,6.09,0,12.2a4.32,4.32,0,0,1-.19,1.28,2.09,2.09,0,0,1-2,1.5,2,2,0,0,1-2-1.39,3.93,3.93,0,0,1-.2-1.48Z"/><path class="cls-1" d="M90.36,52.55A2.29,2.29,0,0,1,88,54.8a2.26,2.26,0,0,1,.12-4.52A2.3,2.3,0,0,1,90.36,52.55Z"/><path class="cls-1" d="M108.15,54.69a2,2,0,0,1-2.17-2.1,2.16,2.16,0,0,1,2.25-2.17,2.14,2.14,0,1,1-.08,4.27Z"/><path class="cls-1" d="M65.58,52.45a2.17,2.17,0,0,1,2.26-2,2.14,2.14,0,1,1-.15,4.27A2,2,0,0,1,65.58,52.45Z"/><path class="cls-1" d="M4.47,65.58l-.06,0,.07-.09s0,0,0,.07S4.49,65.56,4.47,65.58Z"/></svg>