<svg id="Layer_37" data-name="Layer 37" xmlns="http://www.w3.org/2000/svg" viewBox="0 0 131 131"><defs><style>.cls-1{fill:#ef8429;}</style></defs><path class="cls-1" d="M20.23,53V63.26H17.31V53H16.5V63.24h-3V53h-.8V63.25H9.8V53H9v6.64H6V53H4.72V51.76H6V45.35H9V51.7h.79V41.58h3V51.7l.82,0V41.57h2.93V51.7h.82V41.59h3V51.7h90.09V40.91h3V51.7l.81,0V40.9H117V51.7h.82V40.91h3v10.8h.79V44.53h3v7.18h1.73v1.22h-1.68v5.88h-3V53h-.81v9.59H117.9V53h-.81v9.58h-3V53h-.79v9.6h-2.94V53Z"/><path class="cls-1" d="M4.69,90.1v-.72H126.31v.72Z"/><path class="cls-1" d="M122,83.48v-7h-6.64v7h2.16v.17h-6.42v-.13h2.16V69.59H111.1v-.18h6.41l0,.14h-2.18v6.59H122V69.62h-2.16v-.18h6.41v.09h-2.15v13.9h2.15v.18h-6.42v-.13Z"/><path class="cls-1" d="M40.39,76l.56.13c2.38.56,3.06,1.39,3.22,3.84a19,19,0,0,0,.24,2.26c.24,1.27.9,1.56,2.09,1,0,0,.12,0,.27.09a2,2,0,0,1-.57.38c-1.81.44-3.68.19-4-2.27-.1-.87-.15-1.74-.24-2.61-.19-1.82-1-2.59-2.83-2.61h-2v7.23h2.15v.19H33v-.11H35.1V69.58H33l-.06-.15a.36.36,0,0,1,.17-.07c2.55,0,5.1,0,7.64.13a3.24,3.24,0,0,1,2.9,4.13,3.34,3.34,0,0,1-2.41,2.14Zm-3.18-6.33v6.22c3.34.28,4.3-.42,4.31-3.06S40.41,69.39,37.21,69.65Z"/><path class="cls-1" d="M50.68,69.57H48.52v-.15H60v3.37l-.15,0c-.08-.21-.17-.41-.24-.62-.74-2-1.64-2.61-3.78-2.62h-3v6.31c1,0,2.14.31,2.91-.42a10.81,10.81,0,0,0,1.52-2.43v6c-.46-.79-.76-1.89-1.48-2.38S53.85,76.2,52.8,76v7.31a33.64,33.64,0,0,0,4.71,0c1.66-.24,2.41-1.63,2.87-3.13a2.44,2.44,0,0,1,.35-.8v4.31H48.53V83.5h2.16Z"/><path class="cls-1" d="M91.88,69.16v4.22l-.15,0c-.06-.22-.13-.44-.18-.65a4.36,4.36,0,0,0-5.75-3.23A4,4,0,0,0,83,72.71a15.29,15.29,0,0,0,0,7.63,4,4,0,0,0,5.16,3.23,3.11,3.11,0,0,0,2.5-2.87c0-.66,0-1.34,0-2.1H88.12v-.2h6.08v.11H92.65v4.77c-1-1-1.8-.34-2.6,0-3.41,1.63-7.27.16-9-3.46-2-4.16.28-9.47,4.63-10.59a6.18,6.18,0,0,1,3.25,0C89.86,69.57,90.83,70.39,91.88,69.16Z"/><path class="cls-1" d="M65.69,69.58H63.52v-.17a2.87,2.87,0,0,1,.5-.07c1.07,0,2.15,0,3.22,0a.89.89,0,0,1,.9.52q3,4.86,6,9.7l.47.71V69.6H72.44v-.18h4.69v.13H74.92V83.93l-.19.11a4.36,4.36,0,0,1-.5-.56q-3.86-6.14-7.68-12.29l-.48-.69V83.44h2.16v.18H63.53v-.13h2.17Z"/><path class="cls-1" d="M4.76,79.24a4.85,4.85,0,0,1,.28.54c.09.27.16.55.25.83a4.52,4.52,0,0,0,6.23,2.77,2.91,2.91,0,0,0,1.86-2.64A2.57,2.57,0,0,0,11.9,78c-.9-.43-1.88-.69-2.82-1-.57-.2-1.16-.35-1.71-.58a3.21,3.21,0,0,1-2.28-2.73A3.93,3.93,0,0,1,6.7,69.93,4.82,4.82,0,0,1,11,69.28a8.39,8.39,0,0,1,.88.33c.57.25,1.11.44,1.58-.26V73l-.12,0c-.07-.25-.14-.51-.22-.76A3.8,3.8,0,0,0,8,69.6,2.57,2.57,0,0,0,6.15,72a2.27,2.27,0,0,0,1.62,2.36c1.14.46,2.32.8,3.49,1.19l.7.22c1.63.52,2.85,1.39,3,3.28a4.52,4.52,0,0,1-2.6,4.41,7.51,7.51,0,0,1-5.12.24,5.08,5.08,0,0,1-.51-.17c-.65-.21-1.31-.48-1.94.39Z"/><path class="cls-1" d="M25.53,83.47h2.14v.15H21.29l0-.13h2.15V69.63c-1.13,0-2.34-.24-3.19.62a17.23,17.23,0,0,0-1.8,2.57V69.37h12.1v3.48a18.5,18.5,0,0,0-1.82-2.61c-.83-.84-2-.65-3.18-.62Z"/><path class="cls-1" d="M99.44,83.46h2.14V69.63c-1.13,0-2.34-.24-3.19.61a17.85,17.85,0,0,0-1.8,2.58V69.37h12.1v3.48a17.11,17.11,0,0,0-1.82-2.6c-.83-.85-2-.66-3.18-.63V83.44h2.14v.18H99.45Z"/><path class="cls-1" d="M33,62.85H28.64v4.47l1.35.06v.13H25.81l0-.12,1.39-.07v-9l-1.37-.07v-.12H30l0,.11-1.38.08v4.25H33V58.32l-1.38-.07v-.13h4.18l0,.1-1.4.11v9l1.39.09v.14H31.59v-.15L33,67.32Z"/><path class="cls-1" d="M38,62.76a5,5,0,0,1,4.74-5,5,5,0,0,1,0,9.94A4.86,4.86,0,0,1,38,62.76Zm7.93,0a30.89,30.89,0,0,0-.65-3.09A2.47,2.47,0,0,0,42.63,58a2.49,2.49,0,0,0-2.58,1.66,9.2,9.2,0,0,0,0,6.17,2.45,2.45,0,0,0,2.7,1.65,2.41,2.41,0,0,0,2.59-1.71A28.15,28.15,0,0,0,45.9,62.77Z"/><path class="cls-1" d="M84.84,62.78a5,5,0,0,1,4.72-5,5,5,0,0,1,0,9.94A4.85,4.85,0,0,1,84.84,62.78Zm1.44,0A24.64,24.64,0,0,0,87,66a2.92,2.92,0,0,0,5.17-.06,9.08,9.08,0,0,0,0-6.17,2.86,2.86,0,0,0-5.27.07A28,28,0,0,0,86.28,62.83Z"/><path class="cls-1" d="M72.67,62.28c1.57.33,2.54-.21,2.89-1.78v4a2.09,2.09,0,0,0-2.87-1.82V67.3a23,23,0,0,0,3.11,0c.94-.12,1.45-.9,1.78-1.75a4.07,4.07,0,0,1,.34-.82v2.84H69.85v-.14l1.39-.07v-9l-1.37-.07v-.12h7.57v2.34c-.17-.37-.28-.56-.37-.77a2.11,2.11,0,0,0-2.13-1.42c-.74,0-1.47,0-2.26,0Z"/><path class="cls-1" d="M99,67.37h1.37v.14H96.18l0-.12,1.39-.07v-9l-1.39-.08,0-.14h7.58v2.16c-.07,0-.1,0-.1,0-.53-1.74-1.81-2.16-3.46-2-.39,0-.79,0-1.21,0v4.14c1.44.41,1.94.1,2.88-1.85v4.1A2.08,2.08,0,0,0,99,62.83Z"/><path class="cls-1" d="M60.81,67.38V64.72l.1,0c.12.35.22.7.36,1a3,3,0,0,0,4.16,1.46,2,2,0,0,0,.17-3.35,6.1,6.1,0,0,0-1.28-.55c-.59-.21-1.2-.36-1.78-.59A2.12,2.12,0,0,1,61,60.65a2.58,2.58,0,0,1,1.46-2.52,3.49,3.49,0,0,1,3,0,5.37,5.37,0,0,0,1.16.17v2.11l-.1,0c-.07-.23-.15-.46-.23-.69A2.47,2.47,0,0,0,63,58.17a1.67,1.67,0,0,0-1.21,1.53,1.49,1.49,0,0,0,1,1.56c.77.31,1.55.57,2.34.81C67,62.66,67.68,63.5,67.5,65a3.16,3.16,0,0,1-3.22,2.75A19.43,19.43,0,0,1,62,67.39C61.65,67.35,61.25,67.38,60.81,67.38Z"/><path class="cls-1" d="M50.59,58.32l-1.43-.08V58.1h4.19l0,.14L52,58.32a1.23,1.23,0,0,0-.07.32v6q0,.3,0,.6c.15,1.55.75,2.22,2,2.27,1.65.07,2.88-.71,3-2.17.12-2.32,0-4.64,0-7l-1.39-.07v-.13h3.06v.13l-1.42.07v2.22c0,1.24-.05,2.47,0,3.7.14,2.69-1.61,3.74-4.07,3.43a2.73,2.73,0,0,1-2.62-3c0-1.91,0-3.81,0-5.71Z"/></svg>