<svg id="Layer_38" data-name="Layer 38" xmlns="http://www.w3.org/2000/svg" viewBox="0 0 131 131"><defs><style>.cls-1{fill:#1b3d65;}</style></defs><path class="cls-1" d="M16.38,86.32V88a3.76,3.76,0,0,0-3.66-1.88,5.78,5.78,0,0,0,0,11.54,4,4,0,0,0,3.63-2v1.7c0,2.58-1.13,3.86-3.63,3.86a3.13,3.13,0,0,1-3.14-2.4H7.23a5.21,5.21,0,0,0,5.49,4.43c4.47,0,6-2.94,6-6v-11Zm-3.31,9.37c-2.11,0-3.44-1.48-3.44-3.81s1.38-3.81,3.44-3.81,3.38,1.51,3.38,3.81S15.07,95.69,13.07,95.69Z"/><path class="cls-1" d="M28.36,88.67a7.1,7.1,0,0,0-1-.08c-2,0-3.26,1-3.26,3.66v6H21.77V86.32H24V88.4a3.88,3.88,0,0,1,4.32-2.2Z"/><path class="cls-1" d="M39.54,96.26v-6C39.54,88,38.15,86,34.59,86,32,86,30,87.52,29.73,89.79h2.32a2.48,2.48,0,0,1,2.59-1.86c1.81,0,2.57,1,2.57,2.12,0,.42-.19.79-.91.89l-3.21.47c-2.06.3-3.61,1.48-3.61,3.61a3.7,3.7,0,0,0,4,3.56,4.34,4.34,0,0,0,3.83-2,8.79,8.79,0,0,0,.12,1.61h2.27A11.53,11.53,0,0,1,39.54,96.26Zm-2.33-3.14c0,2.59-1.53,3.51-3.43,3.51a1.8,1.8,0,0,1-1.93-1.73,1.77,1.77,0,0,1,1.73-1.78l3.63-.55Z"/><path class="cls-1" d="M44.85,98.21H42.53V86.32H44.8V88a4.08,4.08,0,0,1,3.66-2c2.84,0,4.25,2,4.25,4.7v7.54H50.39V91.07c0-1.66-.7-3-2.77-3-1.83,0-2.77,1.46-2.77,3.27Z"/><path class="cls-1" d="M58.91,86.32h2.57v2.1H58.91V94.6c0,1.09.45,1.63,1.66,1.63a4.51,4.51,0,0,0,.91-.1v2a4.88,4.88,0,0,1-1.58.22A3.08,3.08,0,0,1,56.59,95V88.42H54.32v-2.1H55a1.67,1.67,0,0,0,1.83-1.83V82.56h2.12Z"/><path class="cls-1" d="M69.14,91.36l-1.93-.42c-.91-.2-1.35-.72-1.35-1.43a1.79,1.79,0,0,1,2-1.58,2.31,2.31,0,0,1,2.22,1.21h2.3C72.11,88.07,71.09,86,67.83,86a4,4,0,0,0-4.22,3.76,3.37,3.37,0,0,0,3,3.33l2,.45c1,.22,1.53.79,1.53,1.53s-.72,1.58-2,1.58a2.59,2.59,0,0,1-2.58-1.52H63.18c.2,1.36,1.64,3.5,4.9,3.5,2.94,0,4.35-2,4.35-3.68S71.29,91.83,69.14,91.36Z"/><path class="cls-1" d="M74.63,103.28v-17h2.25v1.85a4.39,4.39,0,0,1,4-2.12c3.56,0,5.46,2.74,5.46,6.2s-2,6.28-5.53,6.28a4.41,4.41,0,0,1-3.86-1.93v6.68ZM80.44,88.1c-2.13,0-3.53,1.78-3.53,4.15s1.4,4.2,3.53,4.2S84,94.7,84,92.25,82.62,88.1,80.44,88.1Z"/><path class="cls-1" d="M98,96.26v-6C98,88,96.6,86,93.05,86c-2.57,0-4.62,1.57-4.87,3.84H90.5a2.49,2.49,0,0,1,2.59-1.86c1.81,0,2.58,1,2.58,2.12,0,.42-.2.79-.92.89l-3.21.47c-2.05.3-3.61,1.48-3.61,3.61a3.71,3.71,0,0,0,4,3.56,4.34,4.34,0,0,0,3.83-2,8.79,8.79,0,0,0,.12,1.61h2.28A11.14,11.14,0,0,1,98,96.26Zm-2.32-3.14c0,2.59-1.54,3.51-3.44,3.51A1.8,1.8,0,0,1,90.3,94.9,1.77,1.77,0,0,1,92,93.12l3.64-.55Z"/><path class="cls-1" d="M108.92,94.87A3.15,3.15,0,0,1,106,96.43c-1.93,0-3.64-1.46-3.64-4.18s1.73-4.15,3.61-4.15a3,3,0,0,1,2.83,1.59h2.45A5.18,5.18,0,0,0,106,86a6,6,0,0,0-6,6.3,6,6,0,0,0,6,6.33,5.46,5.46,0,0,0,5.36-3.71h-2.44Z"/><path class="cls-1" d="M123.72,92.92a6.12,6.12,0,0,0,0-.74c0-2.58-1-4.58-2.82-5.56h0l-.23-.12h0l-.22-.1,0,0-.21-.08-.07,0-.21-.06-.09,0-.19,0-.11,0-.18,0-.14,0L119,86l-.16,0h-.15l-.21,0h-.45c-3,0-5.69,2.54-5.69,6.28,0,4,2.8,6.35,6,6.35h.4l.24,0h.08l.29,0h0l.25,0,.08,0a1.05,1.05,0,0,0,.24-.06h0l.27-.08h0l.23-.09,0,0,.51-.23,0,0,.22-.13h0a5.27,5.27,0,0,0,.46-.31l0,0a5.4,5.4,0,0,0,.61-.56l0,0a5.48,5.48,0,0,0,1.17-2h-2.31a3.06,3.06,0,0,1-1.14,1.2h0a3.5,3.5,0,0,1-1.58.45h-.29a3.53,3.53,0,0,1-3.58-3.61h9ZM114.85,91a3.19,3.19,0,0,1,3.23-3,3,3,0,0,1,3.27,3Z"/><polygon class="cls-1" points="68.2 44.1 52.68 36.6 53.72 36.17 69.74 43.19 68.2 44.1"/><path class="cls-1" d="M63.78,35a12,12,0,0,0-1-1.93,7.21,7.21,0,0,0-2.45-2.55,3.38,3.38,0,0,0-2.23-.46s-.07,0-.08,0-.21-.11-.32-.16a.23.23,0,0,1-.08-.11.34.34,0,0,1,.11,0l.29,0,0-.09a1.23,1.23,0,0,0-.41-.06c-.08,0-.1.2-.16.32l.4.1s0,0,0,0c-.19,0-.35,0-.54,0v.05l.19.1-.31.16a4.4,4.4,0,0,0-1.6,1.55,8.55,8.55,0,0,0-1.06,2.53,13,13,0,0,0-.4,2.75l.16.12a6.49,6.49,0,0,0,.62.45l.61.39.18.13,0,0,.1,0c.23.09.46.18.68.29l.16.07.73.38.19.14c1.49.73,3.17,1.52,4.65,2.26l1.13.54.59.27.76.35c0-.35.08-.69.1-1A15.9,15.9,0,0,0,63.78,35Zm-4.93-3.85h0Zm1.14.31-.05,0Zm-.14-.06-.07,0Zm-.15-.06-.07,0Zm-.14-.05-.07,0Zm-.14,0-.08,0Zm-.14,0-.09,0Zm-.14,0h0Zm-.15,0h0Zm-.28,0h0Zm-.56.07-.13,0Zm.42-.06h0Zm-.14,0-.11,0Zm-.14,0-.12,0Zm-.28.07-.13,0ZM56.75,32ZM56,34.44v0h0l0,.13Z"/><path class="cls-1" d="M53.56,32.43,38.42,38.94a5.26,5.26,0,0,1,2.67.48L52.91,34.3A14.28,14.28,0,0,1,53.56,32.43Z"/><path class="cls-1" d="M66.85,32.08a11.88,11.88,0,0,1,1,1.92l11.78,5.2A4.26,4.26,0,0,1,82,38.5Z"/><path class="cls-1" d="M54.65,55,59,57.37V52.12a1.76,1.76,0,0,0-.78-1.43L40.67,41s-4.22-2-4.22,3.17V60.75A6.48,6.48,0,0,0,40,65.88L53,73.2a13.17,13.17,0,0,0,6,1.37V61.65L47.72,55.47l-1.62-.78V58.4A1.72,1.72,0,0,0,47,59.94l7.68,4.17v5.08L42.32,62.28S40.71,61.14,40.71,60V46s-.08-.27.24-.12l13.73,7.7Z"/><path class="cls-1" d="M56.84,32.43s0-.15.08-.26-.14,0-.18.09"/><path class="cls-1" d="M65.24,43c-.47,0,.42.07,0,.1a9.34,9.34,0,0,0,1.37.31c-.18,0-.13,0,.16,0-.06,0,0,0,.35-.11a2.62,2.62,0,0,1,.83-.1.59.59,0,0,0,0-.14,15.24,15.24,0,0,0,.13-4,14.73,14.73,0,0,0-.43-2.46c-.18-.64-.37-1.28-.6-1.91a11.72,11.72,0,0,0-1-1.95,7.91,7.91,0,0,0-2.76-2.9,3.82,3.82,0,0,0-2.15-.57c-.95.06-1.9.15-2.85.22a6.77,6.77,0,0,0-1,.21,4.65,4.65,0,0,0-2,1.6,7.42,7.42,0,0,0-1.06,2,12.36,12.36,0,0,0-.7,3.6,2.55,2.55,0,0,1,.59.31,13,13,0,0,1,.4-2.75,8.55,8.55,0,0,1,1.06-2.53,4.4,4.4,0,0,1,1.6-1.55,3.79,3.79,0,0,1,.93-.31,3.38,3.38,0,0,1,2.23.46,7.21,7.21,0,0,1,2.45,2.55,12,12,0,0,1,1,1.93,15.9,15.9,0,0,1,1.06,6.6c0,.35-.06.69-.1,1,.13.06.23.38.37.45s.16,0,.23,0"/><polygon class="cls-1" points="52.81 36.54 52.34 36.74 67.62 44.42 68.2 44.1 65.98 43.01 65.27 43.1 65.24 42.65 52.81 36.54"/><path class="cls-1" d="M80.4,47.73l4.25-2.53V43.7c0-5.42-4.17-3.12-4.17-3.12l-17.6,9.88a1.77,1.77,0,0,0-.77,1.43V64a7.32,7.32,0,0,0,1.89.31,7.86,7.86,0,0,0,4.06-1L80.4,56.4V60c0,1.17-1.61,2.3-1.61,2.3L66.42,69.18V68a8.66,8.66,0,0,1-4.31.35v6.22a12,12,0,0,0,6-1.37l13-7.31a6.69,6.69,0,0,0,3.56-5.28V48.84h0L66.42,59.32v-.23l0,0,0-5.45,13.73-7.69c.32-.15.25.11.25.11Z"/><path class="cls-1" d="M61.46,29.83s3.84.24,5.42,6.26a18.45,18.45,0,0,1,.48,7.59l-1.86-.91s1-9.28-5-12.87Z"/></svg>