<svg id="Layer_39" data-name="Layer 39" xmlns="http://www.w3.org/2000/svg" viewBox="0 0 131 131"><defs><style>.cls-1{fill:#ef8429;}</style></defs><path class="cls-1" d="M63.94,40.76a70.28,70.28,0,0,0-.12,7.4c0,1.38-.1,2.61-1.51,3.39-.64.35-.44,2.91.21,3.44a2.13,2.13,0,0,1,.85,2.33,2.05,2.05,0,0,1-2,1.63,2,2,0,0,1-2.09-1.3,2.1,2.1,0,0,1,.57-2.51,2.81,2.81,0,0,0-.17-4,2.59,2.59,0,0,1-1-2.33c0-2.67-.05-5.35-.07-8h1.68q0,4.17-.08,8.34c0,.64.26,1.1,1,1.11a1,1,0,0,0,1.1-1.11q0-4.17-.07-8.34Z"/><path class="cls-1" d="M15.33,90.15c0-1,.3-2.21-.18-2.78s-1.87-.19-2.85-.23-1.75,0-2.63,0c-.47,0-.85,0-.85-.67s.22-.83.83-.81c1.47,0,2.95-.08,4.42,0,1.11.09,1.4-.33,1.26-1.33a6,6,0,0,1,0-1.2c0-.56.47-.41.8-.43s.67,0,.66.45c0,2.23,0,4.45-.08,6.68,0,.1-.12.2-.19.3Z"/><path class="cls-1" d="M9.1,90.15a13.17,13.17,0,0,1,5-2.45c-.27.53-1,.48-1.27,1l-1.66,1c-.36,0-.67,0-.64.51Z"/><path class="cls-1" d="M10.54,90.15c0-.48.28-.53.64-.51,1.17.6,2.41.13,3.61.26l.06.25Z"/><path class="cls-1" d="M116.39,67.37c-1,1.27-2.06,2.54-3.11,3.79-.35.41-.52.73-.09,1.22,1.33,1.54,2.61,3.11,4.08,4.86l.15-1.49c.4.21.74.42,1.1.57a1.65,1.65,0,0,0,2-.39,1.43,1.43,0,0,0,.2-1.87c-.5-.82-1-1.62-1.56-2.41a7.14,7.14,0,0,1-1.24-2.44,2.12,2.12,0,0,1,.94-2.4,2,2,0,0,1,2.26,0c.27.18.71.38.46.82s-.49.63-1,.36-1-.38-1.4.13-.07,1,.18,1.46c.72,1.33,1.69,2.52,2.31,3.91a2.79,2.79,0,0,1-.16,3.25,2.86,2.86,0,0,1-3.26.84c-.07,0-.16-.1-.22-.08-2.36.87-3-1.25-4.16-2.42a7.76,7.76,0,0,0-1.55-1.44v3.16c0,.45.06.9-.64.88s-.57-.42-.57-.82V67.4c0-.42,0-.8.59-.8s.62.35.62.79c0,.87,0,1.75,0,2.8,1.33-1,2-2.5,3.22-3.38C115.85,66.93,116,67.39,116.39,67.37Z"/><path class="cls-1" d="M98.13,77.87a5.7,5.7,0,1,1,5.67-5.62A5.75,5.75,0,0,1,98.13,77.87Zm0-10.07a4.45,4.45,0,0,0-4.44,4.37,4.52,4.52,0,0,0,4.46,4.38,4.38,4.38,0,1,0,0-8.75Z"/><path class="cls-1" d="M73.42,73.49c0-1.95,0-3.9,0-5.85,0-.41-.25-1,.58-1s.65.52.65,1V76.8c0,.37.13.84-.5.88s-.9,0-1.11-.63a28,28,0,0,0-2-4.49v4.23c0,.43.09.9-.62.89s-.59-.49-.59-.91c0-3.08,0-6.15,0-9.22,0-.31-.22-.82.31-.88s.47.47.59.78c.67,1.75,1.31,3.51,2,5.26.11.28.24.56.36.84Z"/><path class="cls-1" d="M7,70.92c0,1.92,0,3.83,0,5.75,0,.43.2,1-.61,1s-.64-.53-.64-1c0-2.19,0-4.39,0-6.58,0-.83-.21-1.1-1.06-1.08-2.08,0-2.08,0-2.08,2.07,0,1.92,0,3.83,0,5.75,0,.49,0,.85-.68.83s-.57-.42-.57-.82V64.78c0-.44.05-.76.63-.76s.64.32.62.77,0,.64,0,1c0,2.09.6,2.55,2.65,2.08.36-.08.47-.24.47-.56a2.29,2.29,0,0,1,0-.83c.31-.78-.74-2.32.64-2.29S6.9,65.68,7,66.5A43.39,43.39,0,0,1,7,70.92Z"/><path class="cls-1" d="M34,73.84c0-2.1,0-4.2,0-6.3,0-.39-.19-.91.54-.94s.65.53.65,1q0,4.61,0,9.21c0,.36.15.84-.49.89s-.9-.06-1.1-.64a33.15,33.15,0,0,0-2-4.63c0,1.48,0,3,0,4.44,0,.38.1.81-.54.83s-.66-.39-.66-.85q0-4.72,0-9.45c0-.26-.13-.62.24-.71s.5.31.6.58q1.25,3.3,2.47,6.61Z"/><path class="cls-1" d="M61.54,72.41c0,1.46,0,2.92,0,4.37,0,.43.11.91-.6.9s-.6-.49-.6-.9c0-3.11,0-6.22,0-9.33,0-.28-.17-.72.28-.79s.46.36.57.64c.83,2.19,1.64,4.38,2.71,6.54,0-2.07,0-4.15,0-6.22,0-.42-.22-1,.6-1s.59.6.59,1q0,4.55,0,9.09c0,.39.19.92-.53,1A.91.91,0,0,1,63.48,77c-.55-1.56-1.15-3.1-1.73-4.64Z"/><path class="cls-1" d="M106.28,74.23c0,1.09,0,1.93,0,2.76,0,.52-.19.7-.7.7s-.58-.3-.57-.7q0-4.9,0-9.81c0-.62.31-.7.83-.72a3.82,3.82,0,0,1,3.63,2.27,3.77,3.77,0,0,1-.65,4.12c-.33.38-1.08.54-1,1.06a5.6,5.6,0,0,0,.85,1.69,1.3,1.3,0,0,0,.39.45c.5.37,1.31.88.71,1.43s-1.3-.21-1.77-.71a4.7,4.7,0,0,1-.68-1.25A3.1,3.1,0,0,0,106.28,74.23Zm0-3.93c0,.56,0,1.12,0,1.67-.08,1,.4.93,1,.57a2.57,2.57,0,0,0,.24-4.31c-.32-.23-.68-.54-1.08-.34s-.16.65-.19,1S106.27,69.83,106.27,70.3Z"/><path class="cls-1" d="M58.62,71.25c0,1.2,0,2.4,0,3.6a2.92,2.92,0,0,1-2.9,3,3,3,0,0,1-2.92-3c0-2.47,0-4.94,0-7.42,0-.39-.07-.81.55-.84s.67.38.67.85l0,7c0,1.41.58,2.14,1.67,2.15s1.7-.72,1.71-2.12c0-2.16,0-4.31,0-6.47,0-.46-.48-1.35.6-1.33s.53.82.55,1.28C58.66,69,58.62,70.14,58.62,71.25Z"/><path class="cls-1" d="M87.19,70.78c0-2,0-3.91,0-5.87,0-.67.19-.92.88-.9,1.43,0,2.87,0,4.3,0,.44,0,.79,0,.79.61s-.31.63-.76.63c-1,0-2.08,0-3.11,0s-.75.8-.78,1.35-.25,1.28.78,1.22c.71,0,1.43,0,2.15,0,.39,0,.58.14.59.55s-.09.71-.59.68c-.24,0-.48,0-.72,0-2.23,0-2.22,0-2.22,2.29v5.39c0,.49.05,1-.71,1s-.59-.5-.59-.92C87.18,74.77,87.19,72.78,87.19,70.78Z"/><path class="cls-1" d="M20.3,77.15c.05.26,0,.49-.31.51s-.89.12-.93-.45c-.1-1.33-1.07-1-1.85-1s-1.44-.06-1.52,1c0,.56-.52.54-.92.48-.62-.08-.32-.51-.25-.82.78-3.17,1.57-6.35,2.36-9.52.07-.28.06-.71.52-.67s.37.38.43.63Q19,72.1,20.24,76.92ZM17.49,71h-.26c-.29,1.13-.64,2.26-.85,3.42-.17.9.63.51,1,.5s1.15.41,1-.49C18.14,73.27,17.78,72.14,17.49,71Z"/><path class="cls-1" d="M9.11,72.11c0-1.56,0-3.12,0-4.68,0-.7.17-1,.93-1,1.08.05,2.16,0,3.23,0,.49,0,.86,0,.85.68s-.47.62-.9.62c-.6,0-1.2,0-1.8,0s-1.11,0-1.1.93.41.9,1,.86c.4,0,.8,0,1.2,0s.65.15.65.62-.14.69-.61.66a.24.24,0,0,0-.12,0c-2.13.17-2.13.17-2.13,2.29,0,.76.06,1.52,0,2.27s.29,1.12,1.1,1,1.36,0,2,0c.46,0,.64.17.64.63s-.23.63-.66.61h-.12c-1.31,0-3,.45-3.85-.18s-.23-2.43-.35-3.71C9.07,73.23,9.11,72.67,9.11,72.11Z"/><path class="cls-1" d="M42.38,74.69a13.33,13.33,0,0,0,0,1.79c.14,1.06-.28,1.33-1.27,1.17a5.74,5.74,0,0,1-4.77-5.39,5.65,5.65,0,0,1,4.43-5.76c.31-.06.64-.06,1-.09s.66.13.66.61-.15.63-.61.66a4.41,4.41,0,0,0-3.52,2A4.49,4.49,0,0,0,40,76.1c.72.35,1.21.41,1.15-.65s0-2,0-3c0-.45.07-.77.64-.75s.57.31.57.71c0,.76,0,1.52,0,2.28Z"/><path class="cls-1" d="M81.92,74.71a19.61,19.61,0,0,0,0,2c.08.87-.34,1-1.06.93a5.73,5.73,0,0,1-5-5.54,5.67,5.67,0,0,1,4.8-5.69,2.17,2.17,0,0,1,.36,0c.36,0,.83-.17.88.48s-.17.77-.73.8a3.88,3.88,0,0,0-2.13.71,4.2,4.2,0,0,0-2,4,4.46,4.46,0,0,0,2.58,3.77c.66.35,1.1.4,1-.62s0-2.07,0-3.11c0-.38,0-.7.55-.72s.67.26.66.73c0,.76,0,1.52,0,2.28Z"/><path class="cls-1" d="M48.71,71.44c0-1.59-.06-3.19,0-4.78.05-1-.19-1.61-1.35-1.4a2.57,2.57,0,0,1-.48,0c-.44,0-.5-.28-.5-.63s.13-.6.55-.6c1.59,0,3.18,0,4.77,0,.48,0,.62.21.63.66s-.26.61-.68.59a6,6,0,0,1-.6,0c-.84-.12-1.08.23-1.07,1.06,0,3.47,0,6.93,0,10.4,0,.35.2.84-.42,1s-.91-.17-.89-.85C48.73,75,48.71,73.23,48.71,71.44Z"/><path class="cls-1" d="M21.37,72.07c0-1.55,0-3.11,0-4.66,0-.51.08-.84.71-.82s.57.42.57.82c0,2.59,0,5.18,0,7.77,0,1,.22,1.4,1.25,1.28a17.18,17.18,0,0,1,1.9,0c.4,0,.57.17.58.57s-.12.68-.6.67c-1.24,0-2.47,0-3.71,0-.64,0-.69-.35-.68-.84C21.38,75.26,21.37,73.66,21.37,72.07Z"/><path class="cls-1" d="M68.1,72.29c0,1.39,0,2.79,0,4.18,0,.46.35,1.24-.64,1.2s-.57-.81-.57-1.26q-.06-4.23,0-8.48c0-.48-.43-1.35.63-1.31s.54.9.57,1.37C68.15,69.42,68.1,70.85,68.1,72.29Z"/><path class="cls-1" d="M27.33,72.16c0-1.59,0-3.19,0-4.78,0-.44,0-.78.62-.78s.59.37.59.79v9.45c0,.39.09.82-.54.84s-.67-.38-.67-.85C27.33,75.28,27.32,73.72,27.33,72.16Z"/><path class="cls-1" d="M128.51,67.22c-.58.32-.15,1.44-1,1.42-.61,0-.3-.92-.75-1.21-.47.3.13,1.4-.71,1.22-.64-.14-.17-1-.21-1.48a4.78,4.78,0,0,1,.08-1.07c0-.33-.07-.76.47-.81s.73.18.83.64a7,7,0,0,0,.25.84c.51-.14.53-.61.65-1a.69.69,0,0,1,.83-.49c.45,0,.42.4.44.72,0,.64.1,1.27.12,1.91,0,.33.16.8-.42.79s-.38-.42-.43-.72S128.74,67.45,128.51,67.22Z"/><path class="cls-1" d="M55.06,46.64c0-.64,0-1.27,0-1.91a.81.81,0,0,1,.85-.82.8.8,0,0,1,.91.75c.05,1.31.06,2.62,0,3.92a.81.81,0,0,1-.91.77.86.86,0,0,1-.88-.92c0-.6,0-1.19,0-1.79Z"/><path class="cls-1" d="M67.25,46.62c0,.59,0,1.19,0,1.78a.93.93,0,1,1-1.85,0q0-1.73,0-3.45c0-.6.32-1,.94-1s.9.43.91,1S67.25,46.06,67.25,46.62Z"/><path class="cls-1" d="M42.76,89.4a6.15,6.15,0,0,0-2.4-.62,2.42,2.42,0,0,1-2-2.27,2.53,2.53,0,0,1,4.49-1.69A2.32,2.32,0,0,1,43,87.71C42.64,88.25,42.32,88.69,42.76,89.4Zm.15-3a2,2,0,1,0-3.94,0,1.9,1.9,0,0,0,1.75,1.89A2,2,0,0,0,42.91,86.39Z"/><path class="cls-1" d="M63.45,84.69l1,4.27c-.78-.5-1.35-.85-2-.17-.21.22-.81.14-1-.47-.27-.86-.26-1.79-1.08-2.5-.4-.35.1-1.18.56-1.83.3,1.27.6,2.53.89,3.79,0,.18-.11.42.2.46s.31-.21.37-.39C62.75,86.89,62.65,85.81,63.45,84.69Zm-.11,1.91c-.07.4-.5.74-.17,1.18a.36.36,0,0,0,.32,0C63.86,87.35,63.39,87,63.34,86.6Z"/><path class="cls-1" d="M100.45,87.79c-.41.27,0,.85-.66,1.09V84.93c.63.34.44,1.16,1,1.56.44-.5-.11-1.27.71-1.94,0,1.5,0,2.77,0,4,0,.37-.4.33-.59,0A5.7,5.7,0,0,1,100.45,87.79Z"/><path class="cls-1" d="M34.7,86.78a2.16,2.16,0,0,1-2,2.17,2.1,2.1,0,0,1-2.14-2.1,2.06,2.06,0,1,1,4.12-.07Zm-.5.12a1.58,1.58,0,0,0-1.59-1.59,1.4,1.4,0,0,0-1.5,1.5,1.46,1.46,0,0,0,1.42,1.61A1.61,1.61,0,0,0,34.2,86.9Z"/><path class="cls-1" d="M78.23,84.76c.65.22.15,1,.8,1s.09-.87.63-1a7.93,7.93,0,0,1,0,4.07c-.53-.46-.26-1-.34-1.53,0-.29.11-.76-.31-.78s-.34.51-.4.82c-.09.47.19,1-.42,1.61Z"/><path class="cls-1" d="M99.25,84.12c-.47.6-1.42-.18-1.57.64s.9.25,1.19.88c-1.64-.08-1.25,1.07-1.26,2,0,1.15,1.13.38,1.64,1a2.56,2.56,0,0,1-1.89.14c-.58-.14-.3-.74-.32-1.14,0-.75,0-1.51,0-2.27C97,83.72,97.38,83.5,99.25,84.12Z"/><path class="cls-1" d="M68.48,46.58a4.06,4.06,0,0,1,.06-.91.83.83,0,0,1,1-.71c1,.26.73,1.15.77,1.87s0,1.33-.8,1.49a.85.85,0,0,1-1-.76A7.55,7.55,0,0,1,68.48,46.58Z"/><path class="cls-1" d="M109.13,84.64l.92,2.1c.4-.65-.09-1.37.71-2.19,0,1.53,0,2.75,0,4,0,.13-.11.33-.31.27a.57.57,0,0,1-.32-.29c-.18-.34-.32-.7-.5-1.13-.32.5.06,1-.49,1.56Z"/><path class="cls-1" d="M51.91,46.58a5,5,0,0,1,.07-.95.8.8,0,0,1,1-.68c.9.18.84.94.83,1.61s.16,1.53-.81,1.75a.8.8,0,0,1-1-.66A6.28,6.28,0,0,1,51.91,46.58Z"/><path class="cls-1" d="M11,82.75h2.09c2,0,2,0,1.64,2.2L10.93,83Z"/><path class="cls-1" d="M27.06,85c-.32.52-.94.07-1.19.55.06.54.8.11.88.7-.69.15-1,.53-1,1.36,0,1,.9.53,1.32,1-.44.53-1,.36-1.49.27s-.33-.64-.35-1c0-.59,0-1.19,0-1.79C25.24,84.58,25.56,84.39,27.06,85Z"/><path class="cls-1" d="M88.82,85.52c.09.54.7.16.87.66a1.33,1.33,0,0,0-1,1.37c0,1.06,1,.55,1.32,1-1.37.7-1.83.46-1.84-.93V86c0-1.4.42-1.62,1.83-1C89.76,85.52,89.15,85.09,88.82,85.52Z"/><path class="cls-1" d="M68,85.51c.12.56.72.17.9.67a1.33,1.33,0,0,0-1,1.56c.1.9,1,.35,1.29.84a1.33,1.33,0,0,1-1.5.24c-.5-.13-.3-.67-.32-1,0-.63,0-1.27,0-1.91,0-1.28.51-1.51,1.79-.84C68.94,85.52,68.34,85.09,68,85.51Z"/><path class="cls-1" d="M72.56,85l.82,2c.29-.79,0-1.51.28-2.17a9.69,9.69,0,0,1,.3,3.88c-.23.28-.41.12-.56-.09s-.14-.71-.49-.94c-.34.31.09.87-.5,1.22V85Z"/><path class="cls-1" d="M47.29,84.8A14.45,14.45,0,0,1,48.45,89c-.76-.82-1.4-.83-2.16,0A21.1,21.1,0,0,1,47.29,84.8Z"/><path class="cls-1" d="M82.34,85c-.36.57-1,.07-1.31.57.08.56.74.11,1,.62-.45.33-1.12.44-1.07,1.39.06,1.14,1.11.49,1.4,1-1.4.66-1.84.44-1.84-.94V86.12C80.48,84.55,80.73,84.39,82.34,85Z"/><path class="cls-1" d="M111.34,86.71a5.73,5.73,0,0,1,0-.83c.05-.37-.23-.88.24-1.07s.84.11,1.19.39a2,2,0,0,1-.36,3.45c-.66.32-1.16.36-1.09-.63C111.37,87.58,111.34,87.14,111.34,86.71Zm.51-1.38c0,.9,0,1.65,0,2.4s.3.54.66.26C113.41,87.31,113.18,86.09,111.85,85.33Z"/><path class="cls-1" d="M84.6,84.86c-.41.62-1,.26-1.29.63,0,.58.8.16.85.74-.36.26-1.07.23-1,1a1.88,1.88,0,0,1-.4,1.77,11.12,11.12,0,0,1,0-3.94C82.93,84.31,83.85,84.78,84.6,84.86Z"/><path class="cls-1" d="M17.83,88.37c1.86-.16,2-.51,1.06-2a8,8,0,0,1-.7-1.24.85.85,0,0,1,.3-1.07.77.77,0,0,1,1.22.18c-1.6.11-1,.84-.54,1.56a10.1,10.1,0,0,1,.7,1.24,1.13,1.13,0,0,1-.32,1.5A1.17,1.17,0,0,1,17.83,88.37Z"/><path class="cls-1" d="M86.32,86.25c-1.73.15-.54,1.74-1.4,2.48A18.09,18.09,0,0,1,85,85.12c.15-.73,1-.29,1.74-.28-.32.65-1.1.18-1.23.63C85.29,86.14,86.29,85.64,86.32,86.25Z"/><path class="cls-1" d="M75.64,88.35c.59-.2,1.23.2,1.5-.44s-.21-1-.49-1.51A8.34,8.34,0,0,1,76,85.16a.85.85,0,0,1,.31-1.06.77.77,0,0,1,1.16.11c-1.23.44-1.24.47-.54,1.58a12.86,12.86,0,0,1,.77,1.34,1.13,1.13,0,0,1-.37,1.49C76.82,89,76.47,89,75.64,88.35Z"/><path class="cls-1" d="M45.74,84.92a7.63,7.63,0,0,1,.18,3.15,1,1,0,0,1-1,.86A1,1,0,0,1,43.86,88a12.56,12.56,0,0,1,0-3.12c.58.14.37.57.39.87,0,.52,0,1,0,1.56s0,1.08.63,1.07.51-.6.53-1A6.09,6.09,0,0,1,45.74,84.92Z"/><path class="cls-1" d="M14.79,89.9c-1.2-.13-2.44.34-3.61-.26l1.66-1c.75,0,1.25-.61,1.95-.7A5.83,5.83,0,0,1,14.79,89.9Z"/><path class="cls-1" d="M22.24,84.91a6.94,6.94,0,0,1,.16,3.23.94.94,0,0,1-1,.79.92.92,0,0,1-1-.77,10.93,10.93,0,0,1,.11-3.57,6.72,6.72,0,0,1,.32,2.8c0,.43,0,1,.56,1s.59-.53.61-1A6.8,6.8,0,0,1,22.24,84.91Z"/><path class="cls-1" d="M60,86.66c.46-.18.48.18.43.43a15.15,15.15,0,0,1-.46,1.55c-.57-.91-.49-1.85-.85-2.66-.41.11-.19.76-.89.8l.73-3a12.27,12.27,0,0,1,.83,2.63c-.07.1-.11.2,0,.27S59.9,86.68,60,86.66Z"/><path class="cls-1" d="M24.43,86.78c-.38.67-1,1.18-1,2.08l-.39,0c0-1.27,0-2.54,0-3.8,0-.22.25-.3.46-.28a1.32,1.32,0,0,1,1.14.76c.19.46.47,1-.25,1.3-.21-.37.08-.87-.32-1.19-.18-.14-.43-.37-.51,0a2,2,0,0,0,.05,1.25C23.8,87.22,24.13,86.57,24.43,86.78Z"/><path class="cls-1" d="M124.14,65.29a7.38,7.38,0,0,1,.94,0,.51.51,0,0,1,.35.24.25.25,0,0,1-.15.38c-1,.09-.63.88-.73,1.43s.33,1.26-.36,1.29-.31-.79-.41-1.22.34-1.38-.75-1.56c-.28,0-.21-.49.16-.56a6,6,0,0,1,1,0Z"/><path class="cls-1" d="M92.39,88.47c-1.55.82-2,.58-2-.82a9.14,9.14,0,0,1,.21-3.07,2.76,2.76,0,0,1,.33,1.89C91,87.4,90.57,88.57,92.39,88.47Z"/><path class="cls-1" d="M53.91,84.81c-1.76,1-.49,2.75-1.12,4.13-.55-.73-.25-1.44-.31-2.1s.21-1.43-.75-1.82C52.5,84.49,53.22,84.84,53.91,84.81Z"/><path class="cls-1" d="M71.44,84v4.82h-.28V84Z"/><path class="cls-1" d="M107.05,88.47c-.61.79-1.47.46-2.16.32-.53-.11-.24-.84-.26-1.28a13.47,13.47,0,0,1,.12-2.69c.61.68.33,1.48.35,2.21.06,1.42.16,1.51,1.64,1.12Z"/><path class="cls-1" d="M54.37,85.83c1.4.86,1.3-1,2.44-1-.89,1.26-1.71,2.43-1.45,4C54.64,87.9,55.31,86.68,54.37,85.83Z"/><path class="cls-1" d="M8.94,83.67c-.09-.48-.19-1,.59-.57l3.89,2A1.28,1.28,0,0,1,12.15,85a1.21,1.21,0,0,0-.89-.32h0c-.17-.38-.48-.26-.77-.23A4.8,4.8,0,0,0,8.94,83.67Z"/><path class="cls-1" d="M9,89.12c-.18-1.65-.18-1.65,2.76-1.48A10.62,10.62,0,0,1,9,89.12Z"/><path class="cls-1" d="M76.59,46.63c-.09.53-.35.88-.93.87a.87.87,0,1,1,0-1.74C76.24,45.75,76.49,46.11,76.59,46.63Z"/><path class="cls-1" d="M73.47,46.62c-.1.58-.38.91-1,.88a.8.8,0,0,1-.87-.9.81.81,0,0,1,.93-.84C73.15,45.76,73.39,46.14,73.47,46.62Z"/><path class="cls-1" d="M50.65,46.6c-.07.53-.31.89-.89.9a.8.8,0,0,1-.93-.83.81.81,0,0,1,.86-.91A.88.88,0,0,1,50.65,46.6Z"/><path class="cls-1" d="M47.53,46.61c-.08.55-.34.9-.92.9a.81.81,0,0,1-.89-.87.8.8,0,0,1,.89-.88A.88.88,0,0,1,47.53,46.61Z"/><path class="cls-1" d="M102.53,88a1.56,1.56,0,0,1-.31-2.33,1.88,1.88,0,0,1,2.09-.81C102.28,86.08,102.23,86.17,102.53,88Z"/><path class="cls-1" d="M107.26,87.5c-.54-1,0-1.75.33-2.77a5.83,5.83,0,0,1,.65,2.3C108,87.3,107.72,87.63,107.26,87.5Z"/><path class="cls-1" d="M65.6,84.91A1.78,1.78,0,0,1,67,86.74a1.81,1.81,0,0,1-1.41,2v-.38c1.34-1.21,1.26-2.16-.24-3Z"/><path class="cls-1" d="M93.39,84.9a2,2,0,0,1,0,3.79v-.38c1.29-1.14,1.29-1.82,0-3Z"/><path class="cls-1" d="M35.49,88.08l0,.57h-.31c0-1.18,0-2.36,0-3.54,0-.41.36-.34.63-.29.83.16,1.16.92.84,2l-.38,0c.23-.56.25-1.24-.41-1.3s-.2.68-.3,1a1.76,1.76,0,0,0,0,.46C36,87.32,35.34,87.7,35.49,88.08Z"/><path class="cls-1" d="M8.94,83.67a5,5,0,0,1,1.54.73.63.63,0,0,0,.76.23h0l.25.48c-.43,0-.86.06-1.29.06C8.8,85.19,8.8,85.18,8.94,83.67Z"/><path class="cls-1" d="M93.38,88.31v.38c-.35.13-.74.3-.75-.31,0-1,0-2.06,0-3.09,0-.56.38-.49.75-.39v.43A3.2,3.2,0,0,0,93.38,88.31Z"/><path class="cls-1" d="M65.6,84.91l-.23.43c0,1-.39,2,.24,3v.38c-.34.12-.75.3-.76-.31,0-1,0-2,0-3.08C64.86,84.74,65.23,84.8,65.6,84.91Z"/><path class="cls-1" d="M107.26,87.5c.46.13.71-.2,1-.47l.54,2c-.68-.6-1.16-.9-1.73-.56l-.31-.32C106.76,87.81,106.75,87.45,107.26,87.5Z"/><path class="cls-1" d="M30,84.84v3.92h-.25V84.83Z"/><path class="cls-1" d="M51.33,84.85v3.91h-.25V84.84Z"/><path class="cls-1" d="M28.24,87.81c-.5.09-.11.68-.73,1,0-1.28,0-2.46,0-3.64,0-.47.47-.34.76-.25a1.17,1.17,0,0,1,.83.93h-.39c-.22-.29-.7-.69-.81-.37s-.58,1.21.27,1.6Z"/><path class="cls-1" d="M102.86,88.56c1.08-.25.44-1.29,1-1.87a2,2,0,0,1,.17,2C103.79,89.14,103.32,88.67,102.86,88.56Z"/><path class="cls-1" d="M49.24,88.94a5.49,5.49,0,0,1,0-4Z"/><path class="cls-1" d="M28.24,87.81l0-.75a1.28,1.28,0,0,0,.54-1.23h.39a.73.73,0,0,1-.05.89c-.82.7-.33,1.28.24,1.94C28.51,88.75,28.35,88.32,28.24,87.81Z"/><path class="cls-1" d="M36.24,86.73l.38,0c-.64.67-.39,1.24.31,1.7-.83.68-.8-.79-1.44-.4-.15-.38.5-.76,0-1.15C35.81,87.07,36,86.86,36.24,86.73Z"/><path class="cls-1" d="M87.19,88.63V85h.16V88.6Z"/><path class="cls-1" d="M14.79,88c-.7.09-1.2.75-1.95.7.28-.51,1-.46,1.27-1C14.45,87.52,14.64,87.7,14.79,88Z"/><path class="cls-1" d="M116.39,67.37c-.42,0-.54-.44-.87-.56a1,1,0,0,1,1.26,0C117,67,116.59,67.2,116.39,67.37Z"/><path class="cls-1" d="M11.51,85.12l-.25-.48a1.21,1.21,0,0,1,.89.32C11.94,85,11.8,85.4,11.51,85.12Z"/><path class="cls-1" d="M60,86.66c-.07,0-.15.08-.19.06s-.09-.17,0-.27Z"/><path class="cls-1" d="M11.24,84.63a.63.63,0,0,1-.76-.23C10.76,84.37,11.07,84.25,11.24,84.63Z"/></svg>