<svg id="Layer_4" data-name="Layer 4" xmlns="http://www.w3.org/2000/svg" viewBox="0 0 131 131"><defs><style>.cls-1{fill:#1b3d65;}</style></defs><path class="cls-1" d="M79.18,17.84c2.43,4.86,4.75,9.51,7.09,14.16.44.89.53.88,1.12,0L98.21,16.83c.35-.49.68-1,1-1.52.11-.19.21-.4.43-.37s.2.32.19.5c-.06,1.17-.11,2.34-.23,3.51-.17,1.66-.4,3.31-.6,5-.26,2.21-.54,4.41-.78,6.61-.18,1.6-.28,3.21-.48,4.81-.28,2.23-.36,4.48-.8,6.69-.12.6.22,1.46-.32,1.74a4.51,4.51,0,0,1-2,.13c-6.64,0-13.28,0-19.92,0-.93,0-1-.23-.7-1,1-2.52,2-5,2.77-7.6a3,3,0,0,0-.74-3,10.27,10.27,0,0,0-2.17-2.1c-1-.62-.78-1.25-.38-2,1.38-2.57,2.79-5.14,4.2-7.71C78.1,19.67,78.6,18.84,79.18,17.84Z"/><path class="cls-1" d="M80,62.06c-4,0-7.92,0-11.88,0-.94,0-1.16-.28-.84-1.12,1.53-4.07,3.2-8.1,4.51-12.24.6-1.88,1.55-2.17,3.29-2.14,6.77.1,13.55.05,20.32,0,.87,0,1.23,0,1,1.14a31.75,31.75,0,0,0-.5,4.26c-.27,2.44-.5,4.89-.85,7.31a3.28,3.28,0,0,1-3.32,2.74Z"/><path class="cls-1" d="M58.56,55.29c-.8-1.72-1.58-3.35-2.33-5-1.21-2.67-2.41-5.35-3.62-8-1.1-2.42-2.25-4.81-3.26-7.26a2.94,2.94,0,0,1,.6-3.37c2.34-2.5,4.58-5.1,6.89-7.64a2.78,2.78,0,0,1,3.71.21c1.6,1.83,3.25,3.62,4.89,5.43.68.76,1.42,1.49,2.06,2.29a3.14,3.14,0,0,1,.25,3.46q-2.34,5.15-4.66,10.28Q61,50.23,58.94,54.76A5.43,5.43,0,0,1,58.56,55.29Z"/><path class="cls-1" d="M31.58,46.62c4.31,0,8.48,0,12.64,0a.7.7,0,0,1,.74.55Q47.53,54.09,50.08,61c.25.68.09,1-.72,1-4.41,0-8.83,0-13.24,0a3.33,3.33,0,0,1-3-2.52c-.24-1.16-.33-2.35-.47-3.54-.28-2.4-.55-4.81-.82-7.21A5.71,5.71,0,0,0,31.58,46.62Z"/><path class="cls-1" d="M55.18,23.54c-2.46,2.75-4.9,5.37-7.2,8.12-1,1.24-.82,2.73-.15,4.19,2.3,5,4.55,10,6.82,14.95.77,1.68,1.56,3.34,2.32,5a1.58,1.58,0,0,1,0,1.31c-.89,2-1.79,4-2.72,6-.48,1-1.17,1.06-1.75.08a34.93,34.93,0,0,1-2.22-5.62c-2-5.21-3.88-10.45-5.81-15.69l-2.28-6.24a2.21,2.21,0,0,1,.48-2.43c3-3,6-5.95,9.09-8.85A3.71,3.71,0,0,1,55.18,23.54Z"/><path class="cls-1" d="M62.18,23.55c1.95-.56,3.17.7,4.38,1.83,2.55,2.4,5,4.89,7.55,7.28a3,3,0,0,1,.69,3.46c-1,2.76-2,5.49-3.06,8.24-2.12,5.79-4.22,11.58-6.34,17.37a3.65,3.65,0,0,1-1.38,2c-.38.24-.56.27-.77-.19C62.19,61.29,61.09,59,60,56.74c-.25-.55.25-1,.46-1.49,2.64-5.89,5.37-11.74,8-17.62a11.45,11.45,0,0,0,1.32-3.47c.22-2-1.11-3.16-2.23-4.41-1.8-2-3.7-4-5.41-6.07C62.16,23.64,62.18,23.56,62.18,23.55Z"/><path class="cls-1" d="M30.25,32.52l5.84,4.08c1.16.81,1.16.81,1.78-.43q1.66-3.33,3.34-6.66c.15-.29.21-.76.56-.79s.51.49.68.79c.57,1,.46,1.49-.46,2.24a3.33,3.33,0,0,0-1.2,4c.86,2.47,1.76,4.92,2.68,7.37.22.58.13.78-.51.77h-11c-.39,0-.68-.06-.72-.53-.14-1.5-.27-3-.43-4.49s-.37-3.18-.57-4.76A4.45,4.45,0,0,1,30.25,32.52Z"/><path class="cls-1" d="M86.45,96.18H81.93c-.07-.39.19-.3.38-.33a1.13,1.13,0,0,0,1-1.19c0-2.43,0-4.86,0-7.29a1.39,1.39,0,0,0-1.49-1.63c0-.14.07-.26.09-.26a31,31,0,0,1,6.39.15A2.73,2.73,0,0,1,90.65,88a2.45,2.45,0,0,1-1.92,2.84c-.75.24-1,.34-.33,1.05.92,1,1.68,2.14,2.53,3.19a2,2,0,0,0,2.21.78,1.28,1.28,0,0,0,1.07-1.4c0-2.15,0-4.31,0-6.46,0-1.12,0-2.14-1.51-2.26.24-.47.6-.29.86-.29,2.36,0,4.73,0,7.09,0,.64,0,1,.11.86.83,0,.23,0,.49,0,.72s.18.64-.18.72-.34-.36-.47-.62a1.72,1.72,0,0,0-1.66-1c-.83,0-1.67,0-2.5,0-.66,0-.87.26-.82.87,0,.27,0,.56,0,.83.07.82-.4,2,.19,2.36s1.82.15,2.75.1A1.25,1.25,0,0,0,100,89.05c0-.19-.07-.48.25-.47a.41.41,0,0,1,.37.42c0,1,0,2.08,0,3.13a.37.37,0,0,1-.31.36c-.32.06-.28-.19-.31-.39a1.31,1.31,0,0,0-1.17-1.17c-.13,0-.27-.07-.4-.08-2.58-.28-2.6-.26-2.6,2.31,0,2.31.59,2.82,2.89,2.48a3.34,3.34,0,0,0,2.89-1.73c.11-.23.17-.49.49-.36s.07.37,0,.56c-.2.71-.17,1.68-.63,2s-1.39.11-2.12.11c-2.75,0-5.5-.07-8.24,0A2.53,2.53,0,0,1,88.73,95c-.79-1.15-1.7-2.22-2.56-3.32-.25-.32-.56-.57-1-.4s-.16.55-.17.82c0,.66,0,1.33,0,2-.1,1.11.3,1.78,1.54,1.84ZM85,88.35v.73c0,1.52,0,1.52,1.5,1.35a2.23,2.23,0,0,0,2.26-2.34,2.29,2.29,0,0,0-2.4-2C85.21,86,85,86.16,85,87.32Z"/><path class="cls-1" d="M89.39,99.19h36.39a.47.47,0,0,1,.51.52c0,.28-.16.53-.52.52H53c-.39,0-.3-.3-.3-.52s-.08-.52.31-.52H89.39Z"/><path class="cls-1" d="M102.76,85.43c1,0,2.09,0,3.14,0,.32,0,.37.36.48.6,1.09,2.41,2.18,4.83,3.36,7.42.68-1.48,1.29-2.82,1.89-4.17a15.64,15.64,0,0,0,.84-2c.42-1.46,1.26-2.15,2.82-1.84a7.59,7.59,0,0,0,1.35,0c0,.11,0,.22-.06.23-1.22.2-1.37,1-1.34,2.08.07,2,0,4.1,0,6.15,0,1.64,0,1.64,1.45,2.15a11.73,11.73,0,0,1-5-.06c1.86,0,1.7-1.11,1.69-2.16,0-2.07,0-4.14,0-6.49-1.3,2.94-2.47,5.63-3.66,8.31-.11.24-.16.6-.48.61s-.34-.37-.44-.59c-1.21-2.61-2.4-5.23-3.77-7.83,0,2.27,0,4.53,0,6.79,0,.84.59,1.31,1.43,1.54h-3.73c.06-.5.5-.28.73-.43a1.25,1.25,0,0,0,.73-1.12c0-2.57,0-5.15,0-7.72,0-1.09-.83-.95-1.49-1.14Z"/><path class="cls-1" d="M27.55,99.19H50.17c.33,0,.88-.27.86.49,0,.39-.09.6-.52.54a4.51,4.51,0,0,0-.52,0H4.87c-.33,0-.74.18-1-.14a.88.88,0,0,1,0-.71c.13-.33.48-.17.73-.17H27.55Z"/><path class="cls-1" d="M117.08,95.93c1.8,0,1.52-1.22,1.52-2.32,0-1.84,0-3.68,0-5.52,0-1.12.29-2.38-1.53-2.33.26-.49.57-.33.81-.33,2.39,0,4.79,0,7.18,0,.68,0,1,.16.85.85a5.93,5.93,0,0,0,0,.73c0,.23.33.55-.09.69s-.31-.35-.39-.53a1.86,1.86,0,0,0-1.8-1.08c-.83,0-1.67,0-2.5,0s-.79.45-.72.85a9,9,0,0,1,0,2.26c-.06.87.16,1.19,1,1.09.55-.07,1.12,0,1.67,0s1.31-.22,1.31-1.12c0-.24.14-.53.41-.5s.19.39.2.59c0,.94,0,1.88,0,2.82,0,.18.11.46-.19.49a.38.38,0,0,1-.41-.38c-.09-1.3-1.1-1.22-1.95-1.24-2,0-2,0-2.05,2,0,.49,0,1,0,1.46-.1,1,.39,1.25,1.26,1.31a10.46,10.46,0,0,0,2.74-.28,2.24,2.24,0,0,0,1.59-1.47c.12-.3.32-.53.57-.46s.14.42.09.63c-.47,2.2-.48,2.2-2.8,2.2-2,0-4,0-6,0C117.63,96.26,117.31,96.42,117.08,95.93Z"/><path class="cls-1" d="M77.67,96.09a14.53,14.53,0,0,1-5.2-.12c1.84-.06,1.73-1.18,1.71-2.3,0-1.94,0-3.89,0-5.84,0-1.6,0-1.6-1.31-2.41,1.1,0,2.2,0,3.3,0a8.79,8.79,0,0,1,3.63.43A2.51,2.51,0,0,1,81.45,88a2.82,2.82,0,0,1-1.31,2.88,4.82,4.82,0,0,1-2.86.61c-1.44,0-1.44,0-1.44,1.48v.62C75.84,95.47,75.84,95.47,77.67,96.09Zm-1.83-7.56c0,.49,0,1,0,1.46s0,.71.4.85a3.08,3.08,0,0,0,3.13-1.39,2.19,2.19,0,0,0-.31-2.57,2.65,2.65,0,0,0-2.73-.77c-.84.27-.4,1.3-.49,2A2.81,2.81,0,0,0,75.84,88.53Z"/><path class="cls-1" d="M52.61,92.78c.43.74.74,1.36,1.13,1.91,1,1.39,3.48,1.72,4.18-.1a1.57,1.57,0,0,0-.4-1.73c-.83-1-2.07-1.49-3.13-2.21a2.95,2.95,0,0,1,2.38-5.38c.66.19,1.27.68,1.94,0,.15-.16.47,0,.44.33a11.58,11.58,0,0,0,.19,2.56c0,.19.17.56-.21.57s-.33-.23-.42-.49A3,3,0,0,0,56.32,86a1.57,1.57,0,0,0-1.82.69,1.43,1.43,0,0,0,.28,1.77,11,11,0,0,0,2.73,1.9,5.87,5.87,0,0,1,1.79,1.58,3,3,0,0,1-2.25,4.54,4.64,4.64,0,0,1-2.33-.2c-.51-.2-1-.63-1.49.14-.15.24-.47-.07-.47-.18C52.76,95.13,52.25,94.05,52.61,92.78Z"/><path class="cls-1" d="M68.56,85.52h3.71c-1.49.31-1.49,1.38-1.45,2.53,0,1.49,0,3,0,4.48a3.64,3.64,0,0,1-4,4,5.27,5.27,0,0,1-2.5-.4,3.12,3.12,0,0,1-1.87-2.93q0-2.76,0-5.52c0-1-.13-1.84-1.4-1.86-.06,0-.11-.15-.2-.28h4.69c0,.42-.22.33-.41.35a1,1,0,0,0-1,1.13c0,2.09,0,4.17,0,6.26A2.44,2.44,0,0,0,67,95.66c1.73-.09,2.93-1,3-2.58,0-2,0-3.89,0-5.84C70,86.25,69.39,85.85,68.56,85.52Z"/><path class="cls-1" d="M40.72,85.47c1.51-.46,1.73-.31,2.51.8,2,2.83,4,5.61,6.07,8.4,0,0,.11,0,.25.07,0-2.89,0-5.75,0-8.62,0-.84-.9-.21-.95-.84H51c-1.39.44-1,1.63-1,2.53-.07,2.8,0,5.6,0,8.4l-.3.16L42.22,86.09v7.42a4.74,4.74,0,0,1,0,1.25c-.19.66,0,.95.67,1,.15,0,.21.16.19.46H41.15c-.18,0-.37,0-.38-.24a.33.33,0,0,1,.34-.31c.68.13.51-.34.51-.68,0-2.78,0-5.56,0-8.34C41.63,86.09,41.75,85.43,40.72,85.47Z"/><path class="cls-1" d="M38.9,87a.7.7,0,0,1-.84-.27c-2.4-2.42-7.67-1.47-8.57,2.3s1.12,6.81,4.87,6.8a10.16,10.16,0,0,0,3.11-.43.78.78,0,0,0,.63-.89,30.19,30.19,0,0,1,0-3.43c0-.81-.1-1.28-1-1.11a.35.35,0,0,1-.46-.26,4.15,4.15,0,0,1,1.85-.13c.39,0,.25.36.25.57,0,1.56,0,3.12,0,4.68,0,.33,0,.63-.37.77-2.48,1-5,1.36-7.38-.14a5.82,5.82,0,0,1,4-10.57c.92.06,1.77.39,2.73.38C38.3,85.29,38.47,86.41,38.9,87Z"/><path class="cls-1" d="M6.34,96.19H3.9c1.13-.43.8-1.37.8-2.15,0-2.47,0-4.94,0-7.41,0-.63,0-1.17-.83-1.06,0-.14,0-.27,0-.27a27.28,27.28,0,0,1,5.19,0,3.19,3.19,0,0,1,.43,6.28,4.43,4.43,0,0,0-.66.25c1.46.46,1.9,1.71,2.24,2.93.22.8.49,1.25,1.36,1.13.17,0,.36,0,.35.23s-.17.16-.3.19a1.42,1.42,0,0,1-2-1.13A12.14,12.14,0,0,0,10,93.61,3.7,3.7,0,0,0,5.74,91.9a.57.57,0,0,0-.41.64c0,.52,0,1,0,1.56,0,.81-.36,1.84,1.33,1.76Zm.74-10.56c-.4,0-.71,0-1,0-.54,0-.75.18-.74.72,0,1.5,0,3,0,4.48,0,.35,0,.63.49.64A9.85,9.85,0,0,0,9.75,91a2.9,2.9,0,0,0,1.53-2.69,2.34,2.34,0,0,0-1.57-2.29A6.62,6.62,0,0,0,7.08,85.63Z"/><path class="cls-1" d="M55.56,64.56c.92-2.11,1.76-4.05,2.61-6,.08-.17.18-.4.33-.45s.36.15.45.34c.87,1.88,1.72,3.78,2.6,5.66.23.51-.15.42-.4.42Z"/><path class="cls-1" d="M13.69,95.88c1.05.12,1.05-.54,1-1.3,0-2.47,0-4.94,0-7.41,0-1.3,0-1.3-1.18-2H16.9c1.32,0,2.64,0,4,0,.24,0,.58-.18.73.18s.89.85.52,1.17-.6-.38-.82-.7a.65.65,0,0,0-.63-.24c-1.57,0-3.13,0-4.69,0-.52,0-.7.16-.63.65a4.51,4.51,0,0,1,0,.52c0,.83-.28,2,.14,2.41s1.7.1,2.59.19c.13-.21,0-.31-.13-.42s-.31-.44,0-.6.29.17.4.33c.41.58.84,1.15,1.28,1.71.18.23.09.38-.09.52s-.32-.05-.36-.16c-.42-1-1.16-.89-2-.8-1.77.18-1.78.12-1.78,1.86,0,1,0,2.09,0,3.13,0,.53.12.72.68.71,1.88,0,3.75-.06,5.63,0,.67,0,.69-.57,1-.83.13-.09.19-.3.41-.11s.06.25,0,.4a1.86,1.86,0,0,1-1.89,1.17c-2.15-.11-4.31,0-6.46,0C14.36,96.26,13.94,96.41,13.69,95.88Z"/><path class="cls-1" d="M28.07,78.56c-.63,1.24-1.14,2.17-1.58,3.14-.28.62-.49.43-.71,0a26.82,26.82,0,0,0-1.68-3c0,.59,0,1.18,0,1.77A4.75,4.75,0,0,1,24,82.1l-.31,0V77.81c0-.2.06-.31.29-.32a.69.69,0,0,1,.76.39c.4.82.83,1.62,1.22,2.45.11.22.18.48.45.48s.12-.34.23-.49A14.6,14.6,0,0,0,28,77.83a.54.54,0,0,1,.64-.33c.41,0,.26.34.26.55,0,1.18,0,2.35,0,3.53,0,.33,0,.7-.43.67s-.41-.39-.4-.71Z"/><path class="cls-1" d="M71,79.82v-.31c0-2.23,0-2.21,2.24-2a1.42,1.42,0,0,1,1.26,1,.94.94,0,0,1-.62,1.23c-.54.22-.27.53-.12.78.25.4.58.76.87,1.15.12.16.46.28.12.54a.45.45,0,0,1-.65,0c-.49-.57-1-1.15-1.42-1.74-.15-.19-.22-.48-.51-.37s-.11.36-.12.55,0,.62,0,.93,0,.73-.49.75-.54-.31-.54-.69c0-.59,0-1.18,0-1.77Zm1-1c.23.28-.33,1,.39.92.53,0,1.14-.25,1.1-1,0-.57-.37-.81-.94-.84C71.74,77.85,72.22,78.5,72.05,78.83Z"/><path class="cls-1" d="M77.5,79.89a3.2,3.2,0,0,1,0-.62c.11-.58-.36-1.49.32-1.68a3.42,3.42,0,0,1,2.79.21c.57.37.89,1,.34,1.52s-.13.52.08.78c.65.82.49,1.56-.44,1.91a9,9,0,0,1-2.64.18c-.44,0-.48-.37-.46-.75S77.5,80.41,77.5,79.89Zm.84.74c0,.64-.21,1.33.79,1.25.66,0,1.38-.21,1.43-.85s-.49-1.14-1.3-1C78.79,80.05,78.12,79.8,78.34,80.63Zm.84-1.07a.83.83,0,0,0,1.17-.85c0-.59-.45-.83-1.12-.83s-.94.13-.92.88S78.48,79.73,79.18,79.56Z"/><path class="cls-1" d="M62.56,82.29A2.49,2.49,0,0,1,60,79.78a2.62,2.62,0,0,1,5.24.08A2.46,2.46,0,0,1,62.56,82.29Zm1.59-2.58a1.65,1.65,0,0,0-.78-1.79,1.39,1.39,0,0,0-1.53,0c-1.07.65-1.12,3.35,0,3.92a1.23,1.23,0,0,0,1.23.09A2,2,0,0,0,64.15,79.71Z"/><path class="cls-1" d="M41.08,82.4c-.59-1.53-1.11-2.87-1.64-4.21-.1-.25-.27-.54.09-.68s.52.09.64.38c.37,1,.76,1.92,1.16,2.92a9.48,9.48,0,0,0,.93-2.24c.08-.19.16-.42.38-.43s.18.29.25.46c.28.72.57,1.44.93,2.3l1.49-3.47.3.13c-.41,1-.79,2.13-1.26,3.16-.21.45-.13,1.33-.68,1.29s-.52-.93-.77-1.43c-.17-.33-.2-.71-.53-1A13.89,13.89,0,0,1,41.08,82.4Z"/><path class="cls-1" d="M38.91,79.78a2.32,2.32,0,0,1-2.45,2.51,2.41,2.41,0,0,1-2.64-2.47,2.68,2.68,0,0,1,2.62-2.52A2.6,2.6,0,0,1,38.91,79.78Zm-4.17-.22a5.12,5.12,0,0,0,0,.73c.12.88.87,1.76,1.53,1.79.87,0,1.41-.55,1.6-1.74,0-.13.12-.26.11-.39a2.26,2.26,0,0,0-1-2.12,1.4,1.4,0,0,0-1.45.08A2,2,0,0,0,34.74,79.56Z"/><path class="cls-1" d="M27.07,96.07a5.14,5.14,0,0,1-2.64,0c1.14-.26.93-1.09.93-1.84,0-2.32,0-4.65,0-7,0-.76.37-1.71-.94-2A9.09,9.09,0,0,1,27,85.27l0,.24c-1,0-1,.57-1,1.38.06,2.29,0,4.58,0,6.87C26,94.66,25.63,95.74,27.07,96.07Z"/><path class="cls-1" d="M50.35,80.21c0-.34,0-.68,0-1,0-.54-.37-1.3.1-1.57a3.22,3.22,0,0,1,2.13-.07,1.34,1.34,0,0,1,1.05,1A1,1,0,0,1,53,79.72c-.55.25-.33.49-.11.77s.55.7.81,1.05c.12.16.46.26.19.55s-.55.2-.77-.09c-.39-.52-.76-1-1.17-1.55-.16-.2-.3-.54-.64-.41s-.31.41-.3.7,0,.7,0,1.05c0,.18.09.47-.23.45a.4.4,0,0,1-.43-.47c0-.52,0-1,0-1.56ZM51,78.94c.11.19-.29.89.48.82.57-.05,1.17-.29,1.15-1,0-.58-.39-.77-1-.82C51,77.82,51,78.27,51,78.94Z"/><path class="cls-1" d="M31,80c0,.65,0,1.17,0,1.69,0,.28-.12.58-.47.55s-.35-.28-.35-.55c0-1.28,0-2.56,0-3.84,0-.24.07-.4.35-.39a5.7,5.7,0,0,1,1.55,0c.55.18,1.24.27,1.28,1.21s-.5,1.18-1.18,1.4A1.45,1.45,0,0,1,31,80Zm0-1.22c.17.34-.35,1,.57,1,.58,0,.92-.3.9-.86a.92.92,0,0,0-1-1C30.66,77.91,31.09,78.48,31,78.81Z"/><path class="cls-1" d="M70.09,77.59c.16,1.38.44,2.82-.34,4.09-.56.88-1.67.72-2.55.55A1.46,1.46,0,0,1,66,80.74c0-.9,0-1.81,0-2.71,0-.27,0-.53.39-.55s.45.3.45.61c0,.76,0,1.52,0,2.29a1.44,1.44,0,1,0,2.87.08c.05-1,0-1.93,0-2.9Z"/><path class="cls-1" d="M107,82.29a1.62,1.62,0,0,1-1.42-.6.41.41,0,0,1-.06-.56c.22-.23.4,0,.47.18a.83.83,0,0,0,.68.53c.44,0,1,.28,1.26-.34s-.17-.85-.66-1.11a5.38,5.38,0,0,1-1.37-.87,1.06,1.06,0,0,1-.34-1.37,1.42,1.42,0,0,1,1.5-.78c.45.11,1.08,0,1.31.63.06.16.37.33.08.5s-.42.13-.49-.17-.49-.49-.77-.59a.89.89,0,0,0-1,.48c-.21.38.09.63.41.8l1.24.7c.56.33,1.14.7.93,1.49A1.49,1.49,0,0,1,107,82.29Z"/><path class="cls-1" d="M87,81c.42.54.77,1.12,1.57.94.31-.07.55,0,.69-.43a.67.67,0,0,0-.31-.83A4.34,4.34,0,0,0,88,80a1.46,1.46,0,0,1-1.07-1.64c.07-.7.58-.88,1.16-.91s1.42-.12,1.77.71a2.54,2.54,0,0,0,.16.28c-.4.21-.58,0-.82-.31a.86.86,0,0,0-1-.31c-.27.13-.62.2-.59.6s.38.61.71.8a5.71,5.71,0,0,1,1.44,1,1.15,1.15,0,0,1-.25,1.9,1.92,1.92,0,0,1-2,0C87.15,81.9,86.66,81.62,87,81Z"/><path class="cls-1" d="M101.75,81c.63.21.74,1.13,1.56.9.35-.1.78.06.89-.47a.85.85,0,0,0-.49-.94c-.37-.23-.8-.35-1.16-.59-.87-.58-1.09-1.37-.61-2a1.93,1.93,0,0,1,2.37-.19c.22.19.68.45.47.7s-.49-.09-.73-.31-.63-.59-1.08-.31c-.25.15-.64.17-.63.58s.4.66.77.86a6.56,6.56,0,0,1,1.59,1.1.83.83,0,0,1,.13,1.17,1.74,1.74,0,0,1-2.15.73C102.18,82.13,101.58,81.83,101.75,81Z"/><path class="cls-1" d="M93.42,78.66a20.07,20.07,0,0,1-.26,3.42,6.12,6.12,0,0,1-.2-2.55c0-.66-.33-1.73.15-1.92.67-.26,1,.85,1.5,1.27a8.75,8.75,0,0,1,1,1.16c.2.22.38.63.69.54s.15-.54.17-.82a11.15,11.15,0,0,1,.18-2.15v4.78Z"/><path class="cls-1" d="M22.9,77.81a4.82,4.82,0,0,1-1.88.08c-.69,0-.67.29-.67.81s.14.89.75.74c.34-.09.59,0,1.12.27a6.2,6.2,0,0,1-1,.07c-.67-.09-.88.15-.91.85-.05.94.13,1.44,1.21,1.25a7.86,7.86,0,0,1,1.29,0c-.4.74-1,.24-1.41.27s-1.4.19-1.74-.12-.14-1.24-.15-1.89c0-2.73,0-2.73,2.78-2.63C22.49,77.5,22.72,77.41,22.9,77.81Z"/><path class="cls-1" d="M86.06,77.56c0,1.1,0,2.14,0,3.18a1.56,1.56,0,0,1-1.67,1.55c-1.37,0-2.23-.48-2.29-1.48s0-1.88,0-2.82c0-.31,0-.51.44-.51s.4.27.4.55v2.5a1.19,1.19,0,0,0,1.12,1.34c.84.1,1.46-.1,1.61-1.11a4.52,4.52,0,0,0,0-2.5A.5.5,0,0,1,86.06,77.56Z"/><path class="cls-1" d="M49.33,77.68c-.43.33-.88.2-1.32.23s-1-.19-1,.71.2,1.08,1,.94a.62.62,0,0,1,.59.12c-1.6.27-1.72.29-1.51,1.56.24,1.42,1.51.16,2.08.71-.27.2-.27.2-1.43.16-1.52,0-1.52,0-1.52-1.59,0-.31,0-.63,0-.94.06-.68-.31-1.77.15-2A5.16,5.16,0,0,1,49.33,77.68Z"/><path class="cls-1" d="M100.35,79.71a1.82,1.82,0,0,1-.29.08c-1.25,0-1.55.48-1.29,1.75.07.36.27.33.51.33h2.07c-.61.67-1.16.2-1.65.24s-1.25.25-1.55,0c-.5-.44-.12-1.24-.2-1.87a2,2,0,0,1,0-.42c0-.75-.31-2,.14-2.15a7,7,0,0,1,3,0c-.48.44-1.08.27-1.6.24-.68,0-.73.28-.7.8s-.09,1,.73.87a3.69,3.69,0,0,1,.81,0Z"/><path class="cls-1" d="M59.74,77.54c0,.49-.34.78-.58,1.13-.62.92-1.31,1.83-1.06,3.07,0,.22,0,.53-.31.54a.45.45,0,0,1-.51-.52c.24-1.44-.63-2.42-1.37-3.48-.11-.16-.59-.49-.16-.75a.52.52,0,0,1,.79.37c0,.14.24.24.36.37.37.41.45,1.28,1,1.24s.6-.91,1-1.3C59.2,78,59.14,77.42,59.74,77.54Z"/><path class="cls-1" d="M91.69,82.27c-.53-.08-.87-.16-.85-.75,0-1.1,0-2.21,0-3.32,0-.39.07-.71.54-.7s.29.4.29.62C91.7,79.47,91.69,80.82,91.69,82.27Z"/><path class="cls-1" d="M76.05,114.42a2.11,2.11,0,0,1-.19.23,1.24,1.24,0,0,1-.22.18,1.12,1.12,0,0,1-.25.11.84.84,0,0,1-.27,0,.87.87,0,0,1-.37-.09,1.62,1.62,0,0,1-.41-.26,2,2,0,0,1-.51.26,1.59,1.59,0,0,1-.53.08,1.74,1.74,0,0,1-.53-.07,1.45,1.45,0,0,1-.39-.21,1,1,0,0,1-.25-.32,1,1,0,0,1-.08-.39,1.06,1.06,0,0,1,.06-.37.92.92,0,0,1,.17-.29,1.16,1.16,0,0,1,.26-.23,2.89,2.89,0,0,1,.35-.19,2.09,2.09,0,0,1-.2-.44,1.15,1.15,0,0,1-.07-.39,1,1,0,0,1,.06-.36.88.88,0,0,1,.19-.27.75.75,0,0,1,.3-.18,1.13,1.13,0,0,1,.39-.07,1.15,1.15,0,0,1,.37.06.85.85,0,0,1,.3.15.59.59,0,0,1,.2.24.67.67,0,0,1,.08.33.84.84,0,0,1-.24.58,2.07,2.07,0,0,1-.67.46l.17.23.21.25.21.25.19.21a2.92,2.92,0,0,0,.29-.47,3.11,3.11,0,0,0,.21-.61l.47.17a2.9,2.9,0,0,1-.26.7,2.54,2.54,0,0,1-.38.55,1.33,1.33,0,0,0,.23.17.49.49,0,0,0,.19.05.57.57,0,0,0,.18,0l.16-.08.15-.13a.76.76,0,0,0,.11-.14Zm-3.41-.51a.59.59,0,0,0,0,.23.59.59,0,0,0,.13.19.66.66,0,0,0,.22.12.75.75,0,0,0,.31,0,1.16,1.16,0,0,0,.64-.19l-.23-.25-.25-.28c-.15-.19-.29-.37-.41-.54a1.12,1.12,0,0,0-.34.3A.61.61,0,0,0,72.64,113.91Zm1-2.24a.42.42,0,0,0-.3.11.45.45,0,0,0-.11.31,1.27,1.27,0,0,0,.21.59,1.37,1.37,0,0,0,.45-.32A.5.5,0,0,0,74,112a.68.68,0,0,0,0-.15.31.31,0,0,0-.09-.11.47.47,0,0,0-.12-.07Z"/><path class="cls-1" d="M79.74,113a1.17,1.17,0,0,1,.33.11,1.18,1.18,0,0,1,.25.19.9.9,0,0,1,.17.26,1,1,0,0,1-.31,1.09,1.87,1.87,0,0,1-1.08.26H77.83v-3.67h1.24a1.61,1.61,0,0,1,1,.25.81.81,0,0,1,.34.71,1.26,1.26,0,0,1,0,.28,1,1,0,0,1-.13.23.91.91,0,0,1-.21.18A.81.81,0,0,1,79.74,113Zm-1.32-.24h.71a.85.85,0,0,0,.29,0,.54.54,0,0,0,.2-.1.61.61,0,0,0,.12-.16.66.66,0,0,0,0-.21.58.58,0,0,0,0-.19.61.61,0,0,0-.12-.16.75.75,0,0,0-.2-.1,1.39,1.39,0,0,0-.3,0h-.7Zm.76,1.62a1.13,1.13,0,0,0,.34,0,.46.46,0,0,0,.22-.11.43.43,0,0,0,.13-.17.78.78,0,0,0,0-.22.54.54,0,0,0,0-.22.46.46,0,0,0-.13-.18,1,1,0,0,0-.23-.11,1.59,1.59,0,0,0-.34,0h-.74v1.09Z"/><path class="cls-1" d="M83.35,112.34v2.58H83l-.14-.49a2.28,2.28,0,0,1-.22.22,1.46,1.46,0,0,1-.24.17,1.39,1.39,0,0,1-.28.12,1.65,1.65,0,0,1-.32,0,1,1,0,0,1-.36-.07.65.65,0,0,1-.24-.19.71.71,0,0,1-.14-.29,1.36,1.36,0,0,1,0-.36v-1.73h.59V114a.52.52,0,0,0,.12.36.42.42,0,0,0,.33.14.65.65,0,0,0,.36-.1,1.17,1.17,0,0,0,.35-.3v-1.72Z"/><path class="cls-1" d="M84.87,115l-.27,0-.26,0a1.84,1.84,0,0,1-.25-.09l-.23-.1.17-.42.22.08.23.07.21,0,.17,0a.41.41,0,0,0,.3-.09.22.22,0,0,0,.1-.19.33.33,0,0,0-.11-.23,1.63,1.63,0,0,0-.36-.19l-.17-.07a1.82,1.82,0,0,1-.28-.13,1,1,0,0,1-.22-.18.74.74,0,0,1-.13-.21.66.66,0,0,1,0-.25.69.69,0,0,1,.07-.29.7.7,0,0,1,.2-.22,1,1,0,0,1,.3-.14,1.23,1.23,0,0,1,.39,0,2,2,0,0,1,.43,0l.4.13-.14.46-.17-.07-.19,0-.18,0H84.9a.45.45,0,0,0-.27.07.21.21,0,0,0-.1.17.29.29,0,0,0,.08.18.66.66,0,0,0,.27.17l.18.07.31.14a1.21,1.21,0,0,1,.25.17.76.76,0,0,1,.17.23.67.67,0,0,1,.06.3.82.82,0,0,1-.07.31.66.66,0,0,1-.21.23.9.9,0,0,1-.31.15A1.6,1.6,0,0,1,84.87,115Z"/><path class="cls-1" d="M86.67,111.83a.32.32,0,0,1-.14,0,.41.41,0,0,1-.11-.07.25.25,0,0,1-.08-.1.3.3,0,0,1,0-.26.2.2,0,0,1,.08-.1.26.26,0,0,1,.11-.07.32.32,0,0,1,.14,0,.4.4,0,0,1,.15,0,.26.26,0,0,1,.11.07.2.2,0,0,1,.08.1.3.3,0,0,1,0,.26.25.25,0,0,1-.08.1.41.41,0,0,1-.11.07A.4.4,0,0,1,86.67,111.83Zm-.29.51H87v2.58h-.59Z"/><path class="cls-1" d="M89.27,112.28a.82.82,0,0,1,.37.07.6.6,0,0,1,.25.19.7.7,0,0,1,.13.29,1.23,1.23,0,0,1,0,.35v1.74h-.59V113.3a.52.52,0,0,0-.12-.38.45.45,0,0,0-.33-.13.75.75,0,0,0-.36.1,1.81,1.81,0,0,0-.35.3v1.73h-.59v-2.58h.35l.14.48.22-.22a1.38,1.38,0,0,1,.25-.17.81.81,0,0,1,.27-.11A1,1,0,0,1,89.27,112.28Z"/><path class="cls-1" d="M91.89,112.28a1.28,1.28,0,0,1,.48.09,1.09,1.09,0,0,1,.36.28,1.35,1.35,0,0,1,.22.45,2.8,2.8,0,0,1,.06.61H91.16a1.14,1.14,0,0,0,.07.34.6.6,0,0,0,.16.24.63.63,0,0,0,.23.16,1,1,0,0,0,.31,0,.88.88,0,0,0,.43-.1,1.48,1.48,0,0,0,.35-.25l.24.33-.2.2a1.4,1.4,0,0,1-.24.15,1.25,1.25,0,0,1-.29.11,1.55,1.55,0,0,1-.87,0,1.07,1.07,0,0,1-.4-.26,1.15,1.15,0,0,1-.26-.41,1.65,1.65,0,0,1,0-1.13,1.36,1.36,0,0,1,.27-.43,1.2,1.2,0,0,1,.41-.28A1.27,1.27,0,0,1,91.89,112.28Zm.58,1a.83.83,0,0,0-.06-.25.4.4,0,0,0-.12-.16.51.51,0,0,0-.18-.09l-.21,0a.68.68,0,0,0-.42.13.69.69,0,0,0-.27.39Z"/><path class="cls-1" d="M94.33,115l-.27,0-.26,0a1.84,1.84,0,0,1-.25-.09l-.23-.1.17-.42.22.08.23.07.21,0,.17,0a.41.41,0,0,0,.3-.09.22.22,0,0,0,.1-.19.33.33,0,0,0-.11-.23,1.91,1.91,0,0,0-.36-.19l-.17-.07a1.82,1.82,0,0,1-.28-.13.79.79,0,0,1-.22-.18.74.74,0,0,1-.13-.21.66.66,0,0,1,0-.25.57.57,0,0,1,.07-.29.6.6,0,0,1,.2-.22.83.83,0,0,1,.3-.14,1.23,1.23,0,0,1,.39,0,2,2,0,0,1,.43,0l.4.13-.14.46-.18-.07-.18,0-.18,0h-.15a.45.45,0,0,0-.27.07.21.21,0,0,0-.1.17.29.29,0,0,0,.08.18.66.66,0,0,0,.27.17l.18.07.31.14a1.21,1.21,0,0,1,.25.17.76.76,0,0,1,.17.23.67.67,0,0,1,.06.3.68.68,0,0,1-.08.31.55.55,0,0,1-.2.23,1,1,0,0,1-.31.15A1.6,1.6,0,0,1,94.33,115Z"/><path class="cls-1" d="M96.59,115l-.26,0-.27,0a2.5,2.5,0,0,1-.25-.09l-.22-.1.16-.42.23.08.23.07.21,0,.17,0a.45.45,0,0,0,.3-.09.24.24,0,0,0,.1-.19.31.31,0,0,0-.12-.23,1.42,1.42,0,0,0-.36-.19l-.16-.07-.29-.13a.91.91,0,0,1-.21-.18.57.57,0,0,1-.13-.21.51.51,0,0,1,0-.25.57.57,0,0,1,.07-.29.53.53,0,0,1,.2-.22.83.83,0,0,1,.3-.14,1.23,1.23,0,0,1,.39,0,2,2,0,0,1,.43,0l.4.13-.14.46-.18-.07-.19,0-.17,0h-.16a.4.4,0,0,0-.26.07.19.19,0,0,0-.1.17.24.24,0,0,0,.08.18.66.66,0,0,0,.27.17l.17.07a2.37,2.37,0,0,1,.32.14,1.56,1.56,0,0,1,.25.17.73.73,0,0,1,.16.23.75.75,0,0,1,0,.61.63.63,0,0,1-.2.23,1,1,0,0,1-.31.15A1.62,1.62,0,0,1,96.59,115Z"/><path class="cls-1" d="M101.46,114H100l-.34.93H99l1.39-3.67h.6l1.4,3.67h-.63Zm-.17-.47-.56-1.57-.57,1.57Z"/><path class="cls-1" d="M103.84,115a1.46,1.46,0,0,1-.52-.09,1.25,1.25,0,0,1-.41-.26,1.09,1.09,0,0,1-.27-.42,1.35,1.35,0,0,1-.1-.55,1.42,1.42,0,0,1,.1-.55,1.33,1.33,0,0,1,.28-.44,1.21,1.21,0,0,1,.44-.29,1.47,1.47,0,0,1,.56-.1,1.42,1.42,0,0,1,.42,0,2.26,2.26,0,0,1,.39.15l-.16.45a.85.85,0,0,0-.31-.13,1.25,1.25,0,0,0-.32,0,1,1,0,0,0-.35.07.64.64,0,0,0-.25.18.85.85,0,0,0-.16.28,1.06,1.06,0,0,0-.06.37,1,1,0,0,0,.06.33.72.72,0,0,0,.15.27.64.64,0,0,0,.25.18.74.74,0,0,0,.34.07.9.9,0,0,0,.37-.07,1.94,1.94,0,0,0,.33-.2l.23.34-.2.16a1.36,1.36,0,0,1-.24.13,1.07,1.07,0,0,1-.27.09A1.53,1.53,0,0,1,103.84,115Z"/><path class="cls-1" d="M106.45,115a1.46,1.46,0,0,1-.52-.09,1.15,1.15,0,0,1-.41-.26,1.24,1.24,0,0,1-.28-.42,1.55,1.55,0,0,1-.09-.55,1.42,1.42,0,0,1,.1-.55,1.18,1.18,0,0,1,.28-.44,1.21,1.21,0,0,1,.44-.29,1.47,1.47,0,0,1,.56-.1,1.42,1.42,0,0,1,.42,0,2.26,2.26,0,0,1,.39.15l-.16.45a.93.93,0,0,0-.31-.13,1.25,1.25,0,0,0-.32,0,1,1,0,0,0-.35.07.58.58,0,0,0-.25.18.71.71,0,0,0-.16.28,1.06,1.06,0,0,0-.06.37,1.26,1.26,0,0,0,0,.33.92.92,0,0,0,.16.27.64.64,0,0,0,.25.18.74.74,0,0,0,.34.07.9.9,0,0,0,.37-.07,1.94,1.94,0,0,0,.33-.2l.23.34-.2.16a1.36,1.36,0,0,1-.24.13,1.43,1.43,0,0,1-.27.09A1.53,1.53,0,0,1,106.45,115Z"/><path class="cls-1" d="M109.06,115a1.27,1.27,0,0,1-.52-.1,1.2,1.2,0,0,1-.41-.28,1.28,1.28,0,0,1-.28-.43,1.66,1.66,0,0,1,0-1.08,1.28,1.28,0,0,1,.28-.43,1.2,1.2,0,0,1,.41-.28,1.4,1.4,0,0,1,1,0,1.42,1.42,0,0,1,.41.28,1.12,1.12,0,0,1,.27.43,1.51,1.51,0,0,1,0,1.08,1.12,1.12,0,0,1-.27.43,1.42,1.42,0,0,1-.41.28A1.27,1.27,0,0,1,109.06,115Zm0-.48a.73.73,0,0,0,.3-.06.63.63,0,0,0,.22-.18,1.17,1.17,0,0,0,.15-.27,1.36,1.36,0,0,0,0-.36,1,1,0,0,0-.06-.36.82.82,0,0,0-.14-.28.72.72,0,0,0-.22-.17.78.78,0,0,0-.6,0,.72.72,0,0,0-.22.17.84.84,0,0,0-.15.28,1.3,1.3,0,0,0,0,.36,1,1,0,0,0,.06.36.87.87,0,0,0,.14.27.63.63,0,0,0,.22.18A.73.73,0,0,0,109.06,114.5Z"/><path class="cls-1" d="M113.23,112.34v2.58h-.36l-.13-.49a2.28,2.28,0,0,1-.22.22l-.24.17a1.39,1.39,0,0,1-.28.12,1.65,1.65,0,0,1-.32,0,1,1,0,0,1-.36-.07.65.65,0,0,1-.24-.19.71.71,0,0,1-.14-.29,1.36,1.36,0,0,1,0-.36v-1.73h.59V114a.52.52,0,0,0,.12.36.39.39,0,0,0,.33.14.65.65,0,0,0,.36-.1,1.3,1.3,0,0,0,.35-.3v-1.72Z"/><path class="cls-1" d="M115.53,112.28a.84.84,0,0,1,.37.07.57.57,0,0,1,.24.19.71.71,0,0,1,.14.29,1.25,1.25,0,0,1,0,.35v1.74h-.59V113.3a.52.52,0,0,0-.12-.38.41.41,0,0,0-.32-.13.75.75,0,0,0-.36.1,1.56,1.56,0,0,0-.35.3v1.73H114v-2.58h.35l.14.48a2.28,2.28,0,0,1,.22-.22,1.77,1.77,0,0,1,.24-.17,1,1,0,0,1,.27-.11A1.08,1.08,0,0,1,115.53,112.28Z"/><path class="cls-1" d="M117.79,115a.69.69,0,0,1-.34-.07.44.44,0,0,1-.22-.18.71.71,0,0,1-.11-.28,1.83,1.83,0,0,1,0-.35v-1.38h-.33v-.27l.42-.11.1-.53h.4v.53h.75v.38h-.75v1.35a.57.57,0,0,0,.07.34.3.3,0,0,0,.23.09.64.64,0,0,0,.24,0,1.79,1.79,0,0,0,.24-.12l.18.33-.19.11-.2.1L118,115A1,1,0,0,1,117.79,115Z"/><path class="cls-1" d="M119.36,111.83a.35.35,0,0,1-.14,0,.41.41,0,0,1-.11-.07.39.39,0,0,1-.08-.1.3.3,0,0,1,0-.26.27.27,0,0,1,.08-.1.26.26,0,0,1,.11-.07.35.35,0,0,1,.14,0,.37.37,0,0,1,.15,0,.26.26,0,0,1,.11.07.2.2,0,0,1,.08.1.3.3,0,0,1,0,.26.25.25,0,0,1-.08.1.41.41,0,0,1-.11.07A.37.37,0,0,1,119.36,111.83Zm-.29.51h.59v2.58h-.59Z"/><path class="cls-1" d="M122,112.28a.82.82,0,0,1,.37.07.6.6,0,0,1,.25.19.7.7,0,0,1,.13.29,1.23,1.23,0,0,1,.05.35v1.74h-.59V113.3a.52.52,0,0,0-.12-.38.45.45,0,0,0-.33-.13.81.81,0,0,0-.36.1,1.81,1.81,0,0,0-.35.3v1.73h-.59v-2.58h.36l.13.48.22-.22a1.38,1.38,0,0,1,.25-.17.81.81,0,0,1,.27-.11A1,1,0,0,1,122,112.28Z"/><path class="cls-1" d="M124.8,114.4a1.75,1.75,0,0,1,.48.06.93.93,0,0,1,.35.15.79.79,0,0,1,.21.24.67.67,0,0,1,.07.31.7.7,0,0,1-.1.38.72.72,0,0,1-.27.28,1.3,1.3,0,0,1-.43.18,2.49,2.49,0,0,1-.57.06,3,3,0,0,1-.55,0,1.4,1.4,0,0,1-.41-.16.78.78,0,0,1-.26-.25.54.54,0,0,1-.09-.31.44.44,0,0,1,.1-.3.79.79,0,0,1,.27-.2.81.81,0,0,1-.16-.16.37.37,0,0,1-.06-.21.47.47,0,0,1,0-.17,1.09,1.09,0,0,1,.08-.15l.12-.13.14-.11a.74.74,0,0,1-.27-.31.82.82,0,0,1-.1-.42,1,1,0,0,1,.08-.37.71.71,0,0,1,.21-.28.94.94,0,0,1,.34-.19,1.64,1.64,0,0,1,.46-.07,2,2,0,0,1,.37,0,1.34,1.34,0,0,1,.3.12l.57-.38.22.33-.49.33a.94.94,0,0,1,.1.23,1,1,0,0,1,0,.25.87.87,0,0,1-.07.37.89.89,0,0,1-.22.29.94.94,0,0,1-.34.19,1.64,1.64,0,0,1-.46.07l-.21,0-.19,0a.68.68,0,0,0-.12.12.17.17,0,0,0,0,.11.13.13,0,0,0,0,.06.12.12,0,0,0,0,0,.19.19,0,0,0,.09,0h.73Zm-.25,1.19a1.2,1.2,0,0,0,.58-.1.32.32,0,0,0,.19-.29.24.24,0,0,0-.14-.22.88.88,0,0,0-.39-.07H124a.86.86,0,0,0-.17.15.25.25,0,0,0-.06.16.32.32,0,0,0,.17.27,1.1,1.1,0,0,0,.54.1Zm-.08-2.91a.53.53,0,0,0-.37.12.42.42,0,0,0-.14.35.43.43,0,0,0,.14.34.54.54,0,0,0,.38.12.51.51,0,0,0,.37-.12.43.43,0,0,0,.14-.34.42.42,0,0,0-.14-.35A.54.54,0,0,0,124.47,112.68Z"/><path class="cls-1" d="M8.83,103.52v.28H6.46v2.31H8.53v.3H6.46v2.85H4.88v-5.74Z"/><path class="cls-1" d="M11,103.5v5.76H9.53V103.5Z"/><path class="cls-1" d="M16.49,107.28v-3.76h.36v5.74h-.67L12.75,105v4.23H12.4v-5.74h1Z"/><path class="cls-1" d="M20.55,103.51l1.85,5.75H20.82l-.42-1.33h-2l-.45,1.33h-.39l1.95-5.75Zm-2.06,4.12H20.3l-.87-2.78Z"/><path class="cls-1" d="M27.22,107.28v-3.76h.36v5.74h-.67L23.48,105v4.23h-.35v-5.74h1Z"/><path class="cls-1" d="M32.83,105.32c0-.14,0-.28,0-.43a1.1,1.1,0,0,0-.69-1.1,2,2,0,0,0-.68-.13.9.9,0,0,0-.51.15,1.05,1.05,0,0,0-.48.77,6.88,6.88,0,0,0-.18,1.62c0,.27,0,.54,0,.81a8.22,8.22,0,0,0,.06,1,1.16,1.16,0,0,0,.25.67,1.21,1.21,0,0,0,1,.39,2,2,0,0,0,1-.26,1.33,1.33,0,0,0,.51-1.17c0-.11,0-.23,0-.35l.45.13c0,.1,0,.21,0,.3a1.75,1.75,0,0,1-.81,1.32,3.15,3.15,0,0,1-1.49.3,3.23,3.23,0,0,1-1.14-.18,2.32,2.32,0,0,1-.64-.31,2.16,2.16,0,0,1-.69-1,3.53,3.53,0,0,1-.22-1.29,3.56,3.56,0,0,1,.5-2,2.51,2.51,0,0,1,.39-.5,2.11,2.11,0,0,1,.27-.25,3.72,3.72,0,0,1,.38-.22,2.61,2.61,0,0,1,1.21-.25,3,3,0,0,1,1.06.18,1.72,1.72,0,0,1,.38.21,1.39,1.39,0,0,1,.28.24,1.71,1.71,0,0,1,.36.8c0,.07,0,.16,0,.23Z"/><path class="cls-1" d="M38.42,103.52v.3H36v2.09h2v.3H36V109h2.8v.29H34.43v-5.74Z"/><path class="cls-1" d="M44.32,103.49a3.1,3.1,0,0,1,1.64.44,1.23,1.23,0,0,1,.52,1c0,1.21-1.31,1.23-1.56,1.26l.38.06c.86.21,1.53.7,1.53,1.49a1.24,1.24,0,0,1-.09.48,1.55,1.55,0,0,1-.88.82,3.74,3.74,0,0,1-1.62.22l-1.72,0h-.75v-5.77h2.55Zm-1,2.64a4,4,0,0,0,1.24-.12.71.71,0,0,0,.34-.44,1.74,1.74,0,0,0,.09-.64,1.48,1.48,0,0,0-.09-.6.79.79,0,0,0-.4-.52,2.3,2.3,0,0,0-.84-.07h-.34Zm0,2.9a8.68,8.68,0,0,0,.88,0,1.54,1.54,0,0,0,.58-.1,1.27,1.27,0,0,0,.46-1.17,2.58,2.58,0,0,0-.09-.71,1,1,0,0,0-.47-.59,1.86,1.86,0,0,0-.77-.12h-.59Z"/><path class="cls-1" d="M49.3,103.5c0,1,0,2,0,3,0,.48,0,1,0,1.44a1,1,0,0,0,.34.85,1.15,1.15,0,0,0,.73.22,2.16,2.16,0,0,0,1.22-.41,1.05,1.05,0,0,0,.39-.5,3.22,3.22,0,0,0,.11-1c0-.57,0-1.13,0-1.69v-1c0-.33,0-.65,0-1h.37c0,1,0,2.07,0,3.11s.07,1.58-.43,2.09a2.62,2.62,0,0,1-1.78.62,3.52,3.52,0,0,1-1.6-.37,2.07,2.07,0,0,1-.48-.36c-.44-.47-.39-.93-.39-1.9v-3.2Z"/><path class="cls-1" d="M57.15,105.23a2.22,2.22,0,0,0,.07-.45,1,1,0,0,0-.25-.66,1.39,1.39,0,0,0-.25-.21,2.16,2.16,0,0,0-1-.25,1.47,1.47,0,0,0-.82.23.82.82,0,0,0-.37.69.92.92,0,0,0,.1.44.57.57,0,0,0,.19.21,2.24,2.24,0,0,0,.92.38l.42.11a3.63,3.63,0,0,1,.91.3l.29.16a1.76,1.76,0,0,1,.33.27,1.78,1.78,0,0,1,.42,1.14c0,.1,0,.2,0,.3a1.34,1.34,0,0,1-.78,1.09,2.78,2.78,0,0,1-1.43.35,3.05,3.05,0,0,1-1.6-.4,1.54,1.54,0,0,1-.34-.29,1.28,1.28,0,0,1-.4-1l.64-.23a1.46,1.46,0,0,0-.1.53,1,1,0,0,0,.54.94,2.66,2.66,0,0,0,1.19.27,1.62,1.62,0,0,0,.81-.18,1,1,0,0,0,.2-.16.86.86,0,0,0,.22-.61.79.79,0,0,0-.41-.73,4.15,4.15,0,0,0-1.31-.45,4.84,4.84,0,0,1-.75-.27,1.57,1.57,0,0,1-1-1.49,1.61,1.61,0,0,1,.63-1.31,2.26,2.26,0,0,1,1.48-.46,2.32,2.32,0,0,1,1.44.44,1.31,1.31,0,0,1,.4.42,1.18,1.18,0,0,1,.24.65Z"/><path class="cls-1" d="M60.52,103.5v5.76H59V103.5Z"/><path class="cls-1" d="M66,107.28v-3.76h.36v5.74h-.67L62.25,105v4.23H61.9v-5.74h1Z"/><path class="cls-1" d="M71.73,103.52v.3H69.31v2.09h2v.3h-2V109h2.79v.29H67.75v-5.74Z"/><path class="cls-1" d="M76.16,105.23a2.22,2.22,0,0,0,.07-.45,1,1,0,0,0-.25-.66,1.39,1.39,0,0,0-.25-.21,2.16,2.16,0,0,0-1-.25,1.47,1.47,0,0,0-.82.23.82.82,0,0,0-.37.69.92.92,0,0,0,.1.44.57.57,0,0,0,.19.21,2.24,2.24,0,0,0,.92.38l.42.11a3.63,3.63,0,0,1,.91.3l.29.16a1.76,1.76,0,0,1,.33.27,1.78,1.78,0,0,1,.42,1.14c0,.1,0,.2,0,.3a1.34,1.34,0,0,1-.78,1.09,2.78,2.78,0,0,1-1.43.35,3.05,3.05,0,0,1-1.6-.4,1.82,1.82,0,0,1-.34-.29,1.28,1.28,0,0,1-.4-1l.64-.23a1.46,1.46,0,0,0-.1.53,1,1,0,0,0,.54.94,2.66,2.66,0,0,0,1.19.27,1.62,1.62,0,0,0,.81-.18,1,1,0,0,0,.2-.16.86.86,0,0,0,.22-.61.79.79,0,0,0-.41-.73,4.15,4.15,0,0,0-1.31-.45,4.84,4.84,0,0,1-.75-.27,1.57,1.57,0,0,1-1-1.49,1.61,1.61,0,0,1,.63-1.31,2.26,2.26,0,0,1,1.48-.46,2.32,2.32,0,0,1,1.44.44,1.31,1.31,0,0,1,.4.42,1.18,1.18,0,0,1,.24.65Z"/><path class="cls-1" d="M81.42,105.23a1.67,1.67,0,0,0,.07-.45,1,1,0,0,0-.25-.66,1.46,1.46,0,0,0-.24-.21,2.25,2.25,0,0,0-1-.25,1.43,1.43,0,0,0-.81.23.82.82,0,0,0-.37.69.92.92,0,0,0,.1.44.5.5,0,0,0,.19.21,2.18,2.18,0,0,0,.92.38l.42.11a3.76,3.76,0,0,1,.91.3l.29.16a1.79,1.79,0,0,1,.32.27,1.73,1.73,0,0,1,.43,1.14,1.53,1.53,0,0,1,0,.3,1.34,1.34,0,0,1-.78,1.09,2.78,2.78,0,0,1-1.43.35,3.09,3.09,0,0,1-1.6-.4,1.89,1.89,0,0,1-.33-.29,1.24,1.24,0,0,1-.4-1l.63-.23a1.46,1.46,0,0,0-.1.53,1,1,0,0,0,.55.94,2.65,2.65,0,0,0,1.18.27,1.67,1.67,0,0,0,.82-.18,1,1,0,0,0,.2-.16.91.91,0,0,0,.21-.61.8.8,0,0,0-.4-.73,4.21,4.21,0,0,0-1.32-.45,5.25,5.25,0,0,1-.75-.27,1.65,1.65,0,0,1-.35-2.8,2.26,2.26,0,0,1,1.48-.46,2.29,2.29,0,0,1,1.43.44,1.27,1.27,0,0,1,.41.42A1.18,1.18,0,0,1,82,105Z"/><path class="cls-1" d="M87.12,106.76v2.49H85.61v-5.76h2.67a2.72,2.72,0,0,1,1.76.63,1.4,1.4,0,0,1,.4,1,1.27,1.27,0,0,1,0,.28,1.24,1.24,0,0,1-.27.67,1.16,1.16,0,0,1-.2.2,1.3,1.3,0,0,1-.45.26,3.36,3.36,0,0,1-1.17.22Zm0-.26a3.21,3.21,0,0,0,1.3-.08.58.58,0,0,0,.28-.3,1.73,1.73,0,0,0,.13-.76,3.06,3.06,0,0,0-.21-1.28.64.64,0,0,0-.13-.15.73.73,0,0,0-.62-.22h-.76Z"/><path class="cls-1" d="M93,103.51l1.84,5.75H93.27l-.43-1.33h-2l-.45,1.33H90l2-5.75Zm-2.07,4.12h1.81l-.86-2.78Z"/><path class="cls-1" d="M97.88,103.52a3.39,3.39,0,0,1,1.51.19,1.64,1.64,0,0,1,.72.51,1.35,1.35,0,0,1,.33.84,1.12,1.12,0,0,1-.18.61.49.49,0,0,1-.14.18,1,1,0,0,1-.55.35,3.46,3.46,0,0,1-.87.18,2,2,0,0,1,.91.41,1.16,1.16,0,0,1,.37.49,4.7,4.7,0,0,1,.28,1.34.87.87,0,0,0,.31.64H98.92c0-.1-.1-.2-.13-.29a4.6,4.6,0,0,1-.15-1.27,2.75,2.75,0,0,0-.11-.82.45.45,0,0,0-.29-.31,4.13,4.13,0,0,0-1.15-.07v2.76H95.57v-5.74Zm-.78,2.73q.41,0,.81,0a1.53,1.53,0,0,0,.52-.07.56.56,0,0,0,.33-.34,1.7,1.7,0,0,0,.11-.67,2.09,2.09,0,0,0-.31-1.21.55.55,0,0,0-.31-.17,6,6,0,0,0-1.16,0Z"/><path class="cls-1" d="M105.58,103.8H104v5.45h-1.58v-5.44h-1.65v-.31h4.86Z"/><path class="cls-1" d="M110.2,107.28v-3.76h.37v5.74h-.67L106.47,105v4.23h-.36v-5.74h1Z"/><path class="cls-1" d="M116,103.52v.3h-2.43v2.09h2.06v.3h-2V109h2.8v.29H112v-5.74Z"/><path class="cls-1" d="M119.34,103.52a3.39,3.39,0,0,1,1.51.19,1.64,1.64,0,0,1,.72.51,1.32,1.32,0,0,1,.32.84,1.18,1.18,0,0,1-.17.61.49.49,0,0,1-.14.18,1.09,1.09,0,0,1-.55.35,3.37,3.37,0,0,1-.87.18,2,2,0,0,1,.91.41,1.16,1.16,0,0,1,.37.49,4.7,4.7,0,0,1,.28,1.34.83.83,0,0,0,.31.64h-1.65c0-.1-.1-.2-.13-.29a4.6,4.6,0,0,1-.15-1.27,2.39,2.39,0,0,0-.12-.82.42.42,0,0,0-.28-.31,4.21,4.21,0,0,0-1.16-.07v2.76H117v-5.74Zm-.78,2.73q.41,0,.81,0a1.42,1.42,0,0,0,.51-.07.56.56,0,0,0,.34-.34,1.9,1.9,0,0,0,.11-.67A2.09,2.09,0,0,0,120,104a.55.55,0,0,0-.31-.17,6.1,6.1,0,0,0-1.17,0Z"/><path class="cls-1" d="M126.21,105.23a1.67,1.67,0,0,0,.07-.45,1,1,0,0,0-.25-.66,1.11,1.11,0,0,0-.25-.21,2.16,2.16,0,0,0-1-.25,1.47,1.47,0,0,0-.82.23.82.82,0,0,0-.37.69.92.92,0,0,0,.1.44.67.67,0,0,0,.19.21,2.29,2.29,0,0,0,.93.38l.41.11a3.63,3.63,0,0,1,.91.3l.3.16a2.24,2.24,0,0,1,.32.27,1.78,1.78,0,0,1,.43,1.14,1.53,1.53,0,0,1,0,.3,1.34,1.34,0,0,1-.78,1.09,2.78,2.78,0,0,1-1.43.35,3.07,3.07,0,0,1-1.6-.4,2.23,2.23,0,0,1-.34-.29,1.26,1.26,0,0,1-.39-1l.63-.23a1.46,1.46,0,0,0-.1.53,1,1,0,0,0,.54.94,2.7,2.7,0,0,0,1.19.27,1.62,1.62,0,0,0,.81-.18.75.75,0,0,0,.2-.16.86.86,0,0,0,.22-.61.79.79,0,0,0-.41-.73,4.15,4.15,0,0,0-1.31-.45,4.84,4.84,0,0,1-.75-.27,1.64,1.64,0,0,1-.35-2.8,2.23,2.23,0,0,1,1.47-.46,2.32,2.32,0,0,1,1.44.44,1.38,1.38,0,0,1,.41.42,1.27,1.27,0,0,1,.23.65Z"/></svg>