<svg id="Layer_40" data-name="Layer 40" xmlns="http://www.w3.org/2000/svg" viewBox="0 0 131 131"><defs><style>.cls-1{fill:#1b3d65;}</style></defs><path class="cls-1" d="M17.61,82.46c-.05-2.45-.05-2.44-2.44-3a14.56,14.56,0,0,1-9.3-6.57,1.52,1.52,0,0,1,2,.6,13.08,13.08,0,0,0,20.7,0,1.62,1.62,0,0,1,2-.59,14.62,14.62,0,0,1-10.44,6.83,4,4,0,0,1-.69.05c-.5,0-.59.31-.58.72s.37.49.76.45a14.92,14.92,0,0,0,9.61-4.51c4.15-4.27,5.59-9.38,3.95-15.1S27.65,52,21.82,50.4c-.41-.11-1.29.16-1.1-.8s1-.51,1.52-.39a16.76,16.76,0,0,1-1.6,32.92c-.37.06-.85-.15-1.1.33Z"/><path class="cls-1" d="M18.65,48.76c.52,1.73.09,3.5.21,5.25,0,.4-.2.55-.6.55s-.67-.13-.67-.61c0-.91,0-1.83,0-2.73s-.12-1.25-1.18-1.13a15.5,15.5,0,0,0-3,30.16c.52.16,1.06.27,1.59.41s.9.11.74.83-.65.5-1.05.41A16.9,16.9,0,0,1,1.71,69c-.05-.22-.06-.45-.33-.53v-6c.44-.16.35-.61.43-.92A16.86,16.86,0,0,1,17.05,48.75Z"/><path class="cls-1" d="M87.24,48.54A2,2,0,0,1,87.57,50c0,3.19,0,6.38,0,9.57,0,.41.26,1-.35,1.18s-.91-.22-1.23-.63q-3.06-3.87-6.14-7.72a2.62,2.62,0,0,0-1.1-1.06V59c0,.37,0,.73,0,1.1s-.12.7-.61.7-.76-.22-.76-.74c0-1.09,0-2.19,0-3.28l0-8.2h1.1l7.71,9.51V48.54Z"/><path class="cls-1" d="M54.22,48.54a6.72,6.72,0,0,1,.21,2.82c0,2.78,0,5.56,0,8.34,0,.47.17,1-.65,1.07S53,60.26,53,59.68c0-1,0-2.09,0-3.14,0-.83-.16-1.25-1.12-1.21-1.56.07-3.12.05-4.67,0-.77,0-1.07.23-1,1,0,1.13,0,2.27,0,3.41,0,.54,0,1-.77,1s-.72-.42-.72-.91c0-3.42,0-6.83,0-10.25a1.56,1.56,0,0,1,.47-1.06h.55a1.53,1.53,0,0,1,.49,1.33c0,1,0,2.09,0,3.13,0,.74.19,1.06,1,1,1.64,0,3.29,0,4.93,0,.64,0,.91-.22.89-.87,0-1,0-2,0-3,0-.59-.07-1.19.44-1.63Z"/><path class="cls-1" d="M61.37,82.46c0-3.68,0-7.37,0-11.06,0-.87.2-1.23,1.14-1.18,1.73.1,3.47-.09,5.21.18a3.56,3.56,0,0,1,3.21,3.06,3.31,3.31,0,0,1-2.28,3.62c-.91.36-.72.68-.27,1.24.76,1,1.49,2,2.23,2.94.26.36.66.67.41,1.2H69.63c-.58-1.19-1.61-2.07-2.25-3.21a3.2,3.2,0,0,0-3.49-1.68c-.86.07-1.16.26-1.17,1.16,0,1.24.32,2.52-.25,3.73Zm3.81-10.9c-2.43,0-2.43,0-2.43,2.27,0,.63,0,1.27,0,1.9,0,.35.07.68.49.66,1.5,0,3,.25,4.5-.22a2.23,2.23,0,0,0,1.74-2.33,2.2,2.2,0,0,0-1.82-2.11A10.8,10.8,0,0,0,65.18,71.56Z"/><path class="cls-1" d="M67.43,48.54c1.34.72,2.75,1.31,3.65,2.68a6.25,6.25,0,1,1-8.09-2c.39-.21.89-.24,1.13-.69ZM61,54.76a4.88,4.88,0,1,0,4.8-4.9A4.77,4.77,0,0,0,61,54.76Z"/><path class="cls-1" d="M49,82.46c-2.14-.95-3.83-2.31-4.26-4.76a6.1,6.1,0,0,1,2.34-6.44,6.29,6.29,0,0,1,7-.31c.38.2,1.22.3.77,1.12s-.89.42-1.44.09a4.84,4.84,0,0,0-6.14.75,5.5,5.5,0,0,0,0,6.82,5.29,5.29,0,0,0,6.21.81c1.27-.71.75-1.86.7-2.81s-1-.46-1.54-.55a12.64,12.64,0,0,0-1.51,0c-.42,0-.51-.29-.51-.65s.13-.62.55-.62H55c.51,0,.57.34.56.74,0,.59,0,1.18,0,1.78,0,2.72-.19,3-2.85,3.8a2.82,2.82,0,0,0-.44.26Z"/><path class="cls-1" d="M76,82.46a12.81,12.81,0,0,1,1.34-3.25C78.51,76.47,79.77,73.75,81,71c.21-.46.4-.86,1.06-.87s.82.46,1,.91q2.34,5.14,4.69,10.29c.17.38.35.74,0,1.11h-1.1c-1.26-3.3-1.26-3.3-4.75-3.3a1.31,1.31,0,0,1-.28,0c-2-.32-3.56.15-4,2.42a2.9,2.9,0,0,1-.58.89ZM82,71.89c-.85,1.87-1.56,3.47-2.31,5.06-.31.66-.15.9.58.89,1.14,0,2.28,0,3.42,0,.87,0,.88-.32.56-1C83.54,75.31,82.85,73.73,82,71.89Z"/><path class="cls-1" d="M93.57,82.46c0-3.64.06-7.27,0-10.91,0-1,.26-1.4,1.31-1.33a40.2,40.2,0,0,1,4.52.19,3.66,3.66,0,0,1,3.25,3.34,3.72,3.72,0,0,1-2.65,4,10.47,10.47,0,0,1-3.94.3c-.83,0-1.09.24-1.11,1.08,0,1.11.35,2.27-.29,3.33ZM95,74.06a12.5,12.5,0,0,1,0,1.5c-.11,1,.29,1.31,1.24,1.22s1.75,0,2.61-.08a2.58,2.58,0,0,0,2.43-2.52A2.45,2.45,0,0,0,99,71.7a8.37,8.37,0,0,0-1.5-.14C95,71.54,95,71.54,95,74.06Z"/><path class="cls-1" d="M112.84,48.54c.72.34,1.46.67,2.18,1.05.39.2.68.47.27.95s-.53.56-1,.21a4.79,4.79,0,0,0-3.52-.86,1.86,1.86,0,0,0-1.88,1.66,1.72,1.72,0,0,0,1.35,2c1.13.36,2.3.63,3.41,1,1.63.58,2.4,1.6,2.36,3a3.26,3.26,0,0,1-2.6,3.14,6.71,6.71,0,0,1-5.85-1.18c-.34-.23-.71-.46-.28-1s.69-.44,1.14-.08a5.24,5.24,0,0,0,4.13,1.1,2,2,0,0,0,2-1.75c.14-1.13-.57-1.69-1.5-2s-2-.53-3-.86c-1.81-.59-2.63-1.61-2.61-3.09s.91-2.48,2.66-3.07a1.66,1.66,0,0,0,.32-.22Z"/><path class="cls-1" d="M123.57,82.46c-.86-.48-1.73-1-2.58-1.46-.38-.23-.64-.51-.25-1s.62-.45,1-.12a5.46,5.46,0,0,0,3.83,1.23c1.35-.09,2.28-.77,2.38-1.82.11-1.27-.76-1.76-1.77-2.07s-2.14-.53-3.15-.92c-1.68-.65-2.35-1.7-2.21-3.21a3.33,3.33,0,0,1,2.73-2.88,6.24,6.24,0,0,1,4.51.67c.44.27,1.07.44.59,1.21s-.81.2-1.21,0a4.92,4.92,0,0,0-3.27-.68c-1.06.19-1.84.7-1.93,1.81s.64,1.56,1.52,1.86,1.66.49,2.5.69a4.36,4.36,0,0,1,3.33,2.86v1.1a5.35,5.35,0,0,1-3.3,2.73Z"/><path class="cls-1" d="M129.62,49.9c-1,0-1.92.1-2.87.05s-1.1.28-1.09,1.1c0,2.68,0,5.37,0,8.05,0,.59.51,1.65-.77,1.63s-.68-1-.69-1.56c0-2.69-.06-5.37,0-8.05,0-.89-.22-1.26-1.15-1.17a20,20,0,0,1-2,0c-.44,0-.85,0-.85-.6s.42-.6.85-.59l8.64,0Z"/><path class="cls-1" d="M17.05,48.75l-.26-.21H19l-.33.22Z"/><path class="cls-1" d="M18.7,57.64c1.73,1.08,1.92,1.63,1,3.27-.54,1,0,1.39.78,1.21,1.57-.38,1.65.84,1.9,1.66a1.62,1.62,0,0,1-1.15,2.06c-1.37.36-1.63,1-1.12,2.27a1.57,1.57,0,0,1-.78,2c-.82.45-.73.88-.3,1.5a3.09,3.09,0,0,1,.43.85A1.25,1.25,0,0,1,19,73.92a1.13,1.13,0,0,1-1.51,0A1.19,1.19,0,0,1,17,72.49a2.92,2.92,0,0,1,.33-.74C17.9,71,18,70.54,17,70a1.7,1.7,0,0,1-.62-2.18c.29-.92.75-1.45,1.82-1.26.35.06.9.24,1-.34s-.4-1.23-.76-1.66-.7.3-.84.65c-.56,1.37-1.51,1.15-2.49.61a1.78,1.78,0,0,1-.91-2.53c.54-1.12.35-1.6-.94-1.78a1.73,1.73,0,0,1-1.48-1.74,1.89,1.89,0,0,1,1.22-2,1.69,1.69,0,0,1,2.2.57c.58.81,1,1,1.52,0,.18-.33.61-.53.93-.78ZM18.32,64c.34-.22.34-.62.47-.95.46-1.19.31-1.42-1-1.34-.48,0-.74,0-.94-.52a12.31,12.31,0,0,0-.9-1.49c-.29.49-.46.81-.67,1.11-.63.92-.14,1.5.71,1.28,1.23-.31,1.44.4,1.76,1.18C17.91,63.57,18,63.91,18.32,64ZM17,64a1,1,0,0,0-1-.93.94.94,0,0,0-1,1,.93.93,0,0,0,1,.94C16.61,65.07,16.93,64.64,17,64Zm2.23,4.47a1,1,0,0,0-1.11-.94.91.91,0,0,0-.84,1,.9.9,0,0,0,.94.94C18.85,69.53,19.17,69.09,19.24,68.49Zm-5.51-9.85a1,1,0,0,0-1,.92.92.92,0,0,0,1,1,.91.91,0,0,0,1-.89C14.8,59.08,14.39,58.74,13.73,58.64Zm6.79,4.43a1,1,0,0,0-1,.92.83.83,0,0,0,.83,1,.89.89,0,0,0,1.09-.91C21.46,63.51,21.07,63.21,20.52,63.07ZM19.24,59.7a1,1,0,0,0-.84-1,.85.85,0,0,0-1.09.75.88.88,0,0,0,.83,1.14C18.74,60.64,19.05,60.28,19.24,59.7Z"/><path class="cls-1" d="M93.61,54.73c0-1.64,0-3.28,0-4.92,0-.72.15-1.07,1-1.06,2.28,0,4.58,0,6.86,0,.4,0,.87-.1.91.53s-.46.66-.92.66c-1.74,0-3.49,0-5.22,0-.85,0-1.23.16-1.24,1.12,0,3-.09,3,2.91,3,.82,0,1.65,0,2.47,0,.47,0,1.2-.33,1.23.61s-.69.67-1.18.67c-1.46,0-2.93,0-4.39,0-.78,0-1,.24-1,1-.1,3.13-.12,3.13,3,3.13h3.71c.4,0,.72,0,.74.57s-.22.74-.74.73H94.4c-.71,0-.8-.41-.8-1C93.62,58.1,93.61,56.41,93.61,54.73Z"/><path class="cls-1" d="M107.05,76.14c0-1.6,0-3.19,0-4.79,0-.79.17-1.15,1.06-1.13,2.24,0,4.49,0,6.74,0,.48,0,.94,0,1,.66s-.46.66-.93.66c-1.79,0-3.58,0-5.36,0-.86,0-1.08.26-1.1,1.09,0,3-.07,3,2.87,3h3c.41,0,.7.08.72.59s-.22.73-.74.73c-1.61,0-3.21,0-4.81,0-.75,0-1,.17-1.07,1-.1,3.15-.13,3.15,3,3.15,1.19,0,2.38,0,3.57,0,.42,0,.85,0,.86.59s-.4.62-.83.62c-2.38,0-4.77,0-7.15,0-.7,0-.84-.33-.83-.93C107.06,79.6,107.05,77.87,107.05,76.14Z"/><path class="cls-1" d="M11,74.85H25.44C22.15,78.29,14.62,78.33,11,74.85Z"/><path class="cls-1" d="M18.7,57.64l-1,0c.18-.85-.48-.6-.86-.61-1.23,0-2.47-.06-3.71,0-.95.06-1.32-.36-1.39-1.31H24.08c.26,0,.77-.18.63.38s-.29.94-1,.92C22.35,57,21,57,19.6,57,19.14,57,18.63,56.92,18.7,57.64Z"/><path class="cls-1" d="M21.84,61.69c-.79-.13-.94-1.2-1.15-2s1-2,2-2a2.11,2.11,0,0,1,2,2C24.72,60.8,23.7,61.65,21.84,61.69Zm1.84-2a1,1,0,0,0-.87-1,.91.91,0,0,0-1.06,1,.85.85,0,0,0,.92,1A.9.9,0,0,0,23.68,59.72Z"/><path class="cls-1" d="M14.88,52.12c-.09-.5.27-.59.63-.71.52-.17.62.15.7.54.11.62.23,1.24.34,1.85.05.29.27.67-.24.74s-.85.12-1-.45Z"/><path class="cls-1" d="M21.57,52.14c-.42.71.18,2-1.05,2.4-.35.12-.83,0-.64-.54.32-.88-.05-2,.94-2.61C21,51.28,21.67,51.42,21.57,52.14Z"/><path class="cls-1" d="M22,54.39c.27-.64.54-1.25.78-1.88.17-.44.48-.49.87-.32s.55.41.32.83C23.59,53.79,23.54,55,22,54.39Z"/><path class="cls-1" d="M14.26,53.89c.15.67-.2.67-.52.66-1.17,0-1-1.13-1.31-1.78-.21-.4.37-.68.66-.62C14.12,52.35,13.78,53.48,14.26,53.89Z"/><path class="cls-1" d="M24.15,54.34c.6-.44.3-1.44,1.27-1.28a.51.51,0,0,1,.4.72C25.56,54.52,25.09,54.76,24.15,54.34Z"/><path class="cls-1" d="M12.05,54.07c.1.5-.22.46-.48.48-.59.06-.8-.33-.89-.8a.57.57,0,0,1,.59-.72C11.88,53.08,11.79,53.76,12.05,54.07Z"/></svg>