<svg id="Layer_41" data-name="Layer 41" xmlns="http://www.w3.org/2000/svg" viewBox="0 0 131 131"><defs><style>.cls-1{fill:#ef8429;}</style></defs><path class="cls-1" d="M1.63,68.15A9.44,9.44,0,0,1,2,66.83,21.8,21.8,0,0,1,3.72,63c3.38-5,6.87-9.89,10.33-14.83.09-.13.2-.24.34-.42.55.8,1.1,1.53,1.57,2.31.1.16-.05.54-.2.75-2.49,3.59-5,7.15-7.49,10.75a28,28,0,0,0-2.85,4.62,9.87,9.87,0,0,0,4.35,13c5.8,3,13.45.05,14.7-7a8.42,8.42,0,0,0-.92-6c-1.75-2.83-3.72-5.53-5.65-8.36L12.61,65.4C12,64.6,11.5,63.85,11,63.08a.52.52,0,0,1,0-.47c2.27-3.26,4.55-6.51,6.88-9.83L21,57.29c1.43,2,2.83,4.09,4.29,6.09,2.91,4,2.86,8.28,1,12.55a11.93,11.93,0,0,1-9.66,7.14,1.78,1.78,0,0,0-.36.14H13a1.9,1.9,0,0,0-.38-.13A12.35,12.35,0,0,1,2.28,74.53C2,73.76,1.84,73,1.63,72.16Z"/><path class="cls-1" d="M9.1,65.33l3.51,5,5.24-7.48c.16.19.29.33.4.49.75,1.07,1.52,2.14,2.25,3.23A6.62,6.62,0,0,1,21,73.74a6.77,6.77,0,0,1-6.15,3.71A6.93,6.93,0,0,1,7.5,71.88,8.33,8.33,0,0,1,9.1,65.33Z"/><path class="cls-1" d="M62.78,66.35h-.7V64.66a3.89,3.89,0,0,1-6,.66,4.26,4.26,0,0,1,.11-5.86c1.6-1.52,4-1.3,5.8.62V55.32l.77,0Zm-7-3.89a3.15,3.15,0,1,0,3.17-3.28A3.15,3.15,0,0,0,55.74,62.46Z"/><path class="cls-1" d="M43.29,60.65V55.9h.78V66.32h-.75V61.44h-7v4.9h-.76V55.89h.74v4.76Z"/><path class="cls-1" d="M120.86,66.35h-.71L120,65.26a3.61,3.61,0,0,1-3.65,1.08,2.16,2.16,0,0,1-1.44-3.47,2.83,2.83,0,0,1,2.42-.9H120c.4-2-.86-3.18-2.92-2.74a14.74,14.74,0,0,0-2,.78l-.27-.37a4.41,4.41,0,0,1,5-.71,2.62,2.62,0,0,1,1.13,1.82,2.54,2.54,0,0,1,0,.48ZM120,62.57c-1.22.06-2.45.07-3.66.21a1.24,1.24,0,0,0-1.07,1.33,1.41,1.41,0,0,0,1,1.44,3,3,0,0,0,3-.34A2.4,2.4,0,0,0,120,62.57Z"/><path class="cls-1" d="M75.41,58.48a4,4,0,1,1-3.94,4A3.79,3.79,0,0,1,75.41,58.48Zm3.1,4a3.09,3.09,0,0,0-3.09-3.33,3.14,3.14,0,0,0-3.16,3.28,3.1,3.1,0,0,0,3.14,3.28A3.06,3.06,0,0,0,78.51,62.5Z"/><path class="cls-1" d="M45.81,68.63l.37-.58a5.7,5.7,0,0,0,.52.34A1.69,1.69,0,0,0,49,67.87a2.33,2.33,0,0,0,.3-2.65c-1-2-1.88-4.09-2.8-6.14l-.18-.44a.7.7,0,0,1,1,.45c.82,1.92,1.7,3.82,2.55,5.73l.3.61c.3-.65.56-1.2.8-1.75.69-1.53,1.39-3,2-4.59a.69.69,0,0,1,1-.46c-.15.33-.28.66-.43,1q-1.8,4-3.61,8A2.57,2.57,0,0,1,45.81,68.63Z"/><path class="cls-1" d="M90.93,58.6h.7l.07,1.22.19.14a2.92,2.92,0,0,1,.42-.6,3.58,3.58,0,0,1,3.86-.62,2.91,2.91,0,0,1,1.78,3v4.6l-.81,0V62c0-1.79-.89-2.78-2.51-2.78A2.75,2.75,0,0,0,91.72,62c0,1.38,0,2.76,0,4.14,0,0,0,.09,0,.18l-.75,0V58.6Z"/><path class="cls-1" d="M106.17,59.24l-.34.6a1.35,1.35,0,0,1-.24-.08,4.1,4.1,0,0,0-3.19-.43,1.36,1.36,0,0,0-1.14,1.29c0,.78.53,1.09,1.15,1.26.81.23,1.65.37,2.47.6a1.75,1.75,0,0,1,1.52,1.63,1.84,1.84,0,0,1-1.31,2,5.19,5.19,0,0,1-4.8-.61c0-.12,0-.18,0-.21s.15-.28.25-.46l.3.15a4.36,4.36,0,0,0,3.62.61,2,2,0,0,0,1-.72,1.1,1.1,0,0,0-.7-1.69c-.58-.2-1.2-.28-1.8-.43a11.17,11.17,0,0,1-1.32-.38,1.69,1.69,0,0,1-1.16-1.56,1.85,1.85,0,0,1,1-1.86A4.75,4.75,0,0,1,106.17,59.24Z"/><path class="cls-1" d="M112.43,65.35l.32.54a2.49,2.49,0,0,1-2.61.34,2,2,0,0,1-1.16-2c0-1.65,0-3.3,0-5h-1.34c-.09-.57-.09-.57,1.32-.71V56.86h.83v1.69c.72,0,1.36,0,2,0,.44,0,.57.17.4.64h-2.4v4.93c0,1.41,1,2,2.27,1.42C112.16,65.5,112.26,65.44,112.43,65.35Z"/><path class="cls-1" d="M113.12,73.86c.45.37.77.84.44,1.32a1.87,1.87,0,0,1-1.16.68,15.11,15.11,0,0,1-2.24,0V72a16.82,16.82,0,0,1,2.56,0C113.54,72.2,113.68,73,113.12,73.86ZM111,75.28a9.35,9.35,0,0,0,1.42,0c.19,0,.48-.33.46-.46a.78.78,0,0,0-.47-.53,8.26,8.26,0,0,0-1.41,0Zm0-1.71a6.84,6.84,0,0,0,1.21,0c.2,0,.35-.29.53-.44-.18-.18-.33-.46-.54-.51a6,6,0,0,0-1.2,0Z"/><path class="cls-1" d="M105.18,74.44c.82-.77.9-2.08,2.13-2.63v4l-.64,0V73.67l-.14,0c-.19.3-.38.59-.56.9-.73,1.22-.73,1.22-1.49,0a2.45,2.45,0,0,0-.67-.76v2.12h-.69v-3.8c.37-.22.6-.08.8.29C104.32,73,104.75,73.72,105.18,74.44Z"/><path class="cls-1" d="M125,66.35h-.69v-11l.69,0Z"/><path class="cls-1" d="M128.55,55.31h.68v11l-.68,0Z"/><path class="cls-1" d="M122.37,72h.77v4a3.46,3.46,0,0,1-.87-.47c-.59-.66-1.13-1.38-1.81-2.21v2.53h-.73v-4a3.38,3.38,0,0,1,.82.45c.59.66,1.13,1.37,1.82,2.21Z"/><path class="cls-1" d="M87.14,66.34h-.68V55.88l.68,0Z"/><path class="cls-1" d="M62.42,73.59v2.27H61.7v-4a3.58,3.58,0,0,1,.85.51c.59.66,1.13,1.37,1.8,2.2V72l.74,0v4.11a4.17,4.17,0,0,1-.88-.58c-.56-.63-1.08-1.3-1.61-1.95Z"/><path class="cls-1" d="M67.06,66.34h-.7V58.6l.64-.05v1.56a3.24,3.24,0,0,1,3-1.62l0,.67a12.08,12.08,0,0,0-1.19.22,2.83,2.83,0,0,0-1.8,2.83C67.05,63.56,67.06,64.92,67.06,66.34Z"/><path class="cls-1" d="M77.71,73.68c-.44-.81-.41-1.23.06-1.56a1.34,1.34,0,0,1,1.64.13c.36.42.21.91-.53,1.62l.7.6c.21-.2.31-.8.83-.29,0,.4-.59.91.18,1.28l-.4.47-.5-.36c-1,.42-2,.8-2.7-.38C76.73,74.78,77,74.35,77.71,73.68Zm.49.44c-.41.28-.79.56-.43,1s.89.3,1.43,0Zm0-.77.41.07.24-.78-.61,0Z"/><path class="cls-1" d="M44.4,73.53a1.84,1.84,0,0,1,.06.36,1.64,1.64,0,0,1-.06.31H42.64v1c.53,0,1.07.08,1.61.08s.59.14.43.6l-.4,0c-.8,0-1.61,0-2.45,0V72c.86,0,1.71,0,2.55,0,.14,0,.27.27.41.42l-.12.18h-2v1Z"/><path class="cls-1" d="M71.27,72.49c-.21.51-.48.44-.86.23a1.34,1.34,0,0,0-1.65.24,1.35,1.35,0,0,0,1,2.3c.5,0,.86-.14.77-.76a2.87,2.87,0,0,1,0-.57h.7a10.16,10.16,0,0,1,0,1.24.69.69,0,0,1-.31.46,2.36,2.36,0,0,1-3-.53,2,2,0,0,1,.27-2.69A2.28,2.28,0,0,1,71.27,72.49Z"/><path class="cls-1" d="M38.32,74.26h-2v1.58l-.72,0V72h.68v1.53h2V72l.76-.07v3.91h-.68Z"/><path class="cls-1" d="M96.93,72h.74c0,.74,0,1.45,0,2.16s.37,1.16,1,1.14.93-.4.94-1.12,0-1.42,0-2.17h.73c0,.9,0,1.77,0,2.63A1.51,1.51,0,0,1,98.64,76a1.53,1.53,0,0,1-1.7-1.36C96.88,73.75,96.93,72.9,96.93,72Z"/><path class="cls-1" d="M129.26,72.57c-.18.49-.46.39-.84.18a1.3,1.3,0,0,0-1.6.19,1.26,1.26,0,0,0-.33,1.45,1.33,1.33,0,0,0,1.27.9c.49,0,.93-.09.82-.77a3.85,3.85,0,0,1,0-.59h.79c-.12.6-.07,1.28-.38,1.65-.47.55-1.85.44-2.52,0a2,2,0,0,1-.8-2.12A1.92,1.92,0,0,1,127.16,72,2,2,0,0,1,129.26,72.57Z"/><path class="cls-1" d="M46.76,75.82c.53-1.2,1.06-2.39,1.61-3.57a.6.6,0,0,1,.47-.28.68.68,0,0,1,.52.3c.55,1.15,1.07,2.33,1.61,3.53-.48.17-.79.14-1-.38a.86.86,0,0,0-.59-.41,3.07,3.07,0,0,0-1.09,0,.77.77,0,0,0-.55.37C47.57,75.9,47.26,76,46.76,75.82Zm2.77-1.49-.67-1.57-.68,1.57Z"/><path class="cls-1" d="M87,74.83l0,1-.66,0V72a20,20,0,0,1,2.05,0,1.29,1.29,0,0,1,1.2,1.29,1.3,1.3,0,0,1-1.1,1.38A11.92,11.92,0,0,1,87,74.83Zm0-.53a14.21,14.21,0,0,0,1.63-.6c.09,0,.09-.56,0-.73-.4-.55-1-.37-1.59-.34Z"/><path class="cls-1" d="M55.82,72l0,.61-1.26.06v3.21l-.78.07V72.63H52.62l-.15-.2c.14-.16.28-.45.43-.46C53.86,71.93,54.82,72,55.82,72Z"/><path class="cls-1" d="M91.92,75.85V72l.73,0v3.31c.56,0,1.06,0,1.55,0s.6.13.43.59Z"/><path class="cls-1" d="M58.12,72h.71v3.87h-.71Z"/><path class="cls-1" d="M116.87,72v3.82h-.7V72Z"/></svg>