<svg id="Layer_42" data-name="Layer 42" xmlns="http://www.w3.org/2000/svg" viewBox="0 0 131 131"><defs><style>.cls-1{fill:#1b3d65;}</style></defs><path class="cls-1" d="M93,64.87h10.92c0-2.85.07-5.7-.09-8.53,0-.4-1.17-.74-1.64-1h7c-2-.06-2,1.27-2,2.77q.07,7.34,0,14.65c0,1.47,0,2.75,2,2.68h-7.51l2.23-.68V65.28c-1.42,0-2.83,0-4.24,0-2.11.06-4.22.15-6.33.23-.09,2.15-.2,4.3-.28,6.46,0,.91,0,1.82,0,2.8l2.33.68H87.72c1.86-.12,2.07-1.25,2-2.84-.09-4.82-.08-9.65,0-14.47,0-1.6,0-2.93-2.1-2.87H95.2c-2.17-.06-2.36,1.26-2.27,3C93.05,60.43,93,62.6,93,64.87Z"/><path class="cls-1" d="M74.35,70c-.28,1.27-.54,2.56-.89,3.81a1.4,1.4,0,0,1-.78.77,19,19,0,0,1-10.31,1.11c-5.77-1.16-9.07-5.18-8.9-10.73a10.35,10.35,0,0,1,9.62-10,35.41,35.41,0,0,1,6.64.4c1.23.1,2.45.32,3.91.53v5.76A43.83,43.83,0,0,0,71,57.37a5.51,5.51,0,0,0-2.46-1.88,8.35,8.35,0,0,0-10.9,5.69,12.24,12.24,0,0,0,.74,9.7c3.05,5.86,10.4,6.36,14.25,1,.46-.64.89-1.31,1.33-2Z"/><path class="cls-1" d="M7.24,75.47H-.5c1.68-.16,2.13-1,2.09-2.71-.12-4.93-.07-9.87,0-14.81,0-1.51.12-2.94-2.1-2.66H7.4c-.87.26-1.9.27-2.31.79s-.26,1.53-.23,2.32c.09,2.78.32,5.56.34,8.34,0,1.93-.29,3.85-.34,5.77C4.8,75,4.84,75,7.24,75.47Z"/><path class="cls-1" d="M32.89,55.27h7.56c-2,0-2.3,1.16-2.26,2.91.12,4.76,0,9.53,0,14.29,0,2.41,0,2.41,2.44,3H32.94c2-.1,2.08-1.38,2.05-3-.09-4.88-.1-9.76,0-14.63C35,56.17,34.67,55.27,32.89,55.27Z"/><path class="cls-1" d="M123.19,55.26h7.55c-2.15,0-2.36,1.23-2.32,3,.1,4.75,0,9.51,0,14.27,0,2.28,0,2.28,2.19,2.92h-7.33c2.42-.07,1.91-1.84,1.91-3.3,0-4.76,0-9.52,0-14.27C125.28,56.33,125.1,55.25,123.19,55.26Z"/><path class="cls-1" d="M7.92,64.57,6.19,65.76c1.85-1.92,3.38-3.49,4.89-5.07.91-.95,1.86-1.88,2.69-2.9,1.19-1.48.94-2-1-2.25a2,2,0,0,1-.84-.23h6.83c-3.87,1.14-5.77,4.54-8.8,7,3.39,4.37,5.26,9.67,9.28,13.18h-7.5c2-.36,2-1.24,1.36-2.28C11.42,70.33,9.69,67.49,7.92,64.57Z"/></svg>