<svg id="Layer_43" data-name="Layer 43" xmlns="http://www.w3.org/2000/svg" viewBox="0 0 131 131"><defs><style>.cls-1{fill:#ef8429;}</style></defs><path class="cls-1" d="M64.69,47.13c.68.58,1.49.21,2.22.22a4.46,4.46,0,0,1,2.82,1c1.78,1.51,1.9,2.83.34,4.72a7.25,7.25,0,0,1-1,.84c1.78.91,3.39,1.69,4.41,3.33a6.39,6.39,0,0,1,.61,5.59c-.36,1.12-1.66.76-2.53.67s-.33-.81-.27-1.28c.52-3.7-.44-6.21-4.36-7.61A4.79,4.79,0,0,1,65.59,54,3.77,3.77,0,0,0,67,48.26a1.84,1.84,0,0,0-2-.6c-.84.16-.5.92-.52,1.44,0,1.2-.07,2.4,0,3.6.07,1-.29,1.51-1.29,1.65-.64.09-1.26.3-2,.47,0-1.77-.05-3.51,0-5.24A1.88,1.88,0,0,0,60,47.51c1-.4,2.07.23,2.95-.38Z"/><path class="cls-1" d="M73.91,82.68c0-.45-.4-.25-.58-.44-.75-.76-1.47-1.57-1.11-2.67a2.66,2.66,0,0,1,2.46-1.95l-1.47-2.19c1.19,0,2.21,0,3.23,0,.48,0,.48.09.36,1.17-.38,0-.59-.54-1-.4s-.83-.19-1,.16.16.68.42.94c.69.73.19.78-.45.89-1.09.19-1.54,1.1-1.29,2.47a2.26,2.26,0,0,0,2.09,1.71,2.18,2.18,0,0,0,1.93-2,1,1,0,0,0-1-1.07c-.5-.06-.63.42-.54.88,0,.17,0,.35-.19.34s-.32-.16-.34-.41c-.09-1,.54-1.49,1.3-1.86a9.26,9.26,0,0,1,2.91-.5c.49-.06,1,0,.87-.76,0-.19,0-.21.13-.22a.32.32,0,0,1,.36.39,1.59,1.59,0,0,1-1.29,1.33,7.36,7.36,0,0,1-2.76.23c1.74,1.4,1.4,2.91-.77,4Z"/><path class="cls-1" d="M114.28,82.68c.81-1.75.71-6.37-.28-7.25,1.59.19,3.07-.28,4.5.32a3.42,3.42,0,0,1,2.25,3.59,3.19,3.19,0,0,1-2.42,3.14s0,.13-.06.2Zm1.5-3.82c0,.83,0,1.66,0,2.49,0,.53.27.73.71.82a2.54,2.54,0,0,0,2.93-1.69,4.58,4.58,0,0,0,0-2.79A2.43,2.43,0,0,0,116.26,76c-1.08.27-.24,1.32-.46,2A2.74,2.74,0,0,0,115.78,78.86Z"/><path class="cls-1" d="M97.84,82.68a4.48,4.48,0,0,1-2.31-3.05,3.8,3.8,0,0,1,2.83-4.35,3.88,3.88,0,0,1,2.22,7.4ZM96.59,79c0,2,.6,2.92,1.94,3.18a2.76,2.76,0,0,0,3.27-1.68c.56-1.68-.15-3.87-1.43-4.53A2.72,2.72,0,0,0,96.59,79Z"/><path class="cls-1" d="M87.12,82.68c1.46-2,.44-4.19.75-6.27.08-.6-.74-.27-.76-.93a34.08,34.08,0,0,1,3.65,0,1.43,1.43,0,0,1,.83,2.29c-.17.26-.56.39,0,.68a2.19,2.19,0,0,1,1.47,2.37c-.15,1.19-1.19,1.37-2,1.83Zm1.49-2.17c.17.62-.53,1.78,1.07,1.69s2.42-.68,2.42-1.82a2.36,2.36,0,0,0-2.34-1.91C88.32,78.48,88.64,79.57,88.61,80.51Zm0-3.58c-.09.73,0,1.36.89,1.25.7-.08,1.51-.32,1.55-1.15S90.41,76,89.6,75.94,88.43,76.13,88.63,76.93Z"/><path class="cls-1" d="M14.1,82.68a4.09,4.09,0,0,1-2.26-4.47,3.48,3.48,0,0,1,3.4-3A3.7,3.7,0,0,1,19.08,78a3.9,3.9,0,0,1-2.24,4.7Zm4-3.48a8.37,8.37,0,0,0,0-1.12,2.65,2.65,0,0,0-1.84-2.24,2.44,2.44,0,0,0-2.6.59c-1,.88-1.1,3.42-.44,4.61a2.29,2.29,0,0,0,1.65,1.15C16.88,82.58,18.12,81.43,18.08,79.2Z"/><path class="cls-1" d="M105.06,82.68c1.45-.87,1-2.29,1-3.54,0-2.77,0-2.77-.93-3.58,1.18-.44,1.83.28,2.43,1.1.93,1.24,1.86,2.5,2.91,3.69-.23-1.57.68-3.27-.51-4.82a8.92,8.92,0,0,1,2.33,0c-1.36.49-1.28,1.37-1.24,2.24a22.92,22.92,0,0,0,.25,4.9h-.5a35.38,35.38,0,0,0-4.17-5.4c.42,1.81-1,3.9.93,5.4Z"/><path class="cls-1" d="M61.2,82.68c1.58-2,.46-4.21.74-6.31.09-.63-.78-.21-.77-.94,1.36,0,2.75-.06,4.13,0,.78.05.21.67.3,1-.44-.24-.68-.68-1.27-.58s-1.47-.29-1.42,1,1,.65,1.49.81.62-.32.93-.48c.29.23.16.54.11.8s.38.56.06.78-.45-.29-.7-.42A1.18,1.18,0,0,0,63,79.52a4.21,4.21,0,0,0,0,.87c.13.59-.44,1.55.37,1.71s2.06.57,2.6-.74c.58.34.15,1,.5,1.32Z"/><path class="cls-1" d="M38.27,82.68c1.52-2,.42-4.28.73-6.41.08-.51-.76-.09-.69-.83,1.35,0,2.73-.06,4.1,0,.65,0,.28.62.31,1.19-.67-.94-1.5-.7-2.28-.7-.54,0-.45.42-.41.71s-.29,1,.31,1,1.51.4,2.12-.44c.21.56-.13,1.09.23,1.53-.56.26-.42-.28-.68-.37-1.3-.47-2,0-2,1.37a2.08,2.08,0,0,0,0,.5c.14.63-.44,1.64.45,1.83s2.13.54,2.59-.88c.69.38.35,1,.44,1.45Z"/><path class="cls-1" d="M21.33,82.68a22.72,22.72,0,0,0,2.64-5,4.77,4.77,0,0,0,.61-2.6c1.13.66,1.27,1.77,1.71,2.65a25.91,25.91,0,0,1,1.52,3.56c.2.6,1.09.63,1,1.38H26.31c0-.12,0-.32,0-.36.32-.2,1-.15.65-.84s-.46-1.23-1.36-1a2.44,2.44,0,0,1-1.23,0c-1-.36-1.2.36-1.59,1s.83.64.51,1.23Zm4.88-2.75-1.34-3.05-1.3,3.05Z"/><path class="cls-1" d="M2.63,78.45c.53-.55.46-1.37,1-2a4,4,0,0,1,4.93-.69c.75.41.61,1,.42,1.92-.63-1-1.15-1.92-2.28-2A2.68,2.68,0,0,0,5,76.25c-1.26.94-1.49,3.47-.47,4.94s2.47,1.32,4.84-.1c-.08,1.15-1.23,1-1.73,1.59H5.38a5.4,5.4,0,0,1-2.75-3.23Z"/><path class="cls-1" d="M55,82.68c-2.66-1.28-3.44-3.94-1.82-6.13a3.89,3.89,0,0,1,4.93-.77c.7.4.4,1.07.54,1.78-1.12-1.86-2.6-2.47-4.34-1.18-1.06.78-1.16,3.49-.3,4.66C55.51,83.11,57.2,82,59,81c-.42,1-1.23,1.24-1.82,1.69Z"/><path class="cls-1" d="M46.5,82.68c-.94-.38-.78-1.17-.73-1.94.52,0,.4.42.52.68a1.4,1.4,0,0,0,1.52.76,1.36,1.36,0,0,0,1.24-.85c.31-.65-.07-1-.46-1.38-.66-.58-1.43-1.06-2.1-1.65a1.54,1.54,0,0,1-.5-2.06,2.25,2.25,0,0,1,2.64-.85c1,.33,1,.36.83,1.63-.61-.54-.85-1.63-2-1.11-.85.4-1,.9-.35,1.54.5.47,1.08.87,1.61,1.32,1.73,1.49,1.73,2.56,0,3.91Z"/><path class="cls-1" d="M123.75,82.68a1.55,1.55,0,0,1-.66-2c.59-.09.53.45.59.65.28.81.87.91,1.57.85a1.18,1.18,0,0,0,1.21-.83,1.53,1.53,0,0,0-.63-1.62c-.65-.51-1.35-1-2-1.51a1.47,1.47,0,0,1-.06-2.43c.79-.69,2.54-.73,3,0,.26.38.2.81-.1,1.45-.4-1.22-1-1.77-2.09-1.22-.77.38-.79.94-.15,1.48.89.76,1.81,1.48,2.72,2.23,0,1,.39,2.37-.11,2.87s-1.88.11-2.88.11Z"/><path class="cls-1" d="M30.8,82.68c1.69-1.87.52-4.13.84-6.19.1-.61-.77-.41-.78-1,.86-.06,1.72.1,2.67,0-1.25.57-1,1.6-1,2.52s0,1.82,0,2.72c0,.54-.24,1.39.55,1.42s2,.66,2.44-.69c0-.09.14-.16.29-.32.34.55.15,1.09.2,1.58Z"/><path class="cls-1" d="M64.94,67.45a10.78,10.78,0,0,1-4.85-1.76,5.43,5.43,0,0,1,0-8.81A6.3,6.3,0,0,1,66,55.6c-.1.08-.18.19-.27.21-2.85.4-4.23,2.08-4.3,5A7.12,7.12,0,0,0,63,65.93a3.38,3.38,0,0,0,1.94,1.17Z"/><path class="cls-1" d="M66.73,55.78a4.06,4.06,0,0,1,3.44,3.33,1.85,1.85,0,0,1-1.09,2,2,2,0,0,1-2.72-2.64C66.63,57.65,67.79,57,66.73,55.78Z"/><path class="cls-1" d="M64.94,67.45V67.1a3.15,3.15,0,0,0,2.71-.31,4,4,0,0,1,2.76-.43A9.19,9.19,0,0,1,64.94,67.45Z"/></svg>