<svg id="Layer_44" data-name="Layer 44" xmlns="http://www.w3.org/2000/svg" viewBox="0 0 131 131"><defs><style>.cls-1{fill:#1b3d65;}</style></defs><path class="cls-1" d="M129.62,69.41a6.15,6.15,0,0,1-2.86,3,5.6,5.6,0,0,1-2.58.54,6,6,0,0,1-4.33-1.8,5.56,5.56,0,0,1-1.61-4,2.09,2.09,0,0,1,.48-1.42,5.13,5.13,0,0,0,.38-.57,10,10,0,0,1,2.31-2.66,5,5,0,0,1,1.93-1,4.55,4.55,0,0,1,1.8,0,5.71,5.71,0,0,1,4.22,3,4.78,4.78,0,0,1,.26.62v.24a.53.53,0,0,1-.51.33h-1.45a.52.52,0,0,1-.46-.26,4.87,4.87,0,0,0-.32-.47,3.39,3.39,0,0,0-3.35-1.34,3.6,3.6,0,0,0-2.88,4.65,3.56,3.56,0,0,0,3.26,2.56,3.31,3.31,0,0,0,2.65-1,6.6,6.6,0,0,0,.64-.76.57.57,0,0,1,.51-.27c.44,0,.87,0,1.3,0a.54.54,0,0,1,.61.4Z"/><path class="cls-1" d="M19.38,48.15c.08.08.19,0,.29.06a6.52,6.52,0,0,1,1,.33,10.62,10.62,0,0,1,2.85,1.72,3.87,3.87,0,0,1,.53.54,1.61,1.61,0,0,1,.21.3.53.53,0,0,1-.12.76,3.46,3.46,0,0,1-.78.53,15.1,15.1,0,0,1-2.2.93,20.66,20.66,0,0,1-3.09.81,6,6,0,0,1-1.12.12,2.19,2.19,0,0,1-.36,0c-.31-.06-.41-.17-.47-.48a2.38,2.38,0,0,1,.08-1.06,10.8,10.8,0,0,1,1.6-3.56l.17-.22a2,2,0,0,1,.95-.75Zm-1,4.75a2.13,2.13,0,0,0,.25,0,19.23,19.23,0,0,0,2.85-.9,1.19,1.19,0,0,0,.46-.3.59.59,0,0,0-.07-1A9.15,9.15,0,0,0,20,49.57a1.19,1.19,0,0,0-1.46.44,8.66,8.66,0,0,0-.89,2.13.53.53,0,0,0,.34.68A1,1,0,0,0,18.39,52.9Z"/><path class="cls-1" d="M95.24,82.85c.09-.08,0-.14,0-.2L94,79.74c-.12-.27-.24-.55-.35-.83,0,0,0-.1-.1-.12l-.3,1.12c-.21.82-.43,1.65-.64,2.48-.06.21-.06.21-.28.21h-.6l1.65-6.28h0l1.88,4.46,1.89-4.52c.56,2.14,1.1,4.22,1.66,6.34h-.75c-.09,0-.09-.08-.11-.14-.1-.37-.2-.75-.29-1.13-.22-.83-.44-1.67-.65-2.5-.08,0-.08.07-.1.12-.54,1.26-1.07,2.51-1.6,3.77,0,0-.09.1,0,.14Z"/><path class="cls-1" d="M26.11,78.19a22.17,22.17,0,0,1-5.38-.71,7.63,7.63,0,0,1-1.55-.59,2.72,2.72,0,0,1-.61-.41,1.15,1.15,0,0,1-.38-.82,4.44,4.44,0,0,1,.28-1.57,16.59,16.59,0,0,1,1.65-3.42A17.65,17.65,0,0,1,22,68.07a7,7,0,0,1,1-1,2.81,2.81,0,0,1,.66-.41,1,1,0,0,1,.78,0,3.37,3.37,0,0,1,.83.51A11.92,11.92,0,0,1,27,69a23.87,23.87,0,0,1,3.3,5.45,7,7,0,0,1,.54,1.85,2.81,2.81,0,0,1,0,.29,1,1,0,0,1-.52.93,4,4,0,0,1-1.29.44A13.9,13.9,0,0,1,26.11,78.19Z"/><path class="cls-1" d="M15.1,70a4.37,4.37,0,0,1,1.3.15,1,1,0,0,1,.74.84,5.36,5.36,0,0,1,0,1.6,23.75,23.75,0,0,1-2.44,7.38,7.06,7.06,0,0,1-.82,1.27,2.81,2.81,0,0,1-.55.54.78.78,0,0,1-.72.11,2.24,2.24,0,0,1-.65-.34,5.69,5.69,0,0,1-1-.94,18.21,18.21,0,0,1-3.54-5.94,5.75,5.75,0,0,1-.25-1.09,1.37,1.37,0,0,1,.54-1.38A6.46,6.46,0,0,1,9,71.36a17.18,17.18,0,0,1,3.84-1.16A12.31,12.31,0,0,1,15.1,70Z"/><path class="cls-1" d="M65.21,62.6a.11.11,0,0,0,.12,0A5,5,0,0,1,68,61.5a5.83,5.83,0,0,1,4.23,1.18,5.53,5.53,0,0,1,2.23,5.07,5.78,5.78,0,0,1-4.8,5.16,5.52,5.52,0,0,1-4.39-1,4.76,4.76,0,0,1-1-1.07L63,69.1a.74.74,0,0,1-.15-.48q0-4.94,0-9.87a.54.54,0,0,1,.61-.59c.37,0,.75,0,1.12,0s.61.15.61.62V62.6Zm7.05,4.34a3.45,3.45,0,0,0-1-2.28,3.38,3.38,0,0,0-3-1,3.34,3.34,0,0,0-2.77,2,3.78,3.78,0,0,0-.26,2.5,3.6,3.6,0,0,0,4.2,2.69A3.73,3.73,0,0,0,72.26,66.94Z"/><path class="cls-1" d="M95.09,62.67v-.41a.48.48,0,0,1,.52-.54h1.23a.48.48,0,0,1,.51.53V68.7a.58.58,0,0,1-.12.36c-.45.61-.88,1.24-1.34,1.84a5,5,0,0,1-3.19,2,5.91,5.91,0,0,1-6.88-4.55,5.85,5.85,0,0,1,8-6.43,4.61,4.61,0,0,1,1.06.64S95,62.67,95.09,62.67Zm0,4.61c0-.11,0-.23,0-.34a4.51,4.51,0,0,0-.09-.53,3.52,3.52,0,0,0-3.86-2.78A3.68,3.68,0,0,0,88,67.45a3.68,3.68,0,0,0,4.27,3.36A3.66,3.66,0,0,0,95.1,67.28Z"/><path class="cls-1" d="M49.85,65.18h-.78a.5.5,0,0,1-.57-.48,1.2,1.2,0,0,0-1.1-1.06,1.66,1.66,0,0,0-1.59.53.66.66,0,0,0-.17.68.75.75,0,0,0,.32.38,3.42,3.42,0,0,0,.8.37c.53.19,1.09.31,1.63.49a8.13,8.13,0,0,1,1.56.64,3.47,3.47,0,0,1,.87.65,2.57,2.57,0,0,1,.7,2.16,1.92,1.92,0,0,1-.37.84,4.56,4.56,0,0,1-.77.81c-.25.2-.51.39-.77.57a10.37,10.37,0,0,0-1,.77,1.87,1.87,0,0,1-1.18.46,5.54,5.54,0,0,1-2.78-.51,3.51,3.51,0,0,1-2-2.19,3.34,3.34,0,0,1-.14-.94.47.47,0,0,1,.51-.52q.84,0,1.68,0a.49.49,0,0,1,.51.44,1.63,1.63,0,0,0,1.6,1.59,2.26,2.26,0,0,0,1.52-.36,1.44,1.44,0,0,0,.46-.49.91.91,0,0,0-.23-1.17,2.87,2.87,0,0,0-.75-.41c-.51-.21-1.05-.33-1.58-.49a9.39,9.39,0,0,1-1.53-.57l-.54-.32a2.66,2.66,0,0,1-1-3.32,3.43,3.43,0,0,1,1.53-1.66,4.33,4.33,0,0,1,2-.58,5,5,0,0,1,2.56.49,3.35,3.35,0,0,1,1.75,1.94,2.69,2.69,0,0,1,.14.75.46.46,0,0,1-.48.5c-.3,0-.6,0-.9,0Z"/><path class="cls-1" d="M98.07,68.84c0-1.1,0-2.2,0-3.3a.91.91,0,0,1,.15-.5c.39-.56.74-1.15,1.16-1.69a4.35,4.35,0,0,1,3.36-1.87,5,5,0,0,1,2.55.53,4.62,4.62,0,0,1,2.42,3.17,6.9,6.9,0,0,1,.18,1.63v5.32a1.55,1.55,0,0,1,0,.22.46.46,0,0,1-.43.4c-.46,0-.92,0-1.37,0a.45.45,0,0,1-.44-.42,2.44,2.44,0,0,1,0-.27V66.83a4.18,4.18,0,0,0-.22-1.49,2.46,2.46,0,0,0-1.85-1.67,2.65,2.65,0,0,0-2.78,1.13,2.43,2.43,0,0,0-.35,1.23c0,.25,0,.5,0,.76v5.27a2.08,2.08,0,0,1,0,.25.48.48,0,0,1-.47.44c-.47,0-.93,0-1.4,0a.47.47,0,0,1-.47-.49V68.84Z"/><path class="cls-1" d="M28.2,59.3a24.39,24.39,0,0,1,3.87.41,20.92,20.92,0,0,1,3.21.8,8.52,8.52,0,0,1,1.17.49,3.46,3.46,0,0,1,.47.31.9.9,0,0,1,.33,1,3.52,3.52,0,0,1-.39,1,10.26,10.26,0,0,1-1,1.49,18,18,0,0,1-3.59,3.33,6.76,6.76,0,0,1-1.58.87,2.59,2.59,0,0,1-.78.17,1.12,1.12,0,0,1-.67-.19,2.45,2.45,0,0,1-.63-.57,8.22,8.22,0,0,1-1.11-1.69,17.19,17.19,0,0,1-1.64-4.6,5.65,5.65,0,0,1-.12-1.36,1.37,1.37,0,0,1,0-.29,1,1,0,0,1,.92-1A7.16,7.16,0,0,1,28.2,59.3Zm2.22,7a1.52,1.52,0,0,0,1-.33A18.11,18.11,0,0,0,34,63.53,1,1,0,0,0,33.85,62a1.83,1.83,0,0,0-.8-.4,25.84,25.84,0,0,0-3.72-.65,1.91,1.91,0,0,0-.63,0,1.07,1.07,0,0,0-.87,1.4,18.23,18.23,0,0,0,1.23,3.12A1.57,1.57,0,0,0,30.42,66.33Z"/><path class="cls-1" d="M61.83,65.64c0,1.08,0,2.16,0,3.25a.86.86,0,0,1-.19.58c-.3.38-.57.78-.86,1.16l-.39.57a3.61,3.61,0,0,1-2.2,1.62,5.57,5.57,0,0,1-3,0,4.09,4.09,0,0,1-2.86-2.74,6.3,6.3,0,0,1-.34-1.87c0-.6,0-1.2,0-1.81v-4a1.62,1.62,0,0,1,0-.22.44.44,0,0,1,.41-.41h1.4a.45.45,0,0,1,.43.42,1.62,1.62,0,0,1,0,.22v5.38a4.11,4.11,0,0,0,.18,1.35,2.4,2.4,0,0,0,2.74,1.75,2.51,2.51,0,0,0,2.26-2.14,4.7,4.7,0,0,0,.1-1.06V62.17a.45.45,0,0,1,.44-.44h1.37a.44.44,0,0,1,.44.44,1.61,1.61,0,0,1,0,.22Z"/><path class="cls-1" d="M1.38,71.69a10.78,10.78,0,0,1,.29-2.2,20.59,20.59,0,0,1,1.27-4,7.56,7.56,0,0,1,.47-.89,3.05,3.05,0,0,1,.22-.32,1.11,1.11,0,0,1,1.25-.48A5.09,5.09,0,0,1,6,64.19a10.86,10.86,0,0,1,3.1,2.18,4.35,4.35,0,0,1,.62.73,3.14,3.14,0,0,1,.25.44,1,1,0,0,1-.1,1.12,4.66,4.66,0,0,1-.81.85,14,14,0,0,1-1.95,1.38,19,19,0,0,1-3.66,1.77,7.18,7.18,0,0,1-1,.25,2.47,2.47,0,0,1-.47,0,.53.53,0,0,1-.56-.44A2.17,2.17,0,0,1,1.38,71.69Z"/><path class="cls-1" d="M78,61.71a.64.64,0,0,0,.24,0H80c.38,0,.56.18.56.56v1a.48.48,0,0,1-.54.54H78.18c-.27,0-.25,0-.25.24V70a1.34,1.34,0,0,1-.12.56c-.29.6-.57,1.21-.84,1.82a.54.54,0,0,1-.57.36,2.43,2.43,0,0,1-.27,0,.47.47,0,0,1-.45-.46,1.61,1.61,0,0,1,0-.22V64c0-.18,0-.18-.19-.18h-.86a.46.46,0,0,1-.52-.53c0-.36,0-.71,0-1.07a.47.47,0,0,1,.52-.52h.92c.13,0,.17,0,.18-.17a5.68,5.68,0,0,1,.11-.72,3.15,3.15,0,0,1,2-2.27A5.33,5.33,0,0,1,80,58.22a.5.5,0,0,1,.51.52c0,.4,0,.79,0,1.19a.48.48,0,0,1-.56.5,2.54,2.54,0,0,0-1.13.15,1.22,1.22,0,0,0-.85,1A.13.13,0,0,0,78,61.71Z"/><path class="cls-1" d="M110,68.13V64.05c0-.2,0-.2-.2-.2h-1.44a.44.44,0,0,1-.46-.44c0-.41,0-.81,0-1.22a.44.44,0,0,1,.47-.45h1.4c.25,0,.23,0,.23-.24V58.67a.47.47,0,0,1,.51-.5c.39,0,.79,0,1.19,0a.48.48,0,0,1,.55.54c0,.36,0,.73,0,1.1v1.68c0,.27,0,.23.24.23h1.72a.45.45,0,0,1,.46.47,11.81,11.81,0,0,1,0,1.19.44.44,0,0,1-.49.46h-1.66c-.29,0-.27-.05-.27.25q0,3,0,6.06a1.13,1.13,0,0,1-.13.54c-.26.56-.53,1.12-.78,1.68a.54.54,0,0,1-.59.37,2.8,2.8,0,0,1-.29,0,.47.47,0,0,1-.47-.46V68.13Z"/><path class="cls-1" d="M8.81,59.36a8.45,8.45,0,0,1-.24,2.25,3.89,3.89,0,0,1-.16.44,1.07,1.07,0,0,1-.78.66,4.47,4.47,0,0,1-1.5.09A10.56,10.56,0,0,1,2.94,62a3.91,3.91,0,0,1-1-.53.67.67,0,0,1-.21-1,3.75,3.75,0,0,1,.49-.64,18.49,18.49,0,0,1,4.37-3.56,4.26,4.26,0,0,1,.75-.35.62.62,0,0,1,.84.33,3.36,3.36,0,0,1,.39,1.14c.06.31.11.61.14.92A5.94,5.94,0,0,1,8.81,59.36Z"/><path class="cls-1" d="M31.78,55.59a6.58,6.58,0,0,1-.17,1.51,2.57,2.57,0,0,1-.21.52,1,1,0,0,1-.83.55,5.58,5.58,0,0,1-1.63-.12,19.14,19.14,0,0,1-4.87-1.69A7.93,7.93,0,0,1,23,55.71a2.8,2.8,0,0,1-.41-.35.61.61,0,0,1-.06-.94,3.61,3.61,0,0,1,.42-.45,9.64,9.64,0,0,1,1.15-.87,19,19,0,0,1,4.51-2.24,4,4,0,0,1,1.19-.23.9.9,0,0,1,.72.3,2.66,2.66,0,0,1,.47.68,7.51,7.51,0,0,1,.61,2A11.25,11.25,0,0,1,31.78,55.59ZM29.91,55a10.13,10.13,0,0,0-.26-2,.88.88,0,0,0-.65-.69,1.52,1.52,0,0,0-1.07.08,18.51,18.51,0,0,0-2.7,1.46.83.83,0,0,0-.21.16.72.72,0,0,0,.17,1.23l.17.09c.42.18.84.35,1.27.51a14.16,14.16,0,0,0,1.79.54,1.37,1.37,0,0,0,1.11-.24.83.83,0,0,0,.38-.7C29.92,55.33,29.91,55.17,29.91,55Z"/><path class="cls-1" d="M13.67,50.94a6.37,6.37,0,0,1,1.15.09,1.47,1.47,0,0,1,.42.13.35.35,0,0,1,.2.36,2,2,0,0,1-.15.54,8.69,8.69,0,0,1-.86,1.47,15.9,15.9,0,0,1-2.27,2.64,6.12,6.12,0,0,1-.91.7.86.86,0,0,1-1.1-.07,3,3,0,0,1-.66-.68,7.05,7.05,0,0,1-1.2-2.8,2.82,2.82,0,0,1,0-.71A.83.83,0,0,1,8.67,52a3.39,3.39,0,0,1,.78-.35,14.26,14.26,0,0,1,2.5-.53C12.52,51,13.09,51,13.67,50.94Z"/><path class="cls-1" d="M80.65,68.85c0-1.1,0-2.2,0-3.3a.8.8,0,0,1,.18-.54l.92-1.26a6.1,6.1,0,0,0,.4-.59,3.29,3.29,0,0,1,2.56-1.62l.63-.06a.46.46,0,0,1,.52.49c0,.44,0,.89,0,1.34a.45.45,0,0,1-.44.49c-.25.05-.51.06-.77.13A2.36,2.36,0,0,0,83,66q0,.34,0,.69v5.42a1.62,1.62,0,0,1,0,.22.46.46,0,0,1-.46.45c-.24,0-.49,0-.73,0s-.41,0-.61,0a.48.48,0,0,1-.53-.53Z"/><path class="cls-1" d="M114.91,67.24V62.37a1.62,1.62,0,0,1,0-.22.46.46,0,0,1,.46-.42h1.34a.45.45,0,0,1,.45.46v8a1.21,1.21,0,0,1-.13.59c-.28.54-.55,1.09-.8,1.64a.55.55,0,0,1-.6.37,2.25,2.25,0,0,1-.26,0,.47.47,0,0,1-.46-.46,1.61,1.61,0,0,1,0-.22Z"/><path class="cls-1" d="M102.34,76.54h.81a.64.64,0,0,1,0,.27v3.47a2.37,2.37,0,0,0,.1.7,1.33,1.33,0,0,0,1.29,1,2.18,2.18,0,0,0,.51,0,1.33,1.33,0,0,0,1.12-1.25,3.17,3.17,0,0,0,0-.44V76.63c0-.07,0-.1.1-.1H107c.08,0,.11,0,.11.12v3.59a3,3,0,0,1-.13,1,2.11,2.11,0,0,1-1.78,1.54,2.7,2.7,0,0,1-1.06,0,2.1,2.1,0,0,1-1.66-1.67,3.47,3.47,0,0,1-.1-.85V76.67S102.34,76.59,102.34,76.54Z"/><path class="cls-1" d="M114.64,77.21l-.55.45a.12.12,0,0,1-.2,0c0-.05-.1-.09-.15-.14a1.28,1.28,0,0,0-1.36-.23.75.75,0,0,0-.3.17.59.59,0,0,0,0,.85,1.4,1.4,0,0,0,.36.28,7.36,7.36,0,0,0,.75.36,3.86,3.86,0,0,1,.94.55,1.81,1.81,0,0,1,.68,1.89,1.76,1.76,0,0,1-1.39,1.37,2.28,2.28,0,0,1-2.66-1.52c0-.07,0-.12.07-.14A1.55,1.55,0,0,0,111,81c.16,0,.33-.14.47-.11s.16.24.25.37a1.37,1.37,0,0,0,1.44.59.92.92,0,0,0,.6-1.44,1.38,1.38,0,0,0-.52-.47,7.27,7.27,0,0,0-.75-.35,3.81,3.81,0,0,1-.7-.35,1.79,1.79,0,0,1-.77-1.11,1.36,1.36,0,0,1,.28-1.15,1.76,1.76,0,0,1,1.36-.68,2.34,2.34,0,0,1,1.89.74A.24.24,0,0,1,114.64,77.21Z"/><path class="cls-1" d="M128.26,81.41v.86c0,.11-.07.13-.15.16a3.59,3.59,0,0,1-2,.35,3.26,3.26,0,0,1-2.78-1.94,3.11,3.11,0,0,1,1.37-4.08,3.47,3.47,0,0,1,2.34-.39,5.06,5.06,0,0,1,1.06.29.19.19,0,0,1,.15.23c0,.25,0,.5,0,.77l-.36-.15a3.71,3.71,0,0,0-1.23-.31,2.46,2.46,0,0,0-2.62,1.64,2.35,2.35,0,0,0,1.74,3,3.17,3.17,0,0,0,2.16-.27Z"/><path class="cls-1" d="M117.16,59.82v1c0,.39-.17.57-.56.57h-1.15a.49.49,0,0,1-.54-.54c0-.74,0-1.47,0-2.2a.48.48,0,0,1,.53-.53c.4,0,.8,0,1.19,0a.47.47,0,0,1,.53.53Z"/><path class="cls-1" d="M119.35,79.58v2.81c0,.2,0,.2-.2.21h-.49c-.1,0-.16,0-.14-.14V76.65c0-.12,0-.14.14-.14h.54c.13,0,.15,0,.15.16a2.8,2.8,0,0,0,0,.29Z"/></svg>