<svg id="Layer_45" data-name="Layer 45" xmlns="http://www.w3.org/2000/svg" viewBox="0 0 131 131"><defs><style>.cls-1{fill:#ef8429;}</style></defs><path class="cls-1" d="M73.33,79.38a6.56,6.56,0,0,1-4-1.15,4.67,4.67,0,0,1-1.69-2.18,2.59,2.59,0,0,1,.94-2.77c.63-.5,1.19-1.08,1.79-1.62.35-.32.7-.66,1.08-1a3,3,0,0,1,1.69-.56,6.62,6.62,0,0,0,1.68-.25,2.39,2.39,0,0,0,1.56-2.07,2.94,2.94,0,0,0-.92-2.71,2.65,2.65,0,0,0-1.72-.76,9.53,9.53,0,0,0-2.61.14,2,2,0,0,1-.64,0c-.75-.08-1.49-.18-2.23-.27l-.59,0c-.82,0-1.65,0-2.47,0a10.67,10.67,0,0,0-1.8.22,14.55,14.55,0,0,1-3.89.27c-.53,0-1.05-.19-1.58-.27a3.26,3.26,0,0,0-2,.15,1.84,1.84,0,0,0-1.2,2.18A3,3,0,0,0,56.22,69a3.47,3.47,0,0,0,1.1.36,5.38,5.38,0,0,1,3,1.18c.75.71,1.58,1.35,2.32,2.07a3.4,3.4,0,0,1,1,2.36,3.92,3.92,0,0,1-.88,2.53,5.52,5.52,0,0,1-2.5,1.69,8.74,8.74,0,0,1-3.11.47,9.12,9.12,0,0,1-4.68-1.11,7.16,7.16,0,0,1-2.92-3.12,3.72,3.72,0,0,1-.32-1.24,8.84,8.84,0,0,1,.6-3.45,2.78,2.78,0,0,0,.16-1,1.54,1.54,0,0,0-1.12-1.31c-.31-.12-.64-.22-.94-.37a2.9,2.9,0,0,1-1.53-1.84,3.08,3.08,0,0,1,.81-3.2,8.44,8.44,0,0,0,.7-.88.84.84,0,0,0-.18-1.2,2.38,2.38,0,0,0-.79-.41c-.72-.19-1.47-.27-2.17-.53a7.65,7.65,0,0,1-3.26-2.07,5.66,5.66,0,0,1-1.35-3A21.1,21.1,0,0,1,40,52.62a6,6,0,0,1,.31-1.88c.28-.94.57-1.87.85-2.81a22.37,22.37,0,0,1,1.3-3.26c.22-.47.41-1,.61-1.43a14.16,14.16,0,0,1,1.42-2.4c.33-.48.62-1,.93-1.49a9.86,9.86,0,0,1,1.34-1.81,2.23,2.23,0,0,0,.49-.81.83.83,0,0,0-.4-1.11,6.62,6.62,0,0,0-1.39-.52,3.48,3.48,0,0,1-2.22-1.64,13.82,13.82,0,0,1-.69-1.39,18.5,18.5,0,0,0-1.68-3.21A4.54,4.54,0,0,0,39,27.3a4.82,4.82,0,0,0-2.26-.56,5.75,5.75,0,0,0-1.9.5A6.54,6.54,0,0,0,31.1,31a3.57,3.57,0,0,0-.29,1.88,3.82,3.82,0,0,0,.44,1.24,1.08,1.08,0,0,0,1.84.23,16.32,16.32,0,0,0,1.07-1.27,4.76,4.76,0,0,1,2.16-1.68,3.4,3.4,0,0,1,4.3,2,2.29,2.29,0,0,1-1.25,3c-1.35.79-2.75,1.5-4.13,2.26-.23.13-.45.28-.67.42a4.07,4.07,0,0,1-2.1.74A2.78,2.78,0,0,1,30.52,39a7,7,0,0,1-1.42-2A22.21,22.21,0,0,1,28,34.62,7.14,7.14,0,0,1,27.59,33c-.1-.68-.15-1.35-.19-2a7.81,7.81,0,0,1,.71-3.53,8.64,8.64,0,0,1,1.74-2.69,5.22,5.22,0,0,1,2.27-1.38,20.27,20.27,0,0,1,2.15-.62,8.61,8.61,0,0,1,3-.14,10.09,10.09,0,0,1,4.13,1.91,14.45,14.45,0,0,1,1.2,1,9.44,9.44,0,0,1,2,3c.37.73.67,1.5,1,2.26a5.31,5.31,0,0,0,.37,1,2.69,2.69,0,0,0,1.86,1.12,3.67,3.67,0,0,0,2.46-.44c.82-.42,1.65-.8,2.42-1.28A5.57,5.57,0,0,1,55,30.4a26.22,26.22,0,0,1,2.94-.18,6.94,6.94,0,0,1,3,.48,22.69,22.69,0,0,1,2,1.06c.48.28.93.61,1.42.87a5.06,5.06,0,0,0,1.13.46,2,2,0,0,0,1.3-.24c.46-.19.89-.44,1.35-.66a8.52,8.52,0,0,1,2.69-.78,34.62,34.62,0,0,1,3.81-.1,9.13,9.13,0,0,1,2.09.17A15.12,15.12,0,0,1,81,33a7.32,7.32,0,0,0,1.54.59,2.27,2.27,0,0,0,2.57-1.33,6.68,6.68,0,0,0,.33-1.28A7.19,7.19,0,0,1,86,29.27a6.85,6.85,0,0,1,2.62-3c.91-.6,1.87-1.12,2.82-1.66a6.93,6.93,0,0,1,2-.65,12.07,12.07,0,0,1,1.59-.17,6.66,6.66,0,0,1,3.6.83A14.14,14.14,0,0,1,100.9,26a8.15,8.15,0,0,1,2.53,3.6,6,6,0,0,1,.49,1.68,12.84,12.84,0,0,1,.11,3.16,18.16,18.16,0,0,1-1.48,4.33,3.27,3.27,0,0,1-2.4,2,3.59,3.59,0,0,1-2.51-.3c-.55-.29-1.07-.64-1.61-1-1.26-.75-2.51-1.51-3.78-2.23a2.15,2.15,0,0,1-.69-3.11,3.24,3.24,0,0,1,2-1.41,5.71,5.71,0,0,1,1.89-.24,3.11,3.11,0,0,1,2.62,1.68,5.22,5.22,0,0,0,.43.68.92.92,0,0,0,1.67-.16,2.29,2.29,0,0,0,.19-.77A7.19,7.19,0,0,0,99,29.31a3.64,3.64,0,0,0-2.06-1.38,5.32,5.32,0,0,0-3.11,0,5.81,5.81,0,0,0-3.6,2.77,24.33,24.33,0,0,0-.94,2.25,6.64,6.64,0,0,1-.8,1.57,4.55,4.55,0,0,1-2.77,1.58,3.61,3.61,0,0,0-.8.28,1,1,0,0,0-.39,1.44,5.37,5.37,0,0,0,.74,1.11c.46.59.94,1.17,1.42,1.75a23.9,23.9,0,0,1,2.11,3.23c.48.81,1,1.64,1.38,2.48A8.57,8.57,0,0,1,91,49c.13.94.38,1.88.58,2.81a6.87,6.87,0,0,1,.1,3.28c-.19.72-.36,1.45-.55,2.17a4.58,4.58,0,0,1-2,2.63c-.76.49-1.57.92-2.37,1.35-.4.22-.85.35-1.27.56A1.41,1.41,0,0,0,84.63,63a4.14,4.14,0,0,0,.18,1.09,12.51,12.51,0,0,1,.4,1.66,3.31,3.31,0,0,1-1.4,3.11,8.56,8.56,0,0,0-1,.9,2.32,2.32,0,0,0-.59,1.57c0,.46,0,.93,0,1.4a4.35,4.35,0,0,1-1.2,3,11.6,11.6,0,0,1-4.74,3.21,7.81,7.81,0,0,1-1.47.29C74.32,79.29,73.82,79.33,73.33,79.38ZM79,51.83a7.72,7.72,0,0,0,1.11-.16,4.3,4.3,0,0,0,1.78-1.05,13.85,13.85,0,0,1,1.27-1.16,13.29,13.29,0,0,1,1.76-1,1.42,1.42,0,0,0,.62-2,6.13,6.13,0,0,0-.88-1.27,5.55,5.55,0,0,0-3-1.69,6.82,6.82,0,0,0-3.33.1,27,27,0,0,0-2.92,1,6.9,6.9,0,0,0-1.74.92,6.77,6.77,0,0,0-2,2.58,3,3,0,0,0,1,3.75,1.64,1.64,0,0,0,1.27.31c.35-.06.68-.2,1-.26a8,8,0,0,1,1.37-.17C77.18,51.68,78,51.76,79,51.83ZM60,49.38a14.68,14.68,0,0,0-.38-1.52A5.62,5.62,0,0,0,58,45.62a20.82,20.82,0,0,0-5-3.19A4,4,0,0,0,51.34,42,5.1,5.1,0,0,0,48,43.05a3.9,3.9,0,0,0-1.56,2.19,1.65,1.65,0,0,0,0,.88,3.16,3.16,0,0,0,1.21,1.47,14.56,14.56,0,0,1,1.39,1.33,7.36,7.36,0,0,0,1.82,1.57,4,4,0,0,0,2.34.65c.48,0,1,0,1.45,0a6.1,6.1,0,0,1,1.9.21c.39.13.78.26,1.18.36a1.56,1.56,0,0,0,1.94-1C59.83,50.24,59.88,49.83,60,49.38Z"/><path class="cls-1" d="M25.27,32.64c0,.31,0,.61,0,.92a8.73,8.73,0,0,0,.37,2.64,15.93,15.93,0,0,0,.55,1.94A13.11,13.11,0,0,0,27.81,41a10.54,10.54,0,0,1,.54.92,2.89,2.89,0,0,1-.84,3.68,1.88,1.88,0,0,1-2.63-.08,9.45,9.45,0,0,1-1.69-2.27,15.53,15.53,0,0,1-1.48-3.43c-.3-.84-.64-1.66-.93-2.5-.18-.52-.3-1.06-.44-1.59s-.34-1.31-.48-2a6.62,6.62,0,0,1-.18-1.17,15.66,15.66,0,0,1,.07-3.21c.09-.53.18-1.06.22-1.6a8.48,8.48,0,0,1,.69-2.67,19.54,19.54,0,0,1,2-3.87,11.35,11.35,0,0,1,5.19-4.09c1.24-.49,2.5-.94,3.78-1.33a13.19,13.19,0,0,1,2.26-.39c.81-.09,1.64-.13,2.46-.15a13,13,0,0,1,2.77.29c.75.14,1.51.23,2.25.42A8.16,8.16,0,0,1,44,17.26a26.06,26.06,0,0,1,3.86,3.25,12.23,12.23,0,0,1,2.26,3.43,2.29,2.29,0,0,1,.19,1.52,1.68,1.68,0,0,1-2.42,1.19,3.07,3.07,0,0,1-1.13-.89c-.33-.37-.64-.77-1-1.13a15.46,15.46,0,0,0-4.36-3,9,9,0,0,0-1.85-.49c-1-.23-2-.12-2.93-.27a6.74,6.74,0,0,0-3.56.54,10.74,10.74,0,0,0-2.46,1.41c-.75.57-1.54,1.11-2.26,1.73a9.5,9.5,0,0,0-2.61,3.87,4.53,4.53,0,0,0-.3,1.46c0,.91-.12,1.82-.19,2.73Z"/><path class="cls-1" d="M112.24,33.1a24.33,24.33,0,0,1-.22,2.56,9.17,9.17,0,0,1-.58,1.82A42.83,42.83,0,0,1,109,42.29a13.4,13.4,0,0,1-2,3,5.44,5.44,0,0,1-.69.67,1.65,1.65,0,0,1-2.7-1,3.6,3.6,0,0,1,.32-2.38c.58-1.43,1.2-2.86,1.76-4.3a12.69,12.69,0,0,0,.66-2.8c.12-.84.11-1.68.16-2.51a9.82,9.82,0,0,0-1.3-5,9.6,9.6,0,0,0-2.94-3.36,17.17,17.17,0,0,0-2.61-1.78,10,10,0,0,0-3.07-1A6.63,6.63,0,0,0,94,21.8a12.25,12.25,0,0,0-1.51.32c-1,.4-2,.88-2.92,1.35A22,22,0,0,0,84.64,27c-.38.33-.78.64-1.18.94a1.93,1.93,0,0,1-1.65.21,1.48,1.48,0,0,1-1-1.36,2.7,2.7,0,0,1,.23-1.46,16.76,16.76,0,0,1,2-3.4A9.72,9.72,0,0,1,86,19.61q2.49-1.37,5.06-2.56a12.67,12.67,0,0,1,2.21-.61c.32-.08.67-.11,1-.19a6.57,6.57,0,0,1,2,0,7.72,7.72,0,0,1,.78.16,29.65,29.65,0,0,1,3.51.63c.54.17,1.1.3,1.64.48a8.44,8.44,0,0,1,2.49,1.54,19.63,19.63,0,0,1,4.1,4.24,22.13,22.13,0,0,1,3,6.13A11.81,11.81,0,0,1,112.24,33.1Z"/><path class="cls-1" d="M41,7a11.93,11.93,0,0,1,5.33,1.23,17.78,17.78,0,0,1,6.39,5.21,37.32,37.32,0,0,1,4,6c.46.87,1,1.72,1.36,2.61A3.28,3.28,0,0,1,58,25.21a2.44,2.44,0,0,1-2.25.93,4.87,4.87,0,0,1-3.09-2.23c-.83-1.27-1.6-2.58-2.42-3.86a13.84,13.84,0,0,0-4.51-4.3,26,26,0,0,0-4.35-2.17,8.13,8.13,0,0,0-2.12-.47,7.32,7.32,0,0,1-3.51-1,1.76,1.76,0,0,1-.31-2.47,7.22,7.22,0,0,1,.84-.82A8.43,8.43,0,0,1,39,7.28,5,5,0,0,1,41,7Z"/><path class="cls-1" d="M111.24,66.13a4.41,4.41,0,0,1-.2,1.41,1.32,1.32,0,0,1-2.07.62,2.41,2.41,0,0,1-.66-.69c-.32-.54-.57-1.11-.86-1.66s-.64-1.28-1-1.88c-.68-1.11-1.36-2.23-2.12-3.29-.91-1.25-1.57-2.64-2.39-3.94a33.4,33.4,0,0,0-3.38-4.77c-.87-1-1.82-1.82-2.77-2.69S94,47.82,93.2,47.05a13,13,0,0,1-2.66-3.62,10.2,10.2,0,0,1-.62-1.53,1.91,1.91,0,0,1,0-.95,1.52,1.52,0,0,1,2-1,10.17,10.17,0,0,1,1.67.7A15.55,15.55,0,0,1,97.2,43c.72.64,1.43,1.3,2.13,2,.88.84,1.78,1.67,2.62,2.55a19.16,19.16,0,0,1,1.67,2c.79,1.1,1.54,2.24,2.26,3.39.43.67.76,1.41,1.16,2.11.62,1.11,1.26,2.2,1.89,3.3A11.64,11.64,0,0,1,110,61.05c.22.84.49,1.67.73,2.51.08.29.18.58.23.87C111.09,65,111.17,65.63,111.24,66.13Z"/><path class="cls-1" d="M41.15,41.66a7.18,7.18,0,0,1-.37,1.12,14.6,14.6,0,0,1-3.69,4.88c-.51.42-1.05.8-1.56,1.22s-.78.73-1.17,1.1a25.67,25.67,0,0,0-4,4.73c-1,1.57-1.91,3.19-2.88,4.78-.4.65-.89,1.25-1.3,1.89-.84,1.35-1.68,2.71-2.48,4.08-.37.63-.62,1.33-1,2a2,2,0,0,1-.69.73,1.42,1.42,0,0,1-2.2-1A5.55,5.55,0,0,1,20,64.71c.34-1.56.85-3.08,1.32-4.61a12.91,12.91,0,0,1,1.26-2.59c.52-.93,1.08-1.85,1.56-2.81a26.74,26.74,0,0,1,2-3.23c.36-.52.66-1.07,1-1.58a19.63,19.63,0,0,1,1.69-2.14c1.54-1.55,3.15-3,4.73-4.55a17.42,17.42,0,0,1,2.67-1.85,24.44,24.44,0,0,1,2.25-1.22,2.3,2.3,0,0,1,1.13-.27C40.55,39.89,41.16,40.46,41.15,41.66Z"/><path class="cls-1" d="M73.4,24.83c.15-.53.25-1.08.45-1.59A12.15,12.15,0,0,1,75.67,20c.43-.54.78-1.15,1.21-1.7.65-.83,1.34-1.64,2-2.46l1.83-2.32a13,13,0,0,1,2.17-2.22,11.58,11.58,0,0,1,3.35-1.77,17.11,17.11,0,0,1,1.87-.63,10.76,10.76,0,0,1,4.34-.31,8.36,8.36,0,0,1,4.81,2.71,2,2,0,0,1,.5,2.16,1.43,1.43,0,0,1-.86.9,11,11,0,0,1-1.6.4,23.13,23.13,0,0,1-3,.19,11,11,0,0,0-2.05.34c-.77.17-1.5.44-2.26.62a10.15,10.15,0,0,0-3.51,1.79,24.57,24.57,0,0,0-3.57,3.42,9.93,9.93,0,0,0-1.14,1.75c-.47.76-.89,1.55-1.37,2.31a4,4,0,0,1-1.74,1.62,2.42,2.42,0,0,1-2.7-.54A2.36,2.36,0,0,1,73.4,24.83Z"/><path class="cls-1" d="M93,57.75a3.08,3.08,0,0,1,.47-2,2.08,2.08,0,0,1,2.06-1.08,3.51,3.51,0,0,1,1.39.52,13.11,13.11,0,0,1,3.35,2.91c.76,1,1.56,2,2.28,3a23.28,23.28,0,0,1,2.7,5c.53,1.36,1.1,2.7,1.59,4.07.32.89.54,1.81.79,2.71.16.55.3,1.1.43,1.65a10.57,10.57,0,0,1,.23,1.25,11,11,0,0,1,.15,2,9.41,9.41,0,0,1-.35,2.1,1.84,1.84,0,0,1-.86,1.11,1.47,1.47,0,0,1-1.94-.45,7.33,7.33,0,0,1-.72-1.59,37.68,37.68,0,0,0-1.81-5c-.52-1.14-1-2.27-1.58-3.4a20.78,20.78,0,0,0-3.08-4.37,47.19,47.19,0,0,1-3.33-4q-.75-1.14-1.38-2.34A3.36,3.36,0,0,1,93,57.75Z"/><path class="cls-1" d="M22.43,77.14a11.37,11.37,0,0,1,.51-2.85c.21-.84.4-1.69.66-2.52s.59-1.83.94-2.73c.61-1.57,1.19-3.16,1.91-4.69a25.93,25.93,0,0,1,3.28-5.08A20.6,20.6,0,0,1,31.65,57a14,14,0,0,1,2.45-1.9A2.59,2.59,0,0,1,36.85,55,2.2,2.2,0,0,1,38,56.84a12.2,12.2,0,0,1,0,1.71,3.72,3.72,0,0,1-.69,1.83c-.76,1.13-1.57,2.22-2.41,3.29-1,1.35-2.15,2.67-3.25,4a19.08,19.08,0,0,0-2.51,4.12,42.47,42.47,0,0,0-2.36,6c-.21.68-.44,1.35-.7,2a1.79,1.79,0,0,1-1,1.13,1.3,1.3,0,0,1-1.57-.28,2.67,2.67,0,0,1-.78-1.49C22.58,78.48,22.52,77.81,22.43,77.14Z"/><path class="cls-1" d="M104,87c0,.83,0,1.39,0,1.94a2.19,2.19,0,0,1-.29,1.13,1.6,1.6,0,0,1-2.64.45,5,5,0,0,1-1.18-2,9.23,9.23,0,0,1-.37-1.94,8.28,8.28,0,0,0-.77-2.6c-.42-.83-.73-1.7-1.11-2.55-.28-.6-.58-1.18-.9-1.76-.61-1.08-1.29-2.11-1.83-3.21a20.32,20.32,0,0,0-2.07-3.17,15.34,15.34,0,0,1-1.62-3,15.18,15.18,0,0,1-.74-1.94,4.09,4.09,0,0,1,.25-3,1.47,1.47,0,0,1,1-.81,2.19,2.19,0,0,1,1.57.09,8.83,8.83,0,0,1,2.23,1.55c.71.7,1.45,1.39,2.15,2.1a16.54,16.54,0,0,1,2.2,3.18,17.07,17.07,0,0,1,1.37,3.13,28.57,28.57,0,0,1,1.07,3.52c.21.93.53,1.84.82,2.75a14.89,14.89,0,0,1,.52,2.29A19.27,19.27,0,0,1,104,87Z"/><path class="cls-1" d="M40.67,67.33a4.15,4.15,0,0,1-.52,2.28,19.51,19.51,0,0,1-1.81,3.52c-.58.79-1.17,1.58-1.7,2.4-.66,1-1.29,2.07-1.85,3.14a45.7,45.7,0,0,0-2.14,4.6c-.28.73-.64,1.43-.9,2.17a7.24,7.24,0,0,0-.28,1.46,6.34,6.34,0,0,1-1.36,3.49,1.75,1.75,0,0,1-2.28.38,2,2,0,0,1-.79-1.3A5.16,5.16,0,0,1,27,87.29c0-.14,0-.29,0-.43.06-1,.07-2,.2-3a18.36,18.36,0,0,1,.71-3.17c.3-.92.54-1.87.81-2.8s.51-1.74.82-2.59a28.29,28.29,0,0,1,1.19-3,15.49,15.49,0,0,1,2.49-3.8c.47-.49,1-.92,1.5-1.38s.68-.68,1-1a6.12,6.12,0,0,1,1.91-1.36,2.14,2.14,0,0,1,2.23.26,2.37,2.37,0,0,1,.74,1.56A5.09,5.09,0,0,1,40.67,67.33Z"/><path class="cls-1" d="M81.83,5.31a4.83,4.83,0,0,1,2,.33,1.34,1.34,0,0,1,.73,2,3.12,3.12,0,0,1-.7.93c-1,.92-2,1.83-3,2.72-.74.65-1.53,1.25-2.28,1.87a17.59,17.59,0,0,0-4.34,5.14,42.72,42.72,0,0,0-2.06,4.58,8.86,8.86,0,0,1-1.27,2.29,2.24,2.24,0,0,1-3,.59,2.19,2.19,0,0,1-.81-1A3.57,3.57,0,0,1,67,22.48q.75-3,1.62-6a22.62,22.62,0,0,1,1.35-3.83A18.74,18.74,0,0,1,71.77,9.8,10.67,10.67,0,0,1,74,7.5a11.74,11.74,0,0,1,6.1-2C80.69,5.46,81.26,5.36,81.83,5.31Z"/><path class="cls-1" d="M98,93.26c-.13,1-.28,2-.38,3a7.57,7.57,0,0,1-.38,1.76,5.55,5.55,0,0,1-1.39,2.14,2.25,2.25,0,0,1-2.49.38,2,2,0,0,1-.86-.92,4.89,4.89,0,0,1-.42-2.87,10.06,10.06,0,0,0,0-3c0-.21,0-.43-.06-.64a10.09,10.09,0,0,0-.74-3.43c-.86-2-1.73-4.06-2.57-6.1-.33-.82-.63-1.66-.9-2.51a11.92,11.92,0,0,1-.26-1.35c-.1-.51-.22-1-.3-1.51a3,3,0,0,1,.62-2.42,1.91,1.91,0,0,1,2.06-.49,4,4,0,0,1,2,1.57c.36.54.79,1,1.15,1.55s.72,1.23,1.09,1.84a24,24,0,0,1,1.77,3.94,20.34,20.34,0,0,1,.63,2.19c.19.76.38,1.51.56,2.27s.29,1.32.44,2c.09.45.21.9.28,1.35s.06.86.09,1.28Z"/><path class="cls-1" d="M33.05,93.28c.11-.63.22-1.37.36-2.1.17-1,.35-1.89.55-2.83.17-.78.38-1.55.56-2.33a26.74,26.74,0,0,1,2-5.13A19,19,0,0,1,38,78.34a20.55,20.55,0,0,1,1.37-1.85A3,3,0,0,1,42,75.19a1.6,1.6,0,0,1,1.44.88,3.33,3.33,0,0,1,.34,2.42c-.2.77-.25,1.57-.45,2.34a20.1,20.1,0,0,1-.78,2.26c-.75,1.85-1.53,3.69-2.28,5.53-.32.79-.64,1.58-.92,2.39a5,5,0,0,0-.22,1.15A22.29,22.29,0,0,0,39,96.92a4.61,4.61,0,0,1-.52,2.9,2,2,0,0,1-2.81.66A4.79,4.79,0,0,1,33.8,98a10.45,10.45,0,0,1-.54-3.09C33.23,94.42,33.13,93.91,33.05,93.28Z"/><path class="cls-1" d="M64.93,22.31a3.69,3.69,0,0,1-.64,2.36,1.63,1.63,0,0,1-2.53.37,3.88,3.88,0,0,1-.75-1c-.42-.83-.78-1.68-1.18-2.52a46.56,46.56,0,0,0-3.61-6.33A39,39,0,0,0,53.5,11.9C52.4,10.61,51.28,9.33,50.17,8a2.8,2.8,0,0,1-.66-1.55,1.59,1.59,0,0,1,1.16-1.66,4.32,4.32,0,0,1,2.73.06,12.83,12.83,0,0,1,4.7,2.59c.48.41,1,.81,1.42,1.24a9.32,9.32,0,0,1,1.92,2.49c.74,1.45,1.5,2.88,2.19,4.35a9.51,9.51,0,0,1,.66,3,11,11,0,0,0,.37,1.88A5.33,5.33,0,0,1,64.93,22.31Z"/><path class="cls-1" d="M47.39,104c.1-1.18.2-2.32.3-3.46.07-.82.13-1.64.21-2.46s.2-1.52.3-2.28a10.49,10.49,0,0,1,1.43-3.9,5.6,5.6,0,0,1,2.63-2.57,2.53,2.53,0,0,1,3,.49,3,3,0,0,1,.86,2.4,10.55,10.55,0,0,1-.59,2.48c-.19.73-.41,1.44-.61,2.16s-.39,1.44-.6,2.16a10.61,10.61,0,0,0-.29,1.51c-.14,1.14-.15,2.29-.18,3.43a16.18,16.18,0,0,1-.14,2.09,9.46,9.46,0,0,1-1,3.86,1.78,1.78,0,0,1-1.73.86,2.59,2.59,0,0,1-1.33-.52,4.48,4.48,0,0,1-1.74-2.91c-.13-.72-.26-1.43-.38-2.15C47.46,104.82,47.43,104.41,47.39,104Z"/><path class="cls-1" d="M83.62,104.33c-.07.42-.2,1.17-.3,1.93a9.47,9.47,0,0,1-.55,2.17,3.93,3.93,0,0,1-1.85,2.14,2,2,0,0,1-2.74-.84,7.45,7.45,0,0,1-.68-2.45c-.1-1-.23-2.06-.32-3.09,0-.45,0-.9,0-1.35a18.26,18.26,0,0,0-.32-3.46c-.12-.61-.34-1.2-.51-1.8s-.3-1.13-.46-1.69-.36-1.31-.58-1.94A5,5,0,0,1,75,91.37a2.61,2.61,0,0,1,2.87-2.25,4,4,0,0,1,2.29,1.19,8.24,8.24,0,0,1,1.55,2.24,10,10,0,0,1,1.08,3.39c.14,1,.28,2,.34,3a20.39,20.39,0,0,0,.28,2.06.52.52,0,0,1,0,.11C83.49,102.06,83.54,103,83.62,104.33Z"/><path class="cls-1" d="M89.69,96.41c0,.52-.08,1-.1,1.56,0,.28,0,.56.06.85,0,.9,0,1.79,0,2.69a4.57,4.57,0,0,1-.7,2.22,1.81,1.81,0,0,1-3.35-.45,6.64,6.64,0,0,1-.39-1.83c0-.76-.18-1.52-.27-2.28a2.31,2.31,0,0,1,0-.37,14.44,14.44,0,0,0-.48-3c-.31-1.42-.87-2.75-1.3-4.12-.32-1-.73-2-1-3a4.29,4.29,0,0,1,.16-3.42,2.39,2.39,0,0,1,2.48-1.34,2.71,2.71,0,0,1,1.74,1.16,10.84,10.84,0,0,1,1.82,3.72c.21.72.46,1.42.63,2.15s.28,1.46.4,2.19c.1.58.2,1.17.27,1.75S89.66,95.89,89.69,96.41Z"/><path class="cls-1" d="M41.3,100.54c0-.82.1-1.37.1-1.92,0-.93-.08-1.87,0-2.8,0-.76.13-1.52.22-2.29.06-.45.16-.91.26-1.36.17-.78.32-1.57.55-2.33.28-1,.61-1.89,1-2.81A6.55,6.55,0,0,1,45,84.58a2.33,2.33,0,0,1,3.77.59,3.75,3.75,0,0,1,.3,3c-.45,1.5-1,3-1.48,4.46-.37,1.15-.76,2.3-1.06,3.47a18.86,18.86,0,0,0-.38,2.37c-.12.85-.2,1.7-.3,2.55a12.24,12.24,0,0,1-.2,1.48,4.44,4.44,0,0,1-.53,1.38,1.7,1.7,0,0,1-2.89-.07,3.8,3.8,0,0,1-.68-1.72C41.43,101.49,41.35,100.89,41.3,100.54Z"/><path class="cls-1" d="M60.08,82.7a8.26,8.26,0,0,1,2.51.42,8.86,8.86,0,0,0,1.25.23c.27,0,.54,0,.81,0a7.69,7.69,0,0,0,3.07-.58,10.7,10.7,0,0,1,1.72-.54,4.52,4.52,0,0,1,3.22.49,2.2,2.2,0,0,1,.9,3,6.45,6.45,0,0,1-2.25,2.53,13.18,13.18,0,0,1-3.76,1.76,7.52,7.52,0,0,1-3.49.24,10,10,0,0,1-2.4-.87c-.6-.27-1.2-.53-1.79-.83a4.73,4.73,0,0,1-2.63-2.89,2.43,2.43,0,0,1,1.93-3C59.47,82.68,59.78,82.7,60.08,82.7Z"/><path class="cls-1" d="M62.13,106.6c.09-1.08.17-2.13.27-3.18s.19-1.85.32-2.76a6.41,6.41,0,0,1,.88-2.72,2.26,2.26,0,0,1,1.69-1.11,2.1,2.1,0,0,1,2,1,5.41,5.41,0,0,1,.88,2.21c.19,1,.2,2,.33,2.92.09.62.21,1.23.27,1.85a10.75,10.75,0,0,1,0,1.39c0,.75-.06,1.5-.11,2.25,0,.57-.1,1.14-.15,1.71s-.1,1.06-.17,1.59a4.4,4.4,0,0,1-1.07,2.52,2.28,2.28,0,0,1-3.42.1A4.06,4.06,0,0,1,62.71,112c-.15-1-.24-2-.35-3C62.28,108.14,62.21,107.36,62.13,106.6Z"/><path class="cls-1" d="M15.77,44.46a10.27,10.27,0,0,1,.52-3.37,2.41,2.41,0,0,1,1-1.28,1.86,1.86,0,0,1,2.26.52A11.81,11.81,0,0,1,21.16,43a26.89,26.89,0,0,0,2.14,4A5,5,0,0,1,24,48.69a4.2,4.2,0,0,1,0,1.5,6,6,0,0,1-1.13,2.75,2.77,2.77,0,0,1-2.28,1.21,2.65,2.65,0,0,1-2-1,10,10,0,0,1-1.66-3c-.3-.84-.57-1.68-.8-2.54A11.32,11.32,0,0,1,15.93,46C15.86,45.43,15.81,44.86,15.77,44.46Z"/><path class="cls-1" d="M76,105.25c0,.82,0,1.65,0,2.47a14,14,0,0,1-.27,1.68c-.12.63-.23,1.26-.39,1.88a2.33,2.33,0,0,1-1,1.58,1.5,1.5,0,0,1-1.89-.33,4,4,0,0,1-.69-1.71,40.06,40.06,0,0,1-.16-4.24c-.05-.47-.14-1-.22-1.42s-.19-.83-.28-1.25c-.13-.67-.25-1.35-.4-2s-.28-1.28-.45-1.92-.4-1.4-.58-2.1a11.44,11.44,0,0,1-.36-1.72,2.17,2.17,0,0,1,.46-1.56,1.5,1.5,0,0,1,1.44-.52,2.8,2.8,0,0,1,1.8,1,7,7,0,0,1,1.44,2.55c.35,1,.62,2.11.91,3.17.19.7.39,1.41.51,2.12s.18,1.53.26,2.29Z"/><path class="cls-1" d="M115.23,44a18.53,18.53,0,0,1-.47,3.78,15.66,15.66,0,0,1-1.2,3.47A16.86,16.86,0,0,1,112.48,53a2.62,2.62,0,0,1-1.61,1.1,2.42,2.42,0,0,1-2.33-.65,5.21,5.21,0,0,1-1.44-2.7c0-.21-.12-.41-.15-.62a3.84,3.84,0,0,1,.78-3.08,21.18,21.18,0,0,0,2.25-4,12.67,12.67,0,0,1,1.48-2.54,2.24,2.24,0,0,1,1.33-.84,1.45,1.45,0,0,1,1.28.42,2.55,2.55,0,0,1,.8,1.48C115.05,42.5,115.15,43.44,115.23,44Z"/><path class="cls-1" d="M55.1,105.83a20.47,20.47,0,0,1,.32-3.42c.09-.61.11-1.25.24-1.85a23.3,23.3,0,0,1,.65-2.31,9.63,9.63,0,0,1,1.39-2.82,3.75,3.75,0,0,1,1.42-1.2,1.73,1.73,0,0,1,1.87.14,1.94,1.94,0,0,1,.64,1.78,17.16,17.16,0,0,1-.78,3.1c-.16.67-.31,1.35-.46,2-.1.42-.19.83-.28,1.25s-.15.77-.22,1.15c-.13.68-.22,1.37-.37,2a8.13,8.13,0,0,0-.16,2.6,6.92,6.92,0,0,1-.08,2,4.83,4.83,0,0,1-.4,1.59,3.17,3.17,0,0,1-.27.47,1.49,1.49,0,0,1-2.55-.08,3.74,3.74,0,0,1-.43-1,21.91,21.91,0,0,1-.37-2.43A26.34,26.34,0,0,1,55.1,105.83Z"/><path class="cls-1" d="M65.52,2.25a9,9,0,0,1,4.34,1,3.94,3.94,0,0,1,1,.75,2.4,2.4,0,0,1,.25,2.85c-.48.95-1,1.87-1.58,2.79-.42.69-.86,1.36-1.31,2A2.32,2.32,0,0,1,67,12.6a1.9,1.9,0,0,1-2.17-.74,17.33,17.33,0,0,1-1-1.69c-.59-1.1-1.16-2.22-1.68-3.35a5.34,5.34,0,0,1-.56-1.72,2.22,2.22,0,0,1,1.66-2.49,2.42,2.42,0,0,1,.46-.13Z"/><path class="cls-1" d="M24.59,126.13l2.79-6.81h2.83c.05.19.05.31-.17.32-1,0-1.09.51-1.08,1.35,0,1.85,0,3.69,0,5.54,0,.2,0,.4,0,.59,0,.71.21.93.91,1,.22,0,.46,0,.33.38H26.06v-.32l.17,0c.93,0,1.07-.36,1.08-1.18,0-1.47,0-2.94,0-4.41v-1.81c-.23.07-.23.27-.29.41-.91,2.24-1.81,4.49-2.71,6.73a3.57,3.57,0,0,1-.19.45c-.06.08-.18.19-.27.19s-.21-.11-.28-.2a1.26,1.26,0,0,1-.12-.29q-1.35-3.25-2.68-6.51a1.47,1.47,0,0,0-.29-.49,1.86,1.86,0,0,0,0,.33v4.52a6.23,6.23,0,0,0,.07.86,1.57,1.57,0,0,0,1.1,1.33c.19.07.4.11.26.43H18.65c-.08-.18-.08-.29.16-.38A1.5,1.5,0,0,0,20,126.47c0-2,0-4,0-5.92a.61.61,0,0,0-.38-.64,5.35,5.35,0,0,0-.86-.27c-.2,0-.24-.13-.17-.33h3l2.85,6.82Zm-4.87-6.47a2.83,2.83,0,0,1,1.14,1.57l2.7,6.44c.06.13.13.26.23.44a1.05,1.05,0,0,0-.05-1c-.85-2.08-1.71-4.17-2.57-6.25a4.19,4.19,0,0,0-.41-.75A1,1,0,0,0,19.72,119.66Zm8.24,0a.48.48,0,0,0-.41.51q0,.35,0,.69V127a1.43,1.43,0,0,1-.36,1.2c.6,0,.66-.06.74-.5a6.84,6.84,0,0,0,.06-.91Zm-7.34,8.51-.5-.73-.63.73Z"/><path class="cls-1" d="M51.61,119.6c.06-.13.07-.25.14-.29a.79.79,0,0,1,.31,0h7l.35,0,.75,2c-.31.19-.51,0-.69-.17a4.49,4.49,0,0,0-1.88-1.21,3.74,3.74,0,0,0-2.22-.17.73.73,0,0,0-.59.55,17.12,17.12,0,0,0,0,3.28c.54,0,1.1,0,1.65,0a1.37,1.37,0,0,0,1.33-1.25c0-.09,0-.17,0-.27h.4v3.41h-.36c-.06-.21-.11-.42-.18-.62a1.09,1.09,0,0,0-.93-.79c-.65-.06-1.31-.07-2-.11a30.63,30.63,0,0,0,.08,3.61.67.67,0,0,0,.67.59,4.09,4.09,0,0,0,3.87-1.23c.15-.16.31-.3.44-.47a.56.56,0,0,1,.74-.18l-.79,2.28h-8c-.08-.21-.07-.34.17-.37a3.88,3.88,0,0,0,.48,0,.75.75,0,0,0,.72-.79c0-.12,0-.25,0-.37v-6a4.87,4.87,0,0,0,0-.54.66.66,0,0,0-.61-.65C52.2,119.68,52,119.65,51.61,119.6ZM53,128.13c.37,0,.58-.1.65-.4a3.94,3.94,0,0,0,.1-.84c0-2,0-4,0-6.07a2.88,2.88,0,0,0,0-.59c-.07-.36-.22-.45-.67-.44a1.57,1.57,0,0,1,.27,1.07v6A1.81,1.81,0,0,1,53,128.13Zm6.45-.82-.06,0-1.33.91h1Zm-1.66-7.67,1.37.8.05-.06-.39-.74Zm-.85,4.1.78.49v-1Z"/><path class="cls-1" d="M94.36,119.29c.85,0,1.69,0,2.53,0a.8.8,0,0,1,.42.28l3.85,4.49,1.71,2c0-.18,0-.29,0-.4,0-1.29,0-2.58,0-3.87a5.5,5.5,0,0,0-.08-.91,1.34,1.34,0,0,0-1-1.12,3.45,3.45,0,0,1-.46-.12c-.08,0-.13-.15-.26-.31h3.58c.06.18,0,.27-.16.33-1,.33-1.29.7-1.28,1.76,0,2.24.07,4.48.1,6.72,0,.2,0,.39,0,.56-.33.15-.47,0-.63-.21L99,124.07l-2.27-2.66-.43-.44v1c0,1.45.07,2.9.11,4.35,0,.18,0,.36,0,.54a1.35,1.35,0,0,0,1.25,1.32c.23,0,.38.1.25.39H94.55c-.08-.2-.08-.31.15-.38,1-.28,1.19-.54,1.23-1.55s0-2,0-3.07c0-.84,0-1.68,0-2.53a1,1,0,0,0-.44-.9,5.44,5.44,0,0,0-.91-.44C94.39,119.6,94.29,119.56,94.36,119.29Zm8.6,9.07a1.22,1.22,0,0,0-.45-1.18l-5.88-6.86a4.89,4.89,0,0,0-.45-.46,1,1,0,0,0-.81-.21c.35.38.68.71,1,1.06l6.21,7.22C102.67,128.06,102.79,128.18,103,128.36Zm-6.9-1-.62.78h1.11Zm7.35-7.74a6.08,6.08,0,0,0-1.13,0l.68.72Z"/><path class="cls-1" d="M44.3,128.53H41c-.11-.22-.08-.33.17-.39.9-.25,1.16-.55,1.19-1.47s0-2.12,0-3.17c0-.85-.05-1.69,0-2.53a1,1,0,0,0-.38-.84,2,2,0,0,0-1-.49c-.2,0-.23-.13-.16-.35a17.09,17.09,0,0,0,1.75,0,1.68,1.68,0,0,1,1.58.73c1.56,1.89,3.18,3.74,4.79,5.6l.41.45a4.22,4.22,0,0,0,0-.43c0-1.27,0-2.54,0-3.82a7.79,7.79,0,0,0-.09-1,1.31,1.31,0,0,0-.94-1.08c-.16-.06-.35-.07-.51-.14s-.11-.14-.16-.23a19,19,0,0,1,3.5-.06c.07.15.08.28-.13.31l-.15,0a1.42,1.42,0,0,0-1.15,1.49c0,.43,0,.86,0,1.29,0,1.92.07,3.84.1,5.76v.46c-.31.17-.45,0-.61-.18L46,124.82,43,121.39,42.7,121a2.78,2.78,0,0,0-.06.4c0,1.68.06,3.37.11,5a2.69,2.69,0,0,0,.11.69,1.31,1.31,0,0,0,1.16,1C44.23,128.16,44.43,128.18,44.3,128.53Zm5.05-.16a1.22,1.22,0,0,0-.44-1.18L43,120.3a3.26,3.26,0,0,0-.41-.42.94.94,0,0,0-.77-.24l.82,1,6.26,7.3C49,128,49.16,128.17,49.35,128.37Zm-6.41-.21-.49-.78-.61.78Zm5.73-8.51.68.72.43-.72Z"/><path class="cls-1" d="M36.55,128.51c-.07-.16-.1-.29.1-.35l.11,0c.78-.19.87-.35.58-1.12s-.5-1.3-.76-2h-3.1a6.43,6.43,0,0,0-.58,1.8,1.07,1.07,0,0,0,.81,1.27c.22.08.22.19.15.38H30.93c-.08-.2-.06-.32.15-.39a2.19,2.19,0,0,0,1.29-1.37c.44-1,.84-2.09,1.25-3.14l1-2.6c.19-.49.09-.71-.42-.9a.76.76,0,0,1-.2-.06c-.07,0-.17-.1-.18-.16a.24.24,0,0,1,.12-.21,4.33,4.33,0,0,1,2.08-.48c.15.36.29.73.44,1.09L39,126.66c.08.18.16.36.23.54a1.39,1.39,0,0,0,.93.9c.22.06.32.16.21.41Zm-.15-3.95-1.35-3.42a18.18,18.18,0,0,0-1.31,3.48h2.35A1.64,1.64,0,0,0,36.4,124.56Zm1,3.6c.61-.08.77-.25.7-.69a3.77,3.77,0,0,0-.25-.87q-1.12-2.91-2.28-5.8a2.78,2.78,0,0,0-.29-.57.62.62,0,0,0-.8-.24,2.13,2.13,0,0,1,.76,1.15l1.35,3.45c.32.84.65,1.67,1,2.51A.86.86,0,0,1,37.43,128.16Zm-4.7,0-.37-.81-.67.81Z"/><path class="cls-1" d="M82,120c.05-.12.07-.27.13-.29a4.25,4.25,0,0,1,2.1-.49c.22.57.46,1.15.68,1.73l2.28,5.8c.07.18.15.36.23.54a1.3,1.3,0,0,0,.87.81c.22.07.38.15.23.43H84.75c-.09-.2-.09-.31.16-.38.85-.22.91-.34.6-1.15-.21-.55-.44-1.09-.64-1.65a.4.4,0,0,0-.44-.3H82a.42.42,0,0,0-.48.32c-.12.37-.27.74-.39,1.11a1.46,1.46,0,0,0,0,1,1,1,0,0,0,.8.64c.2,0,.17.19.08.38-.91,0-1.84,0-2.77,0-.07,0-.2-.09-.2-.13s.06-.23.13-.25a2.66,2.66,0,0,0,1.54-1.82c.69-1.73,1.36-3.47,2-5.2.26-.68.17-.85-.55-1.07Zm2.53,4.6a16.31,16.31,0,0,0-1.39-3.37l-1.31,3.37ZM82.79,120a6.32,6.32,0,0,1,.52.88c.83,2.06,1.63,4.13,2.44,6.2.14.37.27.74-.09,1.11.54-.06.71-.2.66-.62a3.91,3.91,0,0,0-.26-.93q-1.11-2.85-2.24-5.7a5.05,5.05,0,0,0-.24-.53A.66.66,0,0,0,82.79,120Zm-1.87,8.22-.38-.83-.68.83Z"/><path class="cls-1" d="M73.15,119.66a3.34,3.34,0,0,0-2.69,1c-.17.18-.33.38-.48.57a.43.43,0,0,1-.57.15l.44-2.08h8.37l.45,2.06a.41.41,0,0,1-.62-.17,3.79,3.79,0,0,0-.25-.35,3.09,3.09,0,0,0-2.93-1.18c0,.13,0,.27,0,.41q0,3.44,0,6.88a3.91,3.91,0,0,0,0,.48.74.74,0,0,0,.67.66,3.29,3.29,0,0,0,.54.05c.22,0,.25.16.17.37h-4.5c-.09-.19-.09-.33.14-.36s.32,0,.48,0a.81.81,0,0,0,.79-.85c0-.13,0-.25,0-.38v-6.72C73.18,120,73.16,119.86,73.15,119.66ZM73,128.14c.42,0,.63-.09.7-.4a4.71,4.71,0,0,0,.09-.85q0-3.17,0-6.35a2.22,2.22,0,0,0-.08-.63c0-.1-.16-.18-.25-.27l-.1.06V127A1.56,1.56,0,0,1,73,128.14Zm4.62-8.49h-1l1.25.92Zm-7.86.94,1.13-.94H70Z"/><path class="cls-1" d="M89.32,119.29h4c.2,0,.36,0,.28.31l-.62.12c-.5.11-.64.26-.67.76,0,.3,0,.6,0,.91v5.21c0,.24,0,.47,0,.7,0,.57.22.74.79.82a1.38,1.38,0,0,1,.37,0c.08,0,.13.16.25.35-1.56.06-3,0-4.42,0-.11-.24-.07-.36.14-.39h.11c.88-.1,1-.25,1-1.15,0-2.06,0-4.12,0-6.18a3,3,0,0,0,0-.43.67.67,0,0,0-.65-.67,3.09,3.09,0,0,1-.53-.09c-.08,0-.14-.15-.21-.22Zm1.15,8.84c.7-.07.81-.18.81-.79v-6.76a2,2,0,0,0,0-.43c-.09-.38-.3-.5-.75-.45a1.46,1.46,0,0,1,.36,1c0,2.17,0,4.33,0,6.5A1.1,1.1,0,0,1,90.47,128.13Z"/><path class="cls-1" d="M19.37,59a3.65,3.65,0,0,1-.52,1.48,1.38,1.38,0,0,1-1.32.67,1.4,1.4,0,0,1-1.2-1,2.76,2.76,0,0,1,.07-2.38,1.43,1.43,0,0,1,2.47-.22A2.69,2.69,0,0,1,19.37,59Z"/><path class="cls-1" d="M114.89,59.26a2.26,2.26,0,0,1-.31,1.22,1.35,1.35,0,0,1-2.28.22,2.42,2.42,0,0,1-.18-3,1.43,1.43,0,0,1,2.39,0A2.69,2.69,0,0,1,114.89,59.26Z"/><path class="cls-1" d="M113.64,120.4,112.55,123a3.87,3.87,0,0,1-.63-1.25c-.18-.41-.35-.82-.53-1.25a5.4,5.4,0,0,0-.13,2.14l.44.17,0,.09h-1.12v-.06l.4-.16V119.8l-.42-.1a2.42,2.42,0,0,1,1.35-.13c.08,0,.16.18.21.29l.74,1.76.87-2h1.49v.1l-.54.11c-.06.92,0,1.86,0,2.8l.5.17,0,.08h-1.9l.52-.22v-2.2Z"/><path class="cls-1" d="M108.94,122.6l.56.14a4.8,4.8,0,0,1-2,.09l.55-.19v-2.78c-.76-.26-.91.34-1.23.78v-1.06h3.37v1l-.08,0a2,2,0,0,1-.2-.31c-.23-.55-.23-.56-.91-.48a1.54,1.54,0,0,0,0,.31Z"/><path class="cls-1" d="M64.81,126.27v-1.21H68.4v1.21Zm.19-.59,0,.36h3.17v-.36Z"/></svg>