<svg id="Layer_47" data-name="Layer 47" xmlns="http://www.w3.org/2000/svg" viewBox="0 0 131 131"><defs><style>.cls-1{fill:#ef8429;}</style></defs><path class="cls-1" d="M22.33,81.36l-.52-.08a6.61,6.61,0,0,1-.63-13A6.45,6.45,0,0,1,27,69.63l.21.17a.26.26,0,0,0-.05-.22L25.49,65.8c-.34-.78-.68-1.56-1-2.33-.16-.35-.35-.68-.52-1a7.54,7.54,0,0,1-.85-4,7.84,7.84,0,0,1,.69-2.78,16.44,16.44,0,0,1,3.91-5.26c.26-.24.57-.44.86-.66l.15-.08a.88.88,0,0,0,0,.14,10.67,10.67,0,0,0,.18,3.43c.2,1,.42,2,.62,3a9.5,9.5,0,0,1,.24,2.06,5.24,5.24,0,0,1-1.41,3.65,10.68,10.68,0,0,0-.94,1.19c-.05.08-.11.14-.19.26-.14-.42-.28-.8-.39-1.17a12.19,12.19,0,0,1-.43-2.67,23.23,23.23,0,0,1,.12-3.44c0-.12,0-.24,0-.39a2.2,2.2,0,0,0-.43.5,6.85,6.85,0,0,0-1.09,3,8.62,8.62,0,0,0,.53,4c.43,1.21.95,2.38,1.46,3.55.7,1.62,1.35,3.26,1.92,4.94a10.7,10.7,0,0,1,.51,2.17,6.54,6.54,0,0,1-.6,3.67,6.93,6.93,0,0,1-3.05,3.17,6.42,6.42,0,0,1-2.43.7l-.18,0Zm.41-2a4.62,4.62,0,1,0-4.59-4.67A4.61,4.61,0,0,0,22.74,79.34Z"/><path class="cls-1" d="M38.37,81.36l-.11,0a1,1,0,0,1-.71-1V65.2a1,1,0,0,1,.9-1h3.83a8.44,8.44,0,0,1,6,2.41,8.35,8.35,0,0,1,2.5,4.75,8.56,8.56,0,0,1-6.53,9.76c-.41.1-.84.13-1.25.19l-.16,0Zm1.21-2h2.76a7.47,7.47,0,0,0,1.16-.11,6.56,6.56,0,0,0-1.12-13h-2.8Z"/><path class="cls-1" d="M57.81,81.36l-.45-.07a6,6,0,0,1-5-4.07A7.18,7.18,0,0,1,52,73.81a6.77,6.77,0,0,1,1.3-3.32,5.63,5.63,0,0,1,3.84-2.29,5.85,5.85,0,0,1,4.16.84,6,6,0,0,1,2.49,3.32,8,8,0,0,1,.36,2.33,1,1,0,0,1-1.09,1.06h-9c0,.07,0,.12,0,.15a4.34,4.34,0,0,0,2.31,3,4.12,4.12,0,0,0,5.35-1.5A1,1,0,0,1,63.13,77a1,1,0,0,1,.39,1.42,6.07,6.07,0,0,1-4.68,2.91l-.16,0ZM54.09,73.7c.22,0,7.81,0,8,0-.06-.24-.11-.49-.19-.72a3.79,3.79,0,0,0-3.25-2.82,3.88,3.88,0,0,0-2.94.76,4.37,4.37,0,0,0-1.61,2.68A.41.41,0,0,0,54.09,73.7Z"/><path class="cls-1" d="M9.33,81.36l-.57-.08a5.19,5.19,0,0,1-3-1.45,4.79,4.79,0,0,1-1.38-3,2.28,2.28,0,0,1,0-.69,1,1,0,0,1,1-.77,1,1,0,0,1,1,.88c0,.2,0,.4.06.6A2.73,2.73,0,0,0,8.12,79a4.18,4.18,0,0,0,3.41,0,2.83,2.83,0,0,0,1.61-3.26,2.07,2.07,0,0,0-.77-1.18A3.63,3.63,0,0,0,11.31,74c-.7-.24-1.39-.45-2.09-.67A11.73,11.73,0,0,1,7,72.46,7.92,7.92,0,0,1,6.33,72a3.61,3.61,0,0,1-1.58-2.73,4.43,4.43,0,0,1,1.06-3.43,4.53,4.53,0,0,1,2.46-1.49,6,6,0,0,1,3.92.31,4.39,4.39,0,0,1,2.64,3.56,2.47,2.47,0,0,1,0,.72,1,1,0,0,1-1,.85,1,1,0,0,1-1-.81c0-.19,0-.39-.06-.58a2.48,2.48,0,0,0-1.51-1.94,3.76,3.76,0,0,0-1.9-.28,3.35,3.35,0,0,0-1.28.35,2.51,2.51,0,0,0-1.34,2.76,1.73,1.73,0,0,0,.74,1.12A4.48,4.48,0,0,0,8.65,71c.76.25,1.52.48,2.27.71a12.06,12.06,0,0,1,1.64.63,5.94,5.94,0,0,1,1.15.71,4,4,0,0,1,1.48,2.73,4.88,4.88,0,0,1-3.73,5.37c-.35.08-.7.12-1.05.17l-.16,0Z"/><path class="cls-1" d="M99.55,81.36,99,81.29a7,7,0,0,1-5.87-5.65,7.31,7.31,0,0,1-.1-1.14c0-3.07,0-6.14,0-9.21a1.13,1.13,0,0,1,.12-.57,1,1,0,0,1,1.86.41v9.25a4.93,4.93,0,0,0,9.77,1,5,5,0,0,0,.09-1c0-3,0-6,0-9a1.62,1.62,0,0,1,0-.31,1,1,0,0,1,2,.07,1,1,0,0,1,0,.17v9.06a7,7,0,0,1-5.73,6.82c-.21,0-.43.06-.64.09a.7.7,0,0,0-.14,0Z"/><path class="cls-1" d="M91,81.36l-.13,0a1,1,0,0,1-.71-1V73.8a3.85,3.85,0,0,0-.55-2.07,3.31,3.31,0,0,0-5.78.2,3.78,3.78,0,0,0-.44,1.86v6.56a1,1,0,0,1-.79,1s0,0-.08,0h-.29l-.1,0a1,1,0,0,1-.77-1v-.17q0-7.4,0-14.8a2.17,2.17,0,0,1,0-.36,1,1,0,0,1,1-.81,1,1,0,0,1,1,.83,2,2,0,0,1,0,.34v3.91l.21-.15a5.35,5.35,0,0,1,3.69-1A5.29,5.29,0,0,1,92,72.33a6.35,6.35,0,0,1,.16,1.38q0,3.3,0,6.6a1,1,0,0,1-.76,1l-.07,0Z"/><path class="cls-1" d="M75.65,81.36l-.51-.08A4.37,4.37,0,0,1,72.62,80a3.09,3.09,0,0,1-.62-.93,1,1,0,0,1,1.77-.94,2.22,2.22,0,0,0,1.94,1.21A3.11,3.11,0,0,0,77,79.19a2.09,2.09,0,0,0,1-.72,1.78,1.78,0,0,0,.27-1.68,1,1,0,0,0-.53-.65,4.77,4.77,0,0,0-.83-.37c-.59-.19-1.2-.33-1.79-.51s-.87-.29-1.3-.46a3.23,3.23,0,0,1-.58-.31,2.94,2.94,0,0,1-1.38-3,3.53,3.53,0,0,1,2.39-3.07,4.71,4.71,0,0,1,3.82.14,3.54,3.54,0,0,1,1.68,1.65A1,1,0,0,1,79,71.69a.91.91,0,0,1-1-.48,2.08,2.08,0,0,0-2-1.09,2.34,2.34,0,0,0-1.16.22,1.66,1.66,0,0,0-1,1.39,1.08,1.08,0,0,0,.57,1.14,5,5,0,0,0,1.13.43c.61.17,1.22.32,1.83.5a5.68,5.68,0,0,1,1.42.64,3.26,3.26,0,0,1,1.55,2.5,3.94,3.94,0,0,1-2.92,4.21,9.32,9.32,0,0,1-.92.17l-.14,0Z"/><path class="cls-1" d="M111.59,81.36l-.51-.08a4.39,4.39,0,0,1-2.2-1,3.55,3.55,0,0,1-.94-1.23,1,1,0,0,1,.7-1.43,1,1,0,0,1,1.08.49,2.2,2.2,0,0,0,1.9,1.21,3,3,0,0,0,1.36-.14,1.93,1.93,0,0,0,1.29-1.2,1.87,1.87,0,0,0,0-1.17,1.14,1.14,0,0,0-.51-.65,4.26,4.26,0,0,0-.75-.35c-.58-.19-1.17-.34-1.76-.51a8.43,8.43,0,0,1-1.7-.62,2.94,2.94,0,0,1-1.64-2,3.49,3.49,0,0,1,.38-2.55,3.6,3.6,0,0,1,1.89-1.63,4.77,4.77,0,0,1,4,.17,3.41,3.41,0,0,1,1.58,1.58,1,1,0,0,1,.13.6,1,1,0,0,1-1.9.35,1.83,1.83,0,0,0-1.25-1,1.73,1.73,0,0,0-.31-.07,3,3,0,0,0-1.32.11,1.78,1.78,0,0,0-1.19,1.25,1.56,1.56,0,0,0,0,.68,1.06,1.06,0,0,0,.5.67,3.71,3.71,0,0,0,.9.37l1.86.5a6.51,6.51,0,0,1,1.52.63,3.2,3.2,0,0,1,1.59,2,3.85,3.85,0,0,1-2,4.42,4.38,4.38,0,0,1-1.73.51l-.16,0Z"/><path class="cls-1" d="M66.16,81.36,66,81.3a1,1,0,0,1-.69-.9v-15a1.91,1.91,0,0,1,.05-.48,1,1,0,0,1,1.1-.69,1,1,0,0,1,.86,1V80.25a1.43,1.43,0,0,1,0,.29,1,1,0,0,1-.69.77l-.13,0Z"/><path class="cls-1" d="M69.63,81.36l-.07,0a1,1,0,0,1-.77-1V69.17a1,1,0,0,1,1.39-1,1,1,0,0,1,.62.9V80.2a2.71,2.71,0,0,1,0,.29,1,1,0,0,1-.67.81l-.15.06Z"/><path class="cls-1" d="M21.85,64c-.38-.4-.73-.78-1.09-1.13A11.64,11.64,0,0,0,18.3,61a5.63,5.63,0,0,0-1.72-.66,2.41,2.41,0,0,0-1,0l-.2,0,.21.14A16.85,16.85,0,0,1,18,62.14a8.91,8.91,0,0,1,1.82,2.1l.12.23-.65.09a5.52,5.52,0,0,1-4.24-1.34,8.29,8.29,0,0,1-1.32-1.39,25.47,25.47,0,0,0-2.06-2.35l-.79-.84-.15-.18.52-.06c.87-.08,1.74-.16,2.62-.16a9.76,9.76,0,0,1,3.5.63,7,7,0,0,1,4,3.75c.17.36.29.73.44,1.1C21.82,63.79,21.83,63.87,21.85,64Z"/><path class="cls-1" d="M124.28,68.88h-.82l-1.18-3.29h0v3.26a4.13,4.13,0,0,1-1.07,0V64.11h1.64l1.07,3h0c.35-1,.68-2,1-3h1.67v4.77h-1.11V65.6c-.25.53-.43,1.08-.64,1.63Z"/><path class="cls-1" d="M33.09,63.3a3.08,3.08,0,0,0-1.21.25,4.64,4.64,0,0,0-1.53,1,9.34,9.34,0,0,0-1,1.24.65.65,0,0,1-.13.16,5.26,5.26,0,0,1,1.32-2.6,5.19,5.19,0,0,1,2.73-1.44,10.5,10.5,0,0,1,2.8-.16l.1,0,0,0-.13.19c-.77,1-1.55,2-2.31,3a2.68,2.68,0,0,1-2.18,1.09l-.82,0a2.23,2.23,0,0,0,.08-.24A4.94,4.94,0,0,1,32,64.29c.29-.28.6-.54.9-.81Z"/><path class="cls-1" d="M118.12,65.09h-1.34v-1c.15,0,3.5-.06,3.85,0v1h-1.35v3.8h-1.16c0-.25,0-.5,0-.75v-3Z"/><path class="cls-1" d="M69.79,67.42a1.05,1.05,0,0,1-1.08-1,1.08,1.08,0,0,1,1.08-1.06,1.07,1.07,0,0,1,1.08,1.07A1,1,0,0,1,69.79,67.42Z"/></svg>