<svg id="Layer_49" data-name="Layer 49" xmlns="http://www.w3.org/2000/svg" viewBox="0 0 131 131"><defs><style>.cls-1{fill:#ef8429;}</style></defs><path class="cls-1" d="M4.19,58.44c0-7.06,0-14.13,0-21.2,0-.56.15-.69.7-.69q10.2,0,20.39,0c.53,0,.68.14.67.67,0,1.39,0,2.78,0,4.16,0,.49-.14.61-.61.61-4.72,0-9.44,0-14.16,0-.55,0-.65.17-.65.68q0,6.06,0,12.13c0,.53.16.62.65.62,3.56,0,7.13,0,10.69,0,.48,0,.62.13.61.61,0,1.46,0,2.93,0,4.39,0,.47-.13.58-.59.57-3.56,0-7.12,0-10.68,0-.5,0-.69.09-.69.66,0,6,0,12,0,18.08,0,.61-.18.72-.75.71-1.63,0-3.27,0-4.91,0-.6,0-.72-.17-.71-.74C4.2,72.57,4.19,65.51,4.19,58.44Z"/><path class="cls-1" d="M116.06,80.32a12,12,0,0,1-12-10.71,12.44,12.44,0,0,1,4.91-12,10.88,10.88,0,0,1,15,1.68,14.33,14.33,0,0,1,2.83,5c.13.38,0,.52-.33.67l-15.73,6.5c-.46.19-.5.33-.23.76,2.92,4.64,9.07,3.78,11.55.39.51-.69.52-.68,1.24-.17,1,.69,2,1.41,3,2.08.38.25.4.43.14.79a11.5,11.5,0,0,1-8.89,4.89l-1.16.08Zm-6.92-12.84L113,65.9l7.3-3c.28-.12.43-.2.16-.51a6.5,6.5,0,0,0-2.36-1.8C113.56,58.68,109.13,62.66,109.14,67.48Z"/><path class="cls-1" d="M87.82,62.36v5.89a12.31,12.31,0,0,1-10.44,12,12,12,0,0,1-10.55-3.49,11.54,11.54,0,0,1-3.5-7.58c-.2-2.92,0-5.85-.08-8.77,0-1.51,0-3,0-4.51,0-.4.11-.53.52-.53q1.91,0,3.81,0c.47,0,.62.11.62.61,0,4.06,0,8.12,0,12.19A7.35,7.35,0,0,0,82.89,68q0-6,0-12c0-.48.13-.63.61-.62,1.23,0,2.46,0,3.7,0,.48,0,.65.1.65.63C87.8,58.13,87.82,60.24,87.82,62.36Z"/><path class="cls-1" d="M50.51,62.44V68a12.27,12.27,0,0,1-24.39,2.09A18.79,18.79,0,0,1,26,67.59c0-3.87,0-7.73,0-11.6,0-.49.13-.62.61-.61q1.88,0,3.75,0c.46,0,.58.13.58.58q0,6.06,0,12.13A7.36,7.36,0,0,0,45.59,68c0-3.93,0-7.86,0-11.78,0-1-.09-.81.84-.81,1.18,0,2.35,0,3.53,0,.47,0,.56.15.56.59C50.5,58.12,50.51,60.28,50.51,62.44Z"/><path class="cls-1" d="M54.42,65.69c0-4.69,0-9.39,0-14.09,0-.48-.13-.61-.61-.6-1.75,0-3.5,0-5.25,0-.42,0-.52-.13-.51-.52,0-1.35,0-2.69,0-4,0-.42.1-.56.54-.55,1.73,0,3.46,0,5.19,0,.5,0,.65-.11.65-.63,0-2.71,0-5.43,0-8.14,0-.49.14-.62.61-.61,1.31,0,2.62,0,3.93,0,.45,0,.58.11.57.57,0,2.74,0,5.47-.06,8.2,0,.5.14.62.62.6.9,0,1.8,0,2.71,0,.32,0,.43.09.43.43,0,1.42,0,2.85,0,4.27,0,.35-.15.41-.45.41-.9,0-1.81,0-2.71,0-.5,0-.6.15-.6.62q0,13.92,0,27.83c0,.92,0,.92-.91.92-1.19,0-2.38,0-3.58,0-.54,0-.61-.18-.61-.65C54.43,75.05,54.42,70.37,54.42,65.69Z"/><path class="cls-1" d="M96.18,57.85A14.39,14.39,0,0,1,99.64,56a13,13,0,0,1,3.45-.64c.38,0,.48.12.48.49,0,1.35,0,2.7,0,4,0,.34-.09.45-.45.48a7.41,7.41,0,0,0-6.94,7.42c0,3.87,0,7.74,0,11.61,0,1,0,1-1,1s-2.16,0-3.23,0c-.53,0-.68-.13-.67-.67q0-11.49,0-23c0-1.36,0-1.36,1.34-1.36,1,0,2,0,3.06,0,.39,0,.5.13.49.5C96.16,56.49,96.18,57.11,96.18,57.85Z"/><path class="cls-1" d="M67.25,51.09c-.83-4.34,1-9.28,4.42-11.53a7.33,7.33,0,0,1,9.12.7,11.2,11.2,0,0,1,3.56,7.42,12.62,12.62,0,0,1-.49,5.11c0-.37.14-.63,0-1-.12.33-.2.58-.29.83a6.34,6.34,0,0,1-1.78,2.86c-.77.66-1.1.58-1.62,0-.35-.39-.81-.81-1.4-.61s-.62.81-.68,1.35a19,19,0,0,0,.44,5.1,92.12,92.12,0,0,0,2.17,9.26c.07.27.13.55.21.86-.28,0-.3-.22-.39-.37a57.55,57.55,0,0,1-2.6-5.91,18.28,18.28,0,0,0-1.18-2.44,4.42,4.42,0,0,0-.56-.73.87.87,0,0,0-1.44,0,8,8,0,0,0-1.36,2.13c-1,2-1.71,4-2.78,5.89a3.39,3.39,0,0,1-.64.85c0-.2.09-.41.15-.61,1-3.94,2.13-7.86,2.88-11.87A13.79,13.79,0,0,0,73.31,55c0-.72-.29-.88-1-.63a6.08,6.08,0,0,0-1,.62,1.76,1.76,0,0,1-2.51-.37,5.72,5.72,0,0,1-1.13-2.88c.35.56.63,1,1,1.51.94,1.34,1.3,1.44,2.76.69.82-.42,1.62-.88,2.43-1.32a4.35,4.35,0,0,1,5.2.59c.5.41,1,.87,1.46,1.3a.87.87,0,0,0,1.41,0,15.67,15.67,0,0,0,1.19-1.62c1.34-1.6,1.07-3.42.73-5.23a10.65,10.65,0,0,0-3.65-6.57,7,7,0,0,0-10.36,1.21,12.1,12.1,0,0,0-2.54,7.45Z"/><path class="cls-1" d="M67.23,92.58V89.65c0-.71,0-1.42,0-2.13,0-.42.26-.35.5-.34s.52-.11.51.32c0,2.21,0,4.42,0,6.64,0,.13,0,.3-.18.29s-.64.13-.91-.19c-.64-.76-1.3-1.51-2-2.27-.85-1-1.71-2-2.69-2.9v1.52c0,1.13,0,2.27,0,3.4,0,.43-.18.46-.52.46s-.5-.08-.5-.48c0-2,0-4.07,0-6.11,0-.22-.17-.57.15-.65a.85.85,0,0,1,1,.27c.88,1.07,1.81,2.1,2.72,3.14.57.67,1.15,1.33,1.73,2Z"/><path class="cls-1" d="M76.46,90.77c0-1.06,0-2.12,0-3.18,0-.33.1-.42.43-.42,1.09,0,2.19,0,3.29,0,.4,0,.41.17.42.48s-.06.48-.44.47c-.73,0-1.46,0-2.19,0-.37,0-.47.12-.45.46,0,.56-.17,1.27.1,1.62s1,.09,1.6.13a3.76,3.76,0,0,0,.75,0c.47-.06.54.17.52.57s-.12.38-.41.38c-.68,0-1.35,0-2,0-.39,0-.57.09-.54.52a8.83,8.83,0,0,1,0,1.26c0,.43.15.52.54.51.75,0,1.5,0,2.25,0,.33,0,.4.12.37.4s.11.56-.36.55c-1.15,0-2.31,0-3.46,0-.36,0-.41-.15-.4-.45,0-1.08,0-2.15,0-3.23Z"/><path class="cls-1" d="M88.2,92.62a2.69,2.69,0,0,0,1.67,1A1.1,1.1,0,0,0,91.14,93a1,1,0,0,0-.46-1.3c-.56-.43-1.19-.78-1.76-1.19a1.76,1.76,0,0,1-.79-1.75A1.9,1.9,0,0,1,90,87.08a2.88,2.88,0,0,1,1,.07c1,.24,1.11.38,1,1.48-.18,0-.26-.13-.38-.21a2.1,2.1,0,0,0-1.7-.34.8.8,0,0,0-.44,1.41,4.62,4.62,0,0,0,1.18.82,3.77,3.77,0,0,1,1.32,1.09,2,2,0,0,1-1.26,3.08,2.74,2.74,0,0,1-1.14,0C88.26,94.22,88.07,94,88.2,92.62Z"/><path class="cls-1" d="M103.5,88.64c-.27,0-.41-.21-.58-.31a2,2,0,0,0-1.39-.28.89.89,0,0,0-.83.61.87.87,0,0,0,.36,1,12.69,12.69,0,0,0,1.55,1,2.27,2.27,0,0,1,1.18,2,1.84,1.84,0,0,1-1.45,1.78,3.12,3.12,0,0,1-2.18-.29.64.64,0,0,1-.44-.76,6.17,6.17,0,0,0,0-.76c.25.21.45.39.67.54a1.91,1.91,0,0,0,1.58.38.92.92,0,0,0,.58-1.54,3,3,0,0,0-1-.78,6.63,6.63,0,0,1-1.31-.93,1.84,1.84,0,0,1,.8-3.12,2.82,2.82,0,0,1,1.19-.09C103.38,87.25,103.55,87.46,103.5,88.64Z"/><path class="cls-1" d="M27.3,90.79c0-1,0-2.08,0-3.12,0-.34.05-.51.46-.5,1,0,2,0,3,0,.36,0,.46.12.45.46s0,.5-.43.49c-.65,0-1.31,0-2,0-.33,0-.47.05-.48.43,0,1.58,0,1.58,1.54,1.58.25,0,.5,0,.75,0s.59,0,.59.45-.21.53-.59.51c-.6,0-1.2,0-1.79,0-.37,0-.51.09-.49.48,0,.83,0,1.66,0,2.48,0,.39-.15.46-.48.43s-.61.09-.59-.43C27.32,92.94,27.3,91.87,27.3,90.79Z"/><path class="cls-1" d="M51.27,91.32c0,.87,0,1.74,0,2.6,0,.47-.16.54-.56.54s-.53-.09-.52-.52c0-1.76,0-3.54,0-5.31,0-.44-.12-.56-.55-.53s-1,0-1.5,0-.45-.13-.44-.46,0-.49.43-.48q2.63,0,5.25,0c.42,0,.39.22.4.5s0,.46-.4.44c-.56,0-1.12,0-1.67,0-.36,0-.47.1-.46.45,0,.93,0,1.85,0,2.77Z"/><path class="cls-1" d="M40.05,90.81c0,1.06,0,2.12,0,3.17,0,.4-.14.5-.5.47S39,94.52,39,94c0-2.13,0-4.27,0-6.4,0-.52.3-.41.59-.44s.51.08.5.47c0,1.06,0,2.11,0,3.17Z"/><path class="cls-1" d="M74.42,49.4a1.41,1.41,0,0,1,1.32-1.46,1.57,1.57,0,0,1,1.47,1.66,1.41,1.41,0,0,1-1.35,1.5A1.59,1.59,0,0,1,74.42,49.4Z"/><path class="cls-1" d="M82,40.49c-.24,0-.32-.17-.45-.29a8,8,0,0,0-11.76.34,1.73,1.73,0,0,1-.24.23,7.41,7.41,0,0,1,12.44-.27Z"/><path class="cls-1" d="M80.53,38.42a7.76,7.76,0,0,0-10.43.91,6.92,6.92,0,0,1,6.08-2.85A6.29,6.29,0,0,1,80.53,38.42Z"/><path class="cls-1" d="M82.29,41a.81.81,0,0,1,.26.41A.69.69,0,0,1,82.3,41Z"/><path class="cls-1" d="M82.05,40.74c.2-.05.14.17.24.23h0c-.07-.09-.23-.09-.24-.23Z"/><path class="cls-1" d="M82.06,40.73c-.1,0-.16-.12-.11-.24h0a.19.19,0,0,1,.11.24Z"/></svg>