<svg id="Layer_50" data-name="Layer 50" xmlns="http://www.w3.org/2000/svg" viewBox="0 0 131 131"><defs><style>.cls-1{fill:#e8e8e8;}.cls-2{fill:#1b3d65;}.cls-3{fill:#ef8429;}.cls-4{fill:#b74f8c;}.cls-5{fill:#fff;}.cls-6{fill:#4889c7;}.cls-7{fill:#292d64;}</style></defs><path class="cls-1" d="M100,39.22a6.39,6.39,0,0,0,1.37.34,26.42,26.42,0,0,1,6.58,2.32c.38.18.74.4,1.13.55a2.17,2.17,0,0,1,1.31,1.64c.22,1,.37,2,.55,3.07a5,5,0,0,0,.26,1.15,7.94,7.94,0,0,0,.25,1.61q1.21,6.57,2.46,13.15c.89,4.71,1.8,9.42,2.7,14.13l2.58,13.32c.29,1.54.6,3.08.9,4.62a1,1,0,0,1-.62,1.27,17.79,17.79,0,0,1-2.3-.26,20.56,20.56,0,0,0-2.23-.26c-.6,0-1.21-.09-1.8-.17-1.16-.15-2.32-.23-3.48-.32-1.37-.1-2.74-.18-4.12-.26s-2.8-.09-4.19-.11a71.6,71.6,0,0,0-7.47.08c-1,.1-2,0-3.07.11-1.28.1-2.57.16-3.86.27-.89.07-1.78.16-2.67.25-1.39.13-2.77.33-4.15.5-1.7.21-3.38.49-5.06.81a77.27,77.27,0,0,0-9,2.18,4,4,0,0,1-2.33.07,2.67,2.67,0,0,0,1.64-2.72c0-1.59,0-3.18,0-4.78q0-10.41,0-20.82c0-6.46,0-12.92,0-19.38a2.58,2.58,0,0,0-.91-2.16c.69.22,1.14-.19,1.66-.55,1.31-.9,2.65-1.74,4-2.58a1.2,1.2,0,0,1,.75-.28,4.5,4.5,0,0,1,.34,1.19c.39,1.5.83,3,1.12,4.5a24.48,24.48,0,0,0-3,2,1.37,1.37,0,0,0-.6,1.31c.11,1.11.09,2.22.15,3.33.1,2.07.22,4.14.32,6.21.07,1.53.08,3.06.18,4.59.07.92.07,1.84.12,2.76.11,2.18.23,4.36.33,6.53,0,.87.32,1.09,1.15.85l.24-.08c1.44-.45,2.89-.87,4.35-1.24a80.73,80.73,0,0,1,10.92-2c2.12-.24,4.25-.43,6.38-.48,2.75-.06,5.5-.08,8.24.1,1.92.13,3.84.31,5.75.57s4,.61,6,1c.75.17,1.19-.27,1.05-1L111.2,62.18c-.78-4-1.59-8.1-2.31-12.16A2.31,2.31,0,0,0,107.12,48a43.22,43.22,0,0,0-11.7-2.2c-1,0-2,0-3.08-.07.32-.29.52-.71.86-1l2.61-2.15C97.19,41.43,98.54,40.28,100,39.22ZM96.87,87.45c-1.4,0-2.81,0-4.21.08s-2.88.16-4.32.27c-2,.14-4,.39-6,.68a99.28,99.28,0,0,0-10,2c-.69.18-1.37.37-2.05.59a.57.57,0,0,0-.41.74.63.63,0,0,0,.72.46.71.71,0,0,0,.24-.06c1.67-.46,3.36-.88,5-1.26,2.58-.58,5.17-1.06,7.78-1.41,1.78-.24,3.58-.4,5.37-.58,2.06-.2,4.14-.19,6.21-.29,1.35-.07,2.72,0,4.08,0q4.71.12,9.39.66c1.66.2,3.32.43,5,.71.68.12,1.36.25,2,.35s.93-.33.76-.83c-.11-.3-.37-.37-.65-.42q-3.36-.61-6.75-1c-2.1-.26-4.21-.45-6.31-.57S98.86,87.37,96.87,87.45Zm-.34-3.13a82.31,82.31,0,0,0-8.6.33c-1.34.12-2.67.26-4,.44q-2.93.38-5.82,1c-2.54.52-5.07,1.11-7.55,1.86a2,2,0,0,0-.53.21.57.57,0,0,0-.21.72.65.65,0,0,0,.65.41,1.71,1.71,0,0,0,.3-.09c1.69-.48,3.39-.93,5.1-1.33a90.57,90.57,0,0,1,13.2-2q3-.24,6-.28,3.53,0,7,.16c2,.12,4,.3,6.06.56,1.75.22,3.49.46,5.22.77l1.91.36a.67.67,0,0,0,.71-.3.64.64,0,0,0-.05-.71.74.74,0,0,0-.55-.26c-2.1-.4-4.2-.76-6.32-1-1.39-.17-2.79-.3-4.18-.43-1.65-.15-3.3-.23-5-.31C98.84,84.27,97.68,84.32,96.53,84.32Zm18.36.18a.69.69,0,0,0,.65-.5.59.59,0,0,0-.39-.7,5.47,5.47,0,0,0-.55-.13q-4.35-.83-8.76-1.29c-2.18-.23-4.38-.37-6.57-.44-2.41-.07-4.82-.08-7.23,0-1.86.11-3.72.23-5.58.4s-3.53.41-5.28.69a89.47,89.47,0,0,0-9.68,2.15,13.68,13.68,0,0,0-1.38.42.59.59,0,0,0-.43.79.63.63,0,0,0,.8.41c.18,0,.36-.1.54-.15.89-.24,1.78-.49,2.67-.72A86.61,86.61,0,0,1,87.52,83c2.15-.22,4.31-.31,6.46-.37,2.7-.08,5.4,0,8.1.19,1.88.11,3.76.29,5.63.51s3.73.5,5.58.85Zm-.53-3.13a.59.59,0,0,0,.7-.5c.06-.38-.11-.61-.52-.73l-.49-.11q-3.76-.72-7.57-1.17c-2.41-.28-4.83-.48-7.26-.56s-5.15-.09-7.73.06c-2.14.11-4.26.26-6.38.51s-4.23.59-6.33,1c-2.86.55-5.68,1.26-8.47,2.07a3.75,3.75,0,0,0-.47.17.59.59,0,0,0-.3.7.55.55,0,0,0,.58.47,2.7,2.7,0,0,0,.85-.19,88.67,88.67,0,0,1,9.76-2.31c2.2-.4,4.42-.67,6.65-.89s4.22-.29,6.33-.37c2.43-.1,4.86,0,7.3.11h.12c2,.18,4,.32,6,.58,1.64.21,3.27.44,4.9.74Z"/><path class="cls-2" d="M72.34,51.7c-.29-1.52-.73-3-1.12-4.5A4.5,4.5,0,0,0,70.88,46c-.22-1.24-.6-2.44-.92-3.65C69,38.69,68.1,35,67.29,31.3a1.18,1.18,0,0,1,.27-1.22c.24,0,.25.26.32.41A41.17,41.17,0,0,0,70,34.44a16.6,16.6,0,0,0,5.66,5.79,12.05,12.05,0,0,0,4.1,1.54,12.59,12.59,0,0,0,3.4.44A25.35,25.35,0,0,0,86,42.14a34.75,34.75,0,0,0,4.66-.61,50.75,50.75,0,0,0,7.06-2,2.2,2.2,0,0,0,.74-.31,11,11,0,0,0,1.37-.45c.25-.08.49-.25.78-.17-.12.3-.46.38-.63.63-1.44,1.06-2.79,2.21-4.17,3.34L93.2,44.71c-.34.28-.54.7-.86,1a.61.61,0,0,0-.19.26,2.35,2.35,0,0,0-.25.19,16.15,16.15,0,0,0-2.39,3.3,4,4,0,0,0,1.33,5.37A16.91,16.91,0,0,0,95.36,57a55.23,55.23,0,0,0,5.38,1.26,1.63,1.63,0,0,1,.64.22,14.09,14.09,0,0,1-2.18,2.48A1.32,1.32,0,0,0,99,62.82a4.67,4.67,0,0,0,.65.75c.95.87,1.85,1.77,2.74,2.69l8.42,8.65a3.45,3.45,0,0,1,.26.28.41.41,0,0,1-.45.64,4.94,4.94,0,0,1-.57-.26c-2.31-1.25-4.52-2.65-6.74-4-2.79-1.74-5.55-3.53-8.47-5.06a1.41,1.41,0,0,0-1.73.11,33.64,33.64,0,0,1-3,2.1c-.41.26-.82.51-1.21.8a.89.89,0,0,0-.35,1.16c.52,1.53.91,3.09,1.32,4.65-.14.21-.36.17-.56.19l-.93.08a15.38,15.38,0,0,1-2.35.16c0-.06,0-.13-.06-.17a20.09,20.09,0,0,0-2.2-2.49,1.51,1.51,0,0,0-1.75-.31c-.52.22-1,.46-1.56.66-1.53.57-3.12.93-4.68,1.42a1.7,1.7,0,0,1-.31.06c-.37,0-.56-.11-.58-.48a4.39,4.39,0,0,1,0-.81A30.94,30.94,0,0,0,75,70.28a48.29,48.29,0,0,0-.22-5,77.83,77.83,0,0,0-1.53-9.73c-.26-1.21-.49-2.42-.86-3.6C72.4,51.89,72.42,51.78,72.34,51.7Z"/><path class="cls-2" d="M37.83,45.18a17.75,17.75,0,0,0-2.25-1.91c-1.26-1-2.55-1.83-3.88-2.68-.3-.2-.6-.39-.53-.85a1.2,1.2,0,0,1,.65.21,49.47,49.47,0,0,0,9.34,3.11,29.71,29.71,0,0,0,4.78.66,15.73,15.73,0,0,0,3.56-.25c.87-.15,1.75-.21,2.6-.43a15.49,15.49,0,0,0,6.52-3.64,21.75,21.75,0,0,0,4.7-6.08c.58-1.1,1.18-2.18,1.77-3.27.07-.12.09-.27.29-.33a2.93,2.93,0,0,1,.19,1.89C64.9,36.44,64.11,41.25,63,46c-.19.79-.38,1.59-.58,2.38a1.29,1.29,0,0,0-.06.62c-.22.19-.23.47-.31.72l-.74,2.57a1.65,1.65,0,0,0-.09.54c-.12.31-.25.61-.36.93-.5,1.42-1,2.85-1.49,4.28A5.7,5.7,0,0,0,59,59.09a3.11,3.11,0,0,0-.22.45c-.57,1.51-1.33,2.93-2,4.41a45.68,45.68,0,0,1-2.15,4.1c-.15.27-.27.56-.42.83-.79,1.43-1.67,2.81-2.54,4.19-1,1.6-2.11,3.13-3.21,4.66a17.15,17.15,0,0,1-2.48-.1c-.89-.1-1.78-.12-2.67-.16a1.27,1.27,0,0,1-.54-.14c0-.06,0-.13.05-.18a11.07,11.07,0,0,0,.48-6.61,3.5,3.5,0,0,0-2.72-3,5.68,5.68,0,0,0-2.25,0,28.37,28.37,0,0,0-6.7,2.35c-1.18.52-2.31,1.16-3.45,1.75-.5.26-1,.52-1.47.82-.93.57-1.85,1.18-2.73,1.83-.48.36-1,.68-1.5,1a.45.45,0,0,1-.67-.08.44.44,0,0,1,.07-.62l.17-.18c1.08-1.14,2.16-2.27,3.32-3.33,1-.91,2-1.81,3-2.69.86-.75,1.75-1.47,2.62-2.22,2.76-2.41,5.56-4.78,8.18-7.34a18.09,18.09,0,0,0,1.61-1.67,3.15,3.15,0,0,0,.67-.74,6.24,6.24,0,0,0,1.07-4.27A4.13,4.13,0,0,0,42,50.16a1.67,1.67,0,0,0-.33-.73,12.47,12.47,0,0,0-1.37-1.85A16.7,16.7,0,0,0,37.83,45.18Z"/><path class="cls-2" d="M61.2,52.83a1.65,1.65,0,0,1,.09-.54L62,49.72c.08-.25.09-.53.31-.72a10.39,10.39,0,0,1,2.14.42,2.58,2.58,0,0,1,.91,2.16c0,6.46,0,12.92,0,19.38q0,10.41,0,20.82c0,1.6,0,3.19,0,4.78a2.67,2.67,0,0,1-1.64,2.72c-.88.07-1.76,0-2.65,0a3,3,0,0,0-.31,0l-8.15-.37c-1.3-.06-2.59-.16-3.89-.19s-2.5-.18-3.76-.14a1.91,1.91,0,0,0-.63,0,4.41,4.41,0,0,0-1.26-.08,9.1,9.1,0,0,0-1.38-.05,2.43,2.43,0,0,0-.89-.07A14.61,14.61,0,0,0,39,98.25a4.12,4.12,0,0,0-1.4-.09,4.17,4.17,0,0,0-1,0,3.39,3.39,0,0,0-1-.12c-2.19-.12-4.38-.25-6.57-.34-1.48-.07-3-.22-4.44-.2-1-.16-2-.09-2.93-.22-.07-.09-.14-.1-.21,0h-.57l-8.3-.49a3.35,3.35,0,0,1-.84-.22,2.22,2.22,0,0,1-.83-2.4c.24-1.19.47-2.39.7-3.58Q12.74,84.14,14,77.72,15,72.37,16,67q1-5.52,2.09-11c.48-2.55.94-5.1,1.4-7.66.14-.71.28-1.43.41-2.15a3.85,3.85,0,0,1,.46-1.36,2.62,2.62,0,0,1,2.67-1.4l4.74.54,6.66.83,3.36.42a16.7,16.7,0,0,1,2.43,2.4,12.47,12.47,0,0,1,1.37,1.85,1.67,1.67,0,0,1,.33.73L40.78,50l-4.15-.59-4.16-.59-3-.41-4.29-.59c-.87-.11-1.73-.29-2.61-.33-.67,0-.89.15-1,.83q-.51,2.78-1,5.55-.69,3.73-1.36,7.47c-.32,1.73-.62,3.46-.93,5.19-.18,1-.34,2-.57,3-.17.72-.26,1.45-.41,2.17-.1.46-.13.94-.24,1.39-.17.65-.24,1.32-.38,2-.18.9-.29,1.81-.45,2.72s-.38,2-.57,3.08c-.53,3-1.05,5.89-1.6,8.83-.22,1.21,0,1.56,1.29,1.62,1,0,2,.08,3,.17.71.06,1.42.07,2.13.12,2.17.15,4.34.31,6.51.45,1.63.11,3.27.16,4.89.29.88.07,1.76.08,2.64.14l6.7.46c1.69.1,3.39.16,5.08.3.83.06,1.67.06,2.51.13,2.27.18,4.55.33,6.82.46.9.05,1.8.14,2.7.2,1.1.07,2.21.13,3.32.17a.82.82,0,0,0,.92-.81,1.61,1.61,0,0,0,0-.31c0-1.53,0-3.06.09-4.59.11-2.45,0-4.9.13-7.35s0-4.78.12-7.17,0-4.9.12-7.35,0-4.65.12-7c.09-1.9,0-3.82,0-5.72,0-.65-.21-.87-.84-1C62,52.92,61.59,52.88,61.2,52.83ZM36.05,95.36a2,2,0,0,0,2.05,2,2,2,0,0,0,2-2A2.11,2.11,0,0,0,38,93.45,1.94,1.94,0,0,0,36.05,95.36Z"/><path class="cls-3" d="M123.46,105l-.22.06s-.08-.11-.14-.11c-1.44-.23-2.88-.47-4.33-.65L115,103.9c-1.57-.17-3.15-.3-4.73-.44-1.42-.13-2.84-.17-4.26-.25s-2.85-.07-4.27-.12c-2-.08-4,0-6,.07-1.46,0-2.93.14-4.39.18-.64,0-1.3.06-1.94.12l-3.62.35c-1,.09-1.95.16-2.93.28-1.36.18-2.72.41-4.09.59-1.91.24-3.79.59-5.68.94q-3.7.69-7.35,1.61a1.63,1.63,0,0,1-.85,0c-2.36-.64-4.74-1.22-7.13-1.72-1.92-.39-3.85-.78-5.79-1.08-1.51-.23-3-.47-4.52-.65s-2.9-.36-4.36-.49c-.58-.05-1.17-.07-1.75-.14-1.7-.2-3.42-.26-5.13-.32q-3.17-.1-6.33,0c-1.33,0-2.65,0-4,0-1.62.11-3.25.13-4.88.33-.72.09-1.46.08-2.18.16-1.6.18-3.19.4-4.79.6s-3.14.46-4.7.71a10,10,0,0,1-2.17.32,9.1,9.1,0,0,1,.29-2.2,2,2,0,0,0,.07-.6c.31-1.27.5-2.55.74-3.83C9.58,91.71,10.74,85.08,12,78.48s2.45-13.26,3.71-19.89c.63-3.29,1.2-6.59,1.8-9.89.09-.49.08-.49.6-.46l1.38.06c-.46,2.56-.92,5.11-1.4,7.66q-1,5.52-2.09,11Q15,72.35,14,77.72q-1.23,6.42-2.47,12.82c-.23,1.19-.46,2.39-.7,3.58a2.22,2.22,0,0,0,.83,2.4,12.21,12.21,0,0,1,.87,5.43l.8-.07c1.18-.15,2.36-.33,3.55-.45,3.48-.38,7-.64,10.47-.74a136.62,136.62,0,0,1,23,1.18,138.69,138.69,0,0,1,14.44,2.75,2,2,0,0,0,.93,0q5.3-1.23,10.67-2,5.72-.89,11.48-1.32c3.46-.27,6.91-.4,10.37-.45,3.31,0,6.62.08,9.93.26,1.86.1,3.72.23,5.58.44,1.37.15,2.75.28,4.12.44.3,0,.44-.05.47-.33a2.82,2.82,0,0,1,.07-.31c.36-1.63.73-3.27,1.1-4.9a1,1,0,0,0,.62-1.27c-.3-1.54-.61-3.08-.9-4.62l-2.58-13.32c-.9-4.71-1.81-9.42-2.7-14.13q-1.24-6.57-2.46-13.15a7.94,7.94,0,0,1-.25-1.61l1.32,0c.54,0,.55,0,.64.48.19,1,.36,2,.55,3q1.09,6,2.2,12c.53,2.87,1,5.74,1.6,8.59.89,4.26,1.61,8.56,2.42,12.84q1.74,9.28,3.44,18.6c0,.16.05.33.08.49a.13.13,0,0,0,0,.21Z"/><path class="cls-2" d="M95.82,16a8.26,8.26,0,0,1,.61,2.15,25.69,25.69,0,0,1-.51,11.34A13.51,13.51,0,0,1,90,37.64a12.85,12.85,0,0,1-8.27,1.79,5.75,5.75,0,0,1-4.54-3,8.49,8.49,0,0,1-1.24-4,6.79,6.79,0,0,1,2.63-5.84,9,9,0,0,1,3.81-1.75,27.58,27.58,0,0,0,3.38-.77,16.79,16.79,0,0,0,5.69-3.49,46.61,46.61,0,0,0,3.2-3.39Z"/><path class="cls-3" d="M58.58,28c.14-.78.29-1.65.44-2.51.26-1.53.52-3.06.8-4.58.08-.38-.12-.58-.35-.81l-3.92-3.81c-.39-.38-.79-.76-1.17-1.15s-.26-.65.23-.74c1.06-.17,2.11-.33,3.17-.48,1.28-.19,2.57-.37,3.86-.54a1,1,0,0,0,.88-.67c1-2,2-4,3-6,.13-.25.17-.6.57-.59s.39.35.5.58c1,2,2,4,2.94,6a1.15,1.15,0,0,0,1,.75c2.16.28,4.31.6,6.46.9a5.1,5.1,0,0,1,.68.13.35.35,0,0,1,.2.59,3.64,3.64,0,0,1-.43.45c-1.58,1.54-3.15,3.09-4.74,4.6a1.12,1.12,0,0,0-.36,1.12c.41,2.27.8,4.54,1.19,6.81,0,.23.08.46-.15.62s-.4,0-.58-.08c-2-1-4-2.09-6-3.17a1.34,1.34,0,0,0-1.45,0c-1.89,1-3.82,2-5.73,3l-.28.15C58.74,28.83,58.55,28.71,58.58,28Zm-2-13.25c.18.17.39.12.58.13.57,0,1.14,0,1.69,0,1.25.17,2.51,0,3.75.2a.92.92,0,0,0,1-.62,3.66,3.66,0,0,0,.18-.46c.41-1.08.83-2.15,1.2-3.23a7.32,7.32,0,0,0,.52-1.58.65.65,0,0,0-.32.37c-.67,1.16-1.28,2.35-1.84,3.57a1.71,1.71,0,0,1-1.71,1.09c-1.13,0-2.25.21-3.37.3A8.83,8.83,0,0,0,56.53,14.78Zm9-5.95a.06.06,0,0,0,0,.1l0,0S65.57,8.85,65.56,8.83Z"/><path class="cls-2" d="M54.68,21.47a4.15,4.15,0,0,1,.52,1.15,1.67,1.67,0,0,1-.19,1.5,4.14,4.14,0,0,0-.22,4.46A9.54,9.54,0,0,0,55.63,30a3.62,3.62,0,0,1,.74,2.53,15.91,15.91,0,0,1-.18,2.07,5.67,5.67,0,0,1-.49,1.66c-.26.46-.34,1-.63,1.42a6.79,6.79,0,0,1-3.18,2.54c-.32.14-.64.27-1,.39a6.59,6.59,0,0,1-6.51-1.15,7.72,7.72,0,0,1-3.16-6.6,6.1,6.1,0,0,1,1.48-3.78,11.81,11.81,0,0,1,3.53-2.67c.9-.49,1.83-.93,2.75-1.38A22.63,22.63,0,0,0,54.68,21.47Z"/><path class="cls-2" d="M13,120.24l3.11,4.42c-.86,0-1.6,0-2.33,0-.24,0-.33-.25-.45-.42-.76-1.07-1.53-2.14-2.27-3.24a1,1,0,0,0-1-.49,12.51,12.51,0,0,1-1.5,0c-.31,0-.41.12-.41.41,0,1,0,2,0,3.08,0,.67,0,.67-.7.67-.36,0-.71,0-1.07,0s-.34-.1-.33-.34V113.52c0-.74-.06-.68.67-.69,1.61,0,3.23,0,4.84,0a5,5,0,0,1,2,.4,3.5,3.5,0,0,1,2.12,3.65A3.42,3.42,0,0,1,13.44,120,.8.8,0,0,0,13,120.24Zm-4.85-3.58c0,.54,0,1.09,0,1.63,0,.21,0,.37.31.37a30.84,30.84,0,0,0,3.33,0,1.93,1.93,0,0,0-.17-3.86c-1,0-2.06,0-3.09,0-.31,0-.38.15-.38.43C8.16,115.65,8.15,116.15,8.15,116.66Z"/><path class="cls-2" d="M42.32,116.92v-.84c0-1.09,0-2.18,0-3.27,0-.32.08-.47.42-.45a10.59,10.59,0,0,0,1.26,0c.27,0,.38.12.36.38s0,.25,0,.38v11c0,.54,0,.55-.56.55-.34,0-.67,0-1,0s-.46,0-.47-.45c0-.26,0-.53,0-.81-.24,0-.31.18-.41.3a3.72,3.72,0,0,1-4.5.68,4.18,4.18,0,0,1-2.21-3.26,5.52,5.52,0,0,1,.43-3.25A3.94,3.94,0,0,1,42,116.72C42,116.81,42.1,116.94,42.32,116.92Zm0,3.22a2.76,2.76,0,0,0-2.12-2.73,2.4,2.4,0,0,0-2.48,1,3.25,3.25,0,0,0,.08,3.7,2.45,2.45,0,0,0,4-.12A3,3,0,0,0,42.34,120.14Z"/><path class="cls-2" d="M73,123c.33-.39.64-.78,1-1.16s.3-.34.64-.07a5.65,5.65,0,0,0,2.16,1.12,5.12,5.12,0,0,0,1.87.09,1.84,1.84,0,0,0,1-.44,1.27,1.27,0,0,0-.17-2.08,7.24,7.24,0,0,0-2.12-.75,11.06,11.06,0,0,1-2.36-.84c-2-1-1.75-3.83-.7-4.91a4.14,4.14,0,0,1,2.65-1.28,6.68,6.68,0,0,1,4.58,1.2c.36.25.36.26.11.63s-.48.69-.71,1-.25.22-.45.07a5.64,5.64,0,0,0-2.21-1,3,3,0,0,0-1.61.07,1.35,1.35,0,0,0-1,1.23,1.28,1.28,0,0,0,.82,1.29,10,10,0,0,0,1.85.6,10.46,10.46,0,0,1,2.18.77,2.88,2.88,0,0,1,1.74,2.63,3.23,3.23,0,0,1-1.55,3,3.76,3.76,0,0,1-1.57.59,7.23,7.23,0,0,1-5.87-1.62A2.12,2.12,0,0,1,73,123Z"/><path class="cls-2" d="M94.55,116.85a.76.76,0,0,0,.41-.3,3.28,3.28,0,0,1,3.3-.87,3,3,0,0,1,2.22,3c0,1.37,0,2.73,0,4.09,0,.51,0,1,0,1.51,0,.28-.07.43-.39.42s-.88,0-1.32,0c-.26,0-.39-.08-.38-.36s0-.46,0-.69c0-1.22,0-2.43,0-3.65a6.73,6.73,0,0,0-.07-1A1.65,1.65,0,0,0,97,117.5a1.91,1.91,0,0,0-2.14,1,2.7,2.7,0,0,0-.26,1.28v4.65c0,.22-.1.31-.31.3H92.73c-.22,0-.29-.11-.29-.31V113.05c0-.74,0-.7.67-.7.34,0,.67,0,1,0s.44.1.44.43c0,.78,0,1.55,0,2.33Z"/><path class="cls-2" d="M31.9,123.68c-.3.24-.5.43-.72.57a3.88,3.88,0,0,1-3.84.22,2.47,2.47,0,0,1-1.48-2.37,2.56,2.56,0,0,1,1.38-2.49,3.66,3.66,0,0,1,1.68-.47,8.27,8.27,0,0,1,2.67.23l.24,0a1.47,1.47,0,0,0-1.12-1.77,4.74,4.74,0,0,0-2.48.07,4.42,4.42,0,0,0-.48.15c-.56.18-.56.18-.76-.4a.42.42,0,0,0,0-.12c-.35-1-.35-1,.63-1.32a7.23,7.23,0,0,1,3.72-.24,3.11,3.11,0,0,1,2.61,3c.14,1.84,0,3.68.06,5.53,0,.28-.09.42-.4.41s-.79,0-1.19,0-.46,0-.48-.5Zm-1.78-3.11a3.08,3.08,0,0,0-1.49.27,1.23,1.23,0,0,0-.73,1.22,1.19,1.19,0,0,0,.82,1.09,2.7,2.7,0,0,0,2.35-.2,1.79,1.79,0,0,0,.91-1.62.48.48,0,0,0-.4-.54A8.35,8.35,0,0,0,30.12,120.57Z"/><path class="cls-2" d="M106.35,115.59A4.61,4.61,0,0,1,111,119a4.66,4.66,0,0,1-4.46,5.85,4.46,4.46,0,0,1-4.4-2.46A4.61,4.61,0,0,1,106.35,115.59Zm2.68,4.63a2.67,2.67,0,0,0-2.89-2.82,2.62,2.62,0,0,0-2.45,2.49,2.77,2.77,0,0,0,3.57,3A2.72,2.72,0,0,0,109,120.22Z"/><path class="cls-2" d="M116.64,124.85a4.64,4.64,0,0,1-3.58-7.7,4.9,4.9,0,0,1,5.3-1.31,4.53,4.53,0,0,1,3.1,4.18,4.65,4.65,0,0,1-4.38,4.82Zm2.71-4.63a2.67,2.67,0,0,0-2.9-2.82,2.61,2.61,0,0,0-2.44,2.5,2.76,2.76,0,0,0,3.58,3A2.73,2.73,0,0,0,119.35,120.22Z"/><path class="cls-2" d="M51,120.93H48.14c-.42,0-.48.09-.35.49A2.26,2.26,0,0,0,49.55,123a3,3,0,0,0,2.61-.56c.55-.44.44-.38,1,0a2.29,2.29,0,0,1,.23.21c.45.41.65.34,0,.93a4.6,4.6,0,0,1-5.1.8,4.17,4.17,0,0,1-2.66-4,4.52,4.52,0,0,1,1.62-3.85,4.22,4.22,0,0,1,6.92,2.66,7.17,7.17,0,0,1,.12,1.31c0,.29-.12.41-.42.41C52.89,120.92,51.93,120.93,51,120.93Zm-3.25-1.37s0,0,0,0c1.38.07,2.76,0,4.14,0,.23,0,.27-.13.25-.33a2.2,2.2,0,0,0-2.64-2A2.34,2.34,0,0,0,47.71,119.56Z"/><path class="cls-2" d="M24.82,123.18a4.16,4.16,0,0,1-2.55,1.56,4.67,4.67,0,0,1-4.41-1.21,5,5,0,0,1,.37-7,4.22,4.22,0,0,1,6.86,2.4,5.79,5.79,0,0,1,.15,1.5c0,.48,0,.49-.5.49H19c-.24,0-.28.12-.23.33a2.39,2.39,0,0,0,1.89,1.8,3.19,3.19,0,0,0,2.61-.62c.42-.33.43-.32.82,0l.66.58S24.76,123.1,24.82,123.18Zm-1.64-3.62a2.76,2.76,0,0,0-.46-1.33,2.06,2.06,0,0,0-1.2-.86,2.26,2.26,0,0,0-2.76,1.75c-.13.46-.11.51.36.51,1.14,0,2.27,0,3.4,0A1.41,1.41,0,0,0,23.18,119.56Z"/><path class="cls-2" d="M64.89,124.84a5.91,5.91,0,0,1-3.54-1.06c-.37-.25-.37-.26-.14-.64s.33-.49.48-.74.28-.26.5-.11a4.58,4.58,0,0,0,1.22.64,3.91,3.91,0,0,0,1.66.25,1.37,1.37,0,0,0,.76-.27.79.79,0,0,0,0-1.32,2.64,2.64,0,0,0-.75-.33c-.54-.17-1.08-.33-1.61-.51a6.65,6.65,0,0,1-.85-.41,2.47,2.47,0,0,1-.27-4,3.08,3.08,0,0,1,1.53-.68,5.78,5.78,0,0,1,3.74.76c.22.13.3.25.15.49s-.35.62-.52.93-.23.21-.41.11a6.82,6.82,0,0,0-1.45-.6,3.53,3.53,0,0,0-1.12-.07,1,1,0,0,0-.75.4.7.7,0,0,0,.13,1,3.18,3.18,0,0,0,1,.48,16.06,16.06,0,0,1,2,.75,2.32,2.32,0,0,1,1.46,2.28,2.53,2.53,0,0,1-1.78,2.42A4,4,0,0,1,64.89,124.84Z"/><path class="cls-2" d="M87.8,124.85a4.5,4.5,0,0,1-4.68-4A4.74,4.74,0,0,1,91,116.76c.36.33.36.33,0,.69l-.61.64c-.37.39-.38.4-.78,0a2.88,2.88,0,0,0-1.56-.74,2.46,2.46,0,0,0-2.63,1.53,3.15,3.15,0,0,0-.1,2.28,2.62,2.62,0,0,0,4.09,1.32c.25-.17.43-.57.75-.48s.44.37.65.58c.61.57.76.45,0,1.14A4.09,4.09,0,0,1,87.8,124.85Z"/><path class="cls-1" d="M98.46,39.21a2.2,2.2,0,0,1-.74.31,50.75,50.75,0,0,1-7.06,2,34.75,34.75,0,0,1-4.66.61,25.35,25.35,0,0,1-2.89.07,12.59,12.59,0,0,1-3.4-.44,2,2,0,0,1,.82-.41,48,48,0,0,1,6.74-1.85,39.25,39.25,0,0,1,4.2-.57c1.67-.15,3.34-.06,5-.09.51,0,1,.15,1.55.13A.57.57,0,0,1,98.46,39.21Z"/><path class="cls-2" d="M57.58,117.39c.38-.38.64-.79,1-1.1a2.73,2.73,0,0,1,1.78-.69c.27,0,.38.09.37.36,0,.49,0,1,0,1.45,0,.18,0,.34-.25.34-2,.07-2.86,1.61-2.89,3.42,0,.94,0,1.89,0,2.83,0,.15,0,.29,0,.44a.21.21,0,0,1-.24.23h-1.5c-.18,0-.28-.07-.28-.26s0-.25,0-.37v-7.67c0-.1,0-.21,0-.31s.06-.29.25-.29h1.5c.23,0,.28.13.28.32Z"/><path class="cls-2" d="M122.85,118.52v-5.59c0-.6,0-.6.63-.61.35,0,.71,0,1.06,0s.4.08.38.36c0,.12,0,.25,0,.37V124c0,.13,0,.25,0,.38s-.11.33-.34.33h-1.07c-.65,0-.66,0-.66-.64Z"/><path class="cls-4" d="M123.46,104.52a.13.13,0,0,1,0-.21A.14.14,0,0,1,123.46,104.52Z"/><path class="cls-4" d="M100.72,38.49l0,0-.09.06c-.06,0-.09,0-.06-.06S100.68,38.5,100.72,38.49Z"/><path class="cls-5" d="M119.45,96.39c-.37,1.63-.74,3.27-1.1,4.9a2.82,2.82,0,0,0-.07.31c0,.28-.17.37-.47.33-1.37-.16-2.75-.29-4.12-.44-1.86-.21-3.72-.34-5.58-.44-3.31-.18-6.62-.3-9.93-.26-3.46,0-6.91.18-10.37.45q-5.76.44-11.48,1.32-5.39.82-10.67,2a2,2,0,0,1-.93,0,138.69,138.69,0,0,0-14.44-2.75,136.62,136.62,0,0,0-23-1.18c-3.5.1-7,.36-10.47.74-1.19.12-2.37.3-3.55.45l-.8.07a12.21,12.21,0,0,0-.87-5.43,3.35,3.35,0,0,0,.84.22l8.3.49h.57a.15.15,0,0,0,.21,0c1,.13,2,.06,2.93.22a.69.69,0,0,1-.53.28c-.72.09-1.45.15-2.17.27-1.64.26-3.27.57-4.93.75a.39.39,0,0,0-.34.23,18.52,18.52,0,0,0,2.29-.17,11.46,11.46,0,0,0,1.56-.1c.84-.2,1.7,0,2.55-.2A21.16,21.16,0,0,1,25,98.4c1.31-.1,2.63-.08,3.95-.13,2.3-.08,4.61,0,6.91,0,.22,0,.47.08.65-.12a4.17,4.17,0,0,1,1,0s.06.15.09.15A2,2,0,0,0,39,98.25a14.61,14.61,0,0,1,1.87.06.63.63,0,0,0,.89.07,9.1,9.1,0,0,1,1.38.05,1.22,1.22,0,0,0,1.26.08,1.91,1.91,0,0,1,.63,0c.07.3.32.23.51.22a13.66,13.66,0,0,1,2.31.17c1,.09,2,.21,3,.31s1.9.22,2.86.31c1.36.12,2.71.41,4.07.58s2.8.4,4.19.67c.38.07.83,0,1.18.3a3.25,3.25,0,0,1-1.26.19c-.65,0-1.3,0-2,0a15.75,15.75,0,0,1-3.35-.35c-.94-.17-1.89-.28-2.84-.41s-1.66-.15-2.48-.28c-1-.17-2-.23-3-.33-.64-.07-1.28-.13-1.93-.17-1-.07-2.07-.23-3.11-.23a1.13,1.13,0,0,1-.32,0,23.63,23.63,0,0,0-2.67-.21c-.84-.14-1.71-.07-2.57-.13-1.73-.11-3.46,0-5.2-.13-1.31-.09-2.63.06-3.95.08-2.09,0-4.18.15-6.27.15a.59.59,0,0,0-.19,0,19.59,19.59,0,0,1-2.87.21,23,23,0,0,1-2.49.19c-.45,0-.92.07-1.37.11s-.75.12-1.14.19c.12.23.29.14.42.18s.24.09.24.24-.09.17-.17.24-.39.08-.47.3c.14.08.23,0,.33,0,1.43-.13,2.86-.29,4.3-.39,1.18-.08,2.37-.13,3.55-.24.85-.08,1.71,0,2.56-.11,1.5-.11,3-.08,4.52-.13,2.59-.09,5.19,0,7.78.08,1.53,0,3.05.22,4.58.15a.61.61,0,0,1,.19,0,19.22,19.22,0,0,0,2.74.21c.74.08,1.49.14,2.24.19.49,0,1,0,1.5.11,1,.12,1.93.28,2.91.34s1.73.22,2.6.3c1.08.1,2.14.32,3.21.47,1.28.17,2.55.37,3.82.6.7.13,1.4.21,2.09.38.23.06.55.12.67-.17.25-.67.46-1.35.67-2,.07-.23,0-.4-.31-.45l-.36-.09-2.43-.62c-.15,0-.28-.07-.29-.26.89,0,1.77.09,2.65,0a4,4,0,0,0,2.33-.07,77.27,77.27,0,0,1,9-2.18c1.68-.32,3.36-.6,5.06-.81,1.38-.17,2.76-.37,4.15-.5.89-.09,1.78-.18,2.67-.25,1.29-.11,2.58-.17,3.86-.27,1-.08,2,0,3.07-.11a71.6,71.6,0,0,1,7.47-.08c1.39,0,2.8,0,4.19.11s2.75.16,4.12.26c1.16.09,2.32.17,3.48.32.59.08,1.2.14,1.8.17a20.56,20.56,0,0,1,2.23.26A17.79,17.79,0,0,0,119.45,96.39ZM15.56,99.09c.18,0,.41.14.57-.1C15.89,98.81,15.73,99,15.56,99.09Z"/><path class="cls-2" d="M96.87,87.45c2-.08,4,0,6,.16s4.21.31,6.31.57q3.39.42,6.75,1c.28.05.54.12.65.42.17.5-.2.91-.76.83s-1.36-.23-2-.35c-1.65-.28-3.31-.51-5-.71q-4.68-.54-9.39-.66c-1.36,0-2.73-.11-4.08,0-2.07.1-4.15.09-6.21.29-1.79.18-3.59.34-5.37.58-2.61.35-5.2.83-7.78,1.41-1.69.38-3.38.8-5,1.26a.71.71,0,0,1-.24.06.63.63,0,0,1-.72-.46.57.57,0,0,1,.41-.74c.68-.22,1.36-.41,2.05-.59a99.28,99.28,0,0,1,10-2c2-.29,4-.54,6-.68,1.44-.11,2.88-.18,4.32-.27S95.47,87.48,96.87,87.45Z"/><path class="cls-2" d="M96.53,84.32c1.15,0,2.31,0,3.46,0,1.65.08,3.3.16,5,.31,1.39.13,2.79.26,4.18.43,2.12.27,4.22.63,6.32,1a.74.74,0,0,1,.55.26.64.64,0,0,1,.05.71.67.67,0,0,1-.71.3L113.42,87c-1.73-.31-3.47-.55-5.22-.77-2-.26-4-.44-6.06-.56q-3.51-.21-7-.16-3,0-6,.28a90.57,90.57,0,0,0-13.2,2c-1.71.4-3.41.85-5.1,1.33a1.71,1.71,0,0,1-.3.09.65.65,0,0,1-.65-.41.57.57,0,0,1,.21-.72,2,2,0,0,1,.53-.21c2.48-.75,5-1.34,7.55-1.86q2.89-.6,5.82-1c1.32-.18,2.65-.32,4-.44A82.31,82.31,0,0,1,96.53,84.32Z"/><path class="cls-2" d="M114.89,84.5l-1.6-.29c-1.85-.35-3.71-.62-5.58-.85s-3.75-.4-5.63-.51c-2.7-.18-5.4-.27-8.1-.19-2.15.06-4.31.15-6.46.37A86.61,86.61,0,0,0,73.7,85.48c-.89.23-1.78.48-2.67.72-.18,0-.36.11-.54.15a.63.63,0,0,1-.8-.41.59.59,0,0,1,.43-.79,13.68,13.68,0,0,1,1.38-.42,89.47,89.47,0,0,1,9.68-2.15c1.75-.28,3.51-.53,5.28-.69s3.72-.29,5.58-.4c2.41-.13,4.82-.12,7.23,0,2.19.07,4.39.21,6.57.44q4.41.47,8.76,1.29a5.47,5.47,0,0,1,.55.13.59.59,0,0,1,.39.7A.69.69,0,0,1,114.89,84.5Z"/><path class="cls-2" d="M114.36,81.37,112,81c-1.63-.3-3.26-.53-4.9-.74-2-.26-4-.4-6-.58H101c-2.44-.06-4.87-.21-7.3-.11-2.11.08-4.22.16-6.33.37s-4.45.49-6.65.89A88.67,88.67,0,0,0,71,83.08a2.7,2.7,0,0,1-.85.19.55.55,0,0,1-.58-.47.59.59,0,0,1,.3-.7,3.75,3.75,0,0,1,.47-.17c2.79-.81,5.61-1.52,8.47-2.07,2.1-.4,4.2-.74,6.33-1s4.24-.4,6.38-.51c2.58-.15,5.15-.14,7.73-.06s4.85.28,7.26.56,5.06.69,7.57,1.17l.49.11c.41.12.58.35.52.73A.59.59,0,0,1,114.36,81.37Z"/><path class="cls-2" d="M86,75.72a15.38,15.38,0,0,0,2.35-.16l.93-.08c.2,0,.42,0,.56-.19,1,0,2-.08,3-.11,2.33-.08,4.65-.07,7,0a82.82,82.82,0,0,1,9.3,1c1.2.19,2.39.44,3.58.66.87.16,1.08,0,.92-.92,0-.29-.1-.58-.16-.86l-2.85-14.88q-1-5.31-2-10.61a1.44,1.44,0,0,0-1-1.22A41.24,41.24,0,0,0,94.1,46l-1.95,0a.61.61,0,0,1,.19-.26c1,0,2,0,3.08.07a43.22,43.22,0,0,1,11.7,2.2A2.31,2.31,0,0,1,108.89,50c.72,4.06,1.53,8.11,2.31,12.16l2.67,13.95c.14.75-.3,1.19-1.05,1-2-.43-4-.77-6-1s-3.83-.44-5.75-.57c-2.74-.18-5.49-.16-8.24-.1-2.13,0-4.26.24-6.38.48a80.73,80.73,0,0,0-10.92,2c-1.46.37-2.91.79-4.35,1.24l-.24.08c-.83.24-1.11,0-1.15-.85-.1-2.17-.22-4.35-.33-6.53,0-.92,0-1.84-.12-2.76-.1-1.53-.11-3.06-.18-4.59-.1-2.07-.22-4.14-.32-6.21-.06-1.11,0-2.22-.15-3.33a1.37,1.37,0,0,1,.6-1.31,24.48,24.48,0,0,1,3-2c.08.08.06.19.07.29a1,1,0,0,0-.23.07c-.94.55-1.84,1.17-2.72,1.81A1.16,1.16,0,0,0,69,55c.06,1,.09,1.92.14,2.88l.36,7.86c.14,3.33.27,6.66.44,10,0,.92.09,1.84.12,2.76,0,.62.2.74.79.58l.66-.2A82.27,82.27,0,0,1,86,75.72Z"/><path class="cls-5" d="M92.15,46l1.95,0a41.24,41.24,0,0,1,13.42,2.4,1.44,1.44,0,0,1,1,1.22q1,5.31,2,10.61l2.85,14.88c.06.28.11.57.16.86.16.88,0,1.08-.92.92-1.19-.22-2.38-.47-3.58-.66a82.82,82.82,0,0,0-9.3-1c-2.33-.12-4.65-.13-7,0-1,0-2,.13-3,.11-.41-1.56-.8-3.12-1.32-4.65a.89.89,0,0,1,.35-1.16c.39-.29.8-.54,1.21-.8a33.64,33.64,0,0,0,3-2.1,1.41,1.41,0,0,1,1.73-.11c2.92,1.53,5.68,3.32,8.47,5.06,2.22,1.39,4.43,2.79,6.74,4a4.94,4.94,0,0,0,.57.26.41.41,0,0,0,.45-.64,3.45,3.45,0,0,0-.26-.28l-8.42-8.65c-.89-.92-1.79-1.82-2.74-2.69a4.67,4.67,0,0,1-.65-.75,1.32,1.32,0,0,1,.23-1.89,14.09,14.09,0,0,0,2.18-2.48,1.63,1.63,0,0,0-.64-.22A55.23,55.23,0,0,1,95.36,57a16.91,16.91,0,0,1-4.52-2.15,4,4,0,0,1-1.33-5.37,16.15,16.15,0,0,1,2.39-3.3A2.35,2.35,0,0,1,92.15,46Z"/><path class="cls-5" d="M86,75.72a82.27,82.27,0,0,0-14.48,3.11l-.66.2c-.59.16-.77,0-.79-.58,0-.92-.08-1.84-.12-2.76-.17-3.33-.3-6.66-.44-10l-.36-7.86c0-1-.08-1.92-.14-2.88a1.16,1.16,0,0,1,.5-1.09c.88-.64,1.78-1.26,2.72-1.81a1,1,0,0,1,.23-.07c.37,1.18.6,2.39.86,3.6a77.83,77.83,0,0,1,1.53,9.73,48.29,48.29,0,0,1,.22,5,30.94,30.94,0,0,1-.19,3.32,4.39,4.39,0,0,0,0,.81c0,.37.21.52.58.48a1.7,1.7,0,0,0,.31-.06c1.56-.49,3.15-.85,4.68-1.42.53-.2,1-.44,1.56-.66a1.51,1.51,0,0,1,1.75.31,20.09,20.09,0,0,1,2.2,2.49S85.93,75.66,86,75.72Z"/><path class="cls-3" d="M61.2,52.83c.39.05.79.09,1.18.15.63.09.84.31.84,1,0,1.9,0,3.82,0,5.72-.11,2.33,0,4.65-.12,7s0,4.9-.12,7.35,0,4.78-.12,7.17,0,4.9-.13,7.35c-.07,1.53,0,3.06-.09,4.59a1.61,1.61,0,0,1,0,.31.82.82,0,0,1-.92.81c-1.11,0-2.22-.1-3.32-.17-.9-.06-1.8-.15-2.7-.2-2.27-.13-4.55-.28-6.82-.46-.84-.07-1.68-.07-2.51-.13-1.69-.14-3.39-.2-5.08-.3l-6.7-.46c-.88-.06-1.76-.07-2.64-.14-1.62-.13-3.26-.18-4.89-.29-2.17-.14-4.34-.3-6.51-.45-.71-.05-1.42-.06-2.13-.12-1-.09-2-.12-3-.17-1.24-.06-1.51-.41-1.29-1.62.55-2.94,1.07-5.88,1.6-8.83.19-1,.39-2,.57-3.08s.27-1.82.45-2.72c.14-.66.21-1.33.38-2,.11-.45.14-.93.24-1.39.15-.72.24-1.45.41-2.17.23-1,.39-2,.57-3,.31-1.73.61-3.46.93-5.19q.67-3.74,1.36-7.47.49-2.77,1-5.55c.12-.68.34-.85,1-.83.88,0,1.74.22,2.61.33l4.29.59,3,.41,4.16.59,4.15.59,1.18.15a4.13,4.13,0,0,1,.61,1.94,6.24,6.24,0,0,1-1.07,4.27,3.15,3.15,0,0,1-.67.74L40,57,36,56.57,31,56l-4.3-.47q-1.07-.12-2.13-.18a1.74,1.74,0,0,0-1.22.41A2.24,2.24,0,0,0,22.63,57c-.35,1.5-.62,3-1,4.53-.24,1-.4,2.12-.62,3.17-.6,2.9-1.18,5.8-1.77,8.69a1.71,1.71,0,0,0,0,.81,1.93,1.93,0,0,0,1.87,1.57c.67.08,1.34.11,2,.15,1.35.1,2.71.18,4.07.29,1.92.14,3.83.31,5.75.45,1.61.12,3.22.2,4.83.31.62,0,1.25.16,1.87.17a25.24,25.24,0,0,0,3.13.16,1.27,1.27,0,0,0,.54.14c.89,0,1.78.06,2.67.16a17.15,17.15,0,0,0,2.48.1.36.36,0,0,0,.28.12c1.3.09,2.59.16,3.88.27.67.06,1.34.09,2,.15,1.12.09,2.25.22,3.38.23A1.77,1.77,0,0,0,60,76.84c.19-1.58.33-3.16.47-4.74.19-2.17.33-4.34.55-6.51.07-.66.11-1.33.18-2A22.22,22.22,0,0,0,61.35,61,1.82,1.82,0,0,0,60,59.24,4.67,4.67,0,0,0,59,59.09,5.7,5.7,0,0,1,59.35,58c.5-1.43,1-2.86,1.49-4.28C61,53.44,61.08,53.14,61.2,52.83ZM43.6,79.27l-.23-.21a.83.83,0,0,0-1.16-.18L42,79a22.48,22.48,0,0,1-3.07-.17c-1.82-.11-3.63-.31-5.44-.45-1.33-.11-2.67-.17-4-.29-.61-.06-1.21-.08-1.82-.13l-4.19-.35c-.68-.06-1.37-.11-2.06-.19s-1.29-.06-1.94-.15a.7.7,0,0,0-.84.57.73.73,0,0,0,.62.88,4.2,4.2,0,0,0,.62.08c1.77.1,3.54.25,5.32.38l5.38.38c1.71.13,3.42.24,5.13.38,2.06.17,4.13.28,6.19.42a.89.89,0,0,0,1.32.31c.1-.06.2-.15.3-.22,1.45.23,2.92.24,4.38.36,2.08.18,4.17.29,6.26.43.79,0,1.59.14,2.38.2s1.5.12,2.25.14a.68.68,0,0,0,.76-.52c0-.31-.2-.55-.64-.65l-.19,0L54,80c-1.86-.14-3.72-.24-5.57-.42-.73-.08-1.46-.12-2.19-.18A15.31,15.31,0,0,0,43.6,79.27Zm-1.26,6.06a3.29,3.29,0,0,0-1.47-2.93A3.77,3.77,0,0,0,38,81.76,4.13,4.13,0,0,0,35,83.82a2.62,2.62,0,0,0,0,2.7,4.28,4.28,0,0,0,4.52,2A3.36,3.36,0,0,0,42.34,85.33Zm-9.19-.74a1.67,1.67,0,0,0-.2-1,3.22,3.22,0,0,0-3-1.77,2.7,2.7,0,0,0-2.67,2.65,2,2,0,0,0,.55,1.54,2.86,2.86,0,0,0,1.91,1,3.49,3.49,0,0,0,2.67-.83A2,2,0,0,0,33.15,84.59Zm17,1.27a2.77,2.77,0,0,0-1.62-2.42,3.21,3.21,0,0,0-3.5.69,2.24,2.24,0,0,0,.08,3.47,3.37,3.37,0,0,0,2.17.87A2.73,2.73,0,0,0,50.13,85.86Z"/><path class="cls-2" d="M24.45,55.82h.08c.76.06,1.45.11,2.11.18l4.29.48,2.15.25,2.9.33,2.29.25,1.57.16c-.19.2-.38.39-.59.58l-.38.37c-2.19,2.14-4.54,4.18-6.81,6.15l-1.35,1.18L29.29,67l-1.2,1c-1.06.92-2.09,1.84-3,2.71-1.11,1-2.15,2.07-3.35,3.35l-.07.08-.11.1a.93.93,0,0,0-.19,1.12h-.15a1.47,1.47,0,0,1-1.45-1.2,1.33,1.33,0,0,1,0-.59l.54-2.65c.4-2,.81-4,1.23-6,.1-.46.18-.91.26-1.37s.23-1.21.36-1.8.32-1.45.46-2.18.32-1.57.51-2.35a1.65,1.65,0,0,1,.54-1,1.24,1.24,0,0,1,.79-.31m15,12.07a4.28,4.28,0,0,1,1,.11,3,3,0,0,1,2.34,2.64,10.59,10.59,0,0,1-.41,6.21h-.18a12.39,12.39,0,0,1-1.34-.09c-.4,0-.81-.08-1.22-.09a9.5,9.5,0,0,1-1-.09l-.81-.08-2.13-.13L33,76.19c-1.07-.07-2.14-.16-3.22-.25l-2.53-.2-2.71-.19-1.37-.1H23.1c.4-.26.81-.52,1.2-.81.8-.59,1.68-1.18,2.69-1.81.44-.27.89-.51,1.44-.79l.93-.49c.81-.43,1.64-.88,2.49-1.25l.53-.23a25.51,25.51,0,0,1,6-2.09,6.33,6.33,0,0,1,1-.09m-15-12.57a1.74,1.74,0,0,0-1.11.42A2.24,2.24,0,0,0,22.63,57c-.35,1.5-.62,3-1,4.53-.24,1-.4,2.12-.62,3.17-.6,2.9-1.18,5.8-1.77,8.69a1.71,1.71,0,0,0,0,.81,1.93,1.93,0,0,0,1.87,1.57c.67.08,1.34.11,2,.15,1.35.1,2.71.18,4.07.29,1.92.14,3.83.31,5.75.45,1.61.12,3.22.2,4.83.31.62,0,1.25.16,1.87.17.86,0,1.72.18,2.58.18a5.06,5.06,0,0,0,.55,0c0-.06,0-.13.05-.18a11.07,11.07,0,0,0,.48-6.61,3.5,3.5,0,0,0-2.72-3,5.52,5.52,0,0,0-1.14-.12,6,6,0,0,0-1.11.1,28.37,28.37,0,0,0-6.7,2.35c-1.18.52-2.31,1.16-3.45,1.75-.5.26-1,.52-1.47.82-.93.57-1.85,1.18-2.73,1.83-.48.36-1,.68-1.5,1a.62.62,0,0,1-.32.11.46.46,0,0,1-.28-.81l.17-.18c1.08-1.14,2.16-2.27,3.32-3.33,1-.91,2-1.81,3-2.69.86-.75,1.75-1.47,2.62-2.22,2.76-2.41,5.56-4.78,8.18-7.34a18.09,18.09,0,0,0,1.61-1.67L40,57,36,56.57,31,56l-4.3-.47q-1.07-.12-2.13-.18Z"/><path class="cls-2" d="M59.27,59.62a2.7,2.7,0,0,1,.6.09,1.34,1.34,0,0,1,1,1.33A16.21,16.21,0,0,1,60.72,63l-.06.57-.09,1q0,.53-.09,1c-.13,1.35-.24,2.71-.35,4-.06.83-.13,1.66-.2,2.48-.14,1.55-.28,3.15-.47,4.73A1.26,1.26,0,0,1,58,78c-.88,0-1.79-.09-2.66-.17l-.68-.06-1-.07-1-.07c-.93-.09-1.85-.15-2.78-.21l-.56,0c.93-1.3,1.89-2.65,2.77-4l0,0c.85-1.35,1.74-2.75,2.52-4.17l.23-.44c.06-.13.13-.27.2-.4l.43-.77c.6-1.08,1.23-2.2,1.74-3.37.24-.57.5-1.12.76-1.68.42-.89.85-1.81,1.2-2.75,0,0,0-.07.05-.1M59,59.09a3.11,3.11,0,0,0-.22.45c-.57,1.51-1.33,2.93-2,4.41a45.68,45.68,0,0,1-2.15,4.1c-.15.27-.27.56-.42.83-.79,1.43-1.67,2.81-2.54,4.19-1,1.6-2.11,3.13-3.21,4.66a.36.36,0,0,0,.28.12c1.3.09,2.59.16,3.88.27.67.06,1.34.09,2,.15,1.12.09,2.25.22,3.38.23h0A1.76,1.76,0,0,0,60,76.84c.19-1.58.33-3.16.47-4.74.19-2.17.33-4.34.55-6.51.07-.66.11-1.33.18-2A22.22,22.22,0,0,0,61.35,61,1.82,1.82,0,0,0,60,59.24,4.67,4.67,0,0,0,59,59.09Z"/><path class="cls-1" d="M61.09,99.26c0,.19.14.23.29.26l2.43.62.36.09c.26,0,.38.22.31.45-.21.68-.42,1.36-.67,2-.12.29-.44.23-.67.17-.69-.17-1.39-.25-2.09-.38-1.27-.23-2.54-.43-3.82-.6-1.07-.15-2.13-.37-3.21-.47-.87-.08-1.73-.24-2.6-.3s-1.94-.22-2.91-.34c-.5-.06-1-.08-1.5-.11-.75-.05-1.5-.11-2.24-.19a19.22,19.22,0,0,1-2.74-.21.61.61,0,0,0-.19,0c-1.53.07-3.05-.11-4.58-.15-2.59-.09-5.19-.17-7.78-.08-1.51,0-3,0-4.52.13-.85.06-1.71,0-2.56.11-1.18.11-2.37.16-3.55.24-1.44.1-2.87.26-4.3.39-.1,0-.19.1-.33,0,.08-.22.33-.18.47-.3s.18-.12.17-.24-.12-.2-.24-.24-.3,0-.42-.18c.39-.07.76-.16,1.14-.19s.92-.1,1.37-.11a23,23,0,0,0,2.49-.19,19.59,19.59,0,0,0,2.87-.21.59.59,0,0,1,.19,0c2.09,0,4.18-.13,6.27-.15,1.32,0,2.64-.17,3.95-.08,1.74.12,3.47,0,5.2.13.86.06,1.73,0,2.57.13a23.63,23.63,0,0,1,2.67.21,1.13,1.13,0,0,0,.32,0c1,0,2.08.16,3.11.23.65,0,1.29.1,1.93.17,1,.1,2,.16,3,.33.82.13,1.65.18,2.48.28s1.9.24,2.84.41a15.75,15.75,0,0,0,3.35.35c.65,0,1.3,0,2,0a3.25,3.25,0,0,0,1.26-.19c-.35-.31-.8-.23-1.18-.3-1.39-.27-2.79-.49-4.19-.67s-2.71-.46-4.07-.58c-1-.09-1.91-.22-2.86-.31s-2-.22-3-.31a13.66,13.66,0,0,0-2.31-.17c-.19,0-.44.08-.51-.22,1.26,0,2.51.11,3.76.14s2.59.13,3.89.19l8.15.37A3,3,0,0,1,61.09,99.26Z"/><path class="cls-1" d="M36.55,98.13c-.18.2-.43.12-.65.12-2.3,0-4.61-.06-6.91,0-1.32,0-2.64,0-3.95.13a21.16,21.16,0,0,0-2.12.13c-.85.15-1.71,0-2.55.2a11.46,11.46,0,0,1-1.56.1,18.52,18.52,0,0,1-2.29.17.39.39,0,0,1,.34-.23c1.66-.18,3.29-.49,4.93-.75.72-.12,1.45-.18,2.17-.27a.69.69,0,0,0,.53-.28c1.48,0,3,.13,4.44.2,2.19.09,4.38.22,6.57.34A3.39,3.39,0,0,1,36.55,98.13Z"/><path class="cls-3" d="M36.05,95.36A1.94,1.94,0,0,1,38,93.45a2.11,2.11,0,0,1,2.1,1.91,2,2,0,0,1-2,2A2,2,0,0,1,36.05,95.36ZM38,97a1.68,1.68,0,0,0,1.79-1.56,1.8,1.8,0,0,0-1.73-1.73,1.73,1.73,0,0,0-1.76,1.6A1.77,1.77,0,0,0,38,97Z"/><path class="cls-1" d="M39,98.25a2,2,0,0,1-1.31.06s-.06-.1-.09-.15A4.12,4.12,0,0,1,39,98.25Z"/><path class="cls-1" d="M44.35,98.51a1.22,1.22,0,0,1-1.26-.08A4.41,4.41,0,0,1,44.35,98.51Z"/><path class="cls-1" d="M41.71,98.38a.63.63,0,0,1-.89-.07A2.43,2.43,0,0,1,41.71,98.38Z"/><path class="cls-6" d="M21.56,97.25a.15.15,0,0,1-.21,0C21.42,97.15,21.49,97.16,21.56,97.25Z"/><path class="cls-1" d="M65.56,8.83s0,0,0,.06l0,0A.06.06,0,0,1,65.56,8.83Z"/><path class="cls-1" d="M15.56,99.09c.17-.07.33-.28.57-.1C16,99.23,15.74,99.07,15.56,99.09Z"/><path class="cls-2" d="M42.34,85.33a3.36,3.36,0,0,1-2.89,3.2,4.28,4.28,0,0,1-4.52-2,2.62,2.62,0,0,1,0-2.7A4.13,4.13,0,0,1,38,81.76a3.77,3.77,0,0,1,2.86.64A3.29,3.29,0,0,1,42.34,85.33Zm-3.41,1c0,.11,0,.21,0,.32,0,.5.11.7.46.75s.56-.13.63-.61c.13-.87.24-1.74.33-2.62.05-.48-.19-.69-.67-.65s-.51.15-.56.62C39,84.85,39,85.58,38.93,86.31Zm-.35-1.92a3.62,3.62,0,0,0,0-.57c0-.32-.32-.47-.78-.45s-.53.13-.53.48c0,1,0,1.92.06,2.88a.51.51,0,0,0,1,0C38.45,86,38.51,85.18,38.58,84.39Z"/><path class="cls-2" d="M41.85,80.38c-2.06-.14-4.13-.25-6.19-.42-1.71-.14-3.42-.25-5.13-.38l-5.38-.38c-1.78-.13-3.55-.28-5.32-.38a4.2,4.2,0,0,1-.62-.08.73.73,0,0,1-.62-.88.7.7,0,0,1,.84-.57c.65.09,1.3.08,1.94.15s1.38.13,2.06.19l4.19.35c.61,0,1.21.07,1.82.13,1.33.12,2.67.18,4,.29,1.81.14,3.62.34,5.44.45A22.48,22.48,0,0,0,42,79,1.89,1.89,0,0,0,41.85,80.38Z"/><path class="cls-1" d="M43.6,79.27a15.31,15.31,0,0,1,2.62.16c.73.06,1.46.1,2.19.18,1.85.18,3.71.28,5.57.42l4.69.38.19,0c.44.1.68.34.64.65a.68.68,0,0,1-.76.52c-.75,0-1.5-.08-2.25-.14s-1.59-.15-2.38-.2c-2.09-.14-4.18-.25-6.26-.43-1.46-.12-2.93-.13-4.38-.36A3,3,0,0,0,43.6,79.27Z"/><path class="cls-2" d="M33.15,84.59a2,2,0,0,1-.74,1.67,3.49,3.49,0,0,1-2.67.83,2.86,2.86,0,0,1-1.91-1,2,2,0,0,1-.55-1.54A2.7,2.7,0,0,1,30,81.87a3.22,3.22,0,0,1,3,1.77A1.67,1.67,0,0,1,33.15,84.59Zm-3.31-.17h.05c0-.35,0-.71,0-1.07s-.19-.43-.43-.23c-.39.32-.75.68-1.12,1-.18.16-.13.33,0,.49l.95,1.09c.09.09.17.2.32.17s.21-.19.22-.34C29.85,85.18,29.84,84.8,29.84,84.42Zm.56.13h0c0,.34-.07.67-.08,1s.15.57.44.59.44-.14.47-.47q.12-1.07.18-2.13c0-.37-.13-.51-.46-.53s-.5.11-.52.47S30.4,84.19,30.4,84.55Z"/><path class="cls-2" d="M50.13,85.86a2.73,2.73,0,0,1-2.87,2.61,3.37,3.37,0,0,1-2.17-.87A2.24,2.24,0,0,1,45,84.13a3.21,3.21,0,0,1,3.5-.69A2.77,2.77,0,0,1,50.13,85.86Zm-2.71,1.08a.31.31,0,0,0,.1.34c.15.1.28,0,.39-.08l1.17-1c.2-.16.17-.31,0-.49l-.86-1.08c-.09-.12-.2-.22-.37-.16s-.14.19-.16.31C47.62,85.54,47.52,86.24,47.42,86.94Zm-1.33-.79h0c0,.22-.07.45-.08.68a.45.45,0,0,0,.4.54.42.42,0,0,0,.49-.37c0-.08,0-.16,0-.25.08-.64.16-1.28.23-1.93,0-.35-.11-.53-.43-.56s-.5.09-.54.44S46.13,85.67,46.09,86.15Z"/><path class="cls-5" d="M43.6,79.27a3,3,0,0,1-.13,1.2c-.1.07-.2.16-.3.22a.89.89,0,0,1-1.32-.31A1.89,1.89,0,0,1,42,79l.26-.14a.83.83,0,0,1,1.16.18Z"/><path class="cls-7" d="M38,97a1.77,1.77,0,0,1-1.7-1.69,1.73,1.73,0,0,1,1.76-1.6,1.8,1.8,0,0,1,1.73,1.73A1.68,1.68,0,0,1,38,97Z"/><path class="cls-1" d="M38.93,86.31c0-.73.1-1.46.17-2.19,0-.47.19-.6.56-.62s.72.17.67.65c-.09.88-.2,1.75-.33,2.62-.07.48-.27.65-.63.61s-.47-.25-.46-.75C38.92,86.52,38.92,86.42,38.93,86.31Z"/><path class="cls-1" d="M38.58,84.39c-.07.79-.13,1.58-.23,2.37a.51.51,0,0,1-1,0c0-1-.06-1.92-.06-2.88,0-.35.17-.47.53-.48s.73.13.78.45A3.62,3.62,0,0,1,38.58,84.39Z"/><path class="cls-1" d="M29.84,84.42c0,.38,0,.76,0,1.13,0,.15,0,.31-.22.34s-.23-.08-.32-.17l-.95-1.09c-.14-.16-.19-.33,0-.49.37-.34.73-.7,1.12-1,.24-.2.42-.1.43.23s0,.72,0,1.07Z"/><path class="cls-1" d="M30.4,84.55c0-.36,0-.71,0-1.07s.19-.49.52-.47.48.16.46.53q-.06,1.06-.18,2.13c0,.33-.23.49-.47.47s-.45-.22-.44-.59.05-.66.08-1Z"/><path class="cls-1" d="M47.42,86.94c.1-.7.2-1.4.31-2.11,0-.12,0-.25.16-.31s.28,0,.37.16l.86,1.08c.13.18.16.33,0,.49l-1.17,1c-.11.09-.24.18-.39.08A.31.31,0,0,1,47.42,86.94Z"/><path class="cls-1" d="M46.09,86.15c0-.48.08-1,.14-1.44s.21-.48.54-.44.47.21.43.56c-.07.65-.15,1.29-.23,1.93,0,.09,0,.17,0,.25a.42.42,0,0,1-.49.37.45.45,0,0,1-.4-.54c0-.23,0-.46.08-.68Z"/></svg>