<svg id="Layer_52" data-name="Layer 52" xmlns="http://www.w3.org/2000/svg" viewBox="0 0 131 131"><defs><style>.cls-1{fill:#1b3d65;}</style></defs><path class="cls-1" d="M128.28,66.6c-.25.07-.25.32-.35.49a2.52,2.52,0,0,1-3.57,1c-.19-.1-.34-.43-.52.09s-.65.14-1,.16-.27-.32-.27-.53c0-2.38,0-4.76,0-7.14,0-.56.27-.56.67-.56s.71,0,.68.56c0,.91,0,1.83,0,2.74.07,0,.13.06.16.05,1.86-1.12,3.13-.68,4.23,1.45Zm-2.86.6A1.56,1.56,0,0,0,127,65.64a1.53,1.53,0,0,0-1.45-1.56,1.56,1.56,0,0,0-.08,3.12Z"/><path class="cls-1" d="M30.33,57.46c0-.46-.51-.39-.66-.74,1-.36,2.07-.71,3.1-1.08.2-.07.65,0,.36-.51-.12-.24.33-.23.52-.28,1.72-.45,3.44-.87,5.16-1.32.27-.07.58,0,.77-.3h.32c.2,2,.2,2.05-1.73,2.63a41.63,41.63,0,0,1-5.5,1.46c-.63.09-1.28-.23-1.89.14Z"/><path class="cls-1" d="M13.63,77.77a3.26,3.26,0,0,1-1.21-2.24c-.37-1.6-.79-3.2-1.17-4.81-.06-.25-.44-.72.15-.76s1.14-.31,1.26.59c.24,1.79.54,3.58.82,5.36.1.62.21,1.24.31,1.86Z"/><path class="cls-1" d="M43.2,53.23A2,2,0,0,1,41.45,55c-.39.07-.35-.16-.46-.33v0c.4-.07.52-.27.32-.63h0l1.43-.78Z"/><path class="cls-1" d="M41,54.62c-.41-.1-.3.42-.62.5l-.16-1.89h.63c.3.17.67.3.46.78h0c-.26.13-.5.27-.32.63Z"/><path class="cls-1" d="M58.51,68.22a1.74,1.74,0,0,1-2.34-1,13.4,13.4,0,0,0-1-1.5.57.57,0,0,0-.69-.24c-.29.08-.18.34-.18.53,0,.5,0,1,0,1.49a.8.8,0,0,1-1.2.81c-.24-.09-.19-.28-.19-.45,0-2.31,0-4.62,0-6.92,0-.37.09-.51.48-.5.92,0,1.84,0,2.75,0a2.25,2.25,0,0,1,2.28,1.89,2.43,2.43,0,0,1-1.29,2.84c-.62.26-.4.47-.15.82C57.49,66.73,58,67.48,58.51,68.22ZM54.3,63c0,1.28,0,1.28.86,1.28,1.39,0,1.9-.34,1.9-1.27s-.5-1.28-1.8-1.28C54.3,61.7,54.3,61.7,54.3,63Z"/><path class="cls-1" d="M105.57,64.35A4,4,0,0,1,108,60.64a3.71,3.71,0,0,1,4.16.67c.18.15.71.35.26.7s-.52.84-1.14.29a2.46,2.46,0,0,0-3.58.16,2.91,2.91,0,0,0,0,3.87,2.5,2.5,0,0,0,3.58.09c.62-.53.83.13,1.13.35s-.07.49-.24.64a3.74,3.74,0,0,1-4.23.69A4,4,0,0,1,105.57,64.35Z"/><path class="cls-1" d="M30.33,57.46h.45a1.1,1.1,0,0,0,1,.16,12.14,12.14,0,0,1,5.19.37,13.56,13.56,0,0,1,2.49.5,6.4,6.4,0,0,1-2.78.71l1.17.17c-.47.59-.91,1.11-1.34,1.64a.39.39,0,0,1-.41.14,17.31,17.31,0,0,1-6.43-2.39l6.78.49V59c-2.81-.49-5.7-.29-8.5-.91h0A3.23,3.23,0,0,1,30.33,57.46Z"/><path class="cls-1" d="M63.38,67.75c-1.46.88-2.43.9-3.37.11a3.06,3.06,0,0,1-.78-3.3,2.5,2.5,0,0,1,3.71-1.34c.27.16.37.34.58-.12s.67-.14,1-.1.22.41.22.64c0,1.3,0,2.61,0,3.92,0,.25.24.73-.29.73S63.38,68.66,63.38,67.75Zm-1.5-3.67a1.53,1.53,0,0,0-1.5,1.59,1.51,1.51,0,1,0,1.5-1.59Z"/><path class="cls-1" d="M79.09,63.61a2.22,2.22,0,0,1,2.66-.55,2.2,2.2,0,0,1,1.11,2.18c0,.87,0,1.73,0,2.59,0,.56-.33.49-.67.48s-.69.1-.67-.47c0-.78,0-1.57,0-2.35s-.46-1.4-1.16-1.39a1.29,1.29,0,0,0-1.29,1.39c0,.78,0,1.57,0,2.35,0,.57-.35.47-.68.47s-.66.07-.66-.48c0-2.43,0-4.87,0-7.3,0-.59.38-.43.69-.45s.67,0,.65.5C79.06,61.53,79.09,62.49,79.09,63.61Z"/><path class="cls-1" d="M74.73,66.11H73.16c-.14,0-.34-.08-.41.12s.06.3.15.43a1.66,1.66,0,0,0,2.33.2c.53-.43.77,0,1,.21s-.11.55-.3.71a3,3,0,0,1-3.71,0,3,3,0,0,1-.62-3.59A2.8,2.8,0,0,1,75,63a2.67,2.67,0,0,1,1.85,2.64c0,.35-.1.53-.5.51S75.26,66.12,74.73,66.11Zm-.64-.93a1.68,1.68,0,0,0,.39,0c.31-.08.85.24.89-.23s-.41-.76-.89-.86a1.5,1.5,0,0,0-1.34.25c-.22.18-.48.41-.38.71s.41.11.63.13A5.45,5.45,0,0,0,74.09,65.18Z"/><path class="cls-1" d="M100.75,66.12a1.59,1.59,0,0,0,2.57.75c.58-.45.83,0,1.07.26s-.14.49-.32.65a3,3,0,0,1-3.71,0,3,3,0,0,1-.66-3.58A2.83,2.83,0,0,1,103.08,63a2.65,2.65,0,0,1,1.8,2.51c0,.47-.1.65-.61.64C103.13,66.09,102,66.12,100.75,66.12Zm1.38-.94c.28,0,.57,0,.85,0s.41.1.5-.1-.07-.39-.2-.56a1.55,1.55,0,0,0-2.22,0c-.13.16-.3.35-.25.55s.35.12.54.14A6.74,6.74,0,0,0,102.13,65.18Z"/><path class="cls-1" d="M89.46,65.69a2.83,2.83,0,1,1-2.79-2.86A2.77,2.77,0,0,1,89.46,65.69Zm-4.3-.07a1.49,1.49,0,0,0,1.48,1.58,1.56,1.56,0,0,0,0-3.12A1.48,1.48,0,0,0,85.16,65.62Z"/><path class="cls-1" d="M119.87,67.8c-.22,0-.29.16-.41.24a2,2,0,0,1-3.26-1.41,30.24,30.24,0,0,1-.06-3.3c0-.62.5-.29.77-.35s.57,0,.55.42c0,.78,0,1.57,0,2.36s.4,1.42,1.09,1.44,1.34-.54,1.36-1.48c0-.76,0-1.52,0-2.28,0-.58.36-.46.68-.47s.67-.08.66.48c0,1.39,0,2.78,0,4.17,0,.26.2.71-.35.68S119.87,68.6,119.87,67.8Z"/><path class="cls-1" d="M95.08,66.64a.65.65,0,0,1,.71.38.89.89,0,0,0,1.13.26.53.53,0,0,0,.42-.5c0-.29-.19-.41-.43-.49-.45-.13-.91-.23-1.35-.4a1.46,1.46,0,0,1-1-1.44,1.54,1.54,0,0,1,1-1.43,2.36,2.36,0,0,1,2.61.49c.21.27.5.71.26.9a.91.91,0,0,1-1.2-.08.9.9,0,0,0-.87-.39.56.56,0,0,0-.49.45c0,.29.13.44.37.52.42.14.86.24,1.28.38a1.49,1.49,0,0,1,1.15,1.42,1.53,1.53,0,0,1-1.11,1.53,2.4,2.4,0,0,1-3-.82C94.26,66.81,94.35,66.64,95.08,66.64Z"/><path class="cls-1" d="M34.44,66.52c-1.24.25-2.37.46-3.49.71-.38.08-.55,0-.68-.36-.38-1.17-.8-2.33-1.25-3.47-.22-.55,0-.61.46-.57,1.82.11,3.35.69,4.2,2.47A14.35,14.35,0,0,0,34.44,66.52Z"/><path class="cls-1" d="M68.75,68.45a2.91,2.91,0,0,1-2.86-1.92,2.78,2.78,0,0,1,1-3.14,2.9,2.9,0,0,1,3.38,0c.19.14.63.31.36.61s-.47.77-1.08.39a1.54,1.54,0,0,0-2.41.92,1.48,1.48,0,0,0,.57,1.6,1.43,1.43,0,0,0,1.76.09c.6-.45.83.07,1.17.32s0,.32-.12.43A2.72,2.72,0,0,1,68.75,68.45Z"/><path class="cls-1" d="M25.76,62.59l-1.87-.12c-.36,0-.55-.12-.33-.52.65-1.24,1.31-2.49,1.94-3.75.2-.39.52-.26.82-.29s.45.15.54.43c.39,1.17.82,2.32,1.19,3.48.21.63-.05.92-.72.89l-1.57-.1Z"/><path class="cls-1" d="M14.09,58.25c-1,1-2.3.94-3.57,1a6.7,6.7,0,0,0-2.17.84c-.65.26-1.28.56-1.92.85-.21.11-.32.08-.33-.17h0a.43.43,0,0,0,.33-.49v0a.39.39,0,0,0,.32-.49h0c.27-.05.4-.19.32-.48H7c.21.07.26-.13.32-.24.94-1.73,2.5-1.9,4.2-1.7.78.09,1.55.26,2.32.33.49,0,.24.29.23.49Z"/><path class="cls-1" d="M114.88,64.18c0,1.18,0,2.36,0,3.54,0,.6-.28.6-.72.6s-.66,0-.66-.58c0-2.35,0-4.71,0-7.07,0-.61.29-.59.72-.6s.68,0,.66.57C114.85,61.82,114.88,63,114.88,64.18Z"/><path class="cls-1" d="M12.87,62.4c1.29,1.17,2.5,2.19,3.62,3.29.51.49.12,1.83-.53,2.15-1.22.61-1.24.62-1.69-.65A15.91,15.91,0,0,1,12.91,63C12.9,62.9,12.89,62.75,12.87,62.4Z"/><path class="cls-1" d="M91.85,63.72a1.81,1.81,0,0,1,1.8-.87c.37.06.64.2.45.6s.16.88-.61.7-1.29.2-1.53,1.07a7.77,7.77,0,0,0-.13,2.5c0,.59-.28.6-.71.6s-.67,0-.65-.58c0-1.33,0-2.67,0-4,0-.35-.17-.81.52-.77C91.5,63,92,62.93,91.85,63.72Z"/><path class="cls-1" d="M36.2,62c.08.64-.14,1-.8,1.07a4.81,4.81,0,0,0-1.45.35c-.92.4-1.59-.06-2.29-.52-.35-.22-.22-.47-.16-.75.36-1.77.36-1.77,2.09-1.34.71.18,1.41.38,2.12.53C36.12,61.45,36.37,61.58,36.2,62Z"/><path class="cls-1" d="M8.34,67.54a.59.59,0,0,1,.31-.65C9.83,66,11,65.15,12.16,64.25c.41-.32.53-.18.69.22.68,1.66.69,1.66-.9,2.45-.4.2-.8.41-1.2.59-.73.33-1.42,1-2.29.31C8.47,67.71,8.47,67.6,8.34,67.54Z"/><path class="cls-1" d="M39.26,70.06A43.1,43.1,0,0,0,42.8,73c.53.46,1.09.89,1.74,1.4a1.9,1.9,0,0,1-1.69-.26,42,42,0,0,0-3.58-2.52h0c-.81-.83-1.89-1.33-2.74-2.14a2.16,2.16,0,0,1,2.27.11v0c-.09.2,0,.21.17.17h0c-.07.18,0,.19.17.17h0c0,.15,0,.18.17.17Z"/><path class="cls-1" d="M15.94,62.62l3.31-3.06c.13-.12.25-.33.45-.16A.62.62,0,0,1,20,60c-.17.92-.31,1.85-.51,2.76-.12.55-.07,1.41-.49,1.56s-.85-.62-1.25-1S16.72,63,15.94,62.62Z"/><path class="cls-1" d="M26.55,66.44a25.11,25.11,0,0,0,1.38-3l.41-.92,1.72,4.84-3.29-.54c-.22,0-.18-.21-.22-.35Z"/><path class="cls-1" d="M23.25,59.67c.22.35-.07.51-.27.69-.71.66-1.44,1.3-2.14,2-.13.13-.47.19-.29.51h0c-.36-.23-.4.32-.69.28a5.12,5.12,0,0,1,1.76-4.44,1,1,0,0,1,.71-.24A4.51,4.51,0,0,1,23.25,59.67Z"/><path class="cls-1" d="M8.34,67.54c.13.06.13.17.12.28.49.57.32,1-.14,1.56C7.18,70.72,6.12,72.14,5,73.57A1.2,1.2,0,0,1,5.07,72c.91-1.31,1.77-2.65,2.65-4C7.87,67.81,8,67.53,8.34,67.54Z"/><path class="cls-1" d="M34.94,57.23l4.57-1.39c.32-.1.44,0,.43.3v.08c-.09.66.41,1.59-.2,1.91s-1.34-.17-2-.25A22.6,22.6,0,0,1,34.94,57.23Z"/><path class="cls-1" d="M36,66a10.34,10.34,0,0,0,1.37,2.25c.36.53.22.64-.34.77a1.63,1.63,0,0,1-1.52-.28c-.69-.52-1.42-1-2.33-1.58,1.16-.16,2.17-.31,2.18-1.58.4,0,.35.43.65.43Z"/><path class="cls-1" d="M40.3,57.15c0-1.2,0-1.2,1.14-.8.66.24,1.32.49,2,.7.48.14.44.33.22.71A2.61,2.61,0,0,1,42.11,59a1.65,1.65,0,0,1-1.81-1.22Z"/><path class="cls-1" d="M14,60.77c-.52-.33-.59.45-1.07.4.34-.84.08-1.92,1.1-2.47.13-.06.4-.22.1-.45h0c.19.31.35.07.48,0,.86-.77,2-1,3.16-1.54a4.11,4.11,0,0,1-1.18,1.46c-.93.72-1.76,1.56-2.62,2.35-.09.08-.18.21,0,.3Z"/><path class="cls-1" d="M14,60.78a7.17,7.17,0,0,0,1.73-1.43c.41-.34.8-.72,1.23-1.11.16.7-.23,1.17-.43,1.7s-.35.87-.53,1.31c-.55,1.31-.55,1.31-1.92,1L13,62c.16-.56.71-.77.94-1.23Z"/><path class="cls-1" d="M28.74,60.14c-.42-.81-1.22-1.32-1.69-2.09.34-.32.58.29.9.07h0c.08.43.52.41.79.61a13.3,13.3,0,0,0,1.22.7c1.68,1,1.68,1,1,2.95-.88-.64-1.37-1.63-2.24-2.23Z"/><path class="cls-1" d="M16.06,62.08a1.31,1.31,0,0,1,0-.14c.64-1.58,1.27-3.16,2-4.91l1.23,1.77c.12.17,0,.29-.07.41L16.4,62C16.33,62.06,16.2,62.05,16.06,62.08Z"/><path class="cls-1" d="M18.17,56.68c1.08.08,2,.15,2.89.2.55,0,.51.52.71.82s-.08.46-.26.63c-1.22,1.13-1.22,1.13-2.21-.17C19,57.73,18.63,57.29,18.17,56.68Z"/><path class="cls-1" d="M13.58,62.47c1.2.28,2.4.52,3.57.88.55.16.86.74,1.29,1.12.16.14.1.26-.05.37A1.85,1.85,0,0,1,16,64.76l-2.5-2.13Z"/><path class="cls-1" d="M26.55,66.44c-.16-.14-.21.06-.31.09-.65.19-1-.18-.89-.81s.39-1.52.56-2.28c.08-.34.23-.45.59-.46,1.26,0,1.26,0,.78,1.14-.24.57-.5,1.14-.71,1.73-.07.17-.33.39,0,.59Z"/><path class="cls-1" d="M11.16,69.56l2.53-3a3.14,3.14,0,0,1,.22.52c.12.54.77,1.15.36,1.56a2.48,2.48,0,0,1-2.17.88A7.1,7.1,0,0,0,11.16,69.56Z"/><path class="cls-1" d="M45.23,61.11c.45.55,0,.88-.33,1.18-.52.45-.91-.07-1.28-.31-.12-.08-.59-.36-.11-.73.15-.11-.2-.25-.33-.3a1.39,1.39,0,0,1-.89-.92c-.08-.3-.53-.63.12-.86.45-.17.79-.35,1,.29a10.69,10.69,0,0,0,.73,1.48c.2.38.27.64-.44.35.78.78,1,.74,1.53-.2Z"/><path class="cls-1" d="M23.25,59.67a4.51,4.51,0,0,0-.91-1.25l-.45-1.37c1.11.49,2.09,1.17,3.31.8A2.13,2.13,0,0,1,23.25,59.67Z"/><path class="cls-1" d="M6.1,60.78c-1.2.69-2.29.29-3.38-.39A7.92,7.92,0,0,0,6.6,59.08c.42-.22.21.32.43.29H7c-.33,0-.54.11-.32.48h0c-.32,0-.53.11-.32.49v0c-.32,0-.51.13-.33.49Z"/><path class="cls-1" d="M24.79,66.23l-2.47-1c-.24-.1-.44-.17-.25-.5.32-.58.62-1.18,1-1.93Z"/><path class="cls-1" d="M34.71,66.17c-.42-.68-.76-1.24-1.12-1.79-.17-.26-.23-.47.17-.56l2.31-.56Z"/><path class="cls-1" d="M36.8,66.24a2,2,0,0,1,2.75-.15c.21.14.36.24.38.52.06.75,0,.82-.71.56Z"/><path class="cls-1" d="M24.14,60.11,22,64.1C21.43,62.39,21.85,61.57,24.14,60.11Z"/><path class="cls-1" d="M25,65.86l-1.4-2.75c-.13-.27,0-.36.27-.37,1.75-.11,1.86,0,1.46,1.7C25.21,64.84,25.12,65.24,25,65.86Z"/><path class="cls-1" d="M28.74,60.14c-.31.32.07.45.19.61.46.56.94,1.09,1.46,1.68-1.72,0-1.71,0-2.26-1.47-.19-.5-.4-1-.62-1.54.38,0,.46.31.67.45s.22.51.56.27Z"/><path class="cls-1" d="M38.8,69.6c0-.49-.13-1-.14-1.47,0-.25-.23-.67.14-.72s.92.13,1,.45a4.83,4.83,0,0,1-.17,2.06c0,.15-.31-.08-.37.14h0c.11-.21,0-.24-.17-.17h0c.09-.2,0-.19-.17-.17h0c0-.16-.05-.17-.17-.17Z"/><path class="cls-1" d="M20.55,62.83c.34,0,.46-.41.83-.44a13.89,13.89,0,0,1,.13,2.31c-.23.12-.38,0-.53-.12-.43-.24-1.07-.41-1.22-.77s.68-.52.8-1Z"/><path class="cls-1" d="M43.73,56.81l-3.18-1.1C42.38,54.71,42.63,54.79,43.73,56.81Z"/><path class="cls-1" d="M44.19,57.69c.23.56.42,1.08.65,1.57s.1.55-.28.71-.47.05-.66-.24A1.35,1.35,0,0,1,44.19,57.69Z"/><path class="cls-1" d="M36,66c.34-.25,0-.42-.11-.54a.73.73,0,0,1,0-1c.26-.38.5,0,.7.11a3.74,3.74,0,0,1,1.16.71A4.74,4.74,0,0,1,36,66Z"/><path class="cls-1" d="M12.19,59.47,9.67,60.7C9.83,59.53,10.12,59.38,12.19,59.47Z"/><path class="cls-1" d="M17,67.2c-.17-1.63-.15-1.65,1.61-2Z"/><path class="cls-1" d="M39.27,71.62A3.51,3.51,0,0,1,38.62,73a.33.33,0,0,1-.45.15c-.25-.1-.21-.26-.15-.44l0-.07c.27-.9.32-1,1.22-1Z"/><path class="cls-1" d="M45.25,61.09c-.43.23-.74.19-.9-.34s.33-.48.55-.55c.39-.15.55.29.33.91Z"/></svg>