<svg id="Layer_53" data-name="Layer 53" xmlns="http://www.w3.org/2000/svg" viewBox="0 0 131 131"><defs><style>.cls-1{fill:#ef8429;}</style></defs><path class="cls-1" d="M36.61,50.88v1A21.61,21.61,0,0,0,34,50.07a3.75,3.75,0,0,0-.21-.5c-.26-.52-3.53-1.88-3.53-1.88v.72a14.88,14.88,0,0,0-2-.42c-12-1.66-21.77,3.6-25.37,15.06-2.82,9,.44,16,10,20.26l-2.38-2.55,6.85,2.17a12.46,12.46,0,0,1,3.29-1.25c3.21-.32,5.87-2.22,9.1-2.77,2.28-.39,4-3.54,6.11-5.4,1-.93,2.21-1.72,3.39-2.62A1.18,1.18,0,0,1,39,70.1c.28-2.13.64-4.25,1-6.36a16.41,16.41,0,0,0,.1-6.16c.07-.36.16-.77.25-1.14C40.68,55.42,36.61,50.88,36.61,50.88ZM6.46,60.6c.26.27.48.49.66.69l4.3-6.43.93.52c-1,2.07-2.09,4.15-3.13,6.22l.42.37,3-1.47c1.69,5.35,1.66,5.47-2.59,9,3.56-1,4.38.8,4.66,3.45.24,2.3.79,4.57,1.21,6.87C6.38,79.91,2.11,71.24,6.46,60.6Zm10.31,4.13c-.25-2.12-.46-3.78-.63-5.45a1.67,1.67,0,0,1,.19-1c1.33-2,8.49-3.93,11.16-2.82C25.24,59.89,21.16,62.1,16.77,64.73ZM19.23,79.9c-.57-3.62-1.1-7-1.69-10.66l16.28,1.87A27.92,27.92,0,0,1,19.23,79.9ZM36.32,67.33c-.33.58-1.16,1.32-1.71,1.28-2.38-.18-4.74-.66-7.12-1s-4.85-.55-6.55-.73c2-2.29,4.21-4.74,6.26-7.33a18,18,0,0,0,2.93-4.75c.54-1.46.25-3.05-2.15-2.63-4.12.71-8.25,1.37-12.79,2.13,0,0-.35-.65-.69-1.29,5.64-4,14-3.56,19,.81C37.33,57.18,38.62,63.18,36.32,67.33Z"/><path class="cls-1" d="M43.25,62.27V68h1.33v1h-2V62.27Zm4.49,1H45.93v1.7h1.75v1H45.93V68h1.81v1h-2.5V62.27h2.5Zm2.15,0V69H49.2V63.24h-1v-1h2.77v1ZM52,61.93l.6.34-.84,2.49-.45-.27Zm3.44,1.83a1.16,1.16,0,0,0-.2-.42.59.59,0,0,0-.49-.24c-.42,0-.64.37-.64.81a.89.89,0,0,0,.49.81l.46.27a2.12,2.12,0,0,1,1.06,2c0,1.28-.61,2.16-1.46,2.16a1.21,1.21,0,0,1-1.07-.68,2.84,2.84,0,0,1-.38-1.3l.69-.23a1.92,1.92,0,0,0,.19.86.66.66,0,0,0,.59.4c.42,0,.75-.45.75-1.13a1.2,1.2,0,0,0-.65-1.14l-.44-.27a1.88,1.88,0,0,1-.92-1.7c0-.91.47-1.78,1.32-1.78a1.12,1.12,0,0,1,.91.46,2.31,2.31,0,0,1,.35.67ZM61,65.5h1.87v0a4.78,4.78,0,0,1-.67,2.71,1.79,1.79,0,0,1-1.55.86,1.73,1.73,0,0,1-1.54-.92,5.11,5.11,0,0,1,0-5,2.11,2.11,0,0,1,1.7-1,1.84,1.84,0,0,1,1.19.43,2.73,2.73,0,0,1,.73,1l-.55.58a2.36,2.36,0,0,0-.56-.77,1.15,1.15,0,0,0-.8-.29,1.42,1.42,0,0,0-1.19.69,3.82,3.82,0,0,0,0,3.71,1.28,1.28,0,0,0,1.14.67,1.18,1.18,0,0,0,1-.59,2.28,2.28,0,0,0,.38-1.14H61Zm5.24-2.26H64.38v1.7h1.76v1H64.38V68h1.81v1h-2.5V62.27h2.5Zm2.16,0V69h-.7V63.24h-1v-1h2.77v1Zm4-1a1.55,1.55,0,0,1,1.2.4,2.35,2.35,0,0,1,.54,1.58,1.83,1.83,0,0,1-1,1.87L74.53,69H73.7l-1.3-2.75h-.12V69h-.7V62.27Zm-.11,3.08h.21c.19,0,1,0,1-1.09s-.61-1-.95-1h-.23Zm5.43-2.11h-1.8v1.7h1.75v1H75.91V68h1.8v1h-2.5V62.27h2.5Zm3.57,4.13H79.34L78.84,69H78.1l2.25-7.11L82.5,69h-.75Zm-.28-1-.67-2.27-.7,2.27Zm3-4.13a2.05,2.05,0,0,1,1.69.66,4.07,4.07,0,0,1,.87,2.71,3.85,3.85,0,0,1-.91,2.7A2,2,0,0,1,84,69h-.94V62.27ZM83.77,68h.29a1.53,1.53,0,0,0,1.21-.47,2.89,2.89,0,0,0,.62-1.91,2.94,2.94,0,0,0-.62-1.94,1.54,1.54,0,0,0-1.21-.46h-.29Zm4.49-1.93-1.49-3.82h.79l1,2.69,1-2.69h.79L89,66.09V69h-.69Zm5.57-2.85V69h-.7V63.24h-1v-1h2.78v1Zm6,2.4c0,2-1,3.48-2.36,3.48s-2.35-1.51-2.35-3.48,1-3.49,2.35-3.49S99.84,63.66,99.84,65.64Zm-.69,0c0-1.49-.7-2.54-1.67-2.54s-1.66,1.05-1.66,2.54.69,2.53,1.66,2.53S99.15,67.13,99.15,65.64Zm3.95-3.37a1.53,1.53,0,0,1,1.2.4,2.3,2.3,0,0,1,.54,1.58,1.82,1.82,0,0,1-1,1.87L105.25,69h-.84l-1.3-2.75H103V69h-.69V62.27ZM103,65.35h.22c.19,0,1,0,1-1.09s-.6-1-.94-1H103Zm7.43.29c0,2-1,3.48-2.35,3.48s-2.36-1.51-2.36-3.48,1-3.49,2.36-3.49S110.42,63.66,110.42,65.64Zm-.69,0c0-1.49-.69-2.54-1.66-2.54s-1.67,1.05-1.67,2.54.7,2.53,1.67,2.53S109.73,67.13,109.73,65.64Zm4.92-1.8a1.5,1.5,0,0,0-1.23-.74c-1,0-1.65,1.08-1.65,2.56s.7,2.51,1.66,2.51a1.61,1.61,0,0,0,1.22-.77v1.21a1.86,1.86,0,0,1-1.24.51,2,2,0,0,1-1.6-.93,4.18,4.18,0,0,1-.73-2.53,4.46,4.46,0,0,1,.73-2.63,1.88,1.88,0,0,1,1.63-.88,1.62,1.62,0,0,1,1.21.49ZM116.2,65,118,62.27h.91l-2.05,3L118.88,69H118l-1.62-3-.14.2V69h-.69V62.27h.69Zm4.67,1.38h1.64v1h-1.64Zm4.8-4.06V69H125V62.27Zm2.34,1V69h-.69V63.24h-1v-1h2.77v1Z"/></svg>