<svg id="Layer_16" data-name="Layer 16" xmlns="http://www.w3.org/2000/svg" viewBox="0 0 131 131"><defs><style>.cls-1{fill:#1b3d65;fill-rule:evenodd;}</style></defs><path class="cls-1" d="M106.06,54.17a46,46,0,0,1,8.9.37c.42.74.84,1.53,1.22,2.32a5.91,5.91,0,0,1,2-.49,2.75,2.75,0,0,1,.12.85c-1.05,1.17-1.12,3.51-2.44,4.39-.64.5-5,.33-6,.13a2.05,2.05,0,0,1-.12-.49c.41-.45.81-.9,1.22-1.34-.52-.44-.6-1.39-1.22-1.71v.12l-3.42,5c-.21-.07-.11,0-.24-.12a13.26,13.26,0,0,1-3.42-2c-.58-.36-1.44-.43-1.7-1.1,1.42-1.17,1.85-3.59,3-5,.49-.58,1.43-.53,2.07-1ZM49.17,55.36a5.7,5.7,0,0,1,3.19.19,8.68,8.68,0,0,1,2,.82c-.29.93-.57,1.87-.86,2.81-2.13-.79-3.84-1-4.16-.51a1.68,1.68,0,0,0-.22.63,1.77,1.77,0,0,0,.12.73c.41,1,4.67,1.46,5.48,3.44a3.87,3.87,0,0,1,0,2.29,6,6,0,0,1-.61,1.47,4.44,4.44,0,0,1-2.8,1.7c-2.74.62-5.07-1.37-5.37-1.64l1.1-2.5a6.4,6.4,0,0,0,2,1c.47.14,2,.59,2.53,0a1.4,1.4,0,0,0,.28-.6,1.67,1.67,0,0,0,0-.74c-.3-1-4.47-1.18-5.5-3.21a4.18,4.18,0,0,1-.11-2.64,4,4,0,0,1,.73-1.71A4.21,4.21,0,0,1,49.17,55.36Zm21.88-.09c2.42-.07,4.9.66,5.25,2.56a11,11,0,0,0-1.71,2.08,2.77,2.77,0,0,0-3.3-1.34c-1.47.51-2.12,2.46-2,3.93,0,.39.16,2.27,1.64,3a2.78,2.78,0,0,0,2.81-.24,2.55,2.55,0,0,0,.75-1l1.83,2.44c-1.27.89-1.46,1.74-3.42,2.19-5.07,1.18-7.75-5.68-6-10a6.86,6.86,0,0,1,2.69-3.17Zm20.74,0a8.67,8.67,0,0,1,4.76,1.1c-.29.93-.57,1.87-.86,2.81h-.24c-.63-.85-4-1.8-4.15.12-.09.15,0,.39.12.73,2.32.65,6.6,1.81,5.49,5.73a6.44,6.44,0,0,1-.61,1.47,5,5,0,0,1-2.8,1.7c-1.83.46-5.12-.63-5.25-1.83.47-.64.43-1.75,1-2.31a4.87,4.87,0,0,0,4.51,1A1.43,1.43,0,0,0,94,64.42c-2.2-1.21-6.73-1.46-5.61-5.85a5.7,5.7,0,0,1,.73-1.71c.68-.94,1.71-.93,2.69-1.59Zm-78.19.25c5.23-.1,8-.55,9,3.78a6.06,6.06,0,0,1,0,2.68c-.44,1.38-1.36,1.73-1.83,2.68a17.82,17.82,0,0,1,2.2,4H19.82c-.12-.27-1.7-3.53-1.71-3.54H16.52v3.54H13.6V55.52Zm11.34,0h7.93v2.92H27.75v2.2h4.51v2.8H27.75v2.32h5.36v2.93H24.94V55.52Zm9.76,0c2.86-.05,6.35-.32,8,.85,3.23,2.22,3.25,9.25,0,11.47-1.7,1.16-5.18.89-8,.85V55.52ZM63.85,68.69c-.24-.85-.48-1.71-.73-2.56H58.85l-.73,2.56h-3Q57.4,62,59.73,55.41h2.58L66.9,68.69ZM77.76,55.52h2.81v5.36h.12v-.12a28.12,28.12,0,0,0,2.68-3.54c.3-.42.65-1.49,1.1-1.7h3.17v.24c-1.51,1.1-2.61,4.12-4,5.49a7.69,7.69,0,0,0,1.22,2.07c1.09,1.77,2.14,3.53,3,5.37H84.47c-.21-.73-2.38-4.38-2.93-4.64v.13c-1,1-1,2.42-1,4.51H77.76V55.52ZM16.52,58.44v3.78c1.38.06,2.71.15,3.05-.85.39-.48.22-1.43.12-2.07-.43-.35-.45-.66-1.22-.73a4.84,4.84,0,0,0-1.95-.13Zm21.11.13v7.07A12.33,12.33,0,0,0,41,65.27a7.33,7.33,0,0,0,1-1.34c.69-1.71.13-4.54-1.22-5-.57-.53-2.08-.39-3.17-.36Zm23.3.73c-.41,1.34-.82,2.68-1.22,4h2.56c-.2-.67-.42-1.37-.66-2.08S61.16,59.92,60.93,59.3ZM12.25,75.52v1.34h-.12v-.12c-.72-.69-2.85-3.27-3.05-4.27a23.13,23.13,0,0,0,3.05-4h.12v1.46H117.4v-.12a31.25,31.25,0,0,1-3.53-5.86c1.9-.47,3.29-2.07,5.12-2.68v.12a31.61,31.61,0,0,1,2.93,4.27v2.44a8.84,8.84,0,0,1-.86,1.1c-.71,1.13-1.37,2.22-2.07,3.29-.36.55-1.39,2.82-1.83,3Zm88.08-13a14.47,14.47,0,0,1,3.78.36c.68,1.22,2,3.35,2.19,4.88a1.66,1.66,0,0,1-.48.25,3.28,3.28,0,0,0-1.35-.73c-.24.28-.48.57-.73.85,0,1,.36,1,.73,1.59h-4.14c-1-1-2.75-1.75-2-4.15.19-.55.56-1,.74-1.59a4.79,4.79,0,0,1-1.34-.85v-.25c.52-.25,2,0,2.56-.36Zm-85.39,9c.28.85.57,1.7.85,2.56H16A5.59,5.59,0,0,1,16.77,72v.13l.73,2h.24v-.25a5.26,5.26,0,0,0,.73-2.19h-.24a6.74,6.74,0,0,1-.61,1.95H17.5c-.06-.64-.37-1.83-.85-2.07v.12l-.74,1.95h-.12c0-.64-.37-1.83-.85-2.07Zm7.68,0a1.84,1.84,0,0,0-.12.48l.37-.12a1.55,1.55,0,0,0,.61,1.22v-.36a2.7,2.7,0,0,1-.49-1.1l-.37-.12Zm5,0v.24H28V71.5Zm.49,0v.24l.73.12v-.24H28.6c-.14-.1-.21-.1-.49-.12Zm10.74,0v.24h.24V71.5Zm7.68,0c0,.53,0,1.67,0,2.56h.25v-2c.31,0,.16.09.24-.25-.22-.16-.21-.24-.49-.36Zm2.32,0a8,8,0,0,1-.61,1.09h.24a2.19,2.19,0,0,1,.37-.48v2h.24V71.5Zm4.76,0A5.31,5.31,0,0,0,53,73.08h.24a2.36,2.36,0,0,1,.49-1.22c.12.1,0,0,.24.12v-.36l-.36-.12Zm4.63,0v2.56h.25V72h.12v.13a7.84,7.84,0,0,1,1.46,2h.25V71.5h-.25v2.07H60v-.24c-.66-.49-.89-1.53-1.71-1.83Zm6.59,0a5.31,5.31,0,0,0-.61,1.58h.24A2.44,2.44,0,0,1,65,71.86c.13.1,0,0,.25.12v-.36l-.37-.12Zm5.37,0c-.13.09-.12.07-.37.12l-.49.61h.37c.24-.33.65-.38.85-.73Zm.48,0v.24l.74.12v-.12l-.37-.12c-.13-.09-.11-.08-.37-.12Zm6,0v.24h.25V71.5Zm3.78,0v2.56h.25V71.5Zm2.32,0a3.91,3.91,0,0,0-.24.73c.4.07.27,1,.24,1.83H83v-2.2c-.08-.19,0,0,0-.36Zm5.49,0v.24h.24V71.5Zm3.78,0v2.56h.25V72h.12v.13a7.84,7.84,0,0,1,1.46,2h.25V71.5h-.25v2.07h-.12v-.24c-.66-.49-.89-1.53-1.71-1.83Zm14.64,0v1.7h.24V71.5Zm1.83,0v1.7h.24V71.5Zm4.64,1v.37a1.29,1.29,0,0,0-.49.12c0-.57.11-1.25-.25-1.46v2.56h.25c0-.78.2-.79.49-1.22h.24a1.56,1.56,0,0,0,1.1,1.22v-.12c-.45-.29-1.07-1-1-1.47Zm1-1c-.28.38-1,.66-.36.85l.48-.85Zm-81,.12c-.25,0-.23,0-.36.12a5.81,5.81,0,0,1,.12,2.32h.24V71.62Zm4.27,0v2.32c.26,0,.24,0,.37-.13a3.63,3.63,0,0,1,0-2.19Zm37.82,0v2.32c.25,0,.23,0,.36-.13a3.71,3.71,0,0,1,0-2.19Zm11.59,0v2.32c.25,0,.23,0,.36-.13a3.71,3.71,0,0,1,0-2.19Zm11.83,0c-.25,0-.24,0-.37.12a5.81,5.81,0,0,1,.12,2.32h.25V71.62ZM27.14,72v.49a1.86,1.86,0,0,0,.85.37v-.25c-.61-.12-.43-.37-.85-.61Zm53.67,0a3.15,3.15,0,0,0,.85,1.59v.12h.12v-.36c-.44-.36-.51-1-1-1.35Zm-58.55.25c.1.39-.06.18.24.36v-.36Zm31.71,0c.1.39-.06.18.25.36v-.36Zm11.23,0c.1.39-.06.18.24.36v-.36Zm-18.06.24a2.12,2.12,0,0,0,.37.86h.12V73a4.53,4.53,0,0,0-.49-.49Zm35.13,0-.36.61h.24a1.6,1.6,0,0,0,.24-.49h.13v-.12Zm-13,.12a2.43,2.43,0,0,0,.24,1c.32.23.76.77,1.1.24-1.09-.11-.69-.79-1.34-1.22ZM22,72.72c-.06.46-.17.51-.24,1H22v-.24a1.3,1.3,0,0,0,.25-.73Zm6.1,0V73c.53.15.46.39.86.61V73.2c-.22-.19-.16-.24-.49-.36-.13-.09-.12-.08-.37-.12Zm26.11,0a6.88,6.88,0,0,0,.24,1h.24v-.36c-.2-.23-.19-.45-.48-.61Zm11.22,0a6.88,6.88,0,0,0,.24,1h.25v-.36c-.21-.23-.2-.45-.49-.61Zm-17.32.12a2.28,2.28,0,0,0-.37.85h.12v-.12H48c.14-.31.28-.43.12-.73Zm-24.64.36a4.14,4.14,0,0,0,.24.86H24v-.25c-.2-.22-.19-.44-.48-.61Zm29.27,0a4.14,4.14,0,0,1-.24.86h.24v-.25c.19-.19.19-.24.25-.61ZM64,73.2a4.85,4.85,0,0,1-.25.86H64v-.25c.18-.19.18-.24.24-.61Zm-36.84.37.12.37.73.12v-.25a2.6,2.6,0,0,1-.85-.24Zm43.91.12c-.19.18-.22.1-.37.37h.37a1.5,1.5,0,0,1,.37-.25v-.12Zm-49.53.12v.25h.25v-.25Zm6.59,0v.25h.37v-.25Zm26.59,0v.25H55v-.25Zm11.23,0v.25h.24v-.25Zm41.35,0v.25h.37v-.25Zm.49,0v.25h.36v-.25Z"/></svg>