<svg id="Layer_7" data-name="Layer 7" xmlns="http://www.w3.org/2000/svg" viewBox="0 0 131 131"><defs><style>.cls-1,.cls-2{fill:#ef8429;}.cls-2{opacity:0.9;}</style></defs><path class="cls-1" d="M12.92,90.42A2.68,2.68,0,1,0,15.6,93.1,2.67,2.67,0,0,0,12.92,90.42Zm0,4a1.34,1.34,0,1,1,1.34-1.34A1.34,1.34,0,0,1,12.92,94.44Z"/><path class="cls-1" d="M114.83,90.42a2.68,2.68,0,1,0,2.69,2.68A2.68,2.68,0,0,0,114.83,90.42Zm0,4a1.34,1.34,0,1,1,1.34-1.34A1.34,1.34,0,0,1,114.83,94.44Z"/><path class="cls-2" d="M12.05,78.9a11.69,11.69,0,0,1-2.64,6,11.08,11.08,0,0,1-2.54,2.19c-.1,1.67-.19,3.35-.29,5H9.15a3.91,3.91,0,0,1,7.54,0h.48V78.8Zm3.55,7.21H11.15l0-1.91,1.56-3.14,2.86,0Z"/><rect class="cls-1" x="18.44" y="77.44" width="8.5" height="11.67"/><polygon class="cls-1" points="47.41 89.11 47.37 89.11 47.39 89.08 47.41 89.11"/><rect class="cls-1" x="27.92" y="77.44" width="4.29" height="11.67"/><rect class="cls-1" x="33.03" y="77.44" width="2.14" height="11.67"/><polygon class="cls-1" points="52.44 77.44 52.44 81.16 51.54 81.16 50.58 83 47.39 89.08 47.37 89.11 41.66 89.11 37.48 81.16 36.19 81.16 36.19 77.44 44.52 77.44 44.52 81.16 43.23 81.16 45.17 84.87 46.16 83 47.12 81.16 45.84 81.16 45.84 77.44 52.44 77.44"/><path class="cls-1" d="M70.25,86.31V89H63V88a8.47,8.47,0,0,1-4.14,1.08,7.48,7.48,0,0,1-3.9-1,2.9,2.9,0,0,1-1.64-2.6A3.24,3.24,0,0,1,55,82.78a8.15,8.15,0,0,1,4.46-1.11,12.49,12.49,0,0,1,3.5.58v-.7a1.72,1.72,0,0,0-.78-1.44,3.61,3.61,0,0,0-2.11-.56,4.42,4.42,0,0,0-2.79.9l-3.91-.53c1.13-1.81,3.59-2.71,7.36-2.71a14.77,14.77,0,0,1,3.64.37,5.4,5.4,0,0,1,2.15,1,3.33,3.33,0,0,1,1,1.29,6.63,6.63,0,0,1,.29,2.29v4.18ZM63,84.71a7.16,7.16,0,0,0-2.81-.83,3.18,3.18,0,0,0-1.51.37,1.16,1.16,0,0,0-.69,1.07,1.37,1.37,0,0,0,.55,1.07,2.18,2.18,0,0,0,1.42.45,5.5,5.5,0,0,0,3-1.19Z"/><path class="cls-1" d="M71.85,80.26V77.62h6.88v1.07A8.31,8.31,0,0,1,83,77.44q4.43,0,4.42,4.43v4.57h2.2v2.64H82.76V82.14a1.88,1.88,0,0,0-.32-1.28,1.45,1.45,0,0,0-1.06-.34,5.42,5.42,0,0,0-2.65.75v5.17H81v2.64H71.85V86.44h2.22V80.26Z"/><path class="cls-1" d="M91.83,89.15v-4h3.39a1.56,1.56,0,0,0,.94,1.3,4.67,4.67,0,0,0,2.22.48,4.11,4.11,0,0,0,1.78-.32c.42-.21.64-.47.64-.8s-.2-.54-.59-.7a10,10,0,0,0-2.29-.48,14,14,0,0,1-5.09-1.38,2.76,2.76,0,0,1-1.56-2.44,2.84,2.84,0,0,1,1.47-2.41,6.87,6.87,0,0,1,3.9-1,11.58,11.58,0,0,1,3.68.58v-.4h3.31V81h-3.31q-.45-1.2-3.18-1.2c-1.34,0-2,.29-2,.88a.55.55,0,0,0,.41.5,10.47,10.47,0,0,0,2.11.41,35.44,35.44,0,0,1,4,.74,4.56,4.56,0,0,1,2.13,1.22,2.87,2.87,0,0,1,.81,2,3.27,3.27,0,0,1-1.53,2.77,7.44,7.44,0,0,1-4.31,1.07,5.53,5.53,0,0,1-3.55-.84v.58Z"/><rect class="cls-1" x="105.37" y="77.44" width="2.02" height="11.64"/><rect class="cls-1" x="108.75" y="77.44" width="3.61" height="11.64"/><rect class="cls-1" x="113.77" y="77.44" width="8.61" height="11.64"/><rect class="cls-1" x="16.39" y="90.42" width="107.05" height="1.67"/><circle class="cls-1" cx="14.68" cy="43.56" r="3.76"/><path class="cls-1" d="M24.45,58.54H26.6V53.83H21a4.6,4.6,0,0,0,.05-.64C21,50.34,18.17,48,14.68,48s-6.32,2.3-6.32,5.15a3.65,3.65,0,0,0,.08.74H4v4.71H5.39V69.38H4V74.1H14.2V69.38H12.28V66.13h5.27v3.25H16.36V74.1H26.6V69.38H24.45ZM11.14,53.93H9.94a3.05,3.05,0,0,1-.08-.74c0-2.17,2.16-3.93,4.82-3.93s4.83,1.76,4.83,3.93a2.79,2.79,0,0,1-.07.64H18.17a3.92,3.92,0,0,0-3.49-2.22A4,4,0,0,0,11.14,53.93Zm1.14,8V58.64H14.2V53.93h-2a2.92,2.92,0,0,1,4.82-.1h-.7v4.71h1.19V61.9Z"/><path class="cls-1" d="M18.65,55.83c0,.12,0,.24,0,.35h-.83a3.74,3.74,0,0,0,.83-.75A2.69,2.69,0,0,1,18.65,55.83Z"/><path class="cls-1" d="M18.65,55.83c0,.12,0,.24,0,.35h-.83a3.74,3.74,0,0,0,.83-.75A2.69,2.69,0,0,1,18.65,55.83Z"/><path class="cls-1" d="M79.92,57.21c0-.54.08-1.08.08-1.64a16.91,16.91,0,0,0-.35-3.43c-2-9.6-12-16.92-24-16.92-13.46,0-24.38,9.11-24.38,20.35S42.16,75.92,55.62,75.92c10,0,18.61-5,22.36-12.24H61.89c-1.37,2.09-3.26,3.38-5.35,3.38-3.78,0-6.93-4.26-7.53-9.85a17.45,17.45,0,0,1,.17-5.07c.89-5,3.85-8.66,7.36-8.66s6.48,3.67,7.37,8.66a18.5,18.5,0,0,1,.17,5.07Z"/><path class="cls-1" d="M80,55.57c0,.56,0,1.1-.08,1.64h-31V52.14H79.65A16.91,16.91,0,0,1,80,55.57Z"/><polygon class="cls-1" points="93.68 69.4 93.68 73.78 84.17 73.78 84.17 69.4 85.72 69.4 85.72 58.7 84.17 58.7 84.17 54.32 92.23 54.32 92.23 69.4 93.68 69.4"/><polygon class="cls-1" points="105.37 69.4 105.37 73.78 95.86 73.78 95.86 69.4 97.41 69.4 97.41 58.7 95.86 58.7 95.86 54.32 103.92 54.32 103.92 69.4 105.37 69.4"/><rect class="cls-1" x="115" y="66.63" width="7.68" height="2.08"/><polygon class="cls-1" points="123.46 62.75 123.46 65.71 122.68 65.71 122.68 65.1 114.72 65.1 114.72 65.71 113.87 65.71 113.87 62.75 123.46 62.75"/><path class="cls-1" d="M113.7,71h-1V61.59h11.48A11.51,11.51,0,0,0,117,59.2c-5.54,0-10,3.54-10,7.91,0,3.45,2.82,6.38,6.74,7.46Z"/><path class="cls-1" d="M127.05,67.11a7.24,7.24,0,0,1-3.21,5.79V71h.78V62A7,7,0,0,1,127.05,67.11Z"/><polygon class="cls-1" points="124.21 61.59 124.21 61.61 124.19 61.59 124.21 61.59"/><rect class="cls-1" x="115.55" y="70.24" width="1.45" height="1.45" rx="0.73"/><rect class="cls-1" x="120.54" y="70.24" width="1.45" height="1.45" rx="0.73"/><rect class="cls-1" x="116.28" y="73.15" width="4.99" height="1.46"/><rect class="cls-1" x="12.28" y="58.64" width="0.03" height="3.26"/><rect class="cls-1" x="12.28" y="66.13" width="0.03" height="0.12"/></svg>