<svg id="Layer_8" data-name="Layer 8" xmlns="http://www.w3.org/2000/svg" viewBox="0 0 131 131"><defs><style>.cls-1{fill:#1b3d65;}</style></defs><path class="cls-1" d="M77,56.55c-1.21,0-2.43,0-3.64,0a4.55,4.55,0,0,0-4.45,5.25,4.72,4.72,0,0,0,4.59,3.94c2.3,0,4.59,0,6.89,0A3.39,3.39,0,0,1,83.67,69a3.51,3.51,0,0,1-3.59,3.36c-1.88,0-3.75,0-5.62,0a3,3,0,0,1-3-1.6,1.58,1.58,0,0,0-1.89-1.06c-.64.07-.69.07-.54.73a5.18,5.18,0,0,0,4.06,3.86,16.07,16.07,0,0,0,3.25.1,38.61,38.61,0,0,0,4.81-.08,5.2,5.2,0,0,0,4.4-6A5.31,5.31,0,0,0,80,63.62c-2.23,0-4.46,0-6.69,0a2.27,2.27,0,0,1-2.14-1.42c-.81-1.82.42-3.55,2.54-3.58,2.39,0,4.77,0,7.16,0a2.66,2.66,0,0,1,2.42,1.2c.48.77.58.82,1.47.69a3.35,3.35,0,0,1,.53-.07c.3,0,.37-.11.3-.39a4.46,4.46,0,0,0-1.44-2.38,4.87,4.87,0,0,0-3.28-1.08C79.54,56.53,78.25,56.55,77,56.55Zm-74.3.72v.66c0,5,0,10,0,15,0,.47-.16,1.11.08,1.39s.94,0,1.43.11.53-.11.53-.52c0-3.91,0-7.81,0-11.71v-.66l3.09,2.37c1.08.82,2.2,1.58,3.23,2.45.2.17.41.5.77.22l6.07-4.64c.13-.1.24-.31.44-.22s.1.32.11.48V73c0,1.52,0,1.51,1.54,1.43.39,0,.55-.12.55-.56,0-5.35,0-10.7,0-16,0-.14.07-.32-.06-.4s-.3.07-.42.16c-.76.59-1.5,1.21-2.26,1.79-2,1.5-3.95,3-5.91,4.5a.38.38,0,0,1-.58,0c-.44-.36-.89-.71-1.34-1.06Zm31.2,16.07v0c-1.5,0-3,0-4.49,0a1.62,1.62,0,0,1-1.67-1.71c0-1,0-2,0-2.94,0-.4.11-.49.5-.49,2.54,0,5.07,0,7.6,0,.46,0,.46-.2.46-.54s0-.54-.47-.54c-2.12,0-4.24,0-6.37,0-.59,0-1.43.27-1.72-.12s-.1-1.23,0-1.87a1.77,1.77,0,0,1,1.89-1.77c.69,0,1.39,0,2.08,0,2.17-.05,4.35.11,6.52,0,.46,0,.43-.24.46-.56s-.15-.47-.49-.47c-1,0-2.1,0-3.15,0-1.93,0-3.85-.06-5.77.07A2.65,2.65,0,0,0,26.63,65c-.1,2.12,0,4.24,0,6.36a2.88,2.88,0,0,0,2.88,3.08,16.26,16.26,0,0,0,1.71,0c2.33,0,4.67,0,7,0,.51,0,.4-.29.42-.58s0-.53-.42-.52C36.76,73.36,35.31,73.34,33.87,73.34Zm60.26-3.42v-.68q0-3.18,0-6.36c0-.38-.11-.55-.52-.55s-.54.14-.54.53V73.92c0,.33.11.5.47.47s.61,0,.59-.48c0-.69,0-1.39,0-2.08a.8.8,0,0,1,.32-.69q1.62-1.42,3.21-2.88c.66-.61.69-.66,1.2.12,1.21,1.84,2.61,3.55,3.89,5.34.53.74.68.8,1.63.59a4.14,4.14,0,0,0-.3-.5c-1.52-1.88-2.76-4-4.27-5.87-.73-.92-.72-.92.11-1.72l.08-.08c1.21-1,2.2-2.22,3.42-3.22.18-.14.45-.21.52-.56a2.23,2.23,0,0,0-2,.49,77.47,77.47,0,0,1-5.82,5.35A25.4,25.4,0,0,1,94.13,69.92Zm34.25,3.73v-.38c0-3.48,0-7,0-10.43,0-.32,0-.53-.44-.52s-.54.13-.54.55q0,4,0,8a1,1,0,0,1-.1.65c-3.58-2.85-7.23-5.57-10.89-8.33,0,.16,0,.28,0,.4,0,3.43,0,6.85,0,10.27,0,.39.09.52.5.53s.48-.2.47-.55c0-2.66,0-5.32,0-8,0-.18-.09-.39.19-.62C121.07,68.1,124.64,70.9,128.38,73.65ZM63.54,68.43c0-1.89,0-3.78,0-5.66,0-.4-.14-.46-.48-.46s-.5,0-.5.45q0,5.58,0,11.16c0,.42.14.49.51.49s.48-.12.47-.48C63.53,72.09,63.54,70.26,63.54,68.43Zm46.76-.07c0-1.85,0-3.7,0-5.55,0-.27,0-.5-.38-.47s-.57,0-.57.43q0,5.58,0,11.16c0,.38.18.46.53.47s.42-.17.42-.48C110.29,72.07,110.3,70.22,110.3,68.36Z"/><path class="cls-1" d="M77,56.55c1.28,0,2.57,0,3.85,0a4.87,4.87,0,0,1,3.28,1.08A4.46,4.46,0,0,1,85.54,60c.07.28,0,.39-.3.39a3.35,3.35,0,0,0-.53.07c-.89.13-1,.08-1.47-.69a2.66,2.66,0,0,0-2.42-1.2c-2.39,0-4.77,0-7.16,0-2.12,0-3.35,1.76-2.54,3.58a2.27,2.27,0,0,0,2.14,1.42c2.23,0,4.46,0,6.69,0a5.31,5.31,0,0,1,5.63,4.69,5.2,5.2,0,0,1-4.4,6,38.61,38.61,0,0,1-4.81.08,16.07,16.07,0,0,1-3.25-.1,5.18,5.18,0,0,1-4.06-3.86c-.15-.66-.1-.66.54-.73a1.58,1.58,0,0,1,1.89,1.06,3,3,0,0,0,3,1.6c1.87,0,3.74,0,5.62,0A3.51,3.51,0,0,0,83.67,69a3.39,3.39,0,0,0-3.31-3.27c-2.3,0-4.59,0-6.89,0a4.72,4.72,0,0,1-4.59-3.94,4.55,4.55,0,0,1,4.45-5.25C74.54,56.59,75.76,56.55,77,56.55Z"/><path class="cls-1" d="M2.67,57.27l7.25,5.52c.45.35.9.7,1.34,1.06a.38.38,0,0,0,.58,0c2-1.51,3.94-3,5.91-4.5.76-.58,1.5-1.2,2.26-1.79.12-.09.26-.25.42-.16s.06.26.06.4c0,5.34,0,10.69,0,16,0,.44-.16.54-.55.56-1.54.08-1.54.09-1.54-1.43V62.17c0-.16.1-.39-.11-.48s-.31.12-.44.22l-6.07,4.64c-.36.28-.57,0-.77-.22-1-.87-2.15-1.63-3.23-2.45L4.7,61.51v.66c0,3.9,0,7.8,0,11.71,0,.41-.1.57-.53.52s-1.14.21-1.43-.11-.08-.92-.08-1.39c0-5,0-10,0-15Z"/><path class="cls-1" d="M33.87,73.34c1.44,0,2.89,0,4.33,0,.45,0,.43.21.42.52s.09.58-.42.58c-2.34,0-4.68,0-7,0a16.26,16.26,0,0,1-1.71,0,2.88,2.88,0,0,1-2.88-3.08c0-2.12-.07-4.24,0-6.36a2.65,2.65,0,0,1,2.59-2.67c1.92-.13,3.84-.11,5.77-.07,1,0,2.1,0,3.15,0,.34,0,.52.07.49.47s0,.53-.46.56c-2.17.14-4.35,0-6.52,0-.69,0-1.39,0-2.08,0a1.77,1.77,0,0,0-1.89,1.77c-.09.64-.32,1.43,0,1.87s1.13.11,1.72.12c2.13,0,4.25,0,6.37,0,.45,0,.48.19.47.54s0,.55-.46.54c-2.53,0-5.06,0-7.6,0-.39,0-.51.09-.5.49,0,1,0,2,0,2.94a1.62,1.62,0,0,0,1.67,1.71c1.49,0,3,0,4.49,0Z"/><path class="cls-1" d="M44,68.31c0-1.81,0-3.63,0-5.45,0-.45.13-.55.56-.56a46.46,46.46,0,0,1,5.66.05,6.08,6.08,0,0,1,5.66,4.31,6,6,0,0,1-2,6.46,6.59,6.59,0,0,1-3.39,1.18c-2,.23-4,.07-6.08.12-.26,0-.37-.09-.37-.33s0-.36,0-.54Zm1.11,0c0,1.46,0,2.92,0,4.38,0,.49.1.68.64.67,1.46,0,2.92,0,4.38,0a5,5,0,0,0,.72-9.85c-1.81-.22-3.63,0-5.44-.1-.37,0-.28.24-.28.43C45.12,65.32,45.12,66.81,45.12,68.31Z"/><path class="cls-1" d="M94.13,69.92a25.4,25.4,0,0,0,2-1.72A77.47,77.47,0,0,0,102,62.85a2.23,2.23,0,0,1,2-.49c-.07.35-.34.42-.52.56-1.22,1-2.21,2.22-3.42,3.22l-.08.08c-.83.8-.84.8-.11,1.72,1.51,1.9,2.75,4,4.27,5.87a4.14,4.14,0,0,1,.3.5c-.95.21-1.1.15-1.63-.59-1.28-1.79-2.68-3.5-3.89-5.34-.51-.78-.54-.73-1.2-.12q-1.59,1.45-3.21,2.88a.8.8,0,0,0-.32.69c0,.69,0,1.39,0,2.08,0,.47-.27.46-.59.48s-.47-.14-.47-.47V62.86c0-.39.14-.53.54-.53s.52.17.52.55q0,3.18,0,6.36Z"/><path class="cls-1" d="M128.38,73.65c-3.74-2.75-7.31-5.55-10.83-8.38-.28.23-.19.44-.19.62,0,2.65,0,5.31,0,8,0,.35,0,.56-.47.55s-.51-.14-.5-.53c0-3.42,0-6.84,0-10.27,0-.12,0-.24,0-.4,3.66,2.76,7.31,5.48,10.89,8.33a1,1,0,0,0,.1-.65q0-4,0-8c0-.42.13-.54.54-.55s.44.2.44.52c0,3.48,0,7,0,10.43Z"/><path class="cls-1" d="M63.54,68.43c0,1.83,0,3.66,0,5.5,0,.36-.08.48-.47.48s-.51-.07-.51-.49q0-5.58,0-11.16c0-.42.16-.44.5-.45s.49.06.48.46C63.53,64.65,63.54,66.54,63.54,68.43Z"/><path class="cls-1" d="M110.3,68.36c0,1.86,0,3.71,0,5.56,0,.31,0,.49-.42.48s-.53-.09-.53-.47q0-5.58,0-11.16c0-.45.28-.4.57-.43s.38.2.38.47C110.29,64.66,110.3,66.51,110.3,68.36Z"/></svg>