<svg id="Layer_9" data-name="Layer 9" xmlns="http://www.w3.org/2000/svg" viewBox="0 0 131 131"><defs><style>.cls-1{fill:#ef8429;}</style></defs><path class="cls-1" d="M1.6,62.49l3.16-2.6q11.43-9.33,22.85-18.67a.67.67,0,0,1,1,0c1.5,1.23,3,2.43,4.58,3.62.31.24.35.37.07.7-4.82,5.7-4.67,13,.36,18.46a.75.75,0,0,1,.23.75q-2.57,12.36-5.1,24.73c-.08.37-.21.5-.6.5Q17.43,90,6.7,90c-.6,0-.5-.34-.5-.68V63.38c0-.91,0-.9-.92-.9Z"/><path class="cls-1" d="M44.06,90l-7-17.35-.12,0c-.25,1.18-.5,2.36-.74,3.55Q35,82.51,33.68,88.77a.87.87,0,0,1-1.2.55c-.26-.15-.08-.36,0-.53Q33.52,83.41,34.64,78c.62-3,1.24-6,1.85-9,0-.17.09-.34.17-.69,2.49,6.19,4.91,12.23,7.4,18.44l7.35-18.26h.13l.84,4q1.65,8,3.28,15.9c.19.9.16.92-.73.87-.39,0-.38-.26-.44-.52L52,76.69c-.27-1.32-.55-2.64-1-4Z"/><path class="cls-1" d="M49.72,54.94c1.26,0,2.52,0,3.78,0,.49,0,.64.11.64.62,0,4.47-2.43,7.64-6.91,9A10.88,10.88,0,0,1,33.51,57a10.4,10.4,0,0,1,6.68-12.09,11.08,11.08,0,0,1,12.7,3.57c.28.35.33.56-.09.8s-.55.66-1,0a9.54,9.54,0,0,0-16.45,1.84C33,56.21,36.26,62.29,42,63.54a9.59,9.59,0,0,0,8.53-2.23,6.51,6.51,0,0,0,2.28-4.69c0-.43-.13-.47-.48-.47-2.1,0-4.2,0-6.3,0-.43,0-.73,0-.74-.59s.3-.65.77-.64C47.25,55,48.48,54.94,49.72,54.94Z"/><path class="cls-1" d="M111.17,59c-1.61,0-3.23,0-4.84,0-.58,0-.64.21-.6.69A4.78,4.78,0,0,0,111,63.89a4.83,4.83,0,0,0,3.81-2.2c.42-.64.72-.22,1.06,0,.52.27,0,.53-.08.72A6.42,6.42,0,0,1,109,64.8a5.85,5.85,0,0,1-4.46-5,6.1,6.1,0,0,1,3-6.33c3.13-1.69,8.49-.63,9,4.94,0,.41,0,.58-.51.58C114.44,58.94,112.8,59,111.17,59Zm-.65-1.07c1.44,0,2.87,0,4.31,0,.44,0,.53-.12.43-.53a4.84,4.84,0,0,0-4.73-3.55,4.94,4.94,0,0,0-4.74,3.55c-.1.42,0,.53.42.53C107.65,57.86,109.09,57.88,110.52,57.88Z"/><path class="cls-1" d="M63.08,59H58.44c-.78,0-.81,0-.69.84a4.45,4.45,0,0,0,3.08,3.8,4.9,4.9,0,0,0,5.08-.94,4.16,4.16,0,0,0,.9-1.06c.37-.64.67-.05,1,.06.45.16.13.42,0,.61a6.33,6.33,0,0,1-6.94,2.51,5.87,5.87,0,0,1-4.32-5.43,6,6,0,0,1,7.69-6.4,5.85,5.85,0,0,1,4.26,5.54c0,.38-.11.48-.48.48C66.35,58.94,64.72,59,63.08,59Zm-.67-1.07c1.46,0,2.92,0,4.37,0,.31,0,.49,0,.4-.42a4.81,4.81,0,0,0-4.63-3.66,4.9,4.9,0,0,0-4.76,3.59c-.09.4,0,.5.39.49C59.59,57.87,61,57.88,62.41,57.88Z"/><path class="cls-1" d="M68.53,79.7c0-.55,0-1,0-1.43s.23-.51.6-.51.61,0,.61.51c0,3.53,0,7.07,0,10.6,0,.56-.31.46-.64.47s-.62,0-.57-.46,0-.92,0-1.56a5.85,5.85,0,0,1-4.76,2.26,5.64,5.64,0,0,1-4.68-2.2A6.45,6.45,0,0,1,59.67,79C62.06,76.82,65.62,77.05,68.53,79.7Zm.07,3.74a4.64,4.64,0,0,0-4.76-4.85,5,5,0,0,0-.06,9.93C66.62,88.55,68.57,86.49,68.6,83.44Z"/><path class="cls-1" d="M106.18,83.68c-1.6,0-3.19,0-4.78,0-.59,0-.69.19-.62.72a4.33,4.33,0,0,0,2.86,3.75,5.08,5.08,0,0,0,5.36-.8,3.43,3.43,0,0,0,.88-1c.35-.69.72-.21,1.06,0,.52.27,0,.53-.1.72a6.22,6.22,0,0,1-6.25,2.47,5.47,5.47,0,0,1-4.77-4,5.81,5.81,0,0,1,1.53-6.29A6,6,0,0,1,108,78,5.53,5.53,0,0,1,111.6,83c.05.49-.06.66-.58.65C109.4,83.65,107.79,83.68,106.18,83.68Zm-.61-1.07c1.39,0,2.78,0,4.17,0,.66,0,.68-.21.5-.72a4.76,4.76,0,0,0-4.16-3.3,5,5,0,0,0-5.19,3.28c-.15.49-.16.76.51.74C102.79,82.58,104.18,82.61,105.57,82.61Z"/><path class="cls-1" d="M129.4,77.85,124.49,90c-1.3-3.35-2.54-6.58-3.85-10-1.3,3.36-2.54,6.6-3.83,10l-4.88-12.1c1-.24,1-.22,1.35.6l3.55,8.76c1.3-3.41,2.55-6.67,3.85-10.09,1.3,3.39,2.56,6.65,3.81,9.92.27-.09.27-.35.35-.54,1.06-2.64,2.13-5.27,3.14-7.94C128.25,77.89,128.59,77.58,129.4,77.85Z"/><path class="cls-1" d="M88.89,79.59a4.42,4.42,0,0,1,4.45-2,3.37,3.37,0,0,1,3.36,3.48c.21,2.63,0,5.26.1,7.89,0,.59-.42.36-.7.4s-.57,0-.57-.47c0-2.21,0-4.42,0-6.62a7.21,7.21,0,0,0-.17-1.85,2.23,2.23,0,0,0-1.56-1.65,3.47,3.47,0,0,0-4.68,2.61,9.31,9.31,0,0,0-.24,2.17c0,1.77,0,3.53,0,5.3,0,.5-.21.53-.58.51s-.67.08-.67-.51q0-9.81,0-19.62c0-.57.3-.5.66-.51s.6,0,.59.51c0,3.18,0,6.36,0,9.54Z"/><path class="cls-1" d="M70.29,58.89A6.1,6.1,0,1,1,76.35,65,6.1,6.1,0,0,1,70.29,58.89Zm11,0a4.95,4.95,0,1,0-5.11,5A5,5,0,0,0,81.33,58.92Z"/><path class="cls-1" d="M116.44,53.13a1.14,1.14,0,0,1,1.54.75c1.29,2.79,2.67,5.53,4,8.28.1.22.22.43.38.74.34-.77.65-1.44.94-2.12,1-2.3,2.05-4.59,3-6.92.3-.73.7-.93,1.4-.74.08.19,0,.34-.12.49q-3.55,8.13-7.12,16.25c-.09.2-.09.51-.42.51s-.64.15-.82-.08.11-.43.2-.64c.71-1.64,1.42-3.28,2.16-4.91a1.15,1.15,0,0,0,0-1.11c-1.64-3.32-3.26-6.66-4.89-10C116.61,53.49,116.54,53.33,116.44,53.13Z"/><path class="cls-1" d="M84.68,59.37c0-1.57,0-3.14,0-4.71,0-.6-.26-.67-.71-.6s-.61-.11-.59-.58.11-.59.52-.51c.67.13.78-.17.78-.79,0-2-.11-4,.07-6a2.88,2.88,0,0,1,3.54-2.73.79.79,0,0,1,.43,1c-.12.18-.29.07-.43,0-1.47-.17-2.19.33-2.37,1.8-.25,2.09,0,4.19-.11,6.29,0,.35.22.31.44.31.67,0,1.33,0,2,0,.43,0,.52.16.51.55s0,.58-.49.55-1.15,0-1.72,0-.74.19-.74.77c0,3.09,0,6.19,0,9.28,0,.52-.13.69-.66.66s-.52-.14-.51-.54C84.69,62.6,84.68,61,84.68,59.37Z"/><path class="cls-1" d="M92.58,59.43c0,1.55,0,3.1,0,4.65,0,.43,0,.68-.58.68s-.6-.2-.6-.66c0-3.09,0-6.19,0-9.28,0-.58-.1-.89-.74-.77-.42.07-.58-.08-.57-.53s.13-.63.57-.55c.63.12.74-.17.74-.75A53.94,53.94,0,0,1,91.54,46,2.87,2.87,0,0,1,95,43.47c.62.11.5.51.48.88s-.4.21-.59.19A1.79,1.79,0,0,0,92.73,46a9.9,9.9,0,0,0-.15,2.24c0,1.39,0,2.78,0,4.18,0,.41.09.59.54.56.64,0,1.29,0,1.92,0s.47.24.48.58,0,.54-.46.52c-.63,0-1.28,0-1.92,0-.42,0-.56.11-.56.55C92.6,56.21,92.58,57.82,92.58,59.43Z"/><path class="cls-1" d="M73.77,84.08c0-1.55,0-3.1,0-4.64,0-.49-.11-.67-.62-.61-.33,0-.69.12-.67-.49s.15-.65.6-.57.72-.11.69-.67c0-1,0-1.94,0-2.92,0-.43.12-.55.55-.55s.63.1.61.58c0,1,0,2,0,3.05,0,.4.11.56.52.52a8.19,8.19,0,0,1,.86,0c.37,0,.65,0,.67.51s-.29.56-.69.56c-1.35,0-1.35,0-1.35,1.34,0,2.84,0,5.69,0,8.54,0,.42,0,.64-.56.64s-.61-.16-.6-.65C73.79,87.17,73.77,85.62,73.77,84.08Z"/><path class="cls-1" d="M82.09,84.07c0,1.57,0,3.14,0,4.71,0,.49-.17.58-.61.57s-.56-.11-.56-.56c0-3.09,0-6.18,0-9.27,0-.54-.13-.77-.69-.69-.37.06-.6,0-.59-.5s.17-.64.61-.56.69-.17.67-.69c0-1,0-2,0-3,0-.5.27-.46.59-.46s.59,0,.58.46c0,1.06,0,2.12,0,3.18,0,.36.08.53.48.49s.62,0,.92,0,.64,0,.64.56-.22.52-.6.52c-1.43,0-1.43,0-1.43,1.46Z"/><path class="cls-1" d="M99.46,54.22a2.89,2.89,0,0,1,3.23-1.4c.18,0,.61,0,.44.36s-.14.85-.73.74a2.08,2.08,0,0,0-2.7,1.71,8.53,8.53,0,0,0-.24,2.3c0,2.08,0,4.15,0,6.23,0,.47-.14.58-.59.59s-.58-.16-.58-.6q0-5.31,0-10.6c0-.47.14-.59.59-.6s.63.17.58.62A4.68,4.68,0,0,0,99.46,54.22Z"/></svg>