<svg width="368" height="492" viewBox="0 0 368 492" fill="none" xmlns="http://www.w3.org/2000/svg">
<path fill-rule="evenodd" clip-rule="evenodd" d="M275.203 154.326C276.624 153.029 278.196 152.088 279.918 151.506C281.559 150.97 283.051 150.835 284.395 151.104C284.615 151.148 284.837 151.2 285.057 151.259C285.074 151.259 285.081 151.275 285.081 151.305C285.665 151.483 286.21 151.739 286.715 152.065C288.593 153.335 289.534 155.297 289.534 157.952L275.203 154.326Z" fill="#B0ACDD"/>
<path fill-rule="evenodd" clip-rule="evenodd" d="M232.972 296.929C233.178 296.11 233.564 295.283 234.132 294.447C235.111 292.955 236.296 292.194 237.685 292.164C238.127 292.164 238.467 292.223 238.704 292.343C238.783 292.404 238.824 292.493 238.824 292.611C238.758 293.493 238.143 294.327 236.975 295.119V295.096C235.964 295.767 234.63 296.379 232.972 296.929ZM232.379 293.394C231.432 294.843 230.888 296.229 230.746 297.557C230.035 297.751 229.356 297.936 228.709 298.116L228.732 298.094C228.21 298.228 227.918 298.304 227.855 298.317C227.572 298.317 227.336 298.415 227.145 298.608C226.94 298.788 226.838 299.011 226.838 299.28C226.838 299.564 226.94 299.794 227.145 299.974C227.336 300.168 227.572 300.265 227.855 300.265C227.966 300.279 228.424 300.19 229.231 299.996H229.252C229.822 299.847 230.421 299.682 231.053 299.503C231.273 299.967 231.614 300.384 232.072 300.757C232.955 301.487 234.116 301.852 235.553 301.852C236.406 301.884 237.668 301.473 239.343 300.622V300.601C240.117 300.213 240.803 299.891 241.405 299.638C241.388 299.727 241.38 299.794 241.38 299.839C241.38 300.704 241.75 301.421 242.494 301.987C243.14 302.464 243.686 302.688 244.128 302.658C244.634 302.674 245.24 302.473 245.952 302.055L245.975 302.033C246.275 301.852 246.606 301.674 246.971 301.496C246.971 303.211 247.672 304.023 249.079 303.934C249.757 303.964 250.751 303.553 252.063 302.704C253.074 302.046 253.934 301.562 254.645 301.25C255.133 301.085 255.749 301.19 256.492 301.562H256.469C257.132 301.934 257.393 302.523 257.25 303.329C256.996 304.405 256.185 305.441 254.812 306.44C253.405 307.469 251.85 307.992 250.144 308.006C250.001 307.992 248.487 307.791 245.595 307.403C242.327 306.969 240.409 306.716 239.841 306.643C236.839 306.255 235.087 306.031 234.582 305.971C233.098 305.791 232.245 305.688 232.024 305.657C231.014 305.538 230.263 305.485 229.774 305.5C228.97 305.485 228.368 305.582 227.973 305.791C227.089 306.135 226.576 306.887 226.435 308.051C226.402 308.321 226.473 308.565 226.647 308.789C226.838 308.999 227.065 309.111 227.336 309.124C227.601 309.17 227.855 309.104 228.092 308.923C228.313 308.759 228.44 308.544 228.471 308.275C228.519 307.933 228.653 307.693 228.874 307.558C229.064 307.485 229.364 307.446 229.774 307.446C230.2 307.446 230.872 307.492 231.787 307.581C232.007 307.611 232.854 307.723 234.322 307.917C234.812 307.976 236.557 308.193 239.556 308.565C240.14 308.64 242.059 308.894 245.313 309.328C248.391 309.745 250.001 309.953 250.144 309.953C252.291 309.953 254.266 309.298 256.065 307.985C257.944 306.627 259.019 305.188 259.287 303.665C259.618 301.891 259.01 300.615 257.463 299.839C255.963 299.093 254.722 298.982 253.745 299.503C252.955 299.847 251.999 300.384 250.879 301.115C250.074 301.638 249.472 301.928 249.079 301.987C249.047 301.928 249.03 301.756 249.03 301.473C249.047 301.398 249.103 301.227 249.197 300.957C249.197 300.944 249.204 300.928 249.221 300.914C249.236 300.795 249.267 300.683 249.315 300.578C249.472 300.519 249.607 300.414 249.719 300.265C249.86 300.041 249.914 299.794 249.883 299.526C249.837 299.258 249.694 299.049 249.458 298.899C249.221 298.751 248.96 298.699 248.675 298.743L248.32 298.832C248.209 298.832 248.099 298.863 247.988 298.922H247.965C246.734 299.385 245.692 299.877 244.839 300.398C244.554 300.563 244.318 300.661 244.128 300.69C244.048 300.645 243.937 300.572 243.797 300.467C243.575 300.286 243.464 300.079 243.464 299.839C243.464 299.779 243.512 299.615 243.606 299.347C243.606 299.317 243.614 299.302 243.63 299.302C243.787 298.751 243.874 298.37 243.891 298.161C243.906 297.952 243.85 297.751 243.725 297.557C243.599 297.377 243.432 297.251 243.227 297.176C243.022 297.103 242.809 297.087 242.589 297.133C241.624 297.37 240.22 297.959 238.372 298.899C237.11 299.526 236.169 299.862 235.553 299.907C234.669 299.891 233.958 299.682 233.421 299.28H233.397C233.272 299.176 233.168 299.064 233.091 298.944C235.222 298.288 236.919 297.534 238.182 296.685C240.03 295.432 240.931 294.073 240.883 292.611C240.866 291.851 240.566 291.255 239.983 290.822V290.799C239.444 290.397 238.681 290.203 237.685 290.217C235.601 290.157 233.832 291.217 232.379 293.394ZM263.314 287.846L226.458 278.515V282.811L263.314 292.141V287.846ZM189.557 247.366L263.29 266.007V261.71L189.557 243.071V247.366ZM189.557 221.879L263.29 240.52V236.247L189.557 217.584V221.879ZM189.557 234.612L263.29 253.274V248.978L189.557 230.34V234.612ZM199.112 186.1C197.872 186.863 196.661 187.623 195.478 188.383C193.646 189.606 191.751 190.875 189.793 192.188C188.153 190.618 186.519 189.268 184.889 188.137V141.415C184.889 140.744 185.023 140.258 185.292 139.959C185.767 138.261 186.61 136.604 187.826 134.993C189.738 132.457 192.019 130.749 194.67 129.869C196.597 129.228 198.32 129.152 199.836 129.645L284.395 151.104C283.051 150.835 281.559 150.97 279.918 151.506C278.196 152.088 276.624 153.029 275.203 154.327C274.461 154.998 273.76 155.767 273.095 156.63C271.184 159.167 270.207 161.777 270.159 164.462V320.582C270.017 331.247 266.321 339.565 259.075 345.531L241.736 355.758C239.809 357.249 238.001 357.779 236.312 357.346L156.514 337.118C154.95 336.73 154.934 336.164 156.466 335.417L166.982 329.208C167.338 329.281 167.7 329.366 168.072 329.466C168.957 329.675 170.378 330.122 172.336 330.809C174.136 331.451 175.565 331.875 176.623 332.083C178.187 332.457 179.638 332.59 180.981 332.487C182.938 332.487 184.116 332.405 184.51 332.24C185.9 331.928 186.516 331.158 186.359 329.935C186.405 329.474 186.429 329.078 186.429 328.75C186.429 327.541 186.098 326.594 185.434 325.907H185.339V325.818C183.713 324.341 181.281 323.051 178.045 321.947C177.839 321.88 177.614 321.804 177.37 321.723C179.378 319.434 180.984 316.876 182.19 314.047C183.925 309.99 184.826 305.388 184.889 300.243V221.59C184.889 221.544 184.889 221.507 184.889 221.478V204.235C185.205 204.388 185.522 204.547 185.837 204.718C186.453 204.926 187.069 205.106 187.684 205.255C188.289 205.442 188.912 205.546 189.557 205.567V209.148L263.29 227.786V223.491L191.793 205.422C191.821 205.418 191.849 205.414 191.877 205.411C192.824 205.202 193.692 204.837 194.482 204.314C195.65 203.57 196.739 202.778 197.75 201.942C198.651 201.152 199.63 200.437 200.688 199.795C200.936 199.667 201.186 199.538 201.435 199.404L263.29 215.055V210.76L206.373 196.361C206.581 196.217 206.786 196.072 206.988 195.923C207.652 195.492 208.345 195.014 209.074 194.492C209.579 194.119 210.107 193.746 210.659 193.372C210.659 193.328 210.691 193.306 210.755 193.306C211.15 192.991 211.568 192.649 212.01 192.277C212.857 191.537 213.703 190.78 214.545 190.006L263.29 202.323V198.026L218.074 186.593C218.262 186.397 218.453 186.203 218.641 186.011C218.641 185.906 218.665 185.772 218.713 185.607C218.29 185.965 217.893 186.244 217.517 186.446H217.493C217.702 186.249 217.911 186.051 218.12 185.854C218.12 185.064 218.064 184.347 217.955 183.706C218.238 183.603 218.547 183.475 218.879 183.327C218.99 183.222 219.13 183.169 219.304 183.169C220.251 182.692 221.231 182.133 222.243 181.49C222.353 181.49 222.494 181.438 222.669 181.335C223.136 181.028 223.894 180.545 224.943 179.891L263.29 189.592V185.295L226.659 176.031C226.367 175.159 225.873 174.287 225.18 173.412C224.279 172.31 222.771 171.019 220.655 169.542C220.924 168.9 221.453 168.186 222.243 167.394C223.143 166.558 223.836 165.926 224.326 165.492C225.905 163.911 226.355 162.404 225.678 160.973C221.822 163.464 218.665 166.163 216.203 169.071C215.17 170.261 214.271 171.472 213.501 172.708L189.557 166.656V170.93L211.571 176.512C211.355 177.063 211.161 177.618 210.992 178.18C210.771 178.223 210.581 178.299 210.421 178.404C210.533 178.15 210.667 177.911 210.825 177.687C209.878 178.016 209.074 178.598 208.408 179.433C207.795 180.178 207.036 180.865 206.136 181.49C205.378 181.999 204.621 182.503 203.862 183.001L189.557 179.388V183.685L199.112 186.1Z" fill="#F4F2FA"/>
<path fill-rule="evenodd" clip-rule="evenodd" d="M263.314 287.846V292.141L226.458 282.811V278.515L263.314 287.846ZM232.379 293.394C233.832 291.216 235.601 290.157 237.685 290.216C238.681 290.203 239.444 290.397 239.983 290.799V290.821C240.566 291.255 240.866 291.851 240.883 292.611C240.931 294.073 240.03 295.432 238.182 296.685C236.919 297.534 235.222 298.287 233.091 298.944C233.168 299.064 233.272 299.176 233.397 299.279H233.421C233.958 299.682 234.669 299.891 235.553 299.907C236.169 299.862 237.11 299.526 238.372 298.899C240.22 297.959 241.624 297.37 242.589 297.132C242.809 297.087 243.022 297.103 243.227 297.176C243.432 297.251 243.599 297.377 243.725 297.557C243.85 297.751 243.906 297.952 243.891 298.161C243.874 298.37 243.787 298.751 243.63 299.302C243.613 299.302 243.606 299.317 243.606 299.347C243.512 299.615 243.464 299.779 243.464 299.839C243.464 300.078 243.575 300.286 243.797 300.466C243.937 300.571 244.048 300.645 244.128 300.69C244.318 300.661 244.554 300.562 244.839 300.398C245.692 299.876 246.734 299.384 247.965 298.922H247.988C248.099 298.863 248.209 298.832 248.32 298.832L248.675 298.743C248.96 298.698 249.221 298.751 249.458 298.899C249.694 299.049 249.837 299.258 249.883 299.526C249.914 299.794 249.86 300.041 249.719 300.264C249.607 300.414 249.472 300.519 249.315 300.578C249.267 300.683 249.235 300.795 249.221 300.914C249.204 300.928 249.197 300.944 249.197 300.957C249.103 301.227 249.047 301.398 249.03 301.473C249.03 301.756 249.047 301.927 249.078 301.987C249.472 301.927 250.074 301.638 250.879 301.115C251.999 300.384 252.955 299.847 253.745 299.503C254.722 298.981 255.963 299.093 257.463 299.839C259.01 300.615 259.618 301.891 259.287 303.665C259.019 305.187 257.944 306.627 256.065 307.985C254.266 309.298 252.291 309.953 250.144 309.953C250.001 309.953 248.391 309.745 245.313 309.327C242.059 308.894 240.14 308.64 239.556 308.565C236.557 308.193 234.812 307.976 234.322 307.917C232.854 307.723 232.007 307.611 231.787 307.581C230.872 307.492 230.2 307.446 229.774 307.446C229.364 307.446 229.064 307.485 228.874 307.558C228.653 307.693 228.519 307.933 228.471 308.275C228.44 308.544 228.313 308.759 228.092 308.923C227.855 309.104 227.601 309.17 227.336 309.124C227.065 309.11 226.838 308.999 226.647 308.789C226.473 308.565 226.402 308.321 226.435 308.051C226.576 306.887 227.089 306.135 227.973 305.791C228.368 305.582 228.97 305.485 229.774 305.5C230.263 305.485 231.014 305.538 232.024 305.657C232.245 305.687 233.098 305.791 234.582 305.97C235.087 306.031 236.839 306.255 239.841 306.643C240.409 306.716 242.327 306.969 245.595 307.403C248.487 307.791 250.001 307.992 250.144 308.006C251.85 307.992 253.405 307.469 254.812 306.44C256.185 305.441 256.996 304.404 257.25 303.329C257.392 302.523 257.132 301.934 256.469 301.562H256.492C255.749 301.19 255.133 301.085 254.645 301.249C253.934 301.562 253.074 302.046 252.063 302.704C250.751 303.553 249.757 303.964 249.078 303.934C247.671 304.023 246.971 303.21 246.971 301.496C246.606 301.674 246.275 301.852 245.975 302.033L245.952 302.055C245.24 302.473 244.634 302.674 244.128 302.658C243.686 302.688 243.14 302.464 242.494 301.987C241.75 301.421 241.38 300.704 241.38 299.839C241.38 299.794 241.388 299.727 241.405 299.638C240.803 299.891 240.117 300.213 239.343 300.601V300.622C237.668 301.473 236.406 301.884 235.553 301.852C234.116 301.852 232.955 301.487 232.072 300.756C231.614 300.384 231.273 299.967 231.053 299.503C230.421 299.682 229.822 299.847 229.252 299.996H229.231C228.424 300.19 227.966 300.279 227.855 300.264C227.572 300.264 227.336 300.167 227.145 299.973C226.94 299.794 226.838 299.564 226.838 299.279C226.838 299.011 226.94 298.787 227.145 298.608C227.336 298.415 227.572 298.317 227.855 298.317C227.918 298.303 228.21 298.228 228.732 298.093L228.709 298.116C229.356 297.936 230.035 297.751 230.746 297.557C230.888 296.228 231.432 294.843 232.379 293.394ZM232.972 296.929C234.63 296.379 235.964 295.767 236.975 295.096V295.119C238.142 294.327 238.758 293.492 238.824 292.611C238.824 292.492 238.783 292.403 238.704 292.343C238.467 292.223 238.127 292.164 237.685 292.164C236.296 292.193 235.111 292.955 234.132 294.447C233.564 295.283 233.178 296.11 232.972 296.929ZM189.557 247.366V243.071L263.29 261.709V266.007L189.557 247.366ZM189.557 221.879V217.584L263.29 236.246V240.52L189.557 221.879ZM189.557 205.567C189.634 205.567 189.714 205.567 189.793 205.567C190.43 205.524 191.098 205.477 191.793 205.422L263.29 223.491V227.786L189.557 209.148V205.567ZM226.659 176.031L263.29 185.294V189.592L224.943 179.891C225.517 179.529 226.181 179.115 226.932 178.65C227.043 177.777 226.95 176.904 226.659 176.031ZM189.557 234.612V230.34L263.29 248.978V253.274L189.557 234.612ZM218.074 186.593L263.29 198.026V202.323L214.545 190.006C215.729 188.905 216.905 187.767 218.074 186.593ZM206.373 196.36L263.29 210.76V215.055L201.435 199.404C203.132 198.505 204.777 197.492 206.373 196.36ZM217.517 186.446C217.495 186.461 217.475 186.471 217.458 186.481C217.471 186.469 217.482 186.459 217.493 186.446H217.517ZM199.112 186.1L189.557 183.685V179.387L203.862 183.001C202.332 184.018 200.8 185.022 199.267 186.011C199.216 186.041 199.165 186.071 199.112 186.1ZM213.501 172.708C212.726 173.952 212.082 175.22 211.571 176.512L189.557 170.93V166.656L213.501 172.708Z" fill="#C9C7E9"/>
<path fill-rule="evenodd" clip-rule="evenodd" d="M93.9348 210.165C93.9372 208.638 94.4662 208.217 95.5206 208.901C96.5326 209.543 97.0387 210.333 97.0387 211.273C97.0387 211.916 97.0145 212.206 96.9662 212.146L96.7053 212.393C96.5326 212.498 96.2549 212.549 95.8756 212.549C95.151 212.549 94.6136 212.102 94.2657 211.207C94.0495 210.37 93.9384 210.022 93.9348 210.165ZM161.772 240.184C161.883 241.453 161.938 242.72 161.938 243.989C162.001 244.361 162.033 244.763 162.033 245.196C162.081 246.24 162.103 247.292 162.103 248.352C162.103 248.725 162.103 249.097 162.103 249.471L162.033 250.498C161.922 250.067 161.755 249.403 161.535 248.508C161.424 248.09 161.306 247.59 161.179 247.009C161.068 246.263 160.935 245.42 160.778 244.48C160.556 243.42 160.358 242.176 160.186 240.744C160.121 240.37 160.068 239.974 160.019 239.557C159.513 236.336 159.04 233.561 158.598 231.235C158.139 228.921 157.745 226.841 157.413 224.99C157.082 223.081 156.553 221.023 155.826 218.816C155.1 216.591 154.286 214.005 153.387 211.05C152.44 208.036 151.074 205.687 149.29 204.001C147.489 202.257 145.5 200.668 143.32 199.236L146.779 194.245L140.572 196.953C137.382 192.194 135.923 187.838 136.191 183.886C138.322 185.139 140.454 186.399 142.586 187.666L142.658 187.756L142.752 187.845L142.917 187.913L151.895 195.209C152.162 195.627 152.464 196.044 152.795 196.46C153.3 197.101 153.726 197.766 154.074 198.453C154.801 199.929 155.527 201.406 156.254 202.883C157.531 205.687 158.424 208.484 158.929 211.273C159.545 214.078 159.964 216.935 160.186 219.843C160.469 222.633 160.722 225.453 160.942 228.302C161.099 231.107 161.297 233.91 161.535 236.717C161.645 237.879 161.725 239.036 161.772 240.184ZM166.484 239.646C166.484 239.006 166.484 238.395 166.484 237.813C166.422 236.066 166.359 234.329 166.296 232.597C167.479 230.899 167.843 229.287 167.385 227.766C167.006 225.647 166.728 223.058 166.557 220.001C166.383 216.466 166.24 213.824 166.129 212.079C165.909 209.066 165.545 206.5 165.041 204.382C164.708 203.173 164.345 202.04 163.952 200.981C163.792 199.817 163.627 198.654 163.453 197.489C163.232 195.969 163.011 194.648 162.791 193.53C162.506 192.382 162.221 191.247 161.938 190.128C161.938 189.921 161.914 189.711 161.866 189.503C161.645 186.696 160.918 184.005 159.687 181.424C159.182 180.26 158.566 179.127 157.839 178.022C157.888 177.799 157.912 177.53 157.912 177.217C157.975 176.591 158.062 175.986 158.173 175.405C158.675 175.718 159.095 176.031 159.426 176.344C160.106 177.03 161.116 178.038 162.458 179.365C163.801 180.572 165.617 183.266 167.906 187.443H163.453C166.422 190.815 168.159 192.665 168.664 192.991L168.734 193.06C168.734 193.596 168.734 194.813 168.734 196.706C168.688 198.555 168.775 201.25 168.995 204.784C169.216 208.319 169.24 211.676 169.068 214.854C168.845 217.972 168.623 220.902 168.403 223.647C168.184 226.394 167.986 229.033 167.812 231.57C167.655 233.463 167.377 235.418 166.982 237.431C166.871 238.162 166.707 238.901 166.484 239.646ZM204.252 183.103C204.21 183.121 204.165 183.144 204.123 183.169C203.79 183.379 203.57 183.639 203.459 183.952C203.348 184.057 203.294 184.192 203.294 184.356C203.294 185.251 203.768 185.698 204.715 185.698C205.046 185.698 205.378 185.564 205.709 185.294C206.403 184.995 206.767 184.476 206.798 183.741C206.798 183.707 206.798 183.674 206.798 183.639C206.798 183.327 206.775 183.139 206.728 183.08C206.617 183.034 206.562 182.983 206.562 182.923C206.12 182.759 205.702 182.707 205.308 182.766C204.955 182.807 204.604 182.919 204.252 183.103ZM169.992 186.794C168.932 183.736 167.566 180.73 165.893 177.776C165.324 176.777 164.763 175.8 164.213 174.846L163.714 174.218C164.094 174.369 164.425 174.471 164.708 174.531C166.226 174.905 167.345 175.643 168.072 176.747C168.908 178.061 170.054 179.433 171.507 180.865C172.896 182.296 175.383 183.669 178.967 184.982C180.935 185.711 182.907 186.761 184.889 188.137C186.519 189.268 188.153 190.618 189.794 192.187C191.751 190.875 193.646 189.606 195.478 188.383C196.661 187.623 197.872 186.863 199.112 186.1C199.165 186.071 199.216 186.041 199.267 186.011C200.8 185.022 202.332 184.018 203.862 183.001C204.621 182.502 205.378 181.999 206.137 181.49C207.036 180.865 207.795 180.177 208.408 179.433C209.074 178.598 209.878 178.016 210.825 177.687C210.667 177.911 210.533 178.15 210.422 178.404L210.327 178.493C209.38 180.134 208.907 181.476 208.907 182.521C208.907 182.574 209.116 183.212 209.534 184.433C209.575 184.56 209.62 184.689 209.665 184.824C209.822 185.094 210.021 185.333 210.257 185.541C209.909 185.81 209.547 186.071 209.168 186.324C208.453 186.817 207.641 187.383 206.728 188.025C204.482 189.599 201.63 191.621 198.178 194.089C194.434 196.729 191.971 198.049 190.786 198.049C189.197 198.049 187.231 197.523 184.889 196.472C181.884 195.119 178.258 192.901 174.018 189.816C172.565 188.711 171.222 187.704 169.992 186.794ZM96.5399 206.62C97.8189 206.351 98.9095 205.717 99.808 204.718C100.314 204.077 100.701 203.412 100.969 202.725C101.034 202.563 101.097 202.406 101.159 202.257C102.044 203.093 103.211 203.643 104.664 203.912H104.758C104.87 203.972 105.036 204.024 105.256 204.067C108.383 203.86 111.487 202.593 114.566 200.264C114.897 199.951 116.074 198.683 118.094 196.46C119.484 194.775 121.829 192.477 125.128 189.569C125.193 189.523 125.249 189.503 125.295 189.503C126.196 189.233 126.81 189.099 127.144 189.099C127.426 189.054 127.736 189.107 128.066 189.256H128.162C128.209 189.211 128.287 189.188 128.399 189.188C131.919 189.188 133.877 191.404 134.272 195.834C134.272 196.104 134.303 196.364 134.367 196.617C134.13 196.617 133.957 196.617 133.845 196.617C133.403 196.617 133.041 196.677 132.756 196.795H132.686C131.39 197.364 126.472 200.504 117.929 206.217C111.153 210.752 106.347 213.018 103.504 213.018C102.099 213.018 100.219 211.438 97.8672 208.276C97.4252 207.694 96.9831 207.141 96.5399 206.62ZM141.899 341.974L140.384 343.248C139.72 343.518 138.994 343.725 138.204 343.876C138.093 343.189 137.928 342.159 137.707 340.787C137.374 338.207 137.21 335.545 137.21 332.8C137.21 315.838 139.838 299.496 145.097 283.773C148.002 275.046 149.818 269.235 150.545 266.342C151.207 263.642 151.737 260.897 152.133 258.107C152.353 258.107 152.572 258.107 152.795 258.107C155.431 258.212 157.982 257.944 160.444 257.302C159.371 266.283 155.874 278.35 149.953 293.507V293.35C149.779 293.619 149.612 293.932 149.454 294.29C149.234 294.932 148.981 295.699 148.698 296.594C148.254 298.235 147.915 299.317 147.679 299.839C146.351 302.585 145.403 305.65 144.836 309.035C144.331 311.721 144.054 314.912 144.007 318.614C143.896 320.776 143.842 324.028 143.842 328.369C143.778 332.158 143.55 335.321 143.153 337.857C143.376 339.766 142.958 341.139 141.899 341.974ZM170.322 252.782C171.001 252.304 171.65 251.804 172.266 251.281C173.496 250.386 174.673 249.412 175.795 248.352C176.126 250.619 176.401 252.968 176.623 255.401C176.623 258.309 176.227 261.636 175.438 265.379C175.17 266.498 174.364 269.774 173.022 275.203C172.343 279.215 171.254 282.49 169.755 285.026C169.296 287.935 169.153 292.052 169.327 297.377C169.548 303.195 169.494 307.373 169.162 309.908C169.098 310.848 169.319 312.408 169.825 314.586C170.267 316.54 170.378 318.016 170.156 319.016L168.995 320.112C168.316 320.703 167.622 321.197 166.912 321.6L166.794 321.667C166.714 321.71 166.634 321.75 166.557 321.79C166.226 321.895 165.917 322 165.633 322.103L165.135 322.26C164.693 322.365 164.242 322.469 163.785 322.574C163.959 322.469 164.157 322.417 164.377 322.417C164.377 322.312 164.345 322.207 164.283 322.103C163.62 319.046 163.122 313.264 162.791 304.762C162.395 296.155 163.54 286.115 166.226 274.644C168.734 263.828 170.1 256.54 170.322 252.782Z" fill="#3854AD"/>
<path fill-rule="evenodd" clip-rule="evenodd" d="M170.844 328.839C171.001 328.734 171.167 328.63 171.341 328.526C171.388 328.675 171.443 328.832 171.507 328.995C171.755 329.087 171.995 329.179 172.228 329.276C171.815 329.122 171.355 328.977 170.844 328.839ZM183.657 330.898C182.772 331.047 181.825 331.122 180.814 331.122C180.42 331.122 180.027 331.099 179.63 331.053L183.493 330.741L183.657 330.898ZM93.9347 210.165C93.9383 210.022 94.0495 210.371 94.2656 211.207C94.6135 212.102 95.1509 212.55 95.8755 212.55C96.2548 212.55 96.5325 212.498 96.7052 212.393L96.9661 212.147C97.0144 212.206 97.0386 211.916 97.0386 211.273C97.0386 210.333 96.5325 209.543 95.5205 208.902C94.4661 208.217 93.9371 208.638 93.9347 210.165ZM218.074 186.594C216.905 187.767 215.729 188.905 214.545 190.006C213.703 190.78 212.857 191.537 212.01 192.277C211.568 192.649 211.15 192.991 210.755 193.306C210.691 193.306 210.659 193.328 210.659 193.372C210.107 193.746 209.578 194.119 209.074 194.492C208.345 195.014 207.652 195.492 206.988 195.924C206.786 196.072 206.581 196.217 206.373 196.361C204.777 197.492 203.132 198.505 201.435 199.404C201.186 199.538 200.936 199.667 200.688 199.795C199.63 200.437 198.651 201.152 197.75 201.942C196.739 202.778 195.65 203.57 194.482 204.314C193.692 204.837 192.824 205.202 191.877 205.411C191.849 205.414 191.821 205.418 191.793 205.422C191.098 205.477 190.43 205.524 189.793 205.567C189.714 205.567 189.634 205.567 189.557 205.567C188.912 205.546 188.289 205.442 187.684 205.255C187.069 205.106 186.453 204.926 185.837 204.718C185.522 204.547 185.205 204.388 184.889 204.235C184.315 203.964 183.74 203.721 183.161 203.508C181.313 202.675 179.465 201.965 177.617 201.383C176.164 200.906 174.656 200.429 173.094 199.952C172.65 199.802 172.176 199.593 171.673 199.325C171.499 195.94 171.191 192.56 170.748 189.188C170.528 188.398 170.274 187.6 169.991 186.794C171.222 187.704 172.565 188.711 174.018 189.816C178.258 192.901 181.884 195.119 184.889 196.473C187.231 197.523 189.197 198.049 190.786 198.049C191.971 198.049 194.434 196.729 198.177 194.089C201.63 191.621 204.482 189.599 206.728 188.025C207.641 187.383 208.453 186.817 209.168 186.324C209.547 186.071 209.909 185.81 210.257 185.541C211.314 186.6 212.878 187.13 214.947 187.13C215.783 187.13 216.621 186.913 217.458 186.482C217.475 186.471 217.495 186.461 217.517 186.446C217.892 186.244 218.29 185.965 218.713 185.607C218.665 185.772 218.641 185.906 218.641 186.011C218.453 186.203 218.262 186.397 218.074 186.594ZM204.252 183.103C204.604 182.919 204.955 182.807 205.308 182.766C205.702 182.707 206.12 182.759 206.562 182.923C206.562 182.983 206.617 183.035 206.728 183.08C206.775 183.14 206.798 183.327 206.798 183.64C206.798 183.674 206.798 183.707 206.798 183.741C206.767 184.476 206.403 184.996 205.709 185.295C205.378 185.564 205.046 185.699 204.715 185.699C203.768 185.699 203.293 185.251 203.293 184.356C203.293 184.192 203.348 184.057 203.459 183.952C203.57 183.64 203.79 183.379 204.123 183.169C204.165 183.144 204.21 183.121 204.252 183.103ZM186.429 328.75C186.206 328.436 186.066 328.25 186.004 328.19C185.055 327.459 182.235 326.325 177.547 324.788C176.69 324.528 175.882 324.275 175.118 324.028C172.037 323.033 169.711 322.151 168.142 321.388C167.874 321.493 167.566 321.625 167.219 321.79C165.941 322.417 163.848 322.73 160.942 322.73C159.031 322.73 156.07 321.73 152.06 319.733H151.966C151.792 319.986 151.65 320.299 151.54 320.671C151.603 320.299 151.744 319.957 151.966 319.641C151.238 318.747 150.82 317.585 150.711 316.152C150.646 315.422 150.702 314.182 150.876 312.438L150.97 312.125C151.192 309.483 151.161 306.396 150.876 302.859C150.764 302.174 150.711 301.51 150.711 300.868C150.158 298.436 149.739 296.245 149.454 294.29C149.612 293.932 149.779 293.619 149.953 293.35V293.507C155.874 278.35 159.371 266.283 160.444 257.303C160.604 257.257 160.792 257.204 161.014 257.145C161.629 256.086 161.938 254.974 161.938 253.812C161.938 252.872 161.97 251.82 162.033 250.656C162.081 250.284 162.103 249.889 162.103 249.471C162.103 249.097 162.103 248.725 162.103 248.353C162.277 248.307 162.45 248.254 162.624 248.195C163.066 247.987 163.54 247.8 164.046 247.636C164.157 247.531 164.266 247.478 164.377 247.478C165.214 247.062 166.028 246.644 166.818 246.226C166.818 248.389 166.784 250.551 166.721 252.715C166.675 253.342 166.706 253.976 166.818 254.618C167.037 254.618 167.258 254.588 167.479 254.527C168.427 254.006 169.374 253.424 170.322 252.782C170.1 256.54 168.734 263.828 166.226 274.644C163.54 286.116 162.395 296.156 162.791 304.762C163.122 313.264 163.62 319.046 164.283 322.104C164.345 322.207 164.377 322.312 164.377 322.417C164.157 322.417 163.959 322.469 163.785 322.574C164.241 322.469 164.693 322.365 165.135 322.26L165.633 322.104C165.917 322 166.226 321.895 166.557 321.79C166.634 321.75 166.714 321.71 166.793 321.668L166.912 321.6C167.187 321.451 167.464 321.299 167.741 321.141C168.184 320.829 168.601 320.486 168.995 320.112L170.156 319.016C171.167 319.598 172.454 320.128 174.018 320.605C175.378 321.059 176.495 321.434 177.37 321.723C177.613 321.804 177.839 321.88 178.045 321.947C181.281 323.051 183.713 324.341 185.339 325.818V325.907H185.434C186.098 326.594 186.429 327.541 186.429 328.75ZM141.898 341.975C142.405 343.093 143.076 344.442 143.913 346.024C144.418 346.875 145.174 348.142 146.187 349.829C147.923 352.946 148.845 355.69 148.956 358.063C149.005 358.853 148.862 359.54 148.531 360.122C148.135 360.807 147.576 361.202 146.849 361.307C146.803 361.307 146.748 361.307 146.685 361.307C146.4 361.366 146.092 361.419 145.76 361.464L145.688 361.553H145.594C145.53 361.553 145.476 361.553 145.427 361.553C145.208 361.553 144.985 361.576 144.766 361.62C144.15 358.876 143.786 357.376 143.675 357.122C143.327 356.272 142.175 353.683 140.217 349.358C139.112 346.927 138.385 345.233 138.039 344.278C137.659 344.173 137.273 344.07 136.877 343.965C134.351 343.324 132.481 343.086 131.264 343.248C130.76 343.086 130.419 342.952 130.245 342.847C129.739 342.639 129.488 342.294 129.488 341.817C129.22 340.296 129.22 338.184 129.488 335.486C129.819 332.425 129.961 330.286 129.913 329.063C129.63 325.11 129.432 322.126 129.321 320.112C129.101 316.577 128.99 313.593 128.99 311.162C128.927 304.3 129.819 298.416 131.665 293.507C132.961 288.749 133.664 282.73 133.775 275.449C133.664 267.32 133.72 261.248 133.941 257.234C133.877 256.28 133.821 255.355 133.775 254.46C132.717 254.029 131.706 253.602 130.743 253.184C131.028 248.859 131.785 244.637 133.017 240.52C133.302 239.402 133.687 238.319 134.177 237.276C136.42 232.725 136.727 228.131 135.1 223.491C134.769 222.373 134.407 221.284 134.012 220.224C133.396 218.165 132.536 216.272 131.429 214.541L126.716 209.529C125.879 210.23 125.184 210.737 124.633 211.05C122.847 212.363 121.198 213.528 119.68 214.541H119.586C118.702 214.959 117.225 215.719 115.158 216.823C114.479 217.137 113.886 217.458 113.382 217.785C110.097 219.635 106.52 220.583 102.651 220.626C100.756 220.731 99.105 220.179 97.7004 218.971L97.6304 218.882C96.9033 218.196 96.2548 217.487 95.6871 216.756C95.3079 216.279 94.9456 215.801 94.5978 215.324C94.3284 214.907 94.0531 214.482 93.7681 214.048C92.7584 212.155 92.1726 210.707 92.0156 209.707C91.7958 208.648 91.6219 207.881 91.4939 207.404V205.658C91.6219 205.822 91.7958 205.956 92.0156 206.061C92.7427 206.538 93.7222 206.776 94.9528 206.776C95.506 206.776 96.035 206.724 96.5398 206.62C96.983 207.141 97.4251 207.694 97.8671 208.276C100.219 211.438 102.099 213.019 103.504 213.019C106.347 213.019 111.153 210.752 117.929 206.217C126.472 200.504 131.39 197.364 132.686 196.796H132.756C133.041 196.677 133.403 196.618 133.845 196.618C133.956 196.618 134.13 196.618 134.367 196.618C134.367 196.946 134.367 197.266 134.367 197.579C134.24 198.578 134.658 200.452 135.622 203.196C136.239 204.778 138.252 209.134 141.662 216.263C143.334 219.695 144.174 223.424 144.174 227.451C144.174 230.242 143.525 233.62 142.231 237.589C142.074 238.066 141.938 238.514 141.828 238.931C141.432 240.244 141.07 241.46 140.739 242.578C140.502 243.414 140.304 244.226 140.147 245.016C139.862 246.24 139.664 247.3 139.554 248.195V256.273C143.581 257.332 147.773 257.944 152.133 258.107C151.737 260.897 151.206 263.642 150.545 266.343C149.818 269.235 148.002 275.046 145.097 283.773C139.838 299.496 137.21 315.838 137.21 332.8C137.21 335.545 137.374 338.207 137.706 340.788C137.927 342.16 138.093 343.189 138.204 343.876C138.994 343.726 139.72 343.518 140.384 343.248L141.898 341.975Z" fill="#273776"/>
<path fill-rule="evenodd" clip-rule="evenodd" d="M210.422 178.404C210.581 178.299 210.771 178.223 210.992 178.18C210.771 178.703 210.604 179.253 210.494 179.835C210.494 179.999 210.438 180.157 210.327 180.305L210.257 180.394L210.494 181.983C210.667 182.237 210.896 182.468 211.181 182.677C211.229 182.677 211.251 182.707 211.251 182.766L211.348 182.834C211.614 183.057 211.947 183.222 212.341 183.327C213.856 183.952 215.507 184.192 217.291 184.041C217.513 183.938 217.733 183.827 217.955 183.706C218.064 184.347 218.12 185.064 218.12 185.854C217.911 186.051 217.702 186.249 217.493 186.446C217.482 186.459 217.471 186.469 217.458 186.482C216.621 186.913 215.783 187.13 214.947 187.13C212.878 187.13 211.314 186.6 210.257 185.541C210.021 185.333 209.822 185.094 209.665 184.824C209.62 184.689 209.575 184.56 209.534 184.433C209.116 183.212 208.907 182.574 208.907 182.521C208.907 181.476 209.38 180.134 210.327 178.493L210.422 178.404ZM100.969 202.725C100.701 203.412 100.314 204.077 99.808 204.718C98.9095 205.717 97.8189 206.351 96.5399 206.62C96.0351 206.724 95.5061 206.776 94.9529 206.776C93.7223 206.776 92.7428 206.538 92.0157 206.06L91.7549 204.067C91.709 203.86 91.6848 203.673 91.6848 203.508L92.0858 203.755C93.5387 204.277 94.994 203.988 96.4457 202.883C97.9614 201.675 98.6643 200.54 98.5532 199.481C98.7742 199.795 99.0278 200.16 99.3104 200.578C99.7524 201.428 100.306 202.145 100.969 202.725Z" fill="#EBF8FA"/>
<path fill-rule="evenodd" clip-rule="evenodd" d="M217.291 182.677C216.233 182.633 215.256 182.557 214.354 182.453C213.407 182.348 212.403 181.766 211.348 180.707C211 180.335 210.715 180.045 210.494 179.835C210.604 179.253 210.771 178.703 210.992 178.18C211.161 177.618 211.355 177.062 211.571 176.512C212.082 175.22 212.726 173.952 213.501 172.708C214.271 171.472 215.17 170.261 216.203 169.071C218.665 166.163 221.822 163.463 225.678 160.973C226.355 162.404 225.905 163.911 224.326 165.492C223.836 165.926 223.142 166.558 222.243 167.393C221.453 168.186 220.924 168.9 220.655 169.542C222.771 171.019 224.279 172.31 225.18 173.412C225.873 174.286 226.367 175.159 226.659 176.031C226.95 176.904 227.043 177.777 226.932 178.65C226.181 179.115 225.517 179.529 224.943 179.891C223.894 180.545 223.136 181.028 222.669 181.335C222.384 181.081 221.934 180.766 221.318 180.394C219.913 179.545 219.155 179.098 219.045 179.052C219.144 178.821 219.18 178.614 219.151 178.426C219.088 177.947 218.634 177.598 217.789 177.374C216.51 177.121 215.87 176.672 215.87 176.031C215.87 175.622 216.221 174.8 216.925 173.57C216.934 173.549 216.944 173.526 216.96 173.503C217.733 172.131 218.151 171.415 218.216 171.355C217.709 171.086 217.26 171.295 216.866 171.981C216.597 172.355 216.321 172.645 216.036 172.853C215.921 172.997 215.81 173.135 215.705 173.267C214.999 174.171 214.547 174.832 214.354 175.248C214.18 175.56 214.093 176.06 214.093 176.747C214.093 176.881 214.097 177.016 214.106 177.15C214.138 177.598 214.221 178.045 214.354 178.493C214.528 179.18 214.804 179.865 215.184 180.552C215.751 181.447 216.454 182.154 217.291 182.677ZM158.337 174.218C158.291 174.428 158.267 174.606 158.267 174.754C158.202 174.978 158.173 175.195 158.173 175.405C158.062 175.986 157.975 176.591 157.912 177.217C157.912 177.53 157.888 177.799 157.839 178.022C157.728 178.486 157.618 178.933 157.508 179.365C157.287 179.887 156.64 180.387 155.566 180.865C155.518 181.029 154.682 181.059 153.056 180.954C151.38 180.789 149.534 180.207 147.513 179.209C145.444 178.194 143.936 177.187 142.989 176.188C142.593 175.711 142.286 175.234 142.065 174.754C141.669 175.129 141.196 175.366 140.645 175.471L139.293 175.405L138.298 174.599C138.078 174.389 137.88 174.211 137.707 174.063C136.932 173.152 136.292 171.698 135.789 169.699C135.789 169.489 135.789 169.281 135.789 169.071C135.836 168.594 136.033 168.17 136.382 167.797C137.659 167.215 138.716 167.663 139.554 169.14C140.343 171.094 140.959 172.362 141.401 172.944C141.401 173.047 141.425 173.182 141.473 173.346L142.492 172.944C142.095 172.049 141.954 171.101 142.065 170.101C142.46 169.459 142.878 168.825 143.32 168.199C144.836 166.081 146.013 164.94 146.849 164.776C146.96 164.671 148.524 164.544 151.54 164.395C154.175 164.231 155.803 163.888 156.418 163.365C156.971 162.993 157.469 162.671 157.912 162.404C158.81 165.939 158.953 169.877 158.337 174.218ZM91.093 191C91.0302 191 90.9746 191 90.9263 191C90.2005 191.955 89.8357 192.932 89.8357 193.932C89.884 196.528 90.5555 198.482 91.849 199.795C91.9601 200.004 92.1268 200.16 92.3478 200.264L92.5133 200.198C92.3394 199.825 92.1968 199.504 92.0857 199.236C91.8176 198.759 91.622 198.444 91.4939 198.295C91.3369 197.818 91.2572 197.318 91.2572 196.795C91.3055 195.41 91.779 193.902 92.6787 192.276C93.5169 190.948 93.9348 190.211 93.9348 190.062C93.9348 189.48 93.7923 189.107 93.5072 188.942C93.4613 188.525 93.3261 187.89 93.1063 187.041C92.8212 185.982 92.7101 185.192 92.7741 184.669C92.9324 183.982 93.5386 183.482 94.5978 183.169C95.7814 185.272 96.6824 187.674 97.2971 190.375C97.6763 192.224 98.0398 194.708 98.3877 197.825C98.1038 197.976 97.7947 198.206 97.4638 198.519C97.1787 198.788 96.8406 199.131 96.4456 199.549C95.4505 201.04 93.8309 201.862 91.5906 202.011C91.2572 202.011 90.9819 202.011 90.7609 202.011C90.1449 201.965 89.6087 201.995 89.1497 202.1C88.7705 201.892 88.407 201.705 88.0592 201.54C85.9927 200.586 84.5712 199.817 83.7959 199.236C81.5555 197.713 80.0157 195.499 79.1775 192.589C78.5628 190.053 78.5942 187.413 79.2741 184.669C79.7621 184.027 80.3152 183.603 80.9311 183.393C81.657 183.185 82.2488 183.319 82.7077 183.797C83.7645 184.751 85.2971 186.258 87.3031 188.316C88.6449 189.421 89.9082 190.316 91.093 191Z" fill="#F89A75"/>
<path fill-rule="evenodd" clip-rule="evenodd" d="M222.669 181.335C222.494 181.438 222.353 181.49 222.243 181.49C221.231 182.133 220.251 182.692 219.304 183.169C219.13 183.169 218.99 183.222 218.879 183.327C218.768 183.266 218.657 183.237 218.547 183.237L217.624 182.834C217.513 182.789 217.402 182.737 217.291 182.677C216.454 182.154 215.751 181.447 215.184 180.552C214.804 179.865 214.528 179.18 214.354 178.493C214.221 178.045 214.138 177.598 214.106 177.15C214.097 177.016 214.093 176.881 214.093 176.748C214.093 176.06 214.18 175.56 214.354 175.248C214.547 174.832 214.999 174.171 215.705 173.267C215.81 173.135 215.921 172.997 216.036 172.853C216.321 172.645 216.597 172.355 216.866 171.981C217.26 171.295 217.709 171.086 218.216 171.355C218.151 171.415 217.733 172.132 216.96 173.504C216.944 173.526 216.934 173.549 216.925 173.57C216.221 174.8 215.869 175.622 215.869 176.031C215.869 176.672 216.51 177.121 217.789 177.374C218.634 177.598 219.088 177.947 219.151 178.427C219.18 178.614 219.144 178.822 219.045 179.052C219.155 179.098 219.913 179.545 221.318 180.394C221.934 180.766 222.384 181.082 222.669 181.335ZM143.32 166.611C143.889 165.716 144.307 165.052 144.575 164.619C145.08 163.516 145.389 162.569 145.5 161.777H146.685C146.856 161.777 146.967 161.777 147.016 161.777H147.18C147.402 161.777 147.655 161.777 147.94 161.777C148.159 161.777 148.382 161.799 148.601 161.845C149.834 161.845 150.868 161.822 151.705 161.777C153.948 161.464 155.652 160.644 156.821 159.316C156.932 159.689 157.051 160.062 157.176 160.434C157.397 161.062 157.618 161.697 157.839 162.336C157.888 162.336 157.912 162.359 157.912 162.404C157.469 162.671 156.971 162.993 156.418 163.365C155.803 163.888 154.175 164.231 151.54 164.395C148.524 164.545 146.96 164.671 146.849 164.776C146.013 164.941 144.836 166.081 143.32 168.199C142.878 168.825 142.46 169.46 142.065 170.101C142.175 169.192 142.516 168.236 143.083 167.238C143.194 167.028 143.272 166.821 143.32 166.611ZM93.5072 188.943C93.7922 189.107 93.9347 189.48 93.9347 190.062C93.9347 190.211 93.5169 190.948 92.6787 192.277C91.7789 193.902 91.3055 195.41 91.2572 196.796C91.2572 197.318 91.3369 197.818 91.4939 198.295C91.6219 198.444 91.8176 198.759 92.0857 199.236C92.1968 199.504 92.3393 199.825 92.5132 200.198L92.3478 200.264C92.1268 200.16 91.9601 200.004 91.849 199.795C90.5555 198.483 89.884 196.528 89.8357 193.932C89.8357 192.932 90.2004 191.955 90.9263 191.001C90.9746 191.001 91.0301 191.001 91.0929 191.001C91.4867 191.211 91.8731 191.418 92.2524 191.628C92.4263 191.688 92.5374 191.717 92.5845 191.717C93.3743 191.195 93.7367 190.457 93.6739 189.503H93.6038C93.6038 189.339 93.5724 189.151 93.5072 188.943Z" fill="#EE8960"/>
<path fill-rule="evenodd" clip-rule="evenodd" d="M217.291 182.677C217.402 182.736 217.513 182.789 217.624 182.833L218.547 183.236C218.657 183.236 218.768 183.266 218.879 183.326C218.547 183.475 218.238 183.603 217.955 183.705C217.733 183.826 217.513 183.938 217.291 184.041C215.507 184.192 213.856 183.952 212.341 183.326C211.947 183.221 211.614 183.057 211.348 182.833L211.251 182.766C211.251 182.707 211.229 182.677 211.181 182.677C210.896 182.468 210.667 182.236 210.494 181.983L210.257 180.394L210.327 180.305C210.438 180.157 210.494 179.999 210.494 179.835C210.715 180.045 211 180.335 211.348 180.707C212.403 181.766 213.407 182.348 214.354 182.453C215.256 182.557 216.233 182.633 217.291 182.677ZM155.899 184.422C155.899 185.376 155.843 186.228 155.732 186.972L151.705 184.511C150.204 183.616 148.783 182.983 147.441 182.61C144.473 181.864 142.624 181.312 141.899 180.953C140.667 180.269 139.918 179.365 139.649 178.246L139.554 177.53C139.664 176.948 139.609 176.292 139.388 175.56C139.325 175.501 139.293 175.448 139.293 175.405L140.645 175.471C141.196 175.366 141.669 175.129 142.065 174.754C142.286 175.234 142.593 175.711 142.989 176.188C143.936 177.187 145.444 178.194 147.513 179.209C149.534 180.207 151.38 180.789 153.056 180.953C154.682 181.058 155.518 181.029 155.566 180.864C155.566 181.282 155.597 181.73 155.661 182.207C155.708 182.848 155.763 183.348 155.826 183.705C155.826 183.975 155.85 184.215 155.899 184.422ZM98.5531 199.481C98.6643 200.54 97.9614 201.675 96.4457 202.883C94.994 203.987 93.5386 204.277 92.0858 203.755L91.6848 203.508L89.5773 202.257C89.5121 202.257 89.4275 202.227 89.3164 202.166C89.2089 202.123 89.1292 202.101 89.0797 202.1H89.1498C89.6087 201.995 90.1449 201.965 90.7609 202.01C90.9819 202.01 91.2572 202.01 91.5906 202.01C93.8309 201.862 95.4505 201.04 96.4457 199.548C96.8406 199.131 97.1787 198.788 97.4638 198.519C97.7947 198.206 98.1039 197.976 98.3877 197.825C98.4348 197.871 98.4348 197.946 98.3877 198.049L98.5531 199.391V199.481Z" fill="#CD6D49"/>
<path fill-rule="evenodd" clip-rule="evenodd" d="M134.605 156.945C134.936 157.363 135.274 157.81 135.622 158.287C136.79 159.45 138.859 160.375 141.829 161.062C143.39 161.434 144.616 161.674 145.5 161.776C145.389 162.569 145.08 163.516 144.575 164.619C144.307 165.052 143.889 165.715 143.32 166.61C143.272 166.61 143.216 166.61 143.153 166.61C139.697 166.028 136.594 164.097 133.845 160.815C133.624 160.562 133.435 160.322 133.278 160.099V160.032C133.546 158.929 133.988 157.899 134.605 156.945ZM135.789 155.356C138.079 152.67 141.314 151.268 145.5 151.147C147.568 151.147 149.557 151.492 151.467 152.177C153.426 152.819 155.132 153.774 156.585 155.043C156.804 155.251 157.002 155.461 157.176 155.669C156.498 156.102 155.685 156.474 154.738 156.787C151.61 157.995 147.726 158.6 143.083 158.6C140.51 158.6 138.441 157.913 136.877 156.541C136.42 156.123 136.056 155.728 135.789 155.356Z" fill="#985221"/>
<path fill-rule="evenodd" clip-rule="evenodd" d="M134.605 156.945C134.825 156.57 135.054 156.251 135.291 155.981C135.448 155.774 135.615 155.564 135.789 155.356C136.056 155.728 136.42 156.123 136.877 156.541C138.441 157.913 140.51 158.6 143.083 158.6C147.726 158.6 151.61 157.995 154.738 156.787C155.685 156.475 156.498 156.102 157.176 155.669C157.333 156.041 157.444 156.468 157.508 156.945C157.556 157.675 157.357 158.413 156.915 159.159C156.853 159.219 156.821 159.271 156.821 159.316C155.652 160.644 153.948 161.464 151.705 161.776C150.868 161.822 149.835 161.845 148.601 161.845C148.382 161.799 148.159 161.776 147.94 161.776C147.655 161.776 147.402 161.776 147.18 161.776H147.016C146.967 161.776 146.856 161.776 146.685 161.776H145.5C144.616 161.674 143.39 161.434 141.828 161.062C138.859 160.375 136.79 159.45 135.622 158.287C135.274 157.81 134.936 157.363 134.605 156.945ZM142.065 170.101C141.954 171.101 142.095 172.049 142.492 172.944L141.473 173.346C141.425 173.182 141.401 173.047 141.401 172.944C140.959 172.362 140.343 171.094 139.554 169.14C138.716 167.663 137.659 167.215 136.382 167.797C136.033 168.17 135.836 168.594 135.789 169.071C135.789 169.281 135.789 169.489 135.789 169.699C136.292 171.698 136.932 173.152 137.706 174.063C135.417 171.989 133.941 169.423 133.278 166.364C133.213 166.215 133.15 166.059 133.087 165.895C133.041 165.253 132.961 164.589 132.85 163.903C132.85 162.53 132.993 161.24 133.278 160.032V160.099C133.435 160.322 133.624 160.562 133.845 160.815C136.594 164.097 139.697 166.028 143.153 166.61C143.216 166.61 143.272 166.61 143.32 166.61C143.272 166.82 143.194 167.028 143.083 167.238C142.516 168.236 142.175 169.192 142.065 170.101Z" fill="#2F1E15"/>
<path fill-rule="evenodd" clip-rule="evenodd" d="M169.992 186.794C170.274 187.6 170.528 188.398 170.748 189.188C171.191 192.56 171.499 195.939 171.673 199.325C171.737 200.011 171.768 200.698 171.768 201.383C171.768 202.383 171.768 203.412 171.768 204.471C171.768 205.531 171.768 206.56 171.768 207.559C171.703 209.573 171.617 211.549 171.507 213.489C171.285 216.084 171.562 218.569 172.336 220.941C173.457 224.371 174.634 227.75 175.865 231.077C176.258 232.136 176.568 233.225 176.787 234.344C177.624 238.714 177.624 243.071 176.787 247.412C176.457 247.725 176.126 248.037 175.795 248.352C174.673 249.412 173.496 250.386 172.266 251.281C171.65 251.804 171.001 252.304 170.322 252.782C169.374 253.424 168.428 254.006 167.479 254.526C167.258 254.588 167.037 254.618 166.818 254.618C166.707 253.976 166.675 253.342 166.721 252.715C166.784 250.551 166.818 248.389 166.818 246.226C166.752 245.002 166.699 243.786 166.651 242.578C166.651 242.206 166.651 241.862 166.651 241.548C166.588 240.908 166.533 240.273 166.484 239.646C166.707 238.901 166.871 238.162 166.982 237.431C167.377 235.418 167.655 233.463 167.812 231.57C167.986 229.033 168.184 226.394 168.403 223.647C168.623 220.902 168.845 217.972 169.068 214.854C169.24 211.676 169.216 208.319 168.995 204.784C168.775 201.25 168.688 198.555 168.734 196.706C168.734 194.813 168.734 193.596 168.734 193.06L168.664 192.991C168.159 192.665 166.422 190.815 163.453 187.443H167.906C165.617 183.266 163.801 180.572 162.458 179.365C161.116 178.038 160.106 177.03 159.426 176.344C159.095 176.031 158.675 175.718 158.173 175.405C158.173 175.195 158.202 174.978 158.267 174.754C158.267 174.606 158.291 174.428 158.337 174.218C158.905 174.218 159.489 174.218 160.089 174.218H163.714L164.213 174.846C164.763 175.8 165.324 176.777 165.893 177.776C167.566 180.73 168.932 183.736 169.992 186.794ZM162.103 249.471C162.103 249.889 162.081 250.284 162.033 250.656C161.97 251.82 161.938 252.871 161.938 253.812C161.938 254.974 161.629 256.086 161.015 257.145C160.792 257.204 160.604 257.257 160.444 257.302C157.982 257.944 155.431 258.212 152.795 258.107C152.572 258.107 152.353 258.107 152.133 258.107C147.773 257.944 143.581 257.332 139.554 256.273V248.195C139.664 247.3 139.862 246.24 140.147 245.016C140.304 244.226 140.502 243.413 140.739 242.578C141.07 241.459 141.432 240.244 141.829 238.931C141.938 238.513 142.074 238.066 142.231 237.589C143.525 233.62 144.174 230.241 144.174 227.451C144.174 223.424 143.335 219.695 141.662 216.262C138.252 209.134 136.239 204.777 135.622 203.195C134.658 200.451 134.24 198.578 134.367 197.578C134.367 197.266 134.367 196.946 134.367 196.617C134.303 196.364 134.272 196.104 134.272 195.834C133.877 191.404 131.919 189.188 128.399 189.188C128.287 189.188 128.209 189.211 128.162 189.256H128.066C127.736 189.107 127.426 189.054 127.144 189.099C126.81 189.099 126.196 189.233 125.295 189.503C125.249 189.503 125.193 189.523 125.128 189.569C125.193 189.521 125.249 189.447 125.295 189.345C127.821 188.554 130.12 187.308 132.188 185.607C132.298 185.504 132.408 185.399 132.519 185.294L135.1 183.706L135.455 183.482C135.678 183.587 135.923 183.722 136.191 183.886C135.923 187.838 137.382 192.194 140.572 196.953L146.779 194.245L143.32 199.236C145.5 200.668 147.489 202.257 149.29 204.001C151.074 205.687 152.44 208.036 153.387 211.05C154.286 214.005 155.1 216.591 155.826 218.816C156.553 221.023 157.082 223.081 157.413 224.99C157.745 226.841 158.139 228.921 158.598 231.234C159.04 233.561 159.513 236.336 160.019 239.557C160.068 239.974 160.121 240.37 160.186 240.744C160.358 242.176 160.556 243.42 160.778 244.48C160.935 245.42 161.068 246.262 161.179 247.009C161.306 247.59 161.424 248.09 161.535 248.508C161.755 249.403 161.922 250.067 162.033 250.498L162.103 249.471Z" fill="#27439F"/>
<path fill-rule="evenodd" clip-rule="evenodd" d="M154.902 194.648C155.013 194.275 155.156 193.88 155.33 193.461C155.33 193.566 155.33 193.671 155.33 193.775C155.264 194.044 155.233 194.305 155.233 194.558C155.187 194.619 155.132 194.648 155.069 194.648C155.004 194.648 154.95 194.648 154.902 194.648ZM157.839 178.022C158.566 179.127 159.182 180.26 159.687 181.424C160.918 184.005 161.645 186.696 161.866 189.503C161.914 189.711 161.938 189.921 161.938 190.128C161.89 190.711 161.725 191.293 161.44 191.873C161.392 192.037 161.251 192.194 161.014 192.343C160.903 191.984 160.768 191.642 160.611 191.313C160.215 190.583 159.797 189.875 159.356 189.188H159.26V189.099C159.04 188.786 158.786 188.495 158.504 188.226C158.344 188.077 158.18 187.951 158.006 187.846C157.943 187.786 157.856 187.726 157.745 187.666H157.721C157.623 187.663 157.552 187.642 157.508 187.6C157.444 187.6 157.389 187.622 157.343 187.666H157.246C156.804 187.786 156.442 188.025 156.159 188.383C156.159 188.339 156.188 188.263 156.254 188.159C156.254 187.786 156.254 187.413 156.254 187.041C156.254 186.146 156.135 185.272 155.899 184.422C155.85 184.215 155.826 183.975 155.826 183.706C155.763 183.348 155.708 182.848 155.661 182.207C155.597 181.73 155.566 181.282 155.566 180.865C156.64 180.388 157.287 179.888 157.508 179.365C157.618 178.933 157.728 178.486 157.839 178.022ZM151.705 184.511C151.705 187.36 151.768 189.076 151.895 189.658C152.053 191.777 152.471 193.461 153.15 194.716C152.423 194.566 151.752 194.223 151.136 193.686C148.563 191.583 145.822 189.658 142.917 187.913L142.752 187.846L142.658 187.757L142.586 187.666C140.454 186.399 138.322 185.139 136.191 183.886C135.923 183.722 135.678 183.587 135.455 183.482L135.361 183.393C135.867 181.766 136.956 180.052 138.632 178.246L139.554 177.531L139.649 178.246C139.918 179.365 140.667 180.269 141.899 180.954C142.624 181.312 144.473 181.865 147.441 182.61C148.783 182.983 150.204 183.617 151.705 184.511Z" fill="#F2FBFD"/>
<path fill-rule="evenodd" clip-rule="evenodd" d="M157.721 187.666C157.575 187.666 157.448 187.666 157.343 187.666C157.389 187.622 157.444 187.6 157.508 187.6C157.552 187.642 157.623 187.663 157.721 187.666ZM171.768 201.383C171.814 201.965 171.838 202.57 171.838 203.195C171.838 203.673 171.814 204.099 171.768 204.472C171.768 203.412 171.768 202.383 171.768 201.383ZM135.455 183.482L135.1 183.706C135.226 183.603 135.315 183.498 135.361 183.393L135.455 183.482Z" fill="#C8EDF3"/>
<path fill-rule="evenodd" clip-rule="evenodd" d="M163.952 200.981C163.397 199.608 162.726 198.341 161.938 197.177L159.925 194.022C159.877 193.754 159.821 193.461 159.758 193.149V193.06C159.647 191.418 159.482 190.128 159.26 189.188H159.356C159.797 189.875 160.215 190.583 160.611 191.313C160.768 191.642 160.903 191.984 161.014 192.343C161.251 192.194 161.392 192.037 161.44 191.872C161.725 191.293 161.89 190.71 161.938 190.128C162.221 191.247 162.506 192.382 162.791 193.53C163.011 194.648 163.232 195.969 163.453 197.489C163.627 198.654 163.792 199.817 163.952 200.981ZM166.484 237.812C164.969 238.826 163.397 239.616 161.772 240.184C161.725 239.036 161.645 237.879 161.535 236.717C161.297 233.91 161.099 231.107 160.942 228.302C160.722 225.453 160.469 222.633 160.186 219.843C159.964 216.935 159.545 214.078 158.929 211.273C158.424 208.484 157.531 205.687 156.254 202.883C155.527 201.406 154.801 199.929 154.074 198.453C153.726 197.766 153.299 197.101 152.795 196.46C152.464 196.044 152.162 195.627 151.895 195.209L142.917 187.913C145.822 189.658 148.563 191.583 151.136 193.686C151.752 194.223 152.423 194.566 153.15 194.716C153.418 194.775 153.726 194.805 154.074 194.805C154.293 194.805 154.571 194.752 154.902 194.648C154.95 194.648 155.004 194.648 155.069 194.648C155.132 194.648 155.187 194.619 155.233 194.558C155.233 194.305 155.264 194.043 155.33 193.775C155.33 193.671 155.33 193.566 155.33 193.461V193.306C155.376 192.514 155.431 191.665 155.494 190.754V190.441C155.494 190.188 155.518 189.95 155.566 189.727C155.566 189.681 155.597 189.606 155.661 189.503C155.597 189.77 155.566 190.032 155.566 190.286C155.344 192.717 155.882 194.357 157.176 195.209C157.287 195.252 157.397 195.328 157.508 195.433C158.173 197.341 159.228 200.168 160.681 203.912C161.803 207.239 162.395 210.171 162.458 212.706C162.726 214.824 162.781 218.129 162.624 222.619C162.513 226.884 162.649 230.159 163.028 232.442C163.2 232.8 163.484 233.113 163.879 233.38C164.147 233.59 164.568 233.828 165.135 234.097C165.577 233.574 165.965 233.077 166.296 232.597C166.359 234.329 166.421 236.066 166.484 237.812Z" fill="#A3E1EE"/>
<path fill-rule="evenodd" clip-rule="evenodd" d="M159.26 189.188C159.482 190.128 159.647 191.418 159.759 193.059V193.149C159.821 193.461 159.877 193.753 159.925 194.022C159.086 194.648 158.173 195.044 157.176 195.209C155.882 194.357 155.344 192.717 155.566 190.286C155.566 190.032 155.597 189.77 155.661 189.503C155.708 189.398 155.732 189.293 155.732 189.188C155.906 188.86 156.048 188.592 156.159 188.383C156.442 188.025 156.804 187.786 157.246 187.666H157.343C157.448 187.666 157.575 187.666 157.721 187.666H157.745C157.856 187.726 157.943 187.786 158.006 187.845C158.18 187.95 158.344 188.077 158.504 188.226C158.786 188.495 159.04 188.786 159.26 189.099V189.188Z" fill="#BE164D"/>
<path fill-rule="evenodd" clip-rule="evenodd" d="M151.705 184.511L155.732 186.972C155.843 186.228 155.899 185.377 155.899 184.422C156.135 185.272 156.254 186.146 156.254 187.041C156.254 187.413 156.254 187.786 156.254 188.159C156.188 188.263 156.159 188.339 156.159 188.383C156.048 188.592 155.906 188.86 155.732 189.188C155.732 189.293 155.708 189.398 155.661 189.503C155.597 189.606 155.566 189.681 155.566 189.727C155.518 189.95 155.494 190.188 155.494 190.441V190.754C155.431 191.665 155.376 192.514 155.33 193.306V193.461C155.156 193.88 155.013 194.275 154.902 194.648C154.571 194.752 154.293 194.805 154.074 194.805C153.726 194.805 153.418 194.775 153.15 194.716C152.471 193.461 152.053 191.777 151.895 189.658C151.768 189.076 151.705 187.36 151.705 184.511Z" fill="white"/>
<path fill-rule="evenodd" clip-rule="evenodd" d="M159.925 194.022L161.938 197.177C162.726 198.341 163.397 199.608 163.952 200.981C164.345 202.04 164.708 203.173 165.041 204.382C165.545 206.5 165.909 209.066 166.129 212.079C166.24 213.824 166.383 216.466 166.557 220.001C166.728 223.058 167.006 225.647 167.385 227.766C167.843 229.287 167.48 230.899 166.296 232.597C165.965 233.077 165.577 233.574 165.135 234.097C164.568 233.828 164.147 233.59 163.879 233.38C163.484 233.113 163.201 232.801 163.028 232.442C162.649 230.159 162.513 226.885 162.624 222.619C162.781 218.129 162.726 214.824 162.458 212.706C162.395 210.171 161.803 207.239 160.681 203.912C159.228 200.168 158.173 197.341 157.509 195.433C157.397 195.328 157.288 195.252 157.176 195.209C158.173 195.044 159.086 194.648 159.925 194.022Z" fill="#ED1068"/>
<path d="M161.772 237.812V243.989H166.651V237.812H161.772Z" fill="url(#paint0_linear_169_9)"/>
<path fill-rule="evenodd" clip-rule="evenodd" d="M161.938 243.989C162.175 243.884 162.402 243.779 162.624 243.674C162.736 243.63 162.844 243.578 162.955 243.518C164.188 242.996 165.419 242.34 166.651 241.548C166.651 241.862 166.651 242.206 166.651 242.578C166.699 243.786 166.752 245.002 166.818 246.226C166.028 246.644 165.214 247.061 164.377 247.478C164.266 247.478 164.157 247.531 164.046 247.636C163.54 247.8 163.066 247.987 162.624 248.195C162.451 248.254 162.277 248.307 162.103 248.352C162.103 247.292 162.081 246.24 162.033 245.196C162.033 244.763 162.001 244.361 161.938 243.989Z" fill="#673918"/>
<path fill-rule="evenodd" clip-rule="evenodd" d="M131.265 343.248C132.481 343.086 134.351 343.324 136.877 343.965C137.273 344.07 137.659 344.173 138.039 344.278C138.385 345.233 139.112 346.927 140.217 349.358C142.175 353.683 143.327 356.272 143.675 357.122C143.786 357.376 144.15 358.876 144.766 361.62C143.913 361.679 143.098 361.658 142.325 361.553C141.488 361.448 140.674 361.291 139.885 361.083C137.423 360.337 135.693 358.987 134.699 357.032C134.083 355.183 133.522 352.916 133.017 350.23C132.401 347.158 131.928 344.86 131.595 343.34C131.484 343.278 131.373 343.248 131.265 343.248ZM170.844 328.839C170.608 328.734 170.354 328.653 170.086 328.592L169.659 328.436C169.336 328.344 169.022 328.258 168.713 328.179C166.94 327.715 165.407 327.458 164.116 327.406C163.453 327.301 162.395 327.219 160.942 327.16C159.489 327.117 158.4 327.041 157.674 326.936C155.146 326.623 153.3 325.722 152.133 324.229C151.626 323.544 151.373 322.783 151.373 321.947C151.373 321.842 151.373 321.76 151.373 321.7C151.373 321.328 151.429 320.984 151.54 320.671C151.65 320.299 151.792 319.986 151.966 319.733H152.06C156.07 321.73 159.031 322.73 160.942 322.73C163.848 322.73 165.941 322.417 167.219 321.79C167.566 321.625 167.874 321.493 168.143 321.388C169.711 322.151 172.037 323.033 175.118 324.028C175.882 324.274 176.69 324.528 177.547 324.788C182.236 326.324 185.056 327.459 186.004 328.189C186.066 328.25 186.207 328.436 186.429 328.75C186.429 329.078 186.405 329.474 186.359 329.935C186.248 329.996 186.129 330.047 186.004 330.092C185.277 330.464 184.493 330.734 183.657 330.898L183.493 330.741L179.63 331.053H179.56C179.338 331.053 179.117 331.024 178.897 330.964L175.438 330.27C175.327 330.211 175.249 330.181 175.202 330.181L172.228 329.276C171.995 329.179 171.755 329.087 171.507 328.995C171.443 328.832 171.388 328.675 171.341 328.526C171.167 328.63 171.001 328.734 170.844 328.839Z" fill="#EE6F19"/>
<path fill-rule="evenodd" clip-rule="evenodd" d="M145.688 361.553C146.069 361.494 146.455 361.412 146.849 361.307C147.576 361.202 148.135 360.807 148.531 360.122C148.862 359.54 149.005 358.853 148.956 358.063C149.179 359.227 149.234 360.099 149.123 360.681C149.012 361.679 148.476 362.261 147.513 362.425C144.828 363.157 142.206 363.105 139.648 362.268C136.744 361.254 135.093 359.51 134.699 357.032C135.693 358.987 137.423 360.337 139.885 361.083C140.674 361.291 141.488 361.448 142.325 361.553C143.098 361.658 143.913 361.679 144.766 361.62C144.985 361.576 145.208 361.553 145.427 361.553C145.476 361.553 145.53 361.553 145.594 361.553H145.688ZM152.133 324.229C153.299 325.722 155.146 326.623 157.674 326.936C158.4 327.041 159.489 327.117 160.942 327.16C162.395 327.219 163.453 327.301 164.116 327.406C165.407 327.458 166.94 327.715 168.713 328.179C169.022 328.258 169.336 328.344 169.659 328.436L170.086 328.592C170.354 328.653 170.607 328.734 170.844 328.839C171.355 328.977 171.815 329.122 172.228 329.276L175.202 330.181C175.249 330.181 175.327 330.211 175.438 330.27L178.897 330.964C179.117 331.024 179.338 331.053 179.56 331.053H179.63C180.027 331.099 180.42 331.122 180.814 331.122C181.825 331.122 182.772 331.046 183.657 330.898C184.493 330.734 185.277 330.464 186.004 330.092C186.129 330.047 186.248 329.996 186.359 329.935C186.516 331.158 185.9 331.928 184.51 332.24C184.116 332.405 182.938 332.487 180.981 332.487C179.638 332.59 178.187 332.457 176.623 332.083C175.565 331.875 174.136 331.451 172.336 330.809C170.378 330.122 168.956 329.674 168.072 329.466C167.7 329.366 167.338 329.281 166.982 329.208C165.827 328.962 164.738 328.839 163.714 328.839C163.493 328.989 163.295 329.25 163.122 329.622C163.122 329.832 163.035 330.152 162.861 330.585C161.74 330.48 160.012 330.316 157.674 330.092C155.652 329.839 154.004 329.339 152.725 328.592C151.998 328.175 151.658 327.518 151.705 326.623C151.705 326.251 151.848 325.452 152.133 324.229Z" fill="#232121"/>
<defs>
<linearGradient id="paint0_linear_169_9" x1="161.771" y1="240.9" x2="166.651" y2="240.9" gradientUnits="userSpaceOnUse">
<stop stop-color="#BAE8EB"/>
<stop offset="0.0625" stop-color="#BAE8EB"/>
<stop offset="0.125" stop-color="#BAE8EB"/>
<stop offset="0.25" stop-color="#BBE8EB"/>
<stop offset="0.3125" stop-color="#BBE8EC"/>
<stop offset="0.375" stop-color="#BCE9EC"/>
<stop offset="0.4375" stop-color="#BCE9EC"/>
<stop offset="0.5" stop-color="#BCE9ED"/>
<stop offset="0.53125" stop-color="#BCE9ED"/>
<stop offset="0.5625" stop-color="#BDE9ED"/>
<stop offset="0.625" stop-color="#BDE9ED"/>
<stop offset="0.6875" stop-color="#BDE9ED"/>
<stop offset="0.75" stop-color="#BEE9ED"/>
<stop offset="0.8125" stop-color="#BEEAED"/>
<stop offset="0.875" stop-color="#BEEAEE"/>
<stop offset="1" stop-color="#BFEAEE"/>
</linearGradient>
</defs>
</svg>