<svg width="497" height="649" viewBox="0 0 497 649" fill="none" xmlns="http://www.w3.org/2000/svg">
<path d="M272.544 192.113L275.94 193.384C277.757 194.065 278.54 196.045 277.621 197.645L275.904 200.637C274.447 203.175 277.251 205.998 280.117 204.877L283.487 203.559C285.293 202.855 287.364 203.744 287.941 205.474L289.02 208.707C289.935 211.452 294.076 211.619 295.245 208.957L296.624 205.824C297.361 204.146 299.506 203.427 301.238 204.273L304.476 205.857C307.226 207.203 310.282 204.616 309.071 201.969L307.645 198.856C306.882 197.189 307.846 195.278 309.72 194.747L313.222 193.751C316.195 192.907 316.376 189.084 313.492 188.003L310.098 186.732C308.283 186.051 307.501 184.072 308.42 182.472L310.136 179.482C311.592 176.944 308.79 174.121 305.924 175.239L302.548 176.558C300.742 177.263 298.674 176.372 298.098 174.643L297.02 171.404C296.107 168.658 291.964 168.492 290.794 171.154L289.416 174.292C288.68 175.968 286.535 176.689 284.805 175.843L281.557 174.256C278.807 172.912 275.752 175.498 276.966 178.144L278.396 181.26C279.16 182.927 278.196 184.838 276.322 185.369L272.813 186.365C269.84 187.209 269.659 191.034 272.544 192.113ZM285.746 186.572C286.452 185.151 287.703 183.995 289.243 183.344C296.558 180.25 303.647 186.794 300.295 193.545C299.589 194.966 298.338 196.123 296.798 196.773C289.484 199.867 282.394 193.324 285.746 186.572Z" fill="#F5F5F5"/>
<path d="M414.583 293.861C414.175 293.458 413.726 293.107 413.25 292.807L412.632 292.425L382.532 272.89C381.838 272.088 380.84 271.43 379.729 271.041C375.308 269.494 371.329 268.268 367.253 267.467L365.79 259.177C365.789 259.153 365.793 259.13 365.792 259.105L364.383 251.194C364.617 251.269 364.872 251.305 365.139 251.28C367.663 251.039 369.584 249.605 369.995 247.603C370.175 246.73 370.137 245.88 369.931 245.122C370.793 242.868 371.023 240.484 370.651 238.183C375.43 240.282 381.248 238.733 384.039 234.461C387.011 229.913 385.424 224.002 380.496 221.258C377.048 219.339 372.881 219.486 369.669 221.302L369.335 220.325C368.455 217.747 370.183 215.031 373.05 214.484L378.41 213.462C382.962 212.595 383.815 206.93 379.692 204.949L374.839 202.615C372.243 201.367 371.385 198.32 372.995 196.061L376.004 191.838C378.56 188.253 374.825 183.691 370.39 184.981L365.167 186.502C362.375 187.313 359.434 185.719 358.842 183.072L357.736 178.117C356.798 173.913 350.66 173.125 348.514 176.933L345.985 181.419C344.635 183.816 341.335 184.608 338.889 183.124L334.304 180.342C330.418 177.984 325.479 181.432 326.877 185.524L328.528 190.346C329.409 192.923 327.681 195.639 324.814 196.186L319.444 197.207C314.89 198.073 314.037 203.738 318.162 205.72L323.02 208.052C325.181 209.091 326.132 211.372 325.468 213.411C325.21 213.4 324.949 213.391 324.687 213.391H223.433L223.482 202.585H223.515V195.156C223.515 191.783 220.553 189.049 216.899 189.049H158.221C155.709 189.049 153.523 190.343 152.403 192.246C152.342 192.348 152.292 192.457 152.238 192.562C152.2 192.636 152.158 192.705 152.124 192.78C151.789 193.51 151.603 194.315 151.603 195.158L151.594 197.523C145.066 199.084 140.277 204.232 140.277 211.253C140.277 212.812 140.411 214.31 140.633 215.755C139.661 216.55 138.982 217.845 138.887 219.34C138.873 219.583 138.881 219.822 138.912 220.058C138.927 220.171 138.962 220.28 138.987 220.391C139.013 220.508 139.031 220.627 139.068 220.742C139.119 220.894 139.189 221.04 139.258 221.186C139.29 221.251 139.311 221.32 139.346 221.385C139.44 221.559 139.553 221.725 139.674 221.889C139.695 221.919 139.713 221.949 139.734 221.98C139.874 222.162 140.034 222.335 140.205 222.502C140.212 222.508 140.218 222.516 140.225 222.522C140.771 223.044 141.468 223.475 142.28 223.783L140.238 240.067C133.337 240.707 129.034 241.487 129.034 241.487C121.4 243.554 116 246.135 112.341 247.54C111.979 247.678 111.678 247.895 111.434 248.155C108.632 249.956 106.665 252.832 106.308 256.214L104.669 285.585H104.634C104.633 285.585 104.631 285.585 104.63 285.585C104.404 285.585 104.22 285.753 104.217 285.961C104.217 286.051 104.253 286.131 104.31 286.196C103.992 286.383 103.775 286.7 103.754 287.069L102.819 299.762L111.159 286.407L102.568 300.164C100.772 305.604 104.095 311.357 109.986 313.015C112.493 313.719 115.057 313.561 117.319 312.738C117.297 312.952 117.284 313.173 117.259 313.382C117.078 314.984 117.841 316.506 119.177 317.42C118.522 326.454 118.412 336.359 118.853 344.759L120.629 375.677H86.0596C83.3194 375.677 80.9673 377.216 79.9626 379.408C79.9234 379.493 79.8941 379.582 79.8598 379.669C79.819 379.768 79.775 379.866 79.7408 379.968C79.545 380.542 79.4423 381.152 79.4423 381.784V427.55C79.4423 430.925 82.4043 434.269 86.058 434.269L121.831 433.966C123.216 442.425 125.008 452.421 126.088 458.355H128.967V461.253H128.969C128.197 461.684 127.587 462.257 127.238 463.009C125.773 466.151 124.173 468.339 121.975 471.52C119.968 474.419 119.293 476.787 119.305 478.722C119.309 479.678 120.171 480.438 121.203 480.438H146.557C147.589 480.438 148.454 479.676 148.455 478.723C148.467 473.422 146.224 468.416 145.402 465.103C145.05 463.688 144.978 462.471 144.378 462.092C144.33 462.06 144.29 462.05 144.244 462.027C144.105 460.631 144.022 459.416 143.976 458.355H146.271L146.837 433.754L158.18 433.657C158.395 433.657 158.606 433.645 158.814 433.627C160.87 444.073 163.496 453.27 165.154 458.355H167.524C167.635 459.75 167.735 460.892 167.82 461.831C167.567 461.729 167.29 461.696 166.934 461.791C164.605 462.405 164.531 471.281 164.535 478.824C164.535 479.816 165.406 480.617 166.481 480.617H202.815C203.976 480.617 204.886 479.687 204.751 478.621C204.465 476.373 203.374 472.824 199.437 471.204C193.438 468.738 189.451 466.208 187.677 462.742C186.783 460.997 184.78 460.234 182.787 460.202H182.788C182.669 459.51 182.575 458.903 182.496 458.355H184.584L183.093 389.014L177.277 324.554C179.198 324.245 179.58 322.415 179.893 320.442L184.411 272.517C184.496 272.493 184.569 272.446 184.623 272.38L191.909 278.943C191.671 279.362 191.738 279.893 192.131 280.244L201.993 289.055C202.298 289.328 202.717 289.4 203.102 289.313V462.694C203.102 472.259 211.502 480.014 221.866 480.014H271.056C271.069 480.279 271.104 480.44 271.104 480.44H306.368C306.397 480.292 306.417 480.157 306.443 480.014H324.69C335.052 480.014 343.452 472.259 343.452 462.694V461.221L363.414 461.711L348.538 461.346C348.308 461.982 348.16 462.655 348.121 463.356L348.05 464.581C347.445 471.058 347.566 475.748 347.566 480.44H376.482C376.601 475.189 364.624 471.8 364.624 466.682V463.76C364.624 463.057 364.513 462.379 364.321 461.733L377.999 462.069C378.01 462.069 379.397 455.08 379.868 452.743H379.986C380.212 452.743 380.398 452.573 380.398 452.362C380.398 452.163 380.232 452.007 380.023 451.989C383.199 421.373 390.206 352.943 390.206 345.507C390.206 338.85 389.842 332.359 387.81 326.1C389.231 325.482 390.906 324.733 391.446 324.196C391.821 323.821 392.039 323.414 392.149 322.99L414.204 304.14C417.383 301.397 417.553 296.796 414.583 293.861ZM134.249 460.211C134.143 460.21 134.038 460.211 133.935 460.211C134.038 460.211 134.143 460.21 134.249 460.211ZM130.298 460.696C130.241 460.714 130.186 460.735 130.13 460.753C130.186 460.735 130.241 460.714 130.298 460.696ZM132.609 460.267C132.586 460.268 132.564 460.268 132.541 460.271C132.564 460.268 132.586 460.268 132.609 460.267ZM131.934 460.345C131.848 460.357 131.758 460.368 131.671 460.381C131.758 460.368 131.846 460.357 131.934 460.345ZM131.102 460.49C131.017 460.508 130.934 460.527 130.851 460.548C130.934 460.527 131.017 460.508 131.102 460.49ZM140.205 461.331C140.439 461.426 140.659 461.524 140.863 461.626C140.66 461.524 140.439 461.426 140.205 461.331ZM134.79 460.231C134.927 460.237 135.064 460.244 135.201 460.253C135.064 460.244 134.927 460.237 134.79 460.231ZM135.7 460.294C135.857 460.309 136.013 460.329 136.17 460.347C136.013 460.329 135.857 460.309 135.7 460.294ZM136.612 460.402C136.849 460.436 137.083 460.476 137.315 460.518C137.083 460.476 136.849 460.437 136.612 460.402ZM137.679 460.591C137.904 460.636 138.126 460.684 138.341 460.738C138.126 460.684 137.904 460.636 137.679 460.591ZM138.648 460.818C138.829 460.866 139.006 460.916 139.179 460.969C139.006 460.916 138.829 460.866 138.648 460.818ZM139.466 461.062C139.644 461.121 139.812 461.181 139.977 461.244C139.812 461.181 139.644 461.119 139.466 461.062ZM144.016 461.94C143.937 461.923 143.862 461.913 143.789 461.923C143.862 461.913 143.937 461.92 144.016 461.94ZM178.655 461.384C178.609 461.42 178.556 461.452 178.511 461.488C178.556 461.452 178.609 461.42 178.655 461.384ZM170.725 463.232C170.93 463.257 171.149 463.275 171.39 463.275C171.149 463.275 170.93 463.257 170.725 463.232ZM168.837 462.501C168.885 462.533 168.934 462.566 168.983 462.598C168.934 462.566 168.885 462.533 168.837 462.501ZM169.133 462.696C169.235 462.759 169.348 462.817 169.469 462.876C169.35 462.819 169.235 462.759 169.133 462.696ZM169.594 462.932C169.713 462.985 169.841 463.033 169.979 463.076C169.841 463.033 169.713 462.985 169.594 462.932ZM170.046 463.099C170.208 463.146 170.387 463.183 170.578 463.212C170.387 463.182 170.209 463.146 170.046 463.099ZM178.189 461.81C178.151 461.851 178.104 461.888 178.069 461.931C178.104 461.888 178.151 461.851 178.189 461.81ZM180.413 460.52C180.426 460.517 180.441 460.514 180.454 460.509C180.441 460.514 180.426 460.517 180.413 460.52ZM179.06 461.103C179.1 461.078 179.146 461.057 179.187 461.035C179.146 461.057 179.1 461.078 179.06 461.103ZM179.699 460.777C179.727 460.765 179.759 460.756 179.789 460.743C179.759 460.755 179.727 460.765 179.699 460.777ZM350.399 392.417C350.383 392.375 350.373 392.33 350.375 392.283C350.373 392.33 350.383 392.375 350.399 392.417ZM350.556 392.601C350.549 392.598 350.543 392.593 350.536 392.589C350.543 392.593 350.549 392.598 350.556 392.601ZM350.464 392.524C350.451 392.509 350.442 392.493 350.43 392.475C350.442 392.493 350.451 392.509 350.464 392.524ZM152.74 235.321C152.92 235.416 153.097 235.512 153.283 235.598C153.099 235.512 152.92 235.416 152.74 235.321ZM159.772 236.685C159.508 236.711 159.24 236.73 158.971 236.74C159.24 236.73 159.508 236.711 159.772 236.685ZM144.239 223.603C144.247 223.595 144.255 223.589 144.265 223.583C144.281 223.569 144.299 223.557 144.316 223.544C144.29 223.565 144.262 223.585 144.234 223.606C144.236 223.606 144.237 223.604 144.239 223.603ZM144.645 223.145C144.665 223.112 144.679 223.076 144.696 223.041C144.709 223.012 144.723 222.985 144.736 222.957C144.707 223.024 144.678 223.091 144.64 223.152C144.642 223.151 144.644 223.148 144.645 223.145ZM144.841 222.549H144.839C144.841 222.531 144.849 222.516 144.849 222.496C144.847 222.514 144.843 222.531 144.841 222.549ZM144.818 222.66C144.825 222.622 144.836 222.588 144.841 222.549C144.831 222.651 144.812 222.75 144.782 222.845C144.8 222.785 144.807 222.722 144.818 222.66ZM144.557 223.28C144.523 223.326 144.487 223.369 144.448 223.411C144.485 223.369 144.523 223.326 144.557 223.28ZM122.273 309.184C122.196 309.282 122.117 309.379 122.037 309.475C122.117 309.379 122.196 309.282 122.273 309.184ZM123.477 307.235C123.426 307.341 123.368 307.442 123.315 307.546C123.369 307.442 123.426 307.341 123.477 307.235ZM122.932 308.242C122.864 308.352 122.79 308.459 122.717 308.567C122.789 308.459 122.864 308.352 122.932 308.242ZM121.272 310.293C121.35 310.219 121.423 310.142 121.498 310.065C121.423 310.142 121.35 310.219 121.272 310.293ZM160.201 236.634C160.309 236.621 160.416 236.607 160.524 236.589C160.418 236.607 160.309 236.619 160.201 236.634ZM161.087 236.488C161.134 236.479 161.18 236.468 161.225 236.458C161.178 236.468 161.134 236.478 161.087 236.488ZM368.906 243.264C368.892 243.248 368.878 243.233 368.863 243.218C368.878 243.233 368.892 243.248 368.906 243.264ZM209.442 229.669C209.452 229.559 209.466 229.451 209.479 229.344C209.466 229.452 209.452 229.559 209.442 229.669ZM209.598 228.629C209.621 228.513 209.641 228.397 209.667 228.282C209.641 228.397 209.621 228.513 209.598 228.629ZM209.915 227.4C209.965 227.242 210.027 227.087 210.086 226.932C210.027 227.087 209.965 227.242 209.915 227.4ZM210.254 226.51C210.331 226.329 210.412 226.15 210.497 225.974C210.411 226.15 210.331 226.329 210.254 226.51ZM337.06 229.282C337.076 229.404 337.096 229.526 337.109 229.648C337.096 229.526 337.076 229.404 337.06 229.282ZM361.326 240.612C361.326 240.668 361.329 240.728 361.329 240.787C361.329 240.726 361.326 240.669 361.326 240.612ZM360.199 240.005C360.23 240.007 360.259 240.007 360.29 240.007C360.652 240.011 361.006 240.014 361.342 240.016C360.977 240.014 360.595 240.011 360.199 240.005ZM355.571 239.755C355.837 239.782 356.106 239.81 356.371 239.832C356.424 239.837 356.478 239.84 356.532 239.844C356.922 239.874 357.31 239.9 357.692 239.921C357.746 239.924 357.799 239.927 357.853 239.93C358.072 239.941 358.282 239.948 358.496 239.957C357.556 239.919 356.574 239.856 355.571 239.755ZM355.031 239.701C355.077 239.707 355.124 239.712 355.17 239.718C355.124 239.712 355.079 239.707 355.031 239.701ZM353.689 239.523C353.723 239.528 353.756 239.534 353.79 239.539C353.929 239.56 354.066 239.575 354.205 239.593C354.032 239.569 353.862 239.549 353.689 239.523ZM349.745 238.617C349.765 238.623 349.784 238.629 349.804 238.635C350.636 238.903 351.5 239.12 352.378 239.295C352.387 239.296 352.397 239.298 352.407 239.301C352.582 239.335 352.758 239.361 352.932 239.392C351.846 239.197 350.771 238.95 349.745 238.617ZM351.561 264.784C351.547 264.767 351.534 264.749 351.521 264.734C351.534 264.751 351.547 264.767 351.561 264.784ZM350.756 263.4C350.743 263.367 350.729 263.335 350.716 263.301C350.729 263.335 350.743 263.367 350.756 263.4ZM350.474 262.557C350.461 262.51 350.448 262.464 350.437 262.416C350.45 262.462 350.461 262.51 350.474 262.557ZM353.612 266.18C353.603 266.175 353.593 266.172 353.583 266.169C353.593 266.172 353.603 266.177 353.612 266.18ZM352.118 265.347C352.112 265.341 352.104 265.335 352.097 265.329C352.105 265.337 352.112 265.341 352.118 265.347ZM358.693 266.255C358.488 266.314 358.286 266.363 358.085 266.409C358.286 266.363 358.488 266.314 358.693 266.255ZM360.192 265.704C360.065 265.761 359.938 265.812 359.809 265.863C359.936 265.812 360.065 265.761 360.192 265.704ZM359.442 266.008C359.302 266.059 359.165 266.101 359.026 266.147C359.165 266.103 359.303 266.059 359.442 266.008ZM358.977 239.977C359.023 239.978 359.067 239.98 359.112 239.981C359.429 239.99 359.734 239.996 360.036 240.002C359.692 239.996 359.341 239.989 358.977 239.977ZM361.654 264.948C361.541 265.016 361.43 265.082 361.316 265.145C361.43 265.082 361.541 265.016 361.654 264.948ZM360.933 265.349C360.812 265.412 360.693 265.472 360.571 265.529C360.693 265.472 360.812 265.412 360.933 265.349ZM361.367 241.374C361.37 241.422 361.373 241.469 361.38 241.518C361.435 242.044 361.538 242.622 361.699 243.214C361.523 242.565 361.417 241.939 361.367 241.374ZM361.725 243.321C361.814 243.637 361.92 243.958 362.045 244.275C361.913 243.94 361.802 243.602 361.711 243.27C361.716 243.286 361.721 243.304 361.725 243.321ZM348.577 238.191C348.068 237.986 347.582 237.751 347.114 237.497C347.171 237.528 347.223 237.565 347.282 237.596C347.32 237.616 347.357 237.634 347.395 237.653C347.745 237.833 348.106 237.998 348.478 238.152C348.509 238.165 348.543 238.177 348.577 238.191ZM345.183 236.191C345.209 236.214 345.237 236.24 345.264 236.262C345.553 236.505 345.858 236.73 346.178 236.943C346.212 236.967 346.248 236.991 346.282 237.014C345.889 236.758 345.519 236.479 345.17 236.178C345.173 236.182 345.178 236.187 345.183 236.191ZM343.451 258.004C344.589 259.287 346.077 260.333 347.861 260.991C348.629 261.274 349.412 261.461 350.195 261.577L350.634 266.643C348.401 266.821 346.018 267.104 343.452 267.5V258.004H343.451ZM348.749 321.656C348.559 321.562 348.373 321.468 348.191 321.367C348.373 321.468 348.561 321.562 348.749 321.656ZM351.569 322.672C351.272 322.601 350.98 322.523 350.693 322.434C350.98 322.523 351.272 322.601 351.569 322.672ZM350.109 322.234C349.905 322.16 349.704 322.082 349.507 321.998C349.704 322.082 349.905 322.16 350.109 322.234ZM352.259 322.821C352.224 322.815 352.19 322.805 352.156 322.799C352.188 322.805 352.224 322.808 352.257 322.815C352.257 322.817 352.257 322.82 352.259 322.821ZM346.917 320.582C347.122 320.724 347.331 320.859 347.543 320.99C347.331 320.861 347.122 320.725 346.917 320.582ZM353.089 322.946C353.105 322.948 353.12 322.952 353.135 322.954C353.12 322.952 353.105 322.951 353.089 322.949C353.09 322.949 353.089 322.948 353.089 322.946ZM354.911 323.068C354.479 323.068 354.061 323.041 353.648 323.003C354.063 323.038 354.479 323.068 354.911 323.068ZM356.914 322.955C356.759 322.972 356.607 322.991 356.451 323.003C356.607 322.99 356.76 322.972 356.914 322.955ZM362.817 321.26C362.698 321.318 362.582 321.38 362.461 321.437C362.582 321.38 362.698 321.318 362.817 321.26ZM359.85 322.409C359.713 322.448 359.572 322.478 359.435 322.514C359.572 322.478 359.713 322.448 359.85 322.409ZM358.442 322.734C358.279 322.765 358.113 322.794 357.946 322.821C358.113 322.794 358.279 322.765 358.442 322.734ZM362.037 264.715C362.138 264.65 362.236 264.579 362.336 264.511C362.236 264.579 362.138 264.648 362.037 264.715ZM362.725 264.239C362.76 264.213 362.792 264.185 362.825 264.159C362.792 264.185 362.76 264.213 362.725 264.239ZM363.707 263.412C363.769 263.354 363.834 263.296 363.895 263.238C363.834 263.296 363.769 263.354 363.707 263.412ZM364.074 320.566C363.949 320.642 363.823 320.716 363.697 320.788C363.823 320.716 363.949 320.642 364.074 320.566ZM362.071 244.336C362.19 244.634 362.322 244.93 362.476 245.219C362.322 244.93 362.19 244.634 362.071 244.336ZM362.649 245.498C362.771 245.707 362.89 245.92 363.034 246.118C362.89 245.92 362.771 245.707 362.649 245.498ZM335.3 224.675C335.145 224.444 334.984 224.218 334.812 223.999C334.984 224.218 335.145 224.444 335.3 224.675ZM336.951 228.621C336.921 228.472 336.889 228.323 336.853 228.175C336.889 228.323 336.921 228.472 336.951 228.621ZM336.706 227.647C336.656 227.481 336.61 227.314 336.551 227.15C336.608 227.314 336.656 227.481 336.706 227.647ZM336.444 226.877C336.271 226.432 336.073 225.997 335.845 225.577C336.073 225.997 336.272 226.432 336.444 226.877ZM335.793 225.476C335.662 225.242 335.524 225.016 335.377 224.792C335.524 225.016 335.664 225.242 335.793 225.476ZM211.371 224.491C211.099 224.882 210.856 225.292 210.634 225.714C210.856 225.29 211.099 224.882 211.371 224.491ZM330.068 452.742H329.859C330.059 452.282 330.185 452.001 330.192 452.002C330.356 452.052 330.48 452.191 330.48 452.361C330.48 452.571 330.294 452.742 330.068 452.742ZM346.449 320.251C346.196 320.061 345.946 319.864 345.703 319.659C345.948 319.864 346.196 320.061 346.449 320.251ZM345.278 319.287C345.054 319.084 344.834 318.878 344.617 318.662C344.834 318.878 345.054 319.084 345.278 319.287ZM344.191 318.218C344.012 318.03 343.837 317.836 343.664 317.637C343.837 317.836 344.012 318.03 344.191 318.218ZM364.934 320.006C365.032 319.938 365.133 319.873 365.229 319.804C365.131 319.873 365.032 319.938 364.934 320.006ZM367.387 317.997C367.469 317.917 367.55 317.834 367.632 317.753C367.55 317.834 367.469 317.917 367.387 317.997ZM379.447 325.921C379.439 325.908 379.431 325.894 379.423 325.882C379.431 325.896 379.439 325.909 379.447 325.921ZM379.33 324.52C379.33 324.52 379.33 324.518 379.331 324.518C379.33 324.518 379.33 324.52 379.33 324.52ZM377.364 321.443C377.395 321.413 377.423 321.388 377.452 321.358C377.423 321.388 377.395 321.413 377.364 321.443ZM377.653 321.165C377.681 321.136 377.705 321.111 377.731 321.085C377.705 321.111 377.681 321.136 377.653 321.165ZM377.899 320.916C377.922 320.892 377.942 320.87 377.965 320.847C377.942 320.87 377.922 320.892 377.899 320.916ZM378.296 320.484C378.302 320.477 378.309 320.469 378.315 320.463C378.309 320.469 378.302 320.477 378.296 320.484ZM378.11 320.692C378.126 320.676 378.141 320.659 378.157 320.641C378.141 320.659 378.126 320.674 378.11 320.692ZM376.467 319.692C376.506 319.674 376.542 319.661 376.58 319.643C376.542 319.659 376.506 319.674 376.467 319.692ZM376.983 319.47C376.991 319.465 376.999 319.462 377.007 319.459C376.999 319.462 376.991 319.467 376.983 319.47ZM379.553 326.051C379.571 326.069 379.588 326.088 379.604 326.106C379.586 326.088 379.571 326.069 379.553 326.051ZM379.791 326.263C379.765 326.245 379.741 326.225 379.716 326.204C379.741 326.225 379.765 326.245 379.791 326.263ZM383.895 326.596C383.854 326.533 383.819 326.466 383.789 326.397C383.819 326.466 383.854 326.533 383.895 326.596ZM387.709 315.814C387.738 315.835 387.769 315.854 387.798 315.876C387.769 315.854 387.738 315.835 387.709 315.814ZM385.611 314.564C385.629 314.572 385.645 314.581 385.662 314.588C385.645 314.581 385.627 314.572 385.611 314.564ZM387.056 315.38C387.091 315.401 387.123 315.422 387.156 315.445C387.123 315.422 387.091 315.401 387.056 315.38ZM373.044 310.142C373.076 310.079 373.11 310.015 373.143 309.952C373.11 310.015 373.076 310.079 373.044 310.142ZM368.4 316.952C368.488 316.857 368.576 316.759 368.663 316.661C368.576 316.759 368.488 316.857 368.4 316.952ZM369.423 315.761C369.483 315.686 369.543 315.614 369.604 315.538C369.543 315.614 369.483 315.686 369.423 315.761ZM371.382 313.027C371.432 312.946 371.483 312.863 371.533 312.781C371.483 312.863 371.432 312.946 371.382 313.027ZM372.205 311.664C372.264 311.565 372.321 311.464 372.378 311.363C372.321 311.464 372.264 311.565 372.205 311.664ZM364.42 262.67C364.358 262.742 364.293 262.812 364.228 262.884C364.291 262.812 364.358 262.742 364.42 262.67ZM365.697 260.262C365.686 260.317 365.679 260.372 365.665 260.428C365.679 260.372 365.686 260.317 365.697 260.262ZM365.521 260.85C365.493 260.923 365.469 260.997 365.438 261.071C365.469 260.997 365.493 260.923 365.521 260.85ZM365.242 261.468C365.201 261.545 365.161 261.622 365.115 261.699C365.161 261.622 365.201 261.545 365.242 261.468ZM364.872 262.078C364.818 262.155 364.763 262.23 364.707 262.306C364.763 262.23 364.818 262.155 364.872 262.078ZM368.095 242.634C368.057 242.615 368.02 242.595 367.982 242.577C368.02 242.595 368.057 242.615 368.095 242.634ZM367.654 242.432C367.614 242.416 367.571 242.399 367.527 242.386C367.571 242.399 367.614 242.416 367.654 242.432ZM369.202 243.611C369.212 243.625 369.224 243.638 369.233 243.652C369.224 243.638 369.212 243.625 369.202 243.611ZM338.646 199.203C339.913 197.181 341.953 195.626 344.341 194.858C355.694 191.21 365.234 201.867 359.217 211.47C357.949 213.492 355.911 215.047 353.521 215.815C342.169 219.464 332.627 208.808 338.646 199.203ZM249.608 222.421C249.653 222.622 249.735 222.809 249.833 222.987C249.735 222.809 249.653 222.622 249.608 222.421ZM250.147 223.425C250.25 223.536 250.363 223.639 250.485 223.731C250.363 223.639 250.249 223.536 250.147 223.425ZM250.798 223.931C251.165 224.128 251.583 224.249 252.036 224.249C252.49 224.249 252.909 224.128 253.274 223.931C252.907 224.128 252.49 224.249 252.036 224.249C251.583 224.249 251.165 224.128 250.798 223.931ZM259.515 220.956H295.948C296.343 220.956 296.681 221.177 296.826 221.492C296.681 221.177 296.343 220.956 295.948 220.956H259.515C259.12 220.956 258.782 221.177 258.637 221.492C258.782 221.177 259.12 220.956 259.515 220.956ZM254.515 221.96C254.515 222.118 254.499 222.273 254.467 222.421C254.4 222.719 254.271 222.996 254.093 223.24C253.954 223.428 253.78 223.589 253.589 223.731C253.78 223.589 253.954 223.428 254.093 223.24C254.271 222.996 254.4 222.719 254.467 222.421C254.499 222.272 254.515 222.118 254.515 221.96C254.515 221.802 254.499 221.648 254.467 221.499C254.411 221.254 254.305 221.028 254.173 220.817C254.305 221.028 254.413 221.254 254.467 221.499C254.499 221.648 254.515 221.802 254.515 221.96ZM141.786 215.102C141.768 215.108 141.752 215.115 141.734 215.121C141.752 215.115 141.768 215.108 141.786 215.102ZM142.446 214.948C142.415 214.953 142.383 214.956 142.352 214.96C142.384 214.956 142.415 214.953 142.446 214.948ZM114.935 273.734C114.915 273.765 114.897 273.794 114.878 273.825C114.897 273.794 114.915 273.765 114.935 273.734ZM114.565 274.661C114.558 274.697 114.552 274.733 114.547 274.771C114.552 274.733 114.558 274.697 114.565 274.661ZM111.237 286.28L111.273 286.223L112.64 284.032L111.237 286.28ZM120.583 310.896C120.529 310.94 120.481 310.985 120.427 311.026C120.481 310.984 120.531 310.938 120.583 310.896ZM120.68 318.111C120.401 318.036 120.136 317.938 119.887 317.822C120.136 317.938 120.401 318.036 120.68 318.111ZM148.785 349.104C148.786 349.104 148.788 349.104 148.79 349.104C149.015 349.104 149.199 348.937 149.202 348.728L149.387 333.436L149.274 342.744L154.216 375.677H148.175L148.785 349.104ZM183.641 242.335C180.076 241.138 175.965 240.312 170.03 239.671C167.21 239.468 164.445 239.344 161.765 239.286L161.866 236.304C162.049 236.255 162.233 236.208 162.413 236.151C164.225 235.573 165.848 234.595 167.146 233.326C167.347 233.13 167.538 232.923 167.72 232.71C168.012 232.378 168.291 232.034 168.542 231.671C169.562 230.185 170.206 228.451 170.343 226.575C170.341 226.587 170.34 226.6 170.338 226.614C170.34 226.6 170.343 226.588 170.343 226.575L170.495 224.491H204.355C203.547 226.423 203.102 228.519 203.102 230.714V259.323L188.91 245.1C187.381 243.73 185.561 242.812 183.641 242.335ZM343.451 413.561L350.663 392.652C350.696 392.661 350.729 392.672 350.763 392.673L343.451 459.704V413.561ZM379.909 326.337C379.94 326.355 379.972 326.373 380.007 326.39C379.972 326.373 379.94 326.355 379.909 326.337ZM380.124 326.441C380.163 326.456 380.204 326.468 380.245 326.481C380.202 326.468 380.163 326.456 380.124 326.441ZM380.362 326.512C380.408 326.522 380.455 326.528 380.501 326.534C380.455 326.528 380.408 326.521 380.362 326.512ZM380.62 326.546C380.671 326.548 380.723 326.546 380.773 326.545C380.723 326.546 380.671 326.548 380.62 326.546ZM381.458 326.381C381.555 326.337 381.651 326.287 381.747 326.225C381.651 326.287 381.555 326.337 381.458 326.381ZM380.891 326.537C380.946 326.531 381.003 326.519 381.06 326.507C381.003 326.519 380.946 326.531 380.891 326.537ZM381.171 326.484C381.235 326.466 381.299 326.441 381.364 326.417C381.299 326.441 381.235 326.466 381.171 326.484ZM383.819 325.385C383.779 325.465 383.753 325.546 383.734 325.626C383.753 325.546 383.779 325.467 383.819 325.385ZM383.719 325.704C383.709 325.759 383.701 325.813 383.698 325.867C383.701 325.813 383.709 325.759 383.719 325.704ZM383.698 325.951C383.698 326.004 383.703 326.055 383.711 326.106C383.703 326.055 383.698 326.004 383.698 325.951ZM383.775 326.356C383.753 326.301 383.735 326.242 383.722 326.182C383.735 326.242 383.753 326.301 383.775 326.356ZM383.931 326.642C383.964 326.688 383.998 326.731 384.037 326.772C383.998 326.733 383.964 326.689 383.931 326.642ZM384.093 326.828C384.129 326.864 384.169 326.897 384.21 326.929C384.169 326.897 384.129 326.864 384.093 326.828ZM384.275 326.975C384.321 327.005 384.372 327.034 384.424 327.06C384.372 327.034 384.321 327.005 384.275 326.975ZM384.479 327.088C384.551 327.12 384.626 327.145 384.704 327.166C384.626 327.145 384.551 327.12 384.479 327.088ZM384.747 327.174C384.812 327.188 384.879 327.198 384.946 327.203C384.879 327.197 384.812 327.188 384.747 327.174ZM385.031 327.204C385.088 327.204 385.145 327.203 385.203 327.197C385.145 327.203 385.088 327.204 385.031 327.204ZM385.567 327.115C385.657 327.082 385.747 327.045 385.838 326.995C385.923 326.948 386.032 326.894 386.149 326.837C386.032 326.894 385.923 326.948 385.838 326.995C385.747 327.045 385.657 327.082 385.567 327.115ZM385.298 327.183C385.358 327.174 385.42 327.157 385.482 327.139C385.42 327.159 385.358 327.174 385.298 327.183ZM387.405 326.275C387.427 326.265 387.451 326.256 387.472 326.245C387.451 326.256 387.427 326.265 387.405 326.275ZM386.246 326.792C386.363 326.736 386.49 326.679 386.631 326.615C386.49 326.679 386.363 326.737 386.246 326.792ZM386.653 326.605C386.807 326.536 386.976 326.462 387.149 326.387C386.976 326.462 386.807 326.536 386.653 326.605ZM388.358 316.297C388.391 316.324 388.42 316.348 388.453 316.375C388.42 316.348 388.392 316.323 388.358 316.297ZM388.854 316.717C388.895 316.755 388.937 316.791 388.976 316.829C388.935 316.791 388.895 316.755 388.854 316.717ZM392.225 322.267C392.225 322.237 392.224 322.208 392.222 322.178C392.224 322.208 392.225 322.237 392.225 322.267ZM389.381 317.235C389.465 317.328 389.554 317.429 389.645 317.532C389.554 317.428 389.465 317.328 389.381 317.235ZM389.753 317.652C389.81 317.718 389.867 317.783 389.925 317.852C389.867 317.783 389.81 317.718 389.753 317.652ZM390.067 318.021C390.116 318.078 390.164 318.136 390.212 318.194C390.164 318.136 390.116 318.077 390.067 318.021ZM390.377 318.397C390.415 318.444 390.452 318.492 390.49 318.541C390.452 318.492 390.415 318.444 390.377 318.397ZM391.162 319.468C391.173 319.485 391.183 319.5 391.194 319.516C391.183 319.5 391.173 319.485 391.162 319.468ZM391.389 319.828C391.406 319.858 391.424 319.888 391.442 319.918C391.424 319.888 391.406 319.859 391.389 319.828ZM392.215 322.582C392.214 322.61 392.209 322.639 392.206 322.668C392.209 322.64 392.214 322.61 392.215 322.582ZM391.618 320.236C391.633 320.263 391.648 320.292 391.663 320.319C391.646 320.292 391.633 320.263 391.618 320.236ZM391.826 320.659C391.827 320.662 391.827 320.665 391.829 320.668C391.827 320.665 391.827 320.662 391.826 320.659ZM392.183 321.808C392.184 321.821 392.188 321.835 392.189 321.848C392.188 321.835 392.184 321.821 392.183 321.808ZM384.132 313.917C383.298 313.609 382.502 313.42 381.847 313.421C381.413 313.423 381.031 313.474 380.677 313.542C378.743 311.515 376.454 309.785 373.893 308.441C376.268 303.431 378.049 297.589 379.586 291.671C379.695 291.652 379.798 291.604 379.863 291.512L395.611 300.835L384.132 313.917Z" fill="#F5F5F5"/>
<path fill-rule="evenodd" clip-rule="evenodd" d="M215.177 242.673H329.947V429.124H215.177V242.673Z" fill="#E0E0E0"/>
<path fill-rule="evenodd" clip-rule="evenodd" d="M379.694 204.951L374.839 202.617C372.244 201.369 371.386 198.321 372.995 196.064L376.004 191.841C378.56 188.254 374.825 183.692 370.39 184.982L365.167 186.503C362.376 187.316 359.434 185.722 358.843 183.075L357.737 178.12C356.798 173.916 350.662 173.127 348.515 176.935L345.985 181.422C344.635 183.819 341.335 184.611 338.89 183.126L334.304 180.343C330.42 177.986 325.479 181.435 326.879 185.527L328.528 190.347C329.41 192.925 327.683 195.643 324.814 196.188L319.446 197.21C314.892 198.076 314.037 203.74 318.162 205.721L323.021 208.055C325.62 209.302 326.478 212.351 324.868 214.609L321.857 218.836C321.772 218.953 321.713 219.075 321.643 219.194H309.663C309.057 219.194 308.567 219.647 308.567 220.206V221.742C308.567 225.696 305.094 228.898 300.812 228.898H245.74C241.457 228.898 237.986 225.694 237.986 221.74V220.206C237.986 219.647 237.495 219.194 236.888 219.194H223.345C223.384 218.929 223.411 218.658 223.411 218.384L223.515 195.159C223.515 191.787 220.553 189.052 216.899 189.052H158.221C154.567 189.052 151.605 191.787 151.605 195.159L151.499 218.384C151.499 221.757 154.463 224.491 158.116 224.491H211.371C210.119 226.287 209.385 228.419 209.385 230.714V462.694C209.385 469.055 214.971 474.214 221.863 474.214H324.688C331.58 474.214 337.168 469.055 337.168 462.694V230.714C337.168 228.205 336.289 225.891 334.812 223.999C336.83 224.241 338.575 225.628 339.017 227.6L340.127 232.549C341.068 236.75 347.201 237.538 349.349 233.733L351.877 229.252C353.231 226.855 356.53 226.064 358.975 227.549L363.551 230.327C367.434 232.685 372.376 229.238 370.98 225.146L369.334 220.326C368.455 217.749 370.183 215.034 373.048 214.487L378.41 213.465C382.962 212.596 383.815 206.933 379.694 204.951ZM325.218 249.14L325.238 299.17L219.719 299.206L219.698 249.176L325.218 249.14ZM250.02 452.144C247.474 452.144 245.411 450.238 245.411 447.889C245.411 445.54 247.474 443.635 250.02 443.635C252.565 443.635 254.628 445.54 254.628 447.889C254.628 450.239 252.565 452.144 250.02 452.144ZM275.705 454.324C271.856 454.324 268.734 451.442 268.734 447.889C268.734 444.336 271.854 441.455 275.705 441.455C279.554 441.455 282.675 444.336 282.675 447.889C282.676 451.442 279.554 454.324 275.705 454.324ZM291.967 408.445H218.902V337.688H291.967V408.445ZM301.39 452.144C298.845 452.144 296.782 450.238 296.782 447.889C296.782 445.54 298.845 443.635 301.39 443.635C303.936 443.635 305.999 445.54 305.999 447.889C305.999 450.239 303.936 452.144 301.39 452.144ZM319.425 408.445H300.67V337.688H319.425V408.445ZM219.719 328.862L219.716 322.674L325.236 322.637L325.238 328.824L219.719 328.862ZM219.719 314.034L219.716 307.846L325.236 307.81L325.238 313.998L219.719 314.034ZM359.217 211.47C357.949 213.492 355.911 215.049 353.521 215.817C342.169 219.464 332.627 208.808 338.645 199.203C339.913 197.181 341.952 195.626 344.341 194.858C355.694 191.211 365.234 201.867 359.217 211.47ZM272.544 192.113L275.94 193.384C277.757 194.065 278.54 196.045 277.621 197.645L275.904 200.637C274.447 203.175 277.251 205.998 280.117 204.877L283.487 203.559C285.292 202.855 287.364 203.744 287.941 205.474L289.02 208.707C289.935 211.452 294.076 211.619 295.245 208.957L296.624 205.824C297.361 204.146 299.506 203.427 301.238 204.273L304.476 205.857C307.226 207.203 310.282 204.616 309.071 201.969L307.645 198.856C306.882 197.189 307.846 195.278 309.72 194.747L313.222 193.751C316.195 192.907 316.376 189.084 313.492 188.003L310.098 186.732C308.283 186.051 307.501 184.072 308.42 182.472L310.136 179.482C311.592 176.944 308.79 174.121 305.924 175.239L302.548 176.558C300.742 177.263 298.674 176.372 298.098 174.643L297.02 171.404C296.107 168.658 291.964 168.492 290.794 171.154L289.416 174.292C288.68 175.968 286.535 176.689 284.805 175.843L281.557 174.256C278.807 172.912 275.752 175.498 276.966 178.144L278.396 181.26C279.16 182.927 278.196 184.838 276.321 185.369L272.813 186.365C269.84 187.209 269.658 191.034 272.544 192.113ZM285.746 186.572C286.452 185.151 287.703 183.995 289.243 183.344C296.558 180.25 303.647 186.794 300.295 193.545C299.589 194.966 298.338 196.123 296.798 196.773C289.484 199.867 282.394 193.324 285.746 186.572ZM164.797 381.784V427.55C164.797 430.925 161.835 433.659 158.182 433.659L86.0596 434.27C82.4043 434.27 79.4423 430.925 79.4423 427.55V381.784C79.4423 378.412 82.406 375.677 86.0596 375.677H158.182C161.835 375.677 164.797 378.412 164.797 381.784ZM350.787 392.675C350.782 392.675 350.779 392.675 350.774 392.675C350.546 392.669 350.366 392.493 350.375 392.282L352.146 339.59L345.873 332.834C345.724 332.674 345.744 332.433 345.919 332.296C346.09 332.161 346.351 332.179 346.499 332.338L352.877 339.206C352.944 339.278 352.98 339.37 352.976 339.466L351.2 392.306C351.192 392.512 351.009 392.675 350.787 392.675ZM380.397 452.361C380.397 452.15 380.211 451.98 379.984 451.98H346.966C346.739 451.98 346.553 452.15 346.553 452.361C346.553 452.571 346.739 452.742 346.966 452.742H379.984C380.211 452.742 380.397 452.571 380.397 452.361ZM330.48 452.361C330.48 452.15 330.294 451.98 330.068 451.98H292.658C292.43 451.98 292.246 452.15 292.246 452.361C292.246 452.571 292.43 452.742 292.658 452.742H330.068C330.294 452.742 330.48 452.571 330.48 452.361ZM149.202 348.728L149.387 333.436L156.118 331.778C156.338 331.724 156.471 331.515 156.41 331.313C156.351 331.11 156.128 330.989 155.906 331.042L148.87 332.775C148.69 332.82 148.566 332.968 148.565 333.139L148.377 348.719C148.374 348.929 148.556 349.102 148.785 349.104C148.786 349.104 148.788 349.104 148.79 349.104C149.015 349.104 149.199 348.937 149.202 348.728Z" fill="#F5F5F5"/>
<path fill-rule="evenodd" clip-rule="evenodd" d="M269.59 395.883H228.208C227.524 395.883 226.968 396.395 226.968 397.026C226.968 397.657 227.524 398.169 228.208 398.169H269.59C270.273 398.169 270.828 397.657 270.828 397.026C270.828 396.395 270.273 395.883 269.59 395.883Z" fill="#F5F5F5"/>
<path d="M254.515 221.96C254.515 222.111 254.501 222.26 254.468 222.407C254.437 222.553 254.39 222.696 254.328 222.836C254.266 222.975 254.189 223.106 254.098 223.231C254.008 223.356 253.905 223.472 253.79 223.579C253.675 223.684 253.55 223.779 253.414 223.863C253.279 223.946 253.136 224.017 252.986 224.074C252.835 224.131 252.68 224.175 252.521 224.205C252.361 224.234 252.199 224.249 252.038 224.249C251.875 224.249 251.713 224.234 251.553 224.205C251.394 224.175 251.239 224.131 251.089 224.074C250.938 224.017 250.795 223.946 250.66 223.863C250.524 223.779 250.399 223.684 250.284 223.579C250.169 223.472 250.066 223.356 249.976 223.231C249.885 223.106 249.808 222.975 249.746 222.836C249.684 222.696 249.637 222.553 249.606 222.407C249.573 222.26 249.559 222.111 249.559 221.96C249.559 221.809 249.573 221.66 249.606 221.513C249.637 221.367 249.684 221.224 249.746 221.084C249.808 220.945 249.885 220.814 249.976 220.689C250.066 220.564 250.169 220.448 250.284 220.341C250.399 220.236 250.524 220.141 250.66 220.057C250.795 219.974 250.938 219.903 251.089 219.846C251.239 219.789 251.394 219.745 251.553 219.715C251.713 219.686 251.875 219.671 252.038 219.671C252.199 219.671 252.361 219.686 252.521 219.715C252.68 219.745 252.835 219.789 252.986 219.846C253.136 219.903 253.279 219.974 253.414 220.057C253.55 220.141 253.675 220.236 253.79 220.341C253.905 220.448 254.008 220.564 254.098 220.689C254.189 220.814 254.266 220.945 254.328 221.084C254.39 221.224 254.437 221.367 254.468 221.513C254.501 221.66 254.515 221.809 254.515 221.96Z" fill="#F5F5F5"/>
<path d="M295.949 222.713H259.515C258.988 222.713 258.562 222.32 258.562 221.835C258.562 221.349 258.988 220.956 259.515 220.956H295.949C296.475 220.956 296.901 221.349 296.901 221.835C296.901 222.32 296.475 222.713 295.949 222.713Z" fill="#F5F5F5"/>
<path fill-rule="evenodd" clip-rule="evenodd" d="M324.688 213.394H221.863C211.5 213.394 203.1 221.148 203.1 230.715V462.694C203.1 472.26 211.5 480.015 221.863 480.015H324.688C335.051 480.015 343.451 472.26 343.451 462.694V230.714C343.451 221.148 335.051 213.394 324.688 213.394ZM259.515 220.956H295.948C296.475 220.956 296.901 221.349 296.901 221.835C296.901 222.32 296.475 222.713 295.948 222.713H259.515C258.988 222.713 258.562 222.32 258.562 221.835C258.562 221.349 258.988 220.956 259.515 220.956ZM252.038 219.671C253.406 219.671 254.515 220.695 254.515 221.96C254.515 223.225 253.406 224.249 252.038 224.249C250.668 224.249 249.559 223.225 249.559 221.96C249.559 220.695 250.668 219.671 252.038 219.671ZM337.166 462.694C337.166 469.056 331.58 474.214 324.688 474.214H221.863C214.971 474.214 209.385 469.056 209.385 462.694V230.714C209.385 224.351 214.971 219.194 221.863 219.194H236.888C237.493 219.194 237.986 219.647 237.986 220.206V221.74C237.986 225.694 241.457 228.898 245.74 228.898H300.812C305.096 228.898 308.567 225.694 308.567 221.742V220.206C308.567 219.647 309.058 219.194 309.663 219.194H324.688C331.58 219.194 337.168 224.351 337.168 230.714V462.694H337.166ZM216.898 189.051H158.221C154.567 189.051 151.605 191.785 151.605 195.158V202.587H223.515V195.158C223.515 191.785 220.551 189.051 216.898 189.051ZM215.262 197.863C214.04 197.863 213.05 196.948 213.05 195.82C213.05 194.691 214.042 193.777 215.262 193.777C216.485 193.777 217.477 194.691 217.477 195.82C217.477 196.948 216.485 197.863 215.262 197.863ZM203.422 212.967H170.909C170.177 212.967 169.585 212.42 169.585 211.744C169.585 211.07 170.177 210.522 170.909 210.522H203.422C204.152 210.522 204.746 211.07 204.746 211.744C204.746 212.42 204.152 212.967 203.422 212.967ZM254.628 447.889C254.628 450.239 252.565 452.144 250.02 452.144C247.474 452.144 245.411 450.239 245.411 447.889C245.411 445.54 247.474 443.635 250.02 443.635C252.565 443.635 254.628 445.54 254.628 447.889ZM282.676 447.889C282.676 451.442 279.554 454.324 275.705 454.324C271.856 454.324 268.734 451.442 268.734 447.889C268.734 444.336 271.854 441.454 275.705 441.454C279.554 441.455 282.676 444.336 282.676 447.889ZM305.999 447.889C305.999 450.239 303.936 452.144 301.39 452.144C298.845 452.144 296.782 450.239 296.782 447.889C296.782 445.54 298.845 443.635 301.39 443.635C303.936 443.635 305.999 445.54 305.999 447.889ZM154.709 413.31H89.5289C88.7982 413.31 88.2045 412.763 88.2045 412.087C88.2045 411.413 88.7982 410.865 89.5289 410.865H154.709C155.441 410.865 156.033 411.413 156.033 412.087C156.033 412.763 155.441 413.31 154.709 413.31ZM154.709 401.241H89.5289C88.7982 401.241 88.2045 400.694 88.2045 400.018C88.2045 399.343 88.7982 398.797 89.5289 398.797H154.709C155.441 398.797 156.033 399.343 156.033 400.018C156.033 400.694 155.441 401.241 154.709 401.241ZM158.18 375.676H86.0596C82.4043 375.676 79.4423 378.412 79.4423 381.784V389.213H164.797V381.784C164.797 378.412 161.835 375.676 158.18 375.676ZM87.3155 384.489C86.0939 384.489 85.1021 383.573 85.1021 382.445C85.1021 381.318 86.0939 380.402 87.3155 380.402C88.5372 380.402 89.5289 381.318 89.5289 382.445C89.5289 383.573 88.5372 384.489 87.3155 384.489Z" fill="#E0E0E0"/>
<path fill-rule="evenodd" clip-rule="evenodd" d="M226.099 255.664L270.422 255.679L270.407 292.699L226.084 292.684L226.099 255.664ZM316.714 265.872H278.93C278.246 265.872 277.692 266.384 277.692 267.015C277.692 267.646 278.246 268.158 278.93 268.158H316.714C317.397 268.158 317.954 267.646 317.954 267.015C317.954 266.384 317.397 265.872 316.714 265.872ZM316.714 257.082H278.93C278.246 257.082 277.692 257.594 277.692 258.225C277.692 258.856 278.246 259.368 278.93 259.368H316.714C317.397 259.368 317.954 258.856 317.954 258.225C317.954 257.594 317.397 257.082 316.714 257.082ZM308.756 288.697H279.067C278.383 288.697 277.829 289.209 277.829 289.84C277.829 290.47 278.383 290.982 279.067 290.982H308.756C309.439 290.982 309.994 290.47 309.994 289.84C309.994 289.209 309.439 288.697 308.756 288.697ZM278.931 276.947H308.619C309.302 276.947 309.857 276.435 309.857 275.804C309.857 275.171 309.302 274.659 308.619 274.659H278.931C278.248 274.659 277.692 275.171 277.692 275.804C277.692 276.435 278.246 276.947 278.931 276.947ZM285.219 371.09V343.757H226.554V371.09H285.219ZM282.114 379.45C282.114 378.818 281.559 378.306 280.876 378.306H228.208C227.524 378.306 226.968 378.818 226.968 379.45C226.968 380.081 227.524 380.593 228.208 380.593H280.876C281.559 380.593 282.114 380.081 282.114 379.45ZM282.114 388.238C282.114 387.607 281.559 387.095 280.876 387.095H228.208C227.524 387.095 226.968 387.607 226.968 388.238C226.968 388.87 227.524 389.382 228.208 389.382H280.876C281.559 389.382 282.114 388.87 282.114 388.238ZM270.828 397.026C270.828 396.395 270.274 395.883 269.59 395.883H228.208C227.524 395.883 226.968 396.395 226.968 397.026C226.968 397.657 227.524 398.169 228.208 398.169H269.59C270.274 398.169 270.828 397.657 270.828 397.026Z" fill="#F5F5F5"/>
<path d="M255.382 265.484C254.749 262.399 257.626 259.746 260.968 260.332C262.836 260.658 264.341 262.05 264.695 263.774C265.326 266.859 262.451 269.513 259.107 268.927C257.241 268.599 255.736 267.208 255.382 265.484ZM270.41 284.741L257.269 271.763L251.852 277.105L242.018 264.79L226.086 284.708L244.135 284.714L244.117 284.732L270.41 284.741ZM252.977 348.17H246.057L244.719 350.861H244.713V365.62H268.024V350.861H254.312L252.977 348.17Z" fill="#E0E0E0"/>
<path d="M157.762 236.72C157.441 236.7 157.123 236.669 156.808 236.625C156.497 236.583 156.187 236.527 155.883 236.463C154.97 236.268 154.101 235.976 153.285 235.598C153.099 235.512 152.92 235.416 152.74 235.321C152.297 235.088 151.873 234.83 151.468 234.549C151.797 234.778 152.135 234.996 152.489 235.193C151.701 234.757 150.974 234.234 150.321 233.647C147.86 231.58 145.123 228.255 143.127 223.976C143.543 223.978 143.932 223.842 144.239 223.603C144.255 223.589 144.273 223.579 144.288 223.565C144.348 223.515 144.404 223.461 144.454 223.402C144.479 223.377 144.5 223.35 144.521 223.323C144.567 223.265 144.609 223.208 144.645 223.146C144.665 223.112 144.679 223.077 144.696 223.041C144.753 222.922 144.794 222.796 144.818 222.66C144.825 222.623 144.838 222.588 144.841 222.549C144.843 222.531 144.849 222.516 144.851 222.498C144.851 222.498 144.878 221.865 144.865 220.968C144.864 220.837 144.859 220.701 144.856 220.561C144.856 220.554 144.856 220.546 144.856 220.539C144.847 220.256 144.834 219.956 144.816 219.647C144.816 219.632 144.815 219.619 144.815 219.604C144.795 219.292 144.771 218.973 144.738 218.655C144.736 218.648 144.736 218.64 144.735 218.633C144.719 218.476 144.701 218.321 144.679 218.166C144.679 218.161 144.678 218.155 144.678 218.149C144.635 217.83 144.583 217.515 144.521 217.216C144.52 217.21 144.518 217.204 144.516 217.196C144.358 216.439 144.131 215.781 143.805 215.37C143.804 215.368 143.804 215.368 143.804 215.367C143.593 215.103 143.344 214.938 143.043 214.923C140.91 214.807 139.051 216.787 138.889 219.342C138.77 221.252 140.112 222.958 142.282 223.785L139.993 242.035C139.362 247.333 143.293 252.186 149.4 252.794C155.505 253.403 160.966 249.601 161.597 244.304L161.868 236.307C160.941 236.557 159.973 236.711 158.973 236.743C158.571 236.752 158.169 236.746 157.762 236.72Z" fill="#F5C0A2"/>
<path d="M128.969 458.355V461.253C132.109 459.494 138.02 460.183 140.863 461.626C141.758 462.083 142.781 462.09 143.789 461.923C143.929 461.9 144.078 461.946 144.244 462.028C144.105 460.633 144.022 459.416 143.976 458.355H128.969Z" fill="#F5C0A2"/>
<path d="M131.784 281.629C132.526 281.238 133.139 280.906 133.366 280.757C134.116 280.268 135.292 279.529 134.862 278.251C134.635 277.579 134.045 277.293 133.399 277.207C134.58 276.444 134.622 275.266 134.382 274.815C133.947 273.991 133.425 273.914 132.37 274.035C131.313 274.154 125.566 274.771 125.55 274.774C125.371 274.784 125.194 274.807 125.018 274.852L124.398 275.025C124.093 274.83 123.766 274.663 123.423 274.521L124.623 273.743C126.113 273.648 128.572 273.484 129.982 273.35C132.092 273.151 132.741 271.848 132.753 271.255C132.771 270.34 132.007 270.255 131.004 269.981L124.4 269.179C123.754 269.114 123.123 269.211 122.591 269.442C122.575 269.448 122.56 269.457 122.544 269.463C122.425 269.519 122.309 269.581 122.201 269.65L115.759 272.91C114.945 273.44 114.481 274.304 114.521 275.223C114.521 275.223 114.521 275.223 114.521 275.224L112.642 284.031L102.568 300.164C100.772 305.602 104.095 311.355 109.986 313.013C115.879 314.669 122.11 311.604 123.907 306.165L125.928 288.674C126.706 288.364 127.502 288.049 127.504 288.048C127.643 288.004 127.78 287.947 127.909 287.878L132.091 285C134.798 283.084 133.056 281.331 131.784 281.629Z" fill="#F5C0A2"/>
<path d="M162.181 226.947C161.886 226.965 161.592 226.978 161.308 226.978C158.806 226.978 155.706 226.037 155.706 228.194C155.706 229.135 156.174 229.997 156.955 230.67C158.206 231.751 160.354 230.928 160.37 229.345C160.37 229.335 160.37 229.326 160.37 229.317C160.37 229.315 160.401 229.314 160.447 229.314C160.46 229.314 160.478 229.312 160.493 229.312C160.537 229.312 160.587 229.311 160.649 229.311C160.666 229.311 160.684 229.309 160.7 229.309C160.77 229.309 160.848 229.308 160.932 229.306C160.954 229.306 160.977 229.306 161.002 229.306C161.095 229.305 161.191 229.303 161.289 229.303C161.299 229.303 161.307 229.303 161.315 229.303C161.781 229.299 162.246 229.296 162.246 229.296C162.246 229.303 162.245 229.309 162.245 229.317V229.347C162.259 230.928 164.409 231.751 165.662 230.672C166.443 229.997 166.911 229.135 166.911 228.195C166.911 226.283 164.476 226.804 162.181 226.947Z" fill="#F5C0A2"/>
<path d="M161.853 224.599C167.443 224.599 169.617 223.545 170.845 219.664L170.341 226.575C170.34 226.587 170.338 226.6 170.336 226.614C170.338 226.6 170.341 226.588 170.341 226.575L171.348 212.781C171.379 212.336 171.375 211.881 171.358 211.423C171.358 211.423 171.358 211.423 171.358 211.425C171.343 211.024 171.304 210.621 171.25 210.217C171.227 210.052 171.204 209.885 171.175 209.717C171.152 209.589 171.128 209.462 171.101 209.334C171.035 209.019 170.963 208.706 170.871 208.396C170.754 208.001 170.612 207.619 170.46 207.244C170.392 207.077 170.315 206.914 170.24 206.75C170.154 206.56 170.066 206.373 169.969 206.19C169.86 205.979 169.746 205.771 169.625 205.566C169.56 205.456 169.492 205.35 169.423 205.241C169.273 205.003 169.121 204.767 168.957 204.541C167.376 205.488 165.386 205.845 161.454 206.217C158.394 206.504 153.275 206.491 150.525 205.646C147.666 209.216 150.568 213.408 147.346 215.585C148.848 223.16 153.756 224.599 161.853 224.599Z" fill="#F5C0A2"/>
<path d="M389.381 317.235C387.86 315.552 384.058 313.415 381.847 313.423C379.636 313.429 378.444 314.524 378.444 314.524C377.098 315.422 374.794 317.119 374.319 317.425C372.024 318.903 373.942 320.953 375.935 319.947C377.454 319.182 378.343 319.043 380.542 318.008C378.428 319.997 379.025 319.929 377.027 321.758C374.908 323.696 377.142 325.947 379.028 324.545C379.178 324.434 379.346 324.309 379.517 324.182C378.469 325.679 380.155 327.243 381.749 326.225C382.706 325.613 384.133 324.742 385.582 323.862C385.585 323.863 385.59 323.868 385.593 323.869C385.27 324.093 385.479 323.944 384.5 324.625C382.696 325.882 384.262 327.864 385.839 326.995C386.844 326.441 390.584 325.053 391.445 324.193C393.571 322.07 390.897 318.917 389.381 317.235Z" fill="#F5C0A2"/>
<path d="M367.061 242.264C364.913 241.889 364.379 243.757 364.117 245.048L363.727 246.939C361.673 244.878 361.212 241.586 361.342 240.016C355.601 239.998 345.793 239.561 342.979 233.282C342.169 234.779 341.67 236.449 341.581 238.227L340.949 251.094C340.75 255.289 343.398 259.345 347.861 260.991C348.649 261.282 349.453 261.474 350.257 261.589C350.794 264.66 352.288 266.604 356.473 266.604C360.208 266.604 366.144 262.921 365.79 259.106L364.382 251.195C364.617 251.269 364.872 251.307 365.139 251.28C367.663 251.039 369.584 249.607 369.995 247.603C370.523 245.031 369.209 242.64 367.061 242.264Z" fill="#F5C0A2"/>
<path d="M266.708 250.211C267.419 249.396 266.498 248.145 263.929 247.784C260.8 247.344 258.623 247.142 251.053 247.189C251.433 247.081 251.787 246.981 252.093 246.901C254.538 246.264 252.049 243.127 247.962 243.776C244.749 244.286 239.565 245.075 239.565 245.075C235.81 244.958 230.609 246.173 228.777 251.239L213.396 269.665C213.345 269.831 213.267 269.992 213.128 270.125L204.005 288.376C206.17 290.424 207.914 291.999 208.475 292.314C213.479 295.125 220.003 293.66 223.047 289.04L240.979 259.087C241.274 259.082 241.57 259.076 241.858 259.063V259.064L241.884 259.061C243.145 259.001 251.568 258.352 251.568 258.352C252.01 258.32 252.444 258.262 252.876 258.174C254.488 257.852 258.68 256.994 260.869 256.386C261.364 256.247 261.72 255.996 261.952 255.7C262.911 255.606 263.72 255.524 264.258 255.467C265.501 255.336 265.812 254.508 265.387 253.72C265.959 253.671 266.463 253.618 266.866 253.562C269.257 253.234 269.009 251.003 266.708 250.211Z" fill="#F5C0A2"/>
<path d="M167.525 458.355C167.635 459.752 167.735 460.892 167.82 461.833C168.653 462.167 169.216 463.275 171.39 463.275C174.228 463.275 175.377 461.02 177.745 462.429C178.448 461.006 180.614 460.169 182.787 460.204C182.669 459.511 182.575 458.904 182.495 458.356H167.525V458.355Z" fill="#F5C0A2"/>
<path d="M166.2 234.145C166.53 233.888 166.848 233.617 167.144 233.328C167.516 232.965 167.851 232.57 168.166 232.162C167.598 232.897 166.941 233.564 166.2 234.145Z" fill="#F5C0A2"/>
<path fill-rule="evenodd" clip-rule="evenodd" d="M213.128 270.126L203.682 289.025C203.224 289.466 202.467 289.48 201.991 289.055L192.129 280.246C191.738 279.895 191.669 279.363 191.908 278.945L184.437 272.216L179.891 320.442C179.557 322.562 179.143 324.521 176.822 324.599C157.728 325.25 139.013 323.086 120.678 318.111C118.45 317.506 117.016 315.514 117.259 313.382C117.282 313.171 117.297 312.95 117.319 312.738C120.373 311.625 122.873 309.291 123.906 306.164L125.927 288.673C126.705 288.364 127.501 288.048 127.502 288.048C127.641 288.003 127.778 287.947 127.907 287.878L132.089 284.999C134.797 283.084 133.056 281.333 131.784 281.629C132.526 281.238 133.139 280.907 133.366 280.758C134.115 280.268 135.291 279.529 134.86 278.251C134.633 277.579 134.043 277.293 133.399 277.207C134.578 276.444 134.622 275.266 134.381 274.815C133.947 273.991 133.423 273.914 132.368 274.035C131.42 274.142 126.713 274.648 125.738 274.753C125.625 274.765 125.55 274.774 125.548 274.774C125.371 274.785 125.193 274.807 125.017 274.852L124.398 275.025C124.093 274.83 123.764 274.663 123.423 274.521L124.623 273.743C124.788 273.732 124.969 273.722 125.155 273.71C125.207 273.707 125.263 273.702 125.315 273.699C125.472 273.688 125.633 273.676 125.799 273.666C125.842 273.663 125.886 273.66 125.93 273.658C126.122 273.645 126.32 273.631 126.519 273.618C126.597 273.613 126.675 273.607 126.754 273.603C126.907 273.592 127.06 273.582 127.215 273.571C127.303 273.565 127.391 273.557 127.48 273.551C127.605 273.542 127.727 273.533 127.85 273.524C127.949 273.517 128.047 273.511 128.145 273.503C128.83 273.452 129.474 273.399 129.98 273.351C132.092 273.151 132.74 271.849 132.753 271.257C132.771 270.341 132.006 270.257 131.003 269.983L129.106 269.751L124.4 269.179C123.754 269.114 123.123 269.212 122.591 269.442C122.575 269.45 122.56 269.458 122.544 269.465C122.425 269.519 122.309 269.583 122.201 269.65L115.758 272.91C115.553 273.044 115.372 273.199 115.212 273.371C114.744 273.88 114.491 274.536 114.52 275.223C114.52 275.224 114.52 275.224 114.52 275.224L112.641 284.032L102.821 299.76L103.755 287.068C103.781 286.58 104.153 286.179 104.643 286.06L106.308 256.214C106.667 252.831 108.632 249.955 111.434 248.154C111.678 247.895 111.979 247.678 112.341 247.54C116.002 246.133 121.4 243.554 129.036 241.485C129.036 241.485 133.337 240.707 140.24 240.066L139.992 242.033C139.36 247.332 143.293 252.185 149.398 252.793C155.503 253.401 160.964 249.599 161.597 244.302L161.765 239.287C164.447 239.346 167.211 239.468 170.03 239.673C175.965 240.314 180.077 241.139 183.641 242.335C185.561 242.812 187.381 243.73 188.908 245.1L209.016 265.252C209.468 265.072 210.009 265.162 210.362 265.508L213.136 268.614C213.568 269.039 213.565 269.703 213.128 270.126ZM364.622 466.683V463.759C364.622 463.057 364.511 462.379 364.319 461.732L348.536 461.346C348.306 461.982 348.158 462.655 348.119 463.357L348.049 464.581C347.444 471.058 347.564 475.748 347.564 480.44H376.48C376.599 475.19 364.622 471.8 364.622 466.683ZM144.378 462.092C144.149 461.949 143.967 461.895 143.789 461.925C142.781 462.092 141.758 462.083 140.863 461.628C137.323 459.83 129.016 459.193 127.238 463.01C125.773 466.153 124.173 468.34 121.975 471.52C119.97 474.42 119.295 476.789 119.304 478.723C119.311 479.678 120.171 480.44 121.205 480.44H146.557C147.589 480.44 148.454 479.678 148.457 478.723C148.468 473.422 146.226 468.417 145.404 465.103C145.051 463.688 144.978 462.471 144.378 462.092ZM199.437 471.204C193.438 468.738 189.451 466.208 187.677 462.742C185.807 459.094 179.095 459.699 177.745 462.428C175.376 461.018 174.228 463.274 171.39 463.274C168.555 463.274 168.462 461.387 166.936 461.791C164.605 462.405 164.533 471.281 164.535 478.824C164.535 479.816 165.406 480.617 166.481 480.617H202.816C203.978 480.617 204.886 479.687 204.751 478.621C204.467 476.373 203.374 472.824 199.437 471.204ZM292.14 459.263C291.339 460.219 290.675 461.354 290.218 462.682C290.218 462.682 289.488 464.471 288.127 466.683C286.265 470.173 279.054 472.887 275.118 474.643C270.259 476.81 271.102 480.44 271.102 480.44H306.366C307.681 473.717 306.139 471.139 307.054 463.463C307.373 462.265 307.42 461.199 307.263 460.259L292.14 459.263ZM385.112 324.148C385.127 324.155 385.141 324.163 385.158 324.169C385.393 324.006 385.381 324.017 385.592 323.869C385.588 323.868 385.585 323.865 385.582 323.863C385.424 323.958 385.269 324.053 385.112 324.148ZM414.583 293.861C414.175 293.458 413.726 293.107 413.25 292.807L412.632 292.425L382.532 272.89C381.838 272.088 380.84 271.43 379.729 271.041C375.307 269.494 371.329 268.268 367.253 267.467L365.79 259.177C366.028 262.485 361.58 265.675 357.976 266.434C356.868 266.403 355.729 266.401 354.552 266.433C351.807 265.9 350.701 264.132 350.256 261.587C350.236 261.584 350.215 261.578 350.194 261.575L350.632 266.642C346.856 266.943 342.664 267.539 337.845 268.477C337.571 268.53 337.311 268.596 337.06 268.673C333.175 269.61 330.258 272.815 330.143 276.707C330.054 279.675 330.172 306.518 330.299 312.336C330.299 312.336 328.003 333.174 326.913 343.559C329.965 334.028 334.155 322.875 340.909 315.069C340.418 314.207 339.003 311.493 337.895 307.192C341.164 316.15 346.396 323.067 354.909 323.067C369.599 323.067 375.508 307.465 379.659 291.391L395.611 300.834L384.133 313.915C386.112 314.644 388.311 316.05 389.379 317.232C390.63 318.619 392.657 321.001 392.147 322.985L414.202 304.137C417.383 301.397 417.553 296.796 414.583 293.861Z" fill="#E37F44"/>
<path fill-rule="evenodd" clip-rule="evenodd" d="M384.039 234.463C381.248 238.736 375.43 240.285 370.651 238.185C371.023 240.487 370.793 242.871 369.931 245.123C369.532 243.645 368.48 242.514 367.061 242.265C364.913 241.889 364.379 243.759 364.117 245.048L363.727 246.939C362.707 245.917 362.083 244.589 361.725 243.321C361.72 243.304 361.716 243.286 361.711 243.27C361.541 242.657 361.437 242.062 361.378 241.519C361.373 241.469 361.37 241.422 361.365 241.374C361.345 241.168 361.336 240.972 361.329 240.787C361.327 240.728 361.326 240.668 361.326 240.612C361.324 240.397 361.327 240.194 361.342 240.016C361.006 240.016 360.652 240.013 360.29 240.007C360.259 240.007 360.23 240.007 360.199 240.007C359.848 240.001 359.484 239.992 359.114 239.981C359.067 239.98 359.023 239.98 358.975 239.978C358.61 239.966 358.235 239.951 357.853 239.93C357.801 239.927 357.746 239.926 357.692 239.923C357.31 239.901 356.923 239.876 356.532 239.846C356.478 239.841 356.424 239.837 356.37 239.832C355.974 239.801 355.575 239.763 355.172 239.718C355.124 239.713 355.077 239.707 355.028 239.701C354.617 239.655 354.204 239.6 353.792 239.539C353.757 239.534 353.723 239.528 353.689 239.524C353.262 239.457 352.834 239.384 352.409 239.301C352.399 239.298 352.389 239.296 352.379 239.295C351.502 239.12 350.637 238.903 349.805 238.635C349.786 238.629 349.766 238.625 349.747 238.617C349.349 238.489 348.959 238.346 348.579 238.193C348.545 238.179 348.51 238.165 348.478 238.152C348.106 238 347.745 237.833 347.396 237.654C347.357 237.634 347.32 237.616 347.282 237.596C346.938 237.416 346.605 237.221 346.284 237.014C346.25 236.99 346.214 236.967 346.178 236.943C345.86 236.731 345.553 236.505 345.264 236.261C345.237 236.238 345.211 236.214 345.183 236.19C344.891 235.94 344.615 235.675 344.359 235.391C344.343 235.374 344.33 235.356 344.315 235.338C343.778 234.734 343.327 234.053 342.981 233.283C342.787 232.85 342.625 232.391 342.501 231.9C347.408 225.595 356.793 224.045 363.758 228.263L366.196 224.53C369.168 219.982 375.572 218.518 380.499 221.26C385.425 224.005 387.011 229.914 384.039 234.463ZM122.58 280.681C122.611 280.681 122.643 280.678 122.674 280.67L126.609 279.801L131.963 277.85C132.175 277.772 132.28 277.551 132.195 277.356C132.112 277.161 131.87 277.061 131.66 277.141L126.362 279.077L122.483 279.928C122.262 279.976 122.125 280.182 122.178 280.387C122.222 280.563 122.392 280.681 122.58 280.681ZM104.634 285.583L111.632 285.648L111.159 286.407L104.628 286.345C104.4 286.344 104.217 286.17 104.219 285.96C104.222 285.752 104.406 285.583 104.631 285.583C104.633 285.583 104.633 285.583 104.634 285.583ZM121.869 284.466L125.747 283.615L131.047 281.679C131.259 281.599 131.499 281.697 131.582 281.893C131.665 282.089 131.562 282.31 131.348 282.387L125.995 284.34L122.059 285.208C122.028 285.216 121.996 285.219 121.965 285.219C121.777 285.219 121.608 285.101 121.564 284.927C121.51 284.72 121.647 284.514 121.869 284.466ZM372.928 287.407C373.05 287.227 373.308 287.178 373.497 287.291L379.739 290.986C379.93 291.1 379.987 291.335 379.863 291.513C379.785 291.625 379.651 291.687 379.516 291.687C379.439 291.687 379.361 291.668 379.292 291.627L373.052 287.932C372.861 287.818 372.804 287.584 372.928 287.407ZM114.459 260.356L115.697 272.955C115.39 273.166 115.137 273.427 114.943 273.722L113.636 260.425C113.617 260.216 113.783 260.029 114.01 260.011C114.212 259.993 114.439 260.147 114.459 260.356ZM121.141 257.668C121.038 256.995 121.547 256.446 122.276 256.437L156.529 256.059C157.258 256.051 157.932 256.59 158.033 257.262L164.327 298.821C164.43 299.493 163.921 300.044 163.192 300.053L128.941 300.431C128.212 300.438 127.538 299.899 127.435 299.228L125.888 289.006L125.927 288.673C126.705 288.363 127.501 288.048 127.502 288.046C127.641 288.003 127.778 287.946 127.907 287.876L132.089 284.999C134.797 283.082 133.056 281.331 131.784 281.628C132.526 281.238 133.139 280.905 133.366 280.758C134.115 280.268 135.291 279.527 134.86 278.249C134.633 277.579 134.043 277.293 133.399 277.207C134.578 276.444 134.622 275.266 134.382 274.815C133.947 273.991 133.423 273.914 132.368 274.033C131.313 274.152 125.565 274.77 125.548 274.773C125.371 274.785 125.193 274.807 125.017 274.851L124.398 275.026C124.181 274.886 123.95 274.767 123.713 274.655L123.669 274.362L124.623 273.743C126.111 273.648 128.572 273.482 129.98 273.35C132.092 273.149 132.74 271.847 132.753 271.255C132.771 270.34 132.006 270.256 131.003 269.982L124.398 269.178C123.876 269.125 123.366 269.184 122.908 269.328L121.141 257.668ZM143.042 214.92C145.175 215.035 144.849 222.496 144.849 222.496C144.794 223.365 144.004 223.981 143.125 223.976C145.121 228.255 147.858 231.581 150.321 233.647C150.974 234.236 151.7 234.757 152.489 235.193C152.747 235.338 153.013 235.472 153.283 235.598C154.099 235.976 154.968 236.268 155.882 236.463C156.187 236.527 156.495 236.583 156.808 236.625C157.121 236.669 157.439 236.7 157.761 236.72C158.168 236.746 158.571 236.752 158.969 236.74C160.167 236.702 161.323 236.497 162.411 236.151C164.223 235.573 165.844 234.596 167.143 233.326C167.663 232.82 168.131 232.265 168.539 231.672C169.558 230.185 170.203 228.451 170.34 226.575L170.844 219.664C169.614 223.545 167.441 224.599 161.851 224.599C153.755 224.599 148.847 223.16 147.346 215.584C150.566 213.408 147.664 209.216 150.525 205.645C153.274 206.489 158.392 206.504 161.452 206.215C165.386 205.845 167.374 205.488 168.957 204.54C169.792 205.693 170.451 206.983 170.871 208.396C171.167 209.392 171.318 210.418 171.357 211.425C171.362 211.368 171.372 211.309 171.377 211.253C172.047 202.688 164.416 197.02 155.828 197.02C147.24 197.02 140.277 202.782 140.277 211.253C140.277 212.812 140.411 214.31 140.633 215.755C141.321 215.189 142.158 214.873 143.042 214.92ZM161.307 226.978C163.809 226.978 166.911 226.037 166.911 228.193C166.911 229.135 166.443 229.997 165.662 230.67C164.409 231.751 162.261 230.928 162.245 229.345V229.317C162.245 229.309 162.246 229.303 162.246 229.294C162.246 229.294 160.37 229.308 160.37 229.317C160.37 229.326 160.37 229.335 160.37 229.345C160.356 230.928 158.206 231.751 156.955 230.67C156.174 229.997 155.706 229.135 155.706 228.193C155.706 226.037 158.806 226.978 161.307 226.978ZM251.053 247.57L250.402 247.573C250.147 247.574 249.903 247.574 249.663 247.574C247.343 247.574 245.577 247.489 242.409 246.513C242.193 246.447 242.077 246.231 242.148 246.031C242.222 245.831 242.457 245.725 242.67 245.79C246.037 246.826 247.673 246.82 250.4 246.811L251.051 246.808H251.053C251.279 246.808 251.465 246.98 251.465 247.189C251.464 247.4 251.279 247.57 251.053 247.57ZM240.619 259.16C240.619 259.371 240.434 259.541 240.206 259.541H235.017C234.789 259.541 234.605 259.371 234.605 259.16C234.605 258.951 234.789 258.779 235.017 258.779H240.206C240.434 258.779 240.619 258.951 240.619 259.16ZM264.281 249.768C264.26 249.965 264.08 250.113 263.87 250.113C263.857 250.113 263.844 250.113 263.831 250.111C260.125 249.791 253.344 249.438 251.563 249.348C251.601 249.872 251.637 250.518 251.651 251.204L262.301 251.817C262.529 251.831 262.702 252.012 262.687 252.221C262.674 252.423 262.493 252.578 262.276 252.578C262.268 252.578 262.26 252.578 262.25 252.578L251.659 251.968C251.656 252.486 251.638 253.002 251.596 253.49C253.171 253.648 257.024 253.424 259.683 253.016C259.903 252.978 260.12 253.123 260.157 253.329C260.195 253.537 260.043 253.732 259.818 253.767C257.675 254.097 254.856 254.303 252.922 254.303C252.362 254.303 251.883 254.285 251.509 254.247C251.457 254.586 251.389 254.896 251.302 255.161C251.247 255.324 251.082 255.431 250.906 255.431C250.865 255.431 250.824 255.425 250.785 255.414C250.568 255.353 250.446 255.139 250.511 254.939C251.149 253.02 250.643 248.259 250.638 248.213C250.615 248.003 250.782 247.815 251.007 247.796C251.222 247.767 251.438 247.927 251.459 248.136C251.464 248.169 251.48 248.335 251.503 248.582C253.1 248.661 260.107 249.023 263.907 249.353C264.136 249.374 264.302 249.557 264.281 249.768ZM390.204 345.506C390.204 352.94 383.197 421.371 380.021 451.987C380.008 451.986 378.012 462.068 377.997 462.068L343.286 461.217L350.763 392.673C350.768 392.673 350.771 392.676 350.774 392.676C350.779 392.676 350.782 392.676 350.787 392.676C351.011 392.676 351.192 392.512 351.2 392.307L352.976 339.466C352.979 339.371 352.944 339.28 352.877 339.207L346.499 332.339C346.349 332.18 346.088 332.162 345.917 332.296C345.744 332.435 345.724 332.676 345.871 332.834L352.144 339.59L350.373 392.283C350.368 392.457 350.492 392.601 350.663 392.652L330.191 452.002C330.151 451.992 326.127 461.502 326.083 461.502L287.377 458.948C296.483 430.158 321.529 361.039 325.499 348.082C328.66 337.766 333.051 324.152 340.908 315.072C340.389 314.158 338.826 311.164 337.698 306.402C336.463 301.188 335.559 292.806 338.275 282.482C338.329 282.277 338.551 282.156 338.774 282.202C338.996 282.251 339.131 282.457 339.078 282.661C336.403 292.827 337.283 301.075 338.495 306.203C339.808 311.762 341.779 314.959 341.798 314.99C341.849 315.072 341.859 315.162 341.842 315.248C344.483 319.205 347.879 322.013 352.257 322.821C351.87 320.933 351.485 319.147 351.115 317.44C348.941 307.379 347.37 300.11 349.285 289.275C350.72 281.139 354.394 275.572 354.968 274.741L354.584 266.621C354.575 266.412 354.751 266.232 354.979 266.223C355.208 266.219 355.4 266.379 355.41 266.589L355.8 274.83C355.803 274.91 355.778 274.991 355.729 275.059C355.687 275.114 351.622 280.779 350.099 289.399C348.21 300.096 349.769 307.31 351.926 317.292C352.304 319.038 352.699 320.862 353.092 322.796C353.103 322.848 353.1 322.901 353.089 322.951C353.679 323.023 354.283 323.07 354.909 323.07C364.102 323.07 369.855 316.955 373.892 308.442C376.452 309.787 378.743 311.518 380.677 313.545C379.225 313.825 378.442 314.525 378.442 314.525C377.097 315.424 374.794 317.121 374.319 317.426C372.022 318.905 373.941 320.954 375.934 319.948C377.363 319.229 378.247 319.054 380.176 318.175C380.098 318.026 380.124 317.844 380.264 317.726L381.664 316.559C381.833 316.416 382.094 316.43 382.248 316.586C382.399 316.743 382.386 316.984 382.217 317.124L380.817 318.292C380.737 318.357 380.639 318.39 380.54 318.39C380.437 318.39 380.336 318.351 380.258 318.279C378.482 319.992 378.927 320.018 377.023 321.76C374.906 323.696 377.141 325.947 379.026 324.547C379.077 324.508 379.141 324.461 379.198 324.419C379.065 324.265 379.074 324.044 379.232 323.907L384.637 319.175C384.802 319.031 385.063 319.038 385.221 319.19C385.376 319.343 385.37 319.584 385.205 319.729L379.798 324.461C379.718 324.53 379.617 324.565 379.514 324.565C379.45 324.565 379.387 324.547 379.328 324.52C378.721 325.899 380.273 327.17 381.745 326.227C382.223 325.921 382.819 325.551 383.474 325.147C383.411 324.994 383.455 324.815 383.605 324.709L387.516 321.974C387.697 321.847 387.957 321.877 388.095 322.047C388.232 322.214 388.196 322.454 388.014 322.58L384.102 325.318C384.029 325.369 383.941 325.394 383.853 325.394C383.84 325.394 383.828 325.388 383.815 325.387C383.28 326.527 384.554 327.703 385.836 326.996C386.21 326.79 386.963 326.469 387.807 326.102C389.84 332.358 390.204 338.849 390.204 345.506ZM208.894 265.806C209.041 265.969 209.016 266.208 208.842 266.344L192.447 278.913C192.371 278.972 192.278 279 192.185 279C192.066 279 191.948 278.954 191.867 278.863C191.72 278.701 191.744 278.461 191.921 278.326L208.313 265.757C208.486 265.624 208.749 265.645 208.894 265.806ZM183.093 389.016L184.584 458.355H165.154C161.383 446.805 152.629 414.042 156.903 393.578L149.274 342.744L149.385 333.436L156.118 331.778C156.338 331.724 156.469 331.515 156.41 331.312C156.351 331.108 156.128 330.989 155.905 331.042L148.87 332.774C148.69 332.819 148.566 332.966 148.563 333.138L148.377 348.719C148.374 348.929 148.556 349.103 148.785 349.104L146.271 458.355H126.088C124.641 450.4 121.911 435.136 120.601 426.076C118.773 413.412 121.482 390.522 121.482 390.522L118.851 344.757C118.411 336.359 118.522 326.454 119.176 317.42C119.619 317.723 120.123 317.959 120.678 318.11C139.013 323.085 157.728 325.248 176.822 324.599C176.983 324.593 177.133 324.577 177.277 324.554L183.093 389.016ZM120.335 293.64C118.714 293.339 117.163 292.448 116.563 291.47C116.45 291.288 116.52 291.055 116.719 290.951C116.917 290.846 117.168 290.91 117.282 291.094C117.696 291.768 118.934 292.603 120.498 292.893C121.508 293.081 122.992 293.101 124.351 292.134C124.532 292.006 124.791 292.036 124.93 292.204C125.069 292.371 125.035 292.61 124.855 292.738C123.752 293.521 122.586 293.757 121.585 293.757C121.126 293.757 120.704 293.709 120.335 293.64ZM186.274 258.761L184.708 272.196C184.685 272.392 184.507 272.537 184.299 272.537C184.282 272.537 184.269 272.535 184.253 272.534C184.026 272.513 183.863 272.324 183.888 272.114L185.453 258.679C185.476 258.469 185.678 258.325 185.907 258.341C186.134 258.362 186.297 258.551 186.274 258.761Z" fill="#293237"/>
</svg>