<svg width="884" height="987" viewBox="0 0 884 987" fill="none" xmlns="http://www.w3.org/2000/svg">
<path fill-rule="evenodd" clip-rule="evenodd" d="M572.174 754.717C569.201 752.904 566.786 751.383 564.918 750.158L506.085 776.793L519.141 782.756L575.751 756.998C574.634 756.293 573.441 755.532 572.174 754.717ZM526.739 722.827C529.793 724.224 532.209 725.536 533.998 726.77L579.214 706.26L566.033 700.307L521.49 720.636C523.13 721.217 524.874 721.95 526.739 722.827ZM620.297 724.927L571.171 747.271C577.496 748.961 582.222 750.74 585.353 752.615L633.362 730.793L620.297 724.927ZM593.169 712.66L510.882 750.069C512.443 750.946 514.231 751.999 516.238 753.224C518.4 754.628 520.259 755.887 521.82 756.998L549.175 744.553L549.07 744.463L606.339 718.527L593.169 712.66ZM612.367 681.906L587.36 693.208L600.314 699.082L624.764 688.04C619.705 685.588 615.568 683.543 612.367 681.906ZM574.966 608.836L614.713 590.872L601.543 584.912L564.028 601.996C568.049 603.748 571.696 606.028 574.966 608.836ZM575.751 635.379C576.195 635.21 576.527 635.058 576.755 634.942C576.904 634.88 577.05 634.825 577.198 634.77C580.478 633.369 584.387 632.698 588.921 632.75C593.318 632.867 597.111 633.6 600.314 634.942C600.609 635.058 600.872 635.175 601.09 635.292C601.169 635.292 601.204 635.319 601.204 635.379C604.554 636.961 606.272 638.823 606.339 640.987C606.339 643.203 604.665 645.079 601.315 646.599C600.942 646.709 600.574 646.833 600.201 646.947C597.076 648.174 593.432 648.729 589.263 648.612C584.568 648.557 580.513 647.79 577.085 646.331C577.085 646.272 577.05 646.217 576.98 646.162C573.554 644.579 571.845 642.684 571.845 640.467C571.766 638.482 573.073 636.783 575.751 635.379ZM556.431 655.621H556.326C565.257 659.823 576.014 662.014 588.592 662.193C601.09 662.371 611.74 660.466 620.525 656.498C629.228 652.466 633.546 647.584 633.467 641.861C633.467 641.342 633.397 640.843 633.248 640.378C632.507 635.292 628.043 630.854 619.851 627.056L619.964 626.966C614.234 624.223 607.684 622.3 600.314 621.189C596.37 620.717 592.201 620.431 587.807 620.314C584.09 620.253 580.548 620.397 577.198 620.752C569.166 621.45 562.056 623.202 555.874 626.009C547.168 629.98 542.85 634.736 542.928 640.288C542.85 640.405 542.85 640.492 542.928 640.547C542.998 646.331 547.5 651.357 556.431 655.621ZM700.178 653.78L714.637 647.208L701.572 641.252L670.765 655.36C671.183 655.49 671.611 655.642 672.046 655.8C665.417 657.093 659.337 658.996 653.791 661.494C649.543 663.397 646.08 665.458 643.41 667.668L619.964 678.313C621.525 678.84 623.2 679.456 624.988 680.154C628.408 681.496 631.349 682.755 633.808 683.918L636.816 682.563C637.426 686.137 639.477 689.437 642.958 692.462L614.383 705.475L627.553 711.435L654.234 699.251C659.311 701.49 664.86 703.228 670.87 704.467L641.622 717.741L654.576 723.702L691.752 706.789L691.638 706.748C692.936 706.775 694.237 706.789 695.544 706.789C711.848 706.789 725.733 704.222 737.196 699.082C748.726 693.879 754.5 687.6 754.5 680.243C754.5 679.593 754.456 678.95 754.386 678.313L768.787 671.741L755.833 665.875L749.082 668.941C746.267 666.264 742.34 663.793 737.298 661.536L741.879 659.475L728.595 653.608L722.226 656.498C715.492 654.929 708.14 654.025 700.178 653.78ZM464.88 758.134L522.047 732.286L521.933 732.197L525.51 730.534C524.095 729.602 522.491 728.522 520.702 727.29C518.47 725.769 516.647 724.517 515.235 723.525L451.824 752.26L464.88 758.134ZM492.017 770.489L511.328 761.816C509.47 760.529 507.611 758.983 505.744 757.167C504.48 755.997 503.398 754.889 502.508 753.842L478.949 764.527L492.017 770.489ZM459.523 731.498C456.769 729.63 454.648 728.137 453.157 727.029L424.696 739.994L437.752 745.867L463.763 734.127C462.351 733.367 460.938 732.492 459.523 731.498ZM494.92 719.93L494.806 719.841L552.078 693.994L539.022 688.04L459.523 724.141C461.233 724.723 463.17 725.421 465.332 726.241C468.606 727.466 471.325 728.604 473.481 729.657L494.92 719.93ZM483.973 697.937C483.302 697.527 482.639 697.089 481.968 696.622C479.211 694.584 476.795 692.51 474.709 690.408L396.67 725.893L409.624 731.759L466.782 705.823L466.669 705.74L483.973 697.937ZM226.07 588.855C224.734 586.753 223.616 584.74 222.718 582.81C217.215 585.321 211.782 587.833 206.417 590.345C208.877 592.154 211.555 594.959 214.458 598.758C219.152 596.597 223.87 594.433 228.64 592.276C227.89 591.339 227.036 590.203 226.07 588.855ZM204.41 598.93C203.146 597.061 202.064 595.049 201.174 592.885C195.663 595.513 190.157 598.087 184.646 600.599C186.808 603.461 189.189 606.376 191.797 609.362C196.777 607.082 201.801 604.748 206.869 602.353C205.971 601.297 205.151 600.162 204.41 598.93ZM191.345 554.773C190.227 552.376 189.372 550.452 188.78 548.987C179.925 552.964 171.213 556.962 162.656 560.995C164.068 564.15 165.597 567.449 167.237 570.891C175.791 566.868 184.497 562.863 193.358 558.892C192.608 557.667 191.946 556.291 191.345 554.773ZM157.851 550.39C162.621 548.291 167.339 546.099 172.033 543.821C171.441 542.944 170.916 541.863 170.472 540.583C169.127 537.425 168.272 535.202 167.899 533.922C163.213 536.079 158.487 538.302 153.725 540.583C154.989 543.793 156.369 547.063 157.851 550.39ZM214.904 512.366C200.836 518.679 186.878 525.072 173.037 531.554C173.787 532.779 174.598 534.325 175.496 536.2C176.535 538.009 177.466 539.644 178.286 541.103C191.537 534.852 204.821 528.754 218.14 522.791C217.478 521.566 216.842 520.163 216.246 518.59C215.654 515.844 215.199 513.769 214.904 512.366ZM273.519 546.976C283.123 542.71 292.76 538.419 302.443 534.094C300.725 530.712 299.015 527.522 297.306 524.543C287.109 529.102 276.982 533.654 266.934 538.213C269.691 540.959 271.879 543.88 273.519 546.976ZM241.481 524.722C226.216 531.669 211.108 538.564 196.15 545.401C197.79 546.86 199.307 548.728 200.731 551.006C201.472 552.179 202.064 553.369 202.51 554.601C211.073 550.624 219.631 546.653 228.188 542.683C233.848 540.054 239.578 537.48 245.387 534.969C244.637 533.922 244.01 532.608 243.488 531.025C242.449 528.397 241.778 526.297 241.481 524.722ZM262.137 547.235C260.564 544.84 259.494 542.978 258.89 541.63C229.122 555.066 200.24 568.237 172.261 581.147C174.116 584.534 176.054 587.717 178.061 590.696C198.157 581.351 218.289 572.002 238.464 562.657C247.316 558.803 256.101 554.915 264.812 551.006C263.914 549.898 263.024 548.639 262.137 547.235ZM260.462 491.687C247.062 497.649 233.699 503.694 220.372 509.826C221.27 510.996 222.353 512.599 223.616 514.646C224.655 516.336 225.475 517.767 226.07 518.938C238.648 513.332 251.336 507.727 264.141 502.112C263.4 500.77 262.729 499.135 262.137 497.212C261.317 494.7 260.757 492.859 260.462 491.687ZM277.209 484.151C273.554 485.788 269.872 487.395 266.149 488.971C267.718 491.483 269.428 494.789 271.287 498.874C274.782 497.177 278.359 495.54 282.006 493.967C280.445 490.64 278.84 487.368 277.209 484.151ZM287.03 504.569C273.781 510.353 260.643 516.22 247.622 522.182C250.665 525.331 252.751 528.344 253.866 531.204C266.522 525.599 279.249 519.959 292.054 514.296C290.265 510.964 288.591 507.727 287.03 504.569ZM378.362 367.975C365.104 373.752 351.97 379.625 338.945 385.581C341.997 388.737 344.083 391.75 345.201 394.61C357.848 389.005 370.581 383.365 383.386 377.695C381.598 374.37 379.923 371.126 378.362 367.975ZM342.522 364.82C352.124 360.556 361.755 356.265 371.436 351.937C369.726 348.55 368.007 345.368 366.298 342.389C356.104 346.948 345.986 351.5 335.937 356.059C338.683 358.804 340.883 361.719 342.522 364.82ZM356.034 322.415C342.773 328.192 329.638 334.065 316.617 340.021C319.669 343.176 321.755 346.187 322.87 349.05C335.517 343.444 348.253 337.802 361.058 332.135C359.269 328.808 357.595 325.563 356.034 322.415ZM267.161 464.177C225.921 482.523 184.984 501.21 144.348 520.252C146.058 523.579 147.584 526.824 148.917 529.979C169.241 520.513 189.714 511.106 210.324 501.764V501.592C230.648 492.357 251.266 483.07 272.185 473.725C270.169 470.453 268.494 467.27 267.161 464.177ZM247.062 408.539C267.161 399.196 287.292 389.847 307.468 380.502C316.32 376.649 325.104 372.761 333.808 368.852C332.918 367.744 332.028 366.484 331.129 365.081C329.568 362.685 328.486 360.817 327.894 359.475C298.117 372.912 269.244 386.08 241.253 398.99C243.111 402.379 245.049 405.562 247.062 408.539ZM282.677 418.179C281.559 415.782 280.705 413.851 280.104 412.395C271.252 416.37 262.546 420.368 253.979 424.4C255.395 427.556 256.92 430.855 258.56 434.299C267.117 430.267 275.829 426.269 284.684 422.298C283.943 421.066 283.269 419.697 282.677 418.179ZM292.054 414.412C292.795 415.578 293.396 416.775 293.842 418C302.4 414.03 310.954 410.059 319.52 406.089C325.171 403.46 330.913 400.886 336.713 398.374C335.972 397.328 335.333 396.014 334.82 394.431C333.773 391.803 333.101 389.703 332.804 388.128C317.551 395.075 302.443 401.969 287.473 408.8C289.113 410.265 290.642 412.134 292.054 414.412ZM161.2 398.99C154.283 402.317 148.439 406.842 143.677 412.571C138.767 418.293 135.52 424.634 133.959 431.581L133.288 431.499C130.907 442.71 132.955 452.76 139.429 461.637C142.09 465.367 145.273 468.516 148.978 471.097L150.933 472.411L156.628 475.129C159.009 476.237 161.609 477.114 164.445 477.758C164.888 477.813 165.334 477.902 165.778 478.019C173.445 479.537 181.227 479.367 189.113 477.497L189.008 477.41C193.393 476.416 197.79 474.746 202.178 472.411C212.967 466.805 220.678 458.947 225.291 448.844H225.51C229.451 439.554 230.055 430.443 227.298 421.504C224.246 412.688 218.592 405.734 210.324 400.655L210.884 400.215C206.496 397.534 201.88 395.691 197.04 394.699C193.769 393.877 190.376 393.412 186.878 393.296C178.251 393.117 169.877 394.905 161.758 398.642C161.688 398.697 161.609 398.759 161.539 398.814C161.393 398.876 161.244 398.901 161.095 398.901L161.2 398.99ZM236.229 388.737C244.786 384.704 253.501 380.709 262.353 376.738C261.612 375.506 260.941 374.137 260.349 372.616C259.231 370.221 258.376 368.291 257.775 366.832C248.92 370.81 240.217 374.808 231.651 378.84C233.063 381.995 234.589 385.295 236.229 388.737ZM271.511 372.44C280.069 368.469 288.626 364.499 297.192 360.528C302.843 357.9 308.582 355.326 314.382 352.814C313.641 351.768 313.005 350.453 312.492 348.871C311.444 346.242 310.773 344.14 310.476 342.567C295.22 349.514 280.104 356.407 265.145 363.24C266.785 364.705 268.311 366.574 269.723 368.852C270.467 370.015 271.068 371.213 271.511 372.44ZM323.654 538.653C325.889 541.513 328.305 544.437 330.913 547.414C335.298 545.367 339.686 543.354 344.083 541.369C343.491 540.611 342.966 539.734 342.522 538.74C340.804 534.71 339.651 532.285 339.059 531.465C333.843 533.86 328.713 536.255 323.654 538.653ZM486.651 689.093C488.971 690.243 491.421 691.702 494.021 693.474L523.95 679.893L515.462 676.032L545.379 662.451L524.507 653.033V631.786L557.548 616.809L557.443 616.719L565.362 613.127C563.503 612.366 561.35 611.375 558.891 610.15C556.361 609.039 554.275 608.075 552.635 607.253L516.909 623.463L485.204 608.657L481.408 610.409V595.692L504.183 605.939C509.767 608.451 515.348 608.451 520.93 605.939L554.199 590.696H554.31L560.338 588.067L560.233 587.978L585.686 576.416C586.304 576.128 586.864 575.835 587.36 575.539L806.748 674.986C813.596 677.963 814.039 680.852 808.09 683.657L534.888 807.458C528.93 810.087 522.57 809.856 515.792 806.76H515.576L270.283 695.665H270.055L266.373 693.824C216.658 668.941 180.486 637.632 157.851 599.894L68.3131 425.715C65.2613 419.58 66.6384 415.138 72.4415 412.395L279.327 318.733L303.33 329.595V307.87L345.872 288.594C351.672 285.965 356.174 287.683 359.383 293.762L403.535 379.449L358.823 399.599C356.731 400.6 355.614 401.585 355.474 402.585C355.474 402.702 355.474 402.817 355.474 402.933V413.538C354.802 412.661 354.131 411.697 353.46 410.641C351.899 408.246 350.817 406.377 350.225 405.035C320.445 418.472 291.573 431.643 263.584 444.553C265.443 447.94 267.377 451.123 269.393 454.102C289.489 444.757 309.621 435.408 329.796 426.063C338.423 422.305 346.978 418.527 355.474 414.715V451.651L353.014 449.98C353.834 448.407 353.904 446.742 353.242 444.99C352.571 442.765 350.896 441.137 348.217 440.083C345.46 438.973 342.592 438.822 339.616 439.644C336.565 440.404 334.219 441.863 332.588 444.024C331.015 446.126 330.607 448.317 331.357 450.596C332.098 452.815 333.808 454.484 336.495 455.592C337.236 455.764 337.907 455.97 338.502 456.204L339.503 490.812C337.942 491.284 336.6 491.954 335.482 492.831L311.374 482.578C311.672 481.467 311.593 480.359 311.147 479.251C310.257 476.97 308.538 475.273 306.009 474.165C303.255 473.116 300.349 472.94 297.306 473.636C294.251 474.458 291.94 475.917 290.379 478.019C288.74 480.242 288.293 482.461 289.034 484.677C289.857 486.958 291.608 488.62 294.286 489.676C296.964 490.784 299.835 490.956 302.887 490.203C305.189 489.559 307.126 488.531 308.687 487.137L331.914 497.123C331.392 498.581 331.392 500.099 331.914 501.675C332.725 503.953 334.479 505.618 337.157 506.671C339.765 507.779 342.592 507.93 345.644 507.111C348.775 506.412 351.147 504.974 352.789 502.817C354.429 500.656 354.802 498.403 353.904 496.069C353.163 493.85 351.488 492.215 348.88 491.16C347.911 490.757 346.91 490.489 345.872 490.372L344.973 455.943C346.613 455.592 348.025 455.031 349.221 454.28L355.474 458.571V500.715C355.474 500.832 355.474 500.949 355.474 501.066V523.847C351.917 525.489 348.375 527.124 344.868 528.754C346.429 530.911 348.55 534.039 351.226 538.124C352.641 537.46 354.053 536.803 355.474 536.152V549.605C350.216 552.096 345.008 554.553 339.844 556.962C342.887 559.886 345.942 562.801 348.994 565.725C351.147 564.711 353.312 563.706 355.474 562.705V578.695L352.789 577.463H352.9L330.458 567.305V567.388L323.934 564.457C323.541 564.081 323.15 563.719 322.756 563.362C322.549 563.451 322.347 563.541 322.146 563.623L315.386 560.557C310.703 558.51 306.088 558.51 301.545 560.557L249.069 584.303C246.986 585.232 245.869 586.226 245.72 587.279C245.72 587.334 245.72 587.424 245.72 587.54V597.835C230.23 604.941 215.234 611.963 200.731 618.911C203.774 621.773 206.825 624.633 209.88 627.495C221.848 621.942 233.787 616.378 245.72 610.807V624.825C237.154 628.83 228.78 632.785 220.599 636.693C224.098 639.556 227.447 642.45 230.648 645.367C235.68 642.91 240.704 640.472 245.72 638.056V652.205C244.448 652.841 243.182 653.485 241.927 654.128C243.199 655.136 244.465 656.127 245.72 657.114V661.794L234.443 666.921C231.844 668.032 230.464 669.174 230.315 670.338C230.169 670.633 230.125 670.926 230.204 671.215C230.648 672.323 232.06 673.404 234.443 674.459L298.98 703.551C304.562 706.056 310.143 706.056 315.727 703.551L321.866 700.744L361.058 718.357L435.52 684.534L417.046 676.211L425.358 652.814C425.551 652.724 425.735 652.637 425.916 652.555L445.682 643.485V652.294L424.025 662.103L485.318 689.703L486.651 689.093Z" fill="#F6FCFE"/>
<path fill-rule="evenodd" clip-rule="evenodd" d="M737.298 661.536L737.196 661.494C732.598 659.406 727.609 657.744 722.226 656.498L728.595 653.608L741.879 659.475L737.298 661.536ZM526.739 722.827C524.874 721.95 523.13 721.217 521.49 720.636L566.033 700.307L579.214 706.26L533.998 726.77C532.209 725.536 529.793 724.224 526.739 722.827ZM572.174 754.717C573.441 755.532 574.634 756.293 575.751 756.998L519.141 782.756L506.085 776.793L564.918 750.158C566.786 751.383 569.201 752.904 572.174 754.717ZM754.386 678.313C753.89 674.945 752.119 671.817 749.082 668.941L755.833 665.875L768.787 671.741L754.386 678.313ZM670.87 704.467C677.28 705.788 684.198 706.549 691.638 706.748L691.752 706.789L654.576 723.702L641.622 717.741L670.87 704.467ZM620.297 724.927L633.362 730.793L585.353 752.615C582.222 750.74 577.496 748.961 571.171 747.271L620.297 724.927ZM642.958 692.462C645.689 694.836 649.298 697.041 653.791 699.082C653.931 699.141 654.088 699.196 654.234 699.251L627.553 711.435L614.383 705.475L642.958 692.462ZM612.367 681.906C615.568 683.543 619.705 685.588 624.764 688.04L600.314 699.082L587.36 693.208L612.367 681.906ZM643.41 667.668C638.867 671.418 636.597 675.609 636.597 680.243C636.597 681.031 636.668 681.803 636.816 682.563L633.808 683.918C631.349 682.755 628.408 681.496 624.988 680.154C623.2 679.456 621.525 678.84 619.964 678.313L643.41 667.668ZM574.966 608.836C571.696 606.028 568.049 603.748 564.028 601.996L601.543 584.912L614.713 590.872L574.966 608.836ZM700.178 653.78C698.657 653.718 697.114 653.691 695.544 653.691C687.075 653.691 679.244 654.396 672.046 655.8C671.611 655.642 671.183 655.49 670.765 655.36L701.572 641.252L714.637 647.208L700.178 653.78ZM483.973 697.937L466.669 705.74L466.782 705.823L409.624 731.76L396.67 725.893L474.709 690.408C476.795 692.51 479.211 694.584 481.968 696.622C482.639 697.089 483.302 697.527 483.973 697.937ZM494.92 719.93L473.481 729.657C471.325 728.604 468.606 727.466 465.332 726.241C463.17 725.421 461.233 724.723 459.523 724.141L539.022 688.04L552.078 693.994L494.806 719.841L494.92 719.93ZM459.523 731.498C460.938 732.492 462.351 733.367 463.763 734.127L437.752 745.867L424.696 739.994L453.157 727.029C454.648 728.137 456.769 729.63 459.523 731.498ZM486.651 689.093L515.462 676.032L523.95 679.893L494.021 693.474C491.421 691.702 488.971 690.243 486.651 689.093ZM245.72 657.114C244.465 656.127 243.199 655.136 241.927 654.128C243.181 653.485 244.448 652.841 245.72 652.205V657.114ZM245.72 638.056C240.704 640.472 235.68 642.91 230.648 645.367C227.447 642.45 224.098 639.556 220.599 636.693C228.78 632.785 237.154 628.83 245.72 624.825V638.056ZM191.345 554.773C191.946 556.291 192.608 557.667 193.358 558.893C184.497 562.863 175.791 566.868 167.237 570.891C165.597 567.45 164.068 564.15 162.656 560.995C171.213 556.962 179.925 552.964 188.78 548.987C189.372 550.452 190.227 552.376 191.345 554.773ZM204.41 598.93C205.151 600.162 205.971 601.298 206.869 602.353C201.801 604.748 196.777 607.082 191.797 609.362C189.189 606.376 186.808 603.461 184.646 600.599C190.157 598.087 195.663 595.513 201.174 592.885C202.064 595.049 203.146 597.061 204.41 598.93ZM226.07 588.855C227.036 590.203 227.89 591.339 228.64 592.276C223.87 594.433 219.152 596.597 214.458 598.758C211.555 594.959 208.877 592.154 206.417 590.345C211.782 587.833 217.215 585.322 222.718 582.81C223.616 584.74 224.734 586.753 226.07 588.855ZM241.481 524.722C241.778 526.297 242.449 528.397 243.488 531.026C244.01 532.608 244.637 533.922 245.387 534.969C239.578 537.48 233.848 540.054 228.188 542.683C219.631 546.653 211.073 550.624 202.51 554.601C202.064 553.369 201.472 552.179 200.731 551.006C199.307 548.728 197.79 546.86 196.15 545.401C211.108 538.564 226.216 531.669 241.481 524.722ZM273.519 546.976C271.879 543.881 269.691 540.959 266.934 538.213C276.982 533.654 287.109 529.102 297.306 524.543C299.015 527.522 300.725 530.712 302.443 534.094C292.76 538.419 283.123 542.71 273.519 546.976ZM287.03 504.569C288.591 507.727 290.265 510.964 292.054 514.296C279.249 519.959 266.522 525.599 253.866 531.204C252.751 528.344 250.665 525.331 247.622 522.182C260.643 516.22 273.781 510.353 287.03 504.569ZM322.146 563.623C322.347 563.541 322.549 563.452 322.756 563.362C323.15 563.719 323.541 564.081 323.934 564.457L322.146 563.623ZM355.474 536.152C354.053 536.803 352.641 537.46 351.226 538.124C348.55 534.039 346.429 530.911 344.868 528.754C348.375 527.124 351.917 525.489 355.474 523.847V536.152ZM323.654 538.653C328.713 536.255 333.843 533.86 339.059 531.465C339.651 532.285 340.804 534.71 342.522 538.74C342.966 539.734 343.491 540.611 344.083 541.369C339.686 543.354 335.298 545.367 330.913 547.414C328.305 544.437 325.889 541.513 323.654 538.653ZM355.474 549.605V562.705C353.312 563.706 351.147 564.711 348.994 565.725C345.942 562.801 342.887 559.886 339.844 556.962C345.008 554.553 350.216 552.096 355.474 549.605ZM356.034 322.415C357.595 325.563 359.269 328.808 361.058 332.135C348.253 337.802 335.517 343.444 322.87 349.05C321.755 346.187 319.669 343.176 316.617 340.021C329.638 334.065 342.773 328.192 356.034 322.415ZM342.522 364.82C340.883 361.719 338.683 358.804 335.937 356.059C345.986 351.5 356.104 346.948 366.298 342.389C368.007 345.368 369.726 348.55 371.436 351.937C361.755 356.265 352.124 360.556 342.522 364.82ZM378.362 367.975C379.923 371.126 381.598 374.37 383.386 377.695C370.581 383.365 357.848 389.005 345.201 394.61C344.083 391.75 341.997 388.737 338.945 385.581C351.97 379.625 365.104 373.752 378.362 367.975ZM292.054 414.412C290.642 412.134 289.113 410.265 287.473 408.8C302.443 401.969 317.551 395.075 332.804 388.128C333.101 389.703 333.773 391.803 334.82 394.431C335.333 396.014 335.972 397.328 336.713 398.374C330.913 400.886 325.171 403.46 319.52 406.089C310.954 410.059 302.4 414.03 293.842 418C293.396 416.775 292.795 415.578 292.054 414.412ZM282.677 418.179C283.269 419.697 283.943 421.066 284.684 422.298C275.829 426.269 267.117 430.267 258.56 434.299C256.92 430.855 255.395 427.556 253.979 424.4C262.546 420.368 271.252 416.37 280.104 412.395C280.705 413.851 281.559 415.782 282.677 418.179ZM271.511 372.44C271.068 371.213 270.467 370.015 269.723 368.852C268.311 366.574 266.785 364.705 265.145 363.24C280.104 356.407 295.22 349.514 310.476 342.567C310.773 344.14 311.444 346.242 312.492 348.871C313.005 350.453 313.641 351.768 314.382 352.814C308.582 355.326 302.843 357.9 297.192 360.528C288.626 364.499 280.069 368.47 271.511 372.44ZM236.229 388.737C234.589 385.295 233.063 381.995 231.651 378.84C240.217 374.808 248.92 370.81 257.775 366.832C258.376 368.291 259.231 370.221 260.349 372.616C260.941 374.137 261.612 375.506 262.353 376.738C253.501 380.709 244.786 384.704 236.229 388.737Z" fill="#D6DFF3"/>
<path fill-rule="evenodd" clip-rule="evenodd" d="M593.169 712.66L606.339 718.526L549.07 744.463L549.175 744.552L521.82 756.998C520.259 755.887 518.4 754.628 516.238 753.224C514.231 751.999 512.443 750.946 510.882 750.069L593.169 712.66ZM619.851 627.055L601.204 635.379C601.204 635.319 601.169 635.292 601.091 635.292C600.872 635.175 600.609 635.058 600.314 634.942C597.111 633.6 593.318 632.867 588.921 632.75C584.387 632.698 580.478 633.368 577.198 634.77C577.05 634.825 576.904 634.88 576.755 634.942C576.527 635.058 576.195 635.209 575.751 635.379L555.874 626.009C562.056 623.202 569.166 621.45 577.198 620.752C580.548 620.397 584.09 620.252 587.807 620.314C592.201 620.431 596.37 620.717 600.314 621.189C607.684 622.299 614.234 624.223 619.964 626.966L619.851 627.055ZM492.017 770.489L478.949 764.526L502.508 753.842C503.398 754.889 504.48 755.997 505.744 757.167C507.611 758.983 509.47 760.528 511.328 761.815L492.017 770.489ZM245.72 597.835V610.807C233.787 616.378 221.848 621.942 209.88 627.495C206.825 624.633 203.774 621.773 200.731 618.911C215.234 611.963 230.23 604.94 245.72 597.835ZM524.507 631.786V626.966L485.09 645.106L445.682 626.966L481.408 610.409L485.204 608.657L516.909 623.463L552.635 607.253C554.275 608.075 556.361 609.039 558.891 610.15C561.35 611.375 563.503 612.366 565.362 613.127L557.443 616.719L557.548 616.809L524.507 631.786ZM247.062 408.539C245.049 405.562 243.111 402.379 241.253 398.99C269.244 386.08 298.117 372.912 327.894 359.475C328.486 360.817 329.568 362.685 331.129 365.08C332.028 366.484 332.918 367.744 333.808 368.852C325.104 372.761 316.32 376.649 307.468 380.502C287.292 389.847 267.161 399.196 247.062 408.539ZM133.959 431.581C133.959 431.757 133.994 431.902 134.073 432.019L180.521 436.229L180.634 436.317L145.909 468.557C146.887 469.468 147.908 470.318 148.978 471.096C145.273 468.516 142.09 465.367 139.429 461.637C132.955 452.76 130.907 442.71 133.288 431.499L133.959 431.581ZM182.691 434.127L210.324 400.655C218.592 405.734 224.246 412.688 227.298 421.504C230.055 430.443 229.451 439.554 225.51 448.844H225.291L181.192 437.455V436.229L180.85 436.14H181.078V435.879L181.192 436.14L181.297 435.879L182.691 434.127ZM211.893 273.52C212.34 273.699 212.783 273.843 213.23 273.957L213.673 274.136C218.07 276.293 220.267 280.181 220.267 285.787C220.267 291.687 217.921 297.758 213.23 304.016H213.116L195.984 296.478H195.922L196.036 296.391V275.622L195.922 275.361C202.099 272.616 207.429 272 211.893 273.52ZM645.75 185.465L569.829 234.27L554.31 226.911L630.231 178.017L645.75 185.465ZM504.854 458.66L573.012 266.511L574.8 261.522L580.434 245.571L593.388 251.705L593.616 251.794L594.392 252.493L562.683 341.335H562.911L515.906 472.94L503.398 462.684L504.854 458.66Z" fill="#EE6F19"/>
<path fill-rule="evenodd" clip-rule="evenodd" d="M464.88 758.133L451.824 752.26L515.235 723.525C516.647 724.517 518.47 725.769 520.702 727.29C522.491 728.522 524.095 729.602 525.51 730.534L521.934 732.197L522.047 732.286L464.88 758.133ZM262.137 547.235C263.024 548.639 263.914 549.898 264.813 551.006C256.101 554.915 247.316 558.803 238.464 562.657C218.289 572.002 198.157 581.351 178.061 590.696C176.054 587.717 174.116 584.534 172.261 581.147C200.241 568.237 229.122 555.066 258.89 541.63C259.494 542.978 260.565 544.84 262.137 547.235ZM355.474 413.538V414.714C346.978 418.527 338.423 422.305 329.796 426.063C309.621 435.408 289.489 444.757 269.393 454.102C267.377 451.122 265.443 447.94 263.584 444.553C291.573 431.643 320.445 418.472 350.225 405.035C350.817 406.377 351.9 408.246 353.46 410.641C354.131 411.697 354.803 412.661 355.474 413.538Z" fill="#9CC1E9"/>
<path fill-rule="evenodd" clip-rule="evenodd" d="M267.161 464.177C268.494 467.27 270.169 470.453 272.185 473.725C251.266 483.07 230.648 492.357 210.324 501.592V501.764C189.714 511.106 169.241 520.513 148.917 529.979C147.584 526.824 146.058 523.579 144.348 520.252C184.984 501.21 225.921 482.523 267.161 464.177Z" fill="#959595"/>
<path fill-rule="evenodd" clip-rule="evenodd" d="M214.904 512.366C215.199 513.769 215.654 515.844 216.246 518.59C216.842 520.163 217.478 521.566 218.14 522.791C204.821 528.754 191.537 534.852 178.286 541.103C177.466 539.644 176.535 538.009 175.496 536.2C174.598 534.325 173.787 532.779 173.037 531.554C186.878 525.072 200.836 518.679 214.904 512.366ZM157.851 550.39C156.369 547.063 154.989 543.793 153.725 540.583C158.487 538.303 163.213 536.079 167.899 533.922C168.272 535.202 169.127 537.426 170.472 540.583C170.916 541.863 171.441 542.944 172.033 543.821C167.339 546.099 162.621 548.291 157.851 550.39ZM277.209 484.151C278.84 487.368 280.445 490.64 282.006 493.967C278.359 495.54 274.782 497.177 271.287 498.874C269.428 494.789 267.718 491.483 266.149 488.971C269.872 487.395 273.554 485.788 277.209 484.151ZM260.462 491.687C260.757 492.859 261.317 494.7 262.137 497.212C262.729 499.135 263.4 500.77 264.141 502.112C251.336 507.727 238.648 513.332 226.07 518.938C225.475 517.767 224.655 516.336 223.616 514.646C222.353 512.599 221.27 510.997 220.372 509.826C233.699 503.694 247.062 497.649 260.462 491.687Z" fill="#CDCCCA"/>
<path fill-rule="evenodd" clip-rule="evenodd" d="M355.473 451.651V458.571L349.221 454.28C348.025 455.031 346.613 455.592 344.973 455.943L345.872 490.372C346.91 490.489 347.911 490.757 348.88 491.16C351.488 492.215 353.163 493.85 353.904 496.069C354.802 498.402 354.429 500.656 352.789 502.817C351.147 504.974 348.775 506.412 345.644 507.111C342.592 507.93 339.765 507.779 337.157 506.671C334.479 505.618 332.725 503.953 331.914 501.675C331.392 500.099 331.392 498.581 331.914 497.122L308.687 487.137C307.126 488.531 305.189 489.559 302.887 490.203C299.835 490.956 296.964 490.784 294.286 489.676C291.608 488.62 289.857 486.958 289.034 484.677C288.293 482.461 288.74 480.242 290.379 478.019C291.94 475.917 294.251 474.458 297.306 473.636C300.349 472.94 303.255 473.116 306.009 474.165C308.538 475.273 310.257 476.97 311.147 479.25C311.593 480.359 311.672 481.467 311.374 482.578L335.482 492.831C336.6 491.954 337.942 491.283 339.503 490.812L338.502 456.204C337.907 455.97 337.236 455.764 336.495 455.592C333.807 454.484 332.098 452.815 331.357 450.596C330.607 448.317 331.015 446.126 332.588 444.024C334.219 441.862 336.565 440.404 339.616 439.644C342.592 438.822 345.46 438.973 348.217 440.083C350.896 441.137 352.57 442.765 353.242 444.99C353.904 446.742 353.834 448.407 353.014 449.98L355.473 451.651Z" fill="#EF277B"/>
<path fill-rule="evenodd" clip-rule="evenodd" d="M232.55 294.11L281.673 272.206V265.545L232.55 287.538V294.11ZM312.378 239.7L232.88 275.361V282.022L312.378 246.269V239.7ZM312.378 226.295L232.88 261.959V268.702L312.378 232.867V226.295ZM213.23 273.958L211.998 273.431L211.893 273.52C207.429 272 202.099 272.616 195.922 275.361L196.036 275.622C189.565 278.544 183.984 283.041 179.289 289.121C174.598 295.308 172.296 301.325 172.363 307.164C172.296 312.832 174.414 316.72 178.732 318.822C178.96 318.877 179.176 318.966 179.403 319.081L179.517 318.991C184.13 320.807 189.714 320.306 196.264 317.507C202.884 314.583 208.5 310.086 213.116 304.016H213.23C217.921 297.758 220.267 291.688 220.267 285.787C220.267 280.181 218.07 276.293 213.673 274.136L213.23 273.958ZM303.33 307.87V329.595L279.327 318.733L259.117 309.532L168.684 350.453C165.562 351.848 163.213 352.26 161.652 351.678C161.504 351.617 161.393 351.562 161.314 351.5C159.753 350.74 158.965 348.96 158.965 346.153V278.606C158.965 272.76 162.213 268.38 168.684 265.465L321.422 196.246C324.597 194.794 326.995 194.412 328.617 195.103H328.783C330.353 195.864 331.129 197.705 331.129 200.626V268.174C331.129 273.958 327.894 278.34 321.422 281.317L303.33 289.469V307.87Z" fill="#FBD01C"/>
<path fill-rule="evenodd" clip-rule="evenodd" d="M328.617 195.103C326.995 194.412 324.597 194.794 321.422 196.246L168.684 265.465C162.213 268.38 158.965 272.76 158.965 278.606V346.153C158.965 348.96 159.753 350.739 161.314 351.5L150.592 346.769H150.49C148.917 346.011 148.141 344.168 148.141 341.253V273.699C148.141 267.915 151.377 263.534 157.851 260.555L310.589 191.426C313.79 189.963 316.206 189.585 317.845 190.283L328.617 195.103Z" fill="#F25C19"/>
<path d="M211.599 273.829L212.897 274.418L213.515 273.568L212.226 272.98L211.599 273.829Z" fill="#0A2F53"/>
<path fill-rule="evenodd" clip-rule="evenodd" d="M620.525 656.498L600.201 646.947C600.574 646.833 600.942 646.709 601.315 646.599C604.665 645.079 606.339 643.203 606.339 640.987C606.272 638.823 604.554 636.961 601.204 635.379L619.851 627.055C628.043 630.854 632.507 635.292 633.248 640.378C633.397 640.842 633.467 641.342 633.467 641.861C633.546 647.584 629.228 652.465 620.525 656.498ZM161.2 398.99L180.52 436.23L134.073 432.019C133.994 431.902 133.959 431.758 133.959 431.581C135.52 424.634 138.767 418.293 143.677 412.571C148.439 406.842 154.283 402.317 161.2 398.99ZM189.008 477.409L181.192 437.455L225.291 448.844C220.678 458.947 212.967 466.805 202.178 472.411C197.79 474.746 193.393 476.416 189.008 477.409ZM195.984 296.478L179.065 318.822C179.21 318.877 179.368 318.939 179.517 318.991L179.403 319.081C179.175 318.966 178.96 318.877 178.732 318.822C174.414 316.72 172.296 312.832 172.363 307.164C172.296 301.325 174.598 295.308 179.289 289.121C183.984 283.041 189.565 278.544 196.036 275.622V296.391L195.922 296.478H195.984Z" fill="#97BCE7"/>
<path fill-rule="evenodd" clip-rule="evenodd" d="M312.378 226.295V232.867L232.88 268.702V261.959L312.378 226.295ZM312.378 239.7V246.269L232.88 282.022V275.361L312.378 239.7ZM232.55 294.11V287.538L281.673 265.545V272.206L232.55 294.11ZM213.116 304.016C208.5 310.086 202.884 314.583 196.264 317.508C189.714 320.306 184.13 320.807 179.517 318.991C179.368 318.939 179.211 318.877 179.065 318.822L195.984 296.478L213.116 304.016Z" fill="white"/>
<path fill-rule="evenodd" clip-rule="evenodd" d="M577.085 646.331L556.431 655.621C547.5 651.357 542.998 646.331 542.928 640.547C542.85 640.492 542.85 640.405 542.928 640.288C542.85 634.736 547.168 629.98 555.874 626.009L575.751 635.379C573.073 636.783 571.766 638.482 571.845 640.467C571.845 642.684 573.554 644.579 576.98 646.162C577.05 646.217 577.085 646.272 577.085 646.331ZM181.192 437.455L189.008 477.41L189.113 477.497C181.227 479.367 173.445 479.537 165.778 478.019C165.334 477.902 164.888 477.813 164.445 477.758C161.609 477.114 159.009 476.237 156.628 475.129L150.933 472.411L148.978 471.097C147.908 470.318 146.887 469.469 145.909 468.557L180.634 436.317L180.964 435.879L181.078 436.14H180.85L181.192 436.317V437.455Z" fill="#968BCD"/>
<path fill-rule="evenodd" clip-rule="evenodd" d="M556.431 655.621L577.085 646.331C580.513 647.79 584.568 648.557 589.263 648.612C593.432 648.729 597.076 648.174 600.201 646.947L620.524 656.498C611.74 660.466 601.09 662.371 588.592 662.193C576.014 662.014 565.257 659.823 556.326 655.621H556.431ZM210.324 400.655L182.691 434.128L181.297 435.79L181.078 435.879V436.14L180.964 435.879L180.634 436.317L180.52 436.23L161.2 398.99L161.095 398.901C161.244 398.901 161.393 398.876 161.539 398.814C161.609 398.759 161.687 398.697 161.758 398.642C169.877 394.905 178.251 393.117 186.878 393.296C190.376 393.412 193.769 393.877 197.04 394.699C201.88 395.691 206.496 397.534 210.884 400.215L210.324 400.655Z" fill="#FBC907"/>
<path d="M180.675 435.712L182.557 436.22L183.313 434.295L181.431 433.786L180.675 435.712Z" fill="url(#paint0_linear_156_62)"/>
<path fill-rule="evenodd" clip-rule="evenodd" d="M181.192 436.317L180.85 436.14L181.192 436.23V436.317ZM181.297 435.879L181.192 436.14L181.078 435.879L181.297 435.79V435.879Z" fill="#FAC009"/>
<path fill-rule="evenodd" clip-rule="evenodd" d="M691.638 706.748C684.198 706.548 677.28 705.788 670.87 704.467C664.86 703.228 659.311 701.49 654.234 699.251C654.088 699.196 653.931 699.141 653.791 699.081C649.298 697.041 645.689 694.836 642.958 692.462C639.477 689.437 637.426 686.137 636.816 682.563C636.667 681.803 636.597 681.031 636.597 680.243C636.597 675.609 638.867 671.418 643.41 667.668C646.08 665.458 649.543 663.397 653.791 661.494C659.337 658.996 665.417 657.093 672.046 655.799C679.244 654.396 687.075 653.691 695.544 653.691C697.114 653.691 698.657 653.718 700.177 653.78C708.14 654.025 715.492 654.929 722.226 656.498C727.609 657.743 732.598 659.406 737.196 661.494L737.298 661.535C742.339 663.793 746.267 666.264 749.082 668.941C752.119 671.817 753.89 674.945 754.386 678.313C754.456 678.949 754.5 679.593 754.5 680.243C754.5 687.6 748.726 693.879 737.196 699.081C725.733 704.222 711.848 706.789 695.544 706.789C694.237 706.789 692.936 706.775 691.638 706.748ZM245.72 661.794V670.255C245.72 671.366 246.837 672.446 249.069 673.493L302.102 697.238C306.403 699.285 310.703 699.416 315.004 697.637L321.866 700.744L315.727 703.551C310.143 706.056 304.562 706.056 298.98 703.551L234.443 674.459C232.06 673.404 230.648 672.323 230.204 671.214C230.125 670.926 230.169 670.633 230.315 670.337C230.464 669.174 231.844 668.032 234.443 666.921L245.72 661.794ZM445.682 643.485L425.916 652.555C425.735 652.637 425.551 652.724 425.358 652.814L428.098 645.106L445.682 637.133V643.485ZM574.8 261.522L573.012 266.511C572.959 266.545 572.907 266.573 572.845 266.6L520.259 290.435C515.722 292.475 511.179 292.503 506.642 290.517L479.395 278.169H479.29L474.596 275.977L474.709 275.888L453.714 266.511C451.5 265.472 450.383 264.567 450.365 263.793V263.534C450.365 263.418 450.365 263.301 450.365 263.184C450.523 262.193 451.64 261.226 453.714 260.29L506.19 236.462C510.733 234.477 515.348 234.477 520.04 236.462L535.112 243.382V243.292L557.659 253.457H557.548L572.845 260.555C573.621 260.885 574.278 261.206 574.8 261.522ZM587.36 575.539C586.864 575.835 586.304 576.128 585.686 576.416L560.233 587.978L560.338 588.067L554.31 590.696H554.199L520.93 605.939C515.348 608.451 509.767 608.451 504.183 605.939L481.408 595.692V588.374L506.747 599.724C511.293 601.879 515.836 601.913 520.373 599.807L572.959 576.066C575.637 574.834 576.72 573.643 576.195 572.473L576.308 566.163L576.195 566.252C576.343 565.901 576.343 565.581 576.195 565.286V564.498L585.686 568.791C588.591 570.14 590.004 571.454 589.925 572.734C589.872 573.643 589.017 574.575 587.36 575.539Z" fill="#0A2F53"/>
<path d="M450.365 263.793V458.661H576.309V263.793H450.365Z" fill="url(#paint1_linear_156_62)"/>
<path d="M481.408 414.195V601.913H576.72V414.195H481.408Z" fill="url(#paint2_linear_156_62)"/>
<path fill-rule="evenodd" clip-rule="evenodd" d="M355.474 403.284V402.933C355.474 402.817 355.474 402.702 355.474 402.585C355.614 401.585 356.731 400.6 358.823 399.599L403.535 379.449L411.299 375.943C415.903 373.841 420.527 373.841 425.14 375.943L440.317 382.781V382.694L450.365 387.253L462.762 392.858H462.648L477.945 399.867C480.031 400.799 481.184 401.708 481.408 402.585C481.408 402.64 481.408 402.73 481.408 402.844C481.478 402.961 481.522 403.105 481.522 403.284V403.373L481.408 403.46C481.035 404.275 479.882 405.125 477.945 405.999L447.967 419.622L434.631 413.27L429.326 428.075L425.472 429.827C420.927 431.874 416.358 431.902 411.742 429.917L384.609 417.481H384.503L379.695 415.372L379.809 415.289L358.823 405.912C356.6 404.871 355.482 403.996 355.474 403.284Z" fill="#E2DCF1"/>
<path d="M355.474 521.088V645.106H481.408V521.088H355.474Z" fill="url(#paint3_linear_156_62)"/>
<path d="M245.72 587.895V699.416H354.245V587.895H245.72Z" fill="url(#paint4_linear_156_62)"/>
<path fill-rule="evenodd" clip-rule="evenodd" d="M354.245 596.917L315.613 614.441C311.068 616.488 306.534 616.516 301.988 614.53L274.861 602.174H274.636L269.95 599.983V599.894L249.069 590.606C246.855 589.512 245.737 588.6 245.72 587.895V587.54C245.72 587.424 245.72 587.334 245.72 587.279C245.869 586.226 246.986 585.232 249.069 584.303L301.545 560.557C306.088 558.51 310.703 558.51 315.386 560.557L322.146 563.623L323.934 564.457L330.458 567.388V567.305L352.9 577.463H352.789L355.474 578.695L368.2 584.472C369.256 584.953 370.059 585.418 370.598 585.876L359.94 581.058L354.636 596.26L354.464 596.301L354.245 596.917Z" fill="#FAE146"/>
<path fill-rule="evenodd" clip-rule="evenodd" d="M486.651 689.093L485.318 689.702L424.025 662.103L445.682 652.294V661.842L485.09 680.065H485.204L524.507 661.842V653.033L545.379 662.451L515.462 676.032L486.651 689.093ZM321.866 700.744L315.004 697.637C315.237 697.54 315.482 697.437 315.727 697.327L319.406 695.665L318.849 697.238L336.153 689.441L331.803 701.621L351.672 710.819H357.708L413.863 685.15L417.046 676.211L435.52 684.534L361.058 718.357L321.866 700.744Z" fill="#D2E1F5"/>
<path d="M355.474 403.284V538.254H481.574V403.284H355.474Z" fill="url(#paint5_linear_156_62)"/>
<path fill-rule="evenodd" clip-rule="evenodd" d="M372.22 588.284L354.636 596.26L359.94 581.058L370.598 585.876L372.719 586.842L372.22 588.284Z" fill="#FBC508"/>
<path fill-rule="evenodd" clip-rule="evenodd" d="M319.406 695.665L354.245 596.917L354.464 596.301L354.636 596.26L372.221 588.284L336.153 689.441L318.849 697.238L319.406 695.665Z" fill="#DE7C18"/>
<path fill-rule="evenodd" clip-rule="evenodd" d="M454.386 422.649V422.736L456.848 431.758L357.708 710.819H351.672L454.17 422.559H454.275C454.353 422.559 454.386 422.587 454.386 422.649ZM519.255 480.208L515.906 472.94L562.911 341.335H562.683L594.392 252.493L598.969 255.907L568.606 341.335H568.711L519.255 480.208ZM650.999 188.71L575.08 237.598L569.942 234.36L569.829 234.271L645.75 185.466L650.999 188.71Z" fill="#F79AD2"/>
<path fill-rule="evenodd" clip-rule="evenodd" d="M445.682 637.133V626.966L485.09 645.106L485.204 680.065H485.09L445.682 661.842V637.133ZM530.864 541.978L511.328 532.608L481.408 508.423L477.72 505.446L479.62 500.099L530.864 541.978ZM515.906 472.94L519.255 480.208L456.848 431.758L454.386 422.736V422.649L481.408 444.722L490.785 452.348L503.398 462.684L515.906 472.94ZM575.08 237.598L593.388 251.705L580.434 245.571L554.31 226.911L569.829 234.271L569.942 234.36L575.08 237.598ZM623.646 281.056L625.207 276.497L650.885 296.391L633.808 288.326L623.646 281.056Z" fill="#B2164D"/>
<path fill-rule="evenodd" clip-rule="evenodd" d="M524.507 631.786V661.842L485.204 680.065L485.09 645.106L524.507 626.966V631.786ZM593.388 251.705L575.08 237.598L650.999 188.71V296.478L650.885 296.391L625.207 276.497L623.646 281.056L576.308 414.195L576.195 414.495L567.769 438.24L530.864 541.978L479.62 500.099L477.72 505.446L469.624 528.179L428.098 645.106L425.358 652.814L417.046 676.211L413.863 685.15L357.708 710.819L456.848 431.758L519.255 480.208L568.711 341.335H568.606L598.969 255.907L594.392 252.493L593.616 251.794L593.388 251.705Z" fill="#EE6F19"/>
<path fill-rule="evenodd" clip-rule="evenodd" d="M351.672 710.819L331.803 701.621L336.153 689.441L372.22 588.284L372.719 586.842L390.024 538.254L429.326 428.076L434.631 413.27L447.967 419.622L454.17 422.559L351.672 710.819Z" fill="#EE6F19"/>
<defs>
<linearGradient id="paint0_linear_156_62" x1="181.605" y1="435.963" x2="182.141" y2="433.978" gradientUnits="userSpaceOnUse">
<stop stop-color="#A73020"/>
<stop offset="0.5" stop-color="#A73020"/>
<stop offset="1" stop-color="#A72F20"/>
</linearGradient>
<linearGradient id="paint1_linear_156_62" x1="450.366" y1="361.227" x2="576.309" y2="361.227" gradientUnits="userSpaceOnUse">
<stop stop-color="#0A2F53"/>
<stop offset="0.25" stop-color="#628DD0"/>
<stop offset="0.3125" stop-color="#628DD0"/>
<stop offset="0.34375" stop-color="#628DD0"/>
<stop offset="0.347656" stop-color="#638DD1"/>
<stop offset="0.351563" stop-color="#648ED1"/>
<stop offset="0.355469" stop-color="#658FD2"/>
<stop offset="0.359375" stop-color="#6590D2"/>
<stop offset="0.367188" stop-color="#6691D2"/>
<stop offset="0.371094" stop-color="#6792D3"/>
<stop offset="0.375" stop-color="#6893D4"/>
<stop offset="0.378906" stop-color="#6993D4"/>
<stop offset="0.382812" stop-color="#6A94D4"/>
<stop offset="0.386719" stop-color="#6B95D4"/>
<stop offset="0.390625" stop-color="#6D96D5"/>
<stop offset="0.394531" stop-color="#6E97D6"/>
<stop offset="0.398437" stop-color="#6F98D6"/>
<stop offset="0.402344" stop-color="#6F99D7"/>
<stop offset="0.40625" stop-color="#709AD7"/>
<stop offset="0.410156" stop-color="#719BD8"/>
<stop offset="0.414063" stop-color="#719BD8"/>
<stop offset="0.417969" stop-color="#729DD9"/>
<stop offset="0.421875" stop-color="#739ED9"/>
<stop offset="0.425781" stop-color="#749FDA"/>
<stop offset="0.429688" stop-color="#759FDA"/>
<stop offset="0.433594" stop-color="#76A0DA"/>
<stop offset="0.4375" stop-color="#77A1DB"/>
<stop offset="0.441406" stop-color="#78A2DC"/>
<stop offset="0.445312" stop-color="#78A3DC"/>
<stop offset="0.449219" stop-color="#79A5DD"/>
<stop offset="0.453125" stop-color="#7AA6DD"/>
<stop offset="0.457031" stop-color="#7BA7DE"/>
<stop offset="0.460937" stop-color="#7DA8DE"/>
<stop offset="0.464844" stop-color="#7EA9DF"/>
<stop offset="0.46875" stop-color="#7FAADF"/>
<stop offset="0.472656" stop-color="#80ABDF"/>
<stop offset="0.476563" stop-color="#82ACE0"/>
<stop offset="0.480469" stop-color="#83ADE0"/>
<stop offset="0.484375" stop-color="#84ADE1"/>
<stop offset="0.488281" stop-color="#85AEE1"/>
<stop offset="0.492188" stop-color="#85AFE1"/>
<stop offset="0.496094" stop-color="#87B0E1"/>
<stop offset="0.5" stop-color="#88B1E2"/>
<stop offset="0.503906" stop-color="#89B2E2"/>
<stop offset="0.507812" stop-color="#8AB3E3"/>
<stop offset="0.511719" stop-color="#8BB3E3"/>
<stop offset="0.515625" stop-color="#8CB4E4"/>
<stop offset="0.519531" stop-color="#8DB5E4"/>
<stop offset="0.523438" stop-color="#8EB6E4"/>
<stop offset="0.527344" stop-color="#8FB7E5"/>
<stop offset="0.53125" stop-color="#90B7E5"/>
<stop offset="0.535156" stop-color="#91B8E5"/>
<stop offset="0.539062" stop-color="#92B9E6"/>
<stop offset="0.542969" stop-color="#93BAE6"/>
<stop offset="0.546875" stop-color="#94BBE6"/>
<stop offset="0.550781" stop-color="#95BBE7"/>
<stop offset="0.554688" stop-color="#96BCE7"/>
<stop offset="0.558594" stop-color="#97BDE7"/>
<stop offset="0.5625" stop-color="#98BEE8"/>
<stop offset="0.566406" stop-color="#99BEE8"/>
<stop offset="0.570312" stop-color="#9ABFE8"/>
<stop offset="0.574219" stop-color="#9BC0E9"/>
<stop offset="0.578125" stop-color="#9CC1E9"/>
<stop offset="0.59375" stop-color="#9CC1E9"/>
<stop offset="0.625" stop-color="#9CC1E9"/>
<stop offset="0.75" stop-color="#9CC1E9"/>
<stop offset="1" stop-color="#9CC1E9"/>
</linearGradient>
<linearGradient id="paint2_linear_156_62" x1="481.409" y1="507.777" x2="576.719" y2="507.777" gradientUnits="userSpaceOnUse">
<stop stop-color="#628DD0"/>
<stop offset="0.125" stop-color="#628DD0"/>
<stop offset="0.128906" stop-color="#628DD0"/>
<stop offset="0.132812" stop-color="#638DD0"/>
<stop offset="0.140625" stop-color="#638ED1"/>
<stop offset="0.144531" stop-color="#648FD2"/>
<stop offset="0.148438" stop-color="#6590D2"/>
<stop offset="0.152344" stop-color="#6691D2"/>
<stop offset="0.15625" stop-color="#6691D3"/>
<stop offset="0.164062" stop-color="#6792D3"/>
<stop offset="0.167969" stop-color="#6893D3"/>
<stop offset="0.171875" stop-color="#6993D4"/>
<stop offset="0.175781" stop-color="#6A93D4"/>
<stop offset="0.179688" stop-color="#6A94D4"/>
<stop offset="0.183594" stop-color="#6B95D4"/>
<stop offset="0.1875" stop-color="#6C96D5"/>
<stop offset="0.191406" stop-color="#6D97D5"/>
<stop offset="0.195312" stop-color="#6E97D6"/>
<stop offset="0.199219" stop-color="#6E98D6"/>
<stop offset="0.203125" stop-color="#6F98D6"/>
<stop offset="0.207031" stop-color="#7099D7"/>
<stop offset="0.210938" stop-color="#709AD7"/>
<stop offset="0.214844" stop-color="#709BD7"/>
<stop offset="0.21875" stop-color="#719BD8"/>
<stop offset="0.222656" stop-color="#719CD8"/>
<stop offset="0.226562" stop-color="#729CD8"/>
<stop offset="0.230469" stop-color="#739DD9"/>
<stop offset="0.234375" stop-color="#739EDA"/>
<stop offset="0.238281" stop-color="#749FDA"/>
<stop offset="0.242188" stop-color="#759FDA"/>
<stop offset="0.246094" stop-color="#76A0DB"/>
<stop offset="0.25" stop-color="#76A1DB"/>
<stop offset="0.253906" stop-color="#77A1DB"/>
<stop offset="0.257812" stop-color="#78A2DB"/>
<stop offset="0.261719" stop-color="#79A3DC"/>
<stop offset="0.265625" stop-color="#79A4DC"/>
<stop offset="0.269531" stop-color="#7AA5DD"/>
<stop offset="0.273438" stop-color="#7AA6DD"/>
<stop offset="0.277344" stop-color="#7CA7DE"/>
<stop offset="0.28125" stop-color="#7DA7DE"/>
<stop offset="0.285156" stop-color="#7EA8DF"/>
<stop offset="0.289062" stop-color="#7EA9DF"/>
<stop offset="0.292969" stop-color="#7FAADF"/>
<stop offset="0.296875" stop-color="#80AADF"/>
<stop offset="0.300781" stop-color="#81ABE0"/>
<stop offset="0.304688" stop-color="#82ACE0"/>
<stop offset="0.3125" stop-color="#83ACE0"/>
<stop offset="0.316406" stop-color="#84ADE1"/>
<stop offset="0.320312" stop-color="#85AEE1"/>
<stop offset="0.324219" stop-color="#86AFE1"/>
<stop offset="0.328125" stop-color="#86B0E2"/>
<stop offset="0.332031" stop-color="#87B1E2"/>
<stop offset="0.335938" stop-color="#88B2E3"/>
<stop offset="0.339844" stop-color="#89B2E3"/>
<stop offset="0.34375" stop-color="#8AB2E3"/>
<stop offset="0.347656" stop-color="#8AB3E3"/>
<stop offset="0.351562" stop-color="#8BB4E3"/>
<stop offset="0.355469" stop-color="#8CB5E3"/>
<stop offset="0.359375" stop-color="#8DB5E4"/>
<stop offset="0.363281" stop-color="#8EB6E4"/>
<stop offset="0.367188" stop-color="#8EB6E4"/>
<stop offset="0.371094" stop-color="#8FB7E5"/>
<stop offset="0.375" stop-color="#90B7E5"/>
<stop offset="0.382812" stop-color="#91B8E5"/>
<stop offset="0.386719" stop-color="#92B9E6"/>
<stop offset="0.390625" stop-color="#93BAE6"/>
<stop offset="0.394531" stop-color="#93BAE6"/>
<stop offset="0.398438" stop-color="#94BBE6"/>
<stop offset="0.402344" stop-color="#95BBE7"/>
<stop offset="0.40625" stop-color="#96BCE7"/>
<stop offset="0.414062" stop-color="#97BDE7"/>
<stop offset="0.417969" stop-color="#98BEE8"/>
<stop offset="0.421875" stop-color="#99BEE8"/>
<stop offset="0.429688" stop-color="#9ABEE8"/>
<stop offset="0.433594" stop-color="#9BC0E9"/>
<stop offset="0.4375" stop-color="#9CC1E9"/>
<stop offset="0.5" stop-color="#9CC1E9"/>
<stop offset="1" stop-color="#9CC1E9"/>
</linearGradient>
<linearGradient id="paint3_linear_156_62" x1="355.474" y1="583.097" x2="481.409" y2="583.097" gradientUnits="userSpaceOnUse">
<stop stop-color="#998ECF"/>
<stop offset="0.25" stop-color="#998ECF"/>
<stop offset="0.3125" stop-color="#998ECF"/>
<stop offset="0.328125" stop-color="#998ECF"/>
<stop offset="0.34375" stop-color="#998FCF"/>
<stop offset="0.347656" stop-color="#9A90CF"/>
<stop offset="0.351562" stop-color="#9B90D0"/>
<stop offset="0.355469" stop-color="#9C91D0"/>
<stop offset="0.359375" stop-color="#9D92D1"/>
<stop offset="0.363281" stop-color="#9E93D2"/>
<stop offset="0.367188" stop-color="#9F94D2"/>
<stop offset="0.371094" stop-color="#A094D2"/>
<stop offset="0.375" stop-color="#A195D2"/>
<stop offset="0.378906" stop-color="#A296D2"/>
<stop offset="0.382813" stop-color="#A397D3"/>
<stop offset="0.386719" stop-color="#A498D3"/>
<stop offset="0.390625" stop-color="#A699D4"/>
<stop offset="0.394531" stop-color="#A79AD4"/>
<stop offset="0.398438" stop-color="#A89BD5"/>
<stop offset="0.402344" stop-color="#A99CD5"/>
<stop offset="0.40625" stop-color="#AA9DD6"/>
<stop offset="0.410156" stop-color="#AB9ED6"/>
<stop offset="0.414062" stop-color="#AB9FD7"/>
<stop offset="0.417969" stop-color="#ACA0D7"/>
<stop offset="0.421875" stop-color="#ACA1D7"/>
<stop offset="0.425781" stop-color="#ADA2D7"/>
<stop offset="0.429688" stop-color="#AEA3D8"/>
<stop offset="0.433594" stop-color="#AEA3D8"/>
<stop offset="0.4375" stop-color="#AFA4D9"/>
<stop offset="0.441406" stop-color="#B0A5DA"/>
<stop offset="0.445313" stop-color="#B1A6DA"/>
<stop offset="0.449219" stop-color="#B1A6DA"/>
<stop offset="0.453125" stop-color="#B2A7DA"/>
<stop offset="0.457031" stop-color="#B3A8DB"/>
<stop offset="0.460938" stop-color="#B4A9DB"/>
<stop offset="0.464844" stop-color="#B5AADC"/>
<stop offset="0.46875" stop-color="#B6ABDC"/>
<stop offset="0.472656" stop-color="#B7ACDD"/>
<stop offset="0.476563" stop-color="#B8ADDD"/>
<stop offset="0.480469" stop-color="#B9ADDD"/>
<stop offset="0.484375" stop-color="#BAAEDD"/>
<stop offset="0.488281" stop-color="#BAAFDE"/>
<stop offset="0.492188" stop-color="#BBB0DE"/>
<stop offset="0.496094" stop-color="#BBB0DF"/>
<stop offset="0.5" stop-color="#BCB1DF"/>
<stop offset="0.503906" stop-color="#BDB2DF"/>
<stop offset="0.507812" stop-color="#BEB3E0"/>
<stop offset="0.511719" stop-color="#BFB4E0"/>
<stop offset="0.515625" stop-color="#C0B5E0"/>
<stop offset="0.519531" stop-color="#C0B6E0"/>
<stop offset="0.523438" stop-color="#C1B7E1"/>
<stop offset="0.527344" stop-color="#C2B8E1"/>
<stop offset="0.53125" stop-color="#C3B8E2"/>
<stop offset="0.535156" stop-color="#C4B9E2"/>
<stop offset="0.539062" stop-color="#C5BAE3"/>
<stop offset="0.542969" stop-color="#C5BBE3"/>
<stop offset="0.546875" stop-color="#C6BCE3"/>
<stop offset="0.550781" stop-color="#C7BCE3"/>
<stop offset="0.554688" stop-color="#C8BDE4"/>
<stop offset="0.558594" stop-color="#C9BEE4"/>
<stop offset="0.5625" stop-color="#CABFE5"/>
<stop offset="0.566406" stop-color="#CAC0E5"/>
<stop offset="0.570312" stop-color="#CBC1E6"/>
<stop offset="0.574219" stop-color="#CCC2E6"/>
<stop offset="0.578125" stop-color="#CDC2E6"/>
<stop offset="0.59375" stop-color="#CDC2E6"/>
<stop offset="0.625" stop-color="#CDC2E6"/>
<stop offset="0.75" stop-color="#CDC2E6"/>
<stop offset="1" stop-color="#CDC2E6"/>
</linearGradient>
<linearGradient id="paint4_linear_156_62" x1="245.72" y1="643.386" x2="354.245" y2="643.386" gradientUnits="userSpaceOnUse">
<stop stop-color="#F89C0F"/>
<stop offset="0.25" stop-color="#F89C0F"/>
<stop offset="0.375" stop-color="#F89C0F"/>
<stop offset="0.390625" stop-color="#F89C0F"/>
<stop offset="0.394531" stop-color="#F89C0F"/>
<stop offset="0.398438" stop-color="#F89C0E"/>
<stop offset="0.402344" stop-color="#F89D0E"/>
<stop offset="0.40625" stop-color="#F89E0E"/>
<stop offset="0.414062" stop-color="#F89F0E"/>
<stop offset="0.421875" stop-color="#F8A00E"/>
<stop offset="0.429688" stop-color="#F8A00E"/>
<stop offset="0.433594" stop-color="#F8A20E"/>
<stop offset="0.4375" stop-color="#F8A30D"/>
<stop offset="0.441406" stop-color="#F8A30D"/>
<stop offset="0.445312" stop-color="#F8A40D"/>
<stop offset="0.453125" stop-color="#F8A50D"/>
<stop offset="0.457031" stop-color="#F9A60D"/>
<stop offset="0.460938" stop-color="#F9A70D"/>
<stop offset="0.464844" stop-color="#F9A80C"/>
<stop offset="0.46875" stop-color="#F9A80C"/>
<stop offset="0.476562" stop-color="#F9A90C"/>
<stop offset="0.480469" stop-color="#F9AA0C"/>
<stop offset="0.484375" stop-color="#F9AA0C"/>
<stop offset="0.488281" stop-color="#F9AB0C"/>
<stop offset="0.492188" stop-color="#F9AC0C"/>
<stop offset="0.5" stop-color="#F9AD0C"/>
<stop offset="0.503906" stop-color="#F9AD0B"/>
<stop offset="0.507812" stop-color="#F9AE0B"/>
<stop offset="0.515625" stop-color="#F9AE0B"/>
<stop offset="0.519531" stop-color="#F9B00B"/>
<stop offset="0.523438" stop-color="#F9B00B"/>
<stop offset="0.527344" stop-color="#F9B10B"/>
<stop offset="0.53125" stop-color="#FAB20B"/>
<stop offset="0.539062" stop-color="#FAB20B"/>
<stop offset="0.542969" stop-color="#FAB30A"/>
<stop offset="0.546875" stop-color="#FAB40A"/>
<stop offset="0.550781" stop-color="#FAB50A"/>
<stop offset="0.554688" stop-color="#FAB60A"/>
<stop offset="0.5625" stop-color="#FAB70A"/>
<stop offset="0.566406" stop-color="#FAB80A"/>
<stop offset="0.570312" stop-color="#FAB90A"/>
<stop offset="0.574219" stop-color="#FAB90A"/>
<stop offset="0.578125" stop-color="#FABA0A"/>
<stop offset="0.582031" stop-color="#FABB09"/>
<stop offset="0.585938" stop-color="#FABC09"/>
<stop offset="0.589844" stop-color="#FABC09"/>
<stop offset="0.59375" stop-color="#FABD09"/>
<stop offset="0.597656" stop-color="#FABE09"/>
<stop offset="0.601562" stop-color="#FABF09"/>
<stop offset="0.609375" stop-color="#FABF09"/>
<stop offset="0.613281" stop-color="#FAC008"/>
<stop offset="0.617188" stop-color="#FBC108"/>
<stop offset="0.625" stop-color="#FBC208"/>
<stop offset="0.628906" stop-color="#FBC308"/>
<stop offset="0.632812" stop-color="#FBC408"/>
<stop offset="0.636719" stop-color="#FBC507"/>
<stop offset="0.640625" stop-color="#FBC607"/>
<stop offset="0.648438" stop-color="#FBC607"/>
<stop offset="0.652344" stop-color="#FAC707"/>
<stop offset="0.65625" stop-color="#FAC807"/>
<stop offset="0.660156" stop-color="#FAC807"/>
<stop offset="0.664062" stop-color="#FBC907"/>
<stop offset="0.671875" stop-color="#FBC907"/>
<stop offset="0.6875" stop-color="#FBC907"/>
<stop offset="0.75" stop-color="#FBC907"/>
<stop offset="1" stop-color="#FBC907"/>
</linearGradient>
<linearGradient id="paint5_linear_156_62" x1="355.474" y1="470.771" x2="481.575" y2="470.771" gradientUnits="userSpaceOnUse">
<stop stop-color="#998ECF"/>
<stop offset="0.25" stop-color="#998ECF"/>
<stop offset="0.3125" stop-color="#998ECF"/>
<stop offset="0.328125" stop-color="#998ECF"/>
<stop offset="0.34375" stop-color="#998FCF"/>
<stop offset="0.347656" stop-color="#9A90D0"/>
<stop offset="0.351562" stop-color="#9C90D0"/>
<stop offset="0.355469" stop-color="#9D91D1"/>
<stop offset="0.359375" stop-color="#9D92D1"/>
<stop offset="0.363281" stop-color="#9E93D2"/>
<stop offset="0.367188" stop-color="#9F94D2"/>
<stop offset="0.371094" stop-color="#A094D2"/>
<stop offset="0.375" stop-color="#A195D2"/>
<stop offset="0.378906" stop-color="#A296D2"/>
<stop offset="0.382813" stop-color="#A397D3"/>
<stop offset="0.386719" stop-color="#A498D3"/>
<stop offset="0.390625" stop-color="#A699D4"/>
<stop offset="0.394531" stop-color="#A79AD4"/>
<stop offset="0.398438" stop-color="#A89CD5"/>
<stop offset="0.402344" stop-color="#A99DD5"/>
<stop offset="0.40625" stop-color="#AA9ED6"/>
<stop offset="0.410156" stop-color="#AB9FD6"/>
<stop offset="0.414063" stop-color="#AB9FD7"/>
<stop offset="0.417969" stop-color="#ACA0D7"/>
<stop offset="0.421875" stop-color="#ADA1D7"/>
<stop offset="0.425781" stop-color="#ADA2D7"/>
<stop offset="0.429688" stop-color="#AEA3D8"/>
<stop offset="0.433594" stop-color="#AFA3D8"/>
<stop offset="0.4375" stop-color="#B0A4D9"/>
<stop offset="0.441406" stop-color="#B0A5DA"/>
<stop offset="0.445312" stop-color="#B1A6DA"/>
<stop offset="0.453125" stop-color="#B2A7DA"/>
<stop offset="0.457031" stop-color="#B3A8DB"/>
<stop offset="0.460938" stop-color="#B4A9DB"/>
<stop offset="0.464844" stop-color="#B5AADC"/>
<stop offset="0.46875" stop-color="#B6ABDC"/>
<stop offset="0.472656" stop-color="#B7ACDD"/>
<stop offset="0.476562" stop-color="#B8ADDD"/>
<stop offset="0.480469" stop-color="#B9ADDD"/>
<stop offset="0.484375" stop-color="#BAAEDD"/>
<stop offset="0.488281" stop-color="#BAAFDE"/>
<stop offset="0.492188" stop-color="#BBB0DE"/>
<stop offset="0.5" stop-color="#BBB0DF"/>
<stop offset="0.503906" stop-color="#BDB2DF"/>
<stop offset="0.507812" stop-color="#BEB4E0"/>
<stop offset="0.511719" stop-color="#BFB4E0"/>
<stop offset="0.515625" stop-color="#C0B5E1"/>
<stop offset="0.519531" stop-color="#C1B6E1"/>
<stop offset="0.523437" stop-color="#C1B7E1"/>
<stop offset="0.527344" stop-color="#C2B8E1"/>
<stop offset="0.53125" stop-color="#C3B8E2"/>
<stop offset="0.535156" stop-color="#C4B9E2"/>
<stop offset="0.539062" stop-color="#C5BAE3"/>
<stop offset="0.542969" stop-color="#C6BBE3"/>
<stop offset="0.546875" stop-color="#C7BCE4"/>
<stop offset="0.550781" stop-color="#C8BCE4"/>
<stop offset="0.554687" stop-color="#C9BDE4"/>
<stop offset="0.558594" stop-color="#C9BEE4"/>
<stop offset="0.5625" stop-color="#CAC0E5"/>
<stop offset="0.566406" stop-color="#CBC0E5"/>
<stop offset="0.570312" stop-color="#CCC1E6"/>
<stop offset="0.574219" stop-color="#CDC2E6"/>
<stop offset="0.578125" stop-color="#CDC2E6"/>
<stop offset="0.59375" stop-color="#CDC2E6"/>
<stop offset="0.625" stop-color="#CDC2E6"/>
<stop offset="0.75" stop-color="#CDC2E6"/>
<stop offset="1" stop-color="#CDC2E6"/>
</linearGradient>
</defs>
</svg>
