<svg width="84" height="108" viewBox="0 0 84 108" fill="none" xmlns="http://www.w3.org/2000/svg">
<path d="M23.7534 0.532724H60.3614C63.4638 0.529929 66.5362 1.13891 69.4029 2.32484C72.2697 3.51077 74.8745 5.25031 77.0682 7.44401C79.2619 9.63771 81.0014 12.2425 82.1874 15.1092C83.3733 17.976 83.9823 21.0485 83.9795 24.1508V107.995H23.7534C20.651 107.998 17.5785 107.389 14.7118 106.203C11.8451 105.017 9.24029 103.277 7.04659 101.084C4.85289 98.89 3.11331 96.2853 1.92738 93.4185C0.741449 90.5518 0.132468 87.4793 0.135263 84.3769V24.1508C0.132468 21.0485 0.741449 17.976 1.92738 15.1092C3.11331 12.2425 4.85289 9.63771 7.04659 7.44401C9.24029 5.25031 11.8451 3.51077 14.7118 2.32484C17.5785 1.13891 20.651 0.529929 23.7534 0.532724Z" fill="#0A2F53" fill-opacity="0.05"/>
</svg>
