<svg width="130" height="130" viewBox="0 0 130 130" fill="none" xmlns="http://www.w3.org/2000/svg">
<g opacity="0.28">
<path opacity="0.28" d="M125.861 40.9199L41 125.781C42.438 126.276 43.889 126.722 45.357 127.107L127.187 45.2769C126.802 43.8089 126.356 42.3579 125.861 40.9199Z" fill="#0A2F53"/>
<path opacity="0.28" d="M122.468 32.9497L33.0293 122.392C34.2993 123.046 35.588 123.652 36.8953 124.208L124.284 36.8187C123.726 35.51 123.12 34.2204 122.468 32.9497Z" fill="#0A2F53"/>
<path opacity="0.28" d="M128.209 49.9348L50.0088 128.135C51.6595 128.434 53.3218 128.668 54.9958 128.835L128.896 54.9348C128.736 53.2528 128.507 51.5861 128.209 49.9348Z" fill="#0A2F53"/>
<path opacity="0.28" d="M118.174 25.8809L25.96 118.095C27.082 118.889 28.23 119.633 29.396 120.341L120.42 29.3169C119.712 28.1509 118.968 27.0029 118.174 25.8809Z" fill="#0A2F53"/>
<path opacity="0.28" d="M60.3682 129.141C62.3172 129.169 64.2682 129.116 66.2242 128.967L129.046 66.1448C129.195 64.1908 129.246 62.2378 129.22 60.2888L60.3682 129.141Z" fill="#0A2F53"/>
<path opacity="0.28" d="M20.83 20.7499C15.1046 26.464 10.4239 33.1364 7 40.4649L40.545 6.91992C33.2164 10.3438 26.544 15.0245 20.83 20.7499Z" fill="#0A2F53"/>
<path opacity="0.28" d="M63.705 0.803807L0.883038 63.6298C0.734038 65.5838 0.683034 67.5378 0.710034 69.4858L69.5611 0.629811C67.6131 0.602811 65.659 0.655807 63.705 0.803807Z" fill="#0A2F53"/>
<path opacity="0.28" d="M80.2083 126.346L126.425 80.1287C127.164 77.6751 127.761 75.1809 128.213 72.6587L72.7383 128.134C75.2605 127.682 77.7547 127.085 80.2083 126.346Z" fill="#0A2F53"/>
<path opacity="0.28" d="M113.065 19.6257L19.707 112.985C20.693 113.908 21.697 114.801 22.73 115.643L115.722 22.6507C114.876 21.6167 113.988 20.6127 113.065 19.6257Z" fill="#0A2F53"/>
<path opacity="0.28" d="M49.7208 3.42473L3.50479 49.6407C2.7656 52.0943 2.16861 54.5884 1.7168 57.1107L57.1908 1.63672C54.6685 2.08853 52.1743 2.68554 49.7208 3.42473Z" fill="#0A2F53"/>
<path opacity="0.28" d="M74.9299 0.943848L1.02393 74.8439C1.18993 76.5172 1.42324 78.1795 1.72391 79.8309L79.9239 1.63086C78.2673 1.33753 76.6026 1.10851 74.9299 0.943848Z" fill="#0A2F53"/>
<path opacity="0.28" d="M109.101 109.02C114.826 103.306 119.507 96.6331 122.93 89.3047L89.3872 122.85C96.7153 119.426 103.387 114.745 109.101 109.02Z" fill="#0A2F53"/>
<path opacity="0.28" d="M100.533 9.42969L9.50879 100.454C10.2168 101.619 10.9608 102.767 11.7548 103.89L103.97 11.6757C102.846 10.8827 101.698 10.1377 100.533 9.42969Z" fill="#0A2F53"/>
<path opacity="0.28" d="M84.5731 2.66479L2.74414 84.4938C3.12914 85.9628 3.57512 87.4138 4.06912 88.8508L88.9301 3.98979C87.4931 3.49479 86.0421 3.04879 84.5731 2.66479Z" fill="#0A2F53"/>
<path opacity="0.28" d="M107.2 14.1279L14.207 107.12C15.051 108.154 15.9431 109.158 16.8651 110.145L110.224 16.7859C109.238 15.8649 108.233 14.9719 107.2 14.1279Z" fill="#0A2F53"/>
<path opacity="0.28" d="M93.0311 5.56592L5.64111 92.9559C6.19978 94.2626 6.80546 95.5509 7.45813 96.8209L96.8971 7.38193C95.6298 6.72793 94.3411 6.12258 93.0311 5.56592Z" fill="#0A2F53"/>
</g>
</svg>
