<svg width="470" height="407" viewBox="0 0 470 407" fill="none" xmlns="http://www.w3.org/2000/svg">
<path d="M421.732 365.289C421.732 387.852 390.446 406.141 351.847 406.141C313.249 406.141 281.965 387.852 281.965 365.289C281.965 342.726 313.25 324.437 351.847 324.437C390.445 324.437 421.732 342.726 421.732 365.289Z" fill="url(#paint0_radial)"/>
<path d="M469.077 333.566C469.077 356.129 437.789 374.418 399.193 374.418C360.596 374.418 329.31 356.129 329.31 333.566C329.31 311.003 360.595 292.714 399.193 292.714C437.79 292.714 469.077 311.003 469.077 333.566Z" fill="url(#paint1_radial)"/>
<path d="M170.739 292.845C170.739 328.729 220.498 357.815 281.877 357.815C343.257 357.815 393.021 328.73 393.021 292.845C393.021 256.959 343.257 227.877 281.877 227.877C220.498 227.877 170.739 256.966 170.739 292.845Z" fill="url(#paint2_radial)"/>
<path d="M210.681 260.144C210.681 296.027 260.439 325.114 321.818 325.114C383.197 325.114 432.958 296.027 432.958 260.144C432.958 224.26 383.196 195.174 321.816 195.174C260.436 195.174 210.681 224.263 210.681 260.144Z" fill="url(#paint3_radial)"/>
<path d="M316.619 318.787L208.328 256.268V252.182L351.849 294.363V298.445L316.619 318.787Z" fill="#E66748"/>
<path d="M316.619 318.787L208.328 256.268V252.182L316.623 314.296V318.382L316.619 318.787Z" fill="#FFA791"/>
<path d="M316.619 314.702L208.328 252.181L243.558 231.842L351.845 294.361L316.619 314.702Z" fill="#FF8263"/>
<path d="M246.705 243.288L239.566 239.163V238.287L251.314 239.753V240.626L246.705 243.288Z" fill="#CE5B3F"/>
<path d="M246.705 242.41L239.566 238.29L244.174 235.633L251.314 239.755L246.705 242.41Z" fill="#FFA791"/>
<path d="M254.348 247.708L247.208 243.585V242.712L258.953 244.177V245.05L254.348 247.708Z" fill="#CE5B3F"/>
<path d="M254.348 246.83L247.208 242.707L251.811 240.05L258.953 244.173L254.348 246.83Z" fill="#FFA791"/>
<path d="M261.992 252.12L254.851 247.995V247.125L266.595 248.589V249.463L261.992 252.12Z" fill="#CE5B3F"/>
<path d="M261.992 251.242L254.851 247.123L259.459 244.466L266.595 248.588L261.992 251.242Z" fill="#FFA791"/>
<path d="M269.634 256.539L262.492 252.415V251.544L274.236 253.009V253.882L269.634 256.539Z" fill="#CE5B3F"/>
<path d="M269.634 255.668L262.492 251.544L267.096 248.887L274.235 253.009L269.634 255.668Z" fill="#FFA791"/>
<path d="M277.271 260.954L270.135 256.836V255.96L281.88 257.423V258.3L277.271 260.954Z" fill="#CE5B3F"/>
<path d="M277.271 260.081L270.135 255.962L274.739 253.305L281.88 257.424L277.271 260.081Z" fill="#FFA791"/>
<path d="M284.913 265.374L277.777 261.253V260.377L289.517 261.843V262.717L284.913 265.374Z" fill="#6A55E5"/>
<path d="M284.913 264.5L277.777 260.378L282.376 257.721L289.517 261.843L284.913 264.5Z" fill="#B4B0FF"/>
<path d="M292.556 269.794L285.415 265.671V264.798L297.163 266.259V267.136L292.556 269.794Z" fill="#6A55E5"/>
<path d="M292.556 268.922L285.415 264.798L290.021 262.141L297.163 266.261L292.556 268.922Z" fill="#B4B0FF"/>
<path d="M300.197 274.209L293.059 270.09V269.216L304.807 270.679V271.554L300.197 274.209Z" fill="#CE5B3F"/>
<path d="M300.197 273.338L293.059 269.215L297.665 266.558L304.807 270.677L300.197 273.338Z" fill="#FFA791"/>
<path d="M307.84 278.63L300.699 274.506V273.634L312.443 275.096V275.969L307.84 278.63Z" fill="#CE5B3F"/>
<path d="M307.84 277.756L300.699 273.633L305.302 270.976L312.442 275.097L307.84 277.756Z" fill="#FFA791"/>
<path d="M315.483 283.047L308.337 278.926V278.05L320.091 279.516V280.387L315.483 283.047Z" fill="#CE5B3F"/>
<path d="M315.483 282.176L308.337 278.049L312.946 275.392L320.091 279.519L315.483 282.176Z" fill="#FFA791"/>
<path d="M323.119 287.464L315.978 283.344V282.468L327.727 283.933V284.807L323.119 287.464Z" fill="#CE5B3F"/>
<path d="M323.119 286.592L315.978 282.469L320.586 279.812L327.727 283.935L323.119 286.592Z" fill="#FFA791"/>
<path d="M330.763 291.887L323.622 287.762V286.888L335.37 288.354V289.227L330.763 291.887Z" fill="#CE5B3F"/>
<path d="M330.763 291.012L323.622 286.888L328.228 284.231L335.37 288.355L330.763 291.012Z" fill="#FFA791"/>
<path d="M338.404 296.302L331.265 292.181V291.308L343.009 292.769V293.642L338.404 296.302Z" fill="#CE5B3F"/>
<path d="M338.404 295.429L331.265 291.308L335.873 288.651L343.009 292.771L338.404 295.429Z" fill="#FFA791"/>
<path d="M244.912 249.206L233.616 242.591V241.721L249.515 245.675V246.551L244.912 249.206Z" fill="#CE5B3F"/>
<path d="M244.912 248.334L233.616 241.722L238.218 239.065L249.515 245.68L244.912 248.334Z" fill="#FFA791"/>
<path d="M252.548 253.626L245.412 249.5V248.629L257.151 250.094V250.965L252.548 253.626Z" fill="#CE5B3F"/>
<path d="M252.548 252.747L245.412 248.629L250.016 245.972L257.151 250.096L252.548 252.747Z" fill="#FFA791"/>
<path d="M260.191 258.041L253.049 253.923V253.046L264.791 254.511V255.384L260.191 258.041Z" fill="#CE5B3F"/>
<path d="M260.191 257.168L253.049 253.045L257.656 250.388L264.791 254.508L260.191 257.168Z" fill="#FFA791"/>
<path d="M267.833 262.46L260.698 258.337V257.464L272.436 258.928V259.802L267.833 262.46Z" fill="#CE5B3F"/>
<path d="M267.833 261.587L260.698 257.465L265.301 254.808L272.436 258.93L267.833 261.587Z" fill="#FFA791"/>
<path d="M275.477 266.88L268.335 262.756V261.882L280.079 263.346V264.22L275.477 266.88Z" fill="#6A55E5"/>
<path d="M275.477 266.007L268.335 261.883L272.939 259.226L280.078 263.347L275.477 266.007Z" fill="#FFA791"/>
<path d="M283.118 271.294L275.977 267.173V266.299L287.721 267.764V268.637L283.118 271.294Z" fill="#6A55E5"/>
<path d="M283.118 270.423L275.977 266.299L280.581 263.642L287.72 267.766L283.118 270.423Z" fill="#B4B0FF"/>
<path d="M290.76 275.713L283.62 271.59V270.714L295.364 272.182V273.055L290.76 275.713Z" fill="#6A55E5"/>
<path d="M290.76 274.841L283.62 270.715L288.223 268.058L295.364 272.181L290.76 274.841Z" fill="#B4B0FF"/>
<path d="M298.398 280.13L291.257 276.009V275.133L303.005 276.602V277.471L298.398 280.13Z" fill="#CE5B3F"/>
<path d="M298.398 279.257L291.257 275.134L295.863 272.477L303.005 276.601L298.398 279.257Z" fill="#FFA791"/>
<path d="M306.041 284.552L298.906 280.428V279.554L310.644 281.019V281.892L306.041 284.552Z" fill="#CE5B3F"/>
<path d="M306.041 283.676L298.906 279.553L303.508 276.896L310.644 281.019L306.041 283.676Z" fill="#FFA791"/>
<path d="M313.684 288.97L306.542 284.847V283.976L318.29 285.437V286.313L313.684 288.97Z" fill="#CE5B3F"/>
<path d="M313.684 288.098L306.542 283.976L311.146 281.314L318.29 285.438L313.684 288.098Z" fill="#FFA791"/>
<path d="M321.325 293.389L314.184 289.263V288.386L325.934 289.848V290.725L321.325 293.389Z" fill="#CE5B3F"/>
<path d="M321.325 292.514L314.184 288.39L318.787 285.733L325.933 289.852L321.325 292.514Z" fill="#FFA791"/>
<path d="M332.42 299.835L321.821 293.679V292.809L337.022 296.302V297.172L332.42 299.835Z" fill="#CE5B3F"/>
<path d="M332.42 298.959L321.821 292.811L326.43 290.154L337.022 296.306L332.42 298.959Z" fill="#FFA791"/>
<path d="M236.068 251.039L227.572 246.089V245.216L240.062 247.152V248.026L236.068 251.039Z" fill="#CE5B3F"/>
<path d="M236.33 250.315L227.572 245.217L232.174 242.56L240.933 247.658L236.33 250.315Z" fill="#FFA791"/>
<path d="M243.097 255.097L235.957 250.977V250.104L247.707 251.569V252.445L243.097 255.097Z" fill="#CE5B3F"/>
<path d="M243.097 254.228L235.957 250.104L240.56 247.447L247.707 251.572L243.097 254.228Z" fill="#FFA791"/>
<path d="M250.738 259.52L243.599 255.397V254.521L255.347 255.989V256.862L250.738 259.52Z" fill="#CE5B3F"/>
<path d="M250.738 258.643L243.599 254.52L248.207 251.863L255.347 255.986L250.738 258.643Z" fill="#FFA791"/>
<path d="M258.38 263.935L251.239 259.812V258.941L262.989 260.403V261.278L258.38 263.935Z" fill="#CE5B3F"/>
<path d="M258.38 263.066L251.239 258.941L255.847 256.284L262.989 260.405L258.38 263.066Z" fill="#FFA791"/>
<path d="M266.025 268.357L258.883 264.231V263.358L270.625 264.823V265.694L266.025 268.357Z" fill="#CE5B3F"/>
<path d="M266.025 267.481L258.883 263.358L263.49 260.701L270.625 264.825L266.025 267.481Z" fill="#FFA791"/>
<path d="M273.666 272.771L266.525 268.65V267.78L278.269 269.244V270.117L273.666 272.771Z" fill="#6A55E5"/>
<path d="M273.666 271.898L266.525 267.778L271.127 265.121L278.269 269.245L273.666 271.898Z" fill="#B4B0FF"/>
<path d="M281.308 277.192L274.167 273.069V272.196L285.912 273.658V274.531L281.308 277.192Z" fill="#6A55E5"/>
<path d="M281.308 276.317L274.167 272.197L278.771 269.533L285.913 273.659L281.308 276.317Z" fill="#B4B0FF"/>
<path d="M288.952 281.609L281.805 277.485V276.611L293.55 278.078V278.95L288.952 281.609Z" fill="#CE5B3F"/>
<path d="M288.952 280.735L281.805 276.611L286.414 273.954L293.55 278.078L288.952 280.735Z" fill="#FFA791"/>
<path d="M296.592 286.03L289.448 281.906V281.035L301.196 282.5V283.373L296.592 286.03Z" fill="#CE5B3F"/>
<path d="M296.592 285.154L289.448 281.031L294.055 278.374L301.197 282.498L296.592 285.154Z" fill="#FFA791"/>
<path d="M304.229 290.449L297.09 286.324V285.447L308.838 286.912V287.783L304.229 290.449Z" fill="#CE5B3F"/>
<path d="M304.229 289.572L297.09 285.449L301.692 282.792L308.838 286.913L304.229 289.572Z" fill="#FFA791"/>
<path d="M311.873 294.867L304.732 290.744V289.867L316.476 291.332V292.209L311.873 294.867Z" fill="#CE5B3F"/>
<path d="M311.873 293.99L304.732 289.867L309.334 287.21L316.476 291.33L311.873 293.99Z" fill="#FFA791"/>
<path d="M319.511 299.28L312.375 295.155V294.284L324.119 295.75V296.617L319.511 299.28Z" fill="#CE5B3F"/>
<path d="M319.511 298.411L312.375 294.288L316.979 291.631L324.118 295.752L319.511 298.411Z" fill="#FFA791"/>
<path d="M326.375 303.244L320.01 299.575V298.704L330.982 299.712V300.589L326.375 303.244Z" fill="#CE5B3F"/>
<path d="M326.375 302.371L320.01 298.705L324.619 296.048L330.983 299.715L326.375 302.371Z" fill="#FFA791"/>
<path d="M233.658 256.606L221.482 249.584V248.707L238.261 253.072V253.936L233.658 256.606Z" fill="#CE5B3F"/>
<path d="M233.658 255.729L221.482 248.714L226.091 246.057L238.261 253.082L233.658 255.729Z" fill="#FFA791"/>
<path d="M241.303 261.023L234.161 256.899V256.025L245.905 257.489V258.365L241.303 261.023Z" fill="#CE5B3F"/>
<path d="M241.303 260.143L234.161 256.025L238.764 253.368L245.905 257.489L241.303 260.143Z" fill="#FFA791"/>
<path d="M248.945 265.442L241.804 261.317V260.44L253.548 261.906V262.782L248.945 265.442Z" fill="#CE5B3F"/>
<path d="M248.945 264.563L241.804 260.439L246.407 257.782L253.547 261.904L248.945 264.563Z" fill="#FFA791"/>
<path d="M256.58 269.86L249.439 265.735V264.862L261.189 266.327V267.197L256.58 269.86Z" fill="#CE5B3F"/>
<path d="M256.58 268.984L249.439 264.861L254.048 262.204L261.188 266.33L256.58 268.984Z" fill="#FFA791"/>
<path d="M264.223 274.273L257.083 270.152V269.278L268.831 270.747V271.62L264.223 274.273Z" fill="#CE5B3F"/>
<path d="M264.223 273.4L257.083 269.276L261.69 266.619L268.831 270.742L264.223 273.4Z" fill="#FFA791"/>
<path d="M271.871 278.693L264.726 274.571V273.691L276.468 275.156V276.029L271.871 278.693Z" fill="#CE5B3F"/>
<path d="M271.871 277.819L264.724 273.699L269.332 271.042L276.467 275.163L271.871 277.819Z" fill="#FFA791"/>
<path d="M279.509 283.113L272.366 278.989V278.116L284.11 279.58V280.452L279.509 283.113Z" fill="#CE5B3F"/>
<path d="M279.509 282.237L272.368 278.116L276.976 275.459L284.112 279.582L279.509 282.237Z" fill="#FFA791"/>
<path d="M287.151 287.53L280.008 283.402V282.531L291.752 283.993V284.867L287.151 287.53Z" fill="#CE5B3F"/>
<path d="M287.151 286.656L280.01 282.536L284.614 279.879L291.754 284L287.151 286.656Z" fill="#FFA791"/>
<path d="M294.792 291.947L287.653 287.823V286.953L299.397 288.416V289.289L294.792 291.947Z" fill="#CE5B3F"/>
<path d="M294.792 291.075L287.65 286.954L292.252 284.297L299.394 288.42L294.792 291.075Z" fill="#FFA791"/>
<path d="M302.434 296.367L295.29 292.243V291.369L307.037 292.834V293.707L302.434 296.367Z" fill="#CE5B3F"/>
<path d="M302.434 295.491L295.29 291.367L299.896 288.71L307.037 292.835L302.434 295.491Z" fill="#FFA791"/>
<path d="M310.073 300.783L302.933 296.664V295.788L314.68 297.248V298.128L310.073 300.783Z" fill="#CE5B3F"/>
<path d="M310.073 299.909L302.933 295.788L307.542 293.131L314.68 297.252L310.073 299.909Z" fill="#FFA791"/>
<path d="M320.405 306.676L310.574 301.084V300.206L325.014 303.149V304.022L320.405 306.676Z" fill="#CE5B3F"/>
<path d="M320.405 305.805L310.574 300.204L315.181 297.547L325.013 303.156L320.405 305.805Z" fill="#FFA791"/>
<path d="M224.203 258.075L215.552 253.002V252.132L228.811 254.545V255.421L224.203 258.075Z" fill="#CE5B3F"/>
<path d="M224.203 257.207L215.552 252.132L220.16 249.475L228.811 254.545L224.203 257.207Z" fill="#FFA791"/>
<path d="M231.85 262.498L224.709 258.377V257.503L236.451 258.965V259.838L231.85 262.498Z" fill="#CE5B3F"/>
<path d="M231.85 261.625L224.709 257.504L229.312 254.847L236.451 258.969L231.85 261.625Z" fill="#FFA791"/>
<path d="M239.492 266.91L232.354 262.791V261.918L244.097 263.383V264.256L239.492 266.91Z" fill="#CE5B3F"/>
<path d="M239.492 266.044L232.354 261.919L236.955 259.262L244.097 263.385L239.492 266.044Z" fill="#FFA791"/>
<path d="M285.194 293.402L239.989 267.21V266.34L289.797 289.871V290.745L285.194 293.402Z" fill="#CE5B3F"/>
<path d="M285.194 292.523L239.989 266.339L244.598 263.682L289.797 289.873L285.194 292.523Z" fill="#FFA791"/>
<path d="M292.982 297.842L285.842 293.721V292.845L297.586 294.309V295.183L292.982 297.842Z" fill="#CE5B3F"/>
<path d="M292.982 296.966L285.842 292.846L290.447 290.189L297.586 294.308L292.982 296.966Z" fill="#FFA791"/>
<path d="M300.62 302.265L293.479 298.141V297.262L305.228 298.73V299.604L300.62 302.265Z" fill="#CE5B3F"/>
<path d="M300.62 301.384L293.479 297.261L298.087 294.604L305.228 298.727L300.62 301.384Z" fill="#FFA791"/>
<path d="M308.263 306.676L301.123 302.556V301.683L312.871 303.148V304.021L308.263 306.676Z" fill="#CE5B3F"/>
<path d="M308.263 305.806L301.123 301.683L305.726 299.026L312.871 303.149L308.263 305.806Z" fill="#FFA791"/>
<path d="M314.415 310.211L308.765 306.972V306.099L319.019 306.675V307.549L314.415 310.211Z" fill="#CE5B3F"/>
<path d="M314.415 309.336L308.765 306.098L313.367 303.441L319.019 306.676L314.415 309.336Z" fill="#FFA791"/>
<path d="M258.445 231.227V224.299L263.415 226.797L272.151 221.751C273.748 220.943 275.512 220.522 277.302 220.522C279.092 220.522 280.856 220.943 282.453 221.751L370.247 272.439L375.242 269.998V276.846C375.351 278.001 374.658 279.172 373.129 280.058L361.537 286.749C359.941 287.558 358.177 287.979 356.388 287.979C354.599 287.979 352.835 287.558 351.24 286.749L260.565 234.396C259.052 233.521 258.352 232.36 258.445 231.227Z" fill="#FFA791"/>
<path d="M370.243 272.438L375.239 269.998V276.845C375.348 278 374.654 279.171 373.126 280.057L361.533 286.749C359.993 287.566 358.272 287.986 356.528 287.972V264.523L370.243 272.438Z" fill="#E66748"/>
<path d="M361.532 279.434C359.937 280.244 358.173 280.666 356.384 280.666C354.594 280.666 352.83 280.244 351.235 279.434L260.561 227.081C257.707 225.434 257.707 222.772 260.561 221.135L272.147 214.443C273.743 213.632 275.508 213.209 277.299 213.209C279.089 213.209 280.854 213.632 282.45 214.443L373.126 266.796C375.967 268.44 375.967 271.101 373.126 272.744L361.532 279.434Z" fill="#EE6E4E"/>
<path d="M334.067 261.363L340.392 257.788V225.448L299.613 201.906L334.067 261.363Z" fill="#E66748"/>
<path d="M293.293 237.825L334.067 261.363V229.026L293.293 205.487V237.825Z" fill="#FFA791"/>
<path d="M226.131 34.6967L232.059 31.3105C232.185 31.2151 232.323 31.1376 232.47 31.0802C232.825 30.9754 233.2 30.9516 233.566 31.0106C233.932 31.0695 234.28 31.2096 234.585 31.4207L405.232 129.942C406.197 130.57 407 131.418 407.575 132.415C408.151 133.412 408.482 134.531 408.544 135.681V266.721C408.587 267.133 408.521 267.549 408.35 267.926C408.179 268.303 407.911 268.628 407.573 268.867C407.485 268.915 407.394 268.957 407.3 268.992L401.395 272.384L400.171 266L401.931 266.732L234.585 170.112C233.62 169.483 232.817 168.635 232.241 167.638C231.666 166.64 231.334 165.52 231.273 164.37V38.2699L226.131 34.6967Z" fill="#E66748"/>
<path d="M232.059 31.3115C232.185 31.2161 232.323 31.1386 232.47 31.0812C232.825 30.9764 233.2 30.9526 233.566 31.0115C233.932 31.0705 234.28 31.2106 234.585 31.4217L405.232 129.942C406.077 130.467 406.791 131.178 407.319 132.021L293.244 203.979L234.585 170.112C233.62 169.483 232.817 168.635 232.241 167.638C231.666 166.64 231.334 165.52 231.273 164.37V38.2699L226.131 34.6977L232.059 31.3115Z" fill="#FFA791"/>
<path d="M225.14 167.878C225.203 169.028 225.535 170.147 226.111 171.144C226.687 172.142 227.491 172.989 228.455 173.618L399.095 272.135C400.929 273.193 402.413 272.332 402.413 270.226V139.179C402.351 138.028 402.017 136.909 401.441 135.912C400.864 134.915 400.061 134.068 399.095 133.439L228.455 34.9192C226.621 33.8623 225.14 34.7223 225.14 36.8322V167.878Z" fill="#FFA791"/>
<path d="M228.357 158.279L399.192 256.912V138.946L228.357 40.3159V158.279Z" fill="#F6F5FB"/>
<g opacity="0.4">
<g opacity="0.4">
<g opacity="0.4">
<g opacity="0.4">
<path opacity="0.4" d="M380.468 222.995L289.595 170.531V169.779L380.468 222.245V222.995Z" fill="#C7C3E2"/>
</g>
<g opacity="0.4">
<path opacity="0.4" d="M380.468 214.661L289.595 162.2V161.446L380.468 213.915V214.661Z" fill="#C7C3E2"/>
</g>
<g opacity="0.4">
<path opacity="0.4" d="M380.468 206.335L289.595 153.87V153.117L380.468 205.584V206.335Z" fill="#C7C3E2"/>
</g>
<g opacity="0.4">
<path opacity="0.4" d="M380.468 198.003L289.595 145.537V144.785L380.468 197.249V198.003Z" fill="#C7C3E2"/>
</g>
<g opacity="0.4">
<path opacity="0.4" d="M380.468 189.675L289.595 137.212V136.46L380.468 188.922V189.675Z" fill="#C7C3E2"/>
</g>
<g opacity="0.4">
<path opacity="0.4" d="M380.468 181.338L289.595 128.874V128.123L380.468 180.59V181.338Z" fill="#C7C3E2"/>
</g>
<g opacity="0.4">
<path opacity="0.4" d="M380.468 173.009L289.595 120.543V119.792L380.468 172.258V173.009Z" fill="#C7C3E2"/>
</g>
<g opacity="0.4">
<path opacity="0.4" d="M380.468 164.168L289.595 111.703V110.951L380.468 163.416V164.168Z" fill="#C7C3E2"/>
</g>
<g opacity="0.4">
<path opacity="0.4" d="M380.468 155.837L289.595 103.37V102.624L380.468 155.09V155.837Z" fill="#C7C3E2"/>
</g>
<g opacity="0.4">
<path opacity="0.4" d="M380.468 147.506L289.595 95.0397V94.2869L380.468 146.753V147.506Z" fill="#C7C3E2"/>
</g>
</g>
</g>
</g>
<path d="M379.9 223.109L367.091 159.152L355.89 173.749L345.477 150.381L335.421 143.734L325.217 126.354L315.708 163.028L303.684 140.394L292.298 171.971L291.206 171.577L303.48 137.537L315.334 159.851L324.795 123.347L336.285 142.913L346.397 149.597L356.157 171.497L367.729 156.419L381.033 222.883L379.9 223.109Z" fill="#F23096"/>
<path d="M379.903 223.12L367.152 163.935L355.955 182.423L345.589 159.821L335.552 161.035L325.05 144.06L315.582 162.591L303.694 144.517L292.279 172L291.209 171.553L303.46 142.054L315.449 160.288L324.948 141.702L336.144 159.796L346.28 158.568L356.085 179.949L367.66 160.838L381.026 222.875L379.903 223.12Z" fill="#F2E941"/>
<path d="M379.925 223.198L367.015 188.362L355.653 189.003L345.758 165.976L335.819 176.702L324.827 163.063L315.386 167.212L303.663 155.279L292.232 172.107L291.271 171.453L303.501 153.457L315.656 165.83L325.177 161.647L335.885 174.932L346.119 163.877L356.396 187.801L367.802 187.156L381.01 222.796L379.925 223.198Z" fill="#8970F2"/>
<path d="M379.963 223.282L367.05 200.214L355.628 198.893L345.613 176.062L335.69 178.916L324.964 168.458L315.48 176.134L303.511 164.325L292.08 172.256L291.418 171.305L303.641 162.823L315.559 174.57L325.04 166.899L336.019 177.607L346.266 174.663L356.42 197.817L367.773 199.129L380.974 222.711L379.963 223.282Z" fill="#F438B1"/>
<path d="M292.735 171.488C292.735 172.427 292.184 173.186 291.51 173.186C290.836 173.186 290.282 172.427 290.282 171.488C290.282 170.549 290.833 169.791 291.51 169.791C292.187 169.791 292.735 170.552 292.735 171.488Z" fill="#FCFCFC"/>
<path d="M304.76 164.168C304.76 165.104 304.21 165.864 303.533 165.864C302.856 165.864 302.305 165.104 302.305 164.168C302.305 163.232 302.854 162.471 303.533 162.471C304.212 162.471 304.76 163.232 304.76 164.168Z" fill="#FCFCFC"/>
<path d="M304.76 154.14C304.76 155.076 304.21 155.838 303.533 155.838C302.856 155.838 302.305 155.076 302.305 154.14C302.305 153.205 302.854 152.443 303.533 152.443C304.212 152.443 304.76 153.202 304.76 154.14Z" fill="#FCFCFC"/>
<path d="M304.76 143.399C304.76 144.335 304.21 145.095 303.533 145.095C302.856 145.095 302.305 144.335 302.305 143.399C302.305 142.463 302.854 141.704 303.533 141.704C304.212 141.704 304.76 142.463 304.76 143.399Z" fill="#FCFCFC"/>
<path d="M304.76 138.908C304.76 139.843 304.21 140.603 303.533 140.603C302.856 140.603 302.305 139.843 302.305 138.908C302.305 137.973 302.854 137.21 303.533 137.21C304.212 137.21 304.76 137.97 304.76 138.908Z" fill="#FCFCFC"/>
<path d="M326.112 125.047C326.112 125.983 325.563 126.743 324.886 126.743C324.209 126.743 323.659 125.983 323.659 125.047C323.659 124.111 324.206 123.35 324.886 123.35C325.566 123.35 326.112 124.109 326.112 125.047Z" fill="#FCFCFC"/>
<path d="M326.562 142.809C326.562 143.745 326.014 144.504 325.337 144.504C324.659 144.504 324.109 143.745 324.109 142.809C324.109 141.873 324.658 141.111 325.337 141.111C326.016 141.111 326.562 141.871 326.562 142.809Z" fill="#FCFCFC"/>
<path d="M326.092 162.471C326.092 163.409 325.543 164.168 324.865 164.168C324.187 164.168 323.638 163.409 323.638 162.471C323.638 161.533 324.186 160.773 324.865 160.773C325.544 160.773 326.092 161.535 326.092 162.471Z" fill="#FCFCFC"/>
<path d="M326.092 168.094C326.092 169.029 325.543 169.789 324.865 169.789C324.187 169.789 323.638 169.029 323.638 168.094C323.638 167.158 324.186 166.395 324.865 166.395C325.544 166.395 326.092 167.158 326.092 168.094Z" fill="#FCFCFC"/>
<path d="M337.032 178.32C337.032 179.258 336.484 180.018 335.805 180.018C335.126 180.018 334.58 179.258 334.58 178.32C334.58 177.382 335.128 176.623 335.805 176.623C336.482 176.623 337.032 177.385 337.032 178.32Z" fill="#FCFCFC"/>
<path d="M337.032 175.37C337.032 176.305 336.484 177.064 335.805 177.064C335.126 177.064 334.58 176.305 334.58 175.37C334.58 174.435 335.128 173.672 335.805 173.672C336.482 173.672 337.032 174.432 337.032 175.37Z" fill="#FCFCFC"/>
<path d="M337.032 160.294C337.032 161.235 336.484 161.992 335.805 161.992C335.126 161.992 334.58 161.235 334.58 160.294C334.58 159.353 335.128 158.596 335.805 158.596C336.482 158.596 337.032 159.359 337.032 160.294Z" fill="#FCFCFC"/>
<path d="M337.032 143.399C337.032 144.335 336.484 145.095 335.805 145.095C335.126 145.095 334.58 144.335 334.58 143.399C334.58 142.463 335.128 141.704 335.805 141.704C336.482 141.704 337.032 142.463 337.032 143.399Z" fill="#FCFCFC"/>
<path d="M347.178 150.174C347.178 151.11 346.626 151.872 345.947 151.872C345.268 151.872 344.722 151.11 344.722 150.174C344.722 149.238 345.272 148.477 345.947 148.477C346.622 148.477 347.178 149.237 347.178 150.174Z" fill="#FCFCFC"/>
<path d="M347.178 159.077C347.178 160.013 346.626 160.772 345.947 160.772C345.268 160.772 344.722 160.013 344.722 159.077C344.722 158.141 345.272 157.378 345.947 157.378C346.622 157.378 347.178 158.141 347.178 159.077Z" fill="#FCFCFC"/>
<path d="M347.178 165.071C347.178 166.008 346.626 166.765 345.947 166.765C345.268 166.765 344.722 166.008 344.722 165.071C344.722 164.133 345.272 163.372 345.947 163.372C346.622 163.372 347.178 164.132 347.178 165.071Z" fill="#FCFCFC"/>
<path d="M347.178 175.866C347.178 176.801 346.626 177.562 345.947 177.562C345.268 177.562 344.722 176.8 344.722 175.866C344.722 174.932 345.272 174.169 345.947 174.169C346.622 174.169 347.178 174.927 347.178 175.866Z" fill="#FCFCFC"/>
<path d="M357.393 198.623C357.393 199.558 356.842 200.319 356.165 200.319C355.488 200.319 354.938 199.557 354.938 198.623C354.938 197.689 355.487 196.926 356.165 196.926C356.843 196.926 357.393 197.685 357.393 198.623Z" fill="#FCFCFC"/>
<path d="M357.393 188.328C357.393 189.264 356.842 190.024 356.165 190.024C355.488 190.024 354.938 189.264 354.938 188.328C354.938 187.392 355.487 186.631 356.165 186.631C356.843 186.631 357.393 187.39 357.393 188.328Z" fill="#FCFCFC"/>
<path d="M357.393 180.709C357.393 181.647 356.842 182.407 356.165 182.407C355.488 182.407 354.938 181.646 354.938 180.709C354.938 179.772 355.487 179.011 356.165 179.011C356.843 179.011 357.393 179.778 357.393 180.709Z" fill="#FCFCFC"/>
<path d="M357.393 172.476C357.393 173.412 356.842 174.171 356.165 174.171C355.488 174.171 354.938 173.412 354.938 172.476C354.938 171.54 355.487 170.778 356.165 170.778C356.843 170.778 357.393 171.534 357.393 172.476Z" fill="#FCFCFC"/>
<path d="M368.624 157.535C368.624 158.47 368.073 159.23 367.396 159.23C366.719 159.23 366.168 158.47 366.168 157.535C366.168 156.601 366.717 155.838 367.396 155.838C368.075 155.838 368.624 156.6 368.624 157.535Z" fill="#FCFCFC"/>
<path d="M368.624 161.991C368.624 162.927 368.073 163.689 367.396 163.689C366.719 163.689 366.168 162.927 366.168 161.991C366.168 161.056 366.717 160.294 367.396 160.294C368.075 160.294 368.624 161.056 368.624 161.991Z" fill="#FCFCFC"/>
<path d="M368.624 188.055C368.624 188.994 368.073 189.755 367.396 189.755C366.719 189.755 366.168 188.994 366.168 188.055C366.168 187.116 366.717 186.359 367.396 186.359C368.075 186.359 368.624 187.12 368.624 188.055Z" fill="#FCFCFC"/>
<path d="M368.624 199.699C368.624 200.635 368.073 201.398 367.396 201.398C366.719 201.398 366.168 200.635 366.168 199.699C366.168 198.764 366.717 198.004 367.396 198.004C368.075 198.004 368.624 198.763 368.624 199.699Z" fill="#FCFCFC"/>
<path d="M381.697 222.592C381.697 223.531 381.146 224.29 380.469 224.29C379.792 224.29 379.241 223.531 379.241 222.592C379.241 221.653 379.791 220.895 380.469 220.895C381.147 220.895 381.697 221.66 381.697 222.592Z" fill="#FCFCFC"/>
<path d="M316.934 166.169C316.934 167.105 316.386 167.864 315.709 167.864C315.032 167.864 314.478 167.105 314.478 166.169C314.478 165.233 315.029 164.473 315.709 164.473C316.389 164.473 316.934 165.232 316.934 166.169Z" fill="#FCFCFC"/>
<path d="M316.466 161.674C316.466 162.612 315.916 163.372 315.241 163.372C314.566 163.372 314.014 162.612 314.014 161.674C314.014 160.735 314.562 159.979 315.241 159.979C315.92 159.979 316.466 160.741 316.466 161.674Z" fill="#FCFCFC"/>
<path d="M316.466 174.926C316.466 175.862 315.916 176.622 315.241 176.622C314.566 176.622 314.014 175.862 314.014 174.926C314.014 173.99 314.562 173.231 315.241 173.231C315.92 173.231 316.466 173.989 316.466 174.926Z" fill="#FCFCFC"/>
<path d="M230.029 41.2823V156.977L399.192 254.641V256.904L228.356 158.275V40.3159L230.029 41.2823Z" fill="#E66748"/>
<path d="M225.135 25.8589V91.3101L310.051 140.336V74.8838L225.135 25.8589Z" fill="#EFEFEF"/>
<path d="M207.51 65.4522L302.194 120.118V54.6657L207.51 0V65.4522Z" fill="#F69077"/>
<path d="M207.507 64.1315L302.192 118.798V116.194L207.51 61.5295L207.507 64.1315Z" fill="#1C0687"/>
<path d="M279.227 105.538L302.192 118.798V116.196L279.227 102.935V105.538Z" fill="#FF3956"/>
<path d="M236.536 49.4835C236.536 61.1636 244.735 75.3649 254.849 81.2093C264.964 87.0538 273.165 82.3144 273.165 70.6344C273.165 58.9543 264.965 44.7531 254.849 38.9096C244.734 33.0661 236.536 37.8045 236.536 49.4835Z" fill="white"/>
<path d="M248.221 48.9609L259.958 64.6177L248.221 67.2235V48.9609Z" fill="#FF3956"/>
<path d="M123.805 261.543L117.5 257.588V103.254L207.908 51.0571L214.884 54.6225L123.805 261.543Z" fill="#E66748"/>
<path d="M117.502 103.254V257.583L123.807 261.538L177.193 140.258L117.604 103.197L117.502 103.254Z" fill="#FFA791"/>
<path d="M214.886 208.949L123.804 261.539V107.209L214.885 54.6213L214.886 208.949Z" fill="#F6F5FB"/>
<path d="M172.843 162.613L131.891 186.258V183.069L172.843 159.426V162.613Z" fill="#F23096"/>
<path d="M193.088 155.702L131.892 191.036V189.976L193.088 154.647V155.702Z" fill="#B7ABFF"/>
<path d="M193.088 160.136L131.892 195.464V194.402L193.088 159.074V160.136Z" fill="#B7ABFF"/>
<path d="M193.088 164.564L131.892 199.899V198.835L193.088 163.506V164.564Z" fill="#B7ABFF"/>
<path d="M193.088 169.003L131.892 204.331V203.268L193.088 167.939V169.003Z" fill="#B7ABFF"/>
<path d="M193.088 173.434L131.892 208.763V207.701L193.088 172.369V173.434Z" fill="#B7ABFF"/>
<path d="M172.843 194.044L131.891 217.685V214.497L172.843 190.855V194.044Z" fill="#F23096"/>
<path d="M193.088 187.128L131.892 222.463V221.399L193.088 186.066V187.128Z" fill="#B7ABFF"/>
<path d="M193.088 191.562L131.892 226.891V225.834L193.088 190.5V191.562Z" fill="#B7ABFF"/>
<path d="M193.088 195.995L131.892 231.324V230.26L193.088 194.932V195.995Z" fill="#B7ABFF"/>
<path d="M193.088 200.431L131.892 235.759V234.695L193.088 199.366V200.431Z" fill="#B7ABFF"/>
<path d="M193.088 204.861L131.892 240.194V239.134L193.088 203.8V204.861Z" fill="#B7ABFF"/>
<path d="M295.8 275.554C288.986 279.49 277.938 279.49 271.125 275.554C264.311 271.617 264.312 265.241 271.125 261.307C277.937 257.373 288.987 257.371 295.799 261.307C302.612 265.243 302.614 271.621 295.8 275.554Z" fill="#EAEAEA"/>
<path d="M376.302 365.592C377.496 365.038 378.644 364.445 379.756 363.803C380.824 363.189 381.859 362.521 382.86 361.803C382.925 360.609 382.925 359.413 382.86 358.219C380.042 355.413 376.463 355.669 377.474 354.528C378.557 353.288 385.066 353.052 390.846 352.697C391.616 351.064 392.088 349.307 392.24 347.508C392.142 347.482 392.345 343.948 392.24 343.922C387.012 342.57 380.882 344.732 380.525 343.407C380.152 342.067 385.192 339.687 389.514 337.431C389.466 337.355 389.514 333.845 389.514 333.845C383.824 334.543 373.4 334.387 371.672 333.389C369.944 332.391 371.552 328.736 372.762 325.451V321.863C368.862 324.363 356.639 328.491 354.312 328.273C351.964 328.058 349.588 324.567 347.211 321.508C344.198 321.589 341.194 321.86 338.215 322.318C337.611 325.655 337.194 329.403 335.051 330.035C332.985 330.643 327.501 328.6 322.44 326.922C321.253 327.477 316.992 326.48 315.881 327.119V330.706C318.791 333.626 322.321 336.795 321.275 337.988C320.179 339.23 312.67 339.799 306.883 340.153C306.096 341.858 306.657 343.262 306.504 345.008C311.805 346.379 317.858 347.751 318.236 349.109C318.573 350.36 313.31 349.404 309.229 351.501V355.088C310.384 356.819 311.762 358.391 313.328 359.762C319.014 359.06 325.349 358.128 327.084 359.13C328.669 360.045 327.131 360.432 325.98 363.482C325.876 363.756 326.078 366.793 325.98 367.068C328.62 368.051 331.327 368.842 334.081 369.436C337.986 366.942 342.109 364.03 344.44 364.238C346.79 364.455 349.164 367.947 351.532 371.01C354.544 370.928 357.548 370.659 360.527 370.203C361.143 366.864 361.543 363.109 363.699 362.48C365.76 361.875 371.248 363.915 376.302 365.592ZM334.404 354.905C326.13 350.125 326.126 342.389 334.395 337.616C342.664 332.844 356.074 332.839 364.347 337.616C372.621 342.394 372.614 350.132 364.341 354.905C356.067 359.678 342.679 359.68 334.404 354.905Z" fill="#294C5B"/>
<path d="M376.303 362.01C377.496 361.456 378.647 360.86 379.757 360.222C380.866 359.584 381.901 358.917 382.861 358.223C379.96 355.304 376.419 352.139 377.475 350.941C378.557 349.701 385.067 349.47 390.847 349.113C391.616 347.48 392.088 345.722 392.241 343.924C386.936 342.546 380.89 341.174 380.525 339.82C380.152 338.483 385.193 336.102 389.515 333.846C388.365 332.109 386.985 330.536 385.413 329.169C379.723 329.867 373.401 330.799 371.673 329.803C369.945 328.807 371.553 325.15 372.763 321.864C370.123 320.883 367.416 320.091 364.663 319.497C360.764 321.996 356.641 324.909 354.313 324.689C351.965 324.473 349.589 320.98 347.211 317.921C344.199 318.003 341.195 318.273 338.216 318.731C337.612 322.069 337.194 325.816 335.052 326.448C332.985 327.058 327.503 325.015 322.441 323.336C321.253 323.895 320.088 324.485 318.979 325.127C317.87 325.768 316.849 326.436 315.882 327.12C318.792 330.042 322.322 333.212 321.276 334.403C320.18 335.642 313.69 335.879 307.904 336.234C307.138 337.869 306.664 339.627 306.505 341.426C311.806 342.793 317.859 344.164 318.237 345.524C318.6 346.871 313.557 349.252 309.23 351.502C310.384 353.234 311.763 354.807 313.328 356.178C319.014 355.478 325.35 354.547 327.085 355.545C328.82 356.542 327.196 360.2 325.981 363.483C328.62 364.466 331.327 365.257 334.081 365.851C337.986 363.357 342.109 360.444 344.44 360.654C346.79 360.868 349.164 364.362 351.53 367.425C354.543 367.343 357.547 367.072 360.526 366.614C361.142 363.278 361.542 359.522 363.698 358.893C365.759 358.288 371.248 360.329 376.303 362.01ZM334.407 351.322C326.133 346.545 326.129 338.808 334.399 334.034C342.668 329.261 356.078 329.257 364.35 334.034C372.622 338.812 372.616 346.548 364.343 351.322C356.07 356.096 342.68 356.093 334.407 351.318V351.322Z" fill="#4F839A"/>
<path d="M420.78 330.164C421.528 329.818 422.25 329.446 422.945 329.042C423.641 328.639 424.29 328.221 424.893 327.792C424.893 327.792 424.975 324.563 424.893 324.483C423.121 322.72 420.881 323.939 421.514 323.223C422.193 322.446 426.276 322.299 429.902 322.077C430.385 321.053 430.682 319.95 430.778 318.822C430.713 318.804 430.843 315.533 430.778 315.515C427.498 314.667 423.652 317.079 423.427 316.25C423.201 315.422 426.355 313.917 429.066 312.504C429.037 312.454 429.066 309.195 429.066 309.195C425.497 309.632 418.957 310.592 417.875 309.966C416.794 309.34 417.801 307.047 418.557 304.986V301.678C416.112 303.246 408.445 306.894 406.985 306.756C405.524 306.618 404.02 304.432 402.53 302.513C400.641 302.564 398.757 302.733 396.89 303.02C396.509 305.116 396.249 307.465 394.904 307.863C393.606 308.245 390.168 306.963 386.993 305.909C386.248 306.257 383.577 304.573 382.88 304.977V308.283C384.704 310.115 386.915 312.105 386.261 312.852C385.572 313.632 380.628 313.725 376.997 313.95C376.997 313.95 377.095 316.16 376.997 317.256C380.322 318.114 384.118 318.972 384.357 319.827C384.566 320.61 381.266 318.954 378.706 320.267V323.579C379.43 324.666 380.295 325.652 381.277 326.512C384.843 326.072 388.756 325.609 389.907 326.119C390.217 326.256 389.936 325.877 389.218 327.792C389.152 327.962 389.281 330.928 389.218 331.1C390.873 331.717 392.571 332.213 394.299 332.583C396.747 331.02 399.335 329.194 400.794 329.325C402.252 329.456 403.755 331.651 405.241 333.573C407.13 333.521 409.014 333.351 410.882 333.064C411.27 330.971 411.52 328.614 412.872 328.222C414.165 327.833 417.61 329.114 420.78 330.164ZM394.505 323.462C389.314 320.466 389.311 315.613 394.505 312.62C399.699 309.627 408.103 309.623 413.292 312.62C418.482 315.616 418.475 320.466 413.287 323.462C408.098 326.457 399.689 326.457 394.5 323.461L394.505 323.462Z" fill="#294C5B"/>
<path d="M420.78 326.858C421.528 326.509 422.25 326.139 422.945 325.735C423.641 325.33 424.29 324.915 424.893 324.484C423.073 322.652 420.851 320.668 421.514 319.918C422.193 319.14 426.276 318.992 429.902 318.771C430.385 317.747 430.682 316.645 430.778 315.516C427.449 314.653 423.656 313.794 423.427 312.943C423.197 312.091 426.355 310.61 429.066 309.196C428.345 308.106 427.48 307.119 426.493 306.263C422.924 306.7 418.957 307.284 417.875 306.656C416.794 306.028 417.801 303.738 418.557 301.677C416.902 301.061 415.205 300.565 413.478 300.191C411.033 301.759 408.445 303.584 406.984 303.446C405.522 303.308 404.019 301.124 402.529 299.204C400.64 299.255 398.756 299.424 396.889 299.711C396.508 301.807 396.248 304.156 394.903 304.553C393.605 304.935 390.167 303.654 386.992 302.6C386.247 302.948 385.516 303.32 384.821 303.724C384.126 304.127 383.484 304.543 382.879 304.975C384.703 306.806 386.914 308.796 386.26 309.539C385.571 310.318 381.503 310.468 377.872 310.689C377.392 311.715 377.095 312.818 376.996 313.947C380.321 314.803 384.117 315.664 384.356 316.516C384.594 317.368 381.421 318.854 378.705 320.263C379.429 321.35 380.294 322.337 381.276 323.198C384.842 322.757 388.817 322.173 389.906 322.804C390.994 323.435 389.975 325.723 389.217 327.784C390.872 328.401 392.57 328.897 394.298 329.268C396.746 327.706 399.334 325.878 400.793 326.008C402.251 326.138 403.754 328.335 405.24 330.257C407.129 330.204 409.013 330.034 410.881 329.748C411.269 327.655 411.519 325.3 412.871 324.905C414.165 324.526 417.61 325.807 420.78 326.858ZM394.505 320.155C389.314 317.158 389.311 312.306 394.505 309.309C399.699 306.313 408.103 306.316 413.292 309.309C418.482 312.303 418.475 317.158 413.287 320.155C408.098 323.151 399.689 323.15 394.5 320.155H394.505Z" fill="#4F839A"/>
<path d="M285.41 268.873C285.217 270.124 285.176 271.395 285.287 272.656C285.567 273.363 287.217 273.213 287.834 273.04C289.862 272.465 294.744 270.046 294.624 268.038C294.574 267.221 293.34 267.299 291.351 268.235C289.362 269.171 288.239 269.006 287.983 268.432C287.726 267.858 285.41 268.873 285.41 268.873Z" fill="#2D2D2D"/>
<path d="M267.213 265.573C267.019 266.826 266.978 268.097 267.09 269.36C267.368 270.065 269.017 269.916 269.637 269.741C271.663 269.168 276.545 266.746 276.42 264.74C276.37 263.921 275.141 264 273.147 264.93C271.154 265.86 270.037 265.701 269.779 265.127C269.521 264.554 267.213 265.573 267.213 265.573Z" fill="#2D2D2D"/>
<path d="M258.23 171.803C258.23 171.803 254.034 179.321 253.521 194.977C254.379 197.972 262.933 196.261 263.875 194.977C264.817 193.692 263.875 190.956 263.875 190.956H260.11L261.249 183.431L258.23 171.803Z" fill="#BC4F34"/>
<path d="M266.619 265.657C266.432 262.937 264.982 237.735 264.892 236.9C264.23 231.366 263.139 225.892 261.63 220.527C260.653 216.014 260.202 211.403 260.284 206.787L274.383 207.377C274.383 207.377 273.383 219.5 273.535 234.572C273.562 237.397 271.066 262.783 271.041 265.536L266.619 265.657Z" fill="#1C0687"/>
<path d="M279.492 238.949C278.29 236.138 273.01 225.646 271.799 222.995C266.138 212.305 266.992 207.477 266.992 207.477L284.607 206.782C284.607 206.782 286.304 232.536 287.675 238.076C287.897 238.962 288.602 268.301 288.79 269.031L285.198 269.371L279.492 238.949Z" fill="#27079B"/>
<path d="M286.152 162.502L274.366 183.367L290.247 192.337L302.033 171.472L286.152 162.502Z" fill="#E8E8E8"/>
<path d="M286.257 162.866L274.795 183.157L290.177 191.845L301.638 171.554L286.257 162.866Z" fill="#574AD8"/>
<path d="M286.535 164.923L276.701 182.332L289.898 189.787L299.732 172.378L286.535 164.923Z" fill="#F6F5FB"/>
<path d="M275.668 155.857C276.575 155.885 277.45 156.2 278.167 156.757C278.884 157.314 279.405 158.084 279.657 158.956C279.834 159.407 279.866 159.903 279.75 160.374C279.609 161.479 279.772 162.601 280.221 163.621C280.904 165.491 279.587 168.7 278.351 170.263C277.896 170.414 277.408 170.438 276.94 170.333C276.472 170.228 276.041 169.998 275.694 169.666L274.741 173.033L267.241 171.123C267.808 168.887 267.808 166.545 267.241 164.31C266.339 160.177 266.674 158.11 269.371 156.733C271.356 155.891 273.529 155.59 275.669 155.86" fill="url(#paint4_linear)"/>
<path d="M278.487 150.828C278.487 150.828 276.51 152.157 270.442 152.586C264.374 153.015 264.168 157.211 264.993 159.356C263.194 160.027 267.069 166.603 267.066 169.16C268.052 169.524 269.103 169.679 270.152 169.615C271.201 169.551 272.225 169.269 273.16 168.788C273.522 168.141 273.749 167.428 273.83 166.691C273.91 165.954 273.841 165.209 273.627 164.499C272.859 162.236 274.283 160.027 275.182 160.639C275.379 160.774 275.653 164.366 275.807 164.404C275.956 164.421 276.106 164.421 276.255 164.404C276.525 164.344 276.181 163.419 276.466 161.874C276.603 161.133 277.574 159.576 277.527 159.16C277.35 158.413 277.118 157.679 276.832 156.966L278.136 156.75C278.136 156.75 279.572 156.894 279.56 155.522C279.502 153.904 279.138 152.311 278.488 150.828" fill="#1C0687"/>
<path d="M285.184 179.1C282.318 176.149 278.795 173.916 274.903 172.583C272.65 171.791 270.319 171.24 267.95 170.939C267.95 170.939 261.692 170.305 258.594 171.553C256.836 172.259 255.553 180.84 257.822 186.487C260.091 192.134 261.594 198.756 259.86 201.937C258.126 205.119 257.072 214.364 257.072 214.364C259.454 215.689 262.049 216.59 264.739 217.027C264.739 217.027 266.339 208.722 266.544 208.722C266.654 208.722 267.38 217.539 267.38 217.539C274.127 218.359 280.965 217.12 286.995 213.985C286.251 209.81 283.243 201.716 282.446 197.817C281.649 193.918 285.185 179.102 285.185 179.102" fill="#E66748"/>
<path d="M292.446 189.274C292.312 188.127 292.312 186.967 292.446 185.82C292.541 185.377 292.535 184.919 292.431 184.479C292.326 184.039 292.125 183.627 291.842 183.274C291.512 182.801 292.077 181.529 293.113 182.66C293.74 183.349 294.15 184.207 294.294 185.127L296.93 180.463C296.93 180.463 299.134 185.211 295.393 191.445C292.938 192.701 292.446 189.274 292.446 189.274Z" fill="url(#paint5_linear)"/>
<path d="M286.716 186.386C287.169 185.097 287.244 183.706 286.933 182.377C286.622 181.047 285.938 179.833 284.961 178.879C284.535 178.47 284.049 178.127 283.521 177.864C280.26 176.259 278.016 179.01 277.888 184.934C277.76 190.858 278.38 199.509 281.791 205.009C283.877 208.169 292.222 206.781 296.519 191.585C295.432 190.043 291.557 189.005 291.557 189.005C291.557 189.005 287.719 198.758 286.25 197.468C284.334 195.786 285.494 189.957 286.715 186.386" fill="#FC8669"/>
<path d="M199.035 145.534C198.378 144.664 197.853 143.703 197.477 142.68C197.19 141.476 196.521 140.397 195.57 139.606C194.421 138.808 193.213 138.101 191.956 137.49C191.691 137.431 190.956 137.763 191.771 138.324C192.586 138.885 193.768 139.652 193.838 140.204C193.882 140.538 192.417 142.718 193.403 144.059C194.389 145.399 193.912 144.317 196.69 147.472C199.049 149.137 199.035 145.534 199.035 145.534Z" fill="#FEC7A9"/>
<path d="M198.531 144.123C197.802 144.189 197.102 144.435 196.492 144.839C195.882 145.242 195.382 145.79 195.036 146.434C195.436 146.845 196.042 147.555 196.761 148.374C199.468 150.289 199.552 145.69 199.552 145.69C199.18 145.189 198.839 144.666 198.531 144.123Z" fill="white"/>
<path d="M223.295 160.519C223.295 160.519 211.707 157.21 208.908 155.357C206.108 153.504 199.278 145.033 199.278 145.033C198.397 145.004 197.533 145.282 196.833 145.819C196.134 146.355 195.641 147.118 195.44 147.976C198.651 154.095 203.986 158.203 206.462 160.292C208.938 162.381 217.746 165.776 220.602 166.074C223.459 166.373 223.295 160.519 223.295 160.519Z" fill="url(#paint6_linear)"/>
<path d="M194.316 183.003C193.866 182.888 193.397 182.87 192.94 182.952C192.483 183.035 192.049 183.214 191.668 183.48C191.13 183.805 190.531 184.019 189.908 184.109C189.285 184.199 188.65 184.163 188.041 184.004C187.731 184.013 187.434 184.129 187.199 184.332C186.965 184.535 186.808 184.813 186.756 185.119C186.703 185.424 186.758 185.739 186.911 186.008C187.064 186.278 187.306 186.487 187.595 186.598C189.224 187.333 191.042 187.542 192.795 187.197C193.362 187.071 194.544 186.446 194.945 186.311C195.347 186.176 194.316 183.003 194.316 183.003Z" fill="#FEC7A9"/>
<path d="M181.589 189.586L175.994 176.99L194.255 168.921L200.779 181.312L181.589 189.586Z" fill="#F23096"/>
<path d="M182.582 188.077L177.808 177.328L193.394 170.439L198.964 181.015L182.582 188.077Z" fill="#F6F5FB"/>
<path d="M221.249 204.769C221.249 204.769 222.813 210.126 222.056 214.315C221.3 218.504 219.834 228.226 219.583 230.954C219.332 233.682 220.34 236.465 220.087 237.974C219.834 239.484 213.218 241.006 213.218 241.006C214.476 240.076 215.369 238.736 215.743 237.217C216.401 234.644 216.655 234.289 216.655 233.074C216.655 231.86 216.276 212.212 216.198 207.219C216.12 202.225 221.249 204.769 221.249 204.769Z" fill="#F9BB9D"/>
<path d="M210.188 206.341C210.208 208.018 210.376 209.691 210.69 211.338C211.119 212.801 212.029 231.453 211.612 235.167C211.194 238.881 208.28 243.915 207.105 244.824C205.93 245.732 206.777 246.011 208.595 245.785C210.414 245.559 211.094 242.78 211.852 241.693C212.609 240.607 215.462 239.295 215.462 239.295C215.269 238.448 215.024 237.613 214.729 236.795C214.428 236.115 215.387 223.763 216.249 220.985C216.964 218.261 217.104 215.417 216.662 212.635C216.307 211.224 217.508 206.342 217.508 206.342L210.188 206.341Z" fill="#FEC7A9"/>
<path d="M218.822 245.078H219.502C219.502 245.078 220.233 240.461 220.437 239.622C220.642 238.782 220.842 236.866 219.428 236.368C218.014 235.87 217.128 236.974 216.622 238.034C216.116 239.095 213.924 242.25 212.455 242.805C211.805 243.071 211.232 243.497 210.79 244.044C210.79 244.044 210.209 244.572 211.7 244.572C213.191 244.572 215.461 244.649 216.346 244.27C217.23 243.892 217.231 243.109 217.255 242.376C217.267 242.037 217.358 241.706 217.52 241.409C217.682 241.111 217.91 240.855 218.188 240.66C218.521 242.929 218.822 245.078 218.822 245.078Z" fill="url(#paint7_linear)"/>
<path d="M216.251 240.833C216.251 240.833 216.134 238.406 214.35 238.482C212.565 238.558 211.678 240.377 211.16 241.868C210.642 243.36 210.415 244.849 208.747 245.076C207.079 245.302 206.996 244.914 206.996 244.914C206.062 244.93 205.146 245.176 204.33 245.632C204.935 246.793 207.333 246.819 209.278 246.843C211.222 246.867 211.5 246.718 211.854 245.859C212.208 245 212.838 242.272 213.976 242.294C214.228 244.557 214.531 247.194 214.531 247.194H215.138C215.138 247.194 215.892 243.733 216.07 242.471C216.248 241.208 216.314 241.321 216.251 240.833Z" fill="url(#paint8_linear)"/>
<path d="M207.885 191.803L208.672 206.639C208.672 206.639 210.033 208.763 215.084 208.459C217.968 208.342 220.764 207.433 223.166 205.833C223.27 203.928 223.473 202.03 223.773 200.147C224.226 197.496 225.438 193.052 225.438 193.052L207.885 191.803Z" fill="#3305AF"/>
<path d="M216.349 157.725C216.349 157.725 209.946 161.537 209.076 165.419C208.819 166.573 206.8 168.157 207.711 171.869C208.622 175.581 209.835 180.475 209.835 182.595C209.835 184.716 207.184 190.248 207.184 193.125C213.317 197.444 222.714 196.989 227.259 193.125C227.184 185.019 225.671 182.519 223.776 178.806C221.882 175.093 224.003 171.912 224.987 168.426C225.971 164.939 227.753 160.356 225.44 157.932C223.128 155.509 218.508 156.748 216.349 157.725Z" fill="url(#paint9_linear)"/>
<path d="M212.94 143.432C212.891 144.462 212.66 145.475 212.258 146.425C211.537 148.357 211.047 150.705 211.612 152.561C212.177 154.417 212.824 155.212 214.531 155.289C215.364 155.479 215.856 156.349 215.97 157.789C218.43 158.773 221.349 157.222 221.311 156.841C220.93 155.175 220.856 154.417 221.502 153.205C222.149 151.993 222.789 146.879 220.518 144.873C218.247 142.866 212.94 143.432 212.94 143.432Z" fill="#FEC7A9"/>
<path d="M213.091 147.144C213.091 147.144 209.416 144.871 211.366 142.223C213.316 139.575 215.844 139.167 218.193 139.016C220.542 138.866 224.835 139.573 226.047 143.36C227.45 145.026 228.471 150.279 228.927 154.267C229.383 158.256 225.24 162.349 219.381 162.349C213.523 162.349 212.695 158.357 212.695 158.357C213.118 158.437 213.553 158.43 213.973 158.337C214.393 158.244 214.791 158.068 215.142 157.818C215.492 157.568 215.789 157.25 216.014 156.883C216.239 156.516 216.387 156.107 216.451 155.681C217.056 152.449 215.847 148.461 215.544 147.603C215.126 147.695 214.692 147.702 214.271 147.623C213.849 147.544 213.448 147.381 213.091 147.144Z" fill="#3305AF"/>
<path d="M192.415 185.251C192.415 185.251 190.38 184.661 190.139 183.72C189.949 182.99 191.009 183.458 191.551 183.785C192.094 184.112 193.475 183.073 194.468 184.088C194.287 185.326 192.415 185.251 192.415 185.251Z" fill="#FEC7A9"/>
<path d="M196 182.261L194.114 182.556C193.859 182.939 193.702 183.379 193.656 183.837C193.611 184.295 193.678 184.757 193.853 185.182C194.416 186.765 194.868 186.939 194.868 186.939L196.843 186.427L196 182.261Z" fill="white"/>
<path d="M210.919 162.605C208.744 163.02 207.803 167.598 208.399 170.666C208.953 173.49 209.329 176.615 207.002 178.407C202.959 179.485 198.977 180.778 195.072 182.281C194.812 183.148 194.84 184.076 195.151 184.925C195.463 185.775 196.041 186.501 196.8 186.994C200.315 185.974 208.175 183.976 209.7 183.219C210.317 182.912 213.391 181.373 214.262 176.035C214.929 173.092 215.412 168.428 214.557 165.965C214.168 164.849 213.092 162.19 210.919 162.605Z" fill="#E66748"/>
<path d="M159.514 115.445L148.741 110.95L147.74 117.626C140.172 123.931 134.417 134.818 133.952 144.267L138.971 141.369C139.365 135.612 142.439 129.174 146.686 124.662L146.096 128.608L159.514 115.445Z" fill="#E66748"/>
<path d="M165.828 139.02L172.796 131.198L168.687 130.283C169.019 128.583 169.19 126.856 169.199 125.124C169.199 118.013 166.023 113.582 161.228 112.706L158.694 119.167C162.008 119.887 164.192 123.029 164.192 128.015C164.192 128.43 164.176 128.847 164.145 129.27L161.11 128.594L159.94 145.628L165.661 139.207L165.733 139.225C165.771 139.153 165.801 139.084 165.828 139.02Z" fill="#E66748"/>
<path d="M157.524 144.713C155.853 146.775 153.834 148.53 151.559 149.897C148.595 151.609 145.869 151.997 143.711 151.262L146.778 148.211L135.909 143.909L133.41 161.51L138.457 156.491C141.685 158.769 146.362 158.678 151.559 155.678C154.934 153.642 157.908 151.005 160.335 147.898L157.524 144.713Z" fill="#E66748"/>
<path d="M175.837 103.973V137.645L211.021 117.332V83.6597L175.837 103.973Z" fill="#574AD8"/>
<path d="M185.012 124.895L204.787 113.479V113.224L185.012 124.64V124.895Z" fill="white"/>
<path d="M185.012 117.765L204.787 106.35V106.096L185.012 117.511V117.765Z" fill="white"/>
<path d="M185.012 110.638L204.787 99.2231V98.9683L185.012 110.384V110.638Z" fill="white"/>
<path d="M185.012 103.51L204.787 92.0942V91.8413L185.012 103.257V103.51Z" fill="white"/>
<path d="M185.011 128.376L204.786 116.96V116.705L185.011 128.121V128.376Z" fill="white"/>
<path d="M185.011 121.248L204.786 109.833V109.58L185.011 120.995V121.248Z" fill="white"/>
<path d="M185.011 114.118L204.786 102.703V102.449L185.011 113.864V114.118Z" fill="white"/>
<path d="M185.012 106.99L204.787 95.5749V95.322L185.012 106.737V106.99Z" fill="white"/>
<path d="M201.192 118.779L203.762 117.296V100.1L201.192 101.583V118.779Z" fill="#E3F4FF"/>
<path d="M201.192 118.778L203.762 117.295V102.541L201.192 104.025V118.778Z" fill="#F23096"/>
<path d="M196.158 121.686L198.727 120.203V96.6567L196.158 98.1398V121.686Z" fill="#E3F4FF"/>
<path d="M196.158 121.686L198.727 120.203V103.451L196.158 104.935V121.686Z" fill="#B7ABFF"/>
<path d="M191.123 124.593L193.693 123.11V101.681L191.123 103.164V124.593Z" fill="#E3F4FF"/>
<path d="M191.122 124.597L193.692 123.114V104.192L191.122 105.674V124.597Z" fill="url(#paint10_linear)"/>
<path d="M186.089 127.5L188.656 126.017V105.754L186.089 107.236V127.5Z" fill="#E3F4FF"/>
<path d="M186.089 127.499L188.656 126.016V108.821L186.089 110.304V127.499Z" fill="#FFEA50"/>
<path d="M178.271 120.118L181.877 118.037V116.034L178.271 118.114V120.118Z" fill="#F23096"/>
<path d="M178.273 124.132L181.877 122.051V120.046L178.273 122.128V124.132Z" fill="#B7ABFF"/>
<path d="M178.271 128.147L181.877 126.066V124.062L178.271 126.144V128.147Z" fill="url(#paint11_linear)"/>
<path d="M178.271 132.161L181.877 130.081V128.076L178.273 130.157L178.271 132.161Z" fill="#FFEA50"/>
<path d="M139.938 297.543C139.938 320.107 108.651 338.396 70.053 338.396C31.4553 338.396 0.172363 320.107 0.172363 297.543C0.172363 274.979 31.4573 256.693 70.053 256.693C108.649 256.693 139.938 274.982 139.938 297.543Z" fill="url(#paint12_radial)"/>
<path d="M103.173 168.26L98.1268 164.79C97.3996 164.184 96.2885 164.173 95.0496 164.888L47.9455 192.084C46.7848 192.84 45.8188 193.86 45.126 195.059C44.4332 196.259 44.033 197.605 43.958 198.988V298.923C43.9187 299.379 43.9873 299.839 44.1583 300.264C44.3292 300.69 44.5977 301.069 44.9421 301.371H44.9342L50.5632 305.209L50.1381 299.96L95.0525 274.029C96.2125 273.273 97.1778 272.253 97.8701 271.054C98.5624 269.854 98.9622 268.508 99.0371 267.125V172.056L103.173 168.26Z" fill="#FFB19E"/>
<path d="M99.0323 172.056L103.172 168.26L98.126 164.79C97.3987 164.184 96.2877 164.173 95.0487 164.888L47.9447 192.084C46.6268 192.921 45.57 194.111 44.894 195.518L99.0323 228.517V172.056Z" fill="#FF9075"/>
<path d="M104.515 270.861C104.441 272.244 104.041 273.59 103.349 274.789C102.657 275.988 101.691 277.008 100.531 277.764L53.4289 304.961C51.2275 306.232 49.4414 305.202 49.4414 302.661V202.726C49.5164 201.342 49.9165 199.996 50.6093 198.796C51.3022 197.596 52.2682 196.577 53.4289 195.82L100.531 168.628C102.731 167.356 104.515 168.386 104.515 170.927V270.861Z" fill="#E66748"/>
<path d="M100.866 266.347C100.802 267.547 100.454 268.714 99.8536 269.754C99.2528 270.794 98.415 271.678 97.4084 272.334L56.5523 295.925C54.6422 297.027 53.0913 296.134 53.0913 293.927V207.24C53.1573 206.039 53.5051 204.872 54.1064 203.831C54.7076 202.79 55.5456 201.906 56.5523 201.249L97.4084 177.664C99.3176 176.56 100.866 177.453 100.866 179.659V266.347Z" fill="#F6F5FB"/>
<path d="M47.5881 227.222C47.6057 227.394 47.5761 227.567 47.5024 227.723C47.4287 227.879 47.3137 228.012 47.17 228.108C47.0262 228.203 46.859 228.257 46.6866 228.265C46.5142 228.272 46.3431 228.232 46.1917 228.149L46.3669 227.928C46.0105 227.696 45.7139 227.384 45.5015 227.016C45.289 226.648 45.1668 226.234 45.1446 225.81L44.812 215.99C44.8178 215.811 44.8701 215.637 44.9639 215.484C45.0577 215.332 45.1897 215.207 45.3468 215.121C45.5039 215.035 45.6807 214.992 45.8596 214.996C46.0385 214.999 46.2134 215.05 46.3669 215.142C46.7228 215.374 47.019 215.686 47.2312 216.054C47.4434 216.422 47.5657 216.835 47.5881 217.259V227.222Z" fill="#5A7A99"/>
<path d="M47.1798 227.503C47.1798 228.284 46.6356 228.6 45.9595 228.21C45.6033 227.978 45.3068 227.665 45.0941 227.297C44.8814 226.929 44.7585 226.516 44.7354 226.091V216.129C44.7354 215.347 45.2854 215.033 45.9595 215.423C46.315 215.655 46.6108 215.967 46.8229 216.335C47.0349 216.702 47.1572 217.115 47.1798 217.539V227.503Z" fill="#0A2F53"/>
<path d="M47.5869 240.619C47.5869 241.399 46.8872 241.975 46.2092 241.583L46.3617 241.324C46.0054 241.092 45.709 240.78 45.4966 240.412C45.2842 240.044 45.1618 239.631 45.1395 239.206L44.8364 229.376C44.8387 229.199 44.8879 229.026 44.9789 228.874C45.0699 228.723 45.1996 228.598 45.3546 228.512C45.5097 228.427 45.6846 228.384 45.8615 228.389C46.0384 228.393 46.211 228.444 46.3617 228.537C46.7179 228.769 47.0142 229.082 47.2264 229.451C47.4386 229.82 47.5608 230.233 47.583 230.658L47.5869 240.619Z" fill="#5A7A99"/>
<path d="M47.1798 240.9C47.1798 241.682 46.6356 241.998 45.9595 241.607C45.6036 241.375 45.3073 241.062 45.0946 240.694C44.8819 240.326 44.7589 239.913 44.7354 239.489V229.53C44.7354 228.749 45.2854 228.434 45.9595 228.824C46.3153 229.056 46.6112 229.368 46.8233 229.736C47.0353 230.104 47.1575 230.516 47.1798 230.94V240.9Z" fill="#0A2F53"/>
<path d="M47.5869 293.747C47.5869 294.529 46.8872 295.102 46.2092 294.712L46.3617 294.453C46.0057 294.221 45.7095 293.909 45.4971 293.541C45.2847 293.173 45.1622 292.76 45.1395 292.335L44.8364 282.503C44.8384 282.326 44.8875 282.153 44.9785 282.001C45.0695 281.849 45.1993 281.724 45.3545 281.639C45.5097 281.554 45.6847 281.512 45.8617 281.516C46.0387 281.521 46.2113 281.573 46.3617 281.666C46.7177 281.898 47.0139 282.21 47.2261 282.578C47.4384 282.946 47.5606 283.359 47.583 283.783L47.5869 293.747Z" fill="#5A7A99"/>
<path d="M47.1798 294.029C47.1798 294.806 46.6356 295.122 45.9595 294.734C45.6038 294.502 45.3076 294.19 45.095 293.823C44.8823 293.455 44.7591 293.043 44.7354 292.619V282.653C44.7354 281.873 45.2854 281.558 45.9595 281.949C46.3158 282.181 46.6121 282.494 46.8242 282.862C47.0362 283.23 47.1581 283.643 47.1798 284.068V294.029Z" fill="#0A2F53"/>
<path d="M54.0354 193.366C53.6213 193.576 53.1635 193.686 52.6991 193.686C52.2346 193.686 51.7768 193.576 51.3627 193.366C51.202 193.311 51.0625 193.207 50.9638 193.068C50.8651 192.93 50.812 192.764 50.812 192.594C50.812 192.425 50.8651 192.259 50.9638 192.121C51.0625 191.982 51.202 191.878 51.3627 191.823C51.7768 191.613 52.2346 191.503 52.6991 191.503C53.1635 191.503 53.6213 191.613 54.0354 191.823C54.1966 191.878 54.3366 191.982 54.4357 192.12C54.5349 192.258 54.5882 192.424 54.5882 192.594C54.5882 192.765 54.5349 192.931 54.4357 193.069C54.3366 193.207 54.1966 193.311 54.0354 193.366Z" fill="#2F2CAF"/>
<path d="M61.7002 188.848C61.2859 189.057 60.8283 189.165 60.3644 189.165C59.9004 189.165 59.4429 189.057 59.0285 188.848C58.8668 188.794 58.7263 188.69 58.6268 188.552C58.5272 188.413 58.4736 188.247 58.4736 188.076C58.4736 187.906 58.5272 187.74 58.6268 187.601C58.7263 187.463 58.8668 187.359 59.0285 187.305C59.4426 187.095 59.9003 186.986 60.3644 186.986C60.8285 186.986 61.2861 187.095 61.7002 187.305C61.861 187.36 62.0004 187.464 62.0991 187.602C62.1979 187.741 62.2509 187.906 62.2509 188.076C62.2509 188.246 62.1979 188.412 62.0991 188.55C62.0004 188.689 61.861 188.793 61.7002 188.848Z" fill="#2F2CAF"/>
<path d="M94.4265 222.81L83.7719 228.836C83.3017 229.115 82.8761 229.463 82.5093 229.869C81.2074 224.51 76.4237 222.724 70.7348 226.008C64.0479 229.869 58.6079 239.294 58.6079 247.012C58.6079 254.73 64.0489 257.874 70.7348 254.012C76.4237 250.728 81.2074 243.42 82.5093 236.555C82.9567 236.511 83.3884 236.366 83.7719 236.132L94.4265 230.106C95.3467 229.507 96.1125 228.698 96.6615 227.747C97.2106 226.796 97.5275 225.728 97.5864 224.632C97.5864 222.619 96.1723 221.802 94.4265 222.81ZM70.7348 250.341C65.8026 253.195 61.7894 250.873 61.7894 245.176C61.7894 239.48 65.8026 232.529 70.7348 229.682C75.667 226.835 79.6801 229.15 79.6801 234.847C79.6801 240.545 75.667 247.492 70.7348 250.341Z" fill="#0A2F53"/>
<path d="M203.283 305.211C203.283 327.775 171.997 346.063 133.4 346.063C94.8035 346.063 63.5176 327.775 63.5176 305.211C63.5176 282.647 94.8025 264.361 133.4 264.361C171.998 264.361 203.283 282.65 203.283 305.211Z" fill="url(#paint13_radial)"/>
<path d="M133.418 292.428L157.481 278.537L133.418 264.646L109.357 278.538L133.418 292.428Z" fill="#FFFACA"/>
<path d="M133.401 306.228L157.481 292.327V278.538L133.401 292.437V306.228Z" fill="#F9ED98"/>
<path d="M133.417 306.228L109.339 292.327V278.538L133.417 292.437V306.228Z" fill="#FCF188"/>
<path d="M133.418 271.638L157.481 257.746L133.418 243.855L109.357 257.746L133.418 271.638Z" fill="#25EFE0"/>
<path d="M133.401 285.436L157.481 271.537V257.746L133.401 271.647V285.436Z" fill="#00EAD9"/>
<path d="M133.417 285.436L109.339 271.537V257.746L133.417 271.647V285.436Z" fill="#00DED3"/>
<path d="M133.418 250.844L157.481 236.953L133.418 223.062L109.357 236.954L133.418 250.844Z" fill="#FC27B5"/>
<path d="M133.401 264.645L157.481 250.744V236.95L133.401 250.855V264.645Z" fill="#F23096"/>
<path d="M133.417 264.645L109.339 250.744V236.95L133.417 250.851V264.645Z" fill="#DB1285"/>
<path d="M133.418 230.057L157.481 216.164L133.418 202.268L109.357 216.163L133.418 230.057Z" fill="#8970F2"/>
<path d="M133.401 243.853L157.481 229.952V216.163L133.401 230.064V243.853Z" fill="#574AD8"/>
<path d="M133.417 243.853L109.339 229.952V216.163L133.417 230.064V243.853Z" fill="#B7ABFF"/>
<path d="M272.624 340.176C272.624 362.74 241.337 381.029 202.74 381.029C164.144 381.029 132.858 362.74 132.858 340.176C132.858 317.612 164.144 299.326 202.74 299.326C241.337 299.326 272.624 317.615 272.624 340.176Z" fill="url(#paint14_radial)"/>
<path d="M335.646 359.594C335.646 382.158 304.361 400.447 265.762 400.447C227.163 400.447 195.879 382.158 195.879 359.594C195.879 337.03 227.164 318.744 265.762 318.744C304.36 318.744 335.646 337.033 335.646 359.594Z" fill="url(#paint15_radial)"/>
<path d="M97.6582 98.5767L55.4736 122.936C54.0042 123.894 52.7813 125.185 51.9042 126.705C51.0271 128.224 50.5204 129.929 50.4253 131.68V157.365C50.4253 160.583 54.4886 163.269 57.2765 161.657L72.9381 150.195L90.7362 155.792V139.91L97.6592 135.915C99.1287 134.957 100.352 133.666 101.229 132.147C102.106 130.628 102.613 128.924 102.708 127.172L105.705 101.951C105.706 98.7273 100.448 96.9668 97.6582 98.5767Z" fill="#294C5B"/>
<path d="M100.721 99.8833L58.5346 124.239C57.0652 125.197 55.8425 126.489 54.9657 128.008C54.0889 129.527 53.5827 131.232 53.4883 132.984V158.668C53.4883 161.887 55.7517 163.195 58.5346 161.581L76.0011 151.498L93.7992 157.096V141.216L100.722 137.219C102.192 136.261 103.414 134.97 104.291 133.452C105.169 131.933 105.675 130.228 105.771 128.477V102.792C105.771 99.5772 103.515 98.2723 100.721 99.8833Z" fill="#4F839A"/>
<path d="M99.405 109.039L60.9097 131.621V133.097L99.405 110.515V109.039Z" fill="#F5F3FF"/>
<path d="M99.405 113.843L60.9097 136.424V137.9L99.405 115.319V113.843Z" fill="#F5F3FF"/>
<path d="M99.405 118.646L60.9097 141.227V142.704L99.405 120.122V118.646Z" fill="#F5F3FF"/>
<path d="M99.405 123.448L60.9097 146.03V147.506L99.405 124.924V123.448Z" fill="#F5F3FF"/>
<path d="M99.405 128.251L60.9097 150.833V152.309L99.405 129.728V128.251Z" fill="#F5F3FF"/>
<defs>
<radialGradient id="paint0_radial" cx="0" cy="0" r="1" gradientUnits="userSpaceOnUse" gradientTransform="translate(-832.365 -821.86) scale(67.7821 40.1656)">
<stop stop-color="#B5CDC7"/>
<stop offset="1" stop-color="white" stop-opacity="0"/>
</radialGradient>
<radialGradient id="paint1_radial" cx="0" cy="0" r="1" gradientUnits="userSpaceOnUse" gradientTransform="translate(-856.814 -782.077) scale(67.7821 40.1656)">
<stop stop-color="#B5CDC7"/>
<stop offset="1" stop-color="white" stop-opacity="0"/>
</radialGradient>
<radialGradient id="paint2_radial" cx="0" cy="0" r="1" gradientUnits="userSpaceOnUse" gradientTransform="translate(2432.88 -685.131) rotate(180) scale(107.799 63.8772)">
<stop stop-color="#B5CDC7"/>
<stop offset="1" stop-color="white" stop-opacity="0"/>
</radialGradient>
<radialGradient id="paint3_radial" cx="0" cy="0" r="1" gradientUnits="userSpaceOnUse" gradientTransform="translate(2615.77 -644.22) rotate(180) scale(107.797 63.8781)">
<stop stop-color="#B5CDC7"/>
<stop offset="1" stop-color="white" stop-opacity="0"/>
</radialGradient>
<linearGradient id="paint4_linear" x1="-135.799" y1="164.398" x2="-122.183" y2="164.398" gradientUnits="userSpaceOnUse">
<stop stop-color="#FFE2C4"/>
<stop offset="1" stop-color="#FFB870"/>
</linearGradient>
<linearGradient id="paint5_linear" x1="-153.011" y1="186.092" x2="-147.185" y2="186.092" gradientUnits="userSpaceOnUse">
<stop stop-color="#FFE2C4"/>
<stop offset="1" stop-color="#FFB870"/>
</linearGradient>
<linearGradient id="paint6_linear" x1="195.44" y1="155.558" x2="223.297" y2="155.558" gradientUnits="userSpaceOnUse">
<stop stop-color="#DC7E67"/>
<stop offset="1" stop-color="#E66748"/>
</linearGradient>
<linearGradient id="paint7_linear" x1="210.679" y1="240.662" x2="220.582" y2="240.662" gradientUnits="userSpaceOnUse">
<stop stop-color="#BF2BB5"/>
<stop offset="1" stop-color="#7614A3"/>
</linearGradient>
<linearGradient id="paint8_linear" x1="204.33" y1="242.837" x2="216.274" y2="242.837" gradientUnits="userSpaceOnUse">
<stop stop-color="#BF2BB5"/>
<stop offset="1" stop-color="#7614A3"/>
</linearGradient>
<linearGradient id="paint9_linear" x1="207.184" y1="176.361" x2="227.259" y2="176.361" gradientUnits="userSpaceOnUse">
<stop stop-color="#E66748"/>
<stop offset="1" stop-color="#9A351D"/>
</linearGradient>
<linearGradient id="paint10_linear" x1="-189.033" y1="124.597" x2="-189.033" y2="104.192" gradientUnits="userSpaceOnUse">
<stop stop-color="#4CC194"/>
<stop offset="0.284" stop-color="#4CD08B"/>
<stop offset="0.68" stop-color="#4CDF82"/>
<stop offset="1" stop-color="#4CE580"/>
</linearGradient>
<linearGradient id="paint11_linear" x1="-178.528" y1="126.104" x2="-174.922" y2="126.104" gradientUnits="userSpaceOnUse">
<stop stop-color="#4CC194"/>
<stop offset="0.284" stop-color="#4CD08B"/>
<stop offset="0.68" stop-color="#4CDF82"/>
<stop offset="1" stop-color="#4CE580"/>
</linearGradient>
<radialGradient id="paint12_radial" cx="0" cy="0" r="1" gradientUnits="userSpaceOnUse" gradientTransform="translate(-686.653 -736.921) scale(67.7817 40.1651)">
<stop stop-color="#B5CDC7"/>
<stop offset="1" stop-color="white" stop-opacity="0"/>
</radialGradient>
<radialGradient id="paint13_radial" cx="0" cy="0" r="1" gradientUnits="userSpaceOnUse" gradientTransform="translate(-719.416 -746.558) scale(67.7812 40.1646)">
<stop stop-color="#B5CDC7"/>
<stop offset="1" stop-color="white" stop-opacity="0"/>
</radialGradient>
<radialGradient id="paint14_radial" cx="0" cy="0" r="1" gradientUnits="userSpaceOnUse" gradientTransform="translate(-755.252 -790.385) scale(67.7816 40.1651)">
<stop stop-color="#B5CDC7"/>
<stop offset="1" stop-color="white" stop-opacity="0"/>
</radialGradient>
<radialGradient id="paint15_radial" cx="0" cy="0" r="1" gradientUnits="userSpaceOnUse" gradientTransform="translate(-787.848 -814.716) scale(67.7821 40.1651)">
<stop stop-color="#B5CDC7"/>
<stop offset="1" stop-color="white" stop-opacity="0"/>
</radialGradient>
</defs>
</svg>
