<svg width="86" height="86" viewBox="0 0 86 86" fill="none" xmlns="http://www.w3.org/2000/svg">
<path d="M53.3233 60.8765C54.2429 60.8765 54.9884 60.1311 54.9884 59.2115C54.9884 58.2919 54.2429 57.5464 53.3233 57.5464C52.4037 57.5464 51.6582 58.2919 51.6582 59.2115C51.6582 60.1311 52.4037 60.8765 53.3233 60.8765Z" fill="#EE6F19"/>
<path d="M59.9634 85.1206H26.7504C26.3099 85.1203 25.8874 84.9451 25.5759 84.6336C25.2644 84.3221 25.0892 83.8996 25.0889 83.4591C25.0898 81.2571 25.9651 79.1455 27.5222 77.5886C29.0794 76.0317 31.191 75.1567 33.393 75.1561H35.0534V67.5168H9.14669C6.94559 67.5143 4.83533 66.6389 3.2788 65.0826C1.72228 63.5263 0.846563 61.4162 0.84375 59.2151L0.84375 8.3984C0.84625 6.19709 1.72182 4.08666 3.27839 2.5301C4.83495 0.973534 6.94538 0.0979594 9.14669 0.095459L77.5659 0.095459C79.7672 0.0979594 81.8777 0.973534 83.4342 2.5301C84.9908 4.08666 85.8664 6.19709 85.8689 8.3984V59.2151C85.8664 61.4164 84.9908 63.5268 83.4342 65.0834C81.8777 66.6399 79.7672 67.5155 77.5659 67.518H51.6592V75.1573H53.3208C55.5221 75.1598 57.6325 76.0354 59.1891 77.5919C60.7457 79.1485 61.6212 81.2589 61.6237 83.4602C61.6231 83.9004 61.448 84.3223 61.1367 84.6336C60.8255 84.9448 60.4035 85.12 59.9634 85.1206ZM33.393 78.478C32.3627 78.4789 31.3579 78.7987 30.5166 79.3935C29.6753 79.9883 29.0387 80.8289 28.6942 81.7999H58.0184C57.6734 80.8296 57.0367 79.9896 56.1958 79.3952C55.3548 78.8007 54.3506 78.4808 53.3208 78.4792L33.393 78.478ZM38.3729 67.5133V75.1537H48.3397V67.5133H38.3729ZM4.16563 54.2317V59.2139C4.1672 60.5345 4.69249 61.8005 5.62628 62.7343C6.56007 63.6681 7.82611 64.1934 9.14669 64.195H77.5659C78.8865 64.1934 80.1525 63.6681 81.0863 62.7343C82.0201 61.8005 82.5454 60.5345 82.547 59.2139V54.2317H4.16563ZM59.9634 11.0554H73.2486C73.6889 11.0561 74.111 11.2314 74.4223 11.5428C74.7336 11.8543 74.9086 12.2766 74.9089 12.717V50.911H82.5482V8.3984C82.5466 7.07782 82.0213 5.81178 81.0875 4.87799C80.1537 3.9442 78.8877 3.41891 77.5671 3.41734H9.14669C7.82611 3.41891 6.56007 3.9442 5.62628 4.87799C4.69249 5.81178 4.1672 7.07782 4.16563 8.3984V50.911H11.8037V26.0021C11.8038 25.7535 11.8599 25.5081 11.9679 25.2842C11.9718 25.2761 11.9754 25.2678 11.9785 25.2594L18.6211 11.9742C18.7592 11.6985 18.9713 11.4666 19.2337 11.3046C19.496 11.1426 19.7983 11.0568 20.1067 11.0568C20.415 11.0568 20.7173 11.1426 20.9797 11.3046C21.242 11.4666 21.4541 11.6985 21.5922 11.9742L28.2407 25.2582C28.2438 25.267 28.2474 25.2757 28.2514 25.2842C28.3594 25.5081 28.4155 25.7535 28.4155 26.0021V50.911H36.7279C36.7468 49.1939 36.7952 47.4922 36.8684 45.8555C37.0358 41.2836 37.5013 36.7274 38.2619 32.2161C36.7761 30.9613 35.779 29.224 35.445 27.3082C35.111 25.3924 35.4615 23.4202 36.435 21.7367L42.1931 11.7675C42.3388 11.5149 42.5484 11.3051 42.8009 11.1593C43.0534 11.0134 43.3399 10.9366 43.6315 10.9366C43.9231 10.9366 44.2095 11.0134 44.462 11.1593C44.7145 11.3051 44.9241 11.5149 45.0698 11.7675L50.8255 21.7355C51.8475 23.5033 52.1812 25.5861 51.7629 27.5847C51.3445 29.5833 50.2034 31.3573 48.5582 32.5668C49.2675 36.9646 49.7014 41.4024 49.8572 45.8543C49.928 47.497 49.9753 49.1963 49.9906 50.9074H58.303V12.717C58.3033 12.2766 58.4783 11.8543 58.7896 11.5428C59.1009 11.2314 59.523 11.0561 59.9634 11.0554ZM61.6237 14.3773V50.911H71.5882V47.5891H69.9267C69.4863 47.5891 69.064 47.4141 68.7526 47.1028C68.4412 46.7914 68.2663 46.3691 68.2663 45.9287C68.2663 45.4884 68.4412 45.0661 68.7526 44.7547C69.064 44.4433 69.4863 44.2684 69.9267 44.2684H71.587V37.6258H69.9267C69.4863 37.6258 69.064 37.4509 68.7526 37.1395C68.4412 36.8281 68.2663 36.4058 68.2663 35.9654C68.2663 35.5251 68.4412 35.1028 68.7526 34.7914C69.064 34.48 69.4863 34.3051 69.9267 34.3051H71.587V29.3228H69.9267C69.4863 29.3228 69.064 29.1479 68.7526 28.8365C68.4412 28.5252 68.2663 28.1028 68.2663 27.6625C68.2663 27.2221 68.4412 26.7998 68.7526 26.4884C69.064 26.1771 69.4863 26.0021 69.9267 26.0021H71.587V21.0187H69.9267C69.4863 21.0187 69.064 20.8438 68.7526 20.5324C68.4412 20.221 68.2663 19.7987 68.2663 19.3584C68.2663 18.918 68.4412 18.4957 68.7526 18.1843C69.064 17.873 69.4863 17.698 69.9267 17.698H71.587V14.3761L61.6237 14.3773ZM40.1195 47.5891C40.0817 48.6979 40.0569 49.8151 40.0439 50.911H46.6699C46.6593 49.8623 46.6357 48.744 46.6003 47.5903L40.1195 47.5891ZM21.7694 27.6578V50.9098H25.0877V27.6578H21.7694ZM15.1209 27.6578V50.9098H18.4392V27.6578H15.1209ZM41.3488 33.8693C41.0075 35.995 40.5422 39.5318 40.2659 44.2613H46.4467C46.1834 39.5259 45.7382 36.0587 45.4182 33.9874C44.0731 34.2879 42.6742 34.2473 41.3488 33.8693ZM43.6267 15.9196L39.307 23.3971C38.8715 24.1544 38.6428 25.013 38.6439 25.8866C38.645 26.7602 38.8759 27.6182 39.3134 28.3744C39.7508 29.1306 40.3795 29.7585 41.1363 30.195C41.8931 30.6315 42.7513 30.8613 43.625 30.8613C44.4986 30.8613 45.3569 30.6315 46.1137 30.195C46.8704 29.7585 47.4991 29.1306 47.9366 28.3744C48.374 27.6182 48.6049 26.7602 48.606 25.8866C48.6071 25.013 48.3785 24.1544 47.9429 23.3971L43.6267 15.9196ZM20.1019 16.4262L16.1459 24.3382H24.058L20.1019 16.4262Z" fill="#0A2F53"/>
<path d="M46.678 57.5537H36.7136C36.2732 57.5537 35.8509 57.7286 35.5395 58.04C35.2282 58.3514 35.0532 58.7737 35.0532 59.2141C35.0532 59.6544 35.2282 60.0767 35.5395 60.3881C35.8509 60.6995 36.2732 60.8744 36.7136 60.8744H46.678C47.1184 60.8744 47.5407 60.6995 47.8521 60.3881C48.1635 60.0767 48.3384 59.6544 48.3384 59.2141C48.3384 58.7737 48.1635 58.3514 47.8521 58.04C47.5407 57.7286 47.1184 57.5537 46.678 57.5537Z" fill="#EE6F19"/>
</svg>
