<svg width="94" height="17" viewBox="0 0 94 17" fill="none" xmlns="http://www.w3.org/2000/svg">
<path d="M16.9902 6.1677C16.9361 5.99881 16.8333 5.84966 16.6947 5.739C16.5561 5.62834 16.3879 5.56109 16.2112 5.5457L11.2942 5.1037L9.35124 0.549704C9.28147 0.38658 9.16533 0.247532 9.01725 0.149812C8.86917 0.0520917 8.69566 0 8.51824 0C8.34082 0 8.1673 0.0520917 8.01922 0.149812C7.87114 0.247532 7.75501 0.38658 7.68524 0.549704L5.74224 5.1037L0.824238 5.5457C0.647625 5.56171 0.479592 5.62919 0.340969 5.73979C0.202345 5.85038 0.0992265 5.99923 0.0443951 6.16788C-0.0104362 6.33652 -0.0145691 6.51755 0.0325089 6.68853C0.0795869 6.8595 0.175806 7.0129 0.309238 7.1297L4.02624 10.3887L2.92624 15.2157C2.88652 15.3886 2.89852 15.5695 2.96074 15.7356C3.02296 15.9018 3.13267 16.046 3.2762 16.1504C3.41974 16.2547 3.59078 16.3145 3.76805 16.3224C3.94532 16.3303 4.121 16.2859 4.27324 16.1947L8.51324 13.6597L12.7522 16.1947C12.9045 16.2857 13.0802 16.33 13.2575 16.322C13.4347 16.3141 13.6057 16.2542 13.7493 16.15C13.8928 16.0457 14.0026 15.9016 14.065 15.7355C14.1274 15.5694 14.1396 15.3887 14.1002 15.2157L13.0002 10.3887L16.7172 7.1297C16.8506 7.01278 16.9466 6.85931 16.9936 6.68831C17.0405 6.51731 17.0362 6.33629 16.9812 6.1677H16.9902Z" fill="#0A2F53"/>
<path d="M36.1743 6.1677C36.1202 5.99881 36.0174 5.84966 35.8788 5.739C35.7402 5.62834 35.572 5.56109 35.3953 5.5457L30.4783 5.1037L28.5353 0.549704C28.4655 0.38658 28.3494 0.247532 28.2013 0.149812C28.0533 0.0520917 27.8797 0 27.7023 0C27.5249 0 27.3514 0.0520917 27.2033 0.149812C27.0552 0.247532 26.9391 0.38658 26.8693 0.549704L24.9263 5.1037L20.0083 5.5457C19.8317 5.56171 19.6637 5.62919 19.5251 5.73979C19.3864 5.85038 19.2833 5.99923 19.2285 6.16788C19.1736 6.33652 19.1695 6.51755 19.2166 6.68853C19.2637 6.8595 19.3599 7.0129 19.4933 7.1297L23.2103 10.3887L22.1103 15.2157C22.0706 15.3886 22.0826 15.5695 22.1448 15.7356C22.207 15.9018 22.3167 16.046 22.4603 16.1504C22.6038 16.2547 22.7749 16.3145 22.9521 16.3224C23.1294 16.3303 23.3051 16.2859 23.4573 16.1947L27.6973 13.6597L31.9363 16.1947C32.0886 16.2857 32.2643 16.33 32.4415 16.322C32.6188 16.3141 32.7898 16.2542 32.9333 16.15C33.0769 16.0457 33.1867 15.9016 33.2491 15.7355C33.3115 15.5694 33.3237 15.3887 33.2843 15.2157L32.1843 10.3887L35.9013 7.1297C36.0346 7.01278 36.1307 6.85931 36.1776 6.68831C36.2246 6.51731 36.2203 6.33629 36.1653 6.1677H36.1743Z" fill="#0A2F53"/>
<path d="M55.3584 6.1677C55.3043 5.99881 55.2015 5.84966 55.0629 5.739C54.9243 5.62834 54.7561 5.56109 54.5794 5.5457L49.6624 5.1037L47.7194 0.549704C47.6496 0.38658 47.5335 0.247532 47.3854 0.149812C47.2373 0.0520917 47.0638 0 46.8864 0C46.709 0 46.5355 0.0520917 46.3874 0.149812C46.2393 0.247532 46.1232 0.38658 46.0534 0.549704L44.1104 5.1037L39.1924 5.5457C39.0158 5.56171 38.8478 5.62919 38.7091 5.73979C38.5705 5.85038 38.4674 5.99923 38.4126 6.16788C38.3577 6.33652 38.3536 6.51755 38.4007 6.68853C38.4478 6.8595 38.544 7.0129 38.6774 7.1297L42.3944 10.3887L41.2944 15.2157C41.2547 15.3886 41.2667 15.5695 41.3289 15.7356C41.3911 15.9018 41.5008 16.046 41.6444 16.1504C41.7879 16.2547 41.9589 16.3145 42.1362 16.3224C42.3135 16.3303 42.4892 16.2859 42.6414 16.1947L46.8814 13.6597L51.1204 16.1947C51.2727 16.2857 51.4484 16.33 51.6256 16.322C51.8029 16.3141 51.9739 16.2542 52.1174 16.15C52.261 16.0457 52.3708 15.9016 52.4332 15.7355C52.4955 15.5694 52.5078 15.3887 52.4684 15.2157L51.3684 10.3887L55.0854 7.1297C55.2187 7.01278 55.3148 6.85931 55.3617 6.68831C55.4087 6.51731 55.4044 6.33629 55.3494 6.1677H55.3584Z" fill="#0A2F53"/>
<path d="M74.542 6.1677C74.4879 5.99881 74.3851 5.84966 74.2465 5.739C74.1079 5.62834 73.9397 5.56109 73.763 5.5457L68.846 5.1037L66.903 0.549704C66.8332 0.38658 66.7171 0.247532 66.569 0.149812C66.4209 0.0520917 66.2474 0 66.07 0C65.8926 0 65.7191 0.0520917 65.571 0.149812C65.4229 0.247532 65.3068 0.38658 65.237 0.549704L63.294 5.1037L58.376 5.5457C58.1994 5.56171 58.0314 5.62919 57.8927 5.73979C57.7541 5.85038 57.651 5.99923 57.5962 6.16788C57.5413 6.33652 57.5372 6.51755 57.5843 6.68853C57.6313 6.8595 57.7276 7.0129 57.861 7.1297L61.578 10.3887L60.478 15.2157C60.4383 15.3886 60.4503 15.5695 60.5125 15.7356C60.5747 15.9018 60.6844 16.046 60.828 16.1504C60.9715 16.2547 61.1425 16.3145 61.3198 16.3224C61.4971 16.3303 61.6728 16.2859 61.825 16.1947L66.065 13.6597L70.304 16.1947C70.4563 16.2857 70.632 16.33 70.8092 16.322C70.9865 16.3141 71.1575 16.2542 71.301 16.15C71.4446 16.0457 71.5544 15.9016 71.6167 15.7355C71.6791 15.5694 71.6914 15.3887 71.652 15.2157L70.552 10.3887L74.269 7.1297C74.4023 7.01278 74.4984 6.85931 74.5453 6.68831C74.5922 6.51731 74.588 6.33629 74.533 6.1677H74.542Z" fill="#0A2F53"/>
<path d="M93.7261 6.1677C93.672 5.99881 93.5692 5.84966 93.4306 5.739C93.292 5.62834 93.1238 5.56109 92.9471 5.5457L88.0301 5.1037L86.0871 0.549704C86.0173 0.38658 85.9012 0.247532 85.7531 0.149812C85.605 0.0520917 85.4315 0 85.2541 0C85.0767 0 84.9031 0.0520917 84.7551 0.149812C84.607 0.247532 84.4908 0.38658 84.4211 0.549704L82.4781 5.1037L77.5601 5.5457C77.3835 5.56171 77.2154 5.62919 77.0768 5.73979C76.9382 5.85038 76.8351 5.99923 76.7802 6.16788C76.7254 6.33652 76.7213 6.51755 76.7683 6.68853C76.8154 6.8595 76.9116 7.0129 77.0451 7.1297L80.7621 10.3887L79.6621 15.2157C79.6224 15.3886 79.6344 15.5695 79.6966 15.7356C79.7588 15.9018 79.8685 16.046 80.012 16.1504C80.1556 16.2547 80.3266 16.3145 80.5039 16.3224C80.6812 16.3303 80.8568 16.2859 81.0091 16.1947L85.2491 13.6597L89.4881 16.1947C89.6404 16.2857 89.8161 16.33 89.9933 16.322C90.1705 16.3141 90.3415 16.2542 90.4851 16.15C90.6287 16.0457 90.7384 15.9016 90.8008 15.7355C90.8632 15.5694 90.8755 15.3887 90.8361 15.2157L89.7361 10.3887L93.4531 7.1297C93.5864 7.01278 93.6825 6.85931 93.7294 6.68831C93.7763 6.51731 93.772 6.33629 93.7171 6.1677H93.7261Z" fill="#0A2F53"/>
</svg>
