<svg width="15" height="15" viewBox="0 0 15 15" fill="none" xmlns="http://www.w3.org/2000/svg">
<path d="M0.788086 4.35112L0.788086 10.1201C0.788086 11.181 1.20951 12.1984 1.95966 12.9485C2.7098 13.6987 3.72722 14.1201 4.78809 14.1201H10.5581C11.619 14.1201 12.6364 13.6987 13.3865 12.9485C14.1367 12.1984 14.5581 11.181 14.5581 10.1201V4.35012C14.5581 3.28925 14.1367 2.27184 13.3865 1.52169C12.6364 0.771544 11.619 0.350117 10.5581 0.350117H4.78809C4.26271 0.350117 3.74249 0.453613 3.25712 0.654695C2.77175 0.855776 2.33075 1.1505 1.95931 1.52204C1.58786 1.89358 1.29324 2.33466 1.09228 2.82008C0.891321 3.30549 0.787955 3.82575 0.788086 4.35112ZM10.5571 1.42712C11.3323 1.42791 12.0756 1.73623 12.6238 2.28441C13.172 2.8326 13.4803 3.57587 13.4811 4.35112V10.1201C13.4803 10.8954 13.172 11.6386 12.6238 12.1868C12.0756 12.735 11.3323 13.0433 10.5571 13.0441H4.78809C4.01284 13.0433 3.26957 12.735 2.72138 12.1868C2.1732 11.6386 1.86488 10.8954 1.86409 10.1201L1.86409 4.35012C1.86514 3.57504 2.17358 2.83203 2.72174 2.28406C3.26989 1.73609 4.01301 1.42791 4.78809 1.42712H10.5571Z" fill="url(#paint0_linear)"/>
<path d="M3.96094 7.23626C3.96094 7.97023 4.17859 8.68772 4.58636 9.29799C4.99413 9.90826 5.5737 10.3839 6.2518 10.6648C6.9299 10.9457 7.67606 11.0191 8.39592 10.876C9.11578 10.7328 9.77702 10.3793 10.296 9.86033C10.815 9.34134 11.1684 8.6801 11.3116 7.96024C11.4548 7.24038 11.3813 6.49422 11.1005 5.81612C10.8196 5.13803 10.3439 4.55845 9.73366 4.15068C9.12339 3.74291 8.4059 3.52527 7.67194 3.52527C6.68804 3.52633 5.74475 3.91764 5.04903 4.61336C4.35332 5.30908 3.962 6.25237 3.96094 7.23626ZM10.3079 7.23626C10.3079 7.75742 10.1534 8.26687 9.86386 8.70019C9.57432 9.13352 9.16279 9.47125 8.6813 9.67068C8.19982 9.87012 7.67001 9.9223 7.15887 9.82063C6.64773 9.71896 6.17822 9.468 5.80971 9.09949C5.4412 8.73098 5.19024 8.26147 5.08857 7.75033C4.9869 7.23919 5.03908 6.70938 5.23852 6.2279C5.43795 5.74641 5.77568 5.33488 6.20901 5.04534C6.64233 4.7558 7.15178 4.60126 7.67294 4.60126C8.37154 4.60206 9.0413 4.87993 9.53529 5.37391C10.0293 5.8679 10.3071 6.53766 10.3079 7.23626Z" fill="url(#paint1_linear)"/>
<path d="M4.44612 3.47079C4.44612 3.17366 4.20525 2.93279 3.90812 2.93279C3.61099 2.93279 3.37012 3.17366 3.37012 3.47079C3.37012 3.76792 3.61099 4.00879 3.90812 4.00879C4.20525 4.00879 4.44612 3.76792 4.44612 3.47079Z" fill="url(#paint2_linear)"/>
<defs>
<linearGradient id="paint0_linear" x1="0.788086" y1="7.23512" x2="14.5581" y2="7.23512" gradientUnits="userSpaceOnUse">
<stop stop-color="#0A2F53"/>
<stop offset="1" stop-color="#3F6C98"/>
</linearGradient>
<linearGradient id="paint1_linear" x1="3.96094" y1="7.23627" x2="11.3829" y2="7.23627" gradientUnits="userSpaceOnUse">
<stop stop-color="#0A2F53"/>
<stop offset="1" stop-color="#3F6C98"/>
</linearGradient>
<linearGradient id="paint2_linear" x1="3.37012" y1="3.47079" x2="4.44612" y2="3.47079" gradientUnits="userSpaceOnUse">
<stop stop-color="#0A2F53"/>
<stop offset="1" stop-color="#3F6C98"/>
</linearGradient>
</defs>
</svg>
