<svg width="15" height="25" viewBox="0 0 15 25" fill="none" xmlns="http://www.w3.org/2000/svg">
<path d="M12.4042 24.2088C12.1845 24.2091 11.9668 24.1659 11.7638 24.0819C11.5608 23.9978 11.3764 23.8744 11.2212 23.7188L1.18622 13.6838C1.0309 13.5285 0.907686 13.3442 0.823622 13.1413C0.739557 12.9384 0.696289 12.7209 0.696289 12.5013C0.696289 12.2817 0.739557 12.0642 0.823622 11.8613C0.907686 11.6584 1.0309 11.4741 1.18622 11.3188L11.2212 1.28381C11.3748 1.12111 11.5595 0.990867 11.7643 0.9008C11.9691 0.810733 12.19 0.762669 12.4137 0.75945C12.6374 0.756232 12.8595 0.797925 13.0669 0.882062C13.2742 0.9662 13.4625 1.09107 13.6207 1.24929C13.779 1.40751 13.9038 1.59585 13.988 1.80318C14.0721 2.01051 14.1138 2.23262 14.1106 2.45635C14.1074 2.68008 14.0593 2.90089 13.9692 3.10571C13.8792 3.31054 13.7489 3.49521 13.5862 3.64881L4.73422 12.5008L13.5862 21.3528C13.8203 21.5867 13.9798 21.8847 14.0445 22.2092C14.1091 22.5338 14.076 22.8702 13.9493 23.1759C13.8226 23.4816 13.6081 23.7428 13.3329 23.9265C13.0577 24.1102 12.7341 24.2081 12.4032 24.2078L12.4042 24.2088Z" fill="#0A2F53" fill-opacity="0.85"/>
</svg>
