<svg width="33" height="33" viewBox="0 0 33 33" fill="none" xmlns="http://www.w3.org/2000/svg">
<path d="M15.3535 28.0421C14.5494 27.8297 13.856 27.3197 13.4136 26.6155C12.9712 25.9112 12.8128 25.0652 12.9705 24.2486C13.4247 21.8996 10.6255 17.3264 8.56301 16.6156C7.96855 16.41 7.4457 16.0379 7.05678 15.5436C6.66785 15.0493 6.42924 14.4535 6.36938 13.8274C6.30952 13.2013 6.43094 12.5711 6.71916 12.0121C7.00737 11.453 7.45025 10.9886 7.995 10.6741C8.53976 10.3597 9.16343 10.2085 9.7917 10.2386C10.42 10.2686 11.0264 10.4787 11.5386 10.8437C12.0508 11.2087 12.4473 11.7133 12.6809 12.2973C12.9144 12.8814 12.9751 13.5202 12.8557 14.1378C12.5003 15.9737 14.6806 20.1725 16.2399 21.2577C18.1577 19.898 23.8749 9.39786 23.4906 7.41324C23.3712 6.79568 23.4319 6.15682 23.6654 5.57278C23.899 4.98874 24.2955 4.48416 24.8077 4.11914C25.3199 3.75412 25.9263 3.54407 26.5546 3.514C27.1829 3.48394 27.8065 3.63514 28.3513 3.94957C28.8961 4.26401 29.3389 4.72844 29.6272 5.28751C29.9154 5.84658 30.0368 6.47672 29.9769 7.10286C29.9171 7.729 29.6785 8.32472 29.2895 8.81906C28.9006 9.31339 28.3778 9.68549 27.7833 9.89102C25.8077 10.5729 18.9094 21.3106 19.4824 24.2665C19.5888 24.8177 19.5521 25.3869 19.3757 25.9198C19.1993 26.4527 18.8891 26.9314 18.4749 27.3102C18.0606 27.689 17.5561 27.9552 17.0096 28.0833C16.4631 28.2115 15.8929 28.1973 15.3535 28.0421Z" fill="#EE6F19"/>
<path d="M32.4687 16.7686C32.4681 20.3263 31.2988 23.7853 29.1407 26.6136C26.9825 29.442 23.955 31.4831 20.5238 32.4231C17.0925 33.3631 13.4475 33.1499 10.1492 31.8164C6.85091 30.4829 4.08199 28.1028 2.26823 25.0422C0.454465 21.9816 -0.303696 18.4099 0.110328 14.8764C0.524353 11.3429 2.08764 8.04318 4.55979 5.48475C7.03194 2.92632 10.2761 1.2508 13.7933 0.715849C17.3105 0.180897 20.9061 0.816132 24.0271 2.52387C23.333 2.95837 22.7561 3.55653 22.347 4.2659C22.2678 4.40234 22.1956 4.5421 22.1303 4.68519C19.5062 3.40269 16.5358 3.0094 13.6683 3.56479C10.8008 4.12017 8.19202 5.59403 6.23643 7.76354C4.28085 9.93305 3.08475 12.6803 2.82896 15.5898C2.57317 18.4994 3.27161 21.4132 4.81867 23.8906C6.36574 26.368 8.67732 28.2745 11.404 29.3216C14.1306 30.3688 17.124 30.4998 19.9317 29.6948C22.7394 28.8899 25.2087 27.1927 26.9663 24.8598C28.7238 22.527 29.6741 19.6854 29.6735 16.7646" fill="#0A2F53"/>
<path d="M31.6362 20.2261H25.9399V16.6143H32.4698L31.6362 20.2261Z" fill="#0A2F53"/>
</svg>
