<svg width="219" height="33" viewBox="0 0 219 33" fill="none" xmlns="http://www.w3.org/2000/svg">
<g clip-path="url(#clip0_4_175)">
<path d="M44.1623 22.4479L38.3022 7.50635H40.2549L45.1276 19.9711L50.0003 7.50635H51.954L46.094 22.4479H44.1623Z" fill="#0A2F53"/>
<path d="M54.5526 9.68194C54.3069 9.67679 54.0706 9.58692 53.8835 9.42755C53.6965 9.26818 53.5702 9.04908 53.5261 8.80733C53.482 8.56557 53.5228 8.31601 53.6415 8.10085C53.7602 7.88569 53.9496 7.71816 54.1777 7.62659C54.4057 7.53502 54.6584 7.52504 54.893 7.59833C55.1275 7.67162 55.3296 7.82369 55.4649 8.02881C55.6002 8.23393 55.6606 8.4795 55.6357 8.72398C55.6108 8.96846 55.5022 9.19684 55.3283 9.37047C55.2272 9.47267 55.1062 9.55305 54.9728 9.60662C54.8393 9.66019 54.6963 9.68583 54.5526 9.68194ZM53.6462 11.7155H55.4581V22.4492H53.6462V11.7155Z" fill="#0A2F53"/>
<path d="M61.1785 22.4456C60.677 22.4469 60.1782 22.3721 59.6991 22.2239C59.2388 22.0844 58.8061 21.8662 58.4202 21.579C58.0429 21.3111 57.7327 20.9595 57.5138 20.5518C57.2741 20.1429 57.149 19.677 57.1514 19.2031H58.9643C58.9575 19.4112 59.0255 19.6148 59.156 19.7771C59.2594 19.9078 59.3777 20.0261 59.5084 20.1295C60.0039 20.4579 60.5851 20.6331 61.1795 20.6331C61.774 20.6331 62.3552 20.4579 62.8507 20.1295C62.9813 20.026 63.0995 19.9077 63.2031 19.7771C63.3336 19.6148 63.4016 19.4112 63.3948 19.2031C63.3969 19.0285 63.3557 18.8562 63.2749 18.7015C63.194 18.5468 63.0761 18.4145 62.9316 18.3166C62.7305 18.1812 62.5144 18.0696 62.2876 17.9842C61.9185 17.8534 61.5311 17.782 61.1396 17.7725H61.1196C60.2561 17.7278 59.424 17.4341 58.7237 16.927C58.1996 16.5562 57.8266 16.009 57.6731 15.3856C57.5196 14.7622 57.596 14.1044 57.8881 13.5327C58.089 13.142 58.3744 12.8009 58.7237 12.5344C59.0608 12.2652 59.4427 12.0574 59.8518 11.9205C60.7152 11.6385 61.6459 11.6385 62.5093 11.9205C62.918 12.0575 63.2995 12.2653 63.6364 12.5344C63.9859 12.8009 64.2717 13.142 64.4729 13.5327C64.6658 13.9097 64.7658 14.3273 64.7644 14.7507H62.9525C62.9459 14.5737 62.8945 14.4014 62.803 14.2498C62.7115 14.0982 62.5829 13.9724 62.4294 13.8841C62.0562 13.6476 61.6234 13.522 61.1815 13.522C60.7397 13.522 60.3069 13.6476 59.9337 13.8841C59.7801 13.9723 59.6515 14.0981 59.56 14.2497C59.4685 14.4013 59.417 14.5737 59.4106 14.7507C59.4208 14.92 59.4742 15.0839 59.5658 15.2267C59.6574 15.3694 59.784 15.4864 59.9337 15.5663C60.3258 15.8144 60.7785 15.9501 61.2424 15.9586C62.2429 15.9802 63.2149 16.2954 64.0377 16.8651C64.3991 17.143 64.6949 17.4972 64.9042 17.9023C65.1058 18.3049 65.2085 18.7498 65.2037 19.2001C65.2061 19.674 65.081 20.1399 64.8413 20.5488C64.6138 20.9505 64.3051 21.3003 63.9349 21.576C63.549 21.8632 63.1163 22.0814 62.656 22.2209C62.1769 22.3691 61.6781 22.4438 61.1765 22.4426" fill="#0A2F53"/>
<path d="M75.6353 11.7148V22.4476H73.8224V21.582C73.056 22.1552 72.1219 22.4594 71.165 22.4476C70.5797 22.4556 69.9989 22.3437 69.4586 22.1186C68.9182 21.8935 68.4298 21.56 68.0233 21.1388C67.6042 20.7266 67.2724 20.2342 67.0475 19.691C66.8227 19.1479 66.7094 18.565 66.7145 17.9772V11.7148H68.5274V17.9772C68.5256 18.3306 68.5977 18.6805 68.7391 19.0044C68.8745 19.318 69.0656 19.6045 69.3031 19.85C69.5415 20.094 69.8254 20.289 70.1387 20.424C70.4631 20.5638 70.8127 20.6359 71.1659 20.6359C71.5192 20.6359 71.8688 20.5638 72.1932 20.424C72.8302 20.1493 73.3381 19.6414 73.6128 19.0044C73.754 18.6805 73.8261 18.3306 73.8244 17.9772V11.7148H75.6353Z" fill="#0A2F53"/>
<path d="M87.9016 11.7148V22.4476H86.0897V21.0989C85.6009 21.5243 85.0423 21.8621 84.4385 22.0972C83.1575 22.5837 81.7396 22.5658 80.4712 22.0473C79.3207 21.5741 78.3703 20.7161 77.7825 19.6197C77.1947 18.5234 77.006 17.2569 77.2486 16.0368C77.4913 14.8167 78.1502 13.7189 79.1128 12.9309C80.0753 12.1429 81.2818 11.7137 82.5257 11.7168C83.1797 11.7138 83.8285 11.8334 84.4385 12.0692C85.0422 12.3045 85.6009 12.6422 86.0897 13.0675V11.7148H87.9016ZM82.5257 20.6357C83.0032 20.6396 83.4762 20.5437 83.9144 20.3541C84.766 19.9878 85.4448 19.309 85.8111 18.4574C86.0006 18.0188 86.0965 17.5455 86.0927 17.0677C86.0952 16.5969 85.9993 16.1307 85.8111 15.6991C85.4449 14.8474 84.766 14.1686 83.9144 13.8023C83.4761 13.6129 83.0032 13.517 82.5257 13.5208C82.0546 13.5182 81.5881 13.6141 81.1561 13.8023C80.3045 14.1687 79.6257 14.8475 79.2593 15.6991C79.0712 16.1307 78.9753 16.5969 78.9778 17.0677C78.9739 17.5455 79.0698 18.0188 79.2593 18.4574C79.6258 19.3089 80.3045 19.9877 81.1561 20.3541C81.588 20.5425 82.0545 20.6384 82.5257 20.6357Z" fill="#0A2F53"/>
<path d="M91.2162 6.70215H89.4043V22.4483H91.2162V6.70215Z" fill="#0A2F53"/>
<path d="M113.914 14.0701V22.4468H112.105V19.8513C112.038 19.9178 111.975 19.9844 111.913 20.0509C111.853 20.1178 111.789 20.1847 111.722 20.2506C110.677 21.3028 109.343 22.0211 107.889 22.3141C106.435 22.6072 104.927 22.462 103.556 21.8968C102.185 21.3316 101.012 20.372 100.187 19.1396C99.3623 17.9072 98.9219 16.4576 98.9219 14.9746C98.9219 13.4915 99.3623 12.0419 100.187 10.8095C101.012 9.57712 102.185 8.61749 103.556 8.05232C104.927 7.48714 106.435 7.34189 107.889 7.63497C109.343 7.92805 110.677 8.64627 111.722 9.69854L110.453 10.9674C109.93 10.4397 109.307 10.0219 108.62 9.73848C107.225 9.17467 105.665 9.17467 104.27 9.73848C102.887 10.3157 101.787 11.4156 101.21 12.7993C100.646 14.1943 100.646 15.7538 101.21 17.1489C101.787 18.5325 102.887 19.6324 104.27 20.2096C105.665 20.7734 107.225 20.7734 108.62 20.2096C109.307 19.9263 109.93 19.5085 110.453 18.9807C111.29 18.1381 111.839 17.0525 112.023 15.879H106.446V14.0701H113.914Z" fill="#0A2F53"/>
<path d="M120.72 11.7156C121.557 11.6737 122.393 11.8325 123.157 12.1788L122.432 13.83C121.926 13.6038 121.374 13.5011 120.821 13.5305C120.247 13.5657 119.689 13.7309 119.189 14.0136C118.649 14.3252 118.204 14.7776 117.901 15.3224C117.598 15.8495 117.438 16.4466 117.437 17.0545V22.4513H115.625V11.7156H117.437V13.0653C117.69 12.8254 117.974 12.6221 118.283 12.4613C119.02 12.0134 119.858 11.7574 120.72 11.7166" fill="#0A2F53"/>
<path d="M125.653 21.0425L126.751 19.579L126.739 19.569C126.415 19.245 126.156 18.8626 125.975 18.442C125.784 18.0035 125.688 17.5302 125.692 17.0523C125.69 16.5814 125.786 16.1151 125.975 15.6837C126.341 14.8321 127.02 14.1533 127.871 13.7869C128.303 13.5988 128.77 13.5029 129.241 13.5054C129.719 13.5015 130.192 13.5974 130.631 13.7869C130.748 13.8386 130.863 13.8963 130.974 13.9596L132.072 12.4951C131.827 12.341 131.57 12.2075 131.304 12.0958C130.649 11.8277 129.947 11.692 129.24 11.6964C128.535 11.6911 127.837 11.8269 127.186 12.0958C126.37 12.4339 125.65 12.9683 125.09 13.6514C124.53 14.3346 124.147 15.1454 123.976 16.0119C123.805 16.8784 123.85 17.7738 124.108 18.6186C124.365 19.4634 124.828 20.2316 125.453 20.8548C125.518 20.9197 125.588 20.9776 125.653 21.0395" fill="#0A2F53"/>
<path d="M143.213 17.9772C143.214 18.3303 143.142 18.6799 143.001 19.0034C142.726 19.639 142.218 20.1454 141.581 20.419C141.257 20.5588 140.907 20.631 140.554 20.631C140.201 20.631 139.851 20.5588 139.527 20.419C139.213 20.2841 138.93 20.0891 138.691 19.845C138.454 19.5996 138.263 19.3131 138.127 18.9994C137.986 18.6759 137.914 18.3263 137.916 17.9732V11.7148H136.104V17.9772C136.099 18.565 136.212 19.1479 136.437 19.691C136.662 20.2342 136.993 20.7266 137.412 21.1388C137.819 21.5601 138.307 21.8936 138.848 22.1187C139.388 22.3438 139.969 22.4557 140.554 22.4476C141.511 22.4595 142.446 22.1553 143.213 21.582V22.4476H145.024V11.7148H143.213V17.9772Z" fill="#EE6F19"/>
<path d="M155.717 13.2852C155.22 12.7839 154.628 12.3868 153.976 12.1172C153.321 11.8491 152.619 11.7134 151.912 11.7178C151.263 11.7154 150.619 11.835 150.015 12.0702C149.411 12.3054 148.852 12.6431 148.364 13.0685V11.7148H146.552V26.8381H148.364V21.0989C148.852 21.5244 149.411 21.8622 150.015 22.0972C150.619 22.3324 151.263 22.452 151.912 22.4496C152.619 22.454 153.321 22.3183 153.976 22.0502C155.291 21.5003 156.336 20.4549 156.886 19.1402C157.154 18.4851 157.29 17.7835 157.285 17.0757C157.29 16.3718 157.154 15.674 156.884 15.0238C156.614 14.3736 156.217 13.7841 155.715 13.2902L155.717 13.2852ZM155.192 18.4654C154.826 19.3168 154.147 19.9956 153.295 20.3621C152.857 20.5517 152.383 20.6476 151.906 20.6436C151.435 20.6464 150.969 20.5505 150.537 20.3621C149.685 19.9957 149.007 19.3169 148.64 18.4654C148.45 18.0269 148.354 17.5536 148.358 17.0757C148.355 16.6048 148.452 16.1386 148.64 15.707C149.006 14.8553 149.685 14.1764 150.537 13.8103C150.969 13.6221 151.435 13.5262 151.906 13.5288C152.383 13.525 152.857 13.6208 153.295 13.8103C154.147 14.1765 154.826 14.8553 155.192 15.707C155.38 16.1386 155.476 16.6048 155.474 17.0757C155.478 17.5535 155.382 18.0269 155.192 18.4654Z" fill="#EE6F19"/>
<path d="M174.548 9.78147C174.05 9.11807 173.428 8.55737 172.716 8.13029C171.989 7.72437 171.172 7.50968 170.339 7.50635H164.338V22.4479H170.339C171.172 22.4447 171.989 22.23 172.716 21.824C173.428 21.3969 174.05 20.8362 174.548 20.1728C175.08 19.4458 175.488 18.6363 175.757 17.7769C176.321 15.9536 176.321 14.0027 175.757 12.1794C175.488 11.3199 175.08 10.5105 174.548 9.78347V9.78147ZM174.049 17.2038C173.847 17.8824 173.527 18.5198 173.102 19.0866C172.76 19.5536 172.325 19.9445 171.824 20.2347C171.373 20.4947 170.863 20.6324 170.343 20.634H166.15V9.31926H170.343C170.863 9.32081 171.373 9.45848 171.824 9.71858C172.325 10.0089 172.76 10.3998 173.102 10.8666C173.527 11.4335 173.847 12.0709 174.049 12.7494C174.479 14.2017 174.479 15.7475 174.049 17.1998" fill="#EE6F19"/>
<path d="M179.678 11.7148H177.866V22.4476H179.678V11.7148Z" fill="#EE6F19"/>
<path d="M178.77 7.5067C178.525 7.51162 178.288 7.60126 178.101 7.76044C177.914 7.91962 177.787 8.13857 177.743 8.38027C177.699 8.62196 177.739 8.87155 177.858 9.08681C177.976 9.30208 178.165 9.46981 178.393 9.56162C178.621 9.65344 178.874 9.66371 179.109 9.59069C179.343 9.51768 179.545 9.36586 179.681 9.16092C179.817 8.95597 179.877 8.71049 179.853 8.466C179.828 8.22151 179.72 7.99301 179.546 7.81916C179.445 7.71683 179.324 7.6363 179.191 7.58256C179.057 7.52882 178.914 7.503 178.77 7.5067Z" fill="#EE6F19"/>
<path d="M190.391 13.0633C189.902 12.6379 189.344 12.3002 188.74 12.065C187.459 11.5785 186.041 11.5967 184.773 12.1159C183.622 12.589 182.672 13.447 182.084 14.5432C181.496 15.6394 181.307 16.9058 181.55 18.1258C181.792 19.3459 182.451 20.4438 183.413 21.2318C184.376 22.0199 185.582 22.4492 186.826 22.4463C187.48 22.4495 188.129 22.3299 188.739 22.0939C189.343 21.8589 189.901 21.5211 190.39 21.0956V21.458C190.394 21.9358 190.298 22.409 190.108 22.8476C189.742 23.6992 189.063 24.3781 188.212 24.7444C187.731 24.9489 187.21 25.0441 186.688 25.0232C186.166 25.0023 185.655 24.8659 185.192 24.6236C184.709 24.3548 184.284 23.992 183.944 23.5564L182.494 24.6226C183.159 25.5438 184.098 26.2301 185.178 26.5825C186.257 26.935 187.421 26.9354 188.501 26.5836C189.581 26.2319 190.521 25.5462 191.186 24.6255C191.851 23.7048 192.206 22.5966 192.2 21.461V11.7146H190.391V13.0633ZM190.391 17.0904C190.393 17.5616 190.297 18.028 190.109 18.4601C189.743 19.3117 189.064 19.9905 188.213 20.3569C187.774 20.5466 187.301 20.6425 186.823 20.6384C186.352 20.6411 185.885 20.5452 185.453 20.3569C184.602 19.9904 183.923 19.3117 183.557 18.4601C183.367 18.0216 183.271 17.5482 183.275 17.0705C183.272 16.5996 183.368 16.1334 183.557 15.7018C183.923 14.8504 184.602 14.1717 185.453 13.805C185.885 13.6169 186.352 13.521 186.823 13.5235C187.301 13.5196 187.774 13.6155 188.213 13.805C189.064 14.1716 189.743 14.8503 190.109 15.7018C190.297 16.1335 190.393 16.5997 190.391 17.0705V17.0904Z" fill="#EE6F19"/>
<path d="M195.306 7.50667C195.06 7.51137 194.823 7.60082 194.636 7.75988C194.449 7.91894 194.322 8.13784 194.277 8.37955C194.233 8.62125 194.273 8.87091 194.392 9.08628C194.51 9.30165 194.699 9.46951 194.927 9.56144C195.155 9.65338 195.408 9.66374 195.642 9.59079C195.877 9.51784 196.079 9.36604 196.215 9.1611C196.351 8.95615 196.411 8.71063 196.387 8.46609C196.362 8.22155 196.254 7.99301 196.08 7.81914C195.979 7.71693 195.858 7.63648 195.725 7.58274C195.592 7.529 195.449 7.50311 195.306 7.50667Z" fill="#EE6F19"/>
<path d="M196.212 11.7148H194.4V22.4476H196.212V11.7148Z" fill="#EE6F19"/>
<path d="M201.048 6.70215H199.235V11.7156H197.906V13.5285H199.235V22.4493H201.048V13.5285H203.485V11.7156H201.048V6.70215Z" fill="#EE6F19"/>
<path d="M212.904 13.0639C212.416 12.6387 211.857 12.301 211.254 12.0656C209.973 11.5786 208.555 11.5965 207.287 12.1155C205.983 12.6695 204.946 13.7072 204.392 15.0106C204.123 15.6616 203.987 16.3598 203.992 17.0641C203.988 17.7719 204.123 18.4736 204.392 19.1286C204.793 20.1115 205.479 20.952 206.362 21.5422C207.245 22.1324 208.283 22.4454 209.345 22.441C210 22.4441 210.649 22.3245 211.259 22.0886C211.862 21.8534 212.421 21.5156 212.909 21.0903V22.439H214.722V11.7142H212.909L212.904 13.0639ZM212.623 18.4607C212.256 19.3122 211.577 19.991 210.726 20.3575C210.287 20.5472 209.814 20.6431 209.336 20.639C208.865 20.6418 208.399 20.5459 207.968 20.3575C207.116 19.9911 206.437 19.3123 206.071 18.4607C205.881 18.0223 205.785 17.5489 205.788 17.0711C205.786 16.6002 205.882 16.134 206.071 15.7024C206.437 14.8506 207.116 14.1717 207.968 13.8057C208.399 13.6175 208.865 13.5216 209.336 13.5242C209.814 13.5203 210.287 13.6162 210.726 13.8057C211.578 14.1718 212.257 14.8507 212.623 15.7024C212.811 16.134 212.907 16.6002 212.904 17.0711C212.908 17.5489 212.812 18.0223 212.623 18.4607Z" fill="#EE6F19"/>
<path d="M218.038 6.70215H216.226V22.4483H218.038V6.70215Z" fill="#EE6F19"/>
<path d="M133.025 13.2796C132.803 13.0598 132.563 12.8594 132.307 12.6807L131.223 14.1442C131.407 14.2694 131.579 14.4118 131.736 14.5695C132.06 14.894 132.32 15.2767 132.502 15.6975C132.69 16.1292 132.786 16.5954 132.783 17.0662C132.787 17.544 132.691 18.0173 132.502 18.4558C132.135 19.3072 131.457 19.9859 130.605 20.3526C130.167 20.5423 129.693 20.6381 129.216 20.6341C128.745 20.6368 128.278 20.5409 127.847 20.3526C127.546 20.2166 127.264 20.0403 127.01 19.8285L125.912 21.305C126.846 22.0534 128.01 22.4567 129.207 22.447C129.914 22.4515 130.616 22.3158 131.271 22.0477C132.586 21.498 133.631 20.4526 134.181 19.1377C134.449 18.4826 134.585 17.781 134.58 17.0732C134.585 16.3689 134.45 15.6708 134.181 15.0197C133.91 14.3711 133.513 13.7825 133.013 13.2876" fill="#EE6F19"/>
<path d="M15.3535 28.0421C14.5494 27.8297 13.856 27.3197 13.4136 26.6155C12.9712 25.9112 12.8128 25.0652 12.9705 24.2486C13.4247 21.8996 10.6255 17.3264 8.56301 16.6156C7.96855 16.41 7.4457 16.0379 7.05678 15.5436C6.66785 15.0493 6.42924 14.4535 6.36938 13.8274C6.30952 13.2013 6.43094 12.5711 6.71916 12.0121C7.00737 11.453 7.45025 10.9886 7.995 10.6741C8.53976 10.3597 9.16343 10.2085 9.7917 10.2386C10.42 10.2686 11.0264 10.4787 11.5386 10.8437C12.0508 11.2087 12.4473 11.7133 12.6809 12.2973C12.9144 12.8814 12.9751 13.5202 12.8557 14.1378C12.5003 15.9737 14.6806 20.1725 16.2399 21.2577C18.1577 19.898 23.8749 9.39786 23.4906 7.41324C23.3712 6.79568 23.4319 6.15682 23.6654 5.57278C23.899 4.98874 24.2955 4.48416 24.8077 4.11914C25.3199 3.75412 25.9263 3.54407 26.5546 3.514C27.1829 3.48394 27.8065 3.63513 28.3513 3.94957C28.8961 4.26401 29.3389 4.72844 29.6272 5.28751C29.9154 5.84658 30.0368 6.47672 29.9769 7.10286C29.9171 7.729 29.6785 8.32472 29.2895 8.81906C28.9006 9.31339 28.3778 9.68549 27.7833 9.89102C25.8077 10.5729 18.9094 21.3106 19.4824 24.2665C19.5888 24.8177 19.5521 25.3869 19.3757 25.9198C19.1993 26.4527 18.8891 26.9314 18.4749 27.3102C18.0606 27.689 17.5561 27.9552 17.0096 28.0833C16.4631 28.2115 15.8929 28.1973 15.3535 28.0421Z" fill="#EE6F19"/>
<path d="M32.4687 16.7686C32.4681 20.3263 31.2988 23.7853 29.1407 26.6136C26.9825 29.442 23.955 31.4831 20.5238 32.4231C17.0925 33.3631 13.4475 33.1499 10.1492 31.8164C6.85091 30.4829 4.08199 28.1028 2.26823 25.0422C0.454465 21.9815 -0.303696 18.4099 0.110328 14.8764C0.524353 11.3429 2.08764 8.04318 4.55979 5.48475C7.03194 2.92632 10.2761 1.2508 13.7933 0.715849C17.3105 0.180897 20.9061 0.816132 24.0271 2.52387C23.333 2.95837 22.7561 3.55653 22.347 4.2659C22.2678 4.40234 22.1956 4.5421 22.1303 4.68519C19.5062 3.40269 16.5358 3.0094 13.6683 3.56479C10.8008 4.12017 8.19202 5.59403 6.23643 7.76354C4.28085 9.93305 3.08475 12.6803 2.82896 15.5898C2.57317 18.4994 3.27161 21.4132 4.81867 23.8906C6.36574 26.368 8.67732 28.2745 11.404 29.3216C14.1306 30.3688 17.124 30.4998 19.9317 29.6948C22.7394 28.8899 25.2087 27.1927 26.9663 24.8598C28.7238 22.527 29.6741 19.6854 29.6735 16.7646" fill="#0A2F53"/>
<path d="M31.6362 20.2261H25.9399V16.6143H32.4698L31.6362 20.2261Z" fill="#0A2F53"/>
</g>
<defs>
<clipPath id="clip0_4_175">
<rect width="219" height="33" fill="white"/>
</clipPath>
</defs>
</svg>
