<svg width="241" height="241" viewBox="0 0 241 241" fill="none" xmlns="http://www.w3.org/2000/svg">
<path d="M113.741 203.744C107.786 202.171 102.65 198.394 99.374 193.178C96.0975 187.962 94.9246 181.696 96.0925 175.648C99.4565 158.251 78.725 124.381 63.4499 119.117C59.0472 117.595 55.1749 114.839 52.2945 111.178C49.414 107.517 47.6469 103.105 47.2035 98.4678C46.7602 93.8305 47.6594 89.1635 49.794 85.023C51.9286 80.8824 55.2086 77.4428 59.2431 75.1141C63.2777 72.7853 67.8967 71.6655 72.5497 71.8882C77.2028 72.1108 81.6938 73.6665 85.4875 76.3699C89.2813 79.0732 92.2179 82.8103 93.9473 87.1358C95.6768 91.4612 96.1263 96.1927 95.2422 100.766C92.6101 114.363 108.758 145.461 120.306 153.497C134.509 143.427 176.852 65.6618 174.006 50.9634C173.122 46.3897 173.571 41.6582 175.301 37.3327C177.03 33.0073 179.967 29.2702 183.76 26.5669C187.554 23.8635 192.045 22.3078 196.698 22.0851C201.351 21.8625 205.97 22.9823 210.005 25.311C214.039 27.6398 217.319 31.0794 219.454 35.22C221.589 39.3605 222.488 44.0275 222.044 48.6647C221.601 53.302 219.834 57.714 216.954 61.3752C214.073 65.0363 210.201 67.7921 205.798 69.3143C191.166 74.3641 140.077 153.889 144.321 175.782C145.109 179.863 144.836 184.079 143.53 188.026C142.223 191.972 139.926 195.518 136.859 198.323C133.791 201.129 130.054 203.1 126.007 204.049C121.959 204.998 117.736 204.893 113.741 203.744Z" fill="#EE6F19"/>
<path d="M240.468 120.256C240.463 146.605 231.803 172.223 215.82 193.17C199.837 214.117 177.415 229.234 152.002 236.196C126.59 243.157 99.5943 241.579 75.1666 231.702C50.7389 221.826 30.2318 204.199 16.7988 181.531C3.36583 158.864 -2.24922 132.412 0.817106 106.242C3.88343 80.0723 15.4613 55.6345 33.7705 36.6864C52.0796 17.7382 76.106 5.32911 102.155 1.36717C128.204 -2.59477 154.834 2.10987 177.948 14.7576C172.808 17.9756 168.535 22.4057 165.505 27.6594C164.918 28.6699 164.384 29.705 163.901 30.7647C144.466 21.2663 122.467 18.3536 101.229 22.4668C79.9921 26.5801 60.6713 37.4957 46.1879 53.5634C31.7046 69.6311 22.8461 89.9773 20.9517 111.526C19.0573 133.075 24.23 154.655 35.6878 173.003C47.1456 191.351 64.2655 205.47 84.4594 213.226C104.653 220.981 126.823 221.952 147.617 215.99C168.411 210.028 186.699 197.458 199.716 180.181C212.733 162.904 219.771 141.859 219.766 120.227" fill="#0A2F53"/>
<path d="M234.011 146.681H191.824V119.931H240.185L234.011 146.681Z" fill="#0A2F53"/>
</svg>
