<svg width="94" height="90" viewBox="0 0 94 90" fill="none" xmlns="http://www.w3.org/2000/svg">
<path d="M7.74279 80.9567H46.676V77.9608H7.74279C6.55265 77.9608 5.41125 77.488 4.5697 76.6464C3.72814 75.8049 3.25536 74.6635 3.25536 73.4733V7.58239C3.25536 6.39225 3.72814 5.25085 4.5697 4.4093C5.41125 3.56774 6.55265 3.09496 7.74279 3.09496H73.629C74.2183 3.09496 74.8018 3.21103 75.3463 3.43654C75.8907 3.66206 76.3854 3.9926 76.8021 4.4093C77.2188 4.82599 77.5493 5.32068 77.7749 5.86513C78.0004 6.40957 78.1164 6.99309 78.1164 7.58239V42.0176H81.1124V7.58239C81.1099 5.59812 80.3208 3.69577 78.918 2.29234C77.5152 0.888912 75.6133 0.0988958 73.629 0.095459L7.74279 0.095459C5.7579 0.0979589 3.85502 0.887561 2.45149 2.29109C1.04796 3.69462 0.258359 5.5975 0.255859 7.58239V73.4686C0.258359 75.4536 1.04792 77.3566 2.45142 78.7603C3.85492 80.164 5.75779 80.9539 7.74279 80.9567Z" fill="#0A2F53"/>
<path d="M9.24266 6.08276H6.24316V9.08226H9.24266V6.08276Z" fill="#EE6F19"/>
<path d="M15.23 6.08276H12.2305V9.08226H15.23V6.08276Z" fill="#0A2F53"/>
<path d="M21.229 6.08276H18.2295V9.08226H21.229V6.08276Z" fill="#0A2F53"/>
<path d="M75.1253 12.0698H6.24316V15.0693H75.1253V12.0698Z" fill="#0A2F53"/>
<path d="M13.7178 36.0788C12.5463 36.0803 11.3907 35.8076 10.3434 35.2826C9.29617 34.7576 8.38625 33.9949 7.68642 33.0554C6.98659 32.116 6.51627 31.0258 6.31306 29.8721C6.10985 28.7183 6.17938 27.5331 6.5161 26.411C6.85282 25.289 7.44739 24.2613 8.25227 23.4101C9.05715 22.5589 10.05 21.9078 11.1515 21.5089C12.253 21.11 13.4325 20.9743 14.5958 21.1127C15.759 21.2511 16.8738 21.6597 17.8509 22.3059L21.6546 18.5034L23.772 20.6208L19.9766 24.4221C20.7255 25.5535 21.1539 26.8668 21.2162 28.2222C21.2785 29.5776 20.9725 30.9246 20.3305 32.12C19.6885 33.3153 18.7347 34.3145 17.5703 35.0111C16.406 35.7078 15.0746 36.0759 13.7178 36.0765V36.0788ZM13.7367 24.0548C12.8491 24.0548 11.9815 24.318 11.2436 24.8111C10.5056 25.3042 9.93045 26.005 9.5908 26.825C9.25116 27.645 9.16229 28.5473 9.33544 29.4177C9.50859 30.2882 9.93598 31.0878 10.5636 31.7154C11.1911 32.343 11.9907 32.7704 12.8612 32.9435C13.7317 33.1167 14.634 33.0278 15.4539 32.6881C16.2739 32.3485 16.9747 31.7733 17.4678 31.0354C17.9609 30.2974 18.2241 29.4298 18.2241 28.5423C18.2206 27.8755 18.0672 27.2181 17.7754 26.6186L14.79 29.5992L12.6727 27.4818L15.6556 24.4989C15.0559 24.2083 14.3984 24.0565 13.7319 24.0548H13.7367Z" fill="#0A2F53"/>
<path d="M51.1761 24.0562H25.7158V27.0556H51.1761V24.0562Z" fill="#0A2F53"/>
<path d="M36.2023 30.0435H25.7158V33.043H36.2023V30.0435Z" fill="#EE6F19"/>
<path d="M60.1515 30.0435H39.1904V33.043H60.1515V30.0435Z" fill="#0A2F53"/>
<path d="M69.1379 24.0562H54.1641V27.0556H69.1379V24.0562Z" fill="#0A2F53"/>
<path d="M13.7181 54.0474C12.5464 54.0491 11.3906 53.7766 10.3431 53.2518C9.29562 52.7269 8.38546 51.9642 7.68543 51.0247C6.98541 50.0851 6.51494 48.9948 6.31165 47.841C6.10836 46.6871 6.1779 45.5017 6.51469 44.3795C6.85148 43.2573 7.44619 42.2294 8.25126 41.3782C9.05633 40.5269 10.0494 39.8759 11.1511 39.4771C12.2528 39.0783 13.4325 38.9428 14.5959 39.0815C15.7593 39.2201 16.8742 39.6291 17.8512 40.2757L21.6585 36.4673L23.7758 38.5929L19.9769 42.3931C20.7258 43.5245 21.1542 44.8377 21.2165 46.1931C21.2789 47.5486 20.9728 48.8955 20.3308 50.0909C19.6889 51.2863 18.735 52.2854 17.5706 52.9821C16.4063 53.6787 15.0749 54.0469 13.7181 54.0474ZM13.7322 42.0175C12.8447 42.0175 11.9771 42.2807 11.2392 42.7738C10.5012 43.2669 9.92604 43.9677 9.5864 44.7877C9.24675 45.6077 9.15789 46.51 9.33104 47.3804C9.50418 48.2509 9.93157 49.0505 10.5592 49.6781C11.1867 50.3057 11.9863 50.733 12.8568 50.9062C13.7273 51.0793 14.6295 50.9905 15.4495 50.6508C16.2695 50.3112 16.9703 49.736 17.4634 48.9981C17.9565 48.2601 18.2197 47.3925 18.2197 46.505C18.2162 45.8382 18.0628 45.1808 17.7709 44.5813L14.7903 47.5678L12.673 45.4504L15.6559 42.4675C15.0565 42.1753 14.3991 42.0216 13.7322 42.0175Z" fill="#0A2F53"/>
<path d="M51.1761 42.0176H25.7158V45.0171H51.1761V42.0176Z" fill="#0A2F53"/>
<path d="M36.2023 48.0166H25.7158V51.0161H36.2023V48.0166Z" fill="#EE6F19"/>
<path d="M51.1648 48.0166H39.1904V51.0161H51.1648V48.0166Z" fill="#0A2F53"/>
<path d="M60.1512 42.0176H54.1641V45.0171H60.1512V42.0176Z" fill="#0A2F53"/>
<path d="M13.718 72.0126C12.5459 72.0151 11.3894 71.7432 10.3412 71.2187C9.29299 70.6941 8.38212 69.9315 7.6815 68.9918C6.98087 68.0521 6.50996 66.9614 6.30644 65.8071C6.10292 64.6527 6.17246 63.4668 6.50947 62.3441C6.84649 61.2215 7.44163 60.1933 8.24726 59.3419C9.0529 58.4905 10.0467 57.8395 11.149 57.4411C12.2513 57.0426 13.4316 56.9077 14.5955 57.0472C15.7593 57.1867 16.8743 57.5967 17.8512 58.2444L21.6549 54.4419L23.7723 56.5593L19.9768 60.3618C20.7248 61.4932 21.1525 62.806 21.2143 64.1609C21.2761 65.5158 20.9698 66.8621 20.328 68.0569C19.6861 69.2517 18.7327 70.2504 17.5689 70.9469C16.405 71.6433 15.0743 72.0116 13.718 72.0126ZM13.7381 59.9886C12.8506 59.9886 11.983 60.2518 11.245 60.7449C10.5071 61.238 9.93191 61.9388 9.59226 62.7588C9.25262 63.5787 9.16375 64.481 9.3369 65.3515C9.51005 66.222 9.93744 67.0216 10.565 67.6491C11.1926 68.2767 11.9922 68.7041 12.8627 68.8773C13.7331 69.0504 14.6354 68.9615 15.4554 68.6219C16.2754 68.2822 16.9762 67.7071 17.4693 66.9691C17.9624 66.2312 18.2256 65.3636 18.2256 64.476C18.222 63.8093 18.0687 63.1518 17.7768 62.5523L14.7903 65.5412L12.6729 63.4239L15.6571 60.4397C15.0572 60.1478 14.3993 59.9945 13.7322 59.991L13.7381 59.9886Z" fill="#0A2F53"/>
<path d="M45.1771 59.991H25.7158V62.9905H45.1771V59.991Z" fill="#0A2F53"/>
<path d="M36.2023 65.978H25.7158V68.9775H36.2023V65.978Z" fill="#EE6F19"/>
<path d="M45.1776 65.978H39.1904V68.9775H45.1776V65.978Z" fill="#0A2F53"/>
<path d="M70.6375 89.9411C65.4408 89.941 60.4049 88.139 56.3879 84.8423C52.3708 81.5455 49.6211 76.9578 48.6074 71.8609C47.5936 66.7641 48.3785 61.4734 50.8282 56.8903C53.278 52.3073 57.2411 48.7155 62.0422 46.7268C66.8433 44.7382 72.1855 44.4758 77.1584 45.9844C82.1313 47.4929 86.4273 50.6791 89.3144 55.0001C92.2015 59.321 93.501 64.5093 92.9916 69.681C92.4822 74.8526 90.1953 79.6877 86.5207 83.3622C84.4388 85.4533 81.9633 87.1112 79.2372 88.2404C76.511 89.3696 73.5882 89.9476 70.6375 89.9411ZM70.6375 48.013C66.7874 48.0126 63.0236 49.1539 59.8221 51.2925C56.6206 53.4312 54.1253 56.4712 52.6516 60.0281C51.1779 63.585 50.792 67.4991 51.5429 71.2753C52.2937 75.0515 54.1475 78.5202 56.8698 81.2428C59.592 83.9654 63.0605 85.8196 66.8367 86.5709C70.6128 87.3222 74.5268 86.9368 78.0839 85.4636C81.641 83.9903 84.6813 81.4953 86.8204 78.2941C88.9595 75.0929 90.1012 71.3292 90.1012 67.4791C90.0869 62.3212 88.0317 57.3786 84.3847 53.7312C80.7377 50.0838 75.7954 48.028 70.6375 48.013Z" fill="#0A2F53"/>
<path d="M61.5 68.307L58.8193 69.6509L61.8141 75.6404C61.9201 75.8528 62.075 76.0369 62.2662 76.1776C62.4574 76.3182 62.6793 76.4114 62.9135 76.4494C62.9917 76.4613 63.0706 76.4676 63.1497 76.4683C63.347 76.4687 63.5424 76.4303 63.7248 76.3551C63.9071 76.2799 64.0729 76.1695 64.2125 76.0301L82.1753 58.0556L80.0579 55.9382L63.5524 72.4378L61.5 68.307Z" fill="#EE6F19"/>
</svg>
