<svg width="39" height="38" viewBox="0 0 39 38" fill="none" xmlns="http://www.w3.org/2000/svg">
<path d="M30.5383 10.8384C30.4156 7.92268 29.171 5.16711 27.0646 3.14738C24.9581 1.12765 22.1526 0 19.2343 0C16.316 0 13.5105 1.12765 11.4041 3.14738C9.29756 5.16711 8.05297 7.92268 7.9303 10.8384C7.78925 13.6229 8.62935 16.3686 10.3043 18.5974L18.2313 29.1974C18.3479 29.3525 18.4989 29.4783 18.6724 29.565C18.846 29.6516 19.0373 29.6967 19.2313 29.6967C19.4253 29.6967 19.6166 29.6516 19.7902 29.565C19.9637 29.4783 20.1147 29.3525 20.2313 29.1974L28.1573 18.5974C29.854 16.3794 30.6988 13.6264 30.5383 10.8384ZM26.1583 17.0954L19.2333 26.3524L12.3173 17.1074C10.9938 15.3574 10.3247 13.1992 10.4263 11.0074C10.7323 6.81942 14.1113 2.48842 19.2333 2.48842C21.505 2.53268 23.6757 3.4351 25.3093 5.01432C26.9429 6.59355 27.9182 8.73253 28.0393 11.0014C28.1623 13.1923 27.4952 15.3546 26.1593 17.0954H26.1583Z" fill="url(#paint0_linear)"/>
<path d="M19.1515 5.8291C18.2356 5.8291 17.3402 6.1007 16.5787 6.60957C15.8171 7.11843 15.2235 7.84169 14.873 8.6879C14.5225 9.5341 14.4308 10.4652 14.6095 11.3636C14.7882 12.2619 15.2292 13.0871 15.8769 13.7347C16.5246 14.3824 17.3497 14.8234 18.248 15.0021C19.1464 15.1808 20.0775 15.0891 20.9237 14.7386C21.7699 14.3881 22.4932 13.7945 23.002 13.0329C23.5109 12.2714 23.7825 11.376 23.7825 10.4601C23.7812 9.23229 23.2929 8.05514 22.4247 7.18695C21.5565 6.31876 20.3793 5.83043 19.1515 5.8291ZM19.1515 12.5881C18.5873 12.5876 18.0463 12.3632 17.6474 11.9642C17.2484 11.5653 17.024 11.0243 17.0235 10.4601C17.0235 9.89572 17.2477 9.35445 17.6468 8.95538C18.0459 8.5563 18.5871 8.3321 19.1515 8.3321C19.7159 8.3321 20.2572 8.5563 20.6562 8.95538C21.0553 9.35445 21.2795 9.89572 21.2795 10.4601C21.279 11.0243 21.0546 11.5653 20.6557 11.9642C20.2567 12.3632 19.7157 12.5876 19.1515 12.5881Z" fill="url(#paint1_linear)"/>
<path d="M38.2453 36.0806L33.7393 21.6446C33.66 21.3898 33.5012 21.167 33.2862 21.0089C33.0712 20.8507 32.8112 20.7655 32.5443 20.7656H24.1583V23.2656H31.6243L35.3493 35.1986H3.00035L7.03535 23.2656H14.5653V20.7656H6.13435C5.87259 20.7654 5.61735 20.8473 5.40459 20.9998C5.19183 21.1523 5.03226 21.3677 4.94835 21.6156L0.0663498 36.0526C0.00243204 36.241 -0.01565 36.4419 0.0136039 36.6386C0.0428578 36.8354 0.118604 37.0223 0.234559 37.1839C0.350514 37.3455 0.503335 37.4772 0.680342 37.5679C0.85735 37.6586 1.05344 37.7058 1.25235 37.7056H37.0523C37.2486 37.7058 37.4422 37.6597 37.6174 37.5712C37.7926 37.4827 37.9445 37.3542 38.0609 37.1961C38.1772 37.038 38.2547 36.8547 38.2871 36.6611C38.3195 36.4675 38.3059 36.269 38.2474 36.0816L38.2453 36.0806Z" fill="#0A2F53"/>
<path d="M14.3444 27.8754C14.2273 27.7516 14.0863 27.6529 13.9298 27.5855C13.7733 27.5181 13.6047 27.4834 13.4344 27.4834H4.08936V29.9834H12.1114L11.7684 36.0454L14.2684 36.1864L14.6854 28.8014C14.6943 28.632 14.6686 28.4625 14.61 28.3033C14.5514 28.1442 14.461 27.9986 14.3444 27.8754Z" fill="#0A2F53"/>
<path d="M33.8796 25.8594H26.6196C26.4495 25.8498 26.2792 25.875 26.1192 25.9335C25.9592 25.9919 25.8128 26.0824 25.6889 26.1994C25.5651 26.3165 25.4665 26.4575 25.399 26.614C25.3316 26.7705 25.2969 26.939 25.2969 27.1094C25.2969 27.2798 25.3316 27.4483 25.399 27.6048C25.4665 27.7613 25.5651 27.9023 25.6889 28.0194C25.8128 28.1364 25.9592 28.2269 26.1192 28.2854C26.2792 28.3439 26.4495 28.369 26.6196 28.3594H33.8796C34.0497 28.369 34.22 28.3439 34.38 28.2854C34.54 28.2269 34.6864 28.1364 34.8103 28.0194C34.9341 27.9023 35.0327 27.7613 35.1002 27.6048C35.1676 27.4483 35.2024 27.2798 35.2024 27.1094C35.2024 26.939 35.1676 26.7705 35.1002 26.614C35.0327 26.4575 34.9341 26.3165 34.8103 26.1994C34.6864 26.0824 34.54 25.9919 34.38 25.9335C34.22 25.875 34.0497 25.8498 33.8796 25.8594Z" fill="#0A2F53"/>
<path d="M19.3604 30.3623C19.0283 30.3623 18.7099 30.4942 18.4751 30.729C18.2403 30.9638 18.1084 31.2822 18.1084 31.6143V36.4543H20.6084V32.8663H35.6704V30.3663L19.3604 30.3623Z" fill="#0A2F53"/>
<defs>
<linearGradient id="paint0_linear" x1="19.2363" y1="0" x2="19.2363" y2="29.6967" gradientUnits="userSpaceOnUse">
<stop stop-color="#315D88"/>
<stop offset="1" stop-color="#0A2F53"/>
</linearGradient>
<linearGradient id="paint1_linear" x1="19.1515" y1="5.8291" x2="19.1515" y2="15.0911" gradientUnits="userSpaceOnUse">
<stop stop-color="#315D88"/>
<stop offset="1" stop-color="#0A2F53"/>
</linearGradient>
</defs>
</svg>
