<svg width="30" height="38" viewBox="0 0 30 38" fill="none" xmlns="http://www.w3.org/2000/svg">
<path d="M25.269 0.545898H12.325C11.3206 0.546957 10.3576 0.946357 9.64729 1.65649C8.93698 2.36662 8.53732 3.32949 8.536 4.3339V11.9069H0.699997H0.646999H0.615997L0.577999 11.9129L0.542999 11.9209L0.509998 11.9289L0.475998 11.9399L0.442997 11.9519L0.412998 11.9649L0.378998 11.9819L0.354 11.9969L0.319 12.0179L0.295998 12.0349L0.263 12.0599L0.238998 12.0809L0.211998 12.1059C0.200998 12.1169 0.191 12.1289 0.18 12.1399L0.164997 12.1559C0.134498 12.1925 0.107702 12.232 0.0849991 12.2739C0.0849991 12.2819 0.076998 12.2909 0.072998 12.2989C0.068998 12.3069 0.0600003 12.3239 0.0550003 12.3369C0.0500003 12.3499 0.0469993 12.3579 0.0429993 12.3689C0.0389993 12.3799 0.0339982 12.3909 0.0309982 12.4029C0.0279982 12.4149 0.0239999 12.4289 0.0209999 12.4419C0.0179999 12.4549 0.0159999 12.4609 0.0139999 12.4709C0.00469575 12.5173 6.31359e-06 12.5646 0 12.6119V23.9039C0 23.9109 0 23.9179 0 23.9249C0 23.9319 0 23.9569 0 23.9729C0 23.9889 0 23.9929 0 24.0019C0 24.0109 5.18747e-07 24.0289 0.00600052 24.0419C0.0120005 24.0549 0.0109999 24.0639 0.0139999 24.0739C0.0169999 24.0839 0.0199988 24.0979 0.0229988 24.1099C0.0259988 24.1219 0.0310004 24.1319 0.0340004 24.1429C0.0370004 24.1539 0.0419976 24.1649 0.0459976 24.1759C0.0499976 24.1869 0.055997 24.1979 0.060997 24.2099C0.065997 24.2219 0.0699969 24.2299 0.0749969 24.2399C0.079997 24.2499 0.0879974 24.2629 0.0949974 24.2749L0.111 24.3009C0.12 24.3139 0.129 24.3269 0.139 24.3389L0.152 24.3569C0.167962 24.3765 0.184987 24.3952 0.202999 24.4129L0.223999 24.4319L0.258999 24.4629L0.285999 24.4829L0.32 24.5059L0.348999 24.5239L0.386997 24.5439L0.414997 24.5569L0.459999 24.5749L0.483997 24.5839L0.536999 24.5989H0.556L0.618999 24.6089H0.631001C0.656317 24.6102 0.681681 24.6102 0.706997 24.6089H8.528V33.2739C8.52932 34.2783 8.92898 35.2412 9.63929 35.9513C10.3496 36.6614 11.3126 37.0608 12.317 37.0619H25.269C26.2733 37.0608 27.2362 36.6614 27.9464 35.9512C28.6565 35.2411 29.0559 34.2782 29.057 33.2739V4.3339C29.0559 3.32958 28.6565 2.36671 27.9464 1.65655C27.2362 0.946389 26.2733 0.546957 25.269 0.545898V0.545898ZM15.814 13.3459L9.254 18.8229L2.694 13.3459H15.814ZM17.075 14.1619V22.4019L12.069 18.3369L17.075 14.1619ZM1.433 14.1619L6.433 18.3369L1.433 22.3999V14.1619ZM2.733 23.1909L7.552 19.2749L8.791 20.3089C8.92009 20.4166 9.08288 20.4756 9.251 20.4756C9.41912 20.4756 9.58191 20.4166 9.711 20.3089L10.945 19.2789L15.769 23.1869L2.733 23.1909ZM27.622 33.2909C27.6202 33.914 27.3715 34.511 26.9305 34.9513C26.4895 35.3915 25.8921 35.6391 25.269 35.6399H12.325C11.7007 35.6399 11.1019 35.3921 10.6601 34.9509C10.2184 34.5097 9.96979 33.9112 9.969 33.2869V30.1969H27.625L27.622 33.2909ZM27.622 28.7659H9.969V24.6259H17.79C17.8153 24.6272 17.8407 24.6272 17.866 24.6259H17.878C17.899 24.6259 17.92 24.6199 17.941 24.6159H17.959L18.013 24.6009L18.036 24.5919L18.082 24.5739L18.112 24.5459L18.151 24.5249L18.179 24.5079L18.214 24.4839L18.241 24.4639L18.277 24.4319L18.297 24.4139C18.315 24.3961 18.332 24.3774 18.348 24.3579L18.362 24.3389C18.371 24.3269 18.38 24.3149 18.389 24.3019L18.405 24.2759C18.412 24.2649 18.419 24.2539 18.425 24.2419L18.44 24.2109C18.445 24.1999 18.45 24.1889 18.455 24.1779C18.46 24.1669 18.463 24.1559 18.467 24.1449C18.471 24.1339 18.475 24.1229 18.478 24.1119C18.481 24.1009 18.484 24.0879 18.487 24.0759C18.49 24.0639 18.493 24.0549 18.495 24.0439C18.497 24.0329 18.495 24.0169 18.501 24.0039C18.507 23.9909 18.501 23.9839 18.501 23.9749C18.501 23.9659 18.501 23.9429 18.501 23.9279C18.501 23.9129 18.501 23.9139 18.501 23.9069V23.3579H22.125C22.3153 23.3579 22.4978 23.2823 22.6323 23.1477C22.7669 23.0132 22.8425 22.8307 22.8425 22.6404C22.8425 22.4501 22.7669 22.2676 22.6323 22.133C22.4978 21.9985 22.3153 21.9229 22.125 21.9229H18.51V20.4939H24.369C24.5593 20.4939 24.7418 20.4183 24.8764 20.2837C25.0109 20.1492 25.0865 19.9667 25.0865 19.7764C25.0865 19.5861 25.0109 19.4036 24.8764 19.269C24.7418 19.1345 24.5593 19.0589 24.369 19.0589H18.51V17.6319H24.369C24.5593 17.6319 24.7418 17.5563 24.8764 17.4217C25.0109 17.2872 25.0865 17.1047 25.0865 16.9144C25.0865 16.7241 25.0109 16.5416 24.8764 16.407C24.7418 16.2725 24.5593 16.1969 24.369 16.1969H18.51V14.7699H24.369C24.5593 14.7699 24.7418 14.6943 24.8764 14.5597C25.0109 14.4252 25.0865 14.2427 25.0865 14.0524C25.0865 13.8621 25.0109 13.6796 24.8764 13.545C24.7418 13.4105 24.5593 13.3349 24.369 13.3349H18.51V12.6219C18.51 12.5745 18.5053 12.5273 18.496 12.4809C18.496 12.4709 18.496 12.4619 18.489 12.4519C18.482 12.4419 18.483 12.4259 18.479 12.4129C18.475 12.3999 18.471 12.3899 18.467 12.3789C18.463 12.3679 18.46 12.3569 18.455 12.3469C18.45 12.3369 18.443 12.3219 18.437 12.3089L18.425 12.2839C18.4023 12.242 18.3755 12.2025 18.345 12.1659L18.329 12.1459C18.319 12.1339 18.308 12.1229 18.297 12.1119L18.27 12.0869L18.246 12.0649L18.213 12.0399L18.19 12.0229L18.155 12.0019L18.129 11.9869L18.095 11.9709L18.065 11.9569L18.033 11.9449L17.999 11.9329L17.967 11.9249L17.931 11.9169L17.894 11.9109H17.862H17.81H9.969V4.3339C9.96979 3.70991 10.2181 3.11173 10.6594 2.6706C11.1007 2.22947 11.699 1.98143 12.323 1.9809H25.269C25.8928 1.98169 26.4908 2.22985 26.9319 2.67095C27.373 3.11205 27.6212 3.71009 27.622 4.3339V28.7659Z" fill="url(#paint0_linear)"/>
<path d="M18.798 30.4805C18.3393 30.4805 17.891 30.6165 17.5096 30.8713C17.1283 31.1261 16.8311 31.4883 16.6555 31.912C16.48 32.3358 16.4341 32.8021 16.5236 33.2519C16.613 33.7017 16.8339 34.1149 17.1582 34.4392C17.4825 34.7636 17.8957 34.9844 18.3456 35.0739C18.7954 35.1634 19.2617 35.1175 19.6855 34.942C20.1092 34.7664 20.4714 34.4692 20.7262 34.0878C20.981 33.7065 21.117 33.2581 21.117 32.7995C21.1162 32.1847 20.8716 31.5953 20.4369 31.1606C20.0022 30.7259 19.4128 30.4813 18.798 30.4805ZM18.798 33.6805C18.623 33.6805 18.4519 33.6286 18.3063 33.5313C18.1608 33.4341 18.0474 33.2959 17.9804 33.1342C17.9134 32.9724 17.8959 32.7945 17.93 32.6228C17.9642 32.4511 18.0484 32.2934 18.1722 32.1697C18.296 32.0459 18.4537 31.9616 18.6254 31.9275C18.797 31.8933 18.975 31.9109 19.1367 31.9778C19.2984 32.0448 19.4366 32.1583 19.5339 32.3038C19.6311 32.4493 19.683 32.6204 19.683 32.7955C19.6834 32.912 19.6608 33.0274 19.6165 33.1352C19.5722 33.243 19.5071 33.341 19.4249 33.4236C19.3427 33.5061 19.245 33.5717 19.1374 33.6165C19.0299 33.6612 18.9145 33.6843 18.798 33.6845V33.6805Z" fill="#235280"/>
<path d="M24.3709 21.9209C24.1853 21.9278 24.0095 22.0065 23.8806 22.1403C23.7517 22.2741 23.6797 22.4526 23.6797 22.6384C23.6797 22.8242 23.7517 23.0027 23.8806 23.1365C24.0095 23.2703 24.1853 23.349 24.3709 23.3559C24.5566 23.349 24.7323 23.2703 24.8612 23.1365C24.9901 23.0027 25.0621 22.8242 25.0621 22.6384C25.0621 22.4526 24.9901 22.2741 24.8612 22.1403C24.7323 22.0065 24.5566 21.9278 24.3709 21.9209Z" fill="#0A2F53"/>
<path d="M21.1183 4.00781H16.4782C16.2879 4.00781 16.1054 4.08341 15.9709 4.21796C15.8363 4.35252 15.7607 4.53502 15.7607 4.72531C15.7607 4.9156 15.8363 5.0981 15.9709 5.23266C16.1054 5.36722 16.2879 5.44281 16.4782 5.44281H21.1183C21.3085 5.44281 21.4911 5.36722 21.6256 5.23266C21.7602 5.0981 21.8358 4.9156 21.8358 4.72531C21.8358 4.53502 21.7602 4.35252 21.6256 4.21796C21.4911 4.08341 21.3085 4.00781 21.1183 4.00781Z" fill="#0A2F53"/>
<defs>
<linearGradient id="paint0_linear" x1="14.5285" y1="0.545898" x2="14.5285" y2="37.0619" gradientUnits="userSpaceOnUse">
<stop stop-color="#0A2F53"/>
<stop offset="1" stop-color="#355D85"/>
</linearGradient>
</defs>
</svg>
