<svg width="46" height="50" viewBox="0 0 46 50" fill="none" xmlns="http://www.w3.org/2000/svg">
<g opacity="0.34">
<path opacity="0.34" d="M45.6392 13.1215C45.7399 12.7961 45.7029 12.44 45.5365 12.131C45.37 11.822 45.0876 11.5854 44.7511 11.473L39.0693 9.8096C38.7257 9.72261 38.3661 9.77116 38.0694 9.94459C37.7727 10.118 37.563 10.4022 37.4864 10.7348L36.2386 15.3652C36.1625 15.698 35.9532 15.9826 35.6566 16.1563C35.3599 16.33 35.0002 16.3787 34.6565 16.2917L30.2097 14.9899C29.8664 14.903 29.5071 14.9515 29.2107 15.1248C28.9142 15.2981 28.7047 15.582 28.6282 15.9143L27.3804 20.5447C27.3038 20.8773 27.0941 21.1615 26.7974 21.3349C26.5007 21.5083 26.1411 21.5569 25.7975 21.4699L21.3507 20.1681C21.0072 20.0808 20.6477 20.1292 20.351 20.3024C20.0543 20.4757 19.8447 20.7597 19.7681 21.0922L18.5203 25.7226C18.4437 26.0549 18.2343 26.3388 17.9378 26.5121C17.6413 26.6854 17.2821 26.7339 16.9388 26.647L12.4919 25.3452C12.1484 25.2582 11.7889 25.3069 11.4924 25.4804C11.1958 25.6539 10.9864 25.9381 10.9101 26.2707L9.66232 30.9011C9.58679 31.2344 9.37776 31.5196 9.08116 31.694C8.78455 31.8684 8.42464 31.9177 8.0805 31.8311L3.63365 30.5293C3.29022 30.4421 2.93072 30.4904 2.63402 30.6636C2.33732 30.8369 2.12767 31.1209 2.05107 31.4534L0.456127 37.3719C0.355117 37.6972 0.391901 38.0535 0.5584 38.3626C0.7249 38.6717 1.00751 38.9083 1.34422 39.0204C1.68772 39.1074 2.04719 39.0588 2.34374 38.8853C2.64029 38.7118 2.8497 38.4275 2.92599 38.0949L3.82726 34.7505C3.90386 34.418 4.11351 34.134 4.41021 33.9607C4.70691 33.7875 5.06642 33.7392 5.40984 33.8264L9.85561 35.1279C10.1988 35.2133 10.5573 35.1637 10.853 34.9899C11.1486 34.816 11.3572 34.5321 11.4333 34.2001L12.6811 29.5697C12.7577 29.2374 12.9671 28.9535 13.2636 28.7802C13.5601 28.6069 13.9193 28.5584 14.2626 28.6453L18.7149 29.9487C19.0582 30.0356 19.4175 29.9871 19.7139 29.8138C20.0104 29.6405 20.2199 29.3566 20.2964 29.0242L21.5442 24.3939C21.5818 24.2287 21.6527 24.0736 21.7528 23.9376C21.8529 23.8016 21.9802 23.6873 22.1275 23.6012C22.2748 23.5151 22.4391 23.459 22.6111 23.436C22.7831 23.413 22.9594 23.4236 23.1298 23.4672L27.5734 24.7681C27.917 24.8551 28.2766 24.8065 28.5733 24.6331C28.87 24.4597 29.0797 24.1755 29.1563 23.8429L30.4041 19.2125C30.4807 18.8802 30.6901 18.5963 30.9866 18.423C31.283 18.2497 31.6423 18.2012 31.9856 18.2881L36.4335 19.5902C36.7772 19.6772 37.1369 19.6285 37.4336 19.4548C37.7302 19.2811 37.9395 18.9965 38.0156 18.6636L39.2634 14.0333C39.3395 13.7003 39.5488 13.4156 39.8455 13.2417C40.1422 13.0678 40.5019 13.0189 40.8458 13.1057L44.0577 14.046C44.401 14.1329 44.7602 14.0844 45.0567 13.9111C45.3532 13.7378 45.5626 13.4538 45.6392 13.1215Z" fill="#EE6F19"/>
</g>
</svg>
