<svg width="15" height="25" viewBox="0 0 15 25" fill="none" xmlns="http://www.w3.org/2000/svg">
<path d="M3.64423 23.7181L13.7202 13.6421C13.8762 13.4862 14 13.3011 14.0844 13.0973C14.1688 12.8936 14.2122 12.6752 14.2122 12.4546C14.2122 12.2341 14.1688 12.0157 14.0844 11.8119C14 11.6082 13.8762 11.423 13.7202 11.2671L3.64423 1.19012C3.32928 0.875172 2.90212 0.698242 2.45673 0.698242C2.01133 0.698242 1.58417 0.875172 1.26923 1.19012C0.954281 1.50506 0.777344 1.93222 0.777344 2.37762C0.777344 2.82302 0.954281 3.25017 1.26923 3.56512L10.1582 12.4541L1.26923 21.3431C0.954281 21.6581 0.777344 22.0852 0.777344 22.5306C0.777344 22.976 0.954281 23.4032 1.26923 23.7181C1.58417 24.0331 2.01133 24.21 2.45673 24.21C2.90212 24.21 3.32928 24.0331 3.64423 23.7181Z" fill="#0A2F53" fill-opacity="0.85"/>
</svg>
