<svg width="47" height="51" viewBox="0 0 47 51" fill="none" xmlns="http://www.w3.org/2000/svg">
<g opacity="0.34">
<path opacity="0.34" d="M1.23266 13.4484C1.13195 13.123 1.16886 12.7668 1.3353 12.4578C1.50174 12.1488 1.78414 11.9122 2.12065 11.7998L7.8021 10.1366C8.14568 10.0496 8.50523 10.0982 8.80193 10.2716C9.09864 10.4451 9.30828 10.7293 9.38491 11.0619L10.6328 15.6925C10.7087 16.0246 10.9173 16.3088 11.2129 16.4827C11.5086 16.6566 11.8673 16.7061 12.2105 16.6204L16.6614 15.3174C17.0047 15.2305 17.364 15.2791 17.6604 15.4524C17.9569 15.6257 18.1663 15.9096 18.2429 16.242L19.4908 20.8726C19.5674 21.2052 19.7771 21.4894 20.0738 21.6628C20.3705 21.8363 20.73 21.8848 21.0736 21.7978L25.5202 20.4961C25.8636 20.4089 26.2231 20.4572 26.5198 20.6305C26.8165 20.8038 27.0261 21.0879 27.1027 21.4204L28.3506 26.051C28.4272 26.3833 28.6367 26.6672 28.9331 26.8406C29.2296 27.0139 29.5888 27.0624 29.9321 26.9755L34.3787 25.6738C34.7222 25.5868 35.0816 25.6355 35.3782 25.809C35.6747 25.9825 35.8841 26.2668 35.9604 26.5994L37.2083 31.23C37.285 31.5626 37.4946 31.8468 37.7913 32.0202C38.088 32.1937 38.4476 32.2422 38.7911 32.1553L43.2366 30.8539C43.4071 30.8106 43.5832 30.8002 43.7551 30.8235C43.927 30.8467 44.0911 30.9031 44.2382 30.9893C44.3853 31.0755 44.5124 31.1899 44.6123 31.326C44.7122 31.4621 44.7829 31.6172 44.8203 31.7823L46.4154 37.7011C46.5164 38.0264 46.4796 38.3828 46.3131 38.6918C46.1467 39.0009 45.8641 39.2375 45.5274 39.3496C45.1839 39.4366 44.8244 39.388 44.5279 39.2144C44.2314 39.0409 44.022 38.7566 43.9456 38.424L43.0443 35.0795C42.9677 34.747 42.7581 34.4629 42.4614 34.2897C42.1647 34.1164 41.8052 34.0681 41.4618 34.1553L37.0152 35.457C36.6716 35.5439 36.3121 35.4954 36.0154 35.3219C35.7187 35.1485 35.509 34.8643 35.4324 34.5317L34.1845 29.9011C34.1079 29.5688 33.8984 29.2848 33.602 29.1115C33.3055 28.9382 32.9463 28.8897 32.603 28.9766L28.1564 30.2783C27.8131 30.3651 27.4539 30.3166 27.1574 30.1433C26.861 29.97 26.6515 29.686 26.575 29.3537L25.3271 24.7231C25.2505 24.3906 25.0408 24.1065 24.7441 23.9333C24.4474 23.76 24.0879 23.7117 23.7445 23.7989L19.2979 25.1006C18.9544 25.1876 18.5948 25.139 18.2981 24.9656C18.0014 24.7921 17.7918 24.5079 17.7151 24.1753L16.4672 19.5447C16.3907 19.2124 16.1812 18.9284 15.8847 18.7551C15.5883 18.5818 15.2291 18.5333 14.8858 18.6202L10.4392 19.9219C10.2687 19.9648 10.0926 19.9747 9.92092 19.9511C9.74921 19.9274 9.58525 19.8708 9.43843 19.7843C9.29161 19.6978 9.16479 19.5831 9.06524 19.4469C8.96568 19.3107 8.89533 19.1555 8.85821 18.9904L7.61029 14.3598C7.53366 14.0272 7.32402 13.743 7.02731 13.5695C6.73061 13.3961 6.37105 13.3475 6.02748 13.4345L2.81575 14.3747C2.47196 14.4621 2.11205 14.4135 1.81517 14.2398C1.5183 14.0661 1.30877 13.7814 1.23266 13.4484Z" fill="#0A2F53"/>
</g>
</svg>
