<svg width="86" height="86" viewBox="0 0 86 86" fill="none" xmlns="http://www.w3.org/2000/svg">
<path d="M80.0429 85.0251H18.9311C17.6104 85.0232 16.3444 84.4977 15.4106 83.5637C14.4768 82.6297 13.9516 81.3636 13.95 80.0429V65.8165C13.95 65.376 14.125 64.9536 14.4365 64.6421C14.748 64.3306 15.1705 64.1556 15.611 64.1556C16.0515 64.1556 16.4739 64.3306 16.7854 64.6421C17.0969 64.9536 17.2719 65.376 17.2719 65.8165V80.0429C17.2722 80.4833 17.4472 80.9055 17.7585 81.217C18.0698 81.5285 18.4919 81.7038 18.9323 81.7044H80.0441C80.4846 81.7041 80.9071 81.529 81.2186 81.2174C81.5301 80.9059 81.7053 80.4835 81.7056 80.0429V18.4339H71.5746C70.2533 18.4327 68.9865 17.9072 68.0522 16.9729C67.1179 16.0386 66.5925 14.7718 66.5912 13.4505V3.32189H18.9311C18.4908 3.3222 18.0687 3.49723 17.7574 3.80854C17.4461 4.11985 17.271 4.54198 17.2707 4.98224V7.14329C18.8033 6.81094 20.3671 6.64308 21.9353 6.64259C22.3757 6.6429 22.7979 6.81789 23.1094 7.12917C23.4209 7.44044 23.5962 7.86258 23.5968 8.30294V28.5779C23.5965 29.0185 23.4214 29.4409 23.1098 29.7524C22.7983 30.064 22.3759 30.2391 21.9353 30.2394H1.66035C1.21999 30.2388 0.797854 30.0635 0.486579 29.752C0.175304 29.4405 0.000312316 29.0183 0 28.5779C0.00496579 24.1656 1.33833 19.857 3.82647 16.2131C6.31461 12.5693 9.84224 9.75901 13.95 8.14824V4.98106C13.9516 3.66048 14.4769 2.39444 15.4107 1.46064C16.3445 0.526854 17.6105 0.0015645 18.9311 1.86589e-06H68.2563C68.4744 -0.000325757 68.6903 0.042494 68.8918 0.125995C69.0933 0.209496 69.2762 0.332028 69.4301 0.486535L84.5457 15.595C84.8534 15.9082 85.0256 16.3298 85.0251 16.7688V80.0417C85.0239 81.3628 84.4986 82.6294 83.5646 83.5637C82.6305 84.498 81.364 85.0236 80.0429 85.0251ZM20.2738 10.0377C15.9259 10.4204 11.8516 12.3216 8.76527 15.4079C5.67897 18.4941 3.77778 22.5685 3.3951 26.9164H20.2738V10.0377ZM69.9095 5.66834V13.4505C69.9092 13.6693 69.9521 13.8859 70.0357 14.0881C70.1192 14.2902 70.2419 14.4739 70.3965 14.6286C70.5512 14.7833 70.7349 14.9059 70.9371 14.9895C71.1392 15.073 71.3559 15.1159 71.5746 15.1156H79.3568L69.9095 5.66834Z" fill="#0A2F53"/>
<path d="M16.784 58.6094C16.5124 58.3381 16.1552 58.1694 15.7732 58.1319C15.3913 58.0945 15.0081 58.1906 14.689 58.404C14.37 58.6173 14.1348 58.9347 14.0234 59.302C13.9121 59.6694 13.9316 60.0639 14.0786 60.4185C14.2256 60.7731 14.4909 61.0657 14.8294 61.2466C15.168 61.4275 15.5587 61.4854 15.9352 61.4105C16.3116 61.3355 16.6504 61.1324 16.8939 60.8357C17.1374 60.539 17.2705 60.1671 17.2705 59.7832C17.2691 59.3432 17.0943 58.9214 16.784 58.6094Z" fill="#0A2F53"/>
<path d="M27.8835 56.4626C22.0681 56.4548 16.4932 54.1411 12.3812 50.0289C8.26915 45.9166 5.95574 40.3415 5.94824 34.5261C5.94855 34.0858 6.12355 33.6635 6.43482 33.352C6.7461 33.0405 7.16823 32.8652 7.60859 32.8646H26.2232V14.2512C26.2238 13.8108 26.3991 13.3887 26.7106 13.0774C27.0221 12.7661 27.4444 12.5911 27.8847 12.5908C33.7023 12.5908 39.2817 14.9019 43.3953 19.0155C47.509 23.1292 49.82 28.7085 49.82 34.5261C49.82 40.3437 47.509 45.9231 43.3953 50.0367C39.2817 54.1504 33.7023 56.4614 27.8847 56.4614L27.8835 56.4626ZM9.34334 36.1865C9.6014 39.0968 10.5409 41.9055 12.0859 44.3853C13.6309 46.8651 15.738 48.9463 18.2367 50.4607C20.7353 51.975 23.5554 52.8798 26.4686 53.102C29.3819 53.3242 32.3065 52.8574 35.0059 51.7395C37.7053 50.6216 40.1036 48.8839 42.0068 46.6671C43.91 44.4503 45.2646 41.8165 45.961 38.979C46.6574 36.1415 46.676 33.1799 46.0154 30.3339C45.3548 27.4878 44.0334 24.8372 42.1583 22.5966L29.0503 35.7047C28.8964 35.8592 28.7134 35.9817 28.512 36.0652C28.3105 36.1487 28.0945 36.1915 27.8765 36.1912H9.34334V36.1865ZM29.5439 15.9859V30.5181L39.8178 20.2443C36.9121 17.8028 33.3247 16.3159 29.5439 15.9859Z" fill="#0A2F53"/>
<path d="M30.5408 78.3717C29.2329 78.3516 27.9853 77.8179 27.0675 76.8858C26.1497 75.9538 25.6353 74.6982 25.6353 73.3901C25.6353 72.082 26.1497 70.8264 27.0675 69.8943C27.9853 68.9623 29.2329 68.4286 30.5408 68.4084C31.2818 68.4068 32.0136 68.5723 32.6818 68.8926L38.7764 62.7991C38.4727 62.1459 38.3159 61.434 38.317 60.7137C38.3167 59.981 38.4779 59.2573 38.7892 58.5941C39.1005 57.9309 39.5542 57.3445 40.1181 56.8767C40.682 56.4089 41.3421 56.0712 42.0513 55.8877C42.7606 55.7042 43.5017 55.6793 44.2217 55.815C44.9416 55.9506 45.6228 56.2434 46.2167 56.6724C46.8106 57.1014 47.3026 57.6561 47.6576 58.297C48.0126 58.9379 48.2219 59.6492 48.2705 60.3803C48.3192 61.1113 48.206 61.8441 47.9391 62.5264L54.2911 68.8784C54.9643 68.5605 55.7002 68.3975 56.4447 68.4014C57.1892 68.4053 57.9233 68.5759 58.5932 68.9009L68.1585 59.3355C67.8971 58.7222 67.7629 58.0621 67.7641 57.3953C67.7633 56.3048 68.12 55.2441 68.7797 54.3757C69.4393 53.5073 70.3655 52.8791 71.4163 52.5874C72.4671 52.2957 73.5846 52.3566 74.5975 52.7607C75.6103 53.1649 76.4628 53.8899 77.0242 54.8249C77.5856 55.7598 77.825 56.853 77.7057 57.937C77.5864 59.021 77.115 60.0359 76.3637 60.8264C75.6124 61.6168 74.6226 62.1392 73.5461 62.3133C72.4696 62.4875 71.3656 62.3039 70.4034 61.7906L60.9255 71.2674C61.2834 72.0287 61.4428 72.8683 61.3886 73.7079C61.3345 74.5474 61.0687 75.3596 60.6159 76.0686C60.1632 76.7777 59.5382 77.3606 58.7994 77.7629C58.0605 78.1652 57.2318 78.3739 56.3906 78.3695C55.5493 78.3651 54.7228 78.1477 53.9883 77.7376C53.2537 77.3276 52.6349 76.7382 52.1896 76.0244C51.7443 75.3106 51.487 74.4957 51.4417 73.6556C51.3964 72.8156 51.5646 71.9777 51.9305 71.2202L45.7567 65.0452C45.0073 65.4725 44.1596 65.6975 43.2969 65.6983C42.5315 65.7003 41.7761 65.5236 41.091 65.1822L35.0306 71.2414C35.3544 71.9124 35.522 72.648 35.5207 73.393C35.5182 74.7129 34.9927 75.978 34.0593 76.9112C33.1259 77.8443 31.8607 78.3695 30.5408 78.3717ZM30.5408 71.7291C30.1566 71.7281 29.7838 71.86 29.4858 72.1024C29.1877 72.3448 28.9826 72.6828 28.9053 73.0592C28.828 73.4355 28.8832 73.827 29.0616 74.1673C29.24 74.5076 29.5306 74.7757 29.8841 74.9262C30.2376 75.0767 30.6323 75.1003 31.0012 74.9931C31.3701 74.8858 31.6906 74.6543 31.9083 74.3377C32.126 74.0211 32.2275 73.639 32.1957 73.2561C32.1638 72.8732 32.0005 72.5132 31.7335 72.2369L31.7241 72.2287L31.7099 72.2145C31.7047 72.2098 31.7 72.2047 31.6957 72.1991C31.3868 71.8977 30.9723 71.7291 30.5408 71.7291ZM56.4239 71.7162C56.0945 71.7162 55.7725 71.8138 55.4987 71.9968C55.2248 72.1799 55.0114 72.44 54.8854 72.7443C54.7594 73.0486 54.7265 73.3835 54.7909 73.7065C54.8552 74.0295 55.0139 74.3262 55.2469 74.559C55.4799 74.7918 55.7767 74.9503 56.0997 75.0145C56.4228 75.0786 56.7576 75.0454 57.0619 74.9192C57.3661 74.793 57.6261 74.5794 57.8089 74.3054C57.9917 74.0315 58.0892 73.7094 58.0889 73.38C58.0883 72.9387 57.9126 72.5157 57.6005 72.2038C57.2883 71.8918 56.8652 71.7165 56.4239 71.7162ZM43.304 59.045C42.9746 59.045 42.6527 59.1427 42.3788 59.3257C42.105 59.5088 41.8916 59.7689 41.7656 60.0732C41.6396 60.3775 41.6067 60.7124 41.671 61.0354C41.7354 61.3584 41.8941 61.6551 42.127 61.8879C42.36 62.1207 42.6568 62.2792 42.9799 62.3433C43.303 62.4075 43.6378 62.3743 43.942 62.2481C44.2463 62.1219 44.5062 61.9083 44.689 61.6343C44.8719 61.3604 44.9693 61.0383 44.9691 60.7089C44.9685 60.2676 44.7928 59.8446 44.4806 59.5327C44.1685 59.2207 43.7453 59.0454 43.304 59.045ZM72.7439 55.7267C72.4146 55.7267 72.0927 55.8244 71.8189 56.0073C71.5451 56.1903 71.3316 56.4503 71.2056 56.7546C71.0796 57.0588 71.0466 57.3936 71.1109 57.7166C71.1751 58.0396 71.3337 58.3363 71.5666 58.5692C71.7994 58.802 72.0961 58.9606 72.4191 59.0249C72.7421 59.0891 73.0769 59.0561 73.3812 58.9301C73.6854 58.8041 73.9455 58.5907 74.1284 58.3168C74.3114 58.043 74.409 57.7211 74.409 57.3918C74.4087 56.9503 74.2332 56.5269 73.921 56.2147C73.6088 55.9025 73.1855 55.727 72.7439 55.7267Z" fill="#EE6F19"/>
<path d="M64.448 39.0254H55.6833C55.4653 39.0254 55.2494 39.0683 55.0479 39.1518C54.8465 39.2352 54.6634 39.3575 54.5093 39.5117C54.3551 39.6659 54.2328 39.8489 54.1493 40.0504C54.0659 40.2518 54.0229 40.4677 54.0229 40.6857C54.0229 40.9038 54.0659 41.1197 54.1493 41.3211C54.2328 41.5226 54.3551 41.7056 54.5093 41.8598C54.6634 42.014 54.8465 42.1363 55.0479 42.2197C55.2494 42.3031 55.4653 42.3461 55.6833 42.3461H64.448C64.666 42.3461 64.8819 42.3031 65.0834 42.2197C65.2848 42.1363 65.4678 42.014 65.622 41.8598C65.7762 41.7056 65.8985 41.5226 65.9819 41.3211C66.0654 41.1197 66.1083 40.9038 66.1083 40.6857C66.1083 40.4677 66.0654 40.2518 65.9819 40.0504C65.8985 39.8489 65.7762 39.6659 65.622 39.5117C65.4678 39.3575 65.2848 39.2352 65.0834 39.1518C64.8819 39.0683 64.666 39.0254 64.448 39.0254Z" fill="#0A2F53"/>
<path d="M73.1829 39.5118C72.9113 39.2405 72.5542 39.0717 72.1722 39.0343C71.7902 38.9968 71.407 39.093 71.088 39.3063C70.7689 39.5197 70.5337 39.8371 70.4224 40.2044C70.3111 40.5717 70.3306 40.9663 70.4775 41.3208C70.6245 41.6754 70.8898 41.9681 71.2284 42.1489C71.5669 42.3298 71.9577 42.3877 72.3341 42.3128C72.7105 42.2379 73.0494 42.0348 73.2928 41.7381C73.5363 41.4413 73.6694 41.0694 73.6694 40.6856C73.6679 40.2456 73.4931 39.8238 73.1829 39.5118Z" fill="#0A2F53"/>
<path d="M75.969 23.0835H55.6834C55.2429 23.0835 54.8204 23.2585 54.5089 23.57C54.1975 23.8815 54.0225 24.3039 54.0225 24.7444C54.0225 25.1849 54.1975 25.6074 54.5089 25.9189C54.8204 26.2304 55.2429 26.4054 55.6834 26.4054H75.969C76.4093 26.4054 76.8317 26.2305 77.143 25.9191C77.4544 25.6077 77.6293 25.1854 77.6293 24.745C77.6293 24.3047 77.4544 23.8824 77.143 23.571C76.8317 23.2596 76.4093 23.0847 75.969 23.0847V23.0835Z" fill="#0A2F53"/>
<path d="M75.969 31.0579H55.6834C55.2429 31.0579 54.8204 31.2329 54.5089 31.5443C54.1975 31.8558 54.0225 32.2783 54.0225 32.7188C54.0225 33.1593 54.1975 33.5818 54.5089 33.8933C54.8204 34.2048 55.2429 34.3797 55.6834 34.3797H75.969C76.4095 34.3797 76.832 34.2048 77.1434 33.8933C77.4549 33.5818 77.6299 33.1593 77.6299 32.7188C77.6299 32.2783 77.4549 31.8558 77.1434 31.5443C76.832 31.2329 76.4095 31.0579 75.969 31.0579Z" fill="#EE6F19"/>
</svg>
