<svg width="17" height="14" viewBox="0 0 17 14" fill="none" xmlns="http://www.w3.org/2000/svg">
<path d="M16.1468 1.98319C15.5539 2.23992 14.9266 2.40838 14.2848 2.48319C14.957 2.09368 15.4637 1.47206 15.7098 0.735186C15.0706 1.10414 14.3744 1.36403 13.6498 1.50419C13.3431 1.18654 12.9753 0.934199 12.5685 0.762349C12.1617 0.590499 11.7244 0.502684 11.2828 0.504186C10.4344 0.492971 9.61635 0.819132 9.0084 1.41096C8.40045 2.00278 8.05241 2.81182 8.04082 3.66019C8.04052 3.90232 8.06871 4.14364 8.12482 4.37919C6.84338 4.32072 5.58793 3.9975 4.43757 3.42989C3.28721 2.86228 2.26687 2.06259 1.44082 1.08119C1.15341 1.56054 1.00231 2.10927 1.00382 2.66819C1.00512 3.19119 1.13729 3.70556 1.38829 4.16441C1.63928 4.62325 2.00112 5.01199 2.44082 5.29519C1.92672 5.27781 1.42375 5.14085 0.97182 4.89519V4.93419C0.978586 5.67221 1.24161 6.38495 1.7159 6.95044C2.19018 7.51594 2.84624 7.89903 3.57182 8.03419C3.29308 8.10758 3.00606 8.14488 2.71782 8.14519C2.51307 8.14512 2.30879 8.12536 2.10782 8.08619C2.32381 8.72086 2.7317 9.27273 3.27507 9.66543C3.81844 10.0581 4.47042 10.2723 5.14082 10.2782C3.98314 11.158 2.5679 11.6321 1.11382 11.6272C0.855562 11.627 0.597509 11.6126 0.34082 11.5842C1.83105 12.5153 3.5536 13.0075 5.31082 13.0042C6.50909 13.0301 7.70054 12.8173 8.81577 12.3782C9.931 11.9392 10.9477 11.2826 11.8067 10.4468C12.6657 9.61092 13.3499 8.61252 13.8193 7.50971C14.2887 6.4069 14.5339 5.22172 14.5408 4.02319L14.5298 3.61419C15.163 3.17274 15.7109 2.62013 16.1468 1.98319Z" fill="url(#paint0_linear)"/>
<defs>
<linearGradient id="paint0_linear" x1="8.24382" y1="0.503906" x2="8.24382" y2="13.0063" gradientUnits="userSpaceOnUse">
<stop stop-color="#0A2F53"/>
<stop offset="1" stop-color="#3F6C98"/>
</linearGradient>
</defs>
</svg>
