<svg width="25" height="25" viewBox="0 0 25 25" fill="none" xmlns="http://www.w3.org/2000/svg">
<path opacity="0.59" d="M9.78705 8.6399C9.58844 8.78425 9.3599 9.04934 9.39903 9.49245L10.1228 17.6876C10.1631 18.1438 10.4458 18.3644 10.6759 18.4692C10.906 18.5739 11.258 18.6422 11.6285 18.3729L18.4764 13.3957C18.8469 13.1264 18.8906 12.7705 18.862 12.5193C18.8334 12.2681 18.7108 11.9311 18.2893 11.7519L10.7177 8.53399C10.3083 8.35999 9.98566 8.49554 9.78705 8.6399ZM7.43505 5.40389C8.76327 4.43852 10.5626 4.12128 12.2825 4.85226L19.8541 8.07021C23.3959 9.57549 23.9414 14.3691 20.8284 16.6317L13.9805 21.6089C10.8675 23.8715 6.47635 21.873 6.13782 18.0395L5.41409 9.84437C5.2497 7.98279 6.10683 6.36927 7.43505 5.40389Z" fill="#EE6F19"/>
</svg>
