<svg width="40" height="40" viewBox="0 0 40 40" fill="none" xmlns="http://www.w3.org/2000/svg">
<path d="M22.4615 2.46155C12.7975 2.46155 4.96155 10.2975 4.96155 19.9615C4.96155 29.6256 12.7975 37.4615 22.4615 37.4615C32.1256 37.4615 39.9616 29.6256 39.9616 19.9615C39.9616 10.2975 32.1256 2.46155 22.4615 2.46155ZM30.8717 15.653C30.8834 15.8365 30.8834 16.028 30.8834 16.2155C30.8834 21.9498 26.5162 28.5553 18.5358 28.5553C16.0748 28.5553 13.7936 27.8405 11.8717 26.61C12.2233 26.649 12.5592 26.6647 12.9186 26.6647C14.9498 26.6647 16.817 25.9772 18.3053 24.8131C16.399 24.774 14.7975 23.524 14.2506 21.8053C14.9186 21.903 15.5201 21.903 16.2076 21.7272C15.2261 21.5278 14.3439 20.9947 13.7108 20.2185C13.0778 19.4423 12.733 18.4709 12.735 17.4694V17.4147C13.3092 17.7389 13.985 17.9381 14.692 17.9655C14.0977 17.5693 13.6102 17.0327 13.2729 16.4031C12.9356 15.7735 12.7589 15.0703 12.7584 14.3561C12.7584 13.5475 12.9694 12.8092 13.3483 12.1686C14.4377 13.5097 15.7972 14.6066 17.3384 15.388C18.8795 16.1693 20.5678 16.6176 22.2936 16.7037C21.6803 13.7545 23.8834 11.3678 26.5319 11.3678C27.7819 11.3678 28.9069 11.8912 29.6998 12.735C30.6803 12.5514 31.6178 12.1842 32.4537 11.692C32.1295 12.6959 31.4498 13.5436 30.5475 14.0787C31.4225 13.985 32.2662 13.7428 33.0475 13.403C32.4576 14.2701 31.7194 15.0397 30.8717 15.653Z" fill="#0A2F53"/>
</svg>
