<svg width="76" height="79" viewBox="0 0 76 79" fill="none" xmlns="http://www.w3.org/2000/svg">
<rect width="76" height="78.2588" rx="12" transform="matrix(-1 0 0 1 76 0.552734)" fill="#264E86"/>
<path fill-rule="evenodd" clip-rule="evenodd" d="M21 61.316C21 62.1122 21.6261 62.7583 22.3976 62.7583C23.169 62.7583 23.7952 62.1122 23.7952 61.316V18.048C23.7952 17.2518 23.169 16.6057 22.3976 16.6057C21.6261 16.6057 21 17.2518 21 18.048V61.316ZM41.8797 26.2209L46.835 18.8749C47.1298 18.4326 47.1666 17.8557 46.9455 17.3749C46.7061 16.9134 46.2271 16.6057 45.7113 16.6057H26.59C26.7373 17.048 26.8294 17.548 26.8294 18.048V35.8362H45.7113C46.2271 35.8362 46.7061 35.5285 46.9455 35.067C47.1666 34.5862 47.1298 34.0093 46.835 33.567L41.8797 26.2209ZM44.759 51.2202C48.1037 51.2202 50.8151 48.6373 50.8151 45.4512C50.8151 42.265 48.1037 39.6821 44.759 39.6821C41.4143 39.6821 38.7029 42.265 38.7029 45.4512C38.7029 48.6373 41.4143 51.2202 44.759 51.2202ZM39.1686 53.1433H49.4174C52.2443 53.1433 54.5419 55.5144 54.5419 58.4316V61.3161C54.5419 62.1122 53.9158 62.7583 53.1443 62.7583H35.4418C34.6703 62.7583 34.0442 62.1122 34.0442 61.3161V58.4316C34.0442 55.5144 36.3418 53.1433 39.1686 53.1433Z" fill="white"/>
</svg>
