<svg width="77" height="79" viewBox="0 0 77 79" fill="none" xmlns="http://www.w3.org/2000/svg">
<rect width="77" height="78.2588" rx="12" transform="matrix(-1 0 0 1 77 0.552734)" fill="#264E86"/>
<path fill-rule="evenodd" clip-rule="evenodd" d="M38.1454 26.9944C37.1368 26.9944 36.3182 26.1482 36.3182 25.1055V24.2902C29.2348 25.2447 23.6108 30.8872 22.6594 37.9941H23.4718C24.511 37.9941 25.3544 38.8154 25.3544 39.8273C25.3544 40.8392 24.511 41.6604 23.4718 41.6604H22.5894C23.2911 49.0533 29.0326 54.9944 36.3181 55.9761V54.5495C36.3181 53.5068 37.1367 52.6606 38.1454 52.6606C39.154 52.6606 39.9726 53.5068 39.9726 54.5495V56.0463C47.5452 55.3226 53.5894 49.2582 54.3105 41.6604H52.8182C51.779 41.6604 50.9355 40.8392 50.9355 39.8273C50.9355 38.8154 51.779 37.9941 52.8182 37.9941H54.2405C53.262 30.6847 47.3408 24.9243 39.9727 24.2201V25.1055C39.9727 26.1482 39.1541 26.9944 38.1454 26.9944ZM18.7125 41.6604C19.4385 51.192 26.8997 58.8629 36.3181 59.8791V61.1605C36.3181 62.2031 37.1367 63.0493 38.1454 63.0493C39.154 63.0493 39.9726 62.2031 39.9726 61.1605V59.9352C49.6764 59.191 57.4451 51.3964 58.1867 41.6604H59.4073C60.4465 41.6604 61.2899 40.8392 61.2899 39.8273C61.2899 38.8154 60.4465 37.9941 59.4073 37.9941H58.1307C57.118 28.5447 49.4726 21.0588 39.9727 20.3302V18.4946C39.9727 17.4519 39.1541 16.6057 38.1454 16.6057C37.1368 16.6057 36.3182 17.4519 36.3182 18.4946V20.3863C27.1018 21.3806 19.7596 28.7472 18.7685 37.9941H16.8826C15.8434 37.9941 15 38.8154 15 39.8273C15 40.8392 15.8434 41.6604 16.8826 41.6604H18.7125ZM32.2235 49.339C32.4729 49.517 32.7672 49.605 33.0615 49.605C33.3051 49.605 33.5506 49.5444 33.7709 49.4173L38.1733 46.9572L42.5952 49.386C43.0843 49.6578 43.6846 49.6226 44.1445 49.296C44.6005 48.9714 44.8324 48.4141 44.7408 47.8587L43.8639 42.5867L47.477 38.8498C47.859 38.4567 47.9895 37.8798 47.8122 37.3597C47.6368 36.8395 47.1847 36.4621 46.6429 36.38L41.689 35.6388L39.4459 30.889C39.2042 30.3766 38.6897 30.05 38.1246 30.05C37.573 30.0676 37.0371 30.3805 36.7993 30.8987L34.5874 35.6643L29.6355 36.4386C29.0937 36.5247 28.6454 36.906 28.4739 37.4281C28.3005 37.9502 28.4369 38.5232 28.8189 38.9163L32.4574 42.6278L31.6174 47.9076C31.5297 48.461 31.7655 49.0164 32.2235 49.339Z" fill="white"/>
</svg>
